<?xml version="1.0" standalone="no"?>
<!DOCTYPE svg PUBLIC "-//W3C//DTD SVG 1.1//EN"
"http://www.w3.org/Graphics/SVG/1.1/DTD/svg11.dtd">
<svg width="100%" height="100%" version="1.1"
xmlns="http://www.w3.org/2000/svg"
xmlns:xlink="http://www.w3.org/1999/xlink">
<g fill-rule="evenodd"><path d="M 408.189,5.03937 L 418.268,5.03937 L 428.346,5.03937 L 438.425,5.03937 L 448.504,5.03937 L 458.583,5.03937 L 468.661,5.03937 L 478.74,5.03937 L 488.819,5.03937 L 498.898,5.03937 L 508.976,5.03937 L 519.055,5.03937 L 529.134,5.03937 L 539.213,5.03937 L 549.291,5.03937 L 559.37,5.03937 L 569.449,5.03937 L 579.528,5.03937 L 569.449,5.03937 L 559.37,15.1181 L 559.37,25.1969 L 559.37,35.2756 L 559.37,45.3543 L 559.37,55.4331 L 559.37,65.5118 L 549.291,65.5118 L 539.213,75.5906 L 539.213,85.6693 L 549.291,95.748 L 559.37,95.748 L 569.449,105.827 L 579.528,105.827 L 589.606,115.906 L 599.685,115.906 L 609.764,125.984 L 619.843,125.984 L 629.921,136.063 L 640,136.063 L 650.079,136.063 L 660.157,136.063 L 670.236,125.984 L 680.315,125.984 L 690.394,115.906 L 700.472,115.906 L 710.551,105.827 L 720.63,105.827 L 730.709,95.748 L 740.787,95.748 L 750.866,85.6693 L 750.866,75.5906 L 740.787,65.5118 L 730.709,65.5118 L 730.709,55.4331 L 730.709,45.3543 L 730.709,35.2756 L 730.709,25.1969 L 730.709,15.1181 L 720.63,5.03937 L 710.551,5.03937 L 720.63,5.03937 L 730.709,5.03937 L 740.787,5.03937 L 750.866,5.03937 L 760.945,5.03937 L 771.024,5.03937 L 781.102,5.03937 L 791.181,5.03937 L 801.26,5.03937 L 811.339,5.03937 L 821.417,5.03937 L 831.496,5.03937 L 841.575,5.03937 L 851.654,5.03937 L 861.732,5.03937 L 871.811,5.03937 L 871.811,15.1181 L 881.89,25.1969 L 871.811,35.2756 L 881.89,45.3543 L 891.969,55.4331 L 902.047,55.4331 L 891.969,65.5118 L 881.89,65.5118 L 871.811,75.5906 L 861.732,75.5906 L 851.654,85.6693 L 841.575,95.748 L 841.575,105.827 L 831.496,115.906 L 841.575,125.984 L 831.496,136.063 L 831.496,146.142 L 831.496,156.22 L 841.575,166.299 L 831.496,176.378 L 821.417,176.378 L 811.339,186.457 L 801.26,196.535 L 791.181,196.535 L 781.102,206.614 L 771.024,206.614 L 760.945,216.693 L 750.866,216.693 L 740.787,226.772 L 730.709,236.85 L 730.709,246.929 L 740.787,257.008 L 750.866,257.008 L 760.945,267.087 L 771.024,277.165 L 781.102,277.165 L 791.181,287.244 L 801.26,287.244 L 811.339,297.323 L 821.417,297.323 L 831.496,307.402 L 841.575,307.402 L 851.654,307.402 L 861.732,307.402 L 871.811,297.323 L 881.89,297.323 L 891.969,287.244 L 902.047,287.244 L 912.126,277.165 L 922.205,277.165 L 932.283,267.087 L 942.362,267.087 L 952.441,257.008 L 952.441,246.929 L 942.362,236.85 L 932.283,226.772 L 922.205,226.772 L 912.126,216.693 L 922.205,206.614 L 912.126,196.535 L 922.205,186.457 L 922.205,176.378 L 922.205,166.299 L 912.126,156.22 L 922.205,156.22 L 932.283,146.142 L 942.362,146.142 L 952.441,136.063 L 962.52,136.063 L 972.598,125.984 L 982.677,125.984 L 992.756,115.906 L 1002.83,115.906 L 1012.91,115.906 L 1022.99,115.906 L 1033.07,115.906 L 1043.15,115.906 L 1053.23,115.906 L 1063.31,115.906 L 1073.39,125.984 L 1083.46,125.984 L 1093.54,136.063 L 1103.62,136.063 L 1113.7,146.142 L 1123.78,146.142 L 1133.86,156.22 L 1133.86,166.299 L 1133.86,176.378 L 1133.86,186.457 L 1143.94,196.535 L 1133.86,206.614 L 1143.94,216.693 L 1154.02,226.772 L 1164.09,226.772 L 1174.17,236.85 L 1184.25,236.85 L 1174.17,246.929 L 1184.25,257.008 L 1174.17,267.087 L 1184.25,277.165 L 1174.17,287.244 L 1164.09,287.244 L 1154.02,297.323 L 1143.94,297.323 L 1133.86,287.244 L 1123.78,287.244 L 1113.7,277.165 L 1123.78,277.165 L 1133.86,287.244 L 1143.94,287.244 L 1154.02,277.165 L 1154.02,267.087 L 1154.02,257.008 L 1154.02,246.929 L 1143.94,236.85 L 1133.86,236.85 L 1123.78,226.772 L 1113.7,226.772 L 1113.7,216.693 L 1113.7,206.614 L 1113.7,196.535 L 1113.7,186.457 L 1113.7,176.378 L 1113.7,166.299 L 1103.62,156.22 L 1093.54,156.22 L 1083.46,146.142 L 1073.39,146.142 L 1063.31,136.063 L 1053.23,136.063 L 1043.15,136.063 L 1033.07,136.063 L 1022.99,136.063 L 1012.91,136.063 L 1002.83,136.063 L 992.756,136.063 L 982.677,146.142 L 972.598,146.142 L 962.52,156.22 L 952.441,156.22 L 942.362,166.299 L 942.362,176.378 L 942.362,186.457 L 942.362,196.535 L 942.362,206.614 L 942.362,216.693 L 942.362,226.772 L 952.441,236.85 L 962.52,236.85 L 972.598,246.929 L 982.677,246.929 L 982.677,257.008 L 982.677,267.087 L 972.598,267.087 L 962.52,277.165 L 952.441,277.165 L 942.362,287.244 L 932.283,287.244 L 922.205,297.323 L 912.126,297.323 L 902.047,307.402 L 891.969,307.402 L 881.89,317.48 L 871.811,317.48 L 861.732,327.559 L 851.654,327.559 L 841.575,327.559 L 831.496,327.559 L 821.417,317.48 L 811.339,327.559 L 811.339,317.48 L 801.26,307.402 L 791.181,307.402 L 781.102,297.323 L 771.024,297.323 L 760.945,287.244 L 750.866,287.244 L 740.787,287.244 L 730.709,287.244 L 730.709,277.165 L 720.63,267.087 L 710.551,267.087 L 700.472,267.087 L 690.394,267.087 L 680.315,277.165 L 670.236,277.165 L 670.236,267.087 L 660.157,257.008 L 650.079,257.008 L 640,257.008 L 629.921,267.087 L 619.843,277.165 L 609.764,277.165 L 599.685,267.087 L 589.606,267.087 L 579.528,267.087 L 569.449,267.087 L 559.37,277.165 L 549.291,277.165 L 539.213,287.244 L 529.134,287.244 L 519.055,297.323 L 508.976,297.323 L 498.898,307.402 L 488.819,307.402 L 478.74,317.48 L 468.661,327.559 L 458.583,327.559 L 448.504,327.559 L 438.425,327.559 L 428.346,327.559 L 418.268,317.48 L 408.189,317.48 L 398.11,307.402 L 388.031,307.402 L 377.953,297.323 L 367.874,297.323 L 357.795,287.244 L 347.717,287.244 L 337.638,277.165 L 327.559,277.165 L 317.48,267.087 L 307.402,267.087 L 307.402,257.008 L 307.402,246.929 L 317.48,246.929 L 327.559,236.85 L 337.638,236.85 L 347.717,226.772 L 347.717,216.693 L 347.717,206.614 L 347.717,196.535 L 347.717,186.457 L 347.717,176.378 L 347.717,166.299 L 337.638,156.22 L 327.559,156.22 L 317.48,146.142 L 307.402,146.142 L 297.323,136.063 L 287.244,136.063 L 277.165,136.063 L 267.087,136.063 L 257.008,136.063 L 246.929,136.063 L 236.85,136.063 L 226.772,136.063 L 216.693,146.142 L 206.614,146.142 L 196.535,156.22 L 186.457,156.22 L 176.378,166.299 L 176.378,176.378 L 176.378,186.457 L 176.378,196.535 L 176.378,206.614 L 176.378,216.693 L 176.378,226.772 L 166.299,226.772 L 156.22,236.85 L 146.142,236.85 L 136.063,246.929 L 136.063,257.008 L 136.063,267.087 L 136.063,277.165 L 146.142,287.244 L 156.22,287.244 L 166.299,277.165 L 176.378,277.165 L 166.299,287.244 L 156.22,287.244 L 146.142,297.323 L 136.063,297.323 L 125.984,297.323 L 115.906,287.244 L 105.827,277.165 L 115.906,267.087 L 105.827,257.008 L 115.906,246.929 L 105.827,236.85 L 115.906,236.85 L 125.984,226.772 L 136.063,226.772 L 146.142,216.693 L 156.22,206.614 L 156.22,196.535 L 156.22,186.457 L 156.22,176.378 L 156.22,166.299 L 146.142,156.22 L 156.22,156.22 L 166.299,146.142 L 176.378,146.142 L 186.457,136.063 L 196.535,136.063 L 206.614,125.984 L 216.693,125.984 L 226.772,115.906 L 236.85,115.906 L 246.929,115.906 L 257.008,115.906 L 267.087,115.906 L 277.165,115.906 L 287.244,115.906 L 297.323,115.906 L 307.402,125.984 L 317.48,125.984 L 327.559,136.063 L 337.638,136.063 L 347.717,146.142 L 357.795,146.142 L 367.874,156.22 L 367.874,166.299 L 377.953,176.378 L 367.874,186.457 L 377.953,196.535 L 367.874,206.614 L 367.874,216.693 L 367.874,226.772 L 357.795,236.85 L 347.717,236.85 L 337.638,246.929 L 337.638,257.008 L 347.717,267.087 L 357.795,267.087 L 367.874,277.165 L 377.953,277.165 L 388.031,287.244 L 398.11,287.244 L 408.189,297.323 L 418.268,297.323 L 428.346,307.402 L 438.425,307.402 L 448.504,307.402 L 458.583,307.402 L 468.661,297.323 L 478.74,297.323 L 488.819,287.244 L 498.898,287.244 L 508.976,277.165 L 519.055,277.165 L 529.134,267.087 L 539.213,257.008 L 549.291,257.008 L 559.37,246.929 L 559.37,236.85 L 549.291,226.772 L 539.213,216.693 L 529.134,216.693 L 519.055,206.614 L 508.976,206.614 L 498.898,196.535 L 488.819,186.457 L 478.74,186.457 L 468.661,176.378 L 458.583,176.378 L 458.583,166.299 L 458.583,156.22 L 458.583,146.142 L 458.583,136.063 L 448.504,125.984 L 458.583,115.906 L 458.583,105.827 L 458.583,95.748 L 448.504,85.6693 L 438.425,85.6693 L 428.346,75.5906 L 418.268,75.5906 L 408.189,65.5118 L 398.11,65.5118 L 388.031,55.4331 L 398.11,55.4331 L 408.189,45.3543 L 418.268,35.2756 L 408.189,25.1969 L 418.268,15.1181 L 408.189,5.03937 z " style="fill-opacity:0.5;fill:rgb(253,0,0);stroke:rgb(253,0,0);stroke-width:2"/></g>
<g fill-rule="evenodd"><path d="M 1184.25,277.165 L 1154.02,297.323 L 1113.7,277.165 L 1143.94,287.244 L 1154.02,246.929 L 1113.7,226.772 L 1113.7,166.299 L 1063.31,136.063 L 992.756,136.063 L 952.441,156.22 L 942.362,226.772 L 982.677,246.929 L 982.677,267.087 L 861.732,327.559 L 811.339,327.559 L 801.26,307.402 L 730.709,287.244 L 720.63,267.087 L 670.236,277.165 L 660.157,257.008 L 619.843,277.165 L 569.449,267.087 L 468.661,327.559 L 428.346,327.559 L 307.402,267.087 L 307.402,246.929 L 347.717,226.772 L 347.717,166.299 L 297.323,136.063 L 226.772,136.063 L 176.378,166.299 L 176.378,226.772 L 136.063,246.929 L 136.063,277.165 L 176.378,277.165 L 166.299,287.244 L 125.984,297.323 L 105.827,277.165 L 105.827,236.85 L 156.22,206.614 L 146.142,156.22 L 226.772,115.906 L 297.323,115.906 L 357.795,146.142 L 377.953,176.378 L 367.874,226.772 L 337.638,257.008 L 428.346,307.402 L 458.583,307.402 L 549.291,257.008 L 559.37,236.85 L 458.583,176.378 L 458.583,95.748 L 388.031,55.4331 L 418.268,35.2756 L 408.189,5.03937 L 579.528,5.03937 L 559.37,15.1181 L 559.37,65.5118 L 539.213,85.6693 L 629.921,136.063 L 660.157,136.063 L 750.866,85.6693 L 730.709,65.5118 L 730.709,15.1181 L 710.551,5.03937 L 871.811,5.03937 L 871.811,35.2756 L 902.047,55.4331 L 841.575,95.748 L 841.575,166.299 L 750.866,216.693 L 730.709,236.85 L 740.787,257.008 L 831.496,307.402 L 861.732,307.402 L 952.441,257.008 L 912.126,216.693 L 912.126,156.22 L 992.756,115.906 L 1063.31,115.906 L 1133.86,156.22 L 1133.86,206.614 L 1184.25,236.85 L 1184.25,277.165 z " style="fill-opacity:0.5;fill:rgb(51,51,153);stroke:rgb(0,0,0);stroke-width:5"/></g>
<g fill-rule="evenodd"><path d="M 1254.8,5.03937 L 1264.88,5.03937 L 1274.96,5.03937 L 1285.04,5.03937 L 1285.04,15.1181 L 1274.96,15.1181 L 1264.88,15.1181 L 1254.8,15.1181 L 1254.8,5.03937M 609.764,257.008 L 599.685,267.087 L 609.764,277.165 L 619.843,267.087 L 609.764,257.008M 680.315,257.008 L 670.236,267.087 L 680.315,277.165 L 690.394,267.087 L 680.315,257.008 z " style="fill-opacity:0.5;fill:rgb(253,0,0);stroke:rgb(253,0,0);stroke-width:2"/></g>
<g fill-rule="evenodd"><path d=" z " style="fill-opacity:0.5;fill:rgb(51,51,153);stroke:rgb(0,0,0);stroke-width:5"/></g>
<g fill-rule="evenodd"><path d="M 216.693,287.244 L 216.693,297.323 L 206.614,307.402 L 196.535,317.48 L 206.614,327.559 L 216.693,327.559 L 226.772,337.638 L 236.85,337.638 L 246.929,347.717 L 257.008,347.717 L 267.087,357.795 L 277.165,357.795 L 277.165,367.874 L 277.165,377.953 L 277.165,388.031 L 287.244,398.11 L 297.323,398.11 L 297.323,408.189 L 297.323,418.268 L 297.323,428.346 L 297.323,438.425 L 287.244,438.425 L 277.165,438.425 L 267.087,438.425 L 257.008,448.504 L 246.929,448.504 L 236.85,458.583 L 226.772,458.583 L 216.693,468.661 L 206.614,468.661 L 196.535,478.74 L 186.457,478.74 L 176.378,478.74 L 166.299,478.74 L 156.22,488.819 L 156.22,498.898 L 156.22,508.976 L 156.22,519.055 L 146.142,519.055 L 136.063,529.134 L 125.984,539.213 L 136.063,549.291 L 146.142,559.37 L 156.22,559.37 L 166.299,569.449 L 176.378,569.449 L 186.457,579.528 L 196.535,579.528 L 196.535,589.606 L 196.535,599.685 L 196.535,609.764 L 196.535,619.843 L 186.457,619.843 L 176.378,619.843 L 166.299,619.843 L 166.299,609.764 L 166.299,599.685 L 156.22,589.606 L 146.142,589.606 L 136.063,579.528 L 125.984,579.528 L 115.906,569.449 L 105.827,569.449 L 95.748,559.37 L 85.6693,559.37 L 75.5906,559.37 L 65.5118,559.37 L 55.4331,569.449 L 45.3543,569.449 L 35.2756,569.449 L 25.1969,569.449 L 15.1181,579.528 L 5.03937,579.528 L 5.03937,569.449 L 5.03937,559.37 L 5.03937,549.291 L 5.03937,539.213 L 5.03937,529.134 L 5.03937,519.055 L 5.03937,508.976 L 5.03937,498.898 L 5.03937,488.819 L 5.03937,478.74 L 5.03937,468.661 L 5.03937,458.583 L 5.03937,448.504 L 5.03937,438.425 L 5.03937,428.346 L 5.03937,418.268 L 5.03937,408.189 L 5.03937,398.11 L 15.1181,398.11 L 25.1969,408.189 L 35.2756,418.268 L 45.3543,418.268 L 55.4331,418.268 L 65.5118,428.346 L 75.5906,428.346 L 85.6693,438.425 L 95.748,438.425 L 105.827,448.504 L 115.906,448.504 L 125.984,458.583 L 136.063,458.583 L 146.142,458.583 L 156.22,458.583 L 166.299,458.583 L 176.378,458.583 L 186.457,458.583 L 196.535,458.583 L 206.614,448.504 L 216.693,448.504 L 226.772,438.425 L 236.85,438.425 L 246.929,428.346 L 257.008,418.268 L 257.008,408.189 L 257.008,398.11 L 246.929,388.031 L 257.008,377.953 L 257.008,367.874 L 257.008,357.795 L 246.929,347.717 L 236.85,347.717 L 226.772,347.717 L 216.693,337.638 L 206.614,327.559 L 196.535,327.559 L 186.457,317.48 L 176.378,317.48 L 176.378,307.402 L 186.457,307.402 L 196.535,297.323 L 206.614,297.323 L 216.693,287.244 z " style="fill-opacity:0.5;fill:rgb(253,0,0);stroke:rgb(253,0,0);stroke-width:2"/></g>
<g fill-rule="evenodd"><path d="M 5.03937,579.528 L 5.03937,398.11 L 125.984,458.583 L 196.535,458.583 L 257.008,418.268 L 257.008,357.795 L 176.378,317.48 L 216.693,287.244 L 196.535,317.48 L 277.165,357.795 L 297.323,438.425 L 166.299,478.74 L 156.22,519.055 L 125.984,539.213 L 196.535,579.528 L 196.535,619.843 L 166.299,619.843 L 156.22,589.606 L 95.748,559.37 L 5.03937,579.528 z " style="fill-opacity:0.5;fill:rgb(51,51,153);stroke:rgb(0,0,0);stroke-width:5"/></g>
<g fill-rule="evenodd"><path d="M 1073.39,287.244 L 1083.46,297.323 L 1093.54,297.323 L 1103.62,307.402 L 1113.7,307.402 L 1113.7,317.48 L 1103.62,317.48 L 1093.54,327.559 L 1083.46,327.559 L 1073.39,337.638 L 1063.31,347.717 L 1053.23,347.717 L 1043.15,347.717 L 1033.07,357.795 L 1033.07,367.874 L 1033.07,377.953 L 1043.15,388.031 L 1033.07,398.11 L 1043.15,408.189 L 1033.07,418.268 L 1043.15,428.346 L 1053.23,438.425 L 1063.31,438.425 L 1073.39,448.504 L 1083.46,448.504 L 1093.54,458.583 L 1103.62,458.583 L 1113.7,458.583 L 1123.78,458.583 L 1133.86,458.583 L 1143.94,458.583 L 1154.02,458.583 L 1164.09,458.583 L 1174.17,448.504 L 1184.25,448.504 L 1194.33,438.425 L 1204.41,438.425 L 1214.49,438.425 L 1224.57,428.346 L 1234.65,418.268 L 1244.72,418.268 L 1254.8,408.189 L 1264.88,408.189 L 1274.96,398.11 L 1285.04,398.11 L 1285.04,408.189 L 1285.04,418.268 L 1285.04,428.346 L 1285.04,438.425 L 1285.04,448.504 L 1285.04,458.583 L 1285.04,468.661 L 1285.04,478.74 L 1285.04,488.819 L 1285.04,498.898 L 1285.04,508.976 L 1285.04,519.055 L 1285.04,529.134 L 1285.04,539.213 L 1285.04,549.291 L 1285.04,559.37 L 1285.04,569.449 L 1285.04,579.528 L 1274.96,579.528 L 1264.88,569.449 L 1254.8,569.449 L 1244.72,569.449 L 1234.65,569.449 L 1224.57,559.37 L 1214.49,559.37 L 1204.41,559.37 L 1194.33,559.37 L 1184.25,569.449 L 1174.17,569.449 L 1164.09,579.528 L 1154.02,579.528 L 1143.94,589.606 L 1133.86,589.606 L 1123.78,599.685 L 1123.78,609.764 L 1123.78,619.843 L 1113.7,619.843 L 1103.62,619.843 L 1093.54,619.843 L 1093.54,609.764 L 1093.54,599.685 L 1093.54,589.606 L 1093.54,579.528 L 1103.62,579.528 L 1113.7,569.449 L 1123.78,569.449 L 1133.86,559.37 L 1143.94,559.37 L 1154.02,549.291 L 1164.09,539.213 L 1154.02,529.134 L 1143.94,519.055 L 1133.86,519.055 L 1133.86,508.976 L 1133.86,498.898 L 1133.86,488.819 L 1123.78,478.74 L 1113.7,478.74 L 1103.62,478.74 L 1093.54,478.74 L 1083.46,468.661 L 1073.39,468.661 L 1063.31,458.583 L 1053.23,458.583 L 1043.15,448.504 L 1033.07,448.504 L 1022.99,438.425 L 1012.91,438.425 L 1002.83,438.425 L 992.756,428.346 L 992.756,418.268 L 992.756,408.189 L 992.756,398.11 L 1002.83,398.11 L 1012.91,388.031 L 1012.91,377.953 L 1012.91,367.874 L 1012.91,357.795 L 1022.99,357.795 L 1033.07,347.717 L 1043.15,347.717 L 1053.23,337.638 L 1063.31,337.638 L 1073.39,327.559 L 1083.46,327.559 L 1093.54,317.48 L 1083.46,307.402 L 1073.39,297.323 L 1073.39,287.244 z " style="fill-opacity:0.5;fill:rgb(253,0,0);stroke:rgb(253,0,0);stroke-width:2"/></g>
<g fill-rule="evenodd"><path d="M 1285.04,579.528 L 1194.33,559.37 L 1133.86,589.606 L 1123.78,619.843 L 1093.54,619.843 L 1093.54,579.528 L 1164.09,539.213 L 1133.86,519.055 L 1123.78,478.74 L 1093.54,478.74 L 992.756,428.346 L 1012.91,357.795 L 1093.54,317.48 L 1073.39,287.244 L 1113.7,317.48 L 1033.07,357.795 L 1033.07,418.268 L 1093.54,458.583 L 1164.09,458.583 L 1285.04,398.11 L 1285.04,579.528 z " style="fill-opacity:0.5;fill:rgb(51,51,153);stroke:rgb(0,0,0);stroke-width:5"/></g>
<g fill-rule="evenodd"><path d="M 629.921,398.11 L 640,398.11 L 629.921,398.11 z " style="fill-opacity:0.5;fill:rgb(253,0,0);stroke:rgb(253,0,0);stroke-width:2"/></g>
<g fill-rule="evenodd"><path d="M 640,398.11 z " style="fill-opacity:0.5;fill:rgb(51,51,153);stroke:rgb(0,0,0);stroke-width:5"/></g>
<g fill-rule="evenodd"><path d="M 619.843,508.976 L 629.921,508.976 L 640,508.976 L 650.079,508.976 L 660.157,508.976 L 670.236,519.055 L 680.315,519.055 L 690.394,519.055 L 700.472,519.055 L 710.551,519.055 L 720.63,519.055 L 720.63,529.134 L 720.63,539.213 L 710.551,539.213 L 700.472,549.291 L 690.394,549.291 L 680.315,549.291 L 670.236,549.291 L 660.157,539.213 L 650.079,539.213 L 640,539.213 L 629.921,539.213 L 619.843,549.291 L 609.764,549.291 L 599.685,549.291 L 589.606,549.291 L 579.528,539.213 L 569.449,539.213 L 569.449,529.134 L 569.449,519.055 L 579.528,519.055 L 589.606,519.055 L 599.685,519.055 L 609.764,519.055 L 619.843,508.976M 629.921,508.976 L 619.843,519.055 L 629.921,529.134 L 640,519.055 L 629.921,508.976M 660.157,508.976 L 650.079,519.055 L 660.157,529.134 L 670.236,519.055 L 660.157,508.976M 599.685,519.055 L 589.606,529.134 L 599.685,539.213 L 609.764,539.213 L 619.843,529.134 L 609.764,519.055 L 599.685,519.055M 680.315,519.055 L 670.236,529.134 L 680.315,539.213 L 690.394,539.213 L 700.472,529.134 L 690.394,519.055 L 680.315,519.055 z " style="fill-opacity:0.5;fill:rgb(253,0,0);stroke:rgb(253,0,0);stroke-width:2"/></g>
<g fill-rule="evenodd"><path d="M 720.63,539.213 L 589.606,549.291 L 569.449,539.213 L 569.449,519.055 L 660.157,508.976 L 720.63,519.055 L 720.63,539.213M 609.764,539.213 L 619.843,529.134 L 599.685,519.055 L 589.606,529.134 L 609.764,539.213M 690.394,539.213 L 700.472,529.134 L 680.315,519.055 L 670.236,529.134 L 690.394,539.213 z " style="fill-opacity:0.5;fill:rgb(51,51,153);stroke:rgb(0,0,0);stroke-width:5"/></g>
<g fill-rule="evenodd"><path d="M 448.504,579.528 L 458.583,579.528 L 468.661,579.528 L 478.74,579.528 L 488.819,589.606 L 498.898,589.606 L 498.898,599.685 L 498.898,609.764 L 498.898,619.843 L 498.898,629.921 L 498.898,640 L 498.898,650.079 L 488.819,650.079 L 478.74,660.157 L 488.819,670.236 L 498.898,670.236 L 498.898,680.315 L 498.898,690.394 L 498.898,700.472 L 498.898,710.551 L 488.819,710.551 L 478.74,720.63 L 468.661,720.63 L 458.583,720.63 L 448.504,720.63 L 448.504,710.551 L 448.504,700.472 L 458.583,690.394 L 448.504,680.315 L 448.504,670.236 L 448.504,660.157 L 448.504,650.079 L 448.504,640 L 448.504,629.921 L 448.504,619.843 L 448.504,609.764 L 448.504,599.685 L 448.504,589.606 L 448.504,579.528M 478.74,579.528 L 468.661,589.606 L 478.74,599.685 L 488.819,589.606 L 478.74,579.528 z " style="fill-opacity:0.5;fill:rgb(253,0,0);stroke:rgb(253,0,0);stroke-width:2"/></g>
<g fill-rule="evenodd"><path d="M 478.74,720.63 L 448.504,720.63 L 448.504,579.528 L 498.898,589.606 L 498.898,650.079 L 478.74,660.157 L 498.898,670.236 L 498.898,710.551 L 478.74,720.63 z " style="fill-opacity:0.5;fill:rgb(51,51,153);stroke:rgb(0,0,0);stroke-width:5"/></g>
<g fill-rule="evenodd"><path d="M 811.339,579.528 L 821.417,579.528 L 831.496,579.528 L 841.575,579.528 L 841.575,589.606 L 841.575,599.685 L 831.496,609.764 L 841.575,619.843 L 841.575,629.921 L 841.575,640 L 841.575,650.079 L 841.575,660.157 L 841.575,670.236 L 841.575,680.315 L 841.575,690.394 L 841.575,700.472 L 841.575,710.551 L 841.575,720.63 L 831.496,720.63 L 821.417,720.63 L 811.339,720.63 L 801.26,710.551 L 791.181,710.551 L 791.181,700.472 L 791.181,690.394 L 791.181,680.315 L 791.181,670.236 L 791.181,660.157 L 791.181,650.079 L 801.26,650.079 L 811.339,640 L 801.26,629.921 L 791.181,629.921 L 791.181,619.843 L 791.181,609.764 L 791.181,599.685 L 791.181,589.606 L 801.26,589.606 L 811.339,579.528M 811.339,579.528 L 801.26,589.606 L 811.339,599.685 L 821.417,589.606 L 811.339,579.528 z " style="fill-opacity:0.5;fill:rgb(253,0,0);stroke:rgb(253,0,0);stroke-width:2"/></g>
<g fill-rule="evenodd"><path d="M 841.575,720.63 L 791.181,710.551 L 791.181,650.079 L 811.339,640 L 791.181,629.921 L 791.181,589.606 L 811.339,579.528 L 841.575,579.528 L 841.575,720.63 z " style="fill-opacity:0.5;fill:rgb(51,51,153);stroke:rgb(0,0,0);stroke-width:5"/></g>
<g fill-rule="evenodd"><path d="M 367.874,599.685 L 377.953,599.685 L 367.874,599.685 z " style="fill-opacity:0.5;fill:rgb(253,0,0);stroke:rgb(253,0,0);stroke-width:2"/></g>
<g fill-rule="evenodd"><path d="M 377.953,599.685 z " style="fill-opacity:0.5;fill:rgb(51,51,153);stroke:rgb(0,0,0);stroke-width:5"/></g>
<g fill-rule="evenodd"><path d="M 912.126,599.685 L 922.205,599.685 L 912.126,599.685M 468.661,609.764 L 458.583,619.843 L 468.661,629.921 L 478.74,619.843 L 468.661,609.764M 821.417,609.764 L 811.339,619.843 L 821.417,629.921 L 831.496,619.843 L 821.417,609.764M 478.74,660.157 L 468.661,670.236 L 478.74,680.315 L 488.819,670.236 L 478.74,660.157M 811.339,660.157 L 801.26,670.236 L 811.339,680.315 L 821.417,670.236 L 811.339,660.157 z " style="fill-opacity:0.5;fill:rgb(253,0,0);stroke:rgb(253,0,0);stroke-width:2"/></g>
<g fill-rule="evenodd"><path d="M 922.205,599.685 z " style="fill-opacity:0.5;fill:rgb(51,51,153);stroke:rgb(0,0,0);stroke-width:5"/></g>
<g fill-rule="evenodd"><path d="M 166.299,680.315 L 176.378,680.315 L 186.457,680.315 L 196.535,680.315 L 196.535,690.394 L 196.535,700.472 L 196.535,710.551 L 196.535,720.63 L 186.457,720.63 L 176.378,730.709 L 166.299,730.709 L 156.22,740.787 L 156.22,750.866 L 156.22,760.945 L 156.22,771.024 L 156.22,781.102 L 156.22,791.181 L 156.22,801.26 L 166.299,811.339 L 176.378,811.339 L 186.457,821.417 L 196.535,811.339 L 206.614,821.417 L 216.693,831.496 L 226.772,831.496 L 236.85,841.575 L 246.929,851.654 L 257.008,851.654 L 267.087,861.732 L 277.165,861.732 L 287.244,861.732 L 297.323,861.732 L 297.323,871.811 L 297.323,881.89 L 297.323,891.969 L 287.244,902.047 L 277.165,912.126 L 277.165,922.205 L 277.165,932.283 L 277.165,942.362 L 267.087,942.362 L 257.008,952.441 L 246.929,952.441 L 236.85,962.52 L 226.772,962.52 L 216.693,972.598 L 206.614,982.677 L 216.693,992.756 L 206.614,992.756 L 196.535,992.756 L 186.457,982.677 L 176.378,972.598 L 186.457,962.52 L 196.535,962.52 L 206.614,952.441 L 216.693,952.441 L 226.772,942.362 L 236.85,942.362 L 246.929,932.283 L 257.008,922.205 L 246.929,912.126 L 257.008,902.047 L 257.008,891.969 L 257.008,881.89 L 246.929,871.811 L 257.008,861.732 L 246.929,851.654 L 236.85,851.654 L 226.772,841.575 L 216.693,841.575 L 206.614,841.575 L 196.535,831.496 L 186.457,821.417 L 176.378,821.417 L 166.299,831.496 L 156.22,831.496 L 146.142,821.417 L 136.063,821.417 L 125.984,831.496 L 115.906,841.575 L 105.827,841.575 L 95.748,851.654 L 85.6693,851.654 L 75.5906,851.654 L 65.5118,861.732 L 55.4331,871.811 L 45.3543,871.811 L 35.2756,871.811 L 25.1969,881.89 L 15.1181,881.89 L 5.03937,891.969 L 5.03937,881.89 L 5.03937,871.811 L 5.03937,861.732 L 5.03937,851.654 L 5.03937,841.575 L 5.03937,831.496 L 5.03937,821.417 L 5.03937,811.339 L 5.03937,801.26 L 5.03937,791.181 L 5.03937,781.102 L 5.03937,771.024 L 5.03937,760.945 L 5.03937,750.866 L 5.03937,740.787 L 5.03937,730.709 L 5.03937,720.63 L 15.1181,720.63 L 25.1969,730.709 L 35.2756,730.709 L 45.3543,730.709 L 55.4331,730.709 L 65.5118,740.787 L 75.5906,740.787 L 85.6693,740.787 L 95.748,740.787 L 105.827,730.709 L 115.906,730.709 L 125.984,720.63 L 136.063,720.63 L 146.142,710.551 L 156.22,710.551 L 166.299,700.472 L 166.299,690.394 L 166.299,680.315 z " style="fill-opacity:0.5;fill:rgb(253,0,0);stroke:rgb(253,0,0);stroke-width:2"/></g>
<g fill-rule="evenodd"><path d="M 216.693,992.756 L 176.378,972.598 L 257.008,922.205 L 257.008,861.732 L 186.457,821.417 L 136.063,821.417 L 5.03937,891.969 L 5.03937,720.63 L 95.748,740.787 L 156.22,710.551 L 166.299,680.315 L 196.535,680.315 L 196.535,720.63 L 156.22,740.787 L 156.22,801.26 L 186.457,821.417 L 196.535,811.339 L 267.087,861.732 L 297.323,861.732 L 277.165,942.362 L 226.772,962.52 L 206.614,982.677 L 216.693,992.756 z " style="fill-opacity:0.5;fill:rgb(51,51,153);stroke:rgb(0,0,0);stroke-width:5"/></g>
<g fill-rule="evenodd"><path d="M 1093.54,680.315 L 1103.62,680.315 L 1113.7,680.315 L 1123.78,680.315 L 1123.78,690.394 L 1123.78,700.472 L 1133.86,710.551 L 1143.94,710.551 L 1154.02,720.63 L 1164.09,720.63 L 1174.17,730.709 L 1184.25,730.709 L 1194.33,740.787 L 1204.41,740.787 L 1214.49,740.787 L 1224.57,740.787 L 1234.65,730.709 L 1244.72,730.709 L 1254.8,730.709 L 1264.88,730.709 L 1274.96,720.63 L 1285.04,720.63 L 1285.04,730.709 L 1285.04,740.787 L 1285.04,750.866 L 1285.04,760.945 L 1285.04,771.024 L 1285.04,781.102 L 1285.04,791.181 L 1285.04,801.26 L 1285.04,811.339 L 1285.04,821.417 L 1285.04,831.496 L 1285.04,841.575 L 1285.04,851.654 L 1285.04,861.732 L 1285.04,871.811 L 1285.04,881.89 L 1285.04,891.969 L 1274.96,891.969 L 1264.88,881.89 L 1254.8,871.811 L 1244.72,871.811 L 1234.65,861.732 L 1224.57,861.732 L 1214.49,851.654 L 1204.41,851.654 L 1194.33,841.575 L 1184.25,841.575 L 1174.17,831.496 L 1164.09,831.496 L 1154.02,821.417 L 1143.94,831.496 L 1133.86,831.496 L 1123.78,831.496 L 1113.7,821.417 L 1103.62,831.496 L 1093.54,831.496 L 1083.46,831.496 L 1073.39,841.575 L 1063.31,841.575 L 1053.23,851.654 L 1043.15,851.654 L 1033.07,861.732 L 1033.07,871.811 L 1033.07,881.89 L 1043.15,891.969 L 1033.07,902.047 L 1043.15,912.126 L 1033.07,922.205 L 1043.15,932.283 L 1053.23,942.362 L 1063.31,942.362 L 1073.39,952.441 L 1083.46,952.441 L 1093.54,962.52 L 1103.62,962.52 L 1113.7,972.598 L 1103.62,982.677 L 1093.54,992.756 L 1083.46,992.756 L 1073.39,992.756 L 1083.46,982.677 L 1073.39,972.598 L 1063.31,962.52 L 1053.23,962.52 L 1043.15,952.441 L 1033.07,952.441 L 1022.99,942.362 L 1012.91,942.362 L 1012.91,932.283 L 1012.91,922.205 L 1012.91,912.126 L 1002.83,902.047 L 992.756,891.969 L 992.756,881.89 L 992.756,871.811 L 992.756,861.732 L 1002.83,861.732 L 1012.91,861.732 L 1022.99,861.732 L 1033.07,851.654 L 1043.15,851.654 L 1053.23,841.575 L 1053.23,831.496 L 1063.31,831.496 L 1073.39,821.417 L 1083.46,831.496 L 1093.54,821.417 L 1093.54,811.339 L 1103.62,821.417 L 1113.7,811.339 L 1123.78,811.339 L 1133.86,801.26 L 1133.86,791.181 L 1133.86,781.102 L 1133.86,771.024 L 1133.86,760.945 L 1133.86,750.866 L 1133.86,740.787 L 1123.78,730.709 L 1113.7,730.709 L 1103.62,720.63 L 1093.54,720.63 L 1093.54,710.551 L 1093.54,700.472 L 1093.54,690.394 L 1093.54,680.315 z " style="fill-opacity:0.5;fill:rgb(253,0,0);stroke:rgb(253,0,0);stroke-width:2"/></g>
<g fill-rule="evenodd"><path d="M 1073.39,992.756 L 1083.46,982.677 L 1063.31,962.52 L 1012.91,942.362 L 992.756,861.732 L 1022.99,861.732 L 1053.23,831.496 L 1083.46,831.496 L 1093.54,811.339 L 1103.62,821.417 L 1133.86,801.26 L 1133.86,740.787 L 1093.54,720.63 L 1093.54,680.315 L 1123.78,680.315 L 1133.86,710.551 L 1194.33,740.787 L 1285.04,720.63 L 1285.04,891.969 L 1154.02,821.417 L 1113.7,821.417 L 1033.07,861.732 L 1033.07,922.205 L 1113.7,972.598 L 1073.39,992.756 z " style="fill-opacity:0.5;fill:rgb(51,51,153);stroke:rgb(0,0,0);stroke-width:5"/></g>
<g fill-rule="evenodd"><path d="M 367.874,690.394 L 377.953,690.394 L 367.874,690.394M 468.661,690.394 L 458.583,700.472 L 468.661,710.551 L 478.74,700.472 L 468.661,690.394M 821.417,690.394 L 811.339,700.472 L 821.417,710.551 L 831.496,700.472 L 821.417,690.394 z " style="fill-opacity:0.5;fill:rgb(253,0,0);stroke:rgb(253,0,0);stroke-width:2"/></g>
<g fill-rule="evenodd"><path d="M 377.953,690.394 z " style="fill-opacity:0.5;fill:rgb(51,51,153);stroke:rgb(0,0,0);stroke-width:5"/></g>
<g fill-rule="evenodd"><path d="M 912.126,690.394 L 922.205,690.394 L 912.126,690.394 z " style="fill-opacity:0.5;fill:rgb(253,0,0);stroke:rgb(253,0,0);stroke-width:2"/></g>
<g fill-rule="evenodd"><path d="M 922.205,690.394 z " style="fill-opacity:0.5;fill:rgb(51,51,153);stroke:rgb(0,0,0);stroke-width:5"/></g>
<g fill-rule="evenodd"><path d="M 589.606,750.866 L 599.685,750.866 L 609.764,750.866 L 619.843,750.866 L 629.921,760.945 L 640,760.945 L 650.079,760.945 L 660.157,750.866 L 670.236,750.866 L 680.315,750.866 L 690.394,750.866 L 700.472,750.866 L 710.551,760.945 L 720.63,760.945 L 720.63,771.024 L 720.63,781.102 L 710.551,781.102 L 700.472,781.102 L 690.394,781.102 L 680.315,781.102 L 670.236,781.102 L 660.157,791.181 L 650.079,791.181 L 640,791.181 L 629.921,791.181 L 619.843,781.102 L 609.764,781.102 L 599.685,781.102 L 589.606,781.102 L 579.528,781.102 L 569.449,781.102 L 569.449,771.024 L 569.449,760.945 L 579.528,760.945 L 589.606,750.866M 589.606,750.866 L 579.528,760.945 L 589.606,771.024 L 599.685,760.945 L 589.606,750.866M 619.843,750.866 L 609.764,760.945 L 619.843,771.024 L 629.921,760.945 L 619.843,750.866M 670.236,750.866 L 660.157,760.945 L 670.236,771.024 L 680.315,760.945 L 670.236,750.866M 700.472,750.866 L 690.394,760.945 L 700.472,771.024 L 710.551,760.945 L 700.472,750.866M 640,760.945 L 629.921,771.024 L 640,781.102 L 650.079,781.102 L 660.157,771.024 L 650.079,760.945 L 640,760.945 z " style="fill-opacity:0.5;fill:rgb(253,0,0);stroke:rgb(253,0,0);stroke-width:2"/></g>
<g fill-rule="evenodd"><path d="M 720.63,781.102 L 629.921,791.181 L 569.449,781.102 L 569.449,760.945 L 700.472,750.866 L 720.63,760.945 L 720.63,781.102M 650.079,781.102 L 660.157,771.024 L 640,760.945 L 629.921,771.024 L 650.079,781.102 z " style="fill-opacity:0.5;fill:rgb(51,51,153);stroke:rgb(0,0,0);stroke-width:5"/></g>
<g fill-rule="evenodd"><path d="M 650.079,891.969 L 660.157,891.969 L 650.079,891.969 z " style="fill-opacity:0.5;fill:rgb(253,0,0);stroke:rgb(253,0,0);stroke-width:2"/></g>
<g fill-rule="evenodd"><path d="M 660.157,891.969 z " style="fill-opacity:0.5;fill:rgb(51,51,153);stroke:rgb(0,0,0);stroke-width:5"/></g>
<g fill-rule="evenodd"><path d="M 428.346,972.598 L 438.425,972.598 L 448.504,972.598 L 458.583,972.598 L 468.661,982.677 L 478.74,982.677 L 488.819,992.756 L 498.898,992.756 L 508.976,992.756 L 519.055,1002.83 L 529.134,1012.91 L 539.213,1012.91 L 549.291,1022.99 L 559.37,1022.99 L 569.449,1033.07 L 579.528,1033.07 L 589.606,1022.99 L 599.685,1033.07 L 609.764,1022.99 L 609.764,1012.91 L 619.843,1012.91 L 629.921,1022.99 L 640,1033.07 L 650.079,1033.07 L 660.157,1033.07 L 670.236,1022.99 L 670.236,1012.91 L 680.315,1012.91 L 680.315,1022.99 L 690.394,1033.07 L 700.472,1022.99 L 710.551,1033.07 L 720.63,1033.07 L 730.709,1022.99 L 730.709,1012.91 L 740.787,1022.99 L 750.866,1012.91 L 760.945,1012.91 L 771.024,1002.83 L 781.102,1002.83 L 791.181,992.756 L 801.26,992.756 L 811.339,982.677 L 821.417,982.677 L 831.496,972.598 L 841.575,972.598 L 851.654,972.598 L 861.732,972.598 L 871.811,982.677 L 881.89,982.677 L 891.969,992.756 L 902.047,992.756 L 912.126,1002.83 L 922.205,1002.83 L 932.283,1012.91 L 942.362,1012.91 L 952.441,1022.99 L 962.52,1022.99 L 972.598,1033.07 L 982.677,1033.07 L 982.677,1043.15 L 982.677,1053.23 L 972.598,1053.23 L 962.52,1063.31 L 952.441,1063.31 L 942.362,1073.39 L 942.362,1083.46 L 942.362,1093.54 L 942.362,1103.62 L 942.362,1113.7 L 942.362,1123.78 L 942.362,1133.86 L 952.441,1143.94 L 962.52,1143.94 L 972.598,1154.02 L 982.677,1154.02 L 992.756,1164.09 L 1002.83,1164.09 L 1012.91,1164.09 L 1022.99,1164.09 L 1033.07,1164.09 L 1043.15,1164.09 L 1053.23,1164.09 L 1063.31,1164.09 L 1073.39,1154.02 L 1083.46,1154.02 L 1093.54,1143.94 L 1103.62,1143.94 L 1113.7,1133.86 L 1113.7,1123.78 L 1113.7,1113.7 L 1113.7,1103.62 L 1113.7,1093.54 L 1113.7,1083.46 L 1113.7,1073.39 L 1123.78,1073.39 L 1133.86,1063.31 L 1143.94,1063.31 L 1154.02,1053.23 L 1154.02,1043.15 L 1154.02,1033.07 L 1154.02,1022.99 L 1143.94,1012.91 L 1133.86,1012.91 L 1123.78,1012.91 L 1113.7,1012.91 L 1123.78,1002.83 L 1133.86,992.756 L 1143.94,992.756 L 1154.02,992.756 L 1164.09,992.756 L 1174.17,1002.83 L 1174.17,1012.91 L 1184.25,1022.99 L 1174.17,1033.07 L 1184.25,1043.15 L 1174.17,1053.23 L 1164.09,1063.31 L 1154.02,1063.31 L 1143.94,1073.39 L 1143.94,1083.46 L 1133.86,1093.54 L 1133.86,1103.62 L 1133.86,1113.7 L 1143.94,1123.78 L 1133.86,1133.86 L 1123.78,1143.94 L 1113.7,1143.94 L 1103.62,1154.02 L 1093.54,1154.02 L 1083.46,1164.09 L 1073.39,1164.09 L 1063.31,1174.17 L 1053.23,1174.17 L 1043.15,1174.17 L 1033.07,1164.09 L 1022.99,1174.17 L 1012.91,1174.17 L 1002.83,1174.17 L 992.756,1174.17 L 982.677,1164.09 L 972.598,1154.02 L 962.52,1154.02 L 952.441,1154.02 L 942.362,1143.94 L 932.283,1143.94 L 922.205,1133.86 L 922.205,1123.78 L 922.205,1113.7 L 922.205,1103.62 L 922.205,1093.54 L 912.126,1083.46 L 922.205,1073.39 L 912.126,1063.31 L 922.205,1063.31 L 932.283,1053.23 L 942.362,1053.23 L 952.441,1043.15 L 952.441,1033.07 L 942.362,1022.99 L 932.283,1022.99 L 922.205,1012.91 L 912.126,1002.83 L 902.047,1002.83 L 891.969,1002.83 L 881.89,992.756 L 871.811,992.756 L 861.732,982.677 L 851.654,982.677 L 841.575,972.598 L 831.496,982.677 L 821.417,992.756 L 811.339,992.756 L 801.26,1002.83 L 791.181,1002.83 L 781.102,1012.91 L 771.024,1012.91 L 760.945,1012.91 L 750.866,1022.99 L 740.787,1033.07 L 740.787,1043.15 L 730.709,1053.23 L 740.787,1063.31 L 750.866,1073.39 L 760.945,1073.39 L 771.024,1083.46 L 781.102,1083.46 L 791.181,1093.54 L 801.26,1093.54 L 811.339,1103.62 L 821.417,1103.62 L 831.496,1113.7 L 831.496,1123.78 L 831.496,1133.86 L 831.496,1143.94 L 831.496,1154.02 L 831.496,1164.09 L 831.496,1174.17 L 831.496,1184.25 L 841.575,1194.33 L 851.654,1204.41 L 861.732,1214.49 L 871.811,1214.49 L 881.89,1214.49 L 891.969,1224.57 L 902.047,1224.57 L 891.969,1234.65 L 881.89,1244.72 L 871.811,1254.8 L 871.811,1264.88 L 881.89,1274.96 L 891.969,1285.04 L 902.047,1285.04 L 912.126,1285.04 L 922.205,1285.04 L 932.283,1285.04 L 942.362,1285.04 L 952.441,1285.04 L 962.52,1285.04 L 972.598,1285.04 L 982.677,1285.04 L 992.756,1285.04 L 1002.83,1285.04 L 1012.91,1285.04 L 1022.99,1285.04 L 1033.07,1285.04 L 1043.15,1285.04 L 1053.23,1285.04 L 1063.31,1285.04 L 1073.39,1285.04 L 1083.46,1285.04 L 1093.54,1285.04 L 1103.62,1285.04 L 1113.7,1285.04 L 1123.78,1285.04 L 1133.86,1285.04 L 1143.94,1285.04 L 1154.02,1285.04 L 1164.09,1285.04 L 1174.17,1285.04 L 1184.25,1285.04 L 1194.33,1285.04 L 1204.41,1285.04 L 1214.49,1285.04 L 1224.57,1285.04 L 1234.65,1285.04 L 1244.72,1274.96 L 1254.8,1274.96 L 1264.88,1274.96 L 1274.96,1274.96 L 1285.04,1274.96 L 1285.04,1285.04 L 1274.96,1285.04 L 1264.88,1285.04 L 1254.8,1285.04 L 1244.72,1285.04 L 1234.65,1285.04 L 1224.57,1285.04 L 1214.49,1285.04 L 1204.41,1285.04 L 1194.33,1285.04 L 1184.25,1285.04 L 1174.17,1285.04 L 1164.09,1285.04 L 1154.02,1285.04 L 1143.94,1285.04 L 1133.86,1285.04 L 1123.78,1285.04 L 1113.7,1285.04 L 1103.62,1285.04 L 1093.54,1285.04 L 1083.46,1285.04 L 1073.39,1285.04 L 1063.31,1285.04 L 1053.23,1285.04 L 1043.15,1285.04 L 1033.07,1285.04 L 1022.99,1285.04 L 1012.91,1285.04 L 1002.83,1285.04 L 992.756,1285.04 L 982.677,1285.04 L 972.598,1285.04 L 962.52,1285.04 L 952.441,1285.04 L 942.362,1285.04 L 932.283,1285.04 L 922.205,1285.04 L 912.126,1285.04 L 902.047,1285.04 L 891.969,1285.04 L 881.89,1285.04 L 871.811,1285.04 L 861.732,1285.04 L 851.654,1285.04 L 841.575,1285.04 L 831.496,1285.04 L 821.417,1285.04 L 811.339,1285.04 L 801.26,1285.04 L 791.181,1285.04 L 781.102,1285.04 L 771.024,1285.04 L 760.945,1285.04 L 750.866,1285.04 L 740.787,1285.04 L 730.709,1285.04 L 720.63,1285.04 L 710.551,1285.04 L 700.472,1285.04 L 690.394,1285.04 L 680.315,1285.04 L 670.236,1285.04 L 660.157,1285.04 L 650.079,1285.04 L 640,1285.04 L 629.921,1285.04 L 619.843,1285.04 L 609.764,1285.04 L 599.685,1285.04 L 589.606,1285.04 L 579.528,1285.04 L 569.449,1285.04 L 559.37,1285.04 L 549.291,1285.04 L 539.213,1285.04 L 529.134,1285.04 L 519.055,1285.04 L 508.976,1285.04 L 498.898,1285.04 L 488.819,1285.04 L 478.74,1285.04 L 468.661,1285.04 L 458.583,1285.04 L 448.504,1285.04 L 438.425,1285.04 L 428.346,1285.04 L 418.268,1285.04 L 408.189,1285.04 L 398.11,1285.04 L 388.031,1285.04 L 377.953,1285.04 L 367.874,1285.04 L 357.795,1285.04 L 347.717,1285.04 L 337.638,1285.04 L 327.559,1285.04 L 317.48,1285.04 L 307.402,1285.04 L 297.323,1285.04 L 287.244,1285.04 L 277.165,1285.04 L 267.087,1285.04 L 257.008,1285.04 L 246.929,1285.04 L 236.85,1285.04 L 226.772,1285.04 L 216.693,1285.04 L 206.614,1285.04 L 196.535,1285.04 L 186.457,1285.04 L 176.378,1285.04 L 166.299,1285.04 L 156.22,1285.04 L 146.142,1285.04 L 136.063,1285.04 L 125.984,1285.04 L 115.906,1285.04 L 105.827,1285.04 L 95.748,1285.04 L 85.6693,1285.04 L 75.5906,1285.04 L 65.5118,1285.04 L 55.4331,1285.04 L 45.3543,1285.04 L 35.2756,1285.04 L 25.1969,1285.04 L 15.1181,1285.04 L 5.03937,1285.04 L 5.03937,1274.96 L 15.1181,1274.96 L 25.1969,1274.96 L 35.2756,1274.96 L 45.3543,1274.96 L 55.4331,1285.04 L 65.5118,1285.04 L 75.5906,1285.04 L 85.6693,1285.04 L 95.748,1285.04 L 105.827,1285.04 L 115.906,1285.04 L 125.984,1285.04 L 136.063,1285.04 L 146.142,1285.04 L 156.22,1285.04 L 166.299,1285.04 L 176.378,1285.04 L 186.457,1285.04 L 196.535,1285.04 L 206.614,1285.04 L 216.693,1285.04 L 226.772,1285.04 L 236.85,1285.04 L 246.929,1285.04 L 257.008,1285.04 L 267.087,1285.04 L 277.165,1285.04 L 287.244,1285.04 L 297.323,1285.04 L 307.402,1285.04 L 317.48,1285.04 L 327.559,1285.04 L 337.638,1285.04 L 347.717,1285.04 L 357.795,1285.04 L 367.874,1285.04 L 377.953,1285.04 L 388.031,1285.04 L 398.11,1285.04 L 408.189,1274.96 L 418.268,1264.88 L 408.189,1254.8 L 408.189,1244.72 L 398.11,1234.65 L 398.11,1224.57 L 408.189,1214.49 L 418.268,1214.49 L 428.346,1214.49 L 438.425,1204.41 L 448.504,1194.33 L 458.583,1184.25 L 448.504,1174.17 L 458.583,1164.09 L 458.583,1154.02 L 458.583,1143.94 L 448.504,1133.86 L 458.583,1123.78 L 458.583,1113.7 L 468.661,1103.62 L 478.74,1103.62 L 488.819,1093.54 L 498.898,1093.54 L 508.976,1083.46 L 519.055,1083.46 L 529.134,1073.39 L 539.213,1073.39 L 549.291,1063.31 L 559.37,1053.23 L 559.37,1043.15 L 559.37,1033.07 L 549.291,1022.99 L 539.213,1022.99 L 529.134,1022.99 L 519.055,1012.91 L 508.976,1012.91 L 498.898,1002.83 L 488.819,1002.83 L 478.74,992.756 L 468.661,992.756 L 458.583,982.677 L 448.504,972.598 L 438.425,972.598 L 428.346,982.677 L 418.268,992.756 L 408.189,992.756 L 398.11,1002.83 L 388.031,1002.83 L 377.953,1002.83 L 367.874,1012.91 L 357.795,1022.99 L 347.717,1022.99 L 337.638,1033.07 L 337.638,1043.15 L 347.717,1053.23 L 357.795,1053.23 L 367.874,1063.31 L 367.874,1073.39 L 377.953,1083.46 L 367.874,1093.54 L 377.953,1103.62 L 367.874,1113.7 L 377.953,1123.78 L 367.874,1133.86 L 357.795,1133.86 L 347.717,1143.94 L 337.638,1154.02 L 327.559,1154.02 L 317.48,1154.02 L 307.402,1164.09 L 297.323,1164.09 L 287.244,1174.17 L 277.165,1174.17 L 267.087,1174.17 L 257.008,1174.17 L 246.929,1174.17 L 236.85,1174.17 L 226.772,1174.17 L 216.693,1164.09 L 206.614,1154.02 L 196.535,1154.02 L 186.457,1154.02 L 176.378,1143.94 L 166.299,1133.86 L 156.22,1133.86 L 156.22,1123.78 L 156.22,1113.7 L 146.142,1103.62 L 156.22,1093.54 L 146.142,1083.46 L 146.142,1073.39 L 136.063,1063.31 L 125.984,1063.31 L 115.906,1053.23 L 115.906,1043.15 L 115.906,1033.07 L 105.827,1022.99 L 115.906,1012.91 L 115.906,1002.83 L 125.984,992.756 L 136.063,992.756 L 146.142,992.756 L 156.22,992.756 L 166.299,1002.83 L 176.378,1012.91 L 166.299,1012.91 L 156.22,1012.91 L 146.142,1012.91 L 136.063,1022.99 L 136.063,1033.07 L 136.063,1043.15 L 136.063,1053.23 L 146.142,1063.31 L 156.22,1063.31 L 166.299,1073.39 L 176.378,1073.39 L 176.378,1083.46 L 176.378,1093.54 L 176.378,1103.62 L 176.378,1113.7 L 176.378,1123.78 L 176.378,1133.86 L 186.457,1143.94 L 196.535,1143.94 L 206.614,1154.02 L 216.693,1154.02 L 226.772,1164.09 L 236.85,1164.09 L 246.929,1164.09 L 257.008,1164.09 L 267.087,1164.09 L 277.165,1164.09 L 287.244,1164.09 L 297.323,1164.09 L 307.402,1154.02 L 317.48,1154.02 L 327.559,1143.94 L 337.638,1143.94 L 347.717,1133.86 L 347.717,1123.78 L 347.717,1113.7 L 347.717,1103.62 L 347.717,1093.54 L 347.717,1083.46 L 347.717,1073.39 L 337.638,1063.31 L 327.559,1063.31 L 317.48,1053.23 L 307.402,1053.23 L 307.402,1043.15 L 307.402,1033.07 L 317.48,1033.07 L 327.559,1022.99 L 337.638,1022.99 L 347.717,1012.91 L 357.795,1012.91 L 367.874,1002.83 L 377.953,1002.83 L 388.031,992.756 L 398.11,992.756 L 408.189,982.677 L 418.268,982.677 L 428.346,972.598M 629.921,1164.09 L 619.843,1174.17 L 609.764,1174.17 L 599.685,1184.25 L 589.606,1184.25 L 579.528,1194.33 L 569.449,1194.33 L 559.37,1204.41 L 559.37,1214.49 L 549.291,1214.49 L 539.213,1224.57 L 539.213,1234.65 L 549.291,1244.72 L 559.37,1244.72 L 559.37,1254.8 L 559.37,1264.88 L 559.37,1274.96 L 569.449,1285.04 L 579.528,1285.04 L 589.606,1285.04 L 599.685,1285.04 L 609.764,1285.04 L 619.843,1285.04 L 629.921,1285.04 L 640,1285.04 L 650.079,1285.04 L 660.157,1285.04 L 670.236,1285.04 L 680.315,1285.04 L 690.394,1285.04 L 700.472,1285.04 L 710.551,1285.04 L 720.63,1285.04 L 730.709,1274.96 L 730.709,1264.88 L 730.709,1254.8 L 730.709,1244.72 L 740.787,1244.72 L 750.866,1234.65 L 750.866,1224.57 L 740.787,1214.49 L 730.709,1214.49 L 730.709,1204.41 L 720.63,1194.33 L 710.551,1194.33 L 700.472,1184.25 L 690.394,1184.25 L 680.315,1174.17 L 670.236,1174.17 L 660.157,1164.09 L 650.079,1164.09 L 640,1164.09 L 629.921,1164.09 z " style="fill-opacity:0.5;fill:rgb(253,0,0);stroke:rgb(253,0,0);stroke-width:2"/></g>
<g fill-rule="evenodd"><path d="M 1285.04,1285.04 L 5.03937,1274.96 L 398.11,1285.04 L 418.268,1264.88 L 398.11,1224.57 L 458.583,1184.25 L 458.583,1113.7 L 559.37,1053.23 L 549.291,1022.99 L 438.425,972.598 L 337.638,1033.07 L 377.953,1083.46 L 367.874,1133.86 L 287.244,1174.17 L 226.772,1174.17 L 156.22,1133.86 L 156.22,1093.54 L 105.827,1022.99 L 125.984,992.756 L 156.22,992.756 L 176.378,1012.91 L 136.063,1022.99 L 136.063,1053.23 L 176.378,1073.39 L 176.378,1133.86 L 226.772,1164.09 L 297.323,1164.09 L 347.717,1133.86 L 347.717,1073.39 L 307.402,1053.23 L 307.402,1033.07 L 428.346,972.598 L 508.976,992.756 L 569.449,1033.07 L 599.685,1033.07 L 609.764,1012.91 L 640,1033.07 L 660.157,1033.07 L 670.236,1012.91 L 690.394,1033.07 L 720.63,1033.07 L 730.709,1012.91 L 740.787,1022.99 L 831.496,972.598 L 861.732,972.598 L 982.677,1033.07 L 982.677,1053.23 L 942.362,1073.39 L 942.362,1133.86 L 992.756,1164.09 L 1063.31,1164.09 L 1113.7,1133.86 L 1113.7,1073.39 L 1154.02,1053.23 L 1154.02,1022.99 L 1113.7,1012.91 L 1133.86,992.756 L 1164.09,992.756 L 1184.25,1022.99 L 1184.25,1043.15 L 1143.94,1073.39 L 1143.94,1123.78 L 1123.78,1143.94 L 1063.31,1174.17 L 992.756,1174.17 L 922.205,1133.86 L 912.126,1063.31 L 952.441,1043.15 L 942.362,1022.99 L 841.575,972.598 L 760.945,1012.91 L 730.709,1053.23 L 831.496,1113.7 L 831.496,1184.25 L 861.732,1214.49 L 902.047,1224.57 L 871.811,1254.8 L 891.969,1285.04 L 1285.04,1285.04M 720.63,1285.04 L 750.866,1224.57 L 660.157,1164.09 L 629.921,1164.09 L 539.213,1224.57 L 569.449,1285.04 L 720.63,1285.04 z " style="fill-opacity:0.5;fill:rgb(51,51,153);stroke:rgb(0,0,0);stroke-width:5"/></g>
</svg>
