<?xml version="1.0" standalone="no"?>
<!DOCTYPE svg PUBLIC "-//W3C//DTD SVG 1.1//EN"
"http://www.w3.org/Graphics/SVG/1.1/DTD/svg11.dtd">
<svg width="100%" height="100%" version="1.1"
xmlns="http://www.w3.org/2000/svg"
xmlns:xlink="http://www.w3.org/1999/xlink">
<g fill-rule="evenodd"><path d="M 367.37,4.53543 L 376.441,4.53543 L 385.512,4.53543 L 394.583,4.53543 L 403.654,4.53543 L 412.724,4.53543 L 421.795,4.53543 L 430.866,4.53543 L 439.937,4.53543 L 449.008,4.53543 L 458.079,4.53543 L 467.15,4.53543 L 476.22,4.53543 L 485.291,4.53543 L 494.362,4.53543 L 503.433,4.53543 L 512.504,4.53543 L 521.575,4.53543 L 512.504,4.53543 L 503.433,13.6063 L 503.433,22.6772 L 503.433,31.748 L 503.433,40.8189 L 503.433,49.8898 L 503.433,58.9606 L 494.362,58.9606 L 485.291,68.0315 L 485.291,77.1024 L 494.362,86.1732 L 503.433,86.1732 L 512.504,95.2441 L 521.575,95.2441 L 530.646,104.315 L 539.717,104.315 L 548.787,113.386 L 557.858,113.386 L 566.929,122.457 L 576,122.457 L 585.071,122.457 L 594.142,122.457 L 603.213,113.386 L 612.283,113.386 L 621.354,104.315 L 630.425,104.315 L 639.496,95.2441 L 648.567,95.2441 L 657.638,86.1732 L 666.709,86.1732 L 675.78,77.1024 L 675.78,68.0315 L 666.709,58.9606 L 657.638,58.9606 L 657.638,49.8898 L 657.638,40.8189 L 657.638,31.748 L 657.638,22.6772 L 657.638,13.6063 L 648.567,4.53543 L 639.496,4.53543 L 648.567,4.53543 L 657.638,4.53543 L 666.709,4.53543 L 675.78,4.53543 L 684.85,4.53543 L 693.921,4.53543 L 702.992,4.53543 L 712.063,4.53543 L 721.134,4.53543 L 730.205,4.53543 L 739.276,4.53543 L 748.346,4.53543 L 757.417,4.53543 L 766.488,4.53543 L 775.559,4.53543 L 784.63,4.53543 L 784.63,13.6063 L 793.701,22.6772 L 784.63,31.748 L 793.701,40.8189 L 802.772,49.8898 L 811.843,49.8898 L 802.772,58.9606 L 793.701,58.9606 L 784.63,68.0315 L 775.559,68.0315 L 766.488,77.1024 L 757.417,86.1732 L 757.417,95.2441 L 748.346,104.315 L 757.417,113.386 L 748.346,122.457 L 748.346,131.528 L 748.346,140.598 L 757.417,149.669 L 748.346,158.74 L 739.276,158.74 L 730.205,167.811 L 721.134,176.882 L 712.063,176.882 L 702.992,185.953 L 693.921,185.953 L 684.85,195.024 L 675.78,195.024 L 666.709,204.094 L 657.638,213.165 L 657.638,222.236 L 666.709,231.307 L 675.78,231.307 L 684.85,240.378 L 693.921,249.449 L 702.992,249.449 L 712.063,258.52 L 721.134,258.52 L 730.205,267.591 L 739.276,267.591 L 748.346,276.661 L 757.417,276.661 L 766.488,276.661 L 775.559,276.661 L 784.63,267.591 L 793.701,267.591 L 802.772,258.52 L 811.843,258.52 L 820.913,249.449 L 829.984,249.449 L 839.055,240.378 L 848.126,240.378 L 857.197,231.307 L 857.197,222.236 L 848.126,213.165 L 839.055,204.094 L 829.984,204.094 L 820.913,195.024 L 829.984,185.953 L 820.913,176.882 L 829.984,167.811 L 829.984,158.74 L 829.984,149.669 L 820.913,140.598 L 829.984,140.598 L 839.055,131.528 L 848.126,131.528 L 857.197,122.457 L 866.268,122.457 L 875.339,113.386 L 884.409,113.386 L 893.48,104.315 L 902.551,104.315 L 911.622,104.315 L 920.693,104.315 L 929.764,104.315 L 938.835,104.315 L 947.906,104.315 L 956.976,104.315 L 966.047,113.386 L 975.118,113.386 L 984.189,122.457 L 993.26,122.457 L 1002.33,131.528 L 1011.4,131.528 L 1020.47,140.598 L 1020.47,149.669 L 1020.47,158.74 L 1020.47,167.811 L 1029.54,176.882 L 1020.47,185.953 L 1029.54,195.024 L 1038.61,204.094 L 1047.69,204.094 L 1056.76,213.165 L 1065.83,213.165 L 1056.76,222.236 L 1065.83,231.307 L 1056.76,240.378 L 1065.83,249.449 L 1056.76,258.52 L 1047.69,258.52 L 1038.61,267.591 L 1029.54,267.591 L 1020.47,258.52 L 1011.4,258.52 L 1002.33,249.449 L 1011.4,249.449 L 1020.47,258.52 L 1029.54,258.52 L 1038.61,249.449 L 1038.61,240.378 L 1038.61,231.307 L 1038.61,222.236 L 1029.54,213.165 L 1020.47,213.165 L 1011.4,204.094 L 1002.33,204.094 L 1002.33,195.024 L 1002.33,185.953 L 1002.33,176.882 L 1002.33,167.811 L 1002.33,158.74 L 1002.33,149.669 L 993.26,140.598 L 984.189,140.598 L 975.118,131.528 L 966.047,131.528 L 956.976,122.457 L 947.906,122.457 L 938.835,122.457 L 929.764,122.457 L 920.693,122.457 L 911.622,122.457 L 902.551,122.457 L 893.48,122.457 L 884.409,131.528 L 875.339,131.528 L 866.268,140.598 L 857.197,140.598 L 848.126,149.669 L 848.126,158.74 L 848.126,167.811 L 848.126,176.882 L 848.126,185.953 L 848.126,195.024 L 848.126,204.094 L 857.197,213.165 L 866.268,213.165 L 875.339,222.236 L 884.409,222.236 L 884.409,231.307 L 884.409,240.378 L 875.339,240.378 L 866.268,249.449 L 857.197,249.449 L 848.126,258.52 L 839.055,258.52 L 829.984,267.591 L 820.913,267.591 L 811.843,276.661 L 802.772,276.661 L 793.701,285.732 L 784.63,285.732 L 775.559,294.803 L 766.488,294.803 L 757.417,294.803 L 748.346,294.803 L 739.276,285.732 L 730.205,294.803 L 730.205,285.732 L 721.134,276.661 L 712.063,276.661 L 702.992,267.591 L 693.921,267.591 L 684.85,258.52 L 675.78,258.52 L 666.709,258.52 L 657.638,258.52 L 657.638,249.449 L 648.567,240.378 L 639.496,240.378 L 630.425,240.378 L 621.354,240.378 L 612.283,249.449 L 603.213,249.449 L 603.213,240.378 L 594.142,231.307 L 585.071,231.307 L 576,231.307 L 566.929,240.378 L 557.858,249.449 L 548.787,249.449 L 539.717,240.378 L 530.646,240.378 L 521.575,240.378 L 512.504,240.378 L 503.433,249.449 L 494.362,249.449 L 485.291,258.52 L 476.22,258.52 L 467.15,267.591 L 458.079,267.591 L 449.008,276.661 L 439.937,276.661 L 430.866,285.732 L 421.795,294.803 L 412.724,294.803 L 403.654,294.803 L 394.583,294.803 L 385.512,294.803 L 376.441,285.732 L 367.37,285.732 L 358.299,276.661 L 349.228,276.661 L 340.157,267.591 L 331.087,267.591 L 322.016,258.52 L 312.945,258.52 L 303.874,249.449 L 294.803,249.449 L 285.732,240.378 L 276.661,240.378 L 276.661,231.307 L 276.661,222.236 L 285.732,222.236 L 294.803,213.165 L 303.874,213.165 L 312.945,204.094 L 312.945,195.024 L 312.945,185.953 L 312.945,176.882 L 312.945,167.811 L 312.945,158.74 L 312.945,149.669 L 303.874,140.598 L 294.803,140.598 L 285.732,131.528 L 276.661,131.528 L 267.591,122.457 L 258.52,122.457 L 249.449,122.457 L 240.378,122.457 L 231.307,122.457 L 222.236,122.457 L 213.165,122.457 L 204.094,122.457 L 195.024,131.528 L 185.953,131.528 L 176.882,140.598 L 167.811,140.598 L 158.74,149.669 L 158.74,158.74 L 158.74,167.811 L 158.74,176.882 L 158.74,185.953 L 158.74,195.024 L 158.74,204.094 L 149.669,204.094 L 140.598,213.165 L 131.528,213.165 L 122.457,222.236 L 122.457,231.307 L 122.457,240.378 L 122.457,249.449 L 131.528,258.52 L 140.598,258.52 L 149.669,249.449 L 158.74,249.449 L 149.669,258.52 L 140.598,258.52 L 131.528,267.591 L 122.457,267.591 L 113.386,267.591 L 104.315,258.52 L 95.2441,249.449 L 104.315,240.378 L 95.2441,231.307 L 104.315,222.236 L 95.2441,213.165 L 104.315,213.165 L 113.386,204.094 L 122.457,204.094 L 131.528,195.024 L 140.598,185.953 L 140.598,176.882 L 140.598,167.811 L 140.598,158.74 L 140.598,149.669 L 131.528,140.598 L 140.598,140.598 L 149.669,131.528 L 158.74,131.528 L 167.811,122.457 L 176.882,122.457 L 185.953,113.386 L 195.024,113.386 L 204.094,104.315 L 213.165,104.315 L 222.236,104.315 L 231.307,104.315 L 240.378,104.315 L 249.449,104.315 L 258.52,104.315 L 267.591,104.315 L 276.661,113.386 L 285.732,113.386 L 294.803,122.457 L 303.874,122.457 L 312.945,131.528 L 322.016,131.528 L 331.087,140.598 L 331.087,149.669 L 340.157,158.74 L 331.087,167.811 L 340.157,176.882 L 331.087,185.953 L 331.087,195.024 L 331.087,204.094 L 322.016,213.165 L 312.945,213.165 L 303.874,222.236 L 303.874,231.307 L 312.945,240.378 L 322.016,240.378 L 331.087,249.449 L 340.157,249.449 L 349.228,258.52 L 358.299,258.52 L 367.37,267.591 L 376.441,267.591 L 385.512,276.661 L 394.583,276.661 L 403.654,276.661 L 412.724,276.661 L 421.795,267.591 L 430.866,267.591 L 439.937,258.52 L 449.008,258.52 L 458.079,249.449 L 467.15,249.449 L 476.22,240.378 L 485.291,231.307 L 494.362,231.307 L 503.433,222.236 L 503.433,213.165 L 494.362,204.094 L 485.291,195.024 L 476.22,195.024 L 467.15,185.953 L 458.079,185.953 L 449.008,176.882 L 439.937,167.811 L 430.866,167.811 L 421.795,158.74 L 412.724,158.74 L 412.724,149.669 L 412.724,140.598 L 412.724,131.528 L 412.724,122.457 L 403.654,113.386 L 412.724,104.315 L 412.724,95.2441 L 412.724,86.1732 L 403.654,77.1024 L 394.583,77.1024 L 385.512,68.0315 L 376.441,68.0315 L 367.37,58.9606 L 358.299,58.9606 L 349.228,49.8898 L 358.299,49.8898 L 367.37,40.8189 L 376.441,31.748 L 367.37,22.6772 L 376.441,13.6063 L 367.37,4.53543 z " style="fill-opacity:0.5;fill:rgb(253,0,0);stroke:rgb(253,0,0);stroke-width:2"/></g>
<g fill-rule="evenodd"><path d="M 1065.83,249.449 L 1065.83,213.165 L 1020.47,185.953 L 1020.47,140.598 L 956.976,104.315 L 893.48,104.315 L 820.913,140.598 L 820.913,195.024 L 857.197,231.307 L 775.559,276.661 L 748.346,276.661 L 666.709,231.307 L 657.638,213.165 L 675.78,195.024 L 757.417,149.669 L 757.417,86.1732 L 811.843,49.8898 L 784.63,31.748 L 784.63,4.53543 L 639.496,4.53543 L 657.638,13.6063 L 657.638,58.9606 L 675.78,77.1024 L 594.142,122.457 L 566.929,122.457 L 485.291,77.1024 L 503.433,58.9606 L 503.433,13.6063 L 521.575,4.53543 L 367.37,4.53543 L 376.441,31.748 L 349.228,49.8898 L 412.724,86.1732 L 412.724,158.74 L 503.433,213.165 L 494.362,231.307 L 412.724,276.661 L 385.512,276.661 L 303.874,231.307 L 331.087,204.094 L 340.157,158.74 L 322.016,131.528 L 267.591,104.315 L 204.094,104.315 L 131.528,140.598 L 140.598,185.953 L 95.2441,213.165 L 95.2441,249.449 L 113.386,267.591 L 149.669,258.52 L 158.74,249.449 L 122.457,249.449 L 122.457,222.236 L 158.74,204.094 L 158.74,149.669 L 204.094,122.457 L 267.591,122.457 L 312.945,149.669 L 312.945,204.094 L 276.661,222.236 L 276.661,240.378 L 385.512,294.803 L 421.795,294.803 L 512.504,240.378 L 557.858,249.449 L 576,231.307 L 594.142,231.307 L 603.213,249.449 L 648.567,240.378 L 657.638,258.52 L 684.85,258.52 L 730.205,294.803 L 775.559,294.803 L 884.409,240.378 L 884.409,222.236 L 848.126,204.094 L 857.197,140.598 L 893.48,122.457 L 956.976,122.457 L 1002.33,149.669 L 1002.33,204.094 L 1038.61,222.236 L 1029.54,258.52 L 1002.33,249.449 L 1029.54,267.591 L 1065.83,249.449 z " style="fill-opacity:0.5;fill:rgb(0,253,0);stroke:rgb(0,0,0);stroke-width:5"/></g>
<g fill-rule="evenodd"><path d="M 1129.32,4.53543 L 1138.39,4.53543 L 1147.46,4.53543 L 1156.54,4.53543 L 1156.54,13.6063 L 1147.46,13.6063 L 1138.39,13.6063 L 1129.32,13.6063 L 1129.32,4.53543 z " style="fill-opacity:0.5;fill:rgb(253,0,0);stroke:rgb(253,0,0);stroke-width:2"/></g>
<g fill-rule="evenodd"><path d=" z " style="fill-opacity:0.5;fill:rgb(0,253,0);stroke:rgb(0,0,0);stroke-width:5"/></g>
<g fill-rule="evenodd"><path d="M 195.024,258.52 L 195.024,267.591 L 185.953,276.661 L 176.882,285.732 L 185.953,294.803 L 195.024,294.803 L 204.094,303.874 L 213.165,303.874 L 222.236,312.945 L 231.307,312.945 L 240.378,322.016 L 249.449,322.016 L 249.449,331.087 L 249.449,340.157 L 249.449,349.228 L 258.52,358.299 L 267.591,358.299 L 267.591,367.37 L 267.591,376.441 L 267.591,385.512 L 267.591,394.583 L 258.52,394.583 L 249.449,394.583 L 240.378,394.583 L 231.307,403.654 L 222.236,403.654 L 213.165,412.724 L 204.094,412.724 L 195.024,421.795 L 185.953,421.795 L 176.882,430.866 L 167.811,430.866 L 158.74,430.866 L 149.669,430.866 L 140.598,439.937 L 140.598,449.008 L 140.598,458.079 L 140.598,467.15 L 131.528,467.15 L 122.457,476.22 L 113.386,485.291 L 122.457,494.362 L 131.528,503.433 L 140.598,503.433 L 149.669,512.504 L 158.74,512.504 L 167.811,521.575 L 176.882,521.575 L 176.882,530.646 L 176.882,539.717 L 176.882,548.787 L 176.882,557.858 L 167.811,557.858 L 158.74,557.858 L 149.669,557.858 L 149.669,548.787 L 149.669,539.717 L 140.598,530.646 L 131.528,530.646 L 122.457,521.575 L 113.386,521.575 L 104.315,512.504 L 95.2441,512.504 L 86.1732,503.433 L 77.1024,503.433 L 68.0315,503.433 L 58.9606,503.433 L 49.8898,512.504 L 40.8189,512.504 L 31.748,512.504 L 22.6772,512.504 L 13.6063,521.575 L 4.53543,521.575 L 4.53543,512.504 L 4.53543,503.433 L 4.53543,494.362 L 4.53543,485.291 L 4.53543,476.22 L 4.53543,467.15 L 4.53543,458.079 L 4.53543,449.008 L 4.53543,439.937 L 4.53543,430.866 L 4.53543,421.795 L 4.53543,412.724 L 4.53543,403.654 L 4.53543,394.583 L 4.53543,385.512 L 4.53543,376.441 L 4.53543,367.37 L 4.53543,358.299 L 13.6063,358.299 L 22.6772,367.37 L 31.748,376.441 L 40.8189,376.441 L 49.8898,376.441 L 58.9606,385.512 L 68.0315,385.512 L 77.1024,394.583 L 86.1732,394.583 L 95.2441,403.654 L 104.315,403.654 L 113.386,412.724 L 122.457,412.724 L 131.528,412.724 L 140.598,412.724 L 149.669,412.724 L 158.74,412.724 L 167.811,412.724 L 176.882,412.724 L 185.953,403.654 L 195.024,403.654 L 204.094,394.583 L 213.165,394.583 L 222.236,385.512 L 231.307,376.441 L 231.307,367.37 L 231.307,358.299 L 222.236,349.228 L 231.307,340.157 L 231.307,331.087 L 231.307,322.016 L 222.236,312.945 L 213.165,312.945 L 204.094,312.945 L 195.024,303.874 L 185.953,294.803 L 176.882,294.803 L 167.811,285.732 L 158.74,285.732 L 158.74,276.661 L 167.811,276.661 L 176.882,267.591 L 185.953,267.591 L 195.024,258.52 z " style="fill-opacity:0.5;fill:rgb(253,0,0);stroke:rgb(253,0,0);stroke-width:2"/></g>
<g fill-rule="evenodd"><path d="M 4.53543,521.575 L 86.1732,503.433 L 140.598,530.646 L 149.669,557.858 L 176.882,557.858 L 176.882,521.575 L 113.386,485.291 L 140.598,467.15 L 149.669,430.866 L 267.591,394.583 L 249.449,322.016 L 176.882,285.732 L 195.024,258.52 L 158.74,285.732 L 231.307,322.016 L 231.307,376.441 L 176.882,412.724 L 113.386,412.724 L 4.53543,358.299 L 4.53543,521.575 z " style="fill-opacity:0.5;fill:rgb(0,253,0);stroke:rgb(0,0,0);stroke-width:5"/></g>
<g fill-rule="evenodd"><path d="M 966.047,258.52 L 975.118,267.591 L 984.189,267.591 L 993.26,276.661 L 1002.33,276.661 L 1002.33,285.732 L 993.26,285.732 L 984.189,294.803 L 975.118,294.803 L 966.047,303.874 L 956.976,312.945 L 947.906,312.945 L 938.835,312.945 L 929.764,322.016 L 929.764,331.087 L 929.764,340.157 L 938.835,349.228 L 929.764,358.299 L 938.835,367.37 L 929.764,376.441 L 938.835,385.512 L 947.906,394.583 L 956.976,394.583 L 966.047,403.654 L 975.118,403.654 L 984.189,412.724 L 993.26,412.724 L 1002.33,412.724 L 1011.4,412.724 L 1020.47,412.724 L 1029.54,412.724 L 1038.61,412.724 L 1047.69,412.724 L 1056.76,403.654 L 1065.83,403.654 L 1074.9,394.583 L 1083.97,394.583 L 1093.04,394.583 L 1102.11,385.512 L 1111.18,376.441 L 1120.25,376.441 L 1129.32,367.37 L 1138.39,367.37 L 1147.46,358.299 L 1156.54,358.299 L 1156.54,367.37 L 1156.54,376.441 L 1156.54,385.512 L 1156.54,394.583 L 1156.54,403.654 L 1156.54,412.724 L 1156.54,421.795 L 1156.54,430.866 L 1156.54,439.937 L 1156.54,449.008 L 1156.54,458.079 L 1156.54,467.15 L 1156.54,476.22 L 1156.54,485.291 L 1156.54,494.362 L 1156.54,503.433 L 1156.54,512.504 L 1156.54,521.575 L 1147.46,521.575 L 1138.39,512.504 L 1129.32,512.504 L 1120.25,512.504 L 1111.18,512.504 L 1102.11,503.433 L 1093.04,503.433 L 1083.97,503.433 L 1074.9,503.433 L 1065.83,512.504 L 1056.76,512.504 L 1047.69,521.575 L 1038.61,521.575 L 1029.54,530.646 L 1020.47,530.646 L 1011.4,539.717 L 1011.4,548.787 L 1011.4,557.858 L 1002.33,557.858 L 993.26,557.858 L 984.189,557.858 L 984.189,548.787 L 984.189,539.717 L 984.189,530.646 L 984.189,521.575 L 993.26,521.575 L 1002.33,512.504 L 1011.4,512.504 L 1020.47,503.433 L 1029.54,503.433 L 1038.61,494.362 L 1047.69,485.291 L 1038.61,476.22 L 1029.54,467.15 L 1020.47,467.15 L 1020.47,458.079 L 1020.47,449.008 L 1020.47,439.937 L 1011.4,430.866 L 1002.33,430.866 L 993.26,430.866 L 984.189,430.866 L 975.118,421.795 L 966.047,421.795 L 956.976,412.724 L 947.906,412.724 L 938.835,403.654 L 929.764,403.654 L 920.693,394.583 L 911.622,394.583 L 902.551,394.583 L 893.48,385.512 L 893.48,376.441 L 893.48,367.37 L 893.48,358.299 L 902.551,358.299 L 911.622,349.228 L 911.622,340.157 L 911.622,331.087 L 911.622,322.016 L 920.693,322.016 L 929.764,312.945 L 938.835,312.945 L 947.906,303.874 L 956.976,303.874 L 966.047,294.803 L 975.118,294.803 L 984.189,285.732 L 975.118,276.661 L 966.047,267.591 L 966.047,258.52 z " style="fill-opacity:0.5;fill:rgb(253,0,0);stroke:rgb(253,0,0);stroke-width:2"/></g>
<g fill-rule="evenodd"><path d="M 1156.54,521.575 L 1156.54,358.299 L 1047.69,412.724 L 984.189,412.724 L 929.764,376.441 L 929.764,322.016 L 1002.33,285.732 L 966.047,258.52 L 984.189,285.732 L 911.622,322.016 L 893.48,385.512 L 984.189,430.866 L 1011.4,430.866 L 1020.47,467.15 L 1047.69,485.291 L 984.189,521.575 L 984.189,557.858 L 1011.4,557.858 L 1020.47,530.646 L 1074.9,503.433 L 1156.54,521.575 z " style="fill-opacity:0.5;fill:rgb(0,253,0);stroke:rgb(0,0,0);stroke-width:5"/></g>
<g fill-rule="evenodd"><path d="M 566.929,358.299 L 576,358.299 L 566.929,358.299 z " style="fill-opacity:0.5;fill:rgb(253,0,0);stroke:rgb(253,0,0);stroke-width:2"/></g>
<g fill-rule="evenodd"><path d="M 576,358.299 z " style="fill-opacity:0.5;fill:rgb(0,253,0);stroke:rgb(0,0,0);stroke-width:5"/></g>
<g fill-rule="evenodd"><path d="M 557.858,458.079 L 566.929,458.079 L 576,458.079 L 585.071,458.079 L 594.142,458.079 L 603.213,467.15 L 612.283,467.15 L 621.354,467.15 L 630.425,467.15 L 639.496,467.15 L 648.567,467.15 L 648.567,476.22 L 648.567,485.291 L 639.496,485.291 L 630.425,494.362 L 621.354,494.362 L 612.283,494.362 L 603.213,494.362 L 594.142,485.291 L 585.071,485.291 L 576,485.291 L 566.929,485.291 L 557.858,494.362 L 548.787,494.362 L 539.717,494.362 L 530.646,494.362 L 521.575,485.291 L 512.504,485.291 L 512.504,476.22 L 512.504,467.15 L 521.575,467.15 L 530.646,467.15 L 539.717,467.15 L 548.787,467.15 L 557.858,458.079 z " style="fill-opacity:0.5;fill:rgb(253,0,0);stroke:rgb(253,0,0);stroke-width:2"/></g>
<g fill-rule="evenodd"><path d="M 648.567,485.291 L 648.567,467.15 L 594.142,458.079 L 512.504,467.15 L 512.504,485.291 L 530.646,494.362 L 648.567,485.291 z " style="fill-opacity:0.5;fill:rgb(0,253,0);stroke:rgb(0,0,0);stroke-width:5"/></g>
<g fill-rule="evenodd"><path d="M 566.929,476.22 L 576,476.22 L 585.071,476.22 L 594.142,476.22 L 603.213,467.15 L 594.142,458.079 L 585.071,458.079 L 576,458.079 L 566.929,458.079 L 557.858,467.15 L 566.929,476.22 z " style="fill-opacity:0.5;fill:rgb(253,0,0);stroke:rgb(253,0,0);stroke-width:2"/></g>
<g fill-rule="evenodd"><path d=" z " style="fill-opacity:0.5;fill:rgb(0,253,0);stroke:rgb(0,0,0);stroke-width:5"/></g>
<g fill-rule="evenodd"><path d="M 539.717,485.291 L 548.787,485.291 L 557.858,485.291 L 566.929,476.22 L 557.858,467.15 L 548.787,467.15 L 539.717,467.15 L 530.646,476.22 L 539.717,485.291 z " style="fill-opacity:0.5;fill:rgb(253,0,0);stroke:rgb(253,0,0);stroke-width:2"/></g>
<g fill-rule="evenodd"><path d="M 539.717,485.291 L 566.929,476.22 L 539.717,467.15 L 539.717,485.291 z " style="fill-opacity:0.5;fill:rgb(0,253,0);stroke:rgb(0,0,0);stroke-width:5"/></g>
<g fill-rule="evenodd"><path d="M 612.283,485.291 L 621.354,485.291 L 630.425,485.291 L 639.496,485.291 L 648.567,476.22 L 639.496,467.15 L 630.425,467.15 L 621.354,467.15 L 612.283,467.15 L 603.213,476.22 L 612.283,485.291 z " style="fill-opacity:0.5;fill:rgb(253,0,0);stroke:rgb(253,0,0);stroke-width:2"/></g>
<g fill-rule="evenodd"><path d=" z " style="fill-opacity:0.5;fill:rgb(0,253,0);stroke:rgb(0,0,0);stroke-width:5"/></g>
<g fill-rule="evenodd"><path d="M 403.654,521.575 L 412.724,521.575 L 421.795,521.575 L 430.866,521.575 L 439.937,530.646 L 449.008,530.646 L 449.008,539.717 L 449.008,548.787 L 449.008,557.858 L 449.008,566.929 L 449.008,576 L 449.008,585.071 L 439.937,585.071 L 430.866,594.142 L 439.937,603.213 L 449.008,603.213 L 449.008,612.283 L 449.008,621.354 L 449.008,630.425 L 449.008,639.496 L 439.937,639.496 L 430.866,648.567 L 421.795,648.567 L 412.724,648.567 L 403.654,648.567 L 403.654,639.496 L 403.654,630.425 L 412.724,621.354 L 403.654,612.283 L 403.654,603.213 L 403.654,594.142 L 403.654,585.071 L 403.654,576 L 403.654,566.929 L 403.654,557.858 L 403.654,548.787 L 403.654,539.717 L 403.654,530.646 L 403.654,521.575 z " style="fill-opacity:0.5;fill:rgb(253,0,0);stroke:rgb(253,0,0);stroke-width:2"/></g>
<g fill-rule="evenodd"><path d="M 430.866,648.567 L 449.008,639.496 L 449.008,603.213 L 430.866,594.142 L 449.008,585.071 L 449.008,530.646 L 403.654,521.575 L 403.654,648.567 L 430.866,648.567 z " style="fill-opacity:0.5;fill:rgb(0,253,0);stroke:rgb(0,0,0);stroke-width:5"/></g>
<g fill-rule="evenodd"><path d="M 730.205,521.575 L 739.276,521.575 L 748.346,521.575 L 757.417,521.575 L 757.417,530.646 L 757.417,539.717 L 748.346,548.787 L 757.417,557.858 L 757.417,566.929 L 757.417,576 L 757.417,585.071 L 757.417,594.142 L 757.417,603.213 L 757.417,612.283 L 757.417,621.354 L 757.417,630.425 L 757.417,639.496 L 757.417,648.567 L 748.346,648.567 L 739.276,648.567 L 730.205,648.567 L 721.134,639.496 L 712.063,639.496 L 712.063,630.425 L 712.063,621.354 L 712.063,612.283 L 712.063,603.213 L 712.063,594.142 L 712.063,585.071 L 721.134,585.071 L 730.205,576 L 721.134,566.929 L 712.063,566.929 L 712.063,557.858 L 712.063,548.787 L 712.063,539.717 L 712.063,530.646 L 721.134,530.646 L 730.205,521.575 z " style="fill-opacity:0.5;fill:rgb(253,0,0);stroke:rgb(253,0,0);stroke-width:2"/></g>
<g fill-rule="evenodd"><path d="M 757.417,648.567 L 757.417,521.575 L 730.205,521.575 L 712.063,530.646 L 712.063,566.929 L 730.205,576 L 712.063,585.071 L 712.063,639.496 L 757.417,648.567 z " style="fill-opacity:0.5;fill:rgb(0,253,0);stroke:rgb(0,0,0);stroke-width:5"/></g>
<g fill-rule="evenodd"><path d="M 331.087,539.717 L 340.157,539.717 L 331.087,539.717 z " style="fill-opacity:0.5;fill:rgb(253,0,0);stroke:rgb(253,0,0);stroke-width:2"/></g>
<g fill-rule="evenodd"><path d="M 340.157,539.717 z " style="fill-opacity:0.5;fill:rgb(0,253,0);stroke:rgb(0,0,0);stroke-width:5"/></g>
<g fill-rule="evenodd"><path d="M 430.866,539.717 L 439.937,530.646 L 430.866,521.575 L 421.795,530.646 L 430.866,539.717 z " style="fill-opacity:0.5;fill:rgb(253,0,0);stroke:rgb(253,0,0);stroke-width:2"/></g>
<g fill-rule="evenodd"><path d=" z " style="fill-opacity:0.5;fill:rgb(0,253,0);stroke:rgb(0,0,0);stroke-width:5"/></g>
<g fill-rule="evenodd"><path d="M 730.205,539.717 L 739.276,539.717 L 748.346,539.717 L 757.417,530.646 L 748.346,521.575 L 739.276,521.575 L 730.205,521.575 L 721.134,530.646 L 730.205,539.717 z " style="fill-opacity:0.5;fill:rgb(253,0,0);stroke:rgb(253,0,0);stroke-width:2"/></g>
<g fill-rule="evenodd"><path d="M 730.205,539.717 L 757.417,530.646 L 730.205,521.575 L 730.205,539.717 z " style="fill-opacity:0.5;fill:rgb(0,253,0);stroke:rgb(0,0,0);stroke-width:5"/></g>
<g fill-rule="evenodd"><path d="M 820.913,539.717 L 829.984,539.717 L 820.913,539.717M 421.795,548.787 L 412.724,557.858 L 421.795,566.929 L 430.866,557.858 L 421.795,548.787 z " style="fill-opacity:0.5;fill:rgb(253,0,0);stroke:rgb(253,0,0);stroke-width:2"/></g>
<g fill-rule="evenodd"><path d="M 829.984,539.717 z " style="fill-opacity:0.5;fill:rgb(0,253,0);stroke:rgb(0,0,0);stroke-width:5"/></g>
<g fill-rule="evenodd"><path d="M 739.276,566.929 L 748.346,566.929 L 757.417,557.858 L 748.346,548.787 L 739.276,548.787 L 730.205,557.858 L 739.276,566.929M 730.205,594.142 L 721.134,603.213 L 730.205,612.283 L 739.276,603.213 L 730.205,594.142 z " style="fill-opacity:0.5;fill:rgb(253,0,0);stroke:rgb(253,0,0);stroke-width:2"/></g>
<g fill-rule="evenodd"><path d="M 739.276,566.929 L 757.417,557.858 L 739.276,548.787 L 739.276,566.929 z " style="fill-opacity:0.5;fill:rgb(0,253,0);stroke:rgb(0,0,0);stroke-width:5"/></g>
<g fill-rule="evenodd"><path d="M 149.669,612.283 L 158.74,612.283 L 167.811,612.283 L 176.882,612.283 L 176.882,621.354 L 176.882,630.425 L 176.882,639.496 L 176.882,648.567 L 167.811,648.567 L 158.74,657.638 L 149.669,657.638 L 140.598,666.709 L 140.598,675.78 L 140.598,684.85 L 140.598,693.921 L 140.598,702.992 L 140.598,712.063 L 140.598,721.134 L 149.669,730.205 L 158.74,730.205 L 167.811,739.276 L 176.882,730.205 L 185.953,739.276 L 195.024,748.346 L 204.094,748.346 L 213.165,757.417 L 222.236,766.488 L 231.307,766.488 L 240.378,775.559 L 249.449,775.559 L 258.52,775.559 L 267.591,775.559 L 267.591,784.63 L 267.591,793.701 L 267.591,802.772 L 258.52,811.843 L 249.449,820.913 L 249.449,829.984 L 249.449,839.055 L 249.449,848.126 L 240.378,848.126 L 231.307,857.197 L 222.236,857.197 L 213.165,866.268 L 204.094,866.268 L 195.024,875.339 L 185.953,884.409 L 195.024,893.48 L 185.953,893.48 L 176.882,893.48 L 167.811,884.409 L 158.74,875.339 L 167.811,866.268 L 176.882,866.268 L 185.953,857.197 L 195.024,857.197 L 204.094,848.126 L 213.165,848.126 L 222.236,839.055 L 231.307,829.984 L 222.236,820.913 L 231.307,811.843 L 231.307,802.772 L 231.307,793.701 L 222.236,784.63 L 231.307,775.559 L 222.236,766.488 L 213.165,766.488 L 204.094,757.417 L 195.024,757.417 L 185.953,757.417 L 176.882,748.346 L 167.811,739.276 L 158.74,739.276 L 149.669,748.346 L 140.598,748.346 L 131.528,739.276 L 122.457,739.276 L 113.386,748.346 L 104.315,757.417 L 95.2441,757.417 L 86.1732,766.488 L 77.1024,766.488 L 68.0315,766.488 L 58.9606,775.559 L 49.8898,784.63 L 40.8189,784.63 L 31.748,784.63 L 22.6772,793.701 L 13.6063,793.701 L 4.53543,802.772 L 4.53543,793.701 L 4.53543,784.63 L 4.53543,775.559 L 4.53543,766.488 L 4.53543,757.417 L 4.53543,748.346 L 4.53543,739.276 L 4.53543,730.205 L 4.53543,721.134 L 4.53543,712.063 L 4.53543,702.992 L 4.53543,693.921 L 4.53543,684.85 L 4.53543,675.78 L 4.53543,666.709 L 4.53543,657.638 L 4.53543,648.567 L 13.6063,648.567 L 22.6772,657.638 L 31.748,657.638 L 40.8189,657.638 L 49.8898,657.638 L 58.9606,666.709 L 68.0315,666.709 L 77.1024,666.709 L 86.1732,666.709 L 95.2441,657.638 L 104.315,657.638 L 113.386,648.567 L 122.457,648.567 L 131.528,639.496 L 140.598,639.496 L 149.669,630.425 L 149.669,621.354 L 149.669,612.283 z " style="fill-opacity:0.5;fill:rgb(253,0,0);stroke:rgb(253,0,0);stroke-width:2"/></g>
<g fill-rule="evenodd"><path d="M 195.024,893.48 L 185.953,884.409 L 204.094,866.268 L 249.449,848.126 L 267.591,775.559 L 240.378,775.559 L 176.882,730.205 L 167.811,739.276 L 140.598,721.134 L 140.598,666.709 L 176.882,648.567 L 176.882,612.283 L 149.669,612.283 L 140.598,639.496 L 86.1732,666.709 L 4.53543,648.567 L 4.53543,802.772 L 122.457,739.276 L 167.811,739.276 L 231.307,775.559 L 231.307,829.984 L 158.74,875.339 L 195.024,893.48 z " style="fill-opacity:0.5;fill:rgb(0,253,0);stroke:rgb(0,0,0);stroke-width:5"/></g>
<g fill-rule="evenodd"><path d="M 430.866,612.283 L 439.937,603.213 L 430.866,594.142 L 421.795,603.213 L 430.866,612.283 z " style="fill-opacity:0.5;fill:rgb(253,0,0);stroke:rgb(253,0,0);stroke-width:2"/></g>
<g fill-rule="evenodd"><path d=" z " style="fill-opacity:0.5;fill:rgb(0,253,0);stroke:rgb(0,0,0);stroke-width:5"/></g>
<g fill-rule="evenodd"><path d="M 984.189,612.283 L 993.26,612.283 L 1002.33,612.283 L 1011.4,612.283 L 1011.4,621.354 L 1011.4,630.425 L 1020.47,639.496 L 1029.54,639.496 L 1038.61,648.567 L 1047.69,648.567 L 1056.76,657.638 L 1065.83,657.638 L 1074.9,666.709 L 1083.97,666.709 L 1093.04,666.709 L 1102.11,666.709 L 1111.18,657.638 L 1120.25,657.638 L 1129.32,657.638 L 1138.39,657.638 L 1147.46,648.567 L 1156.54,648.567 L 1156.54,657.638 L 1156.54,666.709 L 1156.54,675.78 L 1156.54,684.85 L 1156.54,693.921 L 1156.54,702.992 L 1156.54,712.063 L 1156.54,721.134 L 1156.54,730.205 L 1156.54,739.276 L 1156.54,748.346 L 1156.54,757.417 L 1156.54,766.488 L 1156.54,775.559 L 1156.54,784.63 L 1156.54,793.701 L 1156.54,802.772 L 1147.46,802.772 L 1138.39,793.701 L 1129.32,784.63 L 1120.25,784.63 L 1111.18,775.559 L 1102.11,775.559 L 1093.04,766.488 L 1083.97,766.488 L 1074.9,757.417 L 1065.83,757.417 L 1056.76,748.346 L 1047.69,748.346 L 1038.61,739.276 L 1029.54,748.346 L 1020.47,748.346 L 1011.4,748.346 L 1002.33,739.276 L 993.26,748.346 L 984.189,748.346 L 975.118,748.346 L 966.047,757.417 L 956.976,757.417 L 947.906,766.488 L 938.835,766.488 L 929.764,775.559 L 929.764,784.63 L 929.764,793.701 L 938.835,802.772 L 929.764,811.843 L 938.835,820.913 L 929.764,829.984 L 938.835,839.055 L 947.906,848.126 L 956.976,848.126 L 966.047,857.197 L 975.118,857.197 L 984.189,866.268 L 993.26,866.268 L 1002.33,875.339 L 993.26,884.409 L 984.189,893.48 L 975.118,893.48 L 966.047,893.48 L 975.118,884.409 L 966.047,875.339 L 956.976,866.268 L 947.906,866.268 L 938.835,857.197 L 929.764,857.197 L 920.693,848.126 L 911.622,848.126 L 911.622,839.055 L 911.622,829.984 L 911.622,820.913 L 902.551,811.843 L 893.48,802.772 L 893.48,793.701 L 893.48,784.63 L 893.48,775.559 L 902.551,775.559 L 911.622,775.559 L 920.693,775.559 L 929.764,766.488 L 938.835,766.488 L 947.906,757.417 L 947.906,748.346 L 956.976,748.346 L 966.047,739.276 L 975.118,748.346 L 984.189,739.276 L 984.189,730.205 L 993.26,739.276 L 1002.33,730.205 L 1011.4,730.205 L 1020.47,721.134 L 1020.47,712.063 L 1020.47,702.992 L 1020.47,693.921 L 1020.47,684.85 L 1020.47,675.78 L 1020.47,666.709 L 1011.4,657.638 L 1002.33,657.638 L 993.26,648.567 L 984.189,648.567 L 984.189,639.496 L 984.189,630.425 L 984.189,621.354 L 984.189,612.283 z " style="fill-opacity:0.5;fill:rgb(253,0,0);stroke:rgb(253,0,0);stroke-width:2"/></g>
<g fill-rule="evenodd"><path d="M 966.047,893.48 L 1002.33,875.339 L 929.764,829.984 L 929.764,775.559 L 975.118,748.346 L 1038.61,739.276 L 1156.54,802.772 L 1156.54,648.567 L 1074.9,666.709 L 1020.47,639.496 L 1011.4,612.283 L 984.189,612.283 L 984.189,648.567 L 1020.47,666.709 L 1020.47,721.134 L 993.26,739.276 L 984.189,730.205 L 975.118,748.346 L 947.906,748.346 L 920.693,775.559 L 893.48,775.559 L 911.622,848.126 L 956.976,866.268 L 975.118,884.409 L 966.047,893.48 z " style="fill-opacity:0.5;fill:rgb(0,253,0);stroke:rgb(0,0,0);stroke-width:5"/></g>
<g fill-rule="evenodd"><path d="M 331.087,621.354 L 340.157,621.354 L 331.087,621.354M 739.276,621.354 L 730.205,630.425 L 739.276,639.496 L 748.346,630.425 L 739.276,621.354 z " style="fill-opacity:0.5;fill:rgb(253,0,0);stroke:rgb(253,0,0);stroke-width:2"/></g>
<g fill-rule="evenodd"><path d="M 340.157,621.354 z " style="fill-opacity:0.5;fill:rgb(0,253,0);stroke:rgb(0,0,0);stroke-width:5"/></g>
<g fill-rule="evenodd"><path d="M 820.913,621.354 L 829.984,621.354 L 820.913,621.354 z " style="fill-opacity:0.5;fill:rgb(253,0,0);stroke:rgb(253,0,0);stroke-width:2"/></g>
<g fill-rule="evenodd"><path d="M 829.984,621.354 z " style="fill-opacity:0.5;fill:rgb(0,253,0);stroke:rgb(0,0,0);stroke-width:5"/></g>
<g fill-rule="evenodd"><path d="M 421.795,639.496 L 430.866,639.496 L 439.937,639.496 L 449.008,630.425 L 439.937,621.354 L 430.866,621.354 L 421.795,621.354 L 412.724,630.425 L 421.795,639.496 z " style="fill-opacity:0.5;fill:rgb(253,0,0);stroke:rgb(253,0,0);stroke-width:2"/></g>
<g fill-rule="evenodd"><path d="M 421.795,639.496 L 449.008,630.425 L 421.795,621.354 L 421.795,639.496 z " style="fill-opacity:0.5;fill:rgb(0,253,0);stroke:rgb(0,0,0);stroke-width:5"/></g>
<g fill-rule="evenodd"><path d="M 530.646,675.78 L 539.717,675.78 L 548.787,675.78 L 557.858,675.78 L 566.929,684.85 L 576,684.85 L 585.071,684.85 L 594.142,675.78 L 603.213,675.78 L 612.283,675.78 L 621.354,675.78 L 630.425,675.78 L 639.496,684.85 L 648.567,684.85 L 648.567,693.921 L 648.567,702.992 L 639.496,702.992 L 630.425,702.992 L 621.354,702.992 L 612.283,702.992 L 603.213,702.992 L 594.142,712.063 L 585.071,712.063 L 576,712.063 L 566.929,712.063 L 557.858,702.992 L 548.787,702.992 L 539.717,702.992 L 530.646,702.992 L 521.575,702.992 L 512.504,702.992 L 512.504,693.921 L 512.504,684.85 L 521.575,684.85 L 530.646,675.78 z " style="fill-opacity:0.5;fill:rgb(253,0,0);stroke:rgb(253,0,0);stroke-width:2"/></g>
<g fill-rule="evenodd"><path d="M 648.567,702.992 L 648.567,684.85 L 630.425,675.78 L 512.504,684.85 L 512.504,702.992 L 566.929,712.063 L 648.567,702.992 z " style="fill-opacity:0.5;fill:rgb(0,253,0);stroke:rgb(0,0,0);stroke-width:5"/></g>
<g fill-rule="evenodd"><path d="M 530.646,693.921 L 539.717,693.921 L 548.787,693.921 L 557.858,693.921 L 566.929,684.85 L 557.858,675.78 L 548.787,675.78 L 539.717,675.78 L 530.646,675.78 L 521.575,684.85 L 530.646,693.921 z " style="fill-opacity:0.5;fill:rgb(253,0,0);stroke:rgb(253,0,0);stroke-width:2"/></g>
<g fill-rule="evenodd"><path d=" z " style="fill-opacity:0.5;fill:rgb(0,253,0);stroke:rgb(0,0,0);stroke-width:5"/></g>
<g fill-rule="evenodd"><path d="M 603.213,693.921 L 612.283,693.921 L 621.354,693.921 L 630.425,693.921 L 639.496,684.85 L 630.425,675.78 L 621.354,675.78 L 612.283,675.78 L 603.213,675.78 L 594.142,684.85 L 603.213,693.921 z " style="fill-opacity:0.5;fill:rgb(253,0,0);stroke:rgb(253,0,0);stroke-width:2"/></g>
<g fill-rule="evenodd"><path d=" z " style="fill-opacity:0.5;fill:rgb(0,253,0);stroke:rgb(0,0,0);stroke-width:5"/></g>
<g fill-rule="evenodd"><path d="M 576,702.992 L 585.071,702.992 L 594.142,702.992 L 603.213,693.921 L 594.142,684.85 L 585.071,684.85 L 576,684.85 L 566.929,693.921 L 576,702.992 z " style="fill-opacity:0.5;fill:rgb(253,0,0);stroke:rgb(253,0,0);stroke-width:2"/></g>
<g fill-rule="evenodd"><path d="M 576,702.992 L 603.213,693.921 L 576,684.85 L 576,702.992 z " style="fill-opacity:0.5;fill:rgb(0,253,0);stroke:rgb(0,0,0);stroke-width:5"/></g>
<g fill-rule="evenodd"><path d="M 585.071,802.772 L 594.142,802.772 L 585.071,802.772 z " style="fill-opacity:0.5;fill:rgb(253,0,0);stroke:rgb(253,0,0);stroke-width:2"/></g>
<g fill-rule="evenodd"><path d="M 594.142,802.772 z " style="fill-opacity:0.5;fill:rgb(0,253,0);stroke:rgb(0,0,0);stroke-width:5"/></g>
<g fill-rule="evenodd"><path d="M 385.512,875.339 L 394.583,875.339 L 403.654,875.339 L 412.724,875.339 L 421.795,884.409 L 430.866,884.409 L 439.937,893.48 L 449.008,893.48 L 458.079,893.48 L 467.15,902.551 L 476.22,911.622 L 485.291,911.622 L 494.362,920.693 L 503.433,920.693 L 512.504,929.764 L 521.575,929.764 L 530.646,920.693 L 539.717,929.764 L 548.787,920.693 L 548.787,911.622 L 557.858,911.622 L 566.929,920.693 L 576,929.764 L 585.071,929.764 L 594.142,929.764 L 603.213,920.693 L 603.213,911.622 L 612.283,911.622 L 612.283,920.693 L 621.354,929.764 L 630.425,920.693 L 639.496,929.764 L 648.567,929.764 L 657.638,920.693 L 657.638,911.622 L 666.709,920.693 L 675.78,911.622 L 684.85,911.622 L 693.921,902.551 L 702.992,902.551 L 712.063,893.48 L 721.134,893.48 L 730.205,884.409 L 739.276,884.409 L 748.346,875.339 L 757.417,875.339 L 766.488,875.339 L 775.559,875.339 L 784.63,884.409 L 793.701,884.409 L 802.772,893.48 L 811.843,893.48 L 820.913,902.551 L 829.984,902.551 L 839.055,911.622 L 848.126,911.622 L 857.197,920.693 L 866.268,920.693 L 875.339,929.764 L 884.409,929.764 L 884.409,938.835 L 884.409,947.906 L 875.339,947.906 L 866.268,956.976 L 857.197,956.976 L 848.126,966.047 L 848.126,975.118 L 848.126,984.189 L 848.126,993.26 L 848.126,1002.33 L 848.126,1011.4 L 848.126,1020.47 L 857.197,1029.54 L 866.268,1029.54 L 875.339,1038.61 L 884.409,1038.61 L 893.48,1047.69 L 902.551,1047.69 L 911.622,1047.69 L 920.693,1047.69 L 929.764,1047.69 L 938.835,1047.69 L 947.906,1047.69 L 956.976,1047.69 L 966.047,1038.61 L 975.118,1038.61 L 984.189,1029.54 L 993.26,1029.54 L 1002.33,1020.47 L 1002.33,1011.4 L 1002.33,1002.33 L 1002.33,993.26 L 1002.33,984.189 L 1002.33,975.118 L 1002.33,966.047 L 1011.4,966.047 L 1020.47,956.976 L 1029.54,956.976 L 1038.61,947.906 L 1038.61,938.835 L 1038.61,929.764 L 1038.61,920.693 L 1029.54,911.622 L 1020.47,911.622 L 1011.4,911.622 L 1002.33,911.622 L 1011.4,902.551 L 1020.47,893.48 L 1029.54,893.48 L 1038.61,893.48 L 1047.69,893.48 L 1056.76,902.551 L 1056.76,911.622 L 1065.83,920.693 L 1056.76,929.764 L 1065.83,938.835 L 1056.76,947.906 L 1047.69,956.976 L 1038.61,956.976 L 1029.54,966.047 L 1029.54,975.118 L 1020.47,984.189 L 1020.47,993.26 L 1020.47,1002.33 L 1029.54,1011.4 L 1020.47,1020.47 L 1011.4,1029.54 L 1002.33,1029.54 L 993.26,1038.61 L 984.189,1038.61 L 975.118,1047.69 L 966.047,1047.69 L 956.976,1056.76 L 947.906,1056.76 L 938.835,1056.76 L 929.764,1047.69 L 920.693,1056.76 L 911.622,1056.76 L 902.551,1056.76 L 893.48,1056.76 L 884.409,1047.69 L 875.339,1038.61 L 866.268,1038.61 L 857.197,1038.61 L 848.126,1029.54 L 839.055,1029.54 L 829.984,1020.47 L 829.984,1011.4 L 829.984,1002.33 L 829.984,993.26 L 829.984,984.189 L 820.913,975.118 L 829.984,966.047 L 820.913,956.976 L 829.984,956.976 L 839.055,947.906 L 848.126,947.906 L 857.197,938.835 L 857.197,929.764 L 848.126,920.693 L 839.055,920.693 L 829.984,911.622 L 820.913,902.551 L 811.843,902.551 L 802.772,902.551 L 793.701,893.48 L 784.63,893.48 L 775.559,884.409 L 766.488,884.409 L 757.417,875.339 L 748.346,884.409 L 739.276,893.48 L 730.205,893.48 L 721.134,902.551 L 712.063,902.551 L 702.992,911.622 L 693.921,911.622 L 684.85,911.622 L 675.78,920.693 L 666.709,929.764 L 666.709,938.835 L 657.638,947.906 L 666.709,956.976 L 675.78,966.047 L 684.85,966.047 L 693.921,975.118 L 702.992,975.118 L 712.063,984.189 L 721.134,984.189 L 730.205,993.26 L 739.276,993.26 L 748.346,1002.33 L 748.346,1011.4 L 748.346,1020.47 L 748.346,1029.54 L 748.346,1038.61 L 748.346,1047.69 L 748.346,1056.76 L 748.346,1065.83 L 757.417,1074.9 L 766.488,1083.97 L 775.559,1093.04 L 784.63,1093.04 L 793.701,1093.04 L 802.772,1102.11 L 811.843,1102.11 L 802.772,1111.18 L 793.701,1120.25 L 784.63,1129.32 L 784.63,1138.39 L 793.701,1147.46 L 802.772,1156.54 L 811.843,1156.54 L 820.913,1156.54 L 829.984,1156.54 L 839.055,1156.54 L 848.126,1156.54 L 857.197,1156.54 L 866.268,1156.54 L 875.339,1156.54 L 884.409,1156.54 L 893.48,1156.54 L 902.551,1156.54 L 911.622,1156.54 L 920.693,1156.54 L 929.764,1156.54 L 938.835,1156.54 L 947.906,1156.54 L 956.976,1156.54 L 966.047,1156.54 L 975.118,1156.54 L 984.189,1156.54 L 993.26,1156.54 L 1002.33,1156.54 L 1011.4,1156.54 L 1020.47,1156.54 L 1029.54,1156.54 L 1038.61,1156.54 L 1047.69,1156.54 L 1056.76,1156.54 L 1065.83,1156.54 L 1074.9,1156.54 L 1083.97,1156.54 L 1093.04,1156.54 L 1102.11,1156.54 L 1111.18,1156.54 L 1120.25,1147.46 L 1129.32,1147.46 L 1138.39,1147.46 L 1147.46,1147.46 L 1156.54,1147.46 L 1156.54,1156.54 L 1147.46,1156.54 L 1138.39,1156.54 L 1129.32,1156.54 L 1120.25,1156.54 L 1111.18,1156.54 L 1102.11,1156.54 L 1093.04,1156.54 L 1083.97,1156.54 L 1074.9,1156.54 L 1065.83,1156.54 L 1056.76,1156.54 L 1047.69,1156.54 L 1038.61,1156.54 L 1029.54,1156.54 L 1020.47,1156.54 L 1011.4,1156.54 L 1002.33,1156.54 L 993.26,1156.54 L 984.189,1156.54 L 975.118,1156.54 L 966.047,1156.54 L 956.976,1156.54 L 947.906,1156.54 L 938.835,1156.54 L 929.764,1156.54 L 920.693,1156.54 L 911.622,1156.54 L 902.551,1156.54 L 893.48,1156.54 L 884.409,1156.54 L 875.339,1156.54 L 866.268,1156.54 L 857.197,1156.54 L 848.126,1156.54 L 839.055,1156.54 L 829.984,1156.54 L 820.913,1156.54 L 811.843,1156.54 L 802.772,1156.54 L 793.701,1156.54 L 784.63,1156.54 L 775.559,1156.54 L 766.488,1156.54 L 757.417,1156.54 L 748.346,1156.54 L 739.276,1156.54 L 730.205,1156.54 L 721.134,1156.54 L 712.063,1156.54 L 702.992,1156.54 L 693.921,1156.54 L 684.85,1156.54 L 675.78,1156.54 L 666.709,1156.54 L 657.638,1156.54 L 648.567,1156.54 L 639.496,1156.54 L 630.425,1156.54 L 621.354,1156.54 L 612.283,1156.54 L 603.213,1156.54 L 594.142,1156.54 L 585.071,1156.54 L 576,1156.54 L 566.929,1156.54 L 557.858,1156.54 L 548.787,1156.54 L 539.717,1156.54 L 530.646,1156.54 L 521.575,1156.54 L 512.504,1156.54 L 503.433,1156.54 L 494.362,1156.54 L 485.291,1156.54 L 476.22,1156.54 L 467.15,1156.54 L 458.079,1156.54 L 449.008,1156.54 L 439.937,1156.54 L 430.866,1156.54 L 421.795,1156.54 L 412.724,1156.54 L 403.654,1156.54 L 394.583,1156.54 L 385.512,1156.54 L 376.441,1156.54 L 367.37,1156.54 L 358.299,1156.54 L 349.228,1156.54 L 340.157,1156.54 L 331.087,1156.54 L 322.016,1156.54 L 312.945,1156.54 L 303.874,1156.54 L 294.803,1156.54 L 285.732,1156.54 L 276.661,1156.54 L 267.591,1156.54 L 258.52,1156.54 L 249.449,1156.54 L 240.378,1156.54 L 231.307,1156.54 L 222.236,1156.54 L 213.165,1156.54 L 204.094,1156.54 L 195.024,1156.54 L 185.953,1156.54 L 176.882,1156.54 L 167.811,1156.54 L 158.74,1156.54 L 149.669,1156.54 L 140.598,1156.54 L 131.528,1156.54 L 122.457,1156.54 L 113.386,1156.54 L 104.315,1156.54 L 95.2441,1156.54 L 86.1732,1156.54 L 77.1024,1156.54 L 68.0315,1156.54 L 58.9606,1156.54 L 49.8898,1156.54 L 40.8189,1156.54 L 31.748,1156.54 L 22.6772,1156.54 L 13.6063,1156.54 L 4.53543,1156.54 L 4.53543,1147.46 L 13.6063,1147.46 L 22.6772,1147.46 L 31.748,1147.46 L 40.8189,1147.46 L 49.8898,1156.54 L 58.9606,1156.54 L 68.0315,1156.54 L 77.1024,1156.54 L 86.1732,1156.54 L 95.2441,1156.54 L 104.315,1156.54 L 113.386,1156.54 L 122.457,1156.54 L 131.528,1156.54 L 140.598,1156.54 L 149.669,1156.54 L 158.74,1156.54 L 167.811,1156.54 L 176.882,1156.54 L 185.953,1156.54 L 195.024,1156.54 L 204.094,1156.54 L 213.165,1156.54 L 222.236,1156.54 L 231.307,1156.54 L 240.378,1156.54 L 249.449,1156.54 L 258.52,1156.54 L 267.591,1156.54 L 276.661,1156.54 L 285.732,1156.54 L 294.803,1156.54 L 303.874,1156.54 L 312.945,1156.54 L 322.016,1156.54 L 331.087,1156.54 L 340.157,1156.54 L 349.228,1156.54 L 358.299,1156.54 L 367.37,1147.46 L 376.441,1138.39 L 367.37,1129.32 L 367.37,1120.25 L 358.299,1111.18 L 358.299,1102.11 L 367.37,1093.04 L 376.441,1093.04 L 385.512,1093.04 L 394.583,1083.97 L 403.654,1074.9 L 412.724,1065.83 L 403.654,1056.76 L 412.724,1047.69 L 412.724,1038.61 L 412.724,1029.54 L 403.654,1020.47 L 412.724,1011.4 L 412.724,1002.33 L 421.795,993.26 L 430.866,993.26 L 439.937,984.189 L 449.008,984.189 L 458.079,975.118 L 467.15,975.118 L 476.22,966.047 L 485.291,966.047 L 494.362,956.976 L 503.433,947.906 L 503.433,938.835 L 503.433,929.764 L 494.362,920.693 L 485.291,920.693 L 476.22,920.693 L 467.15,911.622 L 458.079,911.622 L 449.008,902.551 L 439.937,902.551 L 430.866,893.48 L 421.795,893.48 L 412.724,884.409 L 403.654,875.339 L 394.583,875.339 L 385.512,884.409 L 376.441,893.48 L 367.37,893.48 L 358.299,902.551 L 349.228,902.551 L 340.157,902.551 L 331.087,911.622 L 322.016,920.693 L 312.945,920.693 L 303.874,929.764 L 303.874,938.835 L 312.945,947.906 L 322.016,947.906 L 331.087,956.976 L 331.087,966.047 L 340.157,975.118 L 331.087,984.189 L 340.157,993.26 L 331.087,1002.33 L 340.157,1011.4 L 331.087,1020.47 L 322.016,1020.47 L 312.945,1029.54 L 303.874,1038.61 L 294.803,1038.61 L 285.732,1038.61 L 276.661,1047.69 L 267.591,1047.69 L 258.52,1056.76 L 249.449,1056.76 L 240.378,1056.76 L 231.307,1056.76 L 222.236,1056.76 L 213.165,1056.76 L 204.094,1056.76 L 195.024,1047.69 L 185.953,1038.61 L 176.882,1038.61 L 167.811,1038.61 L 158.74,1029.54 L 149.669,1020.47 L 140.598,1020.47 L 140.598,1011.4 L 140.598,1002.33 L 131.528,993.26 L 140.598,984.189 L 131.528,975.118 L 131.528,966.047 L 122.457,956.976 L 113.386,956.976 L 104.315,947.906 L 104.315,938.835 L 104.315,929.764 L 95.2441,920.693 L 104.315,911.622 L 104.315,902.551 L 113.386,893.48 L 122.457,893.48 L 131.528,893.48 L 140.598,893.48 L 149.669,902.551 L 158.74,911.622 L 149.669,911.622 L 140.598,911.622 L 131.528,911.622 L 122.457,920.693 L 122.457,929.764 L 122.457,938.835 L 122.457,947.906 L 131.528,956.976 L 140.598,956.976 L 149.669,966.047 L 158.74,966.047 L 158.74,975.118 L 158.74,984.189 L 158.74,993.26 L 158.74,1002.33 L 158.74,1011.4 L 158.74,1020.47 L 167.811,1029.54 L 176.882,1029.54 L 185.953,1038.61 L 195.024,1038.61 L 204.094,1047.69 L 213.165,1047.69 L 222.236,1047.69 L 231.307,1047.69 L 240.378,1047.69 L 249.449,1047.69 L 258.52,1047.69 L 267.591,1047.69 L 276.661,1038.61 L 285.732,1038.61 L 294.803,1029.54 L 303.874,1029.54 L 312.945,1020.47 L 312.945,1011.4 L 312.945,1002.33 L 312.945,993.26 L 312.945,984.189 L 312.945,975.118 L 312.945,966.047 L 303.874,956.976 L 294.803,956.976 L 285.732,947.906 L 276.661,947.906 L 276.661,938.835 L 276.661,929.764 L 285.732,929.764 L 294.803,920.693 L 303.874,920.693 L 312.945,911.622 L 322.016,911.622 L 331.087,902.551 L 340.157,902.551 L 349.228,893.48 L 358.299,893.48 L 367.37,884.409 L 376.441,884.409 L 385.512,875.339M 566.929,1047.69 L 557.858,1056.76 L 548.787,1056.76 L 539.717,1065.83 L 530.646,1065.83 L 521.575,1074.9 L 512.504,1074.9 L 503.433,1083.97 L 503.433,1093.04 L 494.362,1093.04 L 485.291,1102.11 L 485.291,1111.18 L 494.362,1120.25 L 503.433,1120.25 L 503.433,1129.32 L 503.433,1138.39 L 503.433,1147.46 L 512.504,1156.54 L 521.575,1156.54 L 530.646,1156.54 L 539.717,1156.54 L 548.787,1156.54 L 557.858,1156.54 L 566.929,1156.54 L 576,1156.54 L 585.071,1156.54 L 594.142,1156.54 L 603.213,1156.54 L 612.283,1156.54 L 621.354,1156.54 L 630.425,1156.54 L 639.496,1156.54 L 648.567,1156.54 L 657.638,1147.46 L 657.638,1138.39 L 657.638,1129.32 L 657.638,1120.25 L 666.709,1120.25 L 675.78,1111.18 L 675.78,1102.11 L 666.709,1093.04 L 657.638,1093.04 L 657.638,1083.97 L 648.567,1074.9 L 639.496,1074.9 L 630.425,1065.83 L 621.354,1065.83 L 612.283,1056.76 L 603.213,1056.76 L 594.142,1047.69 L 585.071,1047.69 L 576,1047.69 L 566.929,1047.69 z " style="fill-opacity:0.5;fill:rgb(253,0,0);stroke:rgb(253,0,0);stroke-width:2"/></g>
<g fill-rule="evenodd"><path d="M 1156.54,1156.54 L 802.772,1156.54 L 784.63,1129.32 L 811.843,1102.11 L 775.559,1093.04 L 748.346,1065.83 L 748.346,1002.33 L 657.638,947.906 L 684.85,911.622 L 757.417,875.339 L 848.126,920.693 L 857.197,938.835 L 820.913,956.976 L 829.984,1020.47 L 893.48,1056.76 L 956.976,1056.76 L 1011.4,1029.54 L 1029.54,1011.4 L 1020.47,984.189 L 1065.83,938.835 L 1065.83,920.693 L 1047.69,893.48 L 1020.47,893.48 L 1002.33,911.622 L 1029.54,911.622 L 1038.61,947.906 L 1002.33,966.047 L 1002.33,1020.47 L 956.976,1047.69 L 893.48,1047.69 L 848.126,1020.47 L 848.126,966.047 L 884.409,947.906 L 884.409,929.764 L 775.559,875.339 L 748.346,875.339 L 666.709,920.693 L 657.638,911.622 L 648.567,929.764 L 621.354,929.764 L 612.283,911.622 L 594.142,929.764 L 557.858,911.622 L 539.717,929.764 L 512.504,929.764 L 458.079,893.48 L 385.512,875.339 L 276.661,929.764 L 276.661,947.906 L 312.945,966.047 L 312.945,1020.47 L 267.591,1047.69 L 204.094,1047.69 L 167.811,1029.54 L 158.74,966.047 L 122.457,947.906 L 122.457,920.693 L 158.74,911.622 L 140.598,893.48 L 113.386,893.48 L 95.2441,920.693 L 140.598,984.189 L 140.598,1020.47 L 204.094,1056.76 L 258.52,1056.76 L 331.087,1020.47 L 340.157,975.118 L 303.874,929.764 L 394.583,875.339 L 494.362,920.693 L 503.433,947.906 L 412.724,1002.33 L 412.724,1065.83 L 358.299,1102.11 L 376.441,1138.39 L 358.299,1156.54 L 4.53543,1147.46 L 1156.54,1156.54M 648.567,1156.54 L 512.504,1156.54 L 485.291,1102.11 L 512.504,1074.9 L 594.142,1047.69 L 675.78,1102.11 L 648.567,1156.54 z " style="fill-opacity:0.5;fill:rgb(0,253,0);stroke:rgb(0,0,0);stroke-width:5"/></g>
</svg>
