<?xml version="1.0" standalone="no"?>
<!DOCTYPE svg PUBLIC "-//W3C//DTD SVG 1.1//EN"
"http://www.w3.org/Graphics/SVG/1.1/DTD/svg11.dtd">
<svg width="100%" height="100%" version="1.1"
xmlns="http://www.w3.org/2000/svg"
xmlns:xlink="http://www.w3.org/1999/xlink">
<g fill-rule="evenodd"><path d="M 4.53543,4.53543 L 13.6063,4.53543 L 22.6772,4.53543 L 31.748,4.53543 L 40.8189,4.53543 L 49.8898,4.53543 L 58.9606,4.53543 L 68.0315,4.53543 L 77.1024,4.53543 L 86.1732,4.53543 L 95.2441,4.53543 L 104.315,4.53543 L 113.386,4.53543 L 122.457,4.53543 L 131.528,4.53543 L 140.598,4.53543 L 149.669,4.53543 L 158.74,4.53543 L 167.811,4.53543 L 176.882,4.53543 L 185.953,4.53543 L 195.024,4.53543 L 204.094,4.53543 L 213.165,4.53543 L 222.236,4.53543 L 231.307,4.53543 L 240.378,4.53543 L 249.449,4.53543 L 258.52,4.53543 L 267.591,4.53543 L 276.661,4.53543 L 285.732,4.53543 L 294.803,4.53543 L 303.874,4.53543 L 312.945,4.53543 L 322.016,4.53543 L 331.087,4.53543 L 340.157,4.53543 L 349.228,4.53543 L 358.299,4.53543 L 367.37,4.53543 L 376.441,4.53543 L 385.512,4.53543 L 394.583,4.53543 L 403.654,4.53543 L 412.724,4.53543 L 421.795,4.53543 L 430.866,4.53543 L 439.937,4.53543 L 449.008,4.53543 L 458.079,4.53543 L 467.15,4.53543 L 476.22,4.53543 L 485.291,4.53543 L 476.22,4.53543 L 467.15,13.6063 L 467.15,22.6772 L 467.15,31.748 L 467.15,40.8189 L 467.15,49.8898 L 458.079,49.8898 L 449.008,58.9606 L 458.079,68.0315 L 467.15,77.1024 L 467.15,86.1732 L 476.22,95.2441 L 485.291,104.315 L 485.291,113.386 L 485.291,122.457 L 485.291,131.528 L 494.362,140.598 L 503.433,149.669 L 503.433,158.74 L 512.504,167.811 L 521.575,176.882 L 521.575,185.953 L 530.646,195.024 L 539.717,204.094 L 548.787,204.094 L 557.858,195.024 L 566.929,195.024 L 576,195.024 L 585.071,204.094 L 594.142,204.094 L 603.213,204.094 L 612.283,204.094 L 621.354,204.094 L 630.425,213.165 L 639.496,213.165 L 648.567,204.094 L 657.638,195.024 L 666.709,195.024 L 675.78,195.024 L 684.85,204.094 L 693.921,213.165 L 702.992,213.165 L 712.063,204.094 L 721.134,204.094 L 730.205,195.024 L 739.276,195.024 L 748.346,185.953 L 757.417,185.953 L 766.488,185.953 L 775.559,195.024 L 784.63,185.953 L 784.63,176.882 L 793.701,167.811 L 802.772,158.74 L 802.772,149.669 L 811.843,140.598 L 820.913,131.528 L 811.843,122.457 L 802.772,122.457 L 793.701,113.386 L 784.63,113.386 L 784.63,104.315 L 784.63,95.2441 L 784.63,86.1732 L 784.63,77.1024 L 784.63,68.0315 L 775.559,58.9606 L 784.63,58.9606 L 793.701,58.9606 L 802.772,68.0315 L 802.772,77.1024 L 811.843,86.1732 L 811.843,95.2441 L 811.843,104.315 L 820.913,113.386 L 829.984,113.386 L 839.055,113.386 L 848.126,122.457 L 857.197,122.457 L 857.197,131.528 L 848.126,131.528 L 839.055,131.528 L 829.984,140.598 L 829.984,149.669 L 829.984,158.74 L 820.913,158.74 L 811.843,167.811 L 811.843,176.882 L 811.843,185.953 L 811.843,195.024 L 811.843,204.094 L 802.772,204.094 L 793.701,213.165 L 784.63,213.165 L 775.559,222.236 L 766.488,222.236 L 757.417,231.307 L 766.488,240.378 L 766.488,249.449 L 757.417,258.52 L 748.346,258.52 L 739.276,249.449 L 730.205,249.449 L 721.134,240.378 L 712.063,240.378 L 702.992,240.378 L 693.921,240.378 L 684.85,240.378 L 675.78,240.378 L 666.709,249.449 L 666.709,258.52 L 657.638,258.52 L 648.567,267.591 L 648.567,276.661 L 648.567,285.732 L 639.496,285.732 L 630.425,294.803 L 630.425,303.874 L 630.425,312.945 L 621.354,322.016 L 612.283,322.016 L 603.213,322.016 L 594.142,322.016 L 585.071,331.087 L 585.071,340.157 L 594.142,349.228 L 594.142,358.299 L 585.071,358.299 L 576,358.299 L 566.929,358.299 L 557.858,349.228 L 566.929,340.157 L 557.858,331.087 L 548.787,331.087 L 539.717,340.157 L 530.646,340.157 L 521.575,340.157 L 512.504,340.157 L 503.433,340.157 L 494.362,331.087 L 485.291,331.087 L 476.22,322.016 L 476.22,312.945 L 485.291,312.945 L 494.362,303.874 L 494.362,294.803 L 494.362,285.732 L 494.362,276.661 L 485.291,267.591 L 476.22,267.591 L 476.22,258.52 L 476.22,249.449 L 467.15,240.378 L 458.079,240.378 L 467.15,231.307 L 467.15,222.236 L 458.079,213.165 L 458.079,204.094 L 449.008,195.024 L 439.937,195.024 L 430.866,185.953 L 421.795,185.953 L 412.724,176.882 L 403.654,176.882 L 394.583,185.953 L 394.583,195.024 L 385.512,195.024 L 376.441,204.094 L 367.37,204.094 L 358.299,195.024 L 358.299,185.953 L 367.37,176.882 L 367.37,167.811 L 367.37,158.74 L 367.37,149.669 L 367.37,140.598 L 358.299,131.528 L 349.228,131.528 L 349.228,122.457 L 349.228,113.386 L 349.228,104.315 L 349.228,95.2441 L 340.157,86.1732 L 331.087,86.1732 L 322.016,77.1024 L 312.945,77.1024 L 303.874,68.0315 L 294.803,68.0315 L 285.732,58.9606 L 276.661,58.9606 L 267.591,58.9606 L 258.52,58.9606 L 249.449,68.0315 L 240.378,68.0315 L 231.307,68.0315 L 222.236,68.0315 L 213.165,68.0315 L 204.094,68.0315 L 195.024,77.1024 L 185.953,77.1024 L 176.882,86.1732 L 167.811,86.1732 L 158.74,95.2441 L 158.74,104.315 L 158.74,113.386 L 158.74,122.457 L 158.74,131.528 L 149.669,131.528 L 140.598,140.598 L 140.598,149.669 L 140.598,158.74 L 140.598,167.811 L 149.669,176.882 L 158.74,176.882 L 167.811,185.953 L 176.882,185.953 L 176.882,195.024 L 176.882,204.094 L 185.953,213.165 L 195.024,213.165 L 195.024,222.236 L 195.024,231.307 L 204.094,240.378 L 213.165,240.378 L 222.236,240.378 L 231.307,240.378 L 240.378,231.307 L 249.449,231.307 L 258.52,222.236 L 267.591,222.236 L 276.661,222.236 L 285.732,222.236 L 294.803,222.236 L 303.874,222.236 L 312.945,213.165 L 322.016,213.165 L 331.087,204.094 L 340.157,204.094 L 349.228,213.165 L 358.299,222.236 L 358.299,231.307 L 349.228,231.307 L 340.157,231.307 L 331.087,231.307 L 322.016,231.307 L 312.945,231.307 L 303.874,240.378 L 294.803,240.378 L 285.732,240.378 L 276.661,240.378 L 267.591,249.449 L 267.591,258.52 L 267.591,267.591 L 267.591,276.661 L 258.52,276.661 L 249.449,285.732 L 240.378,294.803 L 240.378,303.874 L 231.307,312.945 L 222.236,312.945 L 213.165,312.945 L 204.094,312.945 L 195.024,303.874 L 185.953,303.874 L 185.953,294.803 L 185.953,285.732 L 176.882,276.661 L 167.811,285.732 L 167.811,294.803 L 158.74,294.803 L 158.74,285.732 L 167.811,276.661 L 167.811,267.591 L 167.811,258.52 L 158.74,249.449 L 149.669,249.449 L 149.669,240.378 L 149.669,231.307 L 140.598,222.236 L 131.528,222.236 L 122.457,231.307 L 113.386,231.307 L 104.315,222.236 L 95.2441,222.236 L 86.1732,213.165 L 77.1024,213.165 L 68.0315,204.094 L 58.9606,204.094 L 49.8898,195.024 L 40.8189,195.024 L 31.748,185.953 L 22.6772,185.953 L 13.6063,185.953 L 4.53543,185.953 L 4.53543,176.882 L 4.53543,167.811 L 4.53543,158.74 L 4.53543,149.669 L 4.53543,140.598 L 4.53543,131.528 L 4.53543,122.457 L 4.53543,113.386 L 4.53543,104.315 L 4.53543,95.2441 L 4.53543,86.1732 L 4.53543,77.1024 L 4.53543,68.0315 L 4.53543,58.9606 L 4.53543,49.8898 L 4.53543,40.8189 L 4.53543,31.748 L 4.53543,22.6772 L 4.53543,13.6063 L 4.53543,4.53543 z " style="fill-opacity:0.5;fill:rgb(253,0,0);stroke:rgb(253,0,0);stroke-width:2"/></g>
<g fill-rule="evenodd"><path d="M 857.197,131.528 L 811.843,104.315 L 793.701,58.9606 L 775.559,58.9606 L 784.63,113.386 L 820.913,131.528 L 775.559,195.024 L 748.346,185.953 L 702.992,213.165 L 675.78,195.024 L 639.496,213.165 L 576,195.024 L 539.717,204.094 L 449.008,58.9606 L 467.15,49.8898 L 467.15,13.6063 L 485.291,4.53543 L 4.53543,4.53543 L 4.53543,185.953 L 31.748,185.953 L 113.386,231.307 L 140.598,222.236 L 149.669,249.449 L 167.811,258.52 L 158.74,294.803 L 176.882,276.661 L 185.953,303.874 L 204.094,312.945 L 231.307,312.945 L 267.591,276.661 L 276.661,240.378 L 358.299,231.307 L 340.157,204.094 L 231.307,240.378 L 195.024,231.307 L 176.882,185.953 L 140.598,167.811 L 140.598,140.598 L 158.74,131.528 L 158.74,95.2441 L 204.094,68.0315 L 285.732,58.9606 L 340.157,86.1732 L 349.228,131.528 L 367.37,140.598 L 358.299,195.024 L 376.441,204.094 L 403.654,176.882 L 449.008,195.024 L 467.15,222.236 L 458.079,240.378 L 494.362,276.661 L 494.362,303.874 L 476.22,322.016 L 503.433,340.157 L 557.858,331.087 L 566.929,358.299 L 594.142,358.299 L 585.071,331.087 L 621.354,322.016 L 675.78,240.378 L 721.134,240.378 L 757.417,258.52 L 757.417,231.307 L 811.843,204.094 L 811.843,167.811 L 839.055,131.528 L 857.197,131.528 z " style="fill-opacity:0.5;fill:rgb(0,253,0);stroke:rgb(0,0,0);stroke-width:5"/></g>
<g fill-rule="evenodd"><path d="M 784.63,4.53543 L 793.701,4.53543 L 784.63,4.53543 z " style="fill-opacity:0.5;fill:rgb(253,0,0);stroke:rgb(253,0,0);stroke-width:2"/></g>
<g fill-rule="evenodd"><path d="M 793.701,4.53543 z " style="fill-opacity:0.5;fill:rgb(0,253,0);stroke:rgb(0,0,0);stroke-width:5"/></g>
<g fill-rule="evenodd"><path d="M 829.984,4.53543 L 839.055,4.53543 L 848.126,4.53543 L 848.126,13.6063 L 857.197,22.6772 L 866.268,22.6772 L 866.268,31.748 L 866.268,40.8189 L 866.268,49.8898 L 857.197,49.8898 L 848.126,58.9606 L 839.055,58.9606 L 829.984,58.9606 L 820.913,58.9606 L 811.843,49.8898 L 811.843,40.8189 L 820.913,49.8898 L 829.984,49.8898 L 839.055,40.8189 L 839.055,31.748 L 829.984,22.6772 L 820.913,22.6772 L 820.913,13.6063 L 829.984,4.53543 z " style="fill-opacity:0.5;fill:rgb(253,0,0);stroke:rgb(253,0,0);stroke-width:2"/></g>
<g fill-rule="evenodd"><path d="M 866.268,49.8898 L 866.268,22.6772 L 829.984,4.53543 L 820.913,22.6772 L 839.055,40.8189 L 811.843,49.8898 L 866.268,49.8898 z " style="fill-opacity:0.5;fill:rgb(0,253,0);stroke:rgb(0,0,0);stroke-width:5"/></g>
<g fill-rule="evenodd"><path d="M 975.118,4.53543 L 984.189,4.53543 L 993.26,4.53543 L 1002.33,4.53543 L 1011.4,4.53543 L 1020.47,4.53543 L 1029.54,4.53543 L 1038.61,4.53543 L 1047.69,4.53543 L 1056.76,4.53543 L 1065.83,4.53543 L 1074.9,4.53543 L 1083.97,4.53543 L 1093.04,4.53543 L 1102.11,4.53543 L 1111.18,4.53543 L 1120.25,4.53543 L 1129.32,4.53543 L 1138.39,4.53543 L 1147.46,4.53543 L 1156.54,4.53543 L 1156.54,13.6063 L 1156.54,22.6772 L 1156.54,31.748 L 1147.46,40.8189 L 1147.46,49.8898 L 1156.54,58.9606 L 1156.54,68.0315 L 1156.54,77.1024 L 1156.54,86.1732 L 1156.54,95.2441 L 1156.54,104.315 L 1156.54,113.386 L 1156.54,122.457 L 1156.54,131.528 L 1156.54,140.598 L 1156.54,149.669 L 1156.54,158.74 L 1156.54,167.811 L 1156.54,176.882 L 1156.54,185.953 L 1156.54,195.024 L 1156.54,204.094 L 1156.54,213.165 L 1156.54,222.236 L 1156.54,231.307 L 1156.54,240.378 L 1156.54,249.449 L 1156.54,258.52 L 1156.54,267.591 L 1156.54,276.661 L 1156.54,285.732 L 1156.54,294.803 L 1147.46,285.732 L 1138.39,285.732 L 1129.32,294.803 L 1120.25,294.803 L 1111.18,285.732 L 1102.11,285.732 L 1093.04,294.803 L 1083.97,294.803 L 1074.9,285.732 L 1074.9,276.661 L 1065.83,267.591 L 1056.76,258.52 L 1047.69,267.591 L 1056.76,258.52 L 1056.76,249.449 L 1047.69,240.378 L 1038.61,249.449 L 1029.54,249.449 L 1020.47,240.378 L 1011.4,240.378 L 1002.33,231.307 L 993.26,231.307 L 984.189,222.236 L 975.118,222.236 L 966.047,222.236 L 966.047,213.165 L 966.047,204.094 L 956.976,195.024 L 947.906,185.953 L 938.835,185.953 L 929.764,185.953 L 929.764,176.882 L 929.764,167.811 L 929.764,158.74 L 929.764,149.669 L 929.764,140.598 L 929.764,131.528 L 938.835,131.528 L 947.906,122.457 L 956.976,122.457 L 966.047,122.457 L 975.118,122.457 L 984.189,131.528 L 993.26,122.457 L 993.26,113.386 L 993.26,104.315 L 1002.33,95.2441 L 1002.33,86.1732 L 1011.4,77.1024 L 1011.4,68.0315 L 1011.4,58.9606 L 1011.4,49.8898 L 1002.33,40.8189 L 993.26,31.748 L 993.26,22.6772 L 984.189,13.6063 L 975.118,4.53543 z " style="fill-opacity:0.5;fill:rgb(253,0,0);stroke:rgb(253,0,0);stroke-width:2"/></g>
<g fill-rule="evenodd"><path d="M 1156.54,294.803 L 1156.54,4.53543 L 975.118,4.53543 L 1011.4,49.8898 L 1011.4,77.1024 L 984.189,131.528 L 929.764,131.528 L 929.764,185.953 L 947.906,185.953 L 966.047,222.236 L 1029.54,249.449 L 1047.69,240.378 L 1047.69,267.591 L 1056.76,258.52 L 1083.97,294.803 L 1156.54,294.803 z " style="fill-opacity:0.5;fill:rgb(0,253,0);stroke:rgb(0,0,0);stroke-width:5"/></g>
<g fill-rule="evenodd"><path d="M 4.53543,231.307 L 13.6063,231.307 L 22.6772,231.307 L 31.748,231.307 L 40.8189,240.378 L 49.8898,240.378 L 49.8898,249.449 L 49.8898,258.52 L 40.8189,258.52 L 31.748,258.52 L 22.6772,249.449 L 13.6063,249.449 L 4.53543,258.52 L 4.53543,249.449 L 4.53543,240.378 L 4.53543,231.307 z " style="fill-opacity:0.5;fill:rgb(253,0,0);stroke:rgb(253,0,0);stroke-width:2"/></g>
<g fill-rule="evenodd"><path d="M 49.8898,258.52 L 49.8898,240.378 L 4.53543,231.307 L 4.53543,258.52 L 49.8898,258.52 z " style="fill-opacity:0.5;fill:rgb(0,253,0);stroke:rgb(0,0,0);stroke-width:5"/></g>
<g fill-rule="evenodd"><path d="M 784.63,258.52 L 793.701,258.52 L 802.772,267.591 L 811.843,267.591 L 820.913,276.661 L 829.984,276.661 L 829.984,285.732 L 829.984,294.803 L 839.055,303.874 L 848.126,303.874 L 857.197,303.874 L 866.268,303.874 L 875.339,303.874 L 884.409,303.874 L 893.48,312.945 L 902.551,312.945 L 902.551,322.016 L 893.48,322.016 L 884.409,331.087 L 884.409,340.157 L 893.48,349.228 L 902.551,349.228 L 911.622,349.228 L 911.622,358.299 L 902.551,367.37 L 893.48,367.37 L 884.409,376.441 L 884.409,385.512 L 875.339,385.512 L 866.268,394.583 L 866.268,403.654 L 866.268,412.724 L 866.268,421.795 L 866.268,430.866 L 866.268,439.937 L 866.268,449.008 L 857.197,458.079 L 857.197,467.15 L 857.197,476.22 L 848.126,485.291 L 839.055,485.291 L 829.984,485.291 L 820.913,485.291 L 811.843,485.291 L 802.772,485.291 L 802.772,476.22 L 802.772,467.15 L 802.772,458.079 L 802.772,449.008 L 793.701,439.937 L 784.63,439.937 L 775.559,430.866 L 766.488,430.866 L 766.488,421.795 L 766.488,412.724 L 766.488,403.654 L 775.559,394.583 L 784.63,385.512 L 793.701,385.512 L 802.772,376.441 L 811.843,367.37 L 811.843,358.299 L 820.913,358.299 L 829.984,367.37 L 839.055,358.299 L 848.126,349.228 L 839.055,340.157 L 829.984,331.087 L 820.913,331.087 L 820.913,322.016 L 820.913,312.945 L 811.843,303.874 L 802.772,303.874 L 802.772,294.803 L 793.701,285.732 L 784.63,285.732 L 775.559,285.732 L 766.488,285.732 L 766.488,276.661 L 775.559,267.591 L 784.63,258.52 z " style="fill-opacity:0.5;fill:rgb(253,0,0);stroke:rgb(253,0,0);stroke-width:2"/></g>
<g fill-rule="evenodd"><path d="M 848.126,485.291 L 866.268,449.008 L 866.268,394.583 L 911.622,358.299 L 884.409,340.157 L 902.551,312.945 L 839.055,303.874 L 829.984,276.661 L 784.63,258.52 L 766.488,285.732 L 793.701,285.732 L 848.126,349.228 L 829.984,367.37 L 811.843,358.299 L 766.488,403.654 L 766.488,430.866 L 802.772,449.008 L 802.772,485.291 L 848.126,485.291 z " style="fill-opacity:0.5;fill:rgb(0,253,0);stroke:rgb(0,0,0);stroke-width:5"/></g>
<g fill-rule="evenodd"><path d="M 4.53543,340.157 L 13.6063,340.157 L 22.6772,340.157 L 31.748,340.157 L 40.8189,340.157 L 49.8898,340.157 L 58.9606,340.157 L 68.0315,340.157 L 68.0315,349.228 L 68.0315,358.299 L 77.1024,367.37 L 86.1732,376.441 L 86.1732,385.512 L 95.2441,394.583 L 104.315,394.583 L 113.386,403.654 L 122.457,403.654 L 131.528,412.724 L 140.598,412.724 L 149.669,421.795 L 158.74,421.795 L 167.811,430.866 L 176.882,430.866 L 185.953,439.937 L 195.024,449.008 L 185.953,458.079 L 185.953,467.15 L 195.024,476.22 L 185.953,476.22 L 176.882,485.291 L 167.811,485.291 L 158.74,494.362 L 149.669,494.362 L 140.598,494.362 L 131.528,485.291 L 122.457,485.291 L 113.386,485.291 L 113.386,476.22 L 113.386,467.15 L 104.315,458.079 L 95.2441,449.008 L 86.1732,449.008 L 77.1024,458.079 L 68.0315,458.079 L 58.9606,449.008 L 49.8898,449.008 L 40.8189,458.079 L 31.748,458.079 L 22.6772,467.15 L 13.6063,467.15 L 4.53543,458.079 L 4.53543,449.008 L 4.53543,439.937 L 4.53543,430.866 L 4.53543,421.795 L 4.53543,412.724 L 4.53543,403.654 L 4.53543,394.583 L 4.53543,385.512 L 4.53543,376.441 L 4.53543,367.37 L 4.53543,358.299 L 4.53543,349.228 L 4.53543,340.157 z " style="fill-opacity:0.5;fill:rgb(253,0,0);stroke:rgb(253,0,0);stroke-width:2"/></g>
<g fill-rule="evenodd"><path d="M 195.024,476.22 L 195.024,449.008 L 95.2441,394.583 L 68.0315,340.157 L 4.53543,340.157 L 13.6063,467.15 L 49.8898,449.008 L 95.2441,449.008 L 113.386,485.291 L 140.598,494.362 L 195.024,476.22 z " style="fill-opacity:0.5;fill:rgb(0,253,0);stroke:rgb(0,0,0);stroke-width:5"/></g>
<g fill-rule="evenodd"><path d="M 331.087,349.228 L 340.157,349.228 L 349.228,349.228 L 340.157,358.299 L 331.087,367.37 L 340.157,376.441 L 349.228,385.512 L 349.228,394.583 L 340.157,403.654 L 349.228,412.724 L 358.299,412.724 L 367.37,403.654 L 376.441,412.724 L 385.512,421.795 L 394.583,421.795 L 403.654,421.795 L 412.724,430.866 L 403.654,439.937 L 403.654,449.008 L 403.654,458.079 L 412.724,467.15 L 412.724,476.22 L 412.724,485.291 L 412.724,494.362 L 412.724,503.433 L 412.724,512.504 L 403.654,512.504 L 394.583,521.575 L 385.512,521.575 L 376.441,530.646 L 367.37,530.646 L 358.299,539.717 L 349.228,539.717 L 340.157,548.787 L 331.087,548.787 L 322.016,539.717 L 312.945,530.646 L 322.016,521.575 L 312.945,512.504 L 312.945,503.433 L 312.945,494.362 L 303.874,485.291 L 294.803,485.291 L 294.803,476.22 L 294.803,467.15 L 294.803,458.079 L 294.803,449.008 L 294.803,439.937 L 294.803,430.866 L 294.803,421.795 L 303.874,421.795 L 312.945,412.724 L 312.945,403.654 L 312.945,394.583 L 312.945,385.512 L 312.945,376.441 L 322.016,367.37 L 322.016,358.299 L 331.087,349.228 z " style="fill-opacity:0.5;fill:rgb(253,0,0);stroke:rgb(253,0,0);stroke-width:2"/></g>
<g fill-rule="evenodd"><path d="M 340.157,548.787 L 412.724,512.504 L 412.724,430.866 L 367.37,403.654 L 340.157,403.654 L 349.228,385.512 L 331.087,367.37 L 349.228,349.228 L 322.016,358.299 L 312.945,412.724 L 294.803,421.795 L 294.803,485.291 L 312.945,494.362 L 312.945,530.646 L 340.157,548.787 z " style="fill-opacity:0.5;fill:rgb(0,253,0);stroke:rgb(0,0,0);stroke-width:5"/></g>
<g fill-rule="evenodd"><path d="M 1020.47,394.583 L 1029.54,394.583 L 1029.54,403.654 L 1029.54,412.724 L 1029.54,421.795 L 1029.54,430.866 L 1038.61,439.937 L 1047.69,439.937 L 1056.76,439.937 L 1065.83,439.937 L 1074.9,439.937 L 1083.97,439.937 L 1093.04,439.937 L 1102.11,439.937 L 1111.18,439.937 L 1120.25,439.937 L 1129.32,439.937 L 1138.39,439.937 L 1147.46,430.866 L 1156.54,430.866 L 1156.54,439.937 L 1156.54,449.008 L 1156.54,458.079 L 1156.54,467.15 L 1147.46,467.15 L 1138.39,467.15 L 1129.32,467.15 L 1120.25,467.15 L 1111.18,467.15 L 1102.11,467.15 L 1093.04,467.15 L 1083.97,467.15 L 1074.9,467.15 L 1065.83,476.22 L 1056.76,476.22 L 1047.69,485.291 L 1038.61,485.291 L 1029.54,494.362 L 1029.54,503.433 L 1029.54,512.504 L 1020.47,512.504 L 1011.4,512.504 L 1002.33,521.575 L 993.26,530.646 L 1002.33,539.717 L 1002.33,548.787 L 993.26,557.858 L 984.189,557.858 L 975.118,548.787 L 966.047,548.787 L 966.047,539.717 L 975.118,530.646 L 984.189,530.646 L 993.26,521.575 L 1002.33,512.504 L 1011.4,503.433 L 1002.33,494.362 L 1011.4,485.291 L 1002.33,476.22 L 1011.4,467.15 L 1011.4,458.079 L 1020.47,449.008 L 1011.4,439.937 L 1002.33,430.866 L 993.26,430.866 L 984.189,430.866 L 984.189,421.795 L 993.26,412.724 L 1002.33,403.654 L 1011.4,403.654 L 1020.47,394.583 z " style="fill-opacity:0.5;fill:rgb(253,0,0);stroke:rgb(253,0,0);stroke-width:2"/></g>
<g fill-rule="evenodd"><path d="M 984.189,557.858 L 1038.61,485.291 L 1074.9,467.15 L 1156.54,467.15 L 1156.54,430.866 L 1038.61,439.937 L 1029.54,394.583 L 1002.33,403.654 L 984.189,430.866 L 1020.47,449.008 L 1002.33,476.22 L 1011.4,503.433 L 966.047,539.717 L 984.189,557.858 z " style="fill-opacity:0.5;fill:rgb(0,253,0);stroke:rgb(0,0,0);stroke-width:5"/></g>
<g fill-rule="evenodd"><path d="M 1156.54,485.291 L 1156.54,494.362 L 1156.54,503.433 L 1156.54,512.504 L 1147.46,512.504 L 1138.39,521.575 L 1129.32,521.575 L 1129.32,512.504 L 1129.32,503.433 L 1138.39,494.362 L 1147.46,494.362 L 1156.54,485.291 z " style="fill-opacity:0.5;fill:rgb(253,0,0);stroke:rgb(253,0,0);stroke-width:2"/></g>
<g fill-rule="evenodd"><path d="M 1129.32,521.575 L 1156.54,512.504 L 1156.54,485.291 L 1129.32,503.433 L 1129.32,521.575 z " style="fill-opacity:0.5;fill:rgb(0,253,0);stroke:rgb(0,0,0);stroke-width:5"/></g>
<g fill-rule="evenodd"><path d="M 294.803,548.787 L 303.874,548.787 L 312.945,557.858 L 322.016,566.929 L 322.016,576 L 312.945,576 L 303.874,576 L 294.803,576 L 285.732,585.071 L 285.732,594.142 L 276.661,594.142 L 267.591,603.213 L 258.52,603.213 L 249.449,612.283 L 258.52,621.354 L 267.591,630.425 L 267.591,639.496 L 276.661,648.567 L 285.732,657.638 L 294.803,666.709 L 303.874,666.709 L 312.945,666.709 L 322.016,666.709 L 331.087,666.709 L 340.157,666.709 L 349.228,675.78 L 358.299,675.78 L 358.299,684.85 L 367.37,693.921 L 376.441,693.921 L 385.512,693.921 L 394.583,693.921 L 403.654,702.992 L 412.724,702.992 L 412.724,712.063 L 412.724,721.134 L 412.724,730.205 L 412.724,739.276 L 421.795,748.346 L 430.866,748.346 L 430.866,757.417 L 421.795,766.488 L 412.724,766.488 L 403.654,775.559 L 394.583,775.559 L 385.512,775.559 L 376.441,784.63 L 367.37,784.63 L 358.299,793.701 L 349.228,793.701 L 340.157,802.772 L 340.157,811.843 L 349.228,820.913 L 358.299,820.913 L 358.299,829.984 L 349.228,829.984 L 340.157,839.055 L 340.157,848.126 L 331.087,857.197 L 322.016,866.268 L 322.016,875.339 L 322.016,884.409 L 312.945,884.409 L 303.874,893.48 L 294.803,893.48 L 285.732,902.551 L 294.803,911.622 L 303.874,920.693 L 312.945,929.764 L 322.016,929.764 L 331.087,929.764 L 340.157,929.764 L 349.228,929.764 L 358.299,929.764 L 367.37,920.693 L 367.37,929.764 L 358.299,938.835 L 349.228,938.835 L 340.157,938.835 L 331.087,938.835 L 322.016,938.835 L 312.945,938.835 L 303.874,938.835 L 294.803,938.835 L 285.732,929.764 L 276.661,929.764 L 267.591,938.835 L 267.591,947.906 L 267.591,956.976 L 267.591,966.047 L 258.52,966.047 L 249.449,975.118 L 240.378,975.118 L 231.307,984.189 L 231.307,993.26 L 231.307,1002.33 L 222.236,1002.33 L 213.165,1011.4 L 213.165,1020.47 L 213.165,1029.54 L 213.165,1038.61 L 213.165,1047.69 L 213.165,1056.76 L 222.236,1065.83 L 231.307,1065.83 L 240.378,1074.9 L 249.449,1074.9 L 258.52,1083.97 L 267.591,1083.97 L 276.661,1093.04 L 285.732,1093.04 L 294.803,1102.11 L 303.874,1102.11 L 303.874,1111.18 L 303.874,1120.25 L 312.945,1129.32 L 322.016,1129.32 L 331.087,1129.32 L 340.157,1129.32 L 349.228,1120.25 L 358.299,1120.25 L 367.37,1111.18 L 376.441,1111.18 L 385.512,1102.11 L 394.583,1102.11 L 403.654,1093.04 L 403.654,1083.97 L 403.654,1074.9 L 412.724,1074.9 L 421.795,1065.83 L 430.866,1065.83 L 439.937,1056.76 L 439.937,1047.69 L 430.866,1038.61 L 421.795,1038.61 L 421.795,1029.54 L 430.866,1029.54 L 439.937,1020.47 L 439.937,1011.4 L 430.866,1002.33 L 421.795,1002.33 L 412.724,993.26 L 403.654,993.26 L 394.583,984.189 L 385.512,984.189 L 385.512,975.118 L 385.512,966.047 L 376.441,956.976 L 376.441,947.906 L 385.512,938.835 L 394.583,938.835 L 403.654,938.835 L 394.583,947.906 L 394.583,956.976 L 403.654,966.047 L 403.654,975.118 L 412.724,984.189 L 421.795,984.189 L 430.866,984.189 L 439.937,984.189 L 449.008,975.118 L 458.079,975.118 L 467.15,975.118 L 476.22,984.189 L 476.22,993.26 L 485.291,1002.33 L 494.362,1002.33 L 503.433,993.26 L 503.433,984.189 L 512.504,984.189 L 521.575,993.26 L 530.646,993.26 L 539.717,993.26 L 548.787,984.189 L 539.717,975.118 L 548.787,975.118 L 557.858,975.118 L 566.929,984.189 L 566.929,993.26 L 566.929,1002.33 L 576,1011.4 L 585.071,1011.4 L 585.071,1020.47 L 576,1020.47 L 566.929,1011.4 L 557.858,1020.47 L 548.787,1020.47 L 539.717,1020.47 L 530.646,1020.47 L 521.575,1029.54 L 530.646,1038.61 L 539.717,1038.61 L 539.717,1047.69 L 530.646,1047.69 L 521.575,1056.76 L 512.504,1056.76 L 503.433,1065.83 L 503.433,1074.9 L 503.433,1083.97 L 503.433,1093.04 L 503.433,1102.11 L 494.362,1102.11 L 485.291,1111.18 L 485.291,1120.25 L 485.291,1129.32 L 476.22,1129.32 L 467.15,1138.39 L 467.15,1147.46 L 476.22,1156.54 L 485.291,1156.54 L 494.362,1156.54 L 503.433,1156.54 L 512.504,1156.54 L 521.575,1156.54 L 530.646,1156.54 L 539.717,1156.54 L 548.787,1156.54 L 557.858,1156.54 L 566.929,1156.54 L 576,1156.54 L 585.071,1156.54 L 594.142,1156.54 L 603.213,1156.54 L 612.283,1156.54 L 621.354,1156.54 L 630.425,1156.54 L 639.496,1156.54 L 648.567,1156.54 L 657.638,1147.46 L 657.638,1138.39 L 657.638,1129.32 L 657.638,1120.25 L 666.709,1120.25 L 675.78,1111.18 L 666.709,1102.11 L 666.709,1093.04 L 666.709,1083.97 L 675.78,1083.97 L 684.85,1083.97 L 693.921,1083.97 L 702.992,1083.97 L 712.063,1074.9 L 721.134,1074.9 L 730.205,1065.83 L 739.276,1065.83 L 748.346,1056.76 L 748.346,1047.69 L 748.346,1038.61 L 748.346,1029.54 L 748.346,1020.47 L 757.417,1020.47 L 766.488,1011.4 L 775.559,1011.4 L 784.63,1002.33 L 793.701,1002.33 L 802.772,1002.33 L 811.843,1002.33 L 820.913,1011.4 L 829.984,1011.4 L 839.055,1020.47 L 848.126,1020.47 L 848.126,1029.54 L 848.126,1038.61 L 839.055,1038.61 L 829.984,1047.69 L 829.984,1056.76 L 829.984,1065.83 L 829.984,1074.9 L 829.984,1083.97 L 820.913,1083.97 L 811.843,1093.04 L 820.913,1102.11 L 829.984,1111.18 L 829.984,1120.25 L 829.984,1129.32 L 829.984,1138.39 L 829.984,1147.46 L 839.055,1156.54 L 848.126,1156.54 L 857.197,1156.54 L 866.268,1156.54 L 875.339,1156.54 L 884.409,1156.54 L 893.48,1156.54 L 902.551,1156.54 L 911.622,1156.54 L 920.693,1156.54 L 929.764,1156.54 L 938.835,1156.54 L 947.906,1156.54 L 956.976,1156.54 L 966.047,1156.54 L 975.118,1156.54 L 984.189,1156.54 L 993.26,1156.54 L 1002.33,1147.46 L 993.26,1138.39 L 984.189,1138.39 L 984.189,1129.32 L 993.26,1129.32 L 1002.33,1120.25 L 1011.4,1111.18 L 1011.4,1102.11 L 1020.47,1093.04 L 1020.47,1083.97 L 1011.4,1074.9 L 1011.4,1065.83 L 1020.47,1056.76 L 1029.54,1056.76 L 1029.54,1065.83 L 1029.54,1074.9 L 1038.61,1083.97 L 1047.69,1093.04 L 1047.69,1102.11 L 1038.61,1102.11 L 1029.54,1111.18 L 1029.54,1120.25 L 1029.54,1129.32 L 1038.61,1138.39 L 1047.69,1147.46 L 1056.76,1147.46 L 1065.83,1138.39 L 1074.9,1138.39 L 1083.97,1147.46 L 1093.04,1147.46 L 1102.11,1147.46 L 1111.18,1138.39 L 1120.25,1138.39 L 1129.32,1138.39 L 1138.39,1138.39 L 1147.46,1147.46 L 1156.54,1147.46 L 1156.54,1156.54 L 1147.46,1156.54 L 1138.39,1156.54 L 1129.32,1156.54 L 1120.25,1156.54 L 1111.18,1156.54 L 1102.11,1156.54 L 1093.04,1156.54 L 1083.97,1156.54 L 1074.9,1156.54 L 1065.83,1156.54 L 1056.76,1156.54 L 1047.69,1156.54 L 1038.61,1156.54 L 1029.54,1156.54 L 1020.47,1156.54 L 1011.4,1156.54 L 1002.33,1156.54 L 993.26,1156.54 L 984.189,1156.54 L 975.118,1156.54 L 966.047,1156.54 L 956.976,1156.54 L 947.906,1156.54 L 938.835,1156.54 L 929.764,1156.54 L 920.693,1156.54 L 911.622,1156.54 L 902.551,1156.54 L 893.48,1156.54 L 884.409,1156.54 L 875.339,1156.54 L 866.268,1156.54 L 857.197,1156.54 L 848.126,1156.54 L 839.055,1156.54 L 829.984,1156.54 L 820.913,1156.54 L 811.843,1156.54 L 802.772,1156.54 L 793.701,1156.54 L 784.63,1156.54 L 775.559,1156.54 L 766.488,1156.54 L 757.417,1156.54 L 748.346,1156.54 L 739.276,1156.54 L 730.205,1156.54 L 721.134,1156.54 L 712.063,1156.54 L 702.992,1156.54 L 693.921,1156.54 L 684.85,1156.54 L 675.78,1156.54 L 666.709,1156.54 L 657.638,1156.54 L 648.567,1156.54 L 639.496,1156.54 L 630.425,1156.54 L 621.354,1156.54 L 612.283,1156.54 L 603.213,1156.54 L 594.142,1156.54 L 585.071,1156.54 L 576,1156.54 L 566.929,1156.54 L 557.858,1156.54 L 548.787,1156.54 L 539.717,1156.54 L 530.646,1156.54 L 521.575,1156.54 L 512.504,1156.54 L 503.433,1156.54 L 494.362,1156.54 L 485.291,1156.54 L 476.22,1156.54 L 467.15,1156.54 L 458.079,1156.54 L 449.008,1156.54 L 439.937,1156.54 L 430.866,1156.54 L 421.795,1156.54 L 412.724,1156.54 L 403.654,1156.54 L 394.583,1156.54 L 385.512,1156.54 L 376.441,1156.54 L 367.37,1156.54 L 358.299,1156.54 L 349.228,1156.54 L 340.157,1156.54 L 331.087,1156.54 L 322.016,1156.54 L 312.945,1156.54 L 303.874,1156.54 L 294.803,1156.54 L 285.732,1156.54 L 276.661,1156.54 L 267.591,1156.54 L 258.52,1156.54 L 249.449,1156.54 L 240.378,1156.54 L 231.307,1156.54 L 222.236,1156.54 L 213.165,1156.54 L 204.094,1156.54 L 195.024,1156.54 L 185.953,1156.54 L 176.882,1156.54 L 167.811,1156.54 L 158.74,1156.54 L 149.669,1156.54 L 140.598,1156.54 L 131.528,1156.54 L 122.457,1156.54 L 113.386,1156.54 L 104.315,1156.54 L 95.2441,1156.54 L 86.1732,1156.54 L 77.1024,1156.54 L 68.0315,1156.54 L 58.9606,1156.54 L 49.8898,1156.54 L 40.8189,1156.54 L 31.748,1156.54 L 22.6772,1156.54 L 13.6063,1156.54 L 4.53543,1156.54 L 4.53543,1147.46 L 4.53543,1138.39 L 4.53543,1129.32 L 4.53543,1120.25 L 4.53543,1111.18 L 4.53543,1102.11 L 4.53543,1093.04 L 4.53543,1083.97 L 4.53543,1074.9 L 4.53543,1065.83 L 4.53543,1056.76 L 4.53543,1047.69 L 4.53543,1038.61 L 4.53543,1029.54 L 4.53543,1020.47 L 4.53543,1011.4 L 4.53543,1002.33 L 4.53543,993.26 L 4.53543,984.189 L 4.53543,975.118 L 4.53543,966.047 L 4.53543,956.976 L 4.53543,947.906 L 4.53543,938.835 L 4.53543,929.764 L 4.53543,920.693 L 4.53543,911.622 L 4.53543,902.551 L 4.53543,893.48 L 13.6063,893.48 L 22.6772,902.551 L 31.748,902.551 L 40.8189,902.551 L 49.8898,902.551 L 58.9606,902.551 L 68.0315,902.551 L 77.1024,902.551 L 86.1732,902.551 L 95.2441,902.551 L 104.315,902.551 L 113.386,902.551 L 122.457,902.551 L 131.528,902.551 L 140.598,911.622 L 149.669,920.693 L 158.74,920.693 L 167.811,911.622 L 167.811,902.551 L 176.882,893.48 L 185.953,884.409 L 185.953,875.339 L 195.024,866.268 L 204.094,857.197 L 204.094,848.126 L 213.165,839.055 L 222.236,829.984 L 231.307,829.984 L 240.378,820.913 L 240.378,811.843 L 240.378,802.772 L 240.378,793.701 L 249.449,784.63 L 258.52,775.559 L 258.52,766.488 L 258.52,757.417 L 258.52,748.346 L 258.52,739.276 L 258.52,730.205 L 258.52,721.134 L 249.449,712.063 L 240.378,712.063 L 240.378,702.992 L 240.378,693.921 L 231.307,684.85 L 222.236,684.85 L 222.236,675.78 L 222.236,666.709 L 222.236,657.638 L 222.236,648.567 L 222.236,639.496 L 231.307,630.425 L 222.236,621.354 L 213.165,621.354 L 204.094,621.354 L 195.024,612.283 L 185.953,612.283 L 176.882,621.354 L 176.882,630.425 L 167.811,630.425 L 158.74,630.425 L 149.669,630.425 L 140.598,621.354 L 131.528,621.354 L 122.457,612.283 L 113.386,612.283 L 104.315,612.283 L 95.2441,612.283 L 86.1732,603.213 L 86.1732,594.142 L 95.2441,594.142 L 104.315,594.142 L 113.386,585.071 L 122.457,585.071 L 131.528,576 L 140.598,576 L 149.669,566.929 L 158.74,566.929 L 158.74,576 L 167.811,585.071 L 176.882,585.071 L 185.953,585.071 L 195.024,585.071 L 204.094,576 L 213.165,576 L 222.236,576 L 231.307,576 L 240.378,585.071 L 249.449,585.071 L 258.52,576 L 258.52,566.929 L 267.591,566.929 L 276.661,557.858 L 285.732,557.858 L 294.803,548.787 z " style="fill-opacity:0.5;fill:rgb(253,0,0);stroke:rgb(253,0,0);stroke-width:2"/></g>
<g fill-rule="evenodd"><path d="M 1156.54,1156.54 L 1138.39,1138.39 L 1047.69,1147.46 L 1029.54,1129.32 L 1029.54,1111.18 L 1047.69,1102.11 L 1029.54,1056.76 L 1011.4,1065.83 L 1011.4,1111.18 L 984.189,1129.32 L 1002.33,1147.46 L 993.26,1156.54 L 839.055,1156.54 L 829.984,1111.18 L 811.843,1093.04 L 829.984,1083.97 L 829.984,1047.69 L 848.126,1038.61 L 848.126,1020.47 L 811.843,1002.33 L 748.346,1020.47 L 739.276,1065.83 L 666.709,1083.97 L 675.78,1111.18 L 657.638,1120.25 L 648.567,1156.54 L 476.22,1156.54 L 467.15,1138.39 L 503.433,1102.11 L 503.433,1065.83 L 539.717,1047.69 L 521.575,1029.54 L 585.071,1011.4 L 557.858,975.118 L 539.717,975.118 L 539.717,993.26 L 503.433,984.189 L 494.362,1002.33 L 467.15,975.118 L 412.724,984.189 L 394.583,956.976 L 403.654,938.835 L 385.512,938.835 L 376.441,956.976 L 385.512,984.189 L 439.937,1011.4 L 421.795,1029.54 L 439.937,1056.76 L 403.654,1074.9 L 394.583,1102.11 L 312.945,1129.32 L 303.874,1102.11 L 213.165,1056.76 L 213.165,1011.4 L 240.378,975.118 L 267.591,966.047 L 276.661,929.764 L 367.37,929.764 L 312.945,929.764 L 285.732,902.551 L 322.016,884.409 L 322.016,866.268 L 358.299,829.984 L 340.157,802.772 L 430.866,757.417 L 412.724,739.276 L 412.724,702.992 L 367.37,693.921 L 340.157,666.709 L 294.803,666.709 L 267.591,639.496 L 249.449,612.283 L 294.803,576 L 322.016,576 L 303.874,548.787 L 258.52,566.929 L 249.449,585.071 L 167.811,585.071 L 149.669,566.929 L 86.1732,594.142 L 95.2441,612.283 L 149.669,630.425 L 176.882,630.425 L 185.953,612.283 L 231.307,630.425 L 222.236,684.85 L 258.52,721.134 L 258.52,775.559 L 240.378,793.701 L 240.378,820.913 L 204.094,848.126 L 158.74,920.693 L 131.528,902.551 L 4.53543,893.48 L 4.53543,1156.54 L 1156.54,1156.54 z " style="fill-opacity:0.5;fill:rgb(0,253,0);stroke:rgb(0,0,0);stroke-width:5"/></g>
<g fill-rule="evenodd"><path d="M 648.567,548.787 L 657.638,548.787 L 657.638,557.858 L 657.638,566.929 L 648.567,566.929 L 639.496,576 L 630.425,576 L 621.354,566.929 L 621.354,557.858 L 630.425,557.858 L 639.496,557.858 L 648.567,548.787 z " style="fill-opacity:0.5;fill:rgb(253,0,0);stroke:rgb(253,0,0);stroke-width:2"/></g>
<g fill-rule="evenodd"><path d="M 621.354,566.929 L 639.496,576 L 657.638,566.929 L 657.638,548.787 L 621.354,566.929 z " style="fill-opacity:0.5;fill:rgb(0,253,0);stroke:rgb(0,0,0);stroke-width:5"/></g>
<g fill-rule="evenodd"><path d="M 539.717,566.929 L 548.787,566.929 L 557.858,576 L 566.929,576 L 576,576 L 576,585.071 L 576,594.142 L 566.929,594.142 L 557.858,594.142 L 548.787,585.071 L 539.717,585.071 L 539.717,576 L 539.717,566.929 z " style="fill-opacity:0.5;fill:rgb(253,0,0);stroke:rgb(253,0,0);stroke-width:2"/></g>
<g fill-rule="evenodd"><path d="M 576,594.142 L 576,576 L 539.717,566.929 L 539.717,585.071 L 576,594.142 z " style="fill-opacity:0.5;fill:rgb(0,253,0);stroke:rgb(0,0,0);stroke-width:5"/></g>
<g fill-rule="evenodd"><path d="M 1002.33,576 L 1011.4,576 L 1011.4,585.071 L 1011.4,594.142 L 1002.33,594.142 L 993.26,603.213 L 993.26,612.283 L 993.26,621.354 L 993.26,630.425 L 993.26,639.496 L 993.26,648.567 L 1002.33,657.638 L 1011.4,657.638 L 1020.47,657.638 L 1029.54,657.638 L 1038.61,648.567 L 1047.69,648.567 L 1056.76,648.567 L 1065.83,648.567 L 1074.9,657.638 L 1083.97,657.638 L 1093.04,657.638 L 1102.11,657.638 L 1111.18,648.567 L 1120.25,648.567 L 1129.32,648.567 L 1138.39,648.567 L 1147.46,648.567 L 1156.54,648.567 L 1156.54,657.638 L 1156.54,666.709 L 1156.54,675.78 L 1156.54,684.85 L 1156.54,693.921 L 1156.54,702.992 L 1156.54,712.063 L 1156.54,721.134 L 1156.54,730.205 L 1156.54,739.276 L 1156.54,748.346 L 1156.54,757.417 L 1156.54,766.488 L 1156.54,775.559 L 1156.54,784.63 L 1156.54,793.701 L 1156.54,802.772 L 1156.54,811.843 L 1156.54,820.913 L 1147.46,820.913 L 1138.39,820.913 L 1129.32,820.913 L 1120.25,820.913 L 1111.18,820.913 L 1102.11,811.843 L 1093.04,811.843 L 1083.97,811.843 L 1074.9,811.843 L 1065.83,811.843 L 1056.76,811.843 L 1047.69,811.843 L 1038.61,811.843 L 1029.54,820.913 L 1020.47,820.913 L 1011.4,829.984 L 1002.33,829.984 L 993.26,839.055 L 984.189,839.055 L 975.118,839.055 L 966.047,839.055 L 956.976,848.126 L 956.976,857.197 L 947.906,857.197 L 938.835,866.268 L 929.764,866.268 L 920.693,875.339 L 929.764,884.409 L 938.835,893.48 L 938.835,902.551 L 938.835,911.622 L 938.835,920.693 L 929.764,920.693 L 920.693,929.764 L 929.764,938.835 L 938.835,947.906 L 938.835,956.976 L 938.835,966.047 L 938.835,975.118 L 938.835,984.189 L 938.835,993.26 L 947.906,1002.33 L 956.976,1011.4 L 956.976,1020.47 L 966.047,1029.54 L 975.118,1038.61 L 984.189,1047.69 L 993.26,1047.69 L 1002.33,1038.61 L 1002.33,1029.54 L 1011.4,1029.54 L 1002.33,1038.61 L 1002.33,1047.69 L 993.26,1056.76 L 984.189,1056.76 L 975.118,1056.76 L 966.047,1056.76 L 956.976,1047.69 L 947.906,1047.69 L 947.906,1038.61 L 947.906,1029.54 L 938.835,1020.47 L 929.764,1020.47 L 920.693,1011.4 L 920.693,1002.33 L 911.622,993.26 L 911.622,984.189 L 911.622,975.118 L 911.622,966.047 L 911.622,956.976 L 911.622,947.906 L 911.622,938.835 L 902.551,929.764 L 893.48,929.764 L 893.48,920.693 L 893.48,911.622 L 884.409,902.551 L 875.339,902.551 L 875.339,893.48 L 875.339,884.409 L 866.268,875.339 L 857.197,875.339 L 857.197,866.268 L 857.197,857.197 L 848.126,848.126 L 839.055,848.126 L 829.984,848.126 L 820.913,848.126 L 811.843,848.126 L 802.772,848.126 L 793.701,839.055 L 793.701,829.984 L 802.772,839.055 L 811.843,839.055 L 820.913,839.055 L 829.984,839.055 L 839.055,839.055 L 848.126,839.055 L 857.197,829.984 L 866.268,829.984 L 875.339,820.913 L 875.339,811.843 L 875.339,802.772 L 875.339,793.701 L 866.268,784.63 L 857.197,784.63 L 857.197,775.559 L 857.197,766.488 L 857.197,757.417 L 857.197,748.346 L 857.197,739.276 L 857.197,730.205 L 848.126,721.134 L 839.055,721.134 L 829.984,721.134 L 820.913,721.134 L 811.843,721.134 L 802.772,721.134 L 793.701,712.063 L 784.63,712.063 L 775.559,712.063 L 766.488,712.063 L 766.488,702.992 L 775.559,702.992 L 784.63,693.921 L 784.63,684.85 L 793.701,684.85 L 802.772,675.78 L 802.772,666.709 L 802.772,657.638 L 802.772,648.567 L 802.772,639.496 L 811.843,630.425 L 820.913,630.425 L 829.984,630.425 L 839.055,630.425 L 848.126,630.425 L 857.197,630.425 L 866.268,639.496 L 875.339,648.567 L 884.409,648.567 L 893.48,648.567 L 902.551,648.567 L 911.622,648.567 L 920.693,648.567 L 929.764,648.567 L 938.835,648.567 L 947.906,657.638 L 956.976,648.567 L 966.047,639.496 L 966.047,630.425 L 966.047,621.354 L 975.118,612.283 L 975.118,603.213 L 984.189,603.213 L 993.26,594.142 L 993.26,585.071 L 1002.33,576 z " style="fill-opacity:0.5;fill:rgb(253,0,0);stroke:rgb(253,0,0);stroke-width:2"/></g>
<g fill-rule="evenodd"><path d="M 966.047,1056.76 L 993.26,1056.76 L 1011.4,1029.54 L 984.189,1047.69 L 938.835,993.26 L 938.835,947.906 L 920.693,929.764 L 938.835,920.693 L 938.835,893.48 L 920.693,875.339 L 966.047,839.055 L 993.26,839.055 L 1038.61,811.843 L 1156.54,820.913 L 1156.54,648.567 L 1002.33,657.638 L 993.26,603.213 L 1011.4,594.142 L 1011.4,576 L 975.118,603.213 L 947.906,657.638 L 811.843,630.425 L 802.772,675.78 L 766.488,702.992 L 857.197,730.205 L 857.197,784.63 L 875.339,793.701 L 875.339,820.913 L 848.126,839.055 L 793.701,839.055 L 857.197,857.197 L 857.197,875.339 L 911.622,938.835 L 920.693,1011.4 L 966.047,1056.76 z " style="fill-opacity:0.5;fill:rgb(0,253,0);stroke:rgb(0,0,0);stroke-width:5"/></g>
<g fill-rule="evenodd"><path d="M 4.53543,594.142 L 13.6063,594.142 L 13.6063,603.213 L 22.6772,612.283 L 31.748,612.283 L 40.8189,612.283 L 49.8898,612.283 L 58.9606,612.283 L 68.0315,612.283 L 77.1024,621.354 L 86.1732,630.425 L 86.1732,639.496 L 77.1024,648.567 L 68.0315,639.496 L 58.9606,639.496 L 49.8898,630.425 L 40.8189,630.425 L 31.748,630.425 L 22.6772,630.425 L 13.6063,630.425 L 4.53543,630.425 L 4.53543,621.354 L 4.53543,612.283 L 4.53543,603.213 L 4.53543,594.142 z " style="fill-opacity:0.5;fill:rgb(253,0,0);stroke:rgb(253,0,0);stroke-width:2"/></g>
<g fill-rule="evenodd"><path d="M 86.1732,639.496 L 68.0315,612.283 L 22.6772,612.283 L 4.53543,594.142 L 4.53543,630.425 L 49.8898,630.425 L 77.1024,648.567 L 86.1732,639.496 z " style="fill-opacity:0.5;fill:rgb(0,253,0);stroke:rgb(0,0,0);stroke-width:5"/></g>
<g fill-rule="evenodd"><path d="M 603.213,621.354 L 612.283,621.354 L 621.354,621.354 L 630.425,621.354 L 630.425,630.425 L 630.425,639.496 L 630.425,648.567 L 621.354,657.638 L 612.283,657.638 L 603.213,657.638 L 603.213,648.567 L 603.213,639.496 L 603.213,630.425 L 603.213,621.354 z " style="fill-opacity:0.5;fill:rgb(253,0,0);stroke:rgb(253,0,0);stroke-width:2"/></g>
<g fill-rule="evenodd"><path d="M 621.354,657.638 L 630.425,621.354 L 603.213,621.354 L 603.213,657.638 L 621.354,657.638 z " style="fill-opacity:0.5;fill:rgb(0,253,0);stroke:rgb(0,0,0);stroke-width:5"/></g>
<g fill-rule="evenodd"><path d="M 612.283,820.913 L 621.354,820.913 L 630.425,820.913 L 639.496,820.913 L 648.567,820.913 L 657.638,820.913 L 666.709,820.913 L 675.78,829.984 L 684.85,829.984 L 693.921,839.055 L 702.992,848.126 L 702.992,857.197 L 712.063,866.268 L 721.134,866.268 L 730.205,866.268 L 739.276,866.268 L 748.346,866.268 L 757.417,875.339 L 766.488,866.268 L 766.488,857.197 L 757.417,848.126 L 766.488,848.126 L 775.559,848.126 L 784.63,857.197 L 784.63,866.268 L 775.559,875.339 L 775.559,884.409 L 775.559,893.48 L 766.488,893.48 L 757.417,902.551 L 748.346,902.551 L 739.276,911.622 L 730.205,911.622 L 721.134,920.693 L 712.063,920.693 L 702.992,929.764 L 693.921,929.764 L 684.85,938.835 L 675.78,938.835 L 666.709,938.835 L 657.638,938.835 L 648.567,929.764 L 648.567,920.693 L 639.496,911.622 L 630.425,902.551 L 621.354,902.551 L 612.283,893.48 L 603.213,893.48 L 603.213,884.409 L 594.142,875.339 L 585.071,875.339 L 576,875.339 L 566.929,875.339 L 557.858,866.268 L 548.787,866.268 L 548.787,857.197 L 557.858,857.197 L 566.929,848.126 L 576,848.126 L 585.071,848.126 L 594.142,848.126 L 603.213,839.055 L 603.213,829.984 L 612.283,820.913 z " style="fill-opacity:0.5;fill:rgb(253,0,0);stroke:rgb(253,0,0);stroke-width:2"/></g>
<g fill-rule="evenodd"><path d="M 775.559,893.48 L 775.559,848.126 L 757.417,848.126 L 757.417,875.339 L 712.063,866.268 L 666.709,820.913 L 612.283,820.913 L 594.142,848.126 L 548.787,857.197 L 566.929,875.339 L 594.142,875.339 L 657.638,938.835 L 684.85,938.835 L 775.559,893.48 z " style="fill-opacity:0.5;fill:rgb(0,253,0);stroke:rgb(0,0,0);stroke-width:5"/></g>
</svg>
