<?xml version="1.0" standalone="no"?>
<!DOCTYPE svg PUBLIC "-//W3C//DTD SVG 1.1//EN"
"http://www.w3.org/Graphics/SVG/1.1/DTD/svg11.dtd">
<svg width="100%" height="100%" version="1.1"
xmlns="http://www.w3.org/2000/svg"
xmlns:xlink="http://www.w3.org/1999/xlink">
<g fill-rule="evenodd"><path d="M 5.03937,5.03937 L 15.1181,5.03937 L 25.1969,5.03937 L 35.2756,5.03937 L 45.3543,5.03937 L 55.4331,5.03937 L 65.5118,5.03937 L 75.5906,5.03937 L 85.6693,5.03937 L 95.748,5.03937 L 105.827,5.03937 L 115.906,5.03937 L 125.984,5.03937 L 136.063,5.03937 L 146.142,5.03937 L 156.22,5.03937 L 166.299,5.03937 L 176.378,5.03937 L 186.457,5.03937 L 196.535,5.03937 L 206.614,5.03937 L 216.693,5.03937 L 226.772,5.03937 L 236.85,5.03937 L 246.929,5.03937 L 257.008,5.03937 L 267.087,5.03937 L 277.165,5.03937 L 287.244,5.03937 L 297.323,5.03937 L 307.402,5.03937 L 317.48,5.03937 L 327.559,5.03937 L 337.638,5.03937 L 347.717,5.03937 L 357.795,5.03937 L 367.874,5.03937 L 377.953,5.03937 L 388.031,5.03937 L 398.11,5.03937 L 408.189,5.03937 L 418.268,5.03937 L 428.346,5.03937 L 438.425,5.03937 L 448.504,5.03937 L 458.583,5.03937 L 468.661,5.03937 L 478.74,5.03937 L 488.819,5.03937 L 498.898,5.03937 L 508.976,5.03937 L 519.055,5.03937 L 529.134,5.03937 L 539.213,5.03937 L 529.134,5.03937 L 519.055,15.1181 L 519.055,25.1969 L 519.055,35.2756 L 519.055,45.3543 L 519.055,55.4331 L 508.976,55.4331 L 498.898,65.5118 L 508.976,75.5906 L 519.055,85.6693 L 519.055,95.748 L 529.134,105.827 L 539.213,115.906 L 539.213,125.984 L 539.213,136.063 L 539.213,146.142 L 549.291,156.22 L 559.37,166.299 L 559.37,176.378 L 569.449,186.457 L 579.528,196.535 L 579.528,206.614 L 589.606,216.693 L 599.685,226.772 L 609.764,226.772 L 619.843,216.693 L 629.921,216.693 L 640,216.693 L 650.079,226.772 L 660.157,226.772 L 670.236,226.772 L 680.315,226.772 L 690.394,226.772 L 700.472,236.85 L 710.551,236.85 L 720.63,226.772 L 730.709,216.693 L 740.787,216.693 L 750.866,216.693 L 760.945,226.772 L 771.024,236.85 L 781.102,236.85 L 791.181,226.772 L 801.26,226.772 L 811.339,216.693 L 821.417,216.693 L 831.496,206.614 L 841.575,206.614 L 851.654,206.614 L 861.732,216.693 L 871.811,206.614 L 871.811,196.535 L 881.89,186.457 L 891.969,176.378 L 891.969,166.299 L 902.047,156.22 L 912.126,146.142 L 902.047,136.063 L 891.969,136.063 L 881.89,125.984 L 871.811,125.984 L 871.811,115.906 L 871.811,105.827 L 871.811,95.748 L 871.811,85.6693 L 871.811,75.5906 L 861.732,65.5118 L 871.811,65.5118 L 881.89,65.5118 L 891.969,75.5906 L 891.969,85.6693 L 902.047,95.748 L 902.047,105.827 L 902.047,115.906 L 912.126,125.984 L 922.205,125.984 L 932.283,125.984 L 942.362,136.063 L 952.441,136.063 L 952.441,146.142 L 942.362,146.142 L 932.283,146.142 L 922.205,156.22 L 922.205,166.299 L 922.205,176.378 L 912.126,176.378 L 902.047,186.457 L 902.047,196.535 L 902.047,206.614 L 902.047,216.693 L 902.047,226.772 L 891.969,226.772 L 881.89,236.85 L 871.811,236.85 L 861.732,246.929 L 851.654,246.929 L 841.575,257.008 L 851.654,267.087 L 851.654,277.165 L 841.575,287.244 L 831.496,287.244 L 821.417,277.165 L 811.339,277.165 L 801.26,267.087 L 791.181,267.087 L 781.102,267.087 L 771.024,267.087 L 760.945,267.087 L 750.866,267.087 L 740.787,277.165 L 740.787,287.244 L 730.709,287.244 L 720.63,297.323 L 720.63,307.402 L 720.63,317.48 L 710.551,317.48 L 700.472,327.559 L 700.472,337.638 L 700.472,347.717 L 690.394,357.795 L 680.315,357.795 L 670.236,357.795 L 660.157,357.795 L 650.079,367.874 L 650.079,377.953 L 660.157,388.031 L 660.157,398.11 L 650.079,398.11 L 640,398.11 L 629.921,398.11 L 619.843,388.031 L 629.921,377.953 L 619.843,367.874 L 609.764,367.874 L 599.685,377.953 L 589.606,377.953 L 579.528,377.953 L 569.449,377.953 L 559.37,377.953 L 549.291,367.874 L 539.213,367.874 L 529.134,357.795 L 529.134,347.717 L 539.213,347.717 L 549.291,337.638 L 549.291,327.559 L 549.291,317.48 L 549.291,307.402 L 539.213,297.323 L 529.134,297.323 L 529.134,287.244 L 529.134,277.165 L 519.055,267.087 L 508.976,267.087 L 519.055,257.008 L 519.055,246.929 L 508.976,236.85 L 508.976,226.772 L 498.898,216.693 L 488.819,216.693 L 478.74,206.614 L 468.661,206.614 L 458.583,196.535 L 448.504,196.535 L 438.425,206.614 L 438.425,216.693 L 428.346,216.693 L 418.268,226.772 L 408.189,226.772 L 398.11,216.693 L 398.11,206.614 L 408.189,196.535 L 408.189,186.457 L 408.189,176.378 L 408.189,166.299 L 408.189,156.22 L 398.11,146.142 L 388.031,146.142 L 388.031,136.063 L 388.031,125.984 L 388.031,115.906 L 388.031,105.827 L 377.953,95.748 L 367.874,95.748 L 357.795,85.6693 L 347.717,85.6693 L 337.638,75.5906 L 327.559,75.5906 L 317.48,65.5118 L 307.402,65.5118 L 297.323,65.5118 L 287.244,65.5118 L 277.165,75.5906 L 267.087,75.5906 L 257.008,75.5906 L 246.929,75.5906 L 236.85,75.5906 L 226.772,75.5906 L 216.693,85.6693 L 206.614,85.6693 L 196.535,95.748 L 186.457,95.748 L 176.378,105.827 L 176.378,115.906 L 176.378,125.984 L 176.378,136.063 L 176.378,146.142 L 166.299,146.142 L 156.22,156.22 L 156.22,166.299 L 156.22,176.378 L 156.22,186.457 L 166.299,196.535 L 176.378,196.535 L 186.457,206.614 L 196.535,206.614 L 196.535,216.693 L 196.535,226.772 L 206.614,236.85 L 216.693,236.85 L 216.693,246.929 L 216.693,257.008 L 226.772,267.087 L 236.85,267.087 L 246.929,267.087 L 257.008,267.087 L 267.087,257.008 L 277.165,257.008 L 287.244,246.929 L 297.323,246.929 L 307.402,246.929 L 317.48,246.929 L 327.559,246.929 L 337.638,246.929 L 347.717,236.85 L 357.795,236.85 L 367.874,226.772 L 377.953,226.772 L 388.031,236.85 L 398.11,246.929 L 398.11,257.008 L 388.031,257.008 L 377.953,257.008 L 367.874,257.008 L 357.795,257.008 L 347.717,257.008 L 337.638,267.087 L 327.559,267.087 L 317.48,267.087 L 307.402,267.087 L 297.323,277.165 L 297.323,287.244 L 297.323,297.323 L 297.323,307.402 L 287.244,307.402 L 277.165,317.48 L 267.087,327.559 L 267.087,337.638 L 257.008,347.717 L 246.929,347.717 L 236.85,347.717 L 226.772,347.717 L 216.693,337.638 L 206.614,337.638 L 206.614,327.559 L 206.614,317.48 L 196.535,307.402 L 186.457,317.48 L 186.457,327.559 L 176.378,327.559 L 176.378,317.48 L 186.457,307.402 L 186.457,297.323 L 186.457,287.244 L 176.378,277.165 L 166.299,277.165 L 166.299,267.087 L 166.299,257.008 L 156.22,246.929 L 146.142,246.929 L 136.063,257.008 L 125.984,257.008 L 115.906,246.929 L 105.827,246.929 L 95.748,236.85 L 85.6693,236.85 L 75.5906,226.772 L 65.5118,226.772 L 55.4331,216.693 L 45.3543,216.693 L 35.2756,206.614 L 25.1969,206.614 L 15.1181,206.614 L 5.03937,206.614 L 5.03937,196.535 L 5.03937,186.457 L 5.03937,176.378 L 5.03937,166.299 L 5.03937,156.22 L 5.03937,146.142 L 5.03937,136.063 L 5.03937,125.984 L 5.03937,115.906 L 5.03937,105.827 L 5.03937,95.748 L 5.03937,85.6693 L 5.03937,75.5906 L 5.03937,65.5118 L 5.03937,55.4331 L 5.03937,45.3543 L 5.03937,35.2756 L 5.03937,25.1969 L 5.03937,15.1181 L 5.03937,5.03937 z " style="fill-opacity:0.5;fill:rgb(253,0,0);stroke:rgb(253,0,0);stroke-width:2"/></g>
<g fill-rule="evenodd"><path d="M 952.441,146.142 L 932.283,146.142 L 902.047,186.457 L 902.047,226.772 L 841.575,257.008 L 841.575,287.244 L 801.26,267.087 L 750.866,267.087 L 700.472,327.559 L 700.472,347.717 L 650.079,367.874 L 660.157,398.11 L 629.921,398.11 L 619.843,367.874 L 559.37,377.953 L 529.134,357.795 L 549.291,337.638 L 549.291,307.402 L 508.976,267.087 L 519.055,246.929 L 498.898,216.693 L 458.583,196.535 L 418.268,226.772 L 398.11,216.693 L 408.189,156.22 L 388.031,146.142 L 377.953,95.748 L 317.48,65.5118 L 226.772,75.5906 L 176.378,105.827 L 176.378,146.142 L 156.22,156.22 L 156.22,186.457 L 196.535,206.614 L 216.693,257.008 L 257.008,267.087 L 367.874,226.772 L 398.11,246.929 L 307.402,267.087 L 297.323,307.402 L 257.008,347.717 L 226.772,347.717 L 206.614,337.638 L 196.535,307.402 L 176.378,327.559 L 186.457,287.244 L 166.299,277.165 L 156.22,246.929 L 125.984,257.008 L 35.2756,206.614 L 5.03937,206.614 L 5.03937,5.03937 L 539.213,5.03937 L 519.055,15.1181 L 519.055,55.4331 L 498.898,65.5118 L 599.685,226.772 L 640,216.693 L 710.551,236.85 L 750.866,216.693 L 781.102,236.85 L 831.496,206.614 L 861.732,216.693 L 912.126,146.142 L 871.811,125.984 L 861.732,65.5118 L 881.89,65.5118 L 902.047,115.906 L 952.441,146.142 z " style="fill-opacity:0.5;fill:rgb(51,51,153);stroke:rgb(0,0,0);stroke-width:5"/></g>
<g fill-rule="evenodd"><path d="M 871.811,5.03937 L 881.89,5.03937 L 871.811,5.03937 z " style="fill-opacity:0.5;fill:rgb(253,0,0);stroke:rgb(253,0,0);stroke-width:2"/></g>
<g fill-rule="evenodd"><path d="M 881.89,5.03937 z " style="fill-opacity:0.5;fill:rgb(51,51,153);stroke:rgb(0,0,0);stroke-width:5"/></g>
<g fill-rule="evenodd"><path d="M 922.205,5.03937 L 932.283,5.03937 L 942.362,5.03937 L 942.362,15.1181 L 952.441,25.1969 L 962.52,25.1969 L 962.52,35.2756 L 962.52,45.3543 L 962.52,55.4331 L 952.441,55.4331 L 942.362,65.5118 L 932.283,65.5118 L 922.205,65.5118 L 912.126,65.5118 L 902.047,55.4331 L 902.047,45.3543 L 912.126,55.4331 L 922.205,55.4331 L 932.283,45.3543 L 932.283,35.2756 L 922.205,25.1969 L 912.126,25.1969 L 912.126,15.1181 L 922.205,5.03937 z " style="fill-opacity:0.5;fill:rgb(253,0,0);stroke:rgb(253,0,0);stroke-width:2"/></g>
<g fill-rule="evenodd"><path d="M 962.52,55.4331 L 912.126,65.5118 L 902.047,45.3543 L 932.283,45.3543 L 912.126,15.1181 L 942.362,5.03937 L 962.52,25.1969 L 962.52,55.4331 z " style="fill-opacity:0.5;fill:rgb(51,51,153);stroke:rgb(0,0,0);stroke-width:5"/></g>
<g fill-rule="evenodd"><path d="M 1083.46,5.03937 L 1093.54,5.03937 L 1103.62,5.03937 L 1113.7,5.03937 L 1123.78,5.03937 L 1133.86,5.03937 L 1143.94,5.03937 L 1154.02,5.03937 L 1164.09,5.03937 L 1174.17,5.03937 L 1184.25,5.03937 L 1194.33,5.03937 L 1204.41,5.03937 L 1214.49,5.03937 L 1224.57,5.03937 L 1234.65,5.03937 L 1244.72,5.03937 L 1254.8,5.03937 L 1264.88,5.03937 L 1274.96,5.03937 L 1285.04,5.03937 L 1285.04,15.1181 L 1285.04,25.1969 L 1285.04,35.2756 L 1274.96,45.3543 L 1274.96,55.4331 L 1285.04,65.5118 L 1285.04,75.5906 L 1285.04,85.6693 L 1285.04,95.748 L 1285.04,105.827 L 1285.04,115.906 L 1285.04,125.984 L 1285.04,136.063 L 1285.04,146.142 L 1285.04,156.22 L 1285.04,166.299 L 1285.04,176.378 L 1285.04,186.457 L 1285.04,196.535 L 1285.04,206.614 L 1285.04,216.693 L 1285.04,226.772 L 1285.04,236.85 L 1285.04,246.929 L 1285.04,257.008 L 1285.04,267.087 L 1285.04,277.165 L 1285.04,287.244 L 1285.04,297.323 L 1285.04,307.402 L 1285.04,317.48 L 1285.04,327.559 L 1274.96,317.48 L 1264.88,317.48 L 1254.8,327.559 L 1244.72,327.559 L 1234.65,317.48 L 1224.57,317.48 L 1214.49,327.559 L 1204.41,327.559 L 1194.33,317.48 L 1194.33,307.402 L 1184.25,297.323 L 1174.17,287.244 L 1164.09,297.323 L 1174.17,287.244 L 1174.17,277.165 L 1164.09,267.087 L 1154.02,277.165 L 1143.94,277.165 L 1133.86,267.087 L 1123.78,267.087 L 1113.7,257.008 L 1103.62,257.008 L 1093.54,246.929 L 1083.46,246.929 L 1073.39,246.929 L 1073.39,236.85 L 1073.39,226.772 L 1063.31,216.693 L 1053.23,206.614 L 1043.15,206.614 L 1033.07,206.614 L 1033.07,196.535 L 1033.07,186.457 L 1033.07,176.378 L 1033.07,166.299 L 1033.07,156.22 L 1033.07,146.142 L 1043.15,146.142 L 1053.23,136.063 L 1063.31,136.063 L 1073.39,136.063 L 1083.46,136.063 L 1093.54,146.142 L 1103.62,136.063 L 1103.62,125.984 L 1103.62,115.906 L 1113.7,105.827 L 1113.7,95.748 L 1123.78,85.6693 L 1123.78,75.5906 L 1123.78,65.5118 L 1123.78,55.4331 L 1113.7,45.3543 L 1103.62,35.2756 L 1103.62,25.1969 L 1093.54,15.1181 L 1083.46,5.03937 z " style="fill-opacity:0.5;fill:rgb(253,0,0);stroke:rgb(253,0,0);stroke-width:2"/></g>
<g fill-rule="evenodd"><path d="M 1285.04,327.559 L 1204.41,327.559 L 1174.17,287.244 L 1164.09,297.323 L 1164.09,267.087 L 1143.94,277.165 L 1073.39,246.929 L 1073.39,226.772 L 1033.07,206.614 L 1033.07,146.142 L 1093.54,146.142 L 1123.78,85.6693 L 1123.78,55.4331 L 1083.46,5.03937 L 1285.04,5.03937 L 1285.04,327.559 z " style="fill-opacity:0.5;fill:rgb(51,51,153);stroke:rgb(0,0,0);stroke-width:5"/></g>
<g fill-rule="evenodd"><path d="M 5.03937,257.008 L 15.1181,257.008 L 25.1969,257.008 L 35.2756,257.008 L 45.3543,267.087 L 55.4331,267.087 L 55.4331,277.165 L 55.4331,287.244 L 45.3543,287.244 L 35.2756,287.244 L 25.1969,277.165 L 15.1181,277.165 L 5.03937,287.244 L 5.03937,277.165 L 5.03937,267.087 L 5.03937,257.008 z " style="fill-opacity:0.5;fill:rgb(253,0,0);stroke:rgb(253,0,0);stroke-width:2"/></g>
<g fill-rule="evenodd"><path d="M 55.4331,287.244 L 5.03937,287.244 L 5.03937,257.008 L 55.4331,267.087 L 55.4331,287.244 z " style="fill-opacity:0.5;fill:rgb(51,51,153);stroke:rgb(0,0,0);stroke-width:5"/></g>
<g fill-rule="evenodd"><path d="M 871.811,287.244 L 881.89,287.244 L 891.969,297.323 L 902.047,297.323 L 912.126,307.402 L 922.205,307.402 L 922.205,317.48 L 922.205,327.559 L 932.283,337.638 L 942.362,337.638 L 952.441,337.638 L 962.52,337.638 L 972.598,337.638 L 982.677,337.638 L 992.756,347.717 L 1002.83,347.717 L 1002.83,357.795 L 992.756,357.795 L 982.677,367.874 L 982.677,377.953 L 992.756,388.031 L 1002.83,388.031 L 1012.91,388.031 L 1012.91,398.11 L 1002.83,408.189 L 992.756,408.189 L 982.677,418.268 L 982.677,428.346 L 972.598,428.346 L 962.52,438.425 L 962.52,448.504 L 962.52,458.583 L 962.52,468.661 L 962.52,478.74 L 962.52,488.819 L 962.52,498.898 L 952.441,508.976 L 952.441,519.055 L 952.441,529.134 L 942.362,539.213 L 932.283,539.213 L 922.205,539.213 L 912.126,539.213 L 902.047,539.213 L 891.969,539.213 L 891.969,529.134 L 891.969,519.055 L 891.969,508.976 L 891.969,498.898 L 881.89,488.819 L 871.811,488.819 L 861.732,478.74 L 851.654,478.74 L 851.654,468.661 L 851.654,458.583 L 851.654,448.504 L 861.732,438.425 L 871.811,428.346 L 881.89,428.346 L 891.969,418.268 L 902.047,408.189 L 902.047,398.11 L 912.126,398.11 L 922.205,408.189 L 932.283,398.11 L 942.362,388.031 L 932.283,377.953 L 922.205,367.874 L 912.126,367.874 L 912.126,357.795 L 912.126,347.717 L 902.047,337.638 L 891.969,337.638 L 891.969,327.559 L 881.89,317.48 L 871.811,317.48 L 861.732,317.48 L 851.654,317.48 L 851.654,307.402 L 861.732,297.323 L 871.811,287.244 z " style="fill-opacity:0.5;fill:rgb(253,0,0);stroke:rgb(253,0,0);stroke-width:2"/></g>
<g fill-rule="evenodd"><path d="M 942.362,539.213 L 891.969,539.213 L 891.969,498.898 L 851.654,478.74 L 851.654,448.504 L 902.047,398.11 L 922.205,408.189 L 942.362,388.031 L 881.89,317.48 L 851.654,317.48 L 871.811,287.244 L 922.205,307.402 L 932.283,337.638 L 1002.83,347.717 L 982.677,377.953 L 1012.91,398.11 L 962.52,438.425 L 962.52,498.898 L 942.362,539.213 z " style="fill-opacity:0.5;fill:rgb(51,51,153);stroke:rgb(0,0,0);stroke-width:5"/></g>
<g fill-rule="evenodd"><path d="M 5.03937,377.953 L 15.1181,377.953 L 25.1969,377.953 L 35.2756,377.953 L 45.3543,377.953 L 55.4331,377.953 L 65.5118,377.953 L 75.5906,377.953 L 75.5906,388.031 L 75.5906,398.11 L 85.6693,408.189 L 95.748,418.268 L 95.748,428.346 L 105.827,438.425 L 115.906,438.425 L 125.984,448.504 L 136.063,448.504 L 146.142,458.583 L 156.22,458.583 L 166.299,468.661 L 176.378,468.661 L 186.457,478.74 L 196.535,478.74 L 206.614,488.819 L 216.693,498.898 L 206.614,508.976 L 206.614,519.055 L 216.693,529.134 L 206.614,529.134 L 196.535,539.213 L 186.457,539.213 L 176.378,549.291 L 166.299,549.291 L 156.22,549.291 L 146.142,539.213 L 136.063,539.213 L 125.984,539.213 L 125.984,529.134 L 125.984,519.055 L 115.906,508.976 L 105.827,498.898 L 95.748,498.898 L 85.6693,508.976 L 75.5906,508.976 L 65.5118,498.898 L 55.4331,498.898 L 45.3543,508.976 L 35.2756,508.976 L 25.1969,519.055 L 15.1181,519.055 L 5.03937,508.976 L 5.03937,498.898 L 5.03937,488.819 L 5.03937,478.74 L 5.03937,468.661 L 5.03937,458.583 L 5.03937,448.504 L 5.03937,438.425 L 5.03937,428.346 L 5.03937,418.268 L 5.03937,408.189 L 5.03937,398.11 L 5.03937,388.031 L 5.03937,377.953 z " style="fill-opacity:0.5;fill:rgb(253,0,0);stroke:rgb(253,0,0);stroke-width:2"/></g>
<g fill-rule="evenodd"><path d="M 216.693,529.134 L 156.22,549.291 L 125.984,539.213 L 105.827,498.898 L 55.4331,498.898 L 15.1181,519.055 L 5.03937,377.953 L 75.5906,377.953 L 105.827,438.425 L 216.693,498.898 L 216.693,529.134 z " style="fill-opacity:0.5;fill:rgb(51,51,153);stroke:rgb(0,0,0);stroke-width:5"/></g>
<g fill-rule="evenodd"><path d="M 367.874,388.031 L 377.953,388.031 L 388.031,388.031 L 377.953,398.11 L 367.874,408.189 L 377.953,418.268 L 388.031,428.346 L 388.031,438.425 L 377.953,448.504 L 388.031,458.583 L 398.11,458.583 L 408.189,448.504 L 418.268,458.583 L 428.346,468.661 L 438.425,468.661 L 448.504,468.661 L 458.583,478.74 L 448.504,488.819 L 448.504,498.898 L 448.504,508.976 L 458.583,519.055 L 458.583,529.134 L 458.583,539.213 L 458.583,549.291 L 458.583,559.37 L 458.583,569.449 L 448.504,569.449 L 438.425,579.528 L 428.346,579.528 L 418.268,589.606 L 408.189,589.606 L 398.11,599.685 L 388.031,599.685 L 377.953,609.764 L 367.874,609.764 L 357.795,599.685 L 347.717,589.606 L 357.795,579.528 L 347.717,569.449 L 347.717,559.37 L 347.717,549.291 L 337.638,539.213 L 327.559,539.213 L 327.559,529.134 L 327.559,519.055 L 327.559,508.976 L 327.559,498.898 L 327.559,488.819 L 327.559,478.74 L 327.559,468.661 L 337.638,468.661 L 347.717,458.583 L 347.717,448.504 L 347.717,438.425 L 347.717,428.346 L 347.717,418.268 L 357.795,408.189 L 357.795,398.11 L 367.874,388.031M 982.677,398.11 L 972.598,408.189 L 982.677,418.268 L 992.756,408.189 L 982.677,398.11 z " style="fill-opacity:0.5;fill:rgb(253,0,0);stroke:rgb(253,0,0);stroke-width:2"/></g>
<g fill-rule="evenodd"><path d="M 377.953,609.764 L 347.717,589.606 L 347.717,549.291 L 327.559,539.213 L 327.559,468.661 L 347.717,458.583 L 347.717,418.268 L 367.874,388.031 L 388.031,388.031 L 367.874,408.189 L 388.031,428.346 L 377.953,448.504 L 408.189,448.504 L 458.583,478.74 L 458.583,569.449 L 377.953,609.764 z " style="fill-opacity:0.5;fill:rgb(51,51,153);stroke:rgb(0,0,0);stroke-width:5"/></g>
<g fill-rule="evenodd"><path d="M 1133.86,438.425 L 1143.94,438.425 L 1143.94,448.504 L 1143.94,458.583 L 1143.94,468.661 L 1143.94,478.74 L 1154.02,488.819 L 1164.09,488.819 L 1174.17,488.819 L 1184.25,488.819 L 1194.33,488.819 L 1204.41,488.819 L 1214.49,488.819 L 1224.57,488.819 L 1234.65,488.819 L 1244.72,488.819 L 1254.8,488.819 L 1264.88,488.819 L 1274.96,478.74 L 1285.04,478.74 L 1285.04,488.819 L 1285.04,498.898 L 1285.04,508.976 L 1285.04,519.055 L 1274.96,519.055 L 1264.88,519.055 L 1254.8,519.055 L 1244.72,519.055 L 1234.65,519.055 L 1224.57,519.055 L 1214.49,519.055 L 1204.41,519.055 L 1194.33,519.055 L 1184.25,529.134 L 1174.17,529.134 L 1164.09,539.213 L 1154.02,539.213 L 1143.94,549.291 L 1143.94,559.37 L 1143.94,569.449 L 1133.86,569.449 L 1123.78,569.449 L 1113.7,579.528 L 1103.62,589.606 L 1113.7,599.685 L 1113.7,609.764 L 1103.62,619.843 L 1093.54,619.843 L 1083.46,609.764 L 1073.39,609.764 L 1073.39,599.685 L 1083.46,589.606 L 1093.54,589.606 L 1103.62,579.528 L 1113.7,569.449 L 1123.78,559.37 L 1113.7,549.291 L 1123.78,539.213 L 1113.7,529.134 L 1123.78,519.055 L 1123.78,508.976 L 1133.86,498.898 L 1123.78,488.819 L 1113.7,478.74 L 1103.62,478.74 L 1093.54,478.74 L 1093.54,468.661 L 1103.62,458.583 L 1113.7,448.504 L 1123.78,448.504 L 1133.86,438.425 z " style="fill-opacity:0.5;fill:rgb(253,0,0);stroke:rgb(253,0,0);stroke-width:2"/></g>
<g fill-rule="evenodd"><path d="M 1093.54,619.843 L 1073.39,599.685 L 1123.78,559.37 L 1113.7,529.134 L 1133.86,498.898 L 1093.54,478.74 L 1113.7,448.504 L 1143.94,438.425 L 1154.02,488.819 L 1285.04,478.74 L 1285.04,519.055 L 1194.33,519.055 L 1154.02,539.213 L 1093.54,619.843 z " style="fill-opacity:0.5;fill:rgb(51,51,153);stroke:rgb(0,0,0);stroke-width:5"/></g>
<g fill-rule="evenodd"><path d="M 1285.04,539.213 L 1285.04,549.291 L 1285.04,559.37 L 1285.04,569.449 L 1274.96,569.449 L 1264.88,579.528 L 1254.8,579.528 L 1254.8,569.449 L 1254.8,559.37 L 1264.88,549.291 L 1274.96,549.291 L 1285.04,539.213 z " style="fill-opacity:0.5;fill:rgb(253,0,0);stroke:rgb(253,0,0);stroke-width:2"/></g>
<g fill-rule="evenodd"><path d="M 1254.8,579.528 L 1254.8,559.37 L 1285.04,539.213 L 1285.04,569.449 L 1254.8,579.528 z " style="fill-opacity:0.5;fill:rgb(51,51,153);stroke:rgb(0,0,0);stroke-width:5"/></g>
<g fill-rule="evenodd"><path d="M 327.559,609.764 L 337.638,609.764 L 347.717,619.843 L 357.795,629.921 L 357.795,640 L 347.717,640 L 337.638,640 L 327.559,640 L 317.48,650.079 L 317.48,660.157 L 307.402,660.157 L 297.323,670.236 L 287.244,670.236 L 277.165,680.315 L 287.244,690.394 L 297.323,700.472 L 297.323,710.551 L 307.402,720.63 L 317.48,730.709 L 327.559,740.787 L 337.638,740.787 L 347.717,740.787 L 357.795,740.787 L 367.874,740.787 L 377.953,740.787 L 388.031,750.866 L 398.11,750.866 L 398.11,760.945 L 408.189,771.024 L 418.268,771.024 L 428.346,771.024 L 438.425,771.024 L 448.504,781.102 L 458.583,781.102 L 458.583,791.181 L 458.583,801.26 L 458.583,811.339 L 458.583,821.417 L 468.661,831.496 L 478.74,831.496 L 478.74,841.575 L 468.661,851.654 L 458.583,851.654 L 448.504,861.732 L 438.425,861.732 L 428.346,861.732 L 418.268,871.811 L 408.189,871.811 L 398.11,881.89 L 388.031,881.89 L 377.953,891.969 L 377.953,902.047 L 388.031,912.126 L 398.11,912.126 L 398.11,922.205 L 388.031,922.205 L 377.953,932.283 L 377.953,942.362 L 367.874,952.441 L 357.795,962.52 L 357.795,972.598 L 357.795,982.677 L 347.717,982.677 L 337.638,992.756 L 327.559,992.756 L 317.48,1002.83 L 327.559,1012.91 L 337.638,1022.99 L 347.717,1033.07 L 357.795,1033.07 L 367.874,1033.07 L 377.953,1033.07 L 388.031,1033.07 L 398.11,1033.07 L 408.189,1022.99 L 408.189,1033.07 L 398.11,1043.15 L 388.031,1043.15 L 377.953,1043.15 L 367.874,1043.15 L 357.795,1043.15 L 347.717,1043.15 L 337.638,1043.15 L 327.559,1043.15 L 317.48,1033.07 L 307.402,1033.07 L 297.323,1043.15 L 297.323,1053.23 L 297.323,1063.31 L 297.323,1073.39 L 287.244,1073.39 L 277.165,1083.46 L 267.087,1083.46 L 257.008,1093.54 L 257.008,1103.62 L 257.008,1113.7 L 246.929,1113.7 L 236.85,1123.78 L 236.85,1133.86 L 236.85,1143.94 L 236.85,1154.02 L 236.85,1164.09 L 236.85,1174.17 L 246.929,1184.25 L 257.008,1184.25 L 267.087,1194.33 L 277.165,1194.33 L 287.244,1204.41 L 297.323,1204.41 L 307.402,1214.49 L 317.48,1214.49 L 327.559,1224.57 L 337.638,1224.57 L 337.638,1234.65 L 337.638,1244.72 L 347.717,1254.8 L 357.795,1254.8 L 367.874,1254.8 L 377.953,1254.8 L 388.031,1244.72 L 398.11,1244.72 L 408.189,1234.65 L 418.268,1234.65 L 428.346,1224.57 L 438.425,1224.57 L 448.504,1214.49 L 448.504,1204.41 L 448.504,1194.33 L 458.583,1194.33 L 468.661,1184.25 L 478.74,1184.25 L 488.819,1174.17 L 488.819,1164.09 L 478.74,1154.02 L 468.661,1154.02 L 468.661,1143.94 L 478.74,1143.94 L 488.819,1133.86 L 488.819,1123.78 L 478.74,1113.7 L 468.661,1113.7 L 458.583,1103.62 L 448.504,1103.62 L 438.425,1093.54 L 428.346,1093.54 L 428.346,1083.46 L 428.346,1073.39 L 418.268,1063.31 L 418.268,1053.23 L 428.346,1043.15 L 438.425,1043.15 L 448.504,1043.15 L 438.425,1053.23 L 438.425,1063.31 L 448.504,1073.39 L 448.504,1083.46 L 458.583,1093.54 L 468.661,1093.54 L 478.74,1093.54 L 488.819,1093.54 L 498.898,1083.46 L 508.976,1083.46 L 519.055,1083.46 L 529.134,1093.54 L 529.134,1103.62 L 539.213,1113.7 L 549.291,1113.7 L 559.37,1103.62 L 559.37,1093.54 L 569.449,1093.54 L 579.528,1103.62 L 589.606,1103.62 L 599.685,1103.62 L 609.764,1093.54 L 599.685,1083.46 L 609.764,1083.46 L 619.843,1083.46 L 629.921,1093.54 L 629.921,1103.62 L 629.921,1113.7 L 640,1123.78 L 650.079,1123.78 L 650.079,1133.86 L 640,1133.86 L 629.921,1123.78 L 619.843,1133.86 L 609.764,1133.86 L 599.685,1133.86 L 589.606,1133.86 L 579.528,1143.94 L 589.606,1154.02 L 599.685,1154.02 L 599.685,1164.09 L 589.606,1164.09 L 579.528,1174.17 L 569.449,1174.17 L 559.37,1184.25 L 559.37,1194.33 L 559.37,1204.41 L 559.37,1214.49 L 559.37,1224.57 L 549.291,1224.57 L 539.213,1234.65 L 539.213,1244.72 L 539.213,1254.8 L 529.134,1254.8 L 519.055,1264.88 L 519.055,1274.96 L 529.134,1285.04 L 539.213,1285.04 L 549.291,1285.04 L 559.37,1285.04 L 569.449,1285.04 L 579.528,1285.04 L 589.606,1285.04 L 599.685,1285.04 L 609.764,1285.04 L 619.843,1285.04 L 629.921,1285.04 L 640,1285.04 L 650.079,1285.04 L 660.157,1285.04 L 670.236,1285.04 L 680.315,1285.04 L 690.394,1285.04 L 700.472,1285.04 L 710.551,1285.04 L 720.63,1285.04 L 730.709,1274.96 L 730.709,1264.88 L 730.709,1254.8 L 730.709,1244.72 L 740.787,1244.72 L 750.866,1234.65 L 740.787,1224.57 L 740.787,1214.49 L 740.787,1204.41 L 750.866,1204.41 L 760.945,1204.41 L 771.024,1204.41 L 781.102,1204.41 L 791.181,1194.33 L 801.26,1194.33 L 811.339,1184.25 L 821.417,1184.25 L 831.496,1174.17 L 831.496,1164.09 L 831.496,1154.02 L 831.496,1143.94 L 831.496,1133.86 L 841.575,1133.86 L 851.654,1123.78 L 861.732,1123.78 L 871.811,1113.7 L 881.89,1113.7 L 891.969,1113.7 L 902.047,1113.7 L 912.126,1123.78 L 922.205,1123.78 L 932.283,1133.86 L 942.362,1133.86 L 942.362,1143.94 L 942.362,1154.02 L 932.283,1154.02 L 922.205,1164.09 L 922.205,1174.17 L 922.205,1184.25 L 922.205,1194.33 L 922.205,1204.41 L 912.126,1204.41 L 902.047,1214.49 L 912.126,1224.57 L 922.205,1234.65 L 922.205,1244.72 L 922.205,1254.8 L 922.205,1264.88 L 922.205,1274.96 L 932.283,1285.04 L 942.362,1285.04 L 952.441,1285.04 L 962.52,1285.04 L 972.598,1285.04 L 982.677,1285.04 L 992.756,1285.04 L 1002.83,1285.04 L 1012.91,1285.04 L 1022.99,1285.04 L 1033.07,1285.04 L 1043.15,1285.04 L 1053.23,1285.04 L 1063.31,1285.04 L 1073.39,1285.04 L 1083.46,1285.04 L 1093.54,1285.04 L 1103.62,1285.04 L 1113.7,1274.96 L 1103.62,1264.88 L 1093.54,1264.88 L 1093.54,1254.8 L 1103.62,1254.8 L 1113.7,1244.72 L 1123.78,1234.65 L 1123.78,1224.57 L 1133.86,1214.49 L 1133.86,1204.41 L 1123.78,1194.33 L 1123.78,1184.25 L 1133.86,1174.17 L 1143.94,1174.17 L 1143.94,1184.25 L 1143.94,1194.33 L 1154.02,1204.41 L 1164.09,1214.49 L 1164.09,1224.57 L 1154.02,1224.57 L 1143.94,1234.65 L 1143.94,1244.72 L 1143.94,1254.8 L 1154.02,1264.88 L 1164.09,1274.96 L 1174.17,1274.96 L 1184.25,1264.88 L 1194.33,1264.88 L 1204.41,1274.96 L 1214.49,1274.96 L 1224.57,1274.96 L 1234.65,1264.88 L 1244.72,1264.88 L 1254.8,1264.88 L 1264.88,1264.88 L 1274.96,1274.96 L 1285.04,1274.96 L 1285.04,1285.04 L 1274.96,1285.04 L 1264.88,1285.04 L 1254.8,1285.04 L 1244.72,1285.04 L 1234.65,1285.04 L 1224.57,1285.04 L 1214.49,1285.04 L 1204.41,1285.04 L 1194.33,1285.04 L 1184.25,1285.04 L 1174.17,1285.04 L 1164.09,1285.04 L 1154.02,1285.04 L 1143.94,1285.04 L 1133.86,1285.04 L 1123.78,1285.04 L 1113.7,1285.04 L 1103.62,1285.04 L 1093.54,1285.04 L 1083.46,1285.04 L 1073.39,1285.04 L 1063.31,1285.04 L 1053.23,1285.04 L 1043.15,1285.04 L 1033.07,1285.04 L 1022.99,1285.04 L 1012.91,1285.04 L 1002.83,1285.04 L 992.756,1285.04 L 982.677,1285.04 L 972.598,1285.04 L 962.52,1285.04 L 952.441,1285.04 L 942.362,1285.04 L 932.283,1285.04 L 922.205,1285.04 L 912.126,1285.04 L 902.047,1285.04 L 891.969,1285.04 L 881.89,1285.04 L 871.811,1285.04 L 861.732,1285.04 L 851.654,1285.04 L 841.575,1285.04 L 831.496,1285.04 L 821.417,1285.04 L 811.339,1285.04 L 801.26,1285.04 L 791.181,1285.04 L 781.102,1285.04 L 771.024,1285.04 L 760.945,1285.04 L 750.866,1285.04 L 740.787,1285.04 L 730.709,1285.04 L 720.63,1285.04 L 710.551,1285.04 L 700.472,1285.04 L 690.394,1285.04 L 680.315,1285.04 L 670.236,1285.04 L 660.157,1285.04 L 650.079,1285.04 L 640,1285.04 L 629.921,1285.04 L 619.843,1285.04 L 609.764,1285.04 L 599.685,1285.04 L 589.606,1285.04 L 579.528,1285.04 L 569.449,1285.04 L 559.37,1285.04 L 549.291,1285.04 L 539.213,1285.04 L 529.134,1285.04 L 519.055,1285.04 L 508.976,1285.04 L 498.898,1285.04 L 488.819,1285.04 L 478.74,1285.04 L 468.661,1285.04 L 458.583,1285.04 L 448.504,1285.04 L 438.425,1285.04 L 428.346,1285.04 L 418.268,1285.04 L 408.189,1285.04 L 398.11,1285.04 L 388.031,1285.04 L 377.953,1285.04 L 367.874,1285.04 L 357.795,1285.04 L 347.717,1285.04 L 337.638,1285.04 L 327.559,1285.04 L 317.48,1285.04 L 307.402,1285.04 L 297.323,1285.04 L 287.244,1285.04 L 277.165,1285.04 L 267.087,1285.04 L 257.008,1285.04 L 246.929,1285.04 L 236.85,1285.04 L 226.772,1285.04 L 216.693,1285.04 L 206.614,1285.04 L 196.535,1285.04 L 186.457,1285.04 L 176.378,1285.04 L 166.299,1285.04 L 156.22,1285.04 L 146.142,1285.04 L 136.063,1285.04 L 125.984,1285.04 L 115.906,1285.04 L 105.827,1285.04 L 95.748,1285.04 L 85.6693,1285.04 L 75.5906,1285.04 L 65.5118,1285.04 L 55.4331,1285.04 L 45.3543,1285.04 L 35.2756,1285.04 L 25.1969,1285.04 L 15.1181,1285.04 L 5.03937,1285.04 L 5.03937,1274.96 L 5.03937,1264.88 L 5.03937,1254.8 L 5.03937,1244.72 L 5.03937,1234.65 L 5.03937,1224.57 L 5.03937,1214.49 L 5.03937,1204.41 L 5.03937,1194.33 L 5.03937,1184.25 L 5.03937,1174.17 L 5.03937,1164.09 L 5.03937,1154.02 L 5.03937,1143.94 L 5.03937,1133.86 L 5.03937,1123.78 L 5.03937,1113.7 L 5.03937,1103.62 L 5.03937,1093.54 L 5.03937,1083.46 L 5.03937,1073.39 L 5.03937,1063.31 L 5.03937,1053.23 L 5.03937,1043.15 L 5.03937,1033.07 L 5.03937,1022.99 L 5.03937,1012.91 L 5.03937,1002.83 L 5.03937,992.756 L 15.1181,992.756 L 25.1969,1002.83 L 35.2756,1002.83 L 45.3543,1002.83 L 55.4331,1002.83 L 65.5118,1002.83 L 75.5906,1002.83 L 85.6693,1002.83 L 95.748,1002.83 L 105.827,1002.83 L 115.906,1002.83 L 125.984,1002.83 L 136.063,1002.83 L 146.142,1002.83 L 156.22,1012.91 L 166.299,1022.99 L 176.378,1022.99 L 186.457,1012.91 L 186.457,1002.83 L 196.535,992.756 L 206.614,982.677 L 206.614,972.598 L 216.693,962.52 L 226.772,952.441 L 226.772,942.362 L 236.85,932.283 L 246.929,922.205 L 257.008,922.205 L 267.087,912.126 L 267.087,902.047 L 267.087,891.969 L 267.087,881.89 L 277.165,871.811 L 287.244,861.732 L 287.244,851.654 L 287.244,841.575 L 287.244,831.496 L 287.244,821.417 L 287.244,811.339 L 287.244,801.26 L 277.165,791.181 L 267.087,791.181 L 267.087,781.102 L 267.087,771.024 L 257.008,760.945 L 246.929,760.945 L 246.929,750.866 L 246.929,740.787 L 246.929,730.709 L 246.929,720.63 L 246.929,710.551 L 257.008,700.472 L 246.929,690.394 L 236.85,690.394 L 226.772,690.394 L 216.693,680.315 L 206.614,680.315 L 196.535,690.394 L 196.535,700.472 L 186.457,700.472 L 176.378,700.472 L 166.299,700.472 L 156.22,690.394 L 146.142,690.394 L 136.063,680.315 L 125.984,680.315 L 115.906,680.315 L 105.827,680.315 L 95.748,670.236 L 95.748,660.157 L 105.827,660.157 L 115.906,660.157 L 125.984,650.079 L 136.063,650.079 L 146.142,640 L 156.22,640 L 166.299,629.921 L 176.378,629.921 L 176.378,640 L 186.457,650.079 L 196.535,650.079 L 206.614,650.079 L 216.693,650.079 L 226.772,640 L 236.85,640 L 246.929,640 L 257.008,640 L 267.087,650.079 L 277.165,650.079 L 287.244,640 L 287.244,629.921 L 297.323,629.921 L 307.402,619.843 L 317.48,619.843 L 327.559,609.764 z " style="fill-opacity:0.5;fill:rgb(253,0,0);stroke:rgb(253,0,0);stroke-width:2"/></g>
<g fill-rule="evenodd"><path d="M 1285.04,1285.04 L 5.03937,1285.04 L 5.03937,992.756 L 146.142,1002.83 L 176.378,1022.99 L 226.772,942.362 L 267.087,912.126 L 267.087,881.89 L 287.244,861.732 L 287.244,801.26 L 246.929,760.945 L 257.008,700.472 L 216.693,680.315 L 196.535,700.472 L 166.299,700.472 L 105.827,680.315 L 95.748,660.157 L 166.299,629.921 L 186.457,650.079 L 277.165,650.079 L 287.244,629.921 L 337.638,609.764 L 357.795,640 L 327.559,640 L 277.165,680.315 L 297.323,710.551 L 327.559,740.787 L 377.953,740.787 L 408.189,771.024 L 458.583,781.102 L 458.583,821.417 L 478.74,841.575 L 388.031,881.89 L 377.953,902.047 L 398.11,922.205 L 377.953,932.283 L 357.795,982.677 L 317.48,1002.83 L 347.717,1033.07 L 408.189,1033.07 L 307.402,1033.07 L 297.323,1073.39 L 267.087,1083.46 L 236.85,1123.78 L 236.85,1174.17 L 337.638,1224.57 L 347.717,1254.8 L 438.425,1224.57 L 448.504,1194.33 L 488.819,1174.17 L 468.661,1154.02 L 488.819,1123.78 L 428.346,1093.54 L 418.268,1063.31 L 428.346,1043.15 L 448.504,1043.15 L 438.425,1063.31 L 458.583,1093.54 L 519.055,1083.46 L 549.291,1113.7 L 559.37,1093.54 L 599.685,1103.62 L 599.685,1083.46 L 619.843,1083.46 L 650.079,1123.78 L 579.528,1143.94 L 599.685,1164.09 L 559.37,1184.25 L 559.37,1224.57 L 519.055,1264.88 L 529.134,1285.04 L 720.63,1285.04 L 730.709,1244.72 L 750.866,1234.65 L 740.787,1204.41 L 821.417,1184.25 L 831.496,1133.86 L 871.811,1113.7 L 942.362,1133.86 L 942.362,1154.02 L 922.205,1164.09 L 922.205,1204.41 L 902.047,1214.49 L 922.205,1234.65 L 932.283,1285.04 L 1103.62,1285.04 L 1113.7,1274.96 L 1093.54,1254.8 L 1123.78,1234.65 L 1133.86,1174.17 L 1164.09,1214.49 L 1143.94,1234.65 L 1164.09,1274.96 L 1264.88,1264.88 L 1285.04,1285.04 z " style="fill-opacity:0.5;fill:rgb(51,51,153);stroke:rgb(0,0,0);stroke-width:5"/></g>
<g fill-rule="evenodd"><path d="M 720.63,609.764 L 730.709,609.764 L 730.709,619.843 L 730.709,629.921 L 720.63,629.921 L 710.551,640 L 700.472,640 L 690.394,629.921 L 690.394,619.843 L 700.472,619.843 L 710.551,619.843 L 720.63,609.764 z " style="fill-opacity:0.5;fill:rgb(253,0,0);stroke:rgb(253,0,0);stroke-width:2"/></g>
<g fill-rule="evenodd"><path d="M 700.472,640 L 690.394,619.843 L 730.709,609.764 L 730.709,629.921 L 700.472,640 z " style="fill-opacity:0.5;fill:rgb(51,51,153);stroke:rgb(0,0,0);stroke-width:5"/></g>
<g fill-rule="evenodd"><path d="M 599.685,629.921 L 609.764,629.921 L 619.843,640 L 629.921,640 L 640,640 L 640,650.079 L 640,660.157 L 629.921,660.157 L 619.843,660.157 L 609.764,650.079 L 599.685,650.079 L 599.685,640 L 599.685,629.921 z " style="fill-opacity:0.5;fill:rgb(253,0,0);stroke:rgb(253,0,0);stroke-width:2"/></g>
<g fill-rule="evenodd"><path d="M 640,660.157 L 599.685,650.079 L 599.685,629.921 L 640,640 L 640,660.157 z " style="fill-opacity:0.5;fill:rgb(51,51,153);stroke:rgb(0,0,0);stroke-width:5"/></g>
<g fill-rule="evenodd"><path d="M 1113.7,640 L 1123.78,640 L 1123.78,650.079 L 1123.78,660.157 L 1113.7,660.157 L 1103.62,670.236 L 1103.62,680.315 L 1103.62,690.394 L 1103.62,700.472 L 1103.62,710.551 L 1103.62,720.63 L 1113.7,730.709 L 1123.78,730.709 L 1133.86,730.709 L 1143.94,730.709 L 1154.02,720.63 L 1164.09,720.63 L 1174.17,720.63 L 1184.25,720.63 L 1194.33,730.709 L 1204.41,730.709 L 1214.49,730.709 L 1224.57,730.709 L 1234.65,720.63 L 1244.72,720.63 L 1254.8,720.63 L 1264.88,720.63 L 1274.96,720.63 L 1285.04,720.63 L 1285.04,730.709 L 1285.04,740.787 L 1285.04,750.866 L 1285.04,760.945 L 1285.04,771.024 L 1285.04,781.102 L 1285.04,791.181 L 1285.04,801.26 L 1285.04,811.339 L 1285.04,821.417 L 1285.04,831.496 L 1285.04,841.575 L 1285.04,851.654 L 1285.04,861.732 L 1285.04,871.811 L 1285.04,881.89 L 1285.04,891.969 L 1285.04,902.047 L 1285.04,912.126 L 1274.96,912.126 L 1264.88,912.126 L 1254.8,912.126 L 1244.72,912.126 L 1234.65,912.126 L 1224.57,902.047 L 1214.49,902.047 L 1204.41,902.047 L 1194.33,902.047 L 1184.25,902.047 L 1174.17,902.047 L 1164.09,902.047 L 1154.02,902.047 L 1143.94,912.126 L 1133.86,912.126 L 1123.78,922.205 L 1113.7,922.205 L 1103.62,932.283 L 1093.54,932.283 L 1083.46,932.283 L 1073.39,932.283 L 1063.31,942.362 L 1063.31,952.441 L 1053.23,952.441 L 1043.15,962.52 L 1033.07,962.52 L 1022.99,972.598 L 1033.07,982.677 L 1043.15,992.756 L 1043.15,1002.83 L 1043.15,1012.91 L 1043.15,1022.99 L 1033.07,1022.99 L 1022.99,1033.07 L 1033.07,1043.15 L 1043.15,1053.23 L 1043.15,1063.31 L 1043.15,1073.39 L 1043.15,1083.46 L 1043.15,1093.54 L 1043.15,1103.62 L 1053.23,1113.7 L 1063.31,1123.78 L 1063.31,1133.86 L 1073.39,1143.94 L 1083.46,1154.02 L 1093.54,1164.09 L 1103.62,1164.09 L 1113.7,1154.02 L 1113.7,1143.94 L 1123.78,1143.94 L 1113.7,1154.02 L 1113.7,1164.09 L 1103.62,1174.17 L 1093.54,1174.17 L 1083.46,1174.17 L 1073.39,1174.17 L 1063.31,1164.09 L 1053.23,1164.09 L 1053.23,1154.02 L 1053.23,1143.94 L 1043.15,1133.86 L 1033.07,1133.86 L 1022.99,1123.78 L 1022.99,1113.7 L 1012.91,1103.62 L 1012.91,1093.54 L 1012.91,1083.46 L 1012.91,1073.39 L 1012.91,1063.31 L 1012.91,1053.23 L 1012.91,1043.15 L 1002.83,1033.07 L 992.756,1033.07 L 992.756,1022.99 L 992.756,1012.91 L 982.677,1002.83 L 972.598,1002.83 L 972.598,992.756 L 972.598,982.677 L 962.52,972.598 L 952.441,972.598 L 952.441,962.52 L 952.441,952.441 L 942.362,942.362 L 932.283,942.362 L 922.205,942.362 L 912.126,942.362 L 902.047,942.362 L 891.969,942.362 L 881.89,932.283 L 881.89,922.205 L 891.969,932.283 L 902.047,932.283 L 912.126,932.283 L 922.205,932.283 L 932.283,932.283 L 942.362,932.283 L 952.441,922.205 L 962.52,922.205 L 972.598,912.126 L 972.598,902.047 L 972.598,891.969 L 972.598,881.89 L 962.52,871.811 L 952.441,871.811 L 952.441,861.732 L 952.441,851.654 L 952.441,841.575 L 952.441,831.496 L 952.441,821.417 L 952.441,811.339 L 942.362,801.26 L 932.283,801.26 L 922.205,801.26 L 912.126,801.26 L 902.047,801.26 L 891.969,801.26 L 881.89,791.181 L 871.811,791.181 L 861.732,791.181 L 851.654,791.181 L 851.654,781.102 L 861.732,781.102 L 871.811,771.024 L 871.811,760.945 L 881.89,760.945 L 891.969,750.866 L 891.969,740.787 L 891.969,730.709 L 891.969,720.63 L 891.969,710.551 L 902.047,700.472 L 912.126,700.472 L 922.205,700.472 L 932.283,700.472 L 942.362,700.472 L 952.441,700.472 L 962.52,710.551 L 972.598,720.63 L 982.677,720.63 L 992.756,720.63 L 1002.83,720.63 L 1012.91,720.63 L 1022.99,720.63 L 1033.07,720.63 L 1043.15,720.63 L 1053.23,730.709 L 1063.31,720.63 L 1073.39,710.551 L 1073.39,700.472 L 1073.39,690.394 L 1083.46,680.315 L 1083.46,670.236 L 1093.54,670.236 L 1103.62,660.157 L 1103.62,650.079 L 1113.7,640 z " style="fill-opacity:0.5;fill:rgb(253,0,0);stroke:rgb(253,0,0);stroke-width:2"/></g>
<g fill-rule="evenodd"><path d="M 1073.39,1174.17 L 1022.99,1123.78 L 1012.91,1043.15 L 992.756,1033.07 L 952.441,952.441 L 881.89,932.283 L 942.362,932.283 L 972.598,912.126 L 972.598,881.89 L 952.441,871.811 L 952.441,811.339 L 851.654,781.102 L 891.969,750.866 L 902.047,700.472 L 1053.23,730.709 L 1083.46,670.236 L 1123.78,640 L 1123.78,660.157 L 1103.62,670.236 L 1113.7,730.709 L 1285.04,720.63 L 1285.04,912.126 L 1154.02,902.047 L 1103.62,932.283 L 1073.39,932.283 L 1022.99,972.598 L 1043.15,992.756 L 1043.15,1022.99 L 1022.99,1033.07 L 1043.15,1053.23 L 1043.15,1103.62 L 1093.54,1164.09 L 1123.78,1143.94 L 1103.62,1174.17 L 1073.39,1174.17 z " style="fill-opacity:0.5;fill:rgb(51,51,153);stroke:rgb(0,0,0);stroke-width:5"/></g>
<g fill-rule="evenodd"><path d="M 5.03937,660.157 L 15.1181,660.157 L 15.1181,670.236 L 25.1969,680.315 L 35.2756,680.315 L 45.3543,680.315 L 55.4331,680.315 L 65.5118,680.315 L 75.5906,680.315 L 85.6693,690.394 L 95.748,700.472 L 95.748,710.551 L 85.6693,720.63 L 75.5906,710.551 L 65.5118,710.551 L 55.4331,700.472 L 45.3543,700.472 L 35.2756,700.472 L 25.1969,700.472 L 15.1181,700.472 L 5.03937,700.472 L 5.03937,690.394 L 5.03937,680.315 L 5.03937,670.236 L 5.03937,660.157 z " style="fill-opacity:0.5;fill:rgb(253,0,0);stroke:rgb(253,0,0);stroke-width:2"/></g>
<g fill-rule="evenodd"><path d="M 95.748,710.551 L 85.6693,720.63 L 55.4331,700.472 L 5.03937,700.472 L 5.03937,660.157 L 25.1969,680.315 L 75.5906,680.315 L 95.748,710.551 z " style="fill-opacity:0.5;fill:rgb(51,51,153);stroke:rgb(0,0,0);stroke-width:5"/></g>
<g fill-rule="evenodd"><path d="M 670.236,690.394 L 680.315,690.394 L 690.394,690.394 L 700.472,690.394 L 700.472,700.472 L 700.472,710.551 L 700.472,720.63 L 690.394,730.709 L 680.315,730.709 L 670.236,730.709 L 670.236,720.63 L 670.236,710.551 L 670.236,700.472 L 670.236,690.394 z " style="fill-opacity:0.5;fill:rgb(253,0,0);stroke:rgb(253,0,0);stroke-width:2"/></g>
<g fill-rule="evenodd"><path d="M 690.394,730.709 L 670.236,730.709 L 670.236,690.394 L 700.472,690.394 L 690.394,730.709 z " style="fill-opacity:0.5;fill:rgb(51,51,153);stroke:rgb(0,0,0);stroke-width:5"/></g>
<g fill-rule="evenodd"><path d="M 680.315,912.126 L 690.394,912.126 L 700.472,912.126 L 710.551,912.126 L 720.63,912.126 L 730.709,912.126 L 740.787,912.126 L 750.866,922.205 L 760.945,922.205 L 771.024,932.283 L 781.102,942.362 L 781.102,952.441 L 791.181,962.52 L 801.26,962.52 L 811.339,962.52 L 821.417,962.52 L 831.496,962.52 L 841.575,972.598 L 851.654,962.52 L 851.654,952.441 L 841.575,942.362 L 851.654,942.362 L 861.732,942.362 L 871.811,952.441 L 871.811,962.52 L 861.732,972.598 L 861.732,982.677 L 861.732,992.756 L 851.654,992.756 L 841.575,1002.83 L 831.496,1002.83 L 821.417,1012.91 L 811.339,1012.91 L 801.26,1022.99 L 791.181,1022.99 L 781.102,1033.07 L 771.024,1033.07 L 760.945,1043.15 L 750.866,1043.15 L 740.787,1043.15 L 730.709,1043.15 L 720.63,1033.07 L 720.63,1022.99 L 710.551,1012.91 L 700.472,1002.83 L 690.394,1002.83 L 680.315,992.756 L 670.236,992.756 L 670.236,982.677 L 660.157,972.598 L 650.079,972.598 L 640,972.598 L 629.921,972.598 L 619.843,962.52 L 609.764,962.52 L 609.764,952.441 L 619.843,952.441 L 629.921,942.362 L 640,942.362 L 650.079,942.362 L 660.157,942.362 L 670.236,932.283 L 670.236,922.205 L 680.315,912.126 z " style="fill-opacity:0.5;fill:rgb(253,0,0);stroke:rgb(253,0,0);stroke-width:2"/></g>
<g fill-rule="evenodd"><path d="M 861.732,992.756 L 760.945,1043.15 L 730.709,1043.15 L 700.472,1002.83 L 609.764,952.441 L 660.157,942.362 L 680.315,912.126 L 740.787,912.126 L 791.181,962.52 L 841.575,972.598 L 841.575,942.362 L 861.732,942.362 L 861.732,992.756 z " style="fill-opacity:0.5;fill:rgb(51,51,153);stroke:rgb(0,0,0);stroke-width:5"/></g>
</svg>
