<?xml version="1.0" standalone="no"?>
<!DOCTYPE svg PUBLIC "-//W3C//DTD SVG 1.1//EN"
"http://www.w3.org/Graphics/SVG/1.1/DTD/svg11.dtd">
<svg width="100%" height="100%" version="1.1"
xmlns="http://www.w3.org/2000/svg"
xmlns:xlink="http://www.w3.org/1999/xlink">
<polygon points="429.134,3.93701 437.008,3.93701 444.882,3.93701 452.756,3.93701 460.63,3.93701 468.504,3.93701 476.378,3.93701 484.252,3.93701 492.126,3.93701 500,3.93701 507.874,3.93701 515.748,3.93701 523.622,3.93701 531.496,3.93701 539.37,3.93701 547.244,3.93701 555.118,3.93701 562.992,3.93701 570.866,3.93701 578.74,3.93701 586.614,3.93701 594.488,3.93701 602.362,3.93701 610.236,3.93701 618.11,3.93701 625.984,3.93701 633.858,3.93701 641.732,3.93701 649.606,3.93701 657.48,3.93701 665.354,3.93701 673.228,3.93701 681.102,11.811 688.976,11.811 696.85,3.93701 704.724,3.93701 704.724,11.811 704.724,19.685 712.598,27.5591 720.472,27.5591 720.472,35.4331 712.598,35.4331 704.724,27.5591 696.85,27.5591 688.976,35.4331 681.102,35.4331 673.228,43.3071 665.354,51.1811 673.228,59.0551 673.228,66.9291 673.228,74.8031 673.228,82.6772 673.228,90.5512 673.228,98.4252 681.102,106.299 688.976,106.299 696.85,114.173 704.724,114.173 696.85,114.173 688.976,122.047 688.976,129.921 688.976,137.795 681.102,137.795 673.228,145.669 673.228,153.543 665.354,153.543 657.48,153.543 649.606,153.543 641.732,161.417 633.858,161.417 625.984,169.291 618.11,169.291 610.236,177.165 602.362,177.165 602.362,169.291 594.488,161.417 586.614,161.417 578.74,161.417 570.866,161.417 562.992,169.291 555.118,169.291 547.244,169.291 539.37,169.291 531.496,169.291 523.622,169.291 515.748,169.291 507.874,169.291 500,161.417 492.126,161.417 484.252,161.417 476.378,161.417 468.504,161.417 460.63,161.417 460.63,153.543 460.63,145.669 452.756,137.795 444.882,137.795 444.882,129.921 444.882,122.047 437.008,114.173 429.134,114.173 429.134,106.299 429.134,98.4252 429.134,90.5512 429.134,82.6772 421.26,74.8031 413.386,74.8031 413.386,66.9291 413.386,59.0551 405.512,51.1811 397.638,51.1811 405.512,51.1811 413.386,43.3071 413.386,35.4331 413.386,27.5591 413.386,19.685 413.386,11.811 421.26,11.811 429.134,3.93701" style="fill-opacity:0.5;fill:rgb(253,0,0);stroke:rgb(253,0,0);stroke-width:2"/>
<polygon points="704.724,114.173 610.236,177.165 460.63,161.417 397.638,51.1811 429.134,3.93701 704.724,3.93701 720.472,35.4331 665.354,51.1811 704.724,114.173" style="fill-opacity:0.5;fill:rgb(51,51,153);stroke:rgb(0,0,0);stroke-width:5"/>
<polygon points="744.094,3.93701 751.969,3.93701 759.843,3.93701 767.717,3.93701 775.591,3.93701 783.465,3.93701 791.339,11.811 799.213,19.685 807.087,19.685 814.961,11.811 822.835,3.93701 830.709,3.93701 822.835,11.811 830.709,19.685 830.709,27.5591 838.583,35.4331 846.457,35.4331 854.331,27.5591 854.331,19.685 846.457,11.811 854.331,19.685 854.331,27.5591 862.205,35.4331 870.079,43.3071 870.079,51.1811 870.079,59.0551 870.079,66.9291 862.205,74.8031 862.205,82.6772 854.331,90.5512 854.331,98.4252 846.457,98.4252 838.583,98.4252 830.709,98.4252 822.835,98.4252 814.961,98.4252 807.087,98.4252 799.213,106.299 799.213,114.173 799.213,122.047 799.213,129.921 799.213,137.795 799.213,145.669 799.213,153.543 799.213,161.417 807.087,169.291 814.961,169.291 822.835,177.165 830.709,177.165 830.709,185.039 830.709,192.913 838.583,200.787 846.457,200.787 854.331,208.661 862.205,208.661 870.079,216.535 877.953,216.535 885.827,224.409 893.701,224.409 893.701,232.283 901.575,240.157 909.449,240.157 917.323,240.157 925.197,240.157 925.197,248.031 917.323,255.906 917.323,263.78 917.323,271.654 925.197,279.528 933.071,279.528 940.945,271.654 940.945,263.78 948.819,263.78 956.693,263.78 964.567,271.654 972.441,271.654 980.315,271.654 988.189,279.528 996.063,279.528 1003.94,271.654 996.063,263.78 1003.94,263.78 1003.94,271.654 1003.94,279.528 1003.94,287.402 996.063,279.528 988.189,279.528 980.315,287.402 988.189,295.276 988.189,303.15 980.315,311.024 988.189,318.898 996.063,318.898 1003.94,311.024 1003.94,318.898 1003.94,326.772 1003.94,334.646 1003.94,342.52 1003.94,350.394 1003.94,358.268 1003.94,366.142 996.063,366.142 988.189,374.016 980.315,374.016 972.441,374.016 964.567,374.016 956.693,374.016 948.819,374.016 940.945,374.016 933.071,374.016 925.197,374.016 917.323,374.016 909.449,374.016 901.575,374.016 901.575,366.142 901.575,358.268 901.575,350.394 901.575,342.52 893.701,334.646 885.827,334.646 877.953,326.772 870.079,326.772 870.079,318.898 862.205,311.024 854.331,318.898 846.457,311.024 838.583,311.024 838.583,303.15 830.709,295.276 822.835,303.15 814.961,295.276 807.087,295.276 799.213,295.276 791.339,295.276 783.465,295.276 775.591,295.276 775.591,287.402 783.465,295.276 791.339,287.402 791.339,279.528 799.213,271.654 791.339,263.78 783.465,263.78 775.591,263.78 767.717,255.906 759.843,248.031 751.969,255.906 744.094,248.031 736.22,255.906 728.346,248.031 736.22,240.157 728.346,232.283 720.472,232.283 712.598,232.283 704.724,224.409 696.85,216.535 704.724,208.661 696.85,200.787 688.976,200.787 681.102,200.787 673.228,200.787 665.354,200.787 673.228,200.787 681.102,200.787 688.976,192.913 696.85,185.039 704.724,185.039 712.598,185.039 720.472,177.165 712.598,169.291 720.472,161.417 712.598,153.543 712.598,145.669 720.472,145.669 728.346,137.795 728.346,129.921 728.346,122.047 736.22,122.047 744.094,122.047 751.969,114.173 751.969,106.299 744.094,98.4252 736.22,98.4252 728.346,90.5512 720.472,90.5512 712.598,90.5512 712.598,82.6772 720.472,82.6772 728.346,74.8031 728.346,66.9291 728.346,59.0551 736.22,59.0551 744.094,51.1811 751.969,51.1811 759.843,43.3071 759.843,35.4331 759.843,27.5591 759.843,19.685 751.969,11.811 744.094,11.811 744.094,3.93701" style="fill-opacity:0.5;fill:rgb(253,0,0);stroke:rgb(253,0,0);stroke-width:2"/>
<polygon points="1003.94,366.142 901.575,374.016 665.354,200.787 751.969,114.173 712.598,90.5512 744.094,3.93701 854.331,19.685 870.079,66.9291 799.213,106.299 799.213,161.417 925.197,279.528 1003.94,263.78 1003.94,366.142" style="fill-opacity:0.5;fill:rgb(51,51,153);stroke:rgb(0,0,0);stroke-width:5"/>
<polygon points="224.409,59.0551 232.283,59.0551 240.157,59.0551 248.031,59.0551 255.906,66.9291 263.78,66.9291 271.654,74.8031 279.528,74.8031 287.402,82.6772 295.276,82.6772 295.276,90.5512 295.276,98.4252 295.276,106.299 295.276,114.173 303.15,122.047 311.024,122.047 311.024,129.921 311.024,137.795 311.024,145.669 311.024,153.543 303.15,153.543 295.276,153.543 287.402,153.543 279.528,161.417 279.528,169.291 279.528,177.165 271.654,177.165 263.78,185.039 255.906,185.039 248.031,185.039 240.157,185.039 232.283,185.039 224.409,185.039 216.535,192.913 208.661,192.913 200.787,200.787 192.913,200.787 185.039,200.787 177.165,200.787 177.165,192.913 177.165,185.039 169.291,177.165 161.417,177.165 161.417,169.291 161.417,161.417 153.543,153.543 145.669,153.543 137.795,145.669 129.921,145.669 129.921,137.795 129.921,129.921 129.921,122.047 137.795,122.047 145.669,114.173 145.669,106.299 145.669,98.4252 145.669,90.5512 145.669,82.6772 153.543,82.6772 161.417,74.8031 169.291,74.8031 177.165,66.9291 185.039,66.9291 192.913,66.9291 200.787,66.9291 208.661,66.9291 216.535,66.9291 224.409,59.0551" style="fill-opacity:0.5;fill:rgb(253,0,0);stroke:rgb(253,0,0);stroke-width:2"/>
<polygon points="177.165,200.787 145.669,82.6772 295.276,82.6772 311.024,153.543 177.165,200.787" style="fill-opacity:0.5;fill:rgb(51,51,153);stroke:rgb(0,0,0);stroke-width:5"/>
<polygon points="3.93701,169.291 11.811,169.291 19.685,169.291 27.5591,169.291 35.4331,177.165 43.3071,177.165 51.1811,185.039 59.0551,185.039 66.9291,192.913 74.8031,192.913 82.6772,200.787 90.5512,200.787 98.4252,208.661 106.299,208.661 114.173,200.787 122.047,200.787 122.047,208.661 122.047,216.535 129.921,224.409 137.795,224.409 137.795,232.283 137.795,240.157 129.921,248.031 129.921,255.906 137.795,263.78 145.669,263.78 153.543,255.906 153.543,248.031 153.543,255.906 153.543,263.78 161.417,271.654 169.291,271.654 177.165,279.528 177.165,287.402 185.039,295.276 192.913,303.15 185.039,311.024 192.913,318.898 200.787,326.772 208.661,326.772 216.535,326.772 224.409,318.898 232.283,326.772 240.157,326.772 248.031,326.772 255.906,326.772 263.78,326.772 255.906,334.646 263.78,342.52 255.906,350.394 263.78,358.268 255.906,358.268 248.031,358.268 240.157,366.142 248.031,374.016 240.157,381.89 248.031,389.764 240.157,397.638 248.031,405.512 240.157,413.386 248.031,421.26 255.906,429.134 263.78,437.008 255.906,444.882 263.78,452.756 271.654,452.756 263.78,452.756 255.906,452.756 248.031,452.756 240.157,460.63 248.031,468.504 240.157,476.378 232.283,484.252 224.409,484.252 216.535,484.252 208.661,492.126 216.535,500 208.661,500 208.661,492.126 200.787,484.252 192.913,492.126 185.039,484.252 177.165,492.126 169.291,500 161.417,500 153.543,500 145.669,500 145.669,492.126 137.795,484.252 129.921,484.252 122.047,492.126 114.173,492.126 106.299,500 98.4252,500 90.5512,507.874 82.6772,507.874 74.8031,507.874 66.9291,507.874 59.0551,507.874 51.1811,507.874 43.3071,515.748 43.3071,523.622 35.4331,523.622 27.5591,523.622 19.685,523.622 19.685,515.748 11.811,507.874 3.93701,507.874 3.93701,500 3.93701,492.126 3.93701,484.252 3.93701,476.378 11.811,484.252 19.685,484.252 27.5591,476.378 19.685,468.504 11.811,460.63 3.93701,460.63 3.93701,452.756 11.811,460.63 19.685,460.63 27.5591,452.756 19.685,444.882 27.5591,437.008 19.685,429.134 11.811,429.134 3.93701,437.008 3.93701,429.134 3.93701,421.26 3.93701,413.386 11.811,413.386 3.93701,421.26 11.811,429.134 19.685,429.134 27.5591,421.26 35.4331,413.386 35.4331,405.512 43.3071,405.512 43.3071,413.386 51.1811,421.26 59.0551,421.26 66.9291,421.26 74.8031,421.26 82.6772,413.386 82.6772,405.512 90.5512,405.512 90.5512,413.386 90.5512,421.26 98.4252,429.134 98.4252,437.008 106.299,444.882 114.173,444.882 122.047,444.882 129.921,444.882 137.795,444.882 145.669,437.008 145.669,429.134 153.543,429.134 161.417,421.26 169.291,421.26 177.165,413.386 169.291,405.512 169.291,397.638 177.165,389.764 169.291,381.89 161.417,374.016 153.543,366.142 145.669,366.142 137.795,358.268 129.921,358.268 122.047,350.394 114.173,350.394 106.299,342.52 98.4252,342.52 90.5512,334.646 82.6772,334.646 82.6772,326.772 74.8031,318.898 66.9291,311.024 66.9291,303.15 66.9291,295.276 59.0551,287.402 51.1811,287.402 43.3071,287.402 35.4331,287.402 27.5591,279.528 27.5591,271.654 19.685,263.78 11.811,263.78 3.93701,271.654 3.93701,279.528 11.811,287.402 3.93701,287.402 3.93701,279.528 3.93701,271.654 3.93701,263.78 3.93701,255.906 11.811,263.78 19.685,263.78 27.5591,255.906 19.685,248.031 19.685,240.157 27.5591,232.283 35.4331,232.283 43.3071,232.283 51.1811,224.409 51.1811,216.535 51.1811,208.661 43.3071,200.787 35.4331,200.787 27.5591,192.913 19.685,192.913 11.811,192.913 3.93701,192.913 3.93701,185.039 3.93701,177.165 3.93701,169.291" style="fill-opacity:0.5;fill:rgb(253,0,0);stroke:rgb(253,0,0);stroke-width:2"/>
<polygon points="216.535,500 3.93701,507.874 3.93701,413.386 177.165,413.386 59.0551,287.402 3.93701,287.402 51.1811,224.409 3.93701,169.291 122.047,200.787 200.787,326.772 263.78,326.772 271.654,452.756 216.535,500" style="fill-opacity:0.5;fill:rgb(51,51,153);stroke:rgb(0,0,0);stroke-width:5"/>
<polygon points="586.614,216.535 594.488,216.535 602.362,224.409 610.236,232.283 618.11,232.283 625.984,224.409 633.858,224.409 641.732,224.409 641.732,232.283 641.732,240.157 641.732,248.031 649.606,255.906 657.48,255.906 665.354,255.906 673.228,255.906 681.102,255.906 688.976,255.906 688.976,263.78 696.85,271.654 704.724,271.654 704.724,279.528 704.724,287.402 704.724,295.276 696.85,295.276 688.976,303.15 681.102,311.024 673.228,303.15 665.354,303.15 657.48,295.276 649.606,295.276 641.732,295.276 633.858,295.276 625.984,295.276 618.11,295.276 610.236,295.276 602.362,303.15 594.488,295.276 586.614,295.276 578.74,295.276 570.866,295.276 562.992,287.402 555.118,279.528 555.118,271.654 562.992,271.654 570.866,271.654 578.74,271.654 586.614,263.78 586.614,255.906 578.74,248.031 570.866,248.031 578.74,248.031 586.614,240.157 586.614,232.283 594.488,224.409 586.614,216.535" style="fill-opacity:0.5;fill:rgb(253,0,0);stroke:rgb(253,0,0);stroke-width:2"/>
<polygon points="704.724,295.276 555.118,271.654 594.488,216.535 704.724,295.276" style="fill-opacity:0.5;fill:rgb(51,51,153);stroke:rgb(0,0,0);stroke-width:5"/>
<polygon points="523.622,287.402 523.622,295.276 523.622,303.15 531.496,311.024 523.622,318.898 523.622,326.772 531.496,334.646 531.496,342.52 539.37,350.394 547.244,342.52 555.118,334.646 562.992,342.52 570.866,342.52 578.74,334.646 586.614,326.772 586.614,318.898 578.74,311.024 586.614,311.024 586.614,318.898 594.488,326.772 602.362,334.646 610.236,334.646 618.11,334.646 625.984,326.772 633.858,334.646 641.732,334.646 649.606,334.646 657.48,342.52 657.48,350.394 657.48,358.268 657.48,366.142 657.48,374.016 665.354,381.89 673.228,381.89 681.102,389.764 688.976,389.764 688.976,397.638 688.976,405.512 688.976,413.386 681.102,413.386 673.228,421.26 673.228,429.134 673.228,437.008 673.228,444.882 673.228,452.756 673.228,460.63 681.102,468.504 688.976,468.504 688.976,476.378 688.976,484.252 688.976,492.126 688.976,500 688.976,507.874 681.102,507.874 673.228,515.748 673.228,523.622 673.228,531.496 673.228,539.37 673.228,547.244 673.228,555.118 681.102,562.992 688.976,562.992 688.976,570.866 688.976,578.74 688.976,586.614 681.102,586.614 673.228,578.74 665.354,578.74 657.48,578.74 649.606,578.74 641.732,586.614 633.858,578.74 625.984,578.74 618.11,586.614 618.11,594.488 625.984,602.362 633.858,602.362 641.732,602.362 633.858,602.362 625.984,610.236 625.984,618.11 618.11,625.984 610.236,625.984 602.362,633.858 602.362,641.732 610.236,649.606 618.11,649.606 618.11,657.48 618.11,665.354 618.11,673.228 618.11,681.102 618.11,688.976 610.236,688.976 602.362,688.976 594.488,696.85 586.614,704.724 586.614,712.598 578.74,704.724 570.866,704.724 562.992,704.724 555.118,704.724 547.244,704.724 539.37,704.724 531.496,704.724 523.622,704.724 515.748,712.598 515.748,720.472 515.748,728.346 507.874,728.346 500,720.472 492.126,720.472 484.252,712.598 476.378,712.598 476.378,704.724 476.378,696.85 468.504,688.976 460.63,688.976 452.756,681.102 444.882,681.102 444.882,673.228 444.882,665.354 437.008,657.48 429.134,657.48 421.26,649.606 413.386,649.606 405.512,641.732 397.638,641.732 389.764,641.732 381.89,641.732 374.016,641.732 366.142,641.732 366.142,633.858 366.142,625.984 374.016,625.984 381.89,618.11 381.89,610.236 381.89,602.362 374.016,594.488 381.89,586.614 381.89,578.74 374.016,570.866 381.89,562.992 389.764,562.992 397.638,555.118 397.638,547.244 397.638,539.37 405.512,531.496 405.512,523.622 397.638,515.748 389.764,515.748 381.89,523.622 374.016,515.748 366.142,523.622 366.142,515.748 358.268,507.874 350.394,507.874 342.52,507.874 334.646,515.748 342.52,523.622 334.646,531.496 342.52,539.37 334.646,547.244 334.646,555.118 334.646,562.992 334.646,570.866 342.52,578.74 350.394,578.74 342.52,586.614 334.646,586.614 326.772,594.488 318.898,594.488 318.898,586.614 326.772,586.614 334.646,578.74 334.646,570.866 326.772,562.992 318.898,562.992 311.024,562.992 303.15,562.992 295.276,570.866 287.402,570.866 279.528,570.866 271.654,570.866 263.78,562.992 255.906,555.118 263.78,547.244 255.906,539.37 263.78,531.496 255.906,523.622 248.031,523.622 240.157,531.496 232.283,531.496 224.409,531.496 232.283,531.496 240.157,523.622 248.031,523.622 255.906,515.748 255.906,507.874 263.78,507.874 271.654,507.874 279.528,507.874 287.402,507.874 295.276,507.874 303.15,500 303.15,492.126 303.15,484.252 303.15,476.378 311.024,476.378 318.898,468.504 326.772,468.504 334.646,460.63 342.52,460.63 350.394,452.756 358.268,452.756 366.142,444.882 366.142,437.008 366.142,429.134 366.142,421.26 366.142,413.386 366.142,405.512 366.142,397.638 366.142,389.764 374.016,389.764 381.89,389.764 389.764,381.89 397.638,381.89 405.512,374.016 413.386,374.016 421.26,366.142 421.26,358.268 421.26,350.394 429.134,350.394 437.008,342.52 444.882,342.52 452.756,334.646 460.63,334.646 468.504,326.772 468.504,318.898 468.504,311.024 468.504,303.15 476.378,295.276 484.252,295.276 476.378,303.15 484.252,311.024 492.126,318.898 500,318.898 507.874,318.898 515.748,318.898 523.622,311.024 523.622,303.15 523.622,295.276 523.622,287.402" style="fill-opacity:0.5;fill:rgb(253,0,0);stroke:rgb(253,0,0);stroke-width:2"/>
<polygon points="507.874,728.346 366.142,641.732 397.638,515.748 334.646,515.748 326.772,594.488 224.409,531.496 523.622,287.402 539.37,350.394 586.614,311.024 688.976,389.764 688.976,586.614 625.984,578.74 618.11,688.976 507.874,728.346" style="fill-opacity:0.5;fill:rgb(51,51,153);stroke:rgb(0,0,0);stroke-width:5"/>
<polygon points="759.843,342.52 767.717,342.52 775.591,350.394 783.465,350.394 791.339,358.268 799.213,358.268 799.213,366.142 791.339,366.142 783.465,374.016 775.591,374.016 767.717,381.89 759.843,381.89 759.843,374.016 759.843,366.142 759.843,358.268 759.843,350.394 759.843,342.52" style="fill-opacity:0.5;fill:rgb(253,0,0);stroke:rgb(253,0,0);stroke-width:2"/>
<polygon points="799.213,366.142 759.843,381.89 759.843,342.52 799.213,366.142" style="fill-opacity:0.5;fill:rgb(51,51,153);stroke:rgb(0,0,0);stroke-width:5"/>
<polygon points="933.071,413.386 940.945,413.386 948.819,413.386 956.693,413.386 964.567,413.386 972.441,413.386 980.315,413.386 988.189,413.386 996.063,413.386 1003.94,413.386 996.063,421.26 988.189,421.26 980.315,429.134 972.441,437.008 972.441,444.882 972.441,452.756 980.315,460.63 988.189,460.63 996.063,460.63 1003.94,452.756 1003.94,460.63 1003.94,468.504 1003.94,476.378 1003.94,484.252 1003.94,492.126 996.063,492.126 988.189,492.126 980.315,492.126 972.441,500 972.441,507.874 980.315,515.748 988.189,515.748 996.063,515.748 1003.94,515.748 1003.94,523.622 1003.94,531.496 1003.94,539.37 1003.94,547.244 1003.94,555.118 996.063,555.118 988.189,555.118 980.315,555.118 972.441,555.118 964.567,555.118 956.693,562.992 948.819,562.992 940.945,562.992 933.071,562.992 925.197,555.118 917.323,555.118 909.449,555.118 901.575,555.118 893.701,562.992 885.827,562.992 877.953,562.992 870.079,562.992 870.079,555.118 870.079,547.244 870.079,539.37 870.079,531.496 870.079,523.622 877.953,523.622 885.827,515.748 885.827,507.874 885.827,500 885.827,492.126 885.827,484.252 885.827,476.378 885.827,468.504 877.953,460.63 870.079,460.63 877.953,452.756 885.827,452.756 893.701,452.756 901.575,444.882 901.575,437.008 901.575,429.134 909.449,429.134 917.323,421.26 925.197,421.26 933.071,413.386" style="fill-opacity:0.5;fill:rgb(253,0,0);stroke:rgb(253,0,0);stroke-width:2"/>
<polygon points="870.079,562.992 870.079,460.63 1003.94,413.386 1003.94,555.118 870.079,562.992" style="fill-opacity:0.5;fill:rgb(51,51,153);stroke:rgb(0,0,0);stroke-width:5"/>
<polygon points="98.4252,539.37 106.299,539.37 114.173,547.244 122.047,547.244 129.921,555.118 137.795,555.118 145.669,555.118 153.543,555.118 161.417,547.244 161.417,539.37 169.291,539.37 177.165,547.244 185.039,547.244 185.039,555.118 185.039,562.992 185.039,570.866 185.039,578.74 185.039,586.614 185.039,594.488 192.913,602.362 200.787,602.362 200.787,610.236 200.787,618.11 208.661,625.984 216.535,625.984 216.535,633.858 216.535,641.732 216.535,649.606 216.535,657.48 216.535,665.354 216.535,673.228 208.661,673.228 200.787,681.102 200.787,688.976 200.787,696.85 200.787,704.724 200.787,712.598 192.913,712.598 185.039,720.472 177.165,720.472 169.291,728.346 169.291,736.22 169.291,744.094 161.417,744.094 153.543,751.969 153.543,759.843 153.543,767.717 145.669,767.717 137.795,775.591 137.795,783.465 137.795,791.339 129.921,791.339 129.921,783.465 122.047,775.591 114.173,775.591 106.299,775.591 98.4252,775.591 90.5512,775.591 82.6772,775.591 74.8031,775.591 66.9291,775.591 59.0551,775.591 51.1811,775.591 43.3071,775.591 35.4331,775.591 27.5591,775.591 19.685,775.591 11.811,767.717 3.93701,767.717 3.93701,759.843 3.93701,751.969 3.93701,744.094 3.93701,736.22 3.93701,728.346 3.93701,720.472 3.93701,712.598 3.93701,704.724 3.93701,696.85 3.93701,688.976 3.93701,681.102 3.93701,673.228 3.93701,665.354 3.93701,657.48 3.93701,649.606 3.93701,641.732 3.93701,633.858 3.93701,625.984 3.93701,618.11 3.93701,610.236 3.93701,602.362 3.93701,594.488 3.93701,586.614 3.93701,578.74 3.93701,570.866 3.93701,562.992 3.93701,555.118 11.811,555.118 19.685,555.118 27.5591,555.118 35.4331,555.118 43.3071,555.118 51.1811,562.992 59.0551,562.992 66.9291,570.866 74.8031,562.992 82.6772,562.992 90.5512,562.992 98.4252,555.118 98.4252,547.244 98.4252,539.37" style="fill-opacity:0.5;fill:rgb(253,0,0);stroke:rgb(253,0,0);stroke-width:2"/>
<polygon points="137.795,791.339 3.93701,767.717 3.93701,555.118 185.039,547.244 216.535,673.228 137.795,791.339" style="fill-opacity:0.5;fill:rgb(51,51,153);stroke:rgb(0,0,0);stroke-width:5"/>
<polygon points="665.354,625.984 673.228,625.984 681.102,625.984 688.976,625.984 681.102,625.984 673.228,625.984 665.354,633.858 665.354,641.732 673.228,649.606 681.102,649.606 688.976,649.606 696.85,649.606 704.724,641.732 704.724,633.858 712.598,633.858 720.472,633.858 728.346,633.858 736.22,633.858 736.22,641.732 728.346,633.858 720.472,633.858 712.598,641.732 720.472,649.606 720.472,657.48 728.346,665.354 736.22,665.354 736.22,673.228 728.346,673.228 720.472,681.102 728.346,688.976 720.472,696.85 728.346,704.724 736.22,704.724 744.094,696.85 751.969,688.976 751.969,696.85 751.969,704.724 751.969,712.598 744.094,712.598 736.22,720.472 728.346,720.472 720.472,720.472 712.598,720.472 704.724,720.472 696.85,720.472 688.976,712.598 681.102,712.598 673.228,720.472 665.354,720.472 657.48,728.346 649.606,736.22 657.48,744.094 657.48,751.969 649.606,744.094 641.732,744.094 633.858,736.22 625.984,728.346 618.11,720.472 618.11,712.598 625.984,712.598 633.858,712.598 641.732,704.724 649.606,696.85 649.606,688.976 649.606,681.102 649.606,673.228 649.606,665.354 657.48,657.48 649.606,649.606 641.732,649.606 649.606,641.732 649.606,633.858 657.48,633.858 665.354,625.984" style="fill-opacity:0.5;fill:rgb(253,0,0);stroke:rgb(253,0,0);stroke-width:2"/>
<polygon points="657.48,751.969 618.11,720.472 649.606,633.858 736.22,633.858 751.969,712.598 657.48,751.969" style="fill-opacity:0.5;fill:rgb(51,51,153);stroke:rgb(0,0,0);stroke-width:5"/>
<polygon points="901.575,712.598 909.449,712.598 917.323,712.598 925.197,712.598 933.071,712.598 940.945,712.598 948.819,712.598 956.693,712.598 964.567,720.472 972.441,720.472 980.315,720.472 988.189,720.472 996.063,720.472 1003.94,720.472 1003.94,728.346 1003.94,736.22 1003.94,744.094 1003.94,751.969 1003.94,759.843 1003.94,767.717 1003.94,775.591 1003.94,783.465 1003.94,791.339 1003.94,799.213 1003.94,807.087 1003.94,814.961 1003.94,822.835 1003.94,830.709 1003.94,838.583 1003.94,846.457 1003.94,854.331 1003.94,862.205 1003.94,870.079 1003.94,877.953 1003.94,885.827 1003.94,893.701 1003.94,901.575 1003.94,909.449 1003.94,917.323 1003.94,925.197 1003.94,933.071 1003.94,940.945 1003.94,948.819 1003.94,956.693 1003.94,964.567 1003.94,972.441 1003.94,980.315 1003.94,988.189 996.063,988.189 988.189,980.315 980.315,980.315 972.441,980.315 964.567,980.315 956.693,988.189 948.819,988.189 940.945,980.315 933.071,980.315 925.197,980.315 917.323,980.315 909.449,980.315 901.575,980.315 901.575,972.441 901.575,964.567 909.449,964.567 917.323,956.693 917.323,948.819 917.323,940.945 909.449,933.071 901.575,933.071 901.575,925.197 901.575,917.323 901.575,909.449 893.701,901.575 885.827,901.575 885.827,893.701 877.953,885.827 870.079,885.827 862.205,893.701 862.205,901.575 854.331,901.575 854.331,893.701 846.457,885.827 838.583,885.827 838.583,877.953 838.583,870.079 830.709,862.205 822.835,862.205 822.835,854.331 822.835,846.457 822.835,838.583 822.835,830.709 822.835,822.835 822.835,814.961 814.961,807.087 807.087,807.087 814.961,807.087 822.835,799.213 822.835,791.339 822.835,783.465 822.835,775.591 822.835,767.717 814.961,759.843 807.087,759.843 814.961,759.843 822.835,751.969 830.709,751.969 838.583,744.094 838.583,736.22 846.457,736.22 854.331,736.22 862.205,736.22 870.079,728.346 877.953,728.346 885.827,720.472 893.701,720.472 901.575,712.598" style="fill-opacity:0.5;fill:rgb(253,0,0);stroke:rgb(253,0,0);stroke-width:2"/>
<polygon points="1003.94,988.189 901.575,980.315 807.087,759.843 1003.94,720.472 1003.94,988.189" style="fill-opacity:0.5;fill:rgb(51,51,153);stroke:rgb(0,0,0);stroke-width:5"/>
<polygon points="712.598,744.094 720.472,751.969 728.346,744.094 736.22,751.969 728.346,759.843 736.22,767.717 744.094,767.717 751.969,767.717 744.094,775.591 751.969,783.465 759.843,791.339 767.717,799.213 759.843,807.087 767.717,814.961 775.591,814.961 783.465,814.961 775.591,822.835 783.465,830.709 775.591,838.583 783.465,846.457 783.465,854.331 783.465,862.205 791.339,870.079 791.339,877.953 799.213,885.827 807.087,893.701 814.961,893.701 814.961,901.575 814.961,909.449 822.835,917.323 830.709,917.323 838.583,925.197 846.457,925.197 846.457,933.071 854.331,940.945 862.205,940.945 870.079,940.945 877.953,940.945 877.953,948.819 870.079,948.819 862.205,956.693 862.205,964.567 862.205,972.441 854.331,972.441 846.457,980.315 846.457,988.189 854.331,996.063 862.205,996.063 854.331,996.063 846.457,996.063 838.583,996.063 830.709,996.063 822.835,996.063 814.961,996.063 807.087,996.063 814.961,996.063 822.835,996.063 830.709,988.189 822.835,980.315 814.961,980.315 807.087,980.315 799.213,980.315 791.339,988.189 783.465,988.189 775.591,980.315 767.717,980.315 759.843,988.189 767.717,996.063 759.843,996.063 751.969,996.063 744.094,996.063 736.22,996.063 728.346,996.063 728.346,988.189 728.346,980.315 728.346,972.441 728.346,964.567 736.22,964.567 744.094,964.567 751.969,956.693 751.969,948.819 744.094,940.945 736.22,940.945 728.346,940.945 728.346,933.071 728.346,925.197 728.346,917.323 728.346,909.449 736.22,909.449 744.094,901.575 744.094,893.701 744.094,885.827 736.22,877.953 728.346,877.953 720.472,870.079 712.598,870.079 704.724,862.205 696.85,862.205 688.976,862.205 681.102,862.205 673.228,870.079 665.354,870.079 657.48,877.953 649.606,877.953 641.732,885.827 641.732,893.701 641.732,901.575 641.732,909.449 641.732,917.323 633.858,917.323 625.984,917.323 618.11,917.323 610.236,925.197 610.236,933.071 602.362,933.071 594.488,933.071 586.614,933.071 578.74,933.071 570.866,940.945 570.866,948.819 570.866,956.693 578.74,964.567 570.866,964.567 562.992,972.441 555.118,972.441 547.244,980.315 539.37,988.189 547.244,996.063 555.118,996.063 562.992,988.189 562.992,996.063 555.118,996.063 547.244,996.063 539.37,996.063 531.496,988.189 523.622,980.315 515.748,980.315 507.874,988.189 500,996.063 492.126,996.063 484.252,996.063 476.378,996.063 468.504,996.063 460.63,996.063 452.756,996.063 444.882,996.063 437.008,996.063 429.134,996.063 421.26,996.063 413.386,996.063 413.386,988.189 421.26,988.189 429.134,980.315 429.134,972.441 429.134,964.567 437.008,964.567 444.882,956.693 444.882,948.819 444.882,940.945 444.882,933.071 444.882,925.197 452.756,925.197 460.63,917.323 468.504,917.323 476.378,909.449 476.378,901.575 468.504,893.701 460.63,893.701 468.504,893.701 476.378,893.701 484.252,893.701 492.126,885.827 500,893.701 507.874,893.701 515.748,885.827 515.748,877.953 507.874,870.079 500,870.079 507.874,870.079 515.748,877.953 523.622,870.079 523.622,862.205 531.496,862.205 539.37,862.205 547.244,862.205 555.118,854.331 562.992,862.205 570.866,854.331 570.866,846.457 578.74,846.457 586.614,838.583 586.614,830.709 586.614,822.835 594.488,830.709 602.362,822.835 602.362,814.961 610.236,814.961 618.11,807.087 625.984,814.961 633.858,807.087 633.858,799.213 641.732,799.213 649.606,791.339 657.48,799.213 665.354,791.339 665.354,783.465 673.228,783.465 681.102,775.591 681.102,767.717 681.102,759.843 688.976,767.717 696.85,759.843 704.724,767.717 712.598,759.843 712.598,751.969 712.598,744.094" style="fill-opacity:0.5;fill:rgb(253,0,0);stroke:rgb(253,0,0);stroke-width:2"/>
<polygon points="413.386,996.063 460.63,893.701 712.598,744.094 877.953,940.945 862.205,996.063 728.346,996.063 744.094,885.827 681.102,862.205 562.992,996.063 413.386,996.063" style="fill-opacity:0.5;fill:rgb(51,51,153);stroke:rgb(0,0,0);stroke-width:5"/>
<polygon points="318.898,775.591 326.772,775.591 318.898,775.591" style="fill-opacity:0.5;fill:rgb(253,0,0);stroke:rgb(253,0,0);stroke-width:2"/>
<polygon points="326.772,775.591" style="fill-opacity:0.5;fill:rgb(51,51,153);stroke:rgb(0,0,0);stroke-width:5"/>
<polygon points="240.157,814.961 248.031,814.961 255.906,822.835 263.78,822.835 271.654,822.835 279.528,822.835 287.402,822.835 295.276,822.835 295.276,830.709 295.276,838.583 303.15,846.457 311.024,846.457 318.898,846.457 326.772,846.457 326.772,854.331 334.646,862.205 342.52,862.205 350.394,870.079 358.268,870.079 366.142,877.953 374.016,877.953 374.016,885.827 366.142,885.827 358.268,893.701 358.268,901.575 366.142,909.449 374.016,909.449 374.016,917.323 366.142,917.323 358.268,925.197 350.394,925.197 342.52,933.071 342.52,940.945 342.52,948.819 334.646,948.819 326.772,956.693 318.898,956.693 311.024,964.567 303.15,964.567 295.276,972.441 287.402,972.441 279.528,972.441 271.654,972.441 271.654,964.567 271.654,956.693 263.78,948.819 255.906,948.819 248.031,940.945 240.157,940.945 232.283,933.071 224.409,933.071 216.535,925.197 208.661,925.197 200.787,917.323 192.913,917.323 192.913,909.449 192.913,901.575 192.913,893.701 192.913,885.827 192.913,877.953 200.787,877.953 208.661,870.079 208.661,862.205 208.661,854.331 216.535,854.331 224.409,846.457 232.283,846.457 240.157,838.583 240.157,830.709 240.157,822.835 240.157,814.961" style="fill-opacity:0.5;fill:rgb(253,0,0);stroke:rgb(253,0,0);stroke-width:2"/>
<polygon points="374.016,917.323 271.654,972.441 192.913,877.953 240.157,814.961 295.276,822.835 374.016,917.323" style="fill-opacity:0.5;fill:rgb(51,51,153);stroke:rgb(0,0,0);stroke-width:5"/>
</svg>
