<?xml version="1.0" standalone="no"?>
<!DOCTYPE svg PUBLIC "-//W3C//DTD SVG 1.1//EN"
"http://www.w3.org/Graphics/SVG/1.1/DTD/svg11.dtd">
<svg width="100%" height="100%" version="1.1"
xmlns="http://www.w3.org/2000/svg"
xmlns:xlink="http://www.w3.org/1999/xlink">
<g fill-rule="evenodd"><path d="M 236.85,5.66929 L 246.929,5.66929 L 257.008,5.66929 L 267.087,5.66929 L 277.165,5.66929 L 287.244,5.66929 L 297.323,5.66929 L 307.402,5.66929 L 317.48,5.66929 L 327.559,5.66929 L 337.638,5.66929 L 347.717,5.66929 L 357.795,5.66929 L 367.874,5.66929 L 377.953,5.66929 L 388.031,5.66929 L 398.11,5.66929 L 408.189,5.66929 L 418.268,5.66929 L 428.346,5.66929 L 438.425,5.66929 L 448.504,5.66929 L 458.583,5.66929 L 448.504,5.66929 L 438.425,15.748 L 428.346,15.748 L 418.268,25.8268 L 418.268,35.9055 L 418.268,45.9843 L 418.268,56.063 L 418.268,66.1417 L 418.268,76.2205 L 418.268,86.2992 L 408.189,86.2992 L 398.11,96.378 L 388.031,96.378 L 377.953,106.457 L 367.874,106.457 L 357.795,106.457 L 347.717,106.457 L 337.638,96.378 L 327.559,96.378 L 317.48,86.2992 L 307.402,86.2992 L 297.323,86.2992 L 287.244,86.2992 L 277.165,86.2992 L 267.087,76.2205 L 257.008,66.1417 L 257.008,56.063 L 257.008,45.9843 L 257.008,35.9055 L 257.008,25.8268 L 246.929,15.748 L 236.85,5.66929 z " style="fill-opacity:0.5;fill:rgb(253,0,0);stroke:rgb(253,0,0);stroke-width:2"/></g>
<g fill-rule="evenodd"><path d="M 458.583,5.66929 L 418.268,25.8268 L 418.268,86.2992 L 377.953,106.457 L 277.165,86.2992 L 236.85,5.66929 L 458.583,5.66929 z " style="fill-opacity:0.5;fill:rgb(51,51,153);stroke:rgb(0,0,0);stroke-width:5"/></g>
<g fill-rule="evenodd"><path d="M 549.291,5.66929 L 559.37,5.66929 L 569.449,5.66929 L 579.528,5.66929 L 589.606,5.66929 L 599.685,5.66929 L 609.764,5.66929 L 619.843,5.66929 L 629.921,5.66929 L 640,5.66929 L 650.079,5.66929 L 660.157,5.66929 L 670.236,5.66929 L 680.315,5.66929 L 690.394,5.66929 L 700.472,5.66929 L 710.551,5.66929 L 720.63,5.66929 L 730.709,5.66929 L 720.63,15.748 L 710.551,25.8268 L 710.551,35.9055 L 720.63,45.9843 L 730.709,56.063 L 730.709,66.1417 L 730.709,76.2205 L 730.709,86.2992 L 730.709,96.378 L 730.709,106.457 L 730.709,116.535 L 730.709,126.614 L 730.709,136.693 L 730.709,146.772 L 740.787,156.85 L 750.866,166.929 L 760.945,166.929 L 771.024,177.008 L 781.102,177.008 L 791.181,187.087 L 801.26,197.165 L 791.181,197.165 L 781.102,207.244 L 781.102,217.323 L 791.181,227.402 L 801.26,227.402 L 791.181,237.48 L 781.102,237.48 L 771.024,247.559 L 760.945,247.559 L 750.866,237.48 L 740.787,237.48 L 730.709,227.402 L 730.709,217.323 L 720.63,207.244 L 710.551,207.244 L 700.472,197.165 L 690.394,197.165 L 680.315,187.087 L 670.236,187.087 L 660.157,177.008 L 650.079,177.008 L 640,166.929 L 629.921,166.929 L 619.843,156.85 L 609.764,156.85 L 599.685,146.772 L 589.606,146.772 L 589.606,136.693 L 589.606,126.614 L 589.606,116.535 L 589.606,106.457 L 589.606,96.378 L 589.606,86.2992 L 589.606,76.2205 L 589.606,66.1417 L 579.528,56.063 L 569.449,56.063 L 569.449,45.9843 L 569.449,35.9055 L 569.449,25.8268 L 569.449,15.748 L 559.37,5.66929 L 549.291,5.66929 z " style="fill-opacity:0.5;fill:rgb(253,0,0);stroke:rgb(253,0,0);stroke-width:2"/></g>
<g fill-rule="evenodd"><path d="M 801.26,227.402 L 760.945,247.559 L 720.63,207.244 L 589.606,146.772 L 589.606,66.1417 L 569.449,56.063 L 569.449,15.748 L 549.291,5.66929 L 730.709,5.66929 L 710.551,25.8268 L 730.709,56.063 L 730.709,146.772 L 801.26,197.165 L 781.102,207.244 L 801.26,227.402 z " style="fill-opacity:0.5;fill:rgb(51,51,153);stroke:rgb(0,0,0);stroke-width:5"/></g>
<g fill-rule="evenodd"><path d="M 952.441,5.66929 L 962.52,5.66929 L 972.598,5.66929 L 982.677,5.66929 L 992.756,5.66929 L 1002.83,5.66929 L 1012.91,5.66929 L 1022.99,5.66929 L 1033.07,5.66929 L 1043.15,5.66929 L 1053.23,5.66929 L 1063.31,5.66929 L 1053.23,5.66929 L 1043.15,5.66929 L 1033.07,15.748 L 1033.07,25.8268 L 1033.07,35.9055 L 1033.07,45.9843 L 1033.07,56.063 L 1033.07,66.1417 L 1033.07,76.2205 L 1033.07,86.2992 L 1033.07,96.378 L 1033.07,106.457 L 1033.07,116.535 L 1033.07,126.614 L 1033.07,136.693 L 1033.07,146.772 L 1033.07,156.85 L 1022.99,166.929 L 1012.91,177.008 L 1012.91,187.087 L 1012.91,197.165 L 1012.91,207.244 L 1012.91,217.323 L 1012.91,227.402 L 1012.91,237.48 L 1012.91,247.559 L 1012.91,257.638 L 1012.91,267.717 L 1012.91,277.795 L 1012.91,287.874 L 1012.91,297.953 L 1012.91,308.031 L 1012.91,318.11 L 1012.91,328.189 L 1022.99,338.268 L 1033.07,338.268 L 1043.15,338.268 L 1053.23,338.268 L 1063.31,338.268 L 1073.39,348.346 L 1083.46,358.425 L 1073.39,358.425 L 1063.31,358.425 L 1053.23,358.425 L 1043.15,368.504 L 1043.15,378.583 L 1043.15,388.661 L 1043.15,398.74 L 1043.15,408.819 L 1043.15,418.898 L 1043.15,428.976 L 1043.15,439.055 L 1053.23,449.134 L 1063.31,449.134 L 1073.39,459.213 L 1083.46,459.213 L 1093.54,469.291 L 1103.62,469.291 L 1113.7,479.37 L 1123.78,479.37 L 1123.78,489.449 L 1123.78,499.528 L 1123.78,509.606 L 1123.78,519.685 L 1123.78,529.764 L 1123.78,539.843 L 1123.78,549.921 L 1123.78,560 L 1113.7,560 L 1103.62,560 L 1093.54,560 L 1083.46,560 L 1073.39,560 L 1063.31,570.079 L 1053.23,570.079 L 1043.15,560 L 1033.07,560 L 1022.99,549.921 L 1012.91,549.921 L 1002.83,539.843 L 992.756,529.764 L 982.677,529.764 L 972.598,529.764 L 962.52,529.764 L 952.441,519.685 L 942.362,509.606 L 932.283,499.528 L 922.205,489.449 L 912.126,489.449 L 902.047,479.37 L 902.047,469.291 L 902.047,459.213 L 902.047,449.134 L 902.047,439.055 L 902.047,428.976 L 902.047,418.898 L 902.047,408.819 L 902.047,398.74 L 902.047,388.661 L 902.047,378.583 L 891.969,368.504 L 881.89,368.504 L 871.811,358.425 L 861.732,358.425 L 851.654,348.346 L 841.575,348.346 L 841.575,338.268 L 841.575,328.189 L 841.575,318.11 L 841.575,308.031 L 841.575,297.953 L 841.575,287.874 L 831.496,277.795 L 821.417,277.795 L 821.417,267.717 L 831.496,267.717 L 841.575,257.638 L 851.654,257.638 L 861.732,247.559 L 861.732,257.638 L 871.811,267.717 L 881.89,267.717 L 891.969,257.638 L 891.969,247.559 L 891.969,237.48 L 891.969,227.402 L 891.969,217.323 L 891.969,207.244 L 891.969,197.165 L 891.969,187.087 L 891.969,177.008 L 891.969,166.929 L 891.969,156.85 L 891.969,146.772 L 881.89,136.693 L 871.811,136.693 L 861.732,146.772 L 851.654,156.85 L 861.732,166.929 L 851.654,166.929 L 841.575,166.929 L 831.496,156.85 L 821.417,146.772 L 831.496,136.693 L 841.575,136.693 L 851.654,126.614 L 861.732,126.614 L 871.811,116.535 L 881.89,116.535 L 891.969,116.535 L 902.047,106.457 L 912.126,96.378 L 922.205,96.378 L 932.283,86.2992 L 942.362,86.2992 L 952.441,76.2205 L 962.52,76.2205 L 972.598,76.2205 L 982.677,66.1417 L 982.677,56.063 L 982.677,45.9843 L 982.677,35.9055 L 972.598,25.8268 L 972.598,15.748 L 962.52,5.66929 L 952.441,5.66929 z " style="fill-opacity:0.5;fill:rgb(253,0,0);stroke:rgb(253,0,0);stroke-width:2"/></g>
<g fill-rule="evenodd"><path d="M 1123.78,560 L 1053.23,570.079 L 992.756,529.764 L 962.52,529.764 L 902.047,479.37 L 902.047,378.583 L 841.575,348.346 L 841.575,287.874 L 821.417,267.717 L 861.732,247.559 L 871.811,267.717 L 891.969,257.638 L 891.969,146.772 L 871.811,136.693 L 851.654,156.85 L 861.732,166.929 L 821.417,146.772 L 982.677,66.1417 L 972.598,15.748 L 952.441,5.66929 L 1063.31,5.66929 L 1033.07,15.748 L 1012.91,328.189 L 1063.31,338.268 L 1083.46,358.425 L 1043.15,368.504 L 1043.15,439.055 L 1123.78,479.37 L 1123.78,560 z " style="fill-opacity:0.5;fill:rgb(51,51,153);stroke:rgb(0,0,0);stroke-width:5"/></g>
<g fill-rule="evenodd"><path d="M 1274.96,5.66929 L 1285.04,5.66929 L 1285.04,15.748 L 1274.96,15.748 L 1274.96,5.66929 z " style="fill-opacity:0.5;fill:rgb(253,0,0);stroke:rgb(253,0,0);stroke-width:2"/></g>
<g fill-rule="evenodd"><path d=" z " style="fill-opacity:0.5;fill:rgb(51,51,153);stroke:rgb(0,0,0);stroke-width:5"/></g>
<g fill-rule="evenodd"><path d="M 186.457,96.378 L 196.535,96.378 L 206.614,96.378 L 216.693,96.378 L 226.772,106.457 L 236.85,116.535 L 226.772,116.535 L 216.693,126.614 L 226.772,136.693 L 236.85,136.693 L 246.929,146.772 L 257.008,146.772 L 267.087,156.85 L 277.165,156.85 L 277.165,166.929 L 277.165,177.008 L 277.165,187.087 L 277.165,197.165 L 277.165,207.244 L 277.165,217.323 L 277.165,227.402 L 277.165,237.48 L 277.165,247.559 L 277.165,257.638 L 277.165,267.717 L 287.244,277.795 L 277.165,287.874 L 267.087,287.874 L 257.008,297.953 L 246.929,297.953 L 236.85,308.031 L 226.772,308.031 L 216.693,297.953 L 206.614,297.953 L 196.535,287.874 L 186.457,287.874 L 176.378,277.795 L 166.299,277.795 L 156.22,277.795 L 146.142,277.795 L 136.063,277.795 L 125.984,277.795 L 115.906,287.874 L 115.906,297.953 L 115.906,308.031 L 125.984,318.11 L 136.063,328.189 L 125.984,328.189 L 115.906,328.189 L 105.827,318.11 L 95.748,308.031 L 95.748,297.953 L 95.748,287.874 L 95.748,277.795 L 85.6693,267.717 L 75.5906,267.717 L 65.5118,267.717 L 55.4331,257.638 L 45.3543,247.559 L 35.2756,247.559 L 35.2756,237.48 L 35.2756,227.402 L 35.2756,217.323 L 35.2756,207.244 L 35.2756,197.165 L 35.2756,187.087 L 35.2756,177.008 L 45.3543,166.929 L 55.4331,166.929 L 65.5118,166.929 L 75.5906,166.929 L 85.6693,177.008 L 95.748,187.087 L 105.827,187.087 L 115.906,187.087 L 125.984,187.087 L 136.063,187.087 L 146.142,177.008 L 156.22,177.008 L 166.299,166.929 L 176.378,156.85 L 166.299,146.772 L 176.378,146.772 L 186.457,136.693 L 186.457,126.614 L 176.378,116.535 L 166.299,106.457 L 176.378,106.457 L 186.457,96.378M 861.732,257.638 L 851.654,267.717 L 841.575,277.795 L 851.654,287.874 L 861.732,287.874 L 871.811,277.795 L 871.811,267.717 L 861.732,257.638 z " style="fill-opacity:0.5;fill:rgb(253,0,0);stroke:rgb(253,0,0);stroke-width:2"/></g>
<g fill-rule="evenodd"><path d="M 115.906,328.189 L 95.748,308.031 L 95.748,277.795 L 35.2756,247.559 L 35.2756,177.008 L 75.5906,166.929 L 95.748,187.087 L 136.063,187.087 L 186.457,136.693 L 166.299,106.457 L 216.693,96.378 L 236.85,116.535 L 216.693,126.614 L 277.165,156.85 L 287.244,277.795 L 236.85,308.031 L 176.378,277.795 L 125.984,277.795 L 115.906,308.031 L 136.063,328.189 L 115.906,328.189M 851.654,287.874 L 871.811,277.795 L 861.732,257.638 L 841.575,277.795 L 851.654,287.874 z " style="fill-opacity:0.5;fill:rgb(51,51,153);stroke:rgb(0,0,0);stroke-width:5"/></g>
<g fill-rule="evenodd"><path d="M 1113.7,297.953 L 1123.78,297.953 L 1133.86,297.953 L 1143.94,297.953 L 1154.02,297.953 L 1164.09,297.953 L 1174.17,297.953 L 1184.25,297.953 L 1194.33,308.031 L 1204.41,308.031 L 1214.49,318.11 L 1224.57,318.11 L 1234.65,328.189 L 1244.72,328.189 L 1254.8,338.268 L 1254.8,348.346 L 1254.8,358.425 L 1254.8,368.504 L 1254.8,378.583 L 1254.8,388.661 L 1254.8,398.74 L 1254.8,408.819 L 1254.8,418.898 L 1254.8,428.976 L 1254.8,439.055 L 1254.8,449.134 L 1254.8,459.213 L 1254.8,469.291 L 1244.72,479.37 L 1234.65,489.449 L 1234.65,499.528 L 1244.72,509.606 L 1254.8,519.685 L 1254.8,529.764 L 1254.8,539.843 L 1254.8,549.921 L 1254.8,560 L 1254.8,570.079 L 1254.8,580.157 L 1254.8,590.236 L 1244.72,600.315 L 1244.72,610.394 L 1254.8,620.472 L 1254.8,630.551 L 1254.8,640.63 L 1254.8,650.709 L 1244.72,650.709 L 1234.65,660.787 L 1244.72,670.866 L 1254.8,680.945 L 1254.8,691.024 L 1254.8,701.102 L 1254.8,711.181 L 1254.8,721.26 L 1254.8,731.339 L 1254.8,741.417 L 1254.8,751.496 L 1254.8,761.575 L 1254.8,771.654 L 1254.8,781.732 L 1254.8,791.811 L 1244.72,801.89 L 1234.65,801.89 L 1224.57,801.89 L 1214.49,791.811 L 1204.41,791.811 L 1194.33,781.732 L 1204.41,781.732 L 1214.49,791.811 L 1224.57,791.811 L 1234.65,781.732 L 1234.65,771.654 L 1234.65,761.575 L 1234.65,751.496 L 1234.65,741.417 L 1234.65,731.339 L 1234.65,721.26 L 1234.65,711.181 L 1234.65,701.102 L 1234.65,691.024 L 1224.57,680.945 L 1214.49,680.945 L 1204.41,670.866 L 1194.33,670.866 L 1184.25,660.787 L 1174.17,660.787 L 1174.17,650.709 L 1174.17,640.63 L 1174.17,630.551 L 1174.17,620.472 L 1184.25,620.472 L 1194.33,610.394 L 1204.41,610.394 L 1214.49,600.315 L 1224.57,600.315 L 1234.65,590.236 L 1234.65,580.157 L 1234.65,570.079 L 1234.65,560 L 1234.65,549.921 L 1234.65,539.843 L 1234.65,529.764 L 1224.57,519.685 L 1214.49,519.685 L 1214.49,509.606 L 1214.49,499.528 L 1214.49,489.449 L 1214.49,479.37 L 1224.57,479.37 L 1234.65,469.291 L 1234.65,459.213 L 1234.65,449.134 L 1234.65,439.055 L 1234.65,428.976 L 1234.65,418.898 L 1234.65,408.819 L 1234.65,398.74 L 1234.65,388.661 L 1234.65,378.583 L 1234.65,368.504 L 1234.65,358.425 L 1234.65,348.346 L 1224.57,338.268 L 1214.49,338.268 L 1204.41,328.189 L 1194.33,328.189 L 1184.25,318.11 L 1174.17,318.11 L 1164.09,318.11 L 1154.02,318.11 L 1143.94,318.11 L 1133.86,318.11 L 1123.78,318.11 L 1113.7,328.189 L 1123.78,338.268 L 1113.7,338.268 L 1103.62,338.268 L 1093.54,328.189 L 1083.46,318.11 L 1093.54,308.031 L 1103.62,308.031 L 1113.7,297.953 z " style="fill-opacity:0.5;fill:rgb(253,0,0);stroke:rgb(253,0,0);stroke-width:2"/></g>
<g fill-rule="evenodd"><path d="M 1244.72,801.89 L 1194.33,781.732 L 1234.65,781.732 L 1234.65,691.024 L 1174.17,660.787 L 1174.17,620.472 L 1234.65,590.236 L 1234.65,529.764 L 1214.49,519.685 L 1214.49,479.37 L 1234.65,469.291 L 1234.65,348.346 L 1184.25,318.11 L 1123.78,318.11 L 1123.78,338.268 L 1103.62,338.268 L 1083.46,318.11 L 1113.7,297.953 L 1184.25,297.953 L 1254.8,338.268 L 1254.8,469.291 L 1234.65,489.449 L 1254.8,519.685 L 1254.8,650.709 L 1234.65,660.787 L 1254.8,680.945 L 1244.72,801.89 z " style="fill-opacity:0.5;fill:rgb(51,51,153);stroke:rgb(0,0,0);stroke-width:5"/></g>
<g fill-rule="evenodd"><path d="M 327.559,308.031 L 337.638,308.031 L 347.717,308.031 L 357.795,308.031 L 367.874,318.11 L 377.953,318.11 L 388.031,328.189 L 377.953,338.268 L 367.874,338.268 L 357.795,348.346 L 347.717,348.346 L 337.638,358.425 L 327.559,358.425 L 317.48,348.346 L 307.402,348.346 L 297.323,338.268 L 287.244,338.268 L 287.244,328.189 L 297.323,328.189 L 307.402,318.11 L 317.48,318.11 L 327.559,308.031 z " style="fill-opacity:0.5;fill:rgb(253,0,0);stroke:rgb(253,0,0);stroke-width:2"/></g>
<g fill-rule="evenodd"><path d="M 388.031,328.189 L 337.638,358.425 L 287.244,338.268 L 327.559,308.031 L 388.031,328.189 z " style="fill-opacity:0.5;fill:rgb(51,51,153);stroke:rgb(0,0,0);stroke-width:5"/></g>
<g fill-rule="evenodd"><path d="M 549.291,308.031 L 559.37,318.11 L 569.449,318.11 L 579.528,328.189 L 589.606,328.189 L 589.606,338.268 L 579.528,348.346 L 569.449,358.425 L 569.449,368.504 L 569.449,378.583 L 569.449,388.661 L 569.449,398.74 L 569.449,408.819 L 569.449,418.898 L 569.449,428.976 L 569.449,439.055 L 569.449,449.134 L 579.528,459.213 L 589.606,469.291 L 579.528,479.37 L 569.449,489.449 L 559.37,489.449 L 549.291,489.449 L 539.213,489.449 L 529.134,489.449 L 519.055,499.528 L 508.976,499.528 L 498.898,499.528 L 488.819,499.528 L 478.74,499.528 L 468.661,499.528 L 458.583,509.606 L 448.504,509.606 L 438.425,499.528 L 428.346,499.528 L 418.268,489.449 L 408.189,489.449 L 398.11,479.37 L 388.031,469.291 L 388.031,459.213 L 388.031,449.134 L 388.031,439.055 L 388.031,428.976 L 388.031,418.898 L 388.031,408.819 L 388.031,398.74 L 388.031,388.661 L 388.031,378.583 L 398.11,378.583 L 408.189,368.504 L 418.268,368.504 L 428.346,358.425 L 438.425,358.425 L 448.504,348.346 L 458.583,348.346 L 468.661,338.268 L 478.74,338.268 L 488.819,328.189 L 498.898,328.189 L 508.976,328.189 L 519.055,328.189 L 529.134,338.268 L 539.213,338.268 L 549.291,348.346 L 559.37,348.346 L 569.449,338.268 L 559.37,328.189 L 549.291,318.11 L 549.291,308.031 z " style="fill-opacity:0.5;fill:rgb(253,0,0);stroke:rgb(253,0,0);stroke-width:2"/></g>
<g fill-rule="evenodd"><path d="M 408.189,489.449 L 388.031,469.291 L 388.031,378.583 L 488.819,328.189 L 559.37,348.346 L 569.449,338.268 L 549.291,308.031 L 589.606,328.189 L 569.449,358.425 L 569.449,449.134 L 589.606,469.291 L 569.449,489.449 L 458.583,509.606 L 408.189,489.449 z " style="fill-opacity:0.5;fill:rgb(51,51,153);stroke:rgb(0,0,0);stroke-width:5"/></g>
<g fill-rule="evenodd"><path d="M 45.3543,328.189 L 55.4331,328.189 L 65.5118,328.189 L 75.5906,328.189 L 85.6693,338.268 L 95.748,348.346 L 85.6693,348.346 L 75.5906,348.346 L 65.5118,348.346 L 55.4331,358.425 L 55.4331,368.504 L 55.4331,378.583 L 55.4331,388.661 L 55.4331,398.74 L 55.4331,408.819 L 55.4331,418.898 L 55.4331,428.976 L 55.4331,439.055 L 55.4331,449.134 L 65.5118,459.213 L 75.5906,459.213 L 85.6693,469.291 L 95.748,469.291 L 105.827,479.37 L 115.906,479.37 L 115.906,489.449 L 115.906,499.528 L 115.906,509.606 L 115.906,519.685 L 105.827,519.685 L 95.748,529.764 L 85.6693,529.764 L 75.5906,539.843 L 65.5118,539.843 L 55.4331,549.921 L 55.4331,560 L 55.4331,570.079 L 55.4331,580.157 L 55.4331,590.236 L 55.4331,600.315 L 55.4331,610.394 L 65.5118,620.472 L 75.5906,620.472 L 75.5906,630.551 L 75.5906,640.63 L 75.5906,650.709 L 75.5906,660.787 L 65.5118,660.787 L 55.4331,670.866 L 55.4331,680.945 L 55.4331,691.024 L 55.4331,701.102 L 55.4331,711.181 L 55.4331,721.26 L 55.4331,731.339 L 55.4331,741.417 L 55.4331,751.496 L 55.4331,761.575 L 55.4331,771.654 L 55.4331,781.732 L 55.4331,791.811 L 65.5118,801.89 L 75.5906,801.89 L 85.6693,811.969 L 95.748,811.969 L 105.827,822.047 L 115.906,822.047 L 125.984,822.047 L 136.063,822.047 L 146.142,822.047 L 156.22,822.047 L 166.299,822.047 L 176.378,822.047 L 186.457,811.969 L 176.378,801.89 L 166.299,791.811 L 166.299,781.732 L 176.378,791.811 L 186.457,791.811 L 196.535,801.89 L 206.614,801.89 L 206.614,811.969 L 196.535,811.969 L 186.457,822.047 L 176.378,832.126 L 166.299,832.126 L 156.22,832.126 L 146.142,822.047 L 136.063,822.047 L 125.984,832.126 L 115.906,832.126 L 105.827,822.047 L 95.748,822.047 L 85.6693,822.047 L 75.5906,811.969 L 65.5118,811.969 L 55.4331,801.89 L 45.3543,801.89 L 35.2756,791.811 L 35.2756,781.732 L 35.2756,771.654 L 35.2756,761.575 L 35.2756,751.496 L 35.2756,741.417 L 35.2756,731.339 L 35.2756,721.26 L 35.2756,711.181 L 35.2756,701.102 L 35.2756,691.024 L 35.2756,680.945 L 35.2756,670.866 L 35.2756,660.787 L 45.3543,650.709 L 55.4331,640.63 L 55.4331,630.551 L 55.4331,620.472 L 45.3543,610.394 L 35.2756,610.394 L 35.2756,600.315 L 35.2756,590.236 L 35.2756,580.157 L 35.2756,570.079 L 35.2756,560 L 35.2756,549.921 L 35.2756,539.843 L 45.3543,529.764 L 45.3543,519.685 L 35.2756,509.606 L 35.2756,499.528 L 35.2756,489.449 L 35.2756,479.37 L 45.3543,469.291 L 55.4331,459.213 L 45.3543,449.134 L 35.2756,449.134 L 35.2756,439.055 L 35.2756,428.976 L 35.2756,418.898 L 35.2756,408.819 L 35.2756,398.74 L 35.2756,388.661 L 35.2756,378.583 L 35.2756,368.504 L 35.2756,358.425 L 35.2756,348.346 L 35.2756,338.268 L 45.3543,328.189 z " style="fill-opacity:0.5;fill:rgb(253,0,0);stroke:rgb(253,0,0);stroke-width:2"/></g>
<g fill-rule="evenodd"><path d="M 176.378,832.126 L 115.906,832.126 L 35.2756,791.811 L 35.2756,660.787 L 55.4331,640.63 L 55.4331,620.472 L 35.2756,610.394 L 35.2756,479.37 L 55.4331,459.213 L 35.2756,449.134 L 45.3543,328.189 L 75.5906,328.189 L 95.748,348.346 L 55.4331,358.425 L 55.4331,449.134 L 115.906,479.37 L 115.906,519.685 L 55.4331,549.921 L 55.4331,610.394 L 75.5906,620.472 L 75.5906,660.787 L 55.4331,670.866 L 55.4331,791.811 L 105.827,822.047 L 176.378,822.047 L 186.457,811.969 L 166.299,781.732 L 206.614,801.89 L 176.378,832.126 z " style="fill-opacity:0.5;fill:rgb(51,51,153);stroke:rgb(0,0,0);stroke-width:5"/></g>
<g fill-rule="evenodd"><path d="M 327.559,509.606 L 337.638,509.606 L 347.717,509.606 L 357.795,509.606 L 367.874,519.685 L 377.953,519.685 L 388.031,529.764 L 398.11,529.764 L 398.11,539.843 L 388.031,539.843 L 377.953,549.921 L 367.874,549.921 L 357.795,560 L 347.717,560 L 337.638,549.921 L 327.559,549.921 L 317.48,539.843 L 307.402,539.843 L 297.323,529.764 L 307.402,519.685 L 317.48,519.685 L 327.559,509.606 z " style="fill-opacity:0.5;fill:rgb(253,0,0);stroke:rgb(253,0,0);stroke-width:2"/></g>
<g fill-rule="evenodd"><path d="M 398.11,539.843 L 347.717,560 L 297.323,529.764 L 357.795,509.606 L 398.11,539.843 z " style="fill-opacity:0.5;fill:rgb(51,51,153);stroke:rgb(0,0,0);stroke-width:5"/></g>
<g fill-rule="evenodd"><path d="M 226.772,560 L 236.85,560 L 246.929,560 L 257.008,560 L 267.087,570.079 L 277.165,570.079 L 287.244,580.157 L 297.323,580.157 L 307.402,590.236 L 317.48,600.315 L 327.559,600.315 L 337.638,610.394 L 347.717,610.394 L 347.717,620.472 L 357.795,630.551 L 367.874,640.63 L 377.953,640.63 L 388.031,650.709 L 388.031,660.787 L 388.031,670.866 L 388.031,680.945 L 388.031,691.024 L 388.031,701.102 L 388.031,711.181 L 388.031,721.26 L 388.031,731.339 L 388.031,741.417 L 398.11,751.496 L 408.189,761.575 L 418.268,761.575 L 428.346,771.654 L 438.425,771.654 L 448.504,781.732 L 448.504,791.811 L 448.504,801.89 L 448.504,811.969 L 448.504,822.047 L 448.504,832.126 L 458.583,842.205 L 468.661,852.283 L 458.583,862.362 L 448.504,872.441 L 438.425,872.441 L 428.346,872.441 L 418.268,872.441 L 408.189,872.441 L 398.11,882.52 L 398.11,892.598 L 398.11,902.677 L 398.11,912.756 L 398.11,922.835 L 398.11,932.913 L 398.11,942.992 L 398.11,953.071 L 398.11,963.15 L 398.11,973.228 L 398.11,983.307 L 398.11,993.386 L 408.189,1003.46 L 418.268,1003.46 L 428.346,993.386 L 438.425,993.386 L 448.504,983.307 L 438.425,973.228 L 428.346,963.15 L 428.346,953.071 L 438.425,963.15 L 448.504,963.15 L 458.583,973.228 L 468.661,973.228 L 468.661,983.307 L 458.583,993.386 L 448.504,993.386 L 438.425,993.386 L 428.346,1003.46 L 418.268,1013.54 L 408.189,1013.54 L 398.11,1013.54 L 388.031,1023.62 L 377.953,1033.7 L 367.874,1033.7 L 357.795,1033.7 L 347.717,1043.78 L 337.638,1043.78 L 327.559,1053.86 L 317.48,1053.86 L 307.402,1063.94 L 307.402,1074.02 L 307.402,1084.09 L 317.48,1094.17 L 307.402,1104.25 L 317.48,1114.33 L 327.559,1124.41 L 337.638,1124.41 L 347.717,1124.41 L 357.795,1124.41 L 367.874,1124.41 L 377.953,1124.41 L 388.031,1124.41 L 398.11,1124.41 L 408.189,1124.41 L 418.268,1124.41 L 428.346,1124.41 L 438.425,1124.41 L 448.504,1124.41 L 458.583,1124.41 L 468.661,1124.41 L 478.74,1124.41 L 488.819,1124.41 L 498.898,1124.41 L 508.976,1124.41 L 519.055,1124.41 L 529.134,1124.41 L 539.213,1124.41 L 549.291,1124.41 L 559.37,1124.41 L 569.449,1114.33 L 579.528,1104.25 L 579.528,1094.17 L 569.449,1084.09 L 559.37,1074.02 L 559.37,1063.94 L 559.37,1053.86 L 559.37,1043.78 L 559.37,1033.7 L 559.37,1023.62 L 559.37,1013.54 L 559.37,1003.46 L 559.37,993.386 L 559.37,983.307 L 549.291,973.228 L 539.213,963.15 L 529.134,953.071 L 519.055,953.071 L 508.976,942.992 L 498.898,942.992 L 488.819,932.913 L 498.898,932.913 L 508.976,922.835 L 508.976,912.756 L 498.898,902.677 L 488.819,902.677 L 498.898,892.598 L 508.976,882.52 L 519.055,882.52 L 529.134,882.52 L 539.213,882.52 L 549.291,892.598 L 559.37,902.677 L 549.291,902.677 L 539.213,912.756 L 549.291,922.835 L 559.37,922.835 L 569.449,932.913 L 579.528,932.913 L 589.606,942.992 L 599.685,942.992 L 609.764,953.071 L 619.843,953.071 L 629.921,963.15 L 640,963.15 L 650.079,973.228 L 660.157,973.228 L 670.236,983.307 L 680.315,983.307 L 690.394,993.386 L 700.472,993.386 L 700.472,1003.46 L 700.472,1013.54 L 700.472,1023.62 L 700.472,1033.7 L 700.472,1043.78 L 700.472,1053.86 L 700.472,1063.94 L 700.472,1074.02 L 710.551,1084.09 L 720.63,1084.09 L 720.63,1094.17 L 720.63,1104.25 L 720.63,1114.33 L 730.709,1124.41 L 740.787,1124.41 L 750.866,1124.41 L 760.945,1124.41 L 771.024,1124.41 L 781.102,1124.41 L 791.181,1124.41 L 801.26,1124.41 L 811.339,1124.41 L 821.417,1124.41 L 831.496,1124.41 L 841.575,1124.41 L 851.654,1124.41 L 861.732,1124.41 L 871.811,1114.33 L 871.811,1104.25 L 871.811,1094.17 L 871.811,1084.09 L 871.811,1074.02 L 881.89,1074.02 L 891.969,1063.94 L 881.89,1053.86 L 871.811,1053.86 L 871.811,1043.78 L 881.89,1043.78 L 891.969,1033.7 L 902.047,1033.7 L 912.126,1023.62 L 922.205,1023.62 L 932.283,1023.62 L 942.362,1023.62 L 952.441,1033.7 L 962.52,1033.7 L 972.598,1043.78 L 982.677,1043.78 L 992.756,1033.7 L 1002.83,1043.78 L 1012.91,1043.78 L 1022.99,1053.86 L 1033.07,1053.86 L 1033.07,1063.94 L 1033.07,1074.02 L 1033.07,1084.09 L 1033.07,1094.17 L 1033.07,1104.25 L 1043.15,1114.33 L 1053.23,1124.41 L 1063.31,1124.41 L 1073.39,1124.41 L 1083.46,1124.41 L 1093.54,1124.41 L 1103.62,1124.41 L 1113.7,1124.41 L 1123.78,1124.41 L 1133.86,1124.41 L 1143.94,1124.41 L 1154.02,1124.41 L 1164.09,1124.41 L 1174.17,1124.41 L 1184.25,1124.41 L 1194.33,1124.41 L 1204.41,1124.41 L 1214.49,1124.41 L 1224.57,1124.41 L 1234.65,1124.41 L 1244.72,1114.33 L 1254.8,1114.33 L 1264.88,1114.33 L 1274.96,1114.33 L 1285.04,1114.33 L 1285.04,1124.41 L 1274.96,1124.41 L 1264.88,1124.41 L 1254.8,1124.41 L 1244.72,1124.41 L 1234.65,1124.41 L 1224.57,1124.41 L 1214.49,1124.41 L 1204.41,1124.41 L 1194.33,1124.41 L 1184.25,1124.41 L 1174.17,1124.41 L 1164.09,1124.41 L 1154.02,1124.41 L 1143.94,1124.41 L 1133.86,1124.41 L 1123.78,1124.41 L 1113.7,1124.41 L 1103.62,1124.41 L 1093.54,1124.41 L 1083.46,1124.41 L 1073.39,1124.41 L 1063.31,1124.41 L 1053.23,1124.41 L 1043.15,1124.41 L 1033.07,1124.41 L 1022.99,1124.41 L 1012.91,1124.41 L 1002.83,1124.41 L 992.756,1124.41 L 982.677,1124.41 L 972.598,1124.41 L 962.52,1124.41 L 952.441,1124.41 L 942.362,1124.41 L 932.283,1124.41 L 922.205,1124.41 L 912.126,1124.41 L 902.047,1124.41 L 891.969,1124.41 L 881.89,1124.41 L 871.811,1124.41 L 861.732,1124.41 L 851.654,1124.41 L 841.575,1124.41 L 831.496,1124.41 L 821.417,1124.41 L 811.339,1124.41 L 801.26,1124.41 L 791.181,1124.41 L 781.102,1124.41 L 771.024,1124.41 L 760.945,1124.41 L 750.866,1124.41 L 740.787,1124.41 L 730.709,1124.41 L 720.63,1124.41 L 710.551,1124.41 L 700.472,1124.41 L 690.394,1124.41 L 680.315,1124.41 L 670.236,1124.41 L 660.157,1124.41 L 650.079,1124.41 L 640,1124.41 L 629.921,1124.41 L 619.843,1124.41 L 609.764,1124.41 L 599.685,1124.41 L 589.606,1124.41 L 579.528,1124.41 L 569.449,1124.41 L 559.37,1124.41 L 549.291,1124.41 L 539.213,1124.41 L 529.134,1124.41 L 519.055,1124.41 L 508.976,1124.41 L 498.898,1124.41 L 488.819,1124.41 L 478.74,1124.41 L 468.661,1124.41 L 458.583,1124.41 L 448.504,1124.41 L 438.425,1124.41 L 428.346,1124.41 L 418.268,1124.41 L 408.189,1124.41 L 398.11,1124.41 L 388.031,1124.41 L 377.953,1124.41 L 367.874,1124.41 L 357.795,1124.41 L 347.717,1124.41 L 337.638,1124.41 L 327.559,1124.41 L 317.48,1124.41 L 307.402,1124.41 L 297.323,1124.41 L 287.244,1124.41 L 277.165,1124.41 L 267.087,1124.41 L 257.008,1124.41 L 246.929,1124.41 L 236.85,1124.41 L 226.772,1124.41 L 216.693,1124.41 L 206.614,1124.41 L 196.535,1124.41 L 186.457,1124.41 L 176.378,1124.41 L 166.299,1124.41 L 156.22,1124.41 L 146.142,1124.41 L 136.063,1124.41 L 125.984,1124.41 L 115.906,1124.41 L 105.827,1124.41 L 95.748,1124.41 L 85.6693,1124.41 L 75.5906,1124.41 L 65.5118,1124.41 L 55.4331,1124.41 L 45.3543,1124.41 L 35.2756,1124.41 L 25.1969,1124.41 L 15.1181,1124.41 L 5.03937,1124.41 L 5.03937,1114.33 L 15.1181,1114.33 L 25.1969,1114.33 L 35.2756,1114.33 L 45.3543,1114.33 L 55.4331,1124.41 L 65.5118,1124.41 L 75.5906,1124.41 L 85.6693,1124.41 L 95.748,1124.41 L 105.827,1124.41 L 115.906,1124.41 L 125.984,1124.41 L 136.063,1124.41 L 146.142,1124.41 L 156.22,1124.41 L 166.299,1124.41 L 176.378,1124.41 L 186.457,1124.41 L 196.535,1124.41 L 206.614,1124.41 L 216.693,1124.41 L 226.772,1124.41 L 236.85,1124.41 L 246.929,1114.33 L 257.008,1104.25 L 257.008,1094.17 L 257.008,1084.09 L 257.008,1074.02 L 257.008,1063.94 L 257.008,1053.86 L 257.008,1043.78 L 257.008,1033.7 L 257.008,1023.62 L 257.008,1013.54 L 257.008,1003.46 L 257.008,993.386 L 257.008,983.307 L 257.008,973.228 L 267.087,963.15 L 277.165,953.071 L 277.165,942.992 L 277.165,932.913 L 277.165,922.835 L 277.165,912.756 L 277.165,902.677 L 277.165,892.598 L 277.165,882.52 L 277.165,872.441 L 277.165,862.362 L 277.165,852.283 L 277.165,842.205 L 277.165,832.126 L 277.165,822.047 L 277.165,811.969 L 277.165,801.89 L 277.165,791.811 L 267.087,781.732 L 257.008,791.811 L 246.929,791.811 L 236.85,791.811 L 226.772,781.732 L 216.693,781.732 L 206.614,771.654 L 216.693,771.654 L 226.772,781.732 L 236.85,781.732 L 246.929,771.654 L 246.929,761.575 L 246.929,751.496 L 246.929,741.417 L 246.929,731.339 L 246.929,721.26 L 246.929,711.181 L 246.929,701.102 L 236.85,691.024 L 226.772,691.024 L 216.693,680.945 L 206.614,680.945 L 196.535,670.866 L 186.457,670.866 L 176.378,660.787 L 166.299,660.787 L 166.299,650.709 L 166.299,640.63 L 166.299,630.551 L 166.299,620.472 L 166.299,610.394 L 166.299,600.315 L 166.299,590.236 L 166.299,580.157 L 176.378,580.157 L 186.457,580.157 L 196.535,580.157 L 206.614,570.079 L 216.693,570.079 L 226.772,560 z " style="fill-opacity:0.5;fill:rgb(253,0,0);stroke:rgb(253,0,0);stroke-width:2"/></g>
<g fill-rule="evenodd"><path d="M 1285.04,1124.41 L 5.03937,1114.33 L 236.85,1124.41 L 257.008,1104.25 L 257.008,973.228 L 277.165,953.071 L 277.165,791.811 L 236.85,791.811 L 206.614,771.654 L 246.929,771.654 L 246.929,701.102 L 166.299,660.787 L 166.299,580.157 L 257.008,560 L 347.717,610.394 L 388.031,650.709 L 388.031,741.417 L 448.504,781.732 L 448.504,832.126 L 468.661,852.283 L 448.504,872.441 L 398.11,882.52 L 398.11,993.386 L 418.268,1003.46 L 448.504,983.307 L 428.346,953.071 L 468.661,983.307 L 317.48,1053.86 L 307.402,1104.25 L 327.559,1124.41 L 559.37,1124.41 L 579.528,1104.25 L 559.37,1074.02 L 559.37,983.307 L 488.819,932.913 L 508.976,922.835 L 488.819,902.677 L 508.976,882.52 L 539.213,882.52 L 559.37,902.677 L 539.213,912.756 L 549.291,922.835 L 700.472,993.386 L 700.472,1074.02 L 720.63,1084.09 L 730.709,1124.41 L 861.732,1124.41 L 871.811,1074.02 L 891.969,1063.94 L 871.811,1043.78 L 912.126,1023.62 L 1033.07,1053.86 L 1033.07,1104.25 L 1053.23,1124.41 L 1285.04,1124.41 z " style="fill-opacity:0.5;fill:rgb(51,51,153);stroke:rgb(0,0,0);stroke-width:5"/></g>
<g fill-rule="evenodd"><path d="M 932.283,570.079 L 942.362,570.079 L 952.441,570.079 L 962.52,570.079 L 972.598,580.157 L 982.677,580.157 L 992.756,590.236 L 1002.83,590.236 L 1002.83,600.315 L 992.756,600.315 L 982.677,610.394 L 972.598,610.394 L 962.52,620.472 L 952.441,620.472 L 942.362,610.394 L 932.283,610.394 L 922.205,600.315 L 912.126,600.315 L 902.047,590.236 L 912.126,580.157 L 922.205,580.157 L 932.283,570.079 z " style="fill-opacity:0.5;fill:rgb(253,0,0);stroke:rgb(253,0,0);stroke-width:2"/></g>
<g fill-rule="evenodd"><path d="M 1002.83,600.315 L 952.441,620.472 L 902.047,590.236 L 962.52,570.079 L 1002.83,600.315 z " style="fill-opacity:0.5;fill:rgb(51,51,153);stroke:rgb(0,0,0);stroke-width:5"/></g>
<g fill-rule="evenodd"><path d="M 831.496,620.472 L 841.575,620.472 L 851.654,620.472 L 861.732,620.472 L 871.811,630.551 L 881.89,630.551 L 891.969,640.63 L 902.047,640.63 L 902.047,650.709 L 902.047,660.787 L 902.047,670.866 L 902.047,680.945 L 902.047,691.024 L 902.047,701.102 L 902.047,711.181 L 902.047,721.26 L 902.047,731.339 L 902.047,741.417 L 912.126,751.496 L 902.047,761.575 L 891.969,761.575 L 881.89,771.654 L 871.811,771.654 L 861.732,781.732 L 851.654,781.732 L 841.575,781.732 L 831.496,781.732 L 821.417,791.811 L 811.339,791.811 L 801.26,801.89 L 791.181,801.89 L 781.102,801.89 L 771.024,801.89 L 760.945,791.811 L 750.866,791.811 L 740.787,791.811 L 730.709,801.89 L 740.787,811.969 L 730.709,811.969 L 720.63,811.969 L 710.551,801.89 L 700.472,791.811 L 710.551,781.732 L 720.63,771.654 L 720.63,761.575 L 720.63,751.496 L 720.63,741.417 L 720.63,731.339 L 720.63,721.26 L 720.63,711.181 L 720.63,701.102 L 720.63,691.024 L 720.63,680.945 L 720.63,670.866 L 710.551,660.787 L 700.472,660.787 L 700.472,650.709 L 710.551,650.709 L 720.63,640.63 L 730.709,640.63 L 740.787,630.551 L 750.866,640.63 L 760.945,640.63 L 771.024,630.551 L 781.102,630.551 L 791.181,630.551 L 801.26,630.551 L 811.339,630.551 L 821.417,630.551 L 831.496,620.472 z " style="fill-opacity:0.5;fill:rgb(253,0,0);stroke:rgb(253,0,0);stroke-width:2"/></g>
<g fill-rule="evenodd"><path d="M 720.63,811.969 L 700.472,791.811 L 720.63,771.654 L 720.63,670.866 L 700.472,650.709 L 740.787,630.551 L 760.945,640.63 L 831.496,620.472 L 902.047,640.63 L 902.047,761.575 L 801.26,801.89 L 740.787,791.811 L 740.787,811.969 L 720.63,811.969 z " style="fill-opacity:0.5;fill:rgb(51,51,153);stroke:rgb(0,0,0);stroke-width:5"/></g>
<g fill-rule="evenodd"><path d="M 952.441,781.732 L 962.52,781.732 L 972.598,781.732 L 982.677,781.732 L 992.756,791.811 L 1002.83,791.811 L 1012.91,801.89 L 1002.83,811.969 L 992.756,811.969 L 982.677,822.047 L 972.598,822.047 L 962.52,832.126 L 952.441,832.126 L 942.362,822.047 L 932.283,822.047 L 922.205,811.969 L 912.126,811.969 L 912.126,801.89 L 922.205,801.89 L 932.283,791.811 L 942.362,791.811 L 952.441,781.732 z " style="fill-opacity:0.5;fill:rgb(253,0,0);stroke:rgb(253,0,0);stroke-width:2"/></g>
<g fill-rule="evenodd"><path d="M 1012.91,801.89 L 962.52,832.126 L 912.126,811.969 L 952.441,781.732 L 1012.91,801.89 z " style="fill-opacity:0.5;fill:rgb(51,51,153);stroke:rgb(0,0,0);stroke-width:5"/></g>
<g fill-rule="evenodd"><path d="M 1154.02,791.811 L 1164.09,801.89 L 1174.17,801.89 L 1184.25,811.969 L 1194.33,811.969 L 1194.33,822.047 L 1194.33,832.126 L 1194.33,842.205 L 1194.33,852.283 L 1204.41,862.362 L 1214.49,862.362 L 1224.57,862.362 L 1234.65,872.441 L 1244.72,872.441 L 1254.8,882.52 L 1254.8,892.598 L 1254.8,902.677 L 1254.8,912.756 L 1254.8,922.835 L 1254.8,932.913 L 1254.8,942.992 L 1254.8,953.071 L 1244.72,953.071 L 1234.65,963.15 L 1224.57,963.15 L 1214.49,963.15 L 1204.41,953.071 L 1194.33,942.992 L 1184.25,942.992 L 1174.17,932.913 L 1164.09,942.992 L 1154.02,942.992 L 1143.94,953.071 L 1133.86,953.071 L 1123.78,963.15 L 1123.78,973.228 L 1113.7,983.307 L 1103.62,983.307 L 1093.54,993.386 L 1103.62,1003.46 L 1113.7,1013.54 L 1113.7,1023.62 L 1103.62,1023.62 L 1093.54,1033.7 L 1083.46,1033.7 L 1073.39,1023.62 L 1063.31,1023.62 L 1053.23,1013.54 L 1053.23,1003.46 L 1043.15,993.386 L 1033.07,993.386 L 1022.99,983.307 L 1012.91,983.307 L 1012.91,973.228 L 1012.91,963.15 L 1012.91,953.071 L 1012.91,942.992 L 1012.91,932.913 L 1012.91,922.835 L 1012.91,912.756 L 1012.91,902.677 L 1012.91,892.598 L 1012.91,882.52 L 1022.99,882.52 L 1033.07,872.441 L 1022.99,862.362 L 1012.91,862.362 L 1012.91,852.283 L 1022.99,852.283 L 1033.07,842.205 L 1043.15,842.205 L 1053.23,832.126 L 1063.31,832.126 L 1073.39,832.126 L 1083.46,832.126 L 1093.54,842.205 L 1103.62,842.205 L 1113.7,852.283 L 1123.78,852.283 L 1133.86,862.362 L 1143.94,862.362 L 1154.02,852.283 L 1164.09,852.283 L 1174.17,842.205 L 1174.17,832.126 L 1174.17,822.047 L 1164.09,811.969 L 1154.02,801.89 L 1154.02,791.811M 428.346,852.283 L 418.268,862.362 L 428.346,872.441 L 438.425,862.362 L 428.346,852.283 z " style="fill-opacity:0.5;fill:rgb(253,0,0);stroke:rgb(253,0,0);stroke-width:2"/></g>
<g fill-rule="evenodd"><path d="M 1083.46,1033.7 L 1012.91,983.307 L 1012.91,882.52 L 1033.07,872.441 L 1012.91,852.283 L 1083.46,832.126 L 1143.94,862.362 L 1174.17,842.205 L 1154.02,791.811 L 1194.33,811.969 L 1204.41,862.362 L 1254.8,882.52 L 1254.8,953.071 L 1214.49,963.15 L 1174.17,932.913 L 1093.54,993.386 L 1113.7,1023.62 L 1083.46,1033.7 z " style="fill-opacity:0.5;fill:rgb(51,51,153);stroke:rgb(0,0,0);stroke-width:5"/></g>
</svg>
