<?xml version="1.0" standalone="no"?>
<!DOCTYPE svg PUBLIC "-//W3C//DTD SVG 1.1//EN"
"http://www.w3.org/Graphics/SVG/1.1/DTD/svg11.dtd">
<svg width="100%" height="100%" version="1.1"
xmlns="http://www.w3.org/2000/svg"
xmlns:xlink="http://www.w3.org/1999/xlink">
<g fill-rule="evenodd"><path d="M 213.165,5.10236 L 222.236,5.10236 L 231.307,5.10236 L 240.378,5.10236 L 249.449,5.10236 L 258.52,5.10236 L 267.591,5.10236 L 276.661,5.10236 L 285.732,5.10236 L 294.803,5.10236 L 303.874,5.10236 L 312.945,5.10236 L 322.016,5.10236 L 331.087,5.10236 L 340.157,5.10236 L 349.228,5.10236 L 358.299,5.10236 L 367.37,5.10236 L 376.441,5.10236 L 385.512,5.10236 L 394.583,5.10236 L 403.654,5.10236 L 412.724,5.10236 L 403.654,5.10236 L 394.583,14.1732 L 385.512,14.1732 L 376.441,23.2441 L 376.441,32.315 L 376.441,41.3858 L 376.441,50.4567 L 376.441,59.5276 L 376.441,68.5984 L 376.441,77.6693 L 367.37,77.6693 L 358.299,86.7402 L 349.228,86.7402 L 340.157,95.811 L 331.087,95.811 L 322.016,95.811 L 312.945,95.811 L 303.874,86.7402 L 294.803,86.7402 L 285.732,77.6693 L 276.661,77.6693 L 267.591,77.6693 L 258.52,77.6693 L 249.449,77.6693 L 240.378,68.5984 L 231.307,59.5276 L 231.307,50.4567 L 231.307,41.3858 L 231.307,32.315 L 231.307,23.2441 L 222.236,14.1732 L 213.165,5.10236 z " style="fill-opacity:0.5;fill:rgb(253,0,0);stroke:rgb(253,0,0);stroke-width:2"/></g>
<g fill-rule="evenodd"><path d="M 412.724,5.10236 L 213.165,5.10236 L 249.449,77.6693 L 285.732,77.6693 L 312.945,95.811 L 376.441,77.6693 L 376.441,23.2441 L 412.724,5.10236 z " style="fill-opacity:0.5;fill:rgb(0,253,0);stroke:rgb(0,0,0);stroke-width:5"/></g>
<g fill-rule="evenodd"><path d="M 494.362,5.10236 L 503.433,5.10236 L 512.504,5.10236 L 521.575,5.10236 L 530.646,5.10236 L 539.717,5.10236 L 548.787,5.10236 L 557.858,5.10236 L 566.929,5.10236 L 576,5.10236 L 585.071,5.10236 L 594.142,5.10236 L 603.213,5.10236 L 612.283,5.10236 L 621.354,5.10236 L 630.425,5.10236 L 639.496,5.10236 L 648.567,5.10236 L 657.638,5.10236 L 648.567,14.1732 L 639.496,23.2441 L 639.496,32.315 L 648.567,41.3858 L 657.638,50.4567 L 657.638,59.5276 L 657.638,68.5984 L 657.638,77.6693 L 657.638,86.7402 L 657.638,95.811 L 657.638,104.882 L 657.638,113.953 L 657.638,123.024 L 657.638,132.094 L 666.709,141.165 L 675.78,150.236 L 684.85,150.236 L 693.921,159.307 L 702.992,159.307 L 712.063,168.378 L 721.134,177.449 L 712.063,177.449 L 702.992,186.52 L 702.992,195.591 L 712.063,204.661 L 721.134,204.661 L 712.063,213.732 L 702.992,213.732 L 693.921,222.803 L 684.85,222.803 L 675.78,213.732 L 666.709,213.732 L 657.638,204.661 L 657.638,195.591 L 648.567,186.52 L 639.496,186.52 L 630.425,177.449 L 621.354,177.449 L 612.283,168.378 L 603.213,168.378 L 594.142,159.307 L 585.071,159.307 L 576,150.236 L 566.929,150.236 L 557.858,141.165 L 548.787,141.165 L 539.717,132.094 L 530.646,132.094 L 530.646,123.024 L 530.646,113.953 L 530.646,104.882 L 530.646,95.811 L 530.646,86.7402 L 530.646,77.6693 L 530.646,68.5984 L 530.646,59.5276 L 521.575,50.4567 L 512.504,50.4567 L 512.504,41.3858 L 512.504,32.315 L 512.504,23.2441 L 512.504,14.1732 L 503.433,5.10236 L 494.362,5.10236 z " style="fill-opacity:0.5;fill:rgb(253,0,0);stroke:rgb(253,0,0);stroke-width:2"/></g>
<g fill-rule="evenodd"><path d="M 721.134,204.661 L 702.992,195.591 L 721.134,177.449 L 657.638,132.094 L 657.638,50.4567 L 639.496,32.315 L 657.638,5.10236 L 494.362,5.10236 L 512.504,14.1732 L 512.504,50.4567 L 530.646,59.5276 L 530.646,132.094 L 648.567,186.52 L 684.85,222.803 L 721.134,204.661 z " style="fill-opacity:0.5;fill:rgb(0,253,0);stroke:rgb(0,0,0);stroke-width:5"/></g>
<g fill-rule="evenodd"><path d="M 857.197,5.10236 L 866.268,5.10236 L 875.339,5.10236 L 884.409,5.10236 L 893.48,5.10236 L 902.551,5.10236 L 911.622,5.10236 L 920.693,5.10236 L 929.764,5.10236 L 938.835,5.10236 L 947.906,5.10236 L 956.976,5.10236 L 947.906,5.10236 L 938.835,5.10236 L 929.764,14.1732 L 929.764,23.2441 L 929.764,32.315 L 929.764,41.3858 L 929.764,50.4567 L 929.764,59.5276 L 929.764,68.5984 L 929.764,77.6693 L 929.764,86.7402 L 929.764,95.811 L 929.764,104.882 L 929.764,113.953 L 929.764,123.024 L 929.764,132.094 L 929.764,141.165 L 920.693,150.236 L 911.622,159.307 L 911.622,168.378 L 911.622,177.449 L 911.622,186.52 L 911.622,195.591 L 911.622,204.661 L 911.622,213.732 L 911.622,222.803 L 911.622,231.874 L 911.622,240.945 L 911.622,250.016 L 911.622,259.087 L 911.622,268.157 L 911.622,277.228 L 911.622,286.299 L 911.622,295.37 L 920.693,304.441 L 929.764,304.441 L 938.835,304.441 L 947.906,304.441 L 956.976,304.441 L 966.047,313.512 L 975.118,322.583 L 966.047,322.583 L 956.976,322.583 L 947.906,322.583 L 938.835,331.654 L 938.835,340.724 L 938.835,349.795 L 938.835,358.866 L 938.835,367.937 L 938.835,377.008 L 938.835,386.079 L 938.835,395.15 L 947.906,404.22 L 956.976,404.22 L 966.047,413.291 L 975.118,413.291 L 984.189,422.362 L 993.26,422.362 L 1002.33,431.433 L 1011.4,431.433 L 1011.4,440.504 L 1011.4,449.575 L 1011.4,458.646 L 1011.4,467.717 L 1011.4,476.787 L 1011.4,485.858 L 1011.4,494.929 L 1011.4,504 L 1002.33,504 L 993.26,504 L 984.189,504 L 975.118,504 L 966.047,504 L 956.976,513.071 L 947.906,513.071 L 938.835,504 L 929.764,504 L 920.693,494.929 L 911.622,494.929 L 902.551,485.858 L 893.48,476.787 L 884.409,476.787 L 875.339,476.787 L 866.268,476.787 L 857.197,467.717 L 848.126,458.646 L 839.055,449.575 L 829.984,440.504 L 820.913,440.504 L 811.843,431.433 L 811.843,422.362 L 811.843,413.291 L 811.843,404.22 L 811.843,395.15 L 811.843,386.079 L 811.843,377.008 L 811.843,367.937 L 811.843,358.866 L 811.843,349.795 L 811.843,340.724 L 802.772,331.654 L 793.701,331.654 L 784.63,322.583 L 775.559,322.583 L 766.488,313.512 L 757.417,313.512 L 757.417,304.441 L 757.417,295.37 L 757.417,286.299 L 757.417,277.228 L 757.417,268.157 L 757.417,259.087 L 748.346,250.016 L 739.276,250.016 L 739.276,240.945 L 748.346,240.945 L 757.417,231.874 L 766.488,231.874 L 775.559,222.803 L 775.559,231.874 L 784.63,240.945 L 793.701,240.945 L 802.772,231.874 L 802.772,222.803 L 802.772,213.732 L 802.772,204.661 L 802.772,195.591 L 802.772,186.52 L 802.772,177.449 L 802.772,168.378 L 802.772,159.307 L 802.772,150.236 L 802.772,141.165 L 802.772,132.094 L 793.701,123.024 L 784.63,123.024 L 775.559,132.094 L 766.488,141.165 L 775.559,150.236 L 766.488,150.236 L 757.417,150.236 L 748.346,141.165 L 739.276,132.094 L 748.346,123.024 L 757.417,123.024 L 766.488,113.953 L 775.559,113.953 L 784.63,104.882 L 793.701,104.882 L 802.772,104.882 L 811.843,95.811 L 820.913,86.7402 L 829.984,86.7402 L 839.055,77.6693 L 848.126,77.6693 L 857.197,68.5984 L 866.268,68.5984 L 875.339,68.5984 L 884.409,59.5276 L 884.409,50.4567 L 884.409,41.3858 L 884.409,32.315 L 875.339,23.2441 L 875.339,14.1732 L 866.268,5.10236 L 857.197,5.10236 z " style="fill-opacity:0.5;fill:rgb(253,0,0);stroke:rgb(253,0,0);stroke-width:2"/></g>
<g fill-rule="evenodd"><path d="M 1011.4,504 L 1011.4,431.433 L 938.835,395.15 L 938.835,331.654 L 975.118,322.583 L 956.976,304.441 L 911.622,295.37 L 929.764,14.1732 L 956.976,5.10236 L 857.197,5.10236 L 875.339,14.1732 L 884.409,59.5276 L 739.276,132.094 L 757.417,150.236 L 775.559,150.236 L 766.488,141.165 L 784.63,123.024 L 802.772,132.094 L 802.772,231.874 L 784.63,240.945 L 775.559,222.803 L 739.276,240.945 L 757.417,259.087 L 757.417,313.512 L 811.843,340.724 L 811.843,431.433 L 866.268,476.787 L 893.48,476.787 L 947.906,513.071 L 1011.4,504 z " style="fill-opacity:0.5;fill:rgb(0,253,0);stroke:rgb(0,0,0);stroke-width:5"/></g>
<g fill-rule="evenodd"><path d="M 1147.46,5.10236 L 1156.54,5.10236 L 1156.54,14.1732 L 1147.46,14.1732 L 1147.46,5.10236 z " style="fill-opacity:0.5;fill:rgb(253,0,0);stroke:rgb(253,0,0);stroke-width:2"/></g>
<g fill-rule="evenodd"><path d=" z " style="fill-opacity:0.5;fill:rgb(0,253,0);stroke:rgb(0,0,0);stroke-width:5"/></g>
<g fill-rule="evenodd"><path d="M 167.811,86.7402 L 176.882,86.7402 L 185.953,86.7402 L 195.024,86.7402 L 204.094,95.811 L 213.165,104.882 L 204.094,104.882 L 195.024,113.953 L 204.094,123.024 L 213.165,123.024 L 222.236,132.094 L 231.307,132.094 L 240.378,141.165 L 249.449,141.165 L 249.449,150.236 L 249.449,159.307 L 249.449,168.378 L 249.449,177.449 L 249.449,186.52 L 249.449,195.591 L 249.449,204.661 L 249.449,213.732 L 249.449,222.803 L 249.449,231.874 L 249.449,240.945 L 258.52,250.016 L 249.449,259.087 L 240.378,259.087 L 231.307,268.157 L 222.236,268.157 L 213.165,277.228 L 204.094,277.228 L 195.024,268.157 L 185.953,268.157 L 176.882,259.087 L 167.811,259.087 L 158.74,250.016 L 149.669,250.016 L 140.598,250.016 L 131.528,250.016 L 122.457,250.016 L 113.386,250.016 L 104.315,259.087 L 104.315,268.157 L 104.315,277.228 L 113.386,286.299 L 122.457,295.37 L 113.386,295.37 L 104.315,295.37 L 95.2441,286.299 L 86.1732,277.228 L 86.1732,268.157 L 86.1732,259.087 L 86.1732,250.016 L 77.1024,240.945 L 68.0315,240.945 L 58.9606,240.945 L 49.8898,231.874 L 40.8189,222.803 L 31.748,222.803 L 31.748,213.732 L 31.748,204.661 L 31.748,195.591 L 31.748,186.52 L 31.748,177.449 L 31.748,168.378 L 31.748,159.307 L 40.8189,150.236 L 49.8898,150.236 L 58.9606,150.236 L 68.0315,150.236 L 77.1024,159.307 L 86.1732,168.378 L 95.2441,168.378 L 104.315,168.378 L 113.386,168.378 L 122.457,168.378 L 131.528,159.307 L 140.598,159.307 L 149.669,150.236 L 158.74,141.165 L 149.669,132.094 L 158.74,132.094 L 167.811,123.024 L 167.811,113.953 L 158.74,104.882 L 149.669,95.811 L 158.74,95.811 L 167.811,86.7402 z " style="fill-opacity:0.5;fill:rgb(253,0,0);stroke:rgb(253,0,0);stroke-width:2"/></g>
<g fill-rule="evenodd"><path d="M 104.315,295.37 L 122.457,295.37 L 104.315,277.228 L 113.386,250.016 L 158.74,250.016 L 204.094,277.228 L 258.52,250.016 L 249.449,141.165 L 204.094,123.024 L 195.024,113.953 L 213.165,104.882 L 195.024,86.7402 L 149.669,95.811 L 167.811,123.024 L 122.457,168.378 L 86.1732,168.378 L 68.0315,150.236 L 31.748,159.307 L 31.748,222.803 L 77.1024,240.945 L 104.315,295.37 z " style="fill-opacity:0.5;fill:rgb(0,253,0);stroke:rgb(0,0,0);stroke-width:5"/></g>
<g fill-rule="evenodd"><path d="M 766.488,259.087 L 775.559,259.087 L 784.63,259.087 L 793.701,259.087 L 802.772,259.087 L 811.843,259.087 L 820.913,259.087 L 829.984,259.087 L 839.055,259.087 L 848.126,259.087 L 857.197,259.087 L 866.268,259.087 L 875.339,259.087 L 884.409,259.087 L 893.48,259.087 L 902.551,259.087 L 911.622,250.016 L 902.551,240.945 L 893.48,240.945 L 884.409,240.945 L 875.339,240.945 L 866.268,240.945 L 857.197,240.945 L 848.126,240.945 L 839.055,240.945 L 829.984,240.945 L 820.913,240.945 L 811.843,240.945 L 802.772,240.945 L 793.701,240.945 L 784.63,240.945 L 775.559,231.874 L 766.488,240.945 L 757.417,250.016 L 766.488,259.087 z " style="fill-opacity:0.5;fill:rgb(253,0,0);stroke:rgb(253,0,0);stroke-width:2"/></g>
<g fill-rule="evenodd"><path d="M 911.622,250.016 L 775.559,231.874 L 757.417,250.016 L 911.622,250.016 z " style="fill-opacity:0.5;fill:rgb(0,253,0);stroke:rgb(0,0,0);stroke-width:5"/></g>
<g fill-rule="evenodd"><path d="M 1002.33,268.157 L 1011.4,268.157 L 1020.47,268.157 L 1029.54,268.157 L 1038.61,268.157 L 1047.69,268.157 L 1056.76,268.157 L 1065.83,268.157 L 1074.9,277.228 L 1083.97,277.228 L 1093.04,286.299 L 1102.11,286.299 L 1111.18,295.37 L 1120.25,295.37 L 1129.32,304.441 L 1129.32,313.512 L 1129.32,322.583 L 1129.32,331.654 L 1129.32,340.724 L 1129.32,349.795 L 1129.32,358.866 L 1129.32,367.937 L 1129.32,377.008 L 1129.32,386.079 L 1129.32,395.15 L 1129.32,404.22 L 1129.32,413.291 L 1129.32,422.362 L 1120.25,431.433 L 1111.18,440.504 L 1111.18,449.575 L 1120.25,458.646 L 1129.32,467.717 L 1129.32,476.787 L 1129.32,485.858 L 1129.32,494.929 L 1129.32,504 L 1129.32,513.071 L 1129.32,522.142 L 1129.32,531.213 L 1120.25,540.283 L 1120.25,549.354 L 1129.32,558.425 L 1129.32,567.496 L 1129.32,576.567 L 1129.32,585.638 L 1120.25,585.638 L 1111.18,594.709 L 1120.25,603.78 L 1129.32,612.85 L 1129.32,621.921 L 1129.32,630.992 L 1129.32,640.063 L 1129.32,649.134 L 1129.32,658.205 L 1129.32,667.276 L 1129.32,676.346 L 1129.32,685.417 L 1129.32,694.488 L 1129.32,703.559 L 1129.32,712.63 L 1120.25,721.701 L 1111.18,721.701 L 1102.11,721.701 L 1093.04,712.63 L 1083.97,712.63 L 1074.9,703.559 L 1083.97,703.559 L 1093.04,712.63 L 1102.11,712.63 L 1111.18,703.559 L 1111.18,694.488 L 1111.18,685.417 L 1111.18,676.346 L 1111.18,667.276 L 1111.18,658.205 L 1111.18,649.134 L 1111.18,640.063 L 1111.18,630.992 L 1111.18,621.921 L 1102.11,612.85 L 1093.04,612.85 L 1083.97,603.78 L 1074.9,603.78 L 1065.83,594.709 L 1056.76,594.709 L 1056.76,585.638 L 1056.76,576.567 L 1056.76,567.496 L 1056.76,558.425 L 1065.83,558.425 L 1074.9,549.354 L 1083.97,549.354 L 1093.04,540.283 L 1102.11,540.283 L 1111.18,531.213 L 1111.18,522.142 L 1111.18,513.071 L 1111.18,504 L 1111.18,494.929 L 1111.18,485.858 L 1111.18,476.787 L 1102.11,467.717 L 1093.04,467.717 L 1093.04,458.646 L 1093.04,449.575 L 1093.04,440.504 L 1093.04,431.433 L 1102.11,431.433 L 1111.18,422.362 L 1111.18,413.291 L 1111.18,404.22 L 1111.18,395.15 L 1111.18,386.079 L 1111.18,377.008 L 1111.18,367.937 L 1111.18,358.866 L 1111.18,349.795 L 1111.18,340.724 L 1111.18,331.654 L 1111.18,322.583 L 1111.18,313.512 L 1102.11,304.441 L 1093.04,304.441 L 1083.97,295.37 L 1074.9,295.37 L 1065.83,286.299 L 1056.76,286.299 L 1047.69,286.299 L 1038.61,286.299 L 1029.54,286.299 L 1020.47,286.299 L 1011.4,286.299 L 1002.33,295.37 L 1011.4,304.441 L 1002.33,304.441 L 993.26,304.441 L 984.189,295.37 L 975.118,286.299 L 984.189,277.228 L 993.26,277.228 L 1002.33,268.157 z " style="fill-opacity:0.5;fill:rgb(253,0,0);stroke:rgb(253,0,0);stroke-width:2"/></g>
<g fill-rule="evenodd"><path d="M 1120.25,721.701 L 1129.32,612.85 L 1111.18,594.709 L 1129.32,585.638 L 1129.32,467.717 L 1111.18,440.504 L 1129.32,422.362 L 1129.32,304.441 L 1065.83,268.157 L 1002.33,268.157 L 975.118,286.299 L 993.26,304.441 L 1011.4,304.441 L 1011.4,286.299 L 1065.83,286.299 L 1111.18,313.512 L 1111.18,422.362 L 1093.04,431.433 L 1093.04,467.717 L 1111.18,476.787 L 1111.18,531.213 L 1056.76,558.425 L 1056.76,594.709 L 1111.18,621.921 L 1111.18,703.559 L 1074.9,703.559 L 1120.25,721.701 z " style="fill-opacity:0.5;fill:rgb(0,253,0);stroke:rgb(0,0,0);stroke-width:5"/></g>
<g fill-rule="evenodd"><path d="M 294.803,277.228 L 303.874,277.228 L 312.945,277.228 L 322.016,277.228 L 331.087,286.299 L 340.157,286.299 L 349.228,295.37 L 340.157,304.441 L 331.087,304.441 L 322.016,313.512 L 312.945,313.512 L 303.874,322.583 L 294.803,322.583 L 285.732,313.512 L 276.661,313.512 L 267.591,304.441 L 258.52,304.441 L 258.52,295.37 L 267.591,295.37 L 276.661,286.299 L 285.732,286.299 L 294.803,277.228 z " style="fill-opacity:0.5;fill:rgb(253,0,0);stroke:rgb(253,0,0);stroke-width:2"/></g>
<g fill-rule="evenodd"><path d="M 349.228,295.37 L 294.803,277.228 L 258.52,304.441 L 303.874,322.583 L 349.228,295.37 z " style="fill-opacity:0.5;fill:rgb(0,253,0);stroke:rgb(0,0,0);stroke-width:5"/></g>
<g fill-rule="evenodd"><path d="M 494.362,277.228 L 503.433,286.299 L 512.504,286.299 L 521.575,295.37 L 530.646,295.37 L 530.646,304.441 L 521.575,313.512 L 512.504,322.583 L 512.504,331.654 L 512.504,340.724 L 512.504,349.795 L 512.504,358.866 L 512.504,367.937 L 512.504,377.008 L 512.504,386.079 L 512.504,395.15 L 512.504,404.22 L 521.575,413.291 L 530.646,422.362 L 521.575,431.433 L 512.504,440.504 L 503.433,440.504 L 494.362,440.504 L 485.291,440.504 L 476.22,440.504 L 467.15,449.575 L 458.079,449.575 L 449.008,449.575 L 439.937,449.575 L 430.866,449.575 L 421.795,449.575 L 412.724,458.646 L 403.654,458.646 L 394.583,449.575 L 385.512,449.575 L 376.441,440.504 L 367.37,440.504 L 358.299,431.433 L 349.228,422.362 L 349.228,413.291 L 349.228,404.22 L 349.228,395.15 L 349.228,386.079 L 349.228,377.008 L 349.228,367.937 L 349.228,358.866 L 349.228,349.795 L 349.228,340.724 L 358.299,340.724 L 367.37,331.654 L 376.441,331.654 L 385.512,322.583 L 394.583,322.583 L 403.654,313.512 L 412.724,313.512 L 421.795,304.441 L 430.866,304.441 L 439.937,295.37 L 449.008,295.37 L 458.079,295.37 L 467.15,295.37 L 476.22,304.441 L 485.291,304.441 L 494.362,313.512 L 503.433,313.512 L 512.504,304.441 L 503.433,295.37 L 494.362,286.299 L 494.362,277.228 z " style="fill-opacity:0.5;fill:rgb(253,0,0);stroke:rgb(253,0,0);stroke-width:2"/></g>
<g fill-rule="evenodd"><path d="M 367.37,440.504 L 403.654,458.646 L 512.504,440.504 L 530.646,422.362 L 512.504,404.22 L 512.504,322.583 L 530.646,295.37 L 494.362,277.228 L 512.504,304.441 L 503.433,313.512 L 439.937,295.37 L 349.228,340.724 L 349.228,422.362 L 367.37,440.504 z " style="fill-opacity:0.5;fill:rgb(0,253,0);stroke:rgb(0,0,0);stroke-width:5"/></g>
<g fill-rule="evenodd"><path d="M 40.8189,295.37 L 49.8898,295.37 L 58.9606,295.37 L 68.0315,295.37 L 77.1024,304.441 L 86.1732,313.512 L 77.1024,313.512 L 68.0315,313.512 L 58.9606,313.512 L 49.8898,322.583 L 49.8898,331.654 L 49.8898,340.724 L 49.8898,349.795 L 49.8898,358.866 L 49.8898,367.937 L 49.8898,377.008 L 49.8898,386.079 L 49.8898,395.15 L 49.8898,404.22 L 58.9606,413.291 L 68.0315,413.291 L 77.1024,422.362 L 86.1732,422.362 L 95.2441,431.433 L 104.315,431.433 L 104.315,440.504 L 104.315,449.575 L 104.315,458.646 L 104.315,467.717 L 95.2441,467.717 L 86.1732,476.787 L 77.1024,476.787 L 68.0315,485.858 L 58.9606,485.858 L 49.8898,494.929 L 49.8898,504 L 49.8898,513.071 L 49.8898,522.142 L 49.8898,531.213 L 49.8898,540.283 L 49.8898,549.354 L 58.9606,558.425 L 68.0315,558.425 L 68.0315,567.496 L 68.0315,576.567 L 68.0315,585.638 L 68.0315,594.709 L 58.9606,594.709 L 49.8898,603.78 L 49.8898,612.85 L 49.8898,621.921 L 49.8898,630.992 L 49.8898,640.063 L 49.8898,649.134 L 49.8898,658.205 L 49.8898,667.276 L 49.8898,676.346 L 49.8898,685.417 L 49.8898,694.488 L 49.8898,703.559 L 49.8898,712.63 L 58.9606,721.701 L 68.0315,721.701 L 77.1024,730.772 L 86.1732,730.772 L 95.2441,739.843 L 104.315,739.843 L 113.386,739.843 L 122.457,739.843 L 131.528,739.843 L 140.598,739.843 L 149.669,739.843 L 158.74,739.843 L 167.811,730.772 L 158.74,721.701 L 149.669,712.63 L 149.669,703.559 L 158.74,712.63 L 167.811,712.63 L 176.882,721.701 L 185.953,721.701 L 185.953,730.772 L 176.882,730.772 L 167.811,739.843 L 158.74,748.913 L 149.669,748.913 L 140.598,748.913 L 131.528,739.843 L 122.457,739.843 L 113.386,748.913 L 104.315,748.913 L 95.2441,739.843 L 86.1732,739.843 L 77.1024,739.843 L 68.0315,730.772 L 58.9606,730.772 L 49.8898,721.701 L 40.8189,721.701 L 31.748,712.63 L 31.748,703.559 L 31.748,694.488 L 31.748,685.417 L 31.748,676.346 L 31.748,667.276 L 31.748,658.205 L 31.748,649.134 L 31.748,640.063 L 31.748,630.992 L 31.748,621.921 L 31.748,612.85 L 31.748,603.78 L 31.748,594.709 L 40.8189,585.638 L 49.8898,576.567 L 49.8898,567.496 L 49.8898,558.425 L 40.8189,549.354 L 31.748,549.354 L 31.748,540.283 L 31.748,531.213 L 31.748,522.142 L 31.748,513.071 L 31.748,504 L 31.748,494.929 L 31.748,485.858 L 40.8189,476.787 L 40.8189,467.717 L 31.748,458.646 L 31.748,449.575 L 31.748,440.504 L 31.748,431.433 L 40.8189,422.362 L 49.8898,413.291 L 40.8189,404.22 L 31.748,404.22 L 31.748,395.15 L 31.748,386.079 L 31.748,377.008 L 31.748,367.937 L 31.748,358.866 L 31.748,349.795 L 31.748,340.724 L 31.748,331.654 L 31.748,322.583 L 31.748,313.512 L 31.748,304.441 L 40.8189,295.37 z " style="fill-opacity:0.5;fill:rgb(253,0,0);stroke:rgb(253,0,0);stroke-width:2"/></g>
<g fill-rule="evenodd"><path d="M 158.74,748.913 L 185.953,721.701 L 149.669,703.559 L 167.811,730.772 L 158.74,739.843 L 95.2441,739.843 L 49.8898,712.63 L 49.8898,603.78 L 68.0315,594.709 L 68.0315,558.425 L 49.8898,549.354 L 49.8898,494.929 L 104.315,467.717 L 104.315,431.433 L 49.8898,404.22 L 49.8898,322.583 L 86.1732,313.512 L 68.0315,295.37 L 40.8189,295.37 L 31.748,404.22 L 49.8898,413.291 L 31.748,431.433 L 31.748,549.354 L 49.8898,558.425 L 49.8898,576.567 L 31.748,594.709 L 31.748,712.63 L 104.315,748.913 L 158.74,748.913 z " style="fill-opacity:0.5;fill:rgb(0,253,0);stroke:rgb(0,0,0);stroke-width:5"/></g>
<g fill-rule="evenodd"><path d="M 294.803,458.646 L 303.874,458.646 L 312.945,458.646 L 322.016,458.646 L 331.087,467.717 L 340.157,467.717 L 349.228,476.787 L 358.299,476.787 L 358.299,485.858 L 349.228,485.858 L 340.157,494.929 L 331.087,494.929 L 322.016,504 L 312.945,504 L 303.874,494.929 L 294.803,494.929 L 285.732,485.858 L 276.661,485.858 L 267.591,476.787 L 276.661,467.717 L 285.732,467.717 L 294.803,458.646 z " style="fill-opacity:0.5;fill:rgb(253,0,0);stroke:rgb(253,0,0);stroke-width:2"/></g>
<g fill-rule="evenodd"><path d="M 358.299,485.858 L 322.016,458.646 L 267.591,476.787 L 312.945,504 L 358.299,485.858 z " style="fill-opacity:0.5;fill:rgb(0,253,0);stroke:rgb(0,0,0);stroke-width:5"/></g>
<g fill-rule="evenodd"><path d="M 204.094,504 L 213.165,504 L 222.236,504 L 231.307,504 L 240.378,513.071 L 249.449,513.071 L 258.52,522.142 L 267.591,522.142 L 276.661,531.213 L 285.732,540.283 L 294.803,540.283 L 303.874,549.354 L 312.945,549.354 L 312.945,558.425 L 322.016,567.496 L 331.087,576.567 L 340.157,576.567 L 349.228,585.638 L 349.228,594.709 L 349.228,603.78 L 349.228,612.85 L 349.228,621.921 L 349.228,630.992 L 349.228,640.063 L 349.228,649.134 L 349.228,658.205 L 349.228,667.276 L 358.299,676.346 L 367.37,685.417 L 376.441,685.417 L 385.512,694.488 L 394.583,694.488 L 403.654,703.559 L 403.654,712.63 L 403.654,721.701 L 403.654,730.772 L 403.654,739.843 L 403.654,748.913 L 412.724,757.984 L 421.795,767.055 L 412.724,776.126 L 403.654,785.197 L 394.583,785.197 L 385.512,785.197 L 376.441,785.197 L 367.37,785.197 L 358.299,794.268 L 358.299,803.339 L 358.299,812.409 L 358.299,821.48 L 358.299,830.551 L 358.299,839.622 L 358.299,848.693 L 358.299,857.764 L 358.299,866.835 L 358.299,875.906 L 358.299,884.976 L 358.299,894.047 L 367.37,903.118 L 376.441,903.118 L 385.512,894.047 L 394.583,894.047 L 403.654,884.976 L 394.583,875.906 L 385.512,866.835 L 385.512,857.764 L 394.583,866.835 L 403.654,866.835 L 412.724,875.906 L 421.795,875.906 L 421.795,884.976 L 412.724,894.047 L 403.654,894.047 L 394.583,894.047 L 385.512,903.118 L 376.441,912.189 L 367.37,912.189 L 358.299,912.189 L 349.228,921.26 L 340.157,930.331 L 331.087,930.331 L 322.016,930.331 L 312.945,939.402 L 303.874,939.402 L 294.803,948.472 L 285.732,948.472 L 276.661,957.543 L 276.661,966.614 L 276.661,975.685 L 285.732,984.756 L 276.661,993.827 L 285.732,1002.9 L 294.803,1011.97 L 303.874,1011.97 L 312.945,1011.97 L 322.016,1011.97 L 331.087,1011.97 L 340.157,1011.97 L 349.228,1011.97 L 358.299,1011.97 L 367.37,1011.97 L 376.441,1011.97 L 385.512,1011.97 L 394.583,1011.97 L 403.654,1011.97 L 412.724,1011.97 L 421.795,1011.97 L 430.866,1011.97 L 439.937,1011.97 L 449.008,1011.97 L 458.079,1011.97 L 467.15,1011.97 L 476.22,1011.97 L 485.291,1011.97 L 494.362,1011.97 L 503.433,1011.97 L 512.504,1002.9 L 521.575,993.827 L 521.575,984.756 L 512.504,975.685 L 503.433,966.614 L 503.433,957.543 L 503.433,948.472 L 503.433,939.402 L 503.433,930.331 L 503.433,921.26 L 503.433,912.189 L 503.433,903.118 L 503.433,894.047 L 503.433,884.976 L 494.362,875.906 L 485.291,866.835 L 476.22,857.764 L 467.15,857.764 L 458.079,848.693 L 449.008,848.693 L 439.937,839.622 L 449.008,839.622 L 458.079,830.551 L 458.079,821.48 L 449.008,812.409 L 439.937,812.409 L 449.008,803.339 L 458.079,794.268 L 467.15,794.268 L 476.22,794.268 L 485.291,794.268 L 494.362,803.339 L 503.433,812.409 L 494.362,812.409 L 485.291,821.48 L 494.362,830.551 L 503.433,830.551 L 512.504,839.622 L 521.575,839.622 L 530.646,848.693 L 539.717,848.693 L 548.787,857.764 L 557.858,857.764 L 566.929,866.835 L 576,866.835 L 585.071,875.906 L 594.142,875.906 L 603.213,884.976 L 612.283,884.976 L 621.354,894.047 L 630.425,894.047 L 630.425,903.118 L 630.425,912.189 L 630.425,921.26 L 630.425,930.331 L 630.425,939.402 L 630.425,948.472 L 630.425,957.543 L 630.425,966.614 L 639.496,975.685 L 648.567,975.685 L 648.567,984.756 L 648.567,993.827 L 648.567,1002.9 L 657.638,1011.97 L 666.709,1011.97 L 675.78,1011.97 L 684.85,1011.97 L 693.921,1011.97 L 702.992,1011.97 L 712.063,1011.97 L 721.134,1011.97 L 730.205,1011.97 L 739.276,1011.97 L 748.346,1011.97 L 757.417,1011.97 L 766.488,1011.97 L 775.559,1011.97 L 784.63,1002.9 L 784.63,993.827 L 784.63,984.756 L 784.63,975.685 L 784.63,966.614 L 793.701,966.614 L 802.772,957.543 L 793.701,948.472 L 784.63,948.472 L 784.63,939.402 L 793.701,939.402 L 802.772,930.331 L 811.843,930.331 L 820.913,921.26 L 829.984,921.26 L 839.055,921.26 L 848.126,921.26 L 857.197,930.331 L 866.268,930.331 L 875.339,939.402 L 884.409,939.402 L 893.48,930.331 L 902.551,939.402 L 911.622,939.402 L 920.693,948.472 L 929.764,948.472 L 929.764,957.543 L 929.764,966.614 L 929.764,975.685 L 929.764,984.756 L 929.764,993.827 L 938.835,1002.9 L 947.906,1011.97 L 956.976,1011.97 L 966.047,1011.97 L 975.118,1011.97 L 984.189,1011.97 L 993.26,1011.97 L 1002.33,1011.97 L 1011.4,1011.97 L 1020.47,1011.97 L 1029.54,1011.97 L 1038.61,1011.97 L 1047.69,1011.97 L 1056.76,1011.97 L 1065.83,1011.97 L 1074.9,1011.97 L 1083.97,1011.97 L 1093.04,1011.97 L 1102.11,1011.97 L 1111.18,1011.97 L 1120.25,1002.9 L 1129.32,1002.9 L 1138.39,1002.9 L 1147.46,1002.9 L 1156.54,1002.9 L 1156.54,1011.97 L 1147.46,1011.97 L 1138.39,1011.97 L 1129.32,1011.97 L 1120.25,1011.97 L 1111.18,1011.97 L 1102.11,1011.97 L 1093.04,1011.97 L 1083.97,1011.97 L 1074.9,1011.97 L 1065.83,1011.97 L 1056.76,1011.97 L 1047.69,1011.97 L 1038.61,1011.97 L 1029.54,1011.97 L 1020.47,1011.97 L 1011.4,1011.97 L 1002.33,1011.97 L 993.26,1011.97 L 984.189,1011.97 L 975.118,1011.97 L 966.047,1011.97 L 956.976,1011.97 L 947.906,1011.97 L 938.835,1011.97 L 929.764,1011.97 L 920.693,1011.97 L 911.622,1011.97 L 902.551,1011.97 L 893.48,1011.97 L 884.409,1011.97 L 875.339,1011.97 L 866.268,1011.97 L 857.197,1011.97 L 848.126,1011.97 L 839.055,1011.97 L 829.984,1011.97 L 820.913,1011.97 L 811.843,1011.97 L 802.772,1011.97 L 793.701,1011.97 L 784.63,1011.97 L 775.559,1011.97 L 766.488,1011.97 L 757.417,1011.97 L 748.346,1011.97 L 739.276,1011.97 L 730.205,1011.97 L 721.134,1011.97 L 712.063,1011.97 L 702.992,1011.97 L 693.921,1011.97 L 684.85,1011.97 L 675.78,1011.97 L 666.709,1011.97 L 657.638,1011.97 L 648.567,1011.97 L 639.496,1011.97 L 630.425,1011.97 L 621.354,1011.97 L 612.283,1011.97 L 603.213,1011.97 L 594.142,1011.97 L 585.071,1011.97 L 576,1011.97 L 566.929,1011.97 L 557.858,1011.97 L 548.787,1011.97 L 539.717,1011.97 L 530.646,1011.97 L 521.575,1011.97 L 512.504,1011.97 L 503.433,1011.97 L 494.362,1011.97 L 485.291,1011.97 L 476.22,1011.97 L 467.15,1011.97 L 458.079,1011.97 L 449.008,1011.97 L 439.937,1011.97 L 430.866,1011.97 L 421.795,1011.97 L 412.724,1011.97 L 403.654,1011.97 L 394.583,1011.97 L 385.512,1011.97 L 376.441,1011.97 L 367.37,1011.97 L 358.299,1011.97 L 349.228,1011.97 L 340.157,1011.97 L 331.087,1011.97 L 322.016,1011.97 L 312.945,1011.97 L 303.874,1011.97 L 294.803,1011.97 L 285.732,1011.97 L 276.661,1011.97 L 267.591,1011.97 L 258.52,1011.97 L 249.449,1011.97 L 240.378,1011.97 L 231.307,1011.97 L 222.236,1011.97 L 213.165,1011.97 L 204.094,1011.97 L 195.024,1011.97 L 185.953,1011.97 L 176.882,1011.97 L 167.811,1011.97 L 158.74,1011.97 L 149.669,1011.97 L 140.598,1011.97 L 131.528,1011.97 L 122.457,1011.97 L 113.386,1011.97 L 104.315,1011.97 L 95.2441,1011.97 L 86.1732,1011.97 L 77.1024,1011.97 L 68.0315,1011.97 L 58.9606,1011.97 L 49.8898,1011.97 L 40.8189,1011.97 L 31.748,1011.97 L 22.6772,1011.97 L 13.6063,1011.97 L 4.53543,1011.97 L 4.53543,1002.9 L 13.6063,1002.9 L 22.6772,1002.9 L 31.748,1002.9 L 40.8189,1002.9 L 49.8898,1011.97 L 58.9606,1011.97 L 68.0315,1011.97 L 77.1024,1011.97 L 86.1732,1011.97 L 95.2441,1011.97 L 104.315,1011.97 L 113.386,1011.97 L 122.457,1011.97 L 131.528,1011.97 L 140.598,1011.97 L 149.669,1011.97 L 158.74,1011.97 L 167.811,1011.97 L 176.882,1011.97 L 185.953,1011.97 L 195.024,1011.97 L 204.094,1011.97 L 213.165,1011.97 L 222.236,1002.9 L 231.307,993.827 L 231.307,984.756 L 231.307,975.685 L 231.307,966.614 L 231.307,957.543 L 231.307,948.472 L 231.307,939.402 L 231.307,930.331 L 231.307,921.26 L 231.307,912.189 L 231.307,903.118 L 231.307,894.047 L 231.307,884.976 L 231.307,875.906 L 240.378,866.835 L 249.449,857.764 L 249.449,848.693 L 249.449,839.622 L 249.449,830.551 L 249.449,821.48 L 249.449,812.409 L 249.449,803.339 L 249.449,794.268 L 249.449,785.197 L 249.449,776.126 L 249.449,767.055 L 249.449,757.984 L 249.449,748.913 L 249.449,739.843 L 249.449,730.772 L 249.449,721.701 L 249.449,712.63 L 240.378,703.559 L 231.307,712.63 L 222.236,712.63 L 213.165,712.63 L 204.094,703.559 L 195.024,703.559 L 185.953,694.488 L 195.024,694.488 L 204.094,703.559 L 213.165,703.559 L 222.236,694.488 L 222.236,685.417 L 222.236,676.346 L 222.236,667.276 L 222.236,658.205 L 222.236,649.134 L 222.236,640.063 L 222.236,630.992 L 213.165,621.921 L 204.094,621.921 L 195.024,612.85 L 185.953,612.85 L 176.882,603.78 L 167.811,603.78 L 158.74,594.709 L 149.669,594.709 L 149.669,585.638 L 149.669,576.567 L 149.669,567.496 L 149.669,558.425 L 149.669,549.354 L 149.669,540.283 L 149.669,531.213 L 149.669,522.142 L 158.74,522.142 L 167.811,522.142 L 176.882,522.142 L 185.953,513.071 L 195.024,513.071 L 204.094,504 z " style="fill-opacity:0.5;fill:rgb(253,0,0);stroke:rgb(253,0,0);stroke-width:2"/></g>
<g fill-rule="evenodd"><path d="M 1156.54,1011.97 L 947.906,1011.97 L 929.764,993.827 L 929.764,948.472 L 848.126,921.26 L 784.63,939.402 L 802.772,957.543 L 784.63,966.614 L 775.559,1011.97 L 657.638,1011.97 L 648.567,975.685 L 630.425,966.614 L 630.425,894.047 L 494.362,830.551 L 485.291,821.48 L 503.433,812.409 L 485.291,794.268 L 458.079,794.268 L 439.937,812.409 L 458.079,830.551 L 439.937,839.622 L 503.433,884.976 L 503.433,966.614 L 521.575,993.827 L 503.433,1011.97 L 294.803,1011.97 L 276.661,993.827 L 276.661,957.543 L 421.795,884.976 L 385.512,857.764 L 403.654,884.976 L 376.441,903.118 L 358.299,894.047 L 358.299,794.268 L 403.654,785.197 L 421.795,767.055 L 403.654,748.913 L 403.654,703.559 L 349.228,667.276 L 349.228,585.638 L 312.945,549.354 L 231.307,504 L 149.669,522.142 L 149.669,594.709 L 222.236,630.992 L 222.236,694.488 L 185.953,694.488 L 213.165,712.63 L 249.449,712.63 L 249.449,857.764 L 231.307,875.906 L 231.307,993.827 L 213.165,1011.97 L 4.53543,1002.9 L 1156.54,1011.97 z " style="fill-opacity:0.5;fill:rgb(0,253,0);stroke:rgb(0,0,0);stroke-width:5"/></g>
<g fill-rule="evenodd"><path d="M 839.055,513.071 L 848.126,513.071 L 857.197,513.071 L 866.268,513.071 L 875.339,522.142 L 884.409,522.142 L 893.48,531.213 L 902.551,531.213 L 902.551,540.283 L 893.48,540.283 L 884.409,549.354 L 875.339,549.354 L 866.268,558.425 L 857.197,558.425 L 848.126,549.354 L 839.055,549.354 L 829.984,540.283 L 820.913,540.283 L 811.843,531.213 L 820.913,522.142 L 829.984,522.142 L 839.055,513.071 z " style="fill-opacity:0.5;fill:rgb(253,0,0);stroke:rgb(253,0,0);stroke-width:2"/></g>
<g fill-rule="evenodd"><path d="M 902.551,540.283 L 866.268,513.071 L 811.843,531.213 L 857.197,558.425 L 902.551,540.283 z " style="fill-opacity:0.5;fill:rgb(0,253,0);stroke:rgb(0,0,0);stroke-width:5"/></g>
<g fill-rule="evenodd"><path d="M 748.346,558.425 L 757.417,558.425 L 766.488,558.425 L 775.559,558.425 L 784.63,567.496 L 793.701,567.496 L 802.772,576.567 L 811.843,576.567 L 811.843,585.638 L 811.843,594.709 L 811.843,603.78 L 811.843,612.85 L 811.843,621.921 L 811.843,630.992 L 811.843,640.063 L 811.843,649.134 L 811.843,658.205 L 811.843,667.276 L 820.913,676.346 L 811.843,685.417 L 802.772,685.417 L 793.701,694.488 L 784.63,694.488 L 775.559,703.559 L 766.488,703.559 L 757.417,703.559 L 748.346,703.559 L 739.276,712.63 L 730.205,712.63 L 721.134,721.701 L 712.063,721.701 L 702.992,721.701 L 693.921,721.701 L 684.85,712.63 L 675.78,712.63 L 666.709,712.63 L 657.638,721.701 L 666.709,730.772 L 657.638,730.772 L 648.567,730.772 L 639.496,721.701 L 630.425,712.63 L 639.496,703.559 L 648.567,694.488 L 648.567,685.417 L 648.567,676.346 L 648.567,667.276 L 648.567,658.205 L 648.567,649.134 L 648.567,640.063 L 648.567,630.992 L 648.567,621.921 L 648.567,612.85 L 648.567,603.78 L 639.496,594.709 L 630.425,594.709 L 630.425,585.638 L 639.496,585.638 L 648.567,576.567 L 657.638,576.567 L 666.709,567.496 L 675.78,576.567 L 684.85,576.567 L 693.921,567.496 L 702.992,567.496 L 712.063,567.496 L 721.134,567.496 L 730.205,567.496 L 739.276,567.496 L 748.346,558.425 z " style="fill-opacity:0.5;fill:rgb(253,0,0);stroke:rgb(253,0,0);stroke-width:2"/></g>
<g fill-rule="evenodd"><path d="M 648.567,730.772 L 666.709,730.772 L 666.709,712.63 L 721.134,721.701 L 811.843,685.417 L 811.843,576.567 L 748.346,558.425 L 684.85,576.567 L 666.709,567.496 L 630.425,585.638 L 648.567,603.78 L 648.567,694.488 L 630.425,712.63 L 648.567,730.772 z " style="fill-opacity:0.5;fill:rgb(0,253,0);stroke:rgb(0,0,0);stroke-width:5"/></g>
<g fill-rule="evenodd"><path d="M 857.197,703.559 L 866.268,703.559 L 875.339,703.559 L 884.409,703.559 L 893.48,712.63 L 902.551,712.63 L 911.622,721.701 L 902.551,730.772 L 893.48,730.772 L 884.409,739.843 L 875.339,739.843 L 866.268,748.913 L 857.197,748.913 L 848.126,739.843 L 839.055,739.843 L 829.984,730.772 L 820.913,730.772 L 820.913,721.701 L 829.984,721.701 L 839.055,712.63 L 848.126,712.63 L 857.197,703.559 z " style="fill-opacity:0.5;fill:rgb(253,0,0);stroke:rgb(253,0,0);stroke-width:2"/></g>
<g fill-rule="evenodd"><path d="M 911.622,721.701 L 857.197,703.559 L 820.913,730.772 L 866.268,748.913 L 911.622,721.701 z " style="fill-opacity:0.5;fill:rgb(0,253,0);stroke:rgb(0,0,0);stroke-width:5"/></g>
<g fill-rule="evenodd"><path d="M 1038.61,712.63 L 1047.69,721.701 L 1056.76,721.701 L 1065.83,730.772 L 1074.9,730.772 L 1074.9,739.843 L 1074.9,748.913 L 1074.9,757.984 L 1074.9,767.055 L 1083.97,776.126 L 1093.04,776.126 L 1102.11,776.126 L 1111.18,785.197 L 1120.25,785.197 L 1129.32,794.268 L 1129.32,803.339 L 1129.32,812.409 L 1129.32,821.48 L 1129.32,830.551 L 1129.32,839.622 L 1129.32,848.693 L 1129.32,857.764 L 1120.25,857.764 L 1111.18,866.835 L 1102.11,866.835 L 1093.04,866.835 L 1083.97,857.764 L 1074.9,848.693 L 1065.83,848.693 L 1056.76,839.622 L 1047.69,848.693 L 1038.61,848.693 L 1029.54,857.764 L 1020.47,857.764 L 1011.4,866.835 L 1011.4,875.906 L 1002.33,884.976 L 993.26,884.976 L 984.189,894.047 L 993.26,903.118 L 1002.33,912.189 L 1002.33,921.26 L 993.26,921.26 L 984.189,930.331 L 975.118,930.331 L 966.047,921.26 L 956.976,921.26 L 947.906,912.189 L 947.906,903.118 L 938.835,894.047 L 929.764,894.047 L 920.693,884.976 L 911.622,884.976 L 911.622,875.906 L 911.622,866.835 L 911.622,857.764 L 911.622,848.693 L 911.622,839.622 L 911.622,830.551 L 911.622,821.48 L 911.622,812.409 L 911.622,803.339 L 911.622,794.268 L 920.693,794.268 L 929.764,785.197 L 920.693,776.126 L 911.622,776.126 L 911.622,767.055 L 920.693,767.055 L 929.764,757.984 L 938.835,757.984 L 947.906,748.913 L 956.976,748.913 L 966.047,748.913 L 975.118,748.913 L 984.189,757.984 L 993.26,757.984 L 1002.33,767.055 L 1011.4,767.055 L 1020.47,776.126 L 1029.54,776.126 L 1038.61,767.055 L 1047.69,767.055 L 1056.76,757.984 L 1056.76,748.913 L 1056.76,739.843 L 1047.69,730.772 L 1038.61,721.701 L 1038.61,712.63 z " style="fill-opacity:0.5;fill:rgb(253,0,0);stroke:rgb(253,0,0);stroke-width:2"/></g>
<g fill-rule="evenodd"><path d="M 975.118,930.331 L 1002.33,921.26 L 984.189,894.047 L 1056.76,839.622 L 1093.04,866.835 L 1129.32,857.764 L 1129.32,794.268 L 1083.97,776.126 L 1074.9,730.772 L 1038.61,712.63 L 1056.76,757.984 L 1029.54,776.126 L 975.118,748.913 L 911.622,767.055 L 929.764,785.197 L 911.622,794.268 L 911.622,884.976 L 975.118,930.331 z " style="fill-opacity:0.5;fill:rgb(0,253,0);stroke:rgb(0,0,0);stroke-width:5"/></g>
</svg>
