<?xml version="1.0" standalone="no"?>
<!DOCTYPE svg PUBLIC "-//W3C//DTD SVG 1.1//EN"
"http://www.w3.org/Graphics/SVG/1.1/DTD/svg11.dtd">
<svg width="100%" height="100%" version="1.1"
xmlns="http://www.w3.org/2000/svg"
xmlns:xlink="http://www.w3.org/1999/xlink">
<g fill-rule="evenodd"><path d="M 337.638,5.03937 L 347.717,5.03937 L 357.795,5.03937 L 367.874,5.03937 L 377.953,5.03937 L 367.874,5.03937 L 357.795,15.1181 L 357.795,25.1969 L 357.795,35.2756 L 357.795,45.3543 L 357.795,55.4331 L 347.717,55.4331 L 337.638,65.5118 L 327.559,65.5118 L 317.48,75.5906 L 307.402,75.5906 L 297.323,85.6693 L 287.244,85.6693 L 277.165,95.748 L 277.165,105.827 L 277.165,115.906 L 277.165,125.984 L 277.165,136.063 L 277.165,146.142 L 277.165,156.22 L 277.165,166.299 L 287.244,176.378 L 297.323,176.378 L 307.402,176.378 L 317.48,176.378 L 317.48,186.457 L 317.48,196.535 L 317.48,206.614 L 317.48,216.693 L 307.402,216.693 L 297.323,226.772 L 287.244,226.772 L 277.165,236.85 L 277.165,246.929 L 277.165,257.008 L 277.165,267.087 L 277.165,277.165 L 267.087,277.165 L 257.008,287.244 L 246.929,287.244 L 236.85,297.323 L 226.772,297.323 L 216.693,307.402 L 206.614,307.402 L 196.535,307.402 L 186.457,307.402 L 186.457,297.323 L 186.457,287.244 L 176.378,277.165 L 166.299,277.165 L 156.22,277.165 L 146.142,277.165 L 136.063,277.165 L 125.984,277.165 L 115.906,277.165 L 105.827,287.244 L 115.906,297.323 L 105.827,297.323 L 95.748,297.323 L 85.6693,287.244 L 75.5906,277.165 L 85.6693,267.087 L 95.748,267.087 L 105.827,257.008 L 115.906,257.008 L 125.984,257.008 L 136.063,257.008 L 146.142,257.008 L 156.22,257.008 L 166.299,257.008 L 176.378,257.008 L 186.457,257.008 L 196.535,257.008 L 206.614,246.929 L 216.693,236.85 L 216.693,226.772 L 226.772,216.693 L 236.85,206.614 L 226.772,196.535 L 236.85,196.535 L 246.929,186.457 L 257.008,176.378 L 257.008,166.299 L 257.008,156.22 L 246.929,146.142 L 257.008,136.063 L 246.929,125.984 L 257.008,115.906 L 257.008,105.827 L 257.008,95.748 L 257.008,85.6693 L 267.087,75.5906 L 277.165,75.5906 L 287.244,65.5118 L 297.323,65.5118 L 307.402,55.4331 L 317.48,55.4331 L 327.559,45.3543 L 337.638,35.2756 L 337.638,25.1969 L 337.638,15.1181 L 337.638,5.03937 z " style="fill-opacity:0.5;fill:rgb(253,0,0);stroke:rgb(253,0,0);stroke-width:2"/></g>
<g fill-rule="evenodd"><path d="M 95.748,297.323 L 75.5906,277.165 L 85.6693,267.087 L 196.535,257.008 L 216.693,236.85 L 236.85,206.614 L 226.772,196.535 L 257.008,176.378 L 257.008,85.6693 L 317.48,55.4331 L 337.638,35.2756 L 337.638,5.03937 L 377.953,5.03937 L 357.795,15.1181 L 357.795,55.4331 L 277.165,95.748 L 277.165,166.299 L 317.48,176.378 L 317.48,216.693 L 277.165,236.85 L 277.165,277.165 L 216.693,307.402 L 186.457,307.402 L 176.378,277.165 L 115.906,277.165 L 115.906,297.323 L 95.748,297.323 z " style="fill-opacity:0.5;fill:rgb(51,51,153);stroke:rgb(0,0,0);stroke-width:5"/></g>
<g fill-rule="evenodd"><path d="M 468.661,5.03937 L 478.74,5.03937 L 488.819,5.03937 L 498.898,5.03937 L 508.976,5.03937 L 519.055,5.03937 L 529.134,5.03937 L 539.213,5.03937 L 549.291,5.03937 L 559.37,5.03937 L 569.449,5.03937 L 559.37,5.03937 L 549.291,15.1181 L 539.213,15.1181 L 529.134,25.1969 L 519.055,35.2756 L 519.055,45.3543 L 519.055,55.4331 L 519.055,65.5118 L 519.055,75.5906 L 519.055,85.6693 L 519.055,95.748 L 529.134,105.827 L 539.213,105.827 L 549.291,115.906 L 559.37,115.906 L 569.449,125.984 L 579.528,125.984 L 579.528,136.063 L 579.528,146.142 L 569.449,146.142 L 559.37,136.063 L 549.291,125.984 L 539.213,115.906 L 529.134,115.906 L 519.055,105.827 L 508.976,105.827 L 498.898,95.748 L 488.819,105.827 L 478.74,115.906 L 468.661,115.906 L 458.583,115.906 L 448.504,115.906 L 438.425,105.827 L 428.346,105.827 L 428.346,95.748 L 438.425,95.748 L 448.504,85.6693 L 458.583,85.6693 L 468.661,75.5906 L 458.583,65.5118 L 448.504,65.5118 L 458.583,65.5118 L 468.661,55.4331 L 478.74,55.4331 L 488.819,45.3543 L 498.898,45.3543 L 508.976,35.2756 L 498.898,25.1969 L 488.819,25.1969 L 488.819,15.1181 L 478.74,5.03937 L 468.661,5.03937 z " style="fill-opacity:0.5;fill:rgb(253,0,0);stroke:rgb(253,0,0);stroke-width:2"/></g>
<g fill-rule="evenodd"><path d="M 579.528,146.142 L 498.898,95.748 L 478.74,115.906 L 428.346,105.827 L 468.661,75.5906 L 448.504,65.5118 L 508.976,35.2756 L 468.661,5.03937 L 569.449,5.03937 L 519.055,35.2756 L 519.055,95.748 L 579.528,125.984 L 579.528,146.142 z " style="fill-opacity:0.5;fill:rgb(51,51,153);stroke:rgb(0,0,0);stroke-width:5"/></g>
<g fill-rule="evenodd"><path d="M 720.63,5.03937 L 730.709,5.03937 L 740.787,5.03937 L 750.866,5.03937 L 760.945,5.03937 L 771.024,5.03937 L 781.102,5.03937 L 791.181,5.03937 L 801.26,5.03937 L 811.339,5.03937 L 821.417,5.03937 L 811.339,5.03937 L 801.26,15.1181 L 791.181,25.1969 L 791.181,35.2756 L 791.181,45.3543 L 801.26,55.4331 L 811.339,55.4331 L 821.417,55.4331 L 831.496,65.5118 L 831.496,75.5906 L 841.575,85.6693 L 851.654,95.748 L 861.732,105.827 L 851.654,105.827 L 841.575,115.906 L 831.496,115.906 L 821.417,115.906 L 811.339,115.906 L 811.339,105.827 L 801.26,95.748 L 791.181,95.748 L 781.102,105.827 L 771.024,105.827 L 760.945,115.906 L 750.866,115.906 L 740.787,125.984 L 730.709,136.063 L 720.63,146.142 L 710.551,146.142 L 710.551,136.063 L 710.551,125.984 L 720.63,125.984 L 730.709,115.906 L 740.787,115.906 L 750.866,105.827 L 760.945,105.827 L 771.024,95.748 L 771.024,85.6693 L 771.024,75.5906 L 771.024,65.5118 L 771.024,55.4331 L 771.024,45.3543 L 771.024,35.2756 L 760.945,25.1969 L 750.866,15.1181 L 740.787,15.1181 L 730.709,5.03937 L 720.63,5.03937 z " style="fill-opacity:0.5;fill:rgb(253,0,0);stroke:rgb(253,0,0);stroke-width:2"/></g>
<g fill-rule="evenodd"><path d="M 861.732,105.827 L 811.339,115.906 L 791.181,95.748 L 710.551,146.142 L 710.551,125.984 L 771.024,95.748 L 771.024,35.2756 L 720.63,5.03937 L 821.417,5.03937 L 791.181,25.1969 L 791.181,45.3543 L 821.417,55.4331 L 861.732,105.827 z " style="fill-opacity:0.5;fill:rgb(51,51,153);stroke:rgb(0,0,0);stroke-width:5"/></g>
<g fill-rule="evenodd"><path d="M 912.126,5.03937 L 922.205,5.03937 L 932.283,5.03937 L 942.362,5.03937 L 952.441,5.03937 L 962.52,5.03937 L 952.441,15.1181 L 952.441,25.1969 L 952.441,35.2756 L 962.52,45.3543 L 972.598,55.4331 L 982.677,55.4331 L 992.756,65.5118 L 1002.83,65.5118 L 1012.91,75.5906 L 1022.99,75.5906 L 1033.07,85.6693 L 1043.15,85.6693 L 1033.07,95.748 L 1033.07,105.827 L 1033.07,115.906 L 1043.15,125.984 L 1033.07,136.063 L 1033.07,146.142 L 1033.07,156.22 L 1033.07,166.299 L 1033.07,176.378 L 1043.15,186.457 L 1053.23,196.535 L 1063.31,196.535 L 1053.23,206.614 L 1063.31,216.693 L 1073.39,226.772 L 1083.46,226.772 L 1073.39,236.85 L 1083.46,246.929 L 1093.54,257.008 L 1103.62,257.008 L 1113.7,257.008 L 1123.78,257.008 L 1133.86,257.008 L 1143.94,257.008 L 1154.02,257.008 L 1164.09,257.008 L 1174.17,257.008 L 1184.25,257.008 L 1194.33,267.087 L 1204.41,267.087 L 1214.49,277.165 L 1204.41,287.244 L 1194.33,297.323 L 1184.25,297.323 L 1174.17,297.323 L 1184.25,287.244 L 1174.17,277.165 L 1164.09,277.165 L 1154.02,277.165 L 1143.94,277.165 L 1133.86,277.165 L 1123.78,277.165 L 1113.7,277.165 L 1103.62,287.244 L 1103.62,297.323 L 1103.62,307.402 L 1093.54,307.402 L 1083.46,307.402 L 1073.39,307.402 L 1063.31,297.323 L 1053.23,297.323 L 1043.15,287.244 L 1033.07,287.244 L 1022.99,277.165 L 1012.91,277.165 L 1012.91,267.087 L 1012.91,257.008 L 1012.91,246.929 L 1012.91,236.85 L 1002.83,226.772 L 992.756,226.772 L 982.677,216.693 L 972.598,216.693 L 972.598,206.614 L 972.598,196.535 L 972.598,186.457 L 972.598,176.378 L 982.677,176.378 L 992.756,176.378 L 1002.83,176.378 L 1012.91,166.299 L 1012.91,156.22 L 1012.91,146.142 L 1012.91,136.063 L 1012.91,125.984 L 1012.91,115.906 L 1012.91,105.827 L 1012.91,95.748 L 1002.83,85.6693 L 992.756,85.6693 L 982.677,75.5906 L 972.598,75.5906 L 962.52,65.5118 L 952.441,65.5118 L 942.362,55.4331 L 932.283,55.4331 L 932.283,45.3543 L 932.283,35.2756 L 932.283,25.1969 L 932.283,15.1181 L 922.205,5.03937 L 912.126,5.03937 z " style="fill-opacity:0.5;fill:rgb(253,0,0);stroke:rgb(253,0,0);stroke-width:2"/></g>
<g fill-rule="evenodd"><path d="M 1214.49,277.165 L 1194.33,297.323 L 1174.17,297.323 L 1174.17,277.165 L 1113.7,277.165 L 1103.62,307.402 L 1012.91,277.165 L 1012.91,236.85 L 972.598,216.693 L 972.598,176.378 L 1012.91,166.299 L 1012.91,95.748 L 932.283,55.4331 L 932.283,15.1181 L 912.126,5.03937 L 962.52,5.03937 L 952.441,35.2756 L 1043.15,85.6693 L 1033.07,176.378 L 1063.31,196.535 L 1053.23,206.614 L 1083.46,226.772 L 1073.39,236.85 L 1093.54,257.008 L 1184.25,257.008 L 1214.49,277.165 z " style="fill-opacity:0.5;fill:rgb(51,51,153);stroke:rgb(0,0,0);stroke-width:5"/></g>
<g fill-rule="evenodd"><path d="M 488.819,166.299 L 498.898,166.299 L 508.976,166.299 L 519.055,166.299 L 529.134,176.378 L 539.213,186.457 L 549.291,196.535 L 559.37,196.535 L 569.449,206.614 L 579.528,206.614 L 589.606,206.614 L 599.685,206.614 L 609.764,196.535 L 619.843,196.535 L 629.921,196.535 L 640,196.535 L 650.079,196.535 L 660.157,196.535 L 670.236,196.535 L 680.315,196.535 L 690.394,206.614 L 700.472,206.614 L 710.551,206.614 L 720.63,206.614 L 730.709,196.535 L 740.787,196.535 L 750.866,186.457 L 760.945,176.378 L 771.024,166.299 L 781.102,166.299 L 791.181,166.299 L 801.26,176.378 L 791.181,186.457 L 781.102,196.535 L 771.024,206.614 L 760.945,206.614 L 750.866,216.693 L 740.787,216.693 L 730.709,226.772 L 720.63,226.772 L 710.551,236.85 L 700.472,236.85 L 690.394,246.929 L 700.472,257.008 L 710.551,267.087 L 720.63,267.087 L 710.551,277.165 L 710.551,287.244 L 710.551,297.323 L 720.63,307.402 L 710.551,317.48 L 700.472,317.48 L 690.394,327.559 L 700.472,337.638 L 690.394,347.717 L 690.394,357.795 L 690.394,367.874 L 700.472,377.953 L 690.394,388.031 L 700.472,398.11 L 710.551,408.189 L 720.63,408.189 L 730.709,418.268 L 740.787,428.346 L 730.709,428.346 L 720.63,428.346 L 710.551,428.346 L 700.472,438.425 L 700.472,448.504 L 690.394,448.504 L 680.315,448.504 L 670.236,448.504 L 660.157,438.425 L 650.079,438.425 L 640,438.425 L 629.921,438.425 L 619.843,448.504 L 609.764,448.504 L 599.685,448.504 L 589.606,448.504 L 589.606,438.425 L 579.528,428.346 L 569.449,428.346 L 559.37,428.346 L 549.291,428.346 L 559.37,418.268 L 569.449,408.189 L 579.528,408.189 L 589.606,398.11 L 599.685,388.031 L 589.606,377.953 L 599.685,367.874 L 599.685,357.795 L 599.685,347.717 L 589.606,337.638 L 589.606,327.559 L 579.528,317.48 L 569.449,307.402 L 579.528,297.323 L 569.449,287.244 L 579.528,277.165 L 579.528,267.087 L 589.606,257.008 L 599.685,246.929 L 589.606,236.85 L 579.528,236.85 L 569.449,236.85 L 559.37,226.772 L 549.291,216.693 L 539.213,216.693 L 529.134,206.614 L 519.055,206.614 L 508.976,196.535 L 508.976,186.457 L 498.898,176.378 L 488.819,176.378 L 488.819,166.299 z " style="fill-opacity:0.5;fill:rgb(253,0,0);stroke:rgb(253,0,0);stroke-width:2"/></g>
<g fill-rule="evenodd"><path d="M 740.787,428.346 L 710.551,428.346 L 700.472,448.504 L 589.606,448.504 L 579.528,428.346 L 549.291,428.346 L 599.685,388.031 L 599.685,347.717 L 569.449,307.402 L 599.685,246.929 L 519.055,206.614 L 488.819,166.299 L 519.055,166.299 L 569.449,206.614 L 720.63,206.614 L 771.024,166.299 L 801.26,176.378 L 690.394,246.929 L 720.63,267.087 L 720.63,307.402 L 690.394,327.559 L 690.394,388.031 L 740.787,428.346 z " style="fill-opacity:0.5;fill:rgb(51,51,153);stroke:rgb(0,0,0);stroke-width:5"/></g>
<g fill-rule="evenodd"><path d="M 367.874,257.008 L 377.953,267.087 L 388.031,267.087 L 398.11,277.165 L 408.189,277.165 L 408.189,287.244 L 418.268,297.323 L 408.189,307.402 L 418.268,317.48 L 428.346,327.559 L 438.425,327.559 L 448.504,337.638 L 458.583,337.638 L 468.661,347.717 L 478.74,347.717 L 488.819,357.795 L 478.74,367.874 L 468.661,377.953 L 458.583,377.953 L 448.504,377.953 L 438.425,377.953 L 428.346,377.953 L 418.268,388.031 L 408.189,388.031 L 398.11,377.953 L 388.031,377.953 L 377.953,367.874 L 367.874,367.874 L 357.795,357.795 L 367.874,347.717 L 377.953,347.717 L 388.031,337.638 L 388.031,327.559 L 388.031,317.48 L 388.031,307.402 L 388.031,297.323 L 388.031,287.244 L 377.953,277.165 L 367.874,267.087 L 367.874,257.008 z " style="fill-opacity:0.5;fill:rgb(253,0,0);stroke:rgb(253,0,0);stroke-width:2"/></g>
<g fill-rule="evenodd"><path d="M 488.819,357.795 L 468.661,377.953 L 418.268,388.031 L 367.874,367.874 L 357.795,357.795 L 388.031,337.638 L 388.031,287.244 L 367.874,257.008 L 408.189,277.165 L 408.189,307.402 L 428.346,327.559 L 488.819,357.795 z " style="fill-opacity:0.5;fill:rgb(51,51,153);stroke:rgb(0,0,0);stroke-width:5"/></g>
<g fill-rule="evenodd"><path d="M 922.205,257.008 L 922.205,267.087 L 912.126,277.165 L 902.047,287.244 L 902.047,297.323 L 902.047,307.402 L 902.047,317.48 L 902.047,327.559 L 902.047,337.638 L 912.126,347.717 L 922.205,347.717 L 922.205,357.795 L 922.205,367.874 L 912.126,367.874 L 902.047,377.953 L 891.969,377.953 L 881.89,388.031 L 871.811,388.031 L 861.732,377.953 L 851.654,377.953 L 841.575,377.953 L 831.496,377.953 L 821.417,377.953 L 811.339,367.874 L 801.26,357.795 L 811.339,347.717 L 821.417,347.717 L 831.496,337.638 L 841.575,337.638 L 851.654,327.559 L 861.732,327.559 L 871.811,317.48 L 881.89,307.402 L 871.811,297.323 L 881.89,287.244 L 881.89,277.165 L 891.969,277.165 L 902.047,267.087 L 912.126,267.087 L 922.205,257.008 z " style="fill-opacity:0.5;fill:rgb(253,0,0);stroke:rgb(253,0,0);stroke-width:2"/></g>
<g fill-rule="evenodd"><path d="M 821.417,377.953 L 801.26,357.795 L 861.732,327.559 L 881.89,307.402 L 881.89,277.165 L 922.205,257.008 L 902.047,287.244 L 902.047,337.638 L 922.205,347.717 L 922.205,367.874 L 881.89,388.031 L 821.417,377.953 z " style="fill-opacity:0.5;fill:rgb(51,51,153);stroke:rgb(0,0,0);stroke-width:5"/></g>
<g fill-rule="evenodd"><path d="M 5.03937,277.165 L 15.1181,277.165 L 25.1969,287.244 L 35.2756,287.244 L 45.3543,297.323 L 55.4331,297.323 L 65.5118,307.402 L 75.5906,317.48 L 65.5118,317.48 L 55.4331,317.48 L 45.3543,317.48 L 35.2756,307.402 L 25.1969,307.402 L 15.1181,297.323 L 5.03937,297.323 L 5.03937,287.244 L 5.03937,277.165 z " style="fill-opacity:0.5;fill:rgb(253,0,0);stroke:rgb(253,0,0);stroke-width:2"/></g>
<g fill-rule="evenodd"><path d="M 75.5906,317.48 L 5.03937,297.323 L 5.03937,277.165 L 75.5906,317.48 z " style="fill-opacity:0.5;fill:rgb(51,51,153);stroke:rgb(0,0,0);stroke-width:5"/></g>
<g fill-rule="evenodd"><path d="M 1274.96,277.165 L 1285.04,277.165 L 1285.04,287.244 L 1285.04,297.323 L 1274.96,297.323 L 1264.88,307.402 L 1254.8,307.402 L 1244.72,317.48 L 1234.65,317.48 L 1224.57,317.48 L 1214.49,317.48 L 1224.57,307.402 L 1234.65,297.323 L 1244.72,297.323 L 1254.8,287.244 L 1264.88,287.244 L 1274.96,277.165 z " style="fill-opacity:0.5;fill:rgb(253,0,0);stroke:rgb(253,0,0);stroke-width:2"/></g>
<g fill-rule="evenodd"><path d="M 1214.49,317.48 L 1285.04,277.165 L 1285.04,297.323 L 1214.49,317.48 z " style="fill-opacity:0.5;fill:rgb(51,51,153);stroke:rgb(0,0,0);stroke-width:5"/></g>
<g fill-rule="evenodd"><path d="M 307.402,377.953 L 317.48,377.953 L 327.559,377.953 L 337.638,377.953 L 347.717,388.031 L 357.795,388.031 L 367.874,398.11 L 377.953,398.11 L 377.953,408.189 L 367.874,408.189 L 357.795,418.268 L 347.717,418.268 L 337.638,428.346 L 327.559,428.346 L 317.48,418.268 L 307.402,418.268 L 297.323,408.189 L 287.244,408.189 L 277.165,398.11 L 287.244,388.031 L 297.323,388.031 L 307.402,377.953 z " style="fill-opacity:0.5;fill:rgb(253,0,0);stroke:rgb(253,0,0);stroke-width:2"/></g>
<g fill-rule="evenodd"><path d="M 377.953,408.189 L 327.559,428.346 L 277.165,398.11 L 337.638,377.953 L 377.953,408.189 z " style="fill-opacity:0.5;fill:rgb(51,51,153);stroke:rgb(0,0,0);stroke-width:5"/></g>
<g fill-rule="evenodd"><path d="M 952.441,377.953 L 962.52,377.953 L 972.598,377.953 L 982.677,377.953 L 992.756,388.031 L 1002.83,388.031 L 1002.83,398.11 L 1002.83,408.189 L 992.756,408.189 L 982.677,418.268 L 972.598,418.268 L 962.52,428.346 L 952.441,428.346 L 942.362,418.268 L 932.283,418.268 L 922.205,408.189 L 912.126,408.189 L 912.126,398.11 L 922.205,398.11 L 932.283,388.031 L 942.362,388.031 L 952.441,377.953 z " style="fill-opacity:0.5;fill:rgb(253,0,0);stroke:rgb(253,0,0);stroke-width:2"/></g>
<g fill-rule="evenodd"><path d="M 1002.83,408.189 L 952.441,428.346 L 912.126,398.11 L 982.677,377.953 L 1002.83,388.031 L 1002.83,408.189 z " style="fill-opacity:0.5;fill:rgb(51,51,153);stroke:rgb(0,0,0);stroke-width:5"/></g>
<g fill-rule="evenodd"><path d="M 166.299,398.11 L 176.378,398.11 L 186.457,398.11 L 196.535,398.11 L 196.535,408.189 L 196.535,418.268 L 206.614,428.346 L 216.693,428.346 L 226.772,418.268 L 236.85,418.268 L 246.929,418.268 L 257.008,418.268 L 267.087,428.346 L 277.165,428.346 L 287.244,438.425 L 297.323,438.425 L 297.323,448.504 L 287.244,458.583 L 297.323,468.661 L 297.323,478.74 L 297.323,488.819 L 307.402,498.898 L 317.48,498.898 L 317.48,508.976 L 317.48,519.055 L 317.48,529.134 L 317.48,539.213 L 317.48,549.291 L 317.48,559.37 L 307.402,559.37 L 297.323,569.449 L 287.244,569.449 L 277.165,579.528 L 267.087,589.606 L 267.087,599.685 L 267.087,609.764 L 267.087,619.843 L 257.008,629.921 L 246.929,629.921 L 246.929,619.843 L 246.929,609.764 L 246.929,599.685 L 257.008,589.606 L 246.929,579.528 L 236.85,579.528 L 226.772,569.449 L 216.693,569.449 L 206.614,559.37 L 196.535,559.37 L 186.457,549.291 L 176.378,549.291 L 166.299,559.37 L 156.22,559.37 L 146.142,549.291 L 136.063,549.291 L 125.984,559.37 L 115.906,559.37 L 105.827,569.449 L 95.748,569.449 L 85.6693,579.528 L 75.5906,589.606 L 75.5906,599.685 L 65.5118,609.764 L 55.4331,609.764 L 45.3543,619.843 L 35.2756,629.921 L 35.2756,640 L 35.2756,650.079 L 35.2756,660.157 L 35.2756,670.236 L 45.3543,680.315 L 55.4331,680.315 L 65.5118,690.394 L 75.5906,690.394 L 75.5906,700.472 L 75.5906,710.551 L 85.6693,720.63 L 95.748,720.63 L 105.827,730.709 L 115.906,730.709 L 125.984,740.787 L 136.063,740.787 L 146.142,740.787 L 156.22,740.787 L 166.299,740.787 L 176.378,740.787 L 186.457,740.787 L 196.535,740.787 L 206.614,730.709 L 216.693,730.709 L 226.772,720.63 L 236.85,720.63 L 246.929,710.551 L 257.008,710.551 L 267.087,700.472 L 277.165,700.472 L 287.244,690.394 L 287.244,680.315 L 287.244,670.236 L 287.244,660.157 L 277.165,650.079 L 287.244,640 L 297.323,640 L 307.402,640 L 307.402,650.079 L 307.402,660.157 L 307.402,670.236 L 307.402,680.315 L 307.402,690.394 L 297.323,700.472 L 287.244,700.472 L 277.165,710.551 L 267.087,710.551 L 257.008,720.63 L 267.087,730.709 L 277.165,730.709 L 287.244,730.709 L 297.323,730.709 L 307.402,740.787 L 317.48,740.787 L 317.48,750.866 L 317.48,760.945 L 317.48,771.024 L 317.48,781.102 L 317.48,791.181 L 317.48,801.26 L 307.402,801.26 L 297.323,811.339 L 297.323,821.417 L 297.323,831.496 L 297.323,841.575 L 297.323,851.654 L 297.323,861.732 L 287.244,861.732 L 277.165,871.811 L 267.087,871.811 L 257.008,881.89 L 246.929,881.89 L 236.85,871.811 L 226.772,871.811 L 216.693,861.732 L 206.614,861.732 L 196.535,871.811 L 196.535,881.89 L 196.535,891.969 L 196.535,902.047 L 186.457,902.047 L 176.378,902.047 L 166.299,902.047 L 166.299,891.969 L 166.299,881.89 L 166.299,871.811 L 166.299,861.732 L 156.22,851.654 L 146.142,851.654 L 136.063,851.654 L 125.984,851.654 L 115.906,851.654 L 105.827,851.654 L 95.748,851.654 L 85.6693,851.654 L 75.5906,851.654 L 65.5118,851.654 L 55.4331,851.654 L 45.3543,851.654 L 35.2756,861.732 L 25.1969,861.732 L 15.1181,871.811 L 5.03937,871.811 L 5.03937,861.732 L 5.03937,851.654 L 5.03937,841.575 L 5.03937,831.496 L 5.03937,821.417 L 5.03937,811.339 L 5.03937,801.26 L 5.03937,791.181 L 5.03937,781.102 L 5.03937,771.024 L 5.03937,760.945 L 5.03937,750.866 L 5.03937,740.787 L 5.03937,730.709 L 5.03937,720.63 L 5.03937,710.551 L 5.03937,700.472 L 5.03937,690.394 L 5.03937,680.315 L 5.03937,670.236 L 5.03937,660.157 L 5.03937,650.079 L 5.03937,640 L 5.03937,629.921 L 5.03937,619.843 L 5.03937,609.764 L 5.03937,599.685 L 5.03937,589.606 L 5.03937,579.528 L 5.03937,569.449 L 5.03937,559.37 L 5.03937,549.291 L 5.03937,539.213 L 5.03937,529.134 L 5.03937,519.055 L 5.03937,508.976 L 5.03937,498.898 L 5.03937,488.819 L 5.03937,478.74 L 5.03937,468.661 L 5.03937,458.583 L 5.03937,448.504 L 5.03937,438.425 L 5.03937,428.346 L 15.1181,428.346 L 25.1969,438.425 L 35.2756,438.425 L 45.3543,448.504 L 55.4331,448.504 L 65.5118,448.504 L 75.5906,448.504 L 85.6693,448.504 L 95.748,448.504 L 105.827,448.504 L 115.906,448.504 L 125.984,448.504 L 136.063,448.504 L 146.142,448.504 L 156.22,448.504 L 166.299,438.425 L 166.299,428.346 L 166.299,418.268 L 166.299,408.189 L 166.299,398.11 z " style="fill-opacity:0.5;fill:rgb(253,0,0);stroke:rgb(253,0,0);stroke-width:2"/></g>
<g fill-rule="evenodd"><path d="M 196.535,902.047 L 166.299,902.047 L 156.22,851.654 L 45.3543,851.654 L 5.03937,871.811 L 5.03937,428.346 L 45.3543,448.504 L 156.22,448.504 L 166.299,398.11 L 196.535,398.11 L 206.614,428.346 L 257.008,418.268 L 297.323,438.425 L 287.244,458.583 L 297.323,488.819 L 317.48,498.898 L 317.48,559.37 L 267.087,589.606 L 257.008,629.921 L 257.008,589.606 L 186.457,549.291 L 136.063,549.291 L 95.748,569.449 L 35.2756,629.921 L 35.2756,670.236 L 125.984,740.787 L 196.535,740.787 L 277.165,700.472 L 277.165,650.079 L 307.402,640 L 307.402,690.394 L 257.008,720.63 L 317.48,740.787 L 297.323,861.732 L 257.008,881.89 L 206.614,861.732 L 196.535,902.047 z " style="fill-opacity:0.5;fill:rgb(51,51,153);stroke:rgb(0,0,0);stroke-width:5"/></g>
<g fill-rule="evenodd"><path d="M 1093.54,398.11 L 1103.62,398.11 L 1113.7,398.11 L 1123.78,398.11 L 1123.78,408.189 L 1123.78,418.268 L 1123.78,428.346 L 1123.78,438.425 L 1133.86,448.504 L 1143.94,448.504 L 1154.02,448.504 L 1164.09,448.504 L 1174.17,448.504 L 1184.25,448.504 L 1194.33,448.504 L 1204.41,448.504 L 1214.49,448.504 L 1224.57,448.504 L 1234.65,448.504 L 1244.72,448.504 L 1254.8,438.425 L 1264.88,438.425 L 1274.96,428.346 L 1285.04,428.346 L 1285.04,438.425 L 1285.04,448.504 L 1285.04,458.583 L 1285.04,468.661 L 1285.04,478.74 L 1285.04,488.819 L 1285.04,498.898 L 1285.04,508.976 L 1285.04,519.055 L 1285.04,529.134 L 1285.04,539.213 L 1285.04,549.291 L 1285.04,559.37 L 1285.04,569.449 L 1285.04,579.528 L 1285.04,589.606 L 1285.04,599.685 L 1285.04,609.764 L 1285.04,619.843 L 1285.04,629.921 L 1285.04,640 L 1285.04,650.079 L 1285.04,660.157 L 1285.04,670.236 L 1285.04,680.315 L 1285.04,690.394 L 1285.04,700.472 L 1285.04,710.551 L 1285.04,720.63 L 1285.04,730.709 L 1285.04,740.787 L 1285.04,750.866 L 1285.04,760.945 L 1285.04,771.024 L 1285.04,781.102 L 1285.04,791.181 L 1285.04,801.26 L 1285.04,811.339 L 1285.04,821.417 L 1285.04,831.496 L 1285.04,841.575 L 1285.04,851.654 L 1285.04,861.732 L 1285.04,871.811 L 1274.96,871.811 L 1264.88,861.732 L 1254.8,861.732 L 1244.72,851.654 L 1234.65,851.654 L 1224.57,851.654 L 1214.49,851.654 L 1204.41,851.654 L 1194.33,851.654 L 1184.25,851.654 L 1174.17,851.654 L 1164.09,851.654 L 1154.02,851.654 L 1143.94,851.654 L 1133.86,851.654 L 1123.78,861.732 L 1123.78,871.811 L 1123.78,881.89 L 1123.78,891.969 L 1123.78,902.047 L 1113.7,902.047 L 1103.62,902.047 L 1093.54,902.047 L 1093.54,891.969 L 1093.54,881.89 L 1093.54,871.811 L 1083.46,861.732 L 1073.39,861.732 L 1063.31,871.811 L 1053.23,871.811 L 1043.15,881.89 L 1033.07,881.89 L 1022.99,871.811 L 1012.91,871.811 L 1002.83,861.732 L 992.756,861.732 L 982.677,851.654 L 992.756,841.575 L 992.756,831.496 L 992.756,821.417 L 992.756,811.339 L 982.677,801.26 L 972.598,801.26 L 972.598,791.181 L 972.598,781.102 L 972.598,771.024 L 972.598,760.945 L 972.598,750.866 L 972.598,740.787 L 982.677,740.787 L 992.756,730.709 L 1002.83,730.709 L 1012.91,730.709 L 1022.99,730.709 L 1033.07,720.63 L 1022.99,710.551 L 1012.91,710.551 L 1002.83,700.472 L 992.756,700.472 L 992.756,690.394 L 982.677,680.315 L 972.598,680.315 L 982.677,680.315 L 992.756,670.236 L 982.677,660.157 L 972.598,660.157 L 982.677,660.157 L 992.756,650.079 L 982.677,640 L 972.598,640 L 982.677,640 L 992.756,640 L 1002.83,640 L 1012.91,650.079 L 1002.83,660.157 L 1002.83,670.236 L 1002.83,680.315 L 1002.83,690.394 L 1012.91,700.472 L 1022.99,700.472 L 1033.07,710.551 L 1043.15,710.551 L 1053.23,720.63 L 1063.31,720.63 L 1073.39,730.709 L 1083.46,730.709 L 1093.54,740.787 L 1103.62,740.787 L 1113.7,740.787 L 1123.78,740.787 L 1133.86,740.787 L 1143.94,740.787 L 1154.02,740.787 L 1164.09,740.787 L 1174.17,730.709 L 1184.25,730.709 L 1194.33,720.63 L 1204.41,720.63 L 1214.49,710.551 L 1214.49,700.472 L 1214.49,690.394 L 1224.57,690.394 L 1234.65,680.315 L 1244.72,680.315 L 1254.8,670.236 L 1254.8,660.157 L 1254.8,650.079 L 1254.8,640 L 1254.8,629.921 L 1244.72,619.843 L 1234.65,609.764 L 1224.57,609.764 L 1214.49,599.685 L 1214.49,589.606 L 1204.41,579.528 L 1194.33,569.449 L 1184.25,569.449 L 1174.17,559.37 L 1164.09,559.37 L 1154.02,549.291 L 1143.94,549.291 L 1133.86,559.37 L 1123.78,559.37 L 1113.7,549.291 L 1103.62,549.291 L 1093.54,559.37 L 1083.46,559.37 L 1073.39,569.449 L 1063.31,569.449 L 1053.23,579.528 L 1043.15,589.606 L 1043.15,599.685 L 1043.15,609.764 L 1043.15,619.843 L 1043.15,629.921 L 1033.07,629.921 L 1022.99,619.843 L 1033.07,609.764 L 1022.99,599.685 L 1012.91,599.685 L 1022.99,599.685 L 1033.07,589.606 L 1022.99,579.528 L 1012.91,579.528 L 1002.83,569.449 L 992.756,569.449 L 982.677,559.37 L 972.598,559.37 L 972.598,549.291 L 972.598,539.213 L 972.598,529.134 L 972.598,519.055 L 972.598,508.976 L 972.598,498.898 L 982.677,498.898 L 992.756,488.819 L 992.756,478.74 L 992.756,468.661 L 1002.83,468.661 L 1012.91,458.583 L 1002.83,448.504 L 992.756,448.504 L 992.756,438.425 L 1002.83,438.425 L 1012.91,428.346 L 1022.99,428.346 L 1033.07,418.268 L 1043.15,418.268 L 1053.23,418.268 L 1063.31,418.268 L 1073.39,428.346 L 1083.46,428.346 L 1093.54,418.268 L 1093.54,408.189 L 1093.54,398.11 z " style="fill-opacity:0.5;fill:rgb(253,0,0);stroke:rgb(253,0,0);stroke-width:2"/></g>
<g fill-rule="evenodd"><path d="M 1285.04,871.811 L 1244.72,851.654 L 1133.86,851.654 L 1123.78,902.047 L 1093.54,902.047 L 1083.46,861.732 L 1033.07,881.89 L 982.677,851.654 L 992.756,811.339 L 972.598,801.26 L 972.598,740.787 L 1033.07,720.63 L 972.598,680.315 L 992.756,670.236 L 972.598,660.157 L 992.756,650.079 L 972.598,640 L 1012.91,650.079 L 1012.91,700.472 L 1093.54,740.787 L 1164.09,740.787 L 1254.8,670.236 L 1254.8,629.921 L 1154.02,549.291 L 1103.62,549.291 L 1063.31,569.449 L 1033.07,629.921 L 1033.07,609.764 L 1012.91,599.685 L 1033.07,589.606 L 972.598,559.37 L 972.598,498.898 L 1012.91,458.583 L 992.756,438.425 L 1033.07,418.268 L 1083.46,428.346 L 1093.54,398.11 L 1123.78,398.11 L 1133.86,448.504 L 1244.72,448.504 L 1285.04,428.346 L 1285.04,871.811 z " style="fill-opacity:0.5;fill:rgb(51,51,153);stroke:rgb(0,0,0);stroke-width:5"/></g>
<g fill-rule="evenodd"><path d="M 589.606,851.654 L 599.685,851.654 L 609.764,851.654 L 619.843,851.654 L 629.921,861.732 L 640,861.732 L 650.079,861.732 L 660.157,861.732 L 670.236,851.654 L 680.315,851.654 L 690.394,851.654 L 700.472,851.654 L 700.472,861.732 L 710.551,871.811 L 720.63,871.811 L 730.709,861.732 L 740.787,861.732 L 730.709,871.811 L 720.63,871.811 L 710.551,881.89 L 700.472,881.89 L 690.394,891.969 L 700.472,902.047 L 690.394,912.126 L 700.472,922.205 L 690.394,932.283 L 690.394,942.362 L 690.394,952.441 L 700.472,962.52 L 710.551,972.598 L 720.63,972.598 L 710.551,982.677 L 720.63,992.756 L 710.551,1002.83 L 710.551,1012.91 L 710.551,1022.99 L 700.472,1033.07 L 700.472,1043.15 L 710.551,1053.23 L 720.63,1053.23 L 730.709,1063.31 L 740.787,1063.31 L 750.866,1073.39 L 760.945,1073.39 L 771.024,1083.46 L 781.102,1093.54 L 771.024,1093.54 L 760.945,1093.54 L 750.866,1093.54 L 740.787,1083.46 L 730.709,1093.54 L 730.709,1103.62 L 730.709,1113.7 L 730.709,1123.78 L 720.63,1133.86 L 710.551,1133.86 L 710.551,1123.78 L 710.551,1113.7 L 710.551,1103.62 L 710.551,1093.54 L 700.472,1083.46 L 690.394,1093.54 L 680.315,1093.54 L 670.236,1103.62 L 660.157,1103.62 L 650.079,1093.54 L 640,1093.54 L 629.921,1103.62 L 619.843,1103.62 L 609.764,1093.54 L 599.685,1093.54 L 589.606,1083.46 L 579.528,1093.54 L 579.528,1103.62 L 579.528,1113.7 L 579.528,1123.78 L 579.528,1133.86 L 569.449,1133.86 L 559.37,1123.78 L 569.449,1113.7 L 559.37,1103.62 L 549.291,1103.62 L 539.213,1093.54 L 529.134,1093.54 L 519.055,1093.54 L 508.976,1093.54 L 519.055,1083.46 L 529.134,1073.39 L 539.213,1073.39 L 549.291,1063.31 L 559.37,1063.31 L 569.449,1053.23 L 579.528,1053.23 L 589.606,1043.15 L 599.685,1033.07 L 589.606,1022.99 L 579.528,1022.99 L 569.449,1012.91 L 579.528,1002.83 L 569.449,992.756 L 579.528,982.677 L 569.449,972.598 L 579.528,972.598 L 589.606,962.52 L 599.685,952.441 L 599.685,942.362 L 599.685,932.283 L 589.606,922.205 L 599.685,912.126 L 589.606,902.047 L 599.685,891.969 L 589.606,881.89 L 579.528,881.89 L 569.449,871.811 L 559.37,871.811 L 549.291,861.732 L 559.37,861.732 L 569.449,871.811 L 579.528,871.811 L 589.606,861.732 L 589.606,851.654 z " style="fill-opacity:0.5;fill:rgb(253,0,0);stroke:rgb(253,0,0);stroke-width:2"/></g>
<g fill-rule="evenodd"><path d="M 720.63,1133.86 L 700.472,1083.46 L 670.236,1103.62 L 619.843,1103.62 L 589.606,1083.46 L 579.528,1133.86 L 559.37,1123.78 L 559.37,1103.62 L 508.976,1093.54 L 599.685,1033.07 L 569.449,1012.91 L 569.449,972.598 L 599.685,952.441 L 599.685,891.969 L 549.291,861.732 L 740.787,861.732 L 690.394,891.969 L 690.394,952.441 L 720.63,972.598 L 700.472,1043.15 L 781.102,1093.54 L 740.787,1083.46 L 720.63,1133.86 z " style="fill-opacity:0.5;fill:rgb(51,51,153);stroke:rgb(0,0,0);stroke-width:5"/></g>
<g fill-rule="evenodd"><path d="M 327.559,871.811 L 337.638,871.811 L 347.717,871.811 L 357.795,871.811 L 367.874,881.89 L 377.953,881.89 L 377.953,891.969 L 377.953,902.047 L 367.874,902.047 L 357.795,912.126 L 347.717,912.126 L 337.638,922.205 L 327.559,922.205 L 317.48,912.126 L 307.402,912.126 L 297.323,902.047 L 287.244,902.047 L 287.244,891.969 L 297.323,891.969 L 307.402,881.89 L 317.48,881.89 L 327.559,871.811 z " style="fill-opacity:0.5;fill:rgb(253,0,0);stroke:rgb(253,0,0);stroke-width:2"/></g>
<g fill-rule="evenodd"><path d="M 377.953,902.047 L 327.559,922.205 L 287.244,891.969 L 357.795,871.811 L 377.953,881.89 L 377.953,902.047 z " style="fill-opacity:0.5;fill:rgb(51,51,153);stroke:rgb(0,0,0);stroke-width:5"/></g>
<g fill-rule="evenodd"><path d="M 932.283,871.811 L 942.362,871.811 L 952.441,871.811 L 962.52,871.811 L 972.598,881.89 L 982.677,881.89 L 992.756,891.969 L 1002.83,891.969 L 1002.83,902.047 L 992.756,902.047 L 982.677,912.126 L 972.598,912.126 L 962.52,922.205 L 952.441,922.205 L 942.362,912.126 L 932.283,912.126 L 922.205,902.047 L 912.126,902.047 L 902.047,891.969 L 912.126,881.89 L 922.205,881.89 L 932.283,871.811 z " style="fill-opacity:0.5;fill:rgb(253,0,0);stroke:rgb(253,0,0);stroke-width:2"/></g>
<g fill-rule="evenodd"><path d="M 1002.83,902.047 L 952.441,922.205 L 902.047,891.969 L 962.52,871.811 L 1002.83,902.047 z " style="fill-opacity:0.5;fill:rgb(51,51,153);stroke:rgb(0,0,0);stroke-width:5"/></g>
<g fill-rule="evenodd"><path d="M 448.504,902.047 L 458.583,912.126 L 468.661,912.126 L 478.74,922.205 L 488.819,922.205 L 488.819,932.283 L 478.74,942.362 L 468.661,942.362 L 458.583,942.362 L 448.504,952.441 L 438.425,962.52 L 428.346,972.598 L 428.346,982.677 L 428.346,992.756 L 428.346,1002.83 L 428.346,1012.91 L 418.268,1022.99 L 408.189,1033.07 L 398.11,1033.07 L 388.031,1033.07 L 398.11,1022.99 L 408.189,1012.91 L 408.189,1002.83 L 408.189,992.756 L 408.189,982.677 L 408.189,972.598 L 408.189,962.52 L 398.11,952.441 L 388.031,952.441 L 377.953,942.362 L 367.874,942.362 L 367.874,932.283 L 377.953,932.283 L 388.031,922.205 L 398.11,922.205 L 408.189,912.126 L 418.268,912.126 L 428.346,912.126 L 438.425,912.126 L 448.504,902.047 z " style="fill-opacity:0.5;fill:rgb(253,0,0);stroke:rgb(253,0,0);stroke-width:2"/></g>
<g fill-rule="evenodd"><path d="M 388.031,1033.07 L 408.189,1012.91 L 408.189,962.52 L 367.874,932.283 L 448.504,902.047 L 488.819,922.205 L 428.346,972.598 L 428.346,1012.91 L 388.031,1033.07 z " style="fill-opacity:0.5;fill:rgb(51,51,153);stroke:rgb(0,0,0);stroke-width:5"/></g>
<g fill-rule="evenodd"><path d="M 841.575,902.047 L 851.654,912.126 L 861.732,912.126 L 871.811,912.126 L 881.89,912.126 L 891.969,922.205 L 902.047,922.205 L 912.126,932.283 L 922.205,932.283 L 922.205,942.362 L 912.126,942.362 L 902.047,952.441 L 891.969,952.441 L 881.89,962.52 L 881.89,972.598 L 881.89,982.677 L 881.89,992.756 L 881.89,1002.83 L 881.89,1012.91 L 891.969,1022.99 L 902.047,1033.07 L 891.969,1033.07 L 881.89,1033.07 L 871.811,1022.99 L 861.732,1012.91 L 861.732,1002.83 L 861.732,992.756 L 861.732,982.677 L 861.732,972.598 L 851.654,962.52 L 841.575,952.441 L 831.496,942.362 L 821.417,942.362 L 811.339,942.362 L 801.26,932.283 L 801.26,922.205 L 811.339,922.205 L 821.417,912.126 L 831.496,912.126 L 841.575,902.047 z " style="fill-opacity:0.5;fill:rgb(253,0,0);stroke:rgb(253,0,0);stroke-width:2"/></g>
<g fill-rule="evenodd"><path d="M 902.047,1033.07 L 861.732,1012.91 L 861.732,972.598 L 801.26,922.205 L 841.575,902.047 L 922.205,932.283 L 881.89,962.52 L 881.89,1012.91 L 902.047,1033.07 z " style="fill-opacity:0.5;fill:rgb(51,51,153);stroke:rgb(0,0,0);stroke-width:5"/></g>
<g fill-rule="evenodd"><path d="M 85.6693,982.677 L 95.748,982.677 L 85.6693,992.756 L 75.5906,992.756 L 65.5118,1002.83 L 55.4331,1002.83 L 45.3543,1002.83 L 35.2756,992.756 L 25.1969,1002.83 L 15.1181,1002.83 L 5.03937,1002.83 L 15.1181,1002.83 L 25.1969,992.756 L 35.2756,992.756 L 45.3543,992.756 L 55.4331,992.756 L 65.5118,992.756 L 75.5906,992.756 L 85.6693,982.677 z " style="fill-opacity:0.5;fill:rgb(253,0,0);stroke:rgb(253,0,0);stroke-width:2"/></g>
<g fill-rule="evenodd"><path d="M 5.03937,1002.83 L 95.748,982.677 L 65.5118,1002.83 L 5.03937,1002.83 z " style="fill-opacity:0.5;fill:rgb(51,51,153);stroke:rgb(0,0,0);stroke-width:5"/></g>
<g fill-rule="evenodd"><path d="M 1194.33,982.677 L 1204.41,982.677 L 1214.49,992.756 L 1224.57,992.756 L 1234.65,992.756 L 1244.72,992.756 L 1254.8,992.756 L 1264.88,992.756 L 1274.96,1002.83 L 1285.04,1002.83 L 1274.96,1002.83 L 1264.88,1002.83 L 1254.8,1002.83 L 1244.72,992.756 L 1234.65,1002.83 L 1224.57,1002.83 L 1214.49,992.756 L 1204.41,992.756 L 1194.33,982.677 z " style="fill-opacity:0.5;fill:rgb(253,0,0);stroke:rgb(253,0,0);stroke-width:2"/></g>
<g fill-rule="evenodd"><path d="M 1285.04,1002.83 L 1224.57,1002.83 L 1194.33,982.677 L 1285.04,1002.83 z " style="fill-opacity:0.5;fill:rgb(51,51,153);stroke:rgb(0,0,0);stroke-width:5"/></g>
<g fill-rule="evenodd"><path d="M 136.063,992.756 L 136.063,1002.83 L 125.984,1012.91 L 136.063,1022.99 L 146.142,1022.99 L 156.22,1022.99 L 166.299,1022.99 L 176.378,1022.99 L 186.457,1012.91 L 186.457,1002.83 L 186.457,992.756 L 196.535,992.756 L 206.614,992.756 L 216.693,992.756 L 226.772,1002.83 L 236.85,1002.83 L 246.929,1012.91 L 257.008,1012.91 L 267.087,1022.99 L 277.165,1022.99 L 277.165,1033.07 L 277.165,1043.15 L 277.165,1053.23 L 277.165,1063.31 L 287.244,1073.39 L 297.323,1073.39 L 307.402,1083.46 L 317.48,1083.46 L 317.48,1093.54 L 317.48,1103.62 L 317.48,1113.7 L 317.48,1123.78 L 307.402,1123.78 L 297.323,1123.78 L 287.244,1123.78 L 277.165,1133.86 L 277.165,1143.94 L 277.165,1154.02 L 277.165,1164.09 L 277.165,1174.17 L 277.165,1184.25 L 277.165,1194.33 L 277.165,1204.41 L 287.244,1214.49 L 297.323,1214.49 L 307.402,1224.57 L 317.48,1224.57 L 327.559,1234.65 L 337.638,1234.65 L 347.717,1244.72 L 357.795,1244.72 L 357.795,1254.8 L 357.795,1264.88 L 357.795,1274.96 L 367.874,1285.04 L 377.953,1285.04 L 388.031,1285.04 L 398.11,1285.04 L 408.189,1285.04 L 418.268,1285.04 L 428.346,1285.04 L 438.425,1285.04 L 448.504,1285.04 L 458.583,1285.04 L 468.661,1285.04 L 478.74,1285.04 L 488.819,1274.96 L 498.898,1274.96 L 508.976,1264.88 L 498.898,1254.8 L 488.819,1254.8 L 498.898,1254.8 L 508.976,1244.72 L 498.898,1234.65 L 488.819,1234.65 L 478.74,1234.65 L 468.661,1234.65 L 468.661,1224.57 L 458.583,1214.49 L 448.504,1214.49 L 448.504,1204.41 L 438.425,1194.33 L 428.346,1194.33 L 428.346,1184.25 L 438.425,1184.25 L 448.504,1174.17 L 458.583,1174.17 L 468.661,1174.17 L 478.74,1174.17 L 488.819,1164.09 L 488.819,1154.02 L 498.898,1154.02 L 508.976,1154.02 L 519.055,1154.02 L 529.134,1164.09 L 519.055,1174.17 L 519.055,1184.25 L 519.055,1194.33 L 519.055,1204.41 L 519.055,1214.49 L 519.055,1224.57 L 519.055,1234.65 L 519.055,1244.72 L 519.055,1254.8 L 519.055,1264.88 L 529.134,1274.96 L 539.213,1274.96 L 549.291,1285.04 L 559.37,1285.04 L 569.449,1285.04 L 579.528,1285.04 L 589.606,1285.04 L 599.685,1285.04 L 609.764,1285.04 L 619.843,1285.04 L 629.921,1285.04 L 640,1285.04 L 650.079,1285.04 L 660.157,1285.04 L 670.236,1285.04 L 680.315,1285.04 L 690.394,1285.04 L 700.472,1285.04 L 710.551,1285.04 L 720.63,1285.04 L 730.709,1285.04 L 740.787,1285.04 L 750.866,1274.96 L 760.945,1274.96 L 771.024,1264.88 L 771.024,1254.8 L 771.024,1244.72 L 771.024,1234.65 L 771.024,1224.57 L 771.024,1214.49 L 771.024,1204.41 L 771.024,1194.33 L 771.024,1184.25 L 771.024,1174.17 L 760.945,1164.09 L 771.024,1154.02 L 781.102,1154.02 L 791.181,1154.02 L 801.26,1164.09 L 811.339,1174.17 L 821.417,1174.17 L 831.496,1174.17 L 841.575,1174.17 L 851.654,1184.25 L 861.732,1194.33 L 851.654,1194.33 L 841.575,1204.41 L 831.496,1214.49 L 831.496,1224.57 L 821.417,1234.65 L 811.339,1234.65 L 801.26,1234.65 L 791.181,1244.72 L 791.181,1254.8 L 791.181,1264.88 L 801.26,1274.96 L 811.339,1285.04 L 821.417,1285.04 L 831.496,1285.04 L 841.575,1285.04 L 851.654,1285.04 L 861.732,1285.04 L 871.811,1285.04 L 881.89,1285.04 L 891.969,1285.04 L 902.047,1285.04 L 912.126,1285.04 L 922.205,1285.04 L 932.283,1274.96 L 932.283,1264.88 L 932.283,1254.8 L 932.283,1244.72 L 942.362,1244.72 L 952.441,1234.65 L 962.52,1234.65 L 972.598,1224.57 L 982.677,1224.57 L 992.756,1214.49 L 1002.83,1214.49 L 1012.91,1204.41 L 1012.91,1194.33 L 1012.91,1184.25 L 1012.91,1174.17 L 1012.91,1164.09 L 1012.91,1154.02 L 1012.91,1143.94 L 1012.91,1133.86 L 1002.83,1123.78 L 992.756,1123.78 L 982.677,1123.78 L 972.598,1123.78 L 972.598,1113.7 L 972.598,1103.62 L 972.598,1093.54 L 972.598,1083.46 L 982.677,1083.46 L 992.756,1073.39 L 1002.83,1073.39 L 1012.91,1063.31 L 1012.91,1053.23 L 1012.91,1043.15 L 1012.91,1033.07 L 1012.91,1022.99 L 1022.99,1022.99 L 1033.07,1012.91 L 1043.15,1012.91 L 1053.23,1002.83 L 1063.31,1002.83 L 1073.39,992.756 L 1083.46,992.756 L 1093.54,992.756 L 1103.62,992.756 L 1103.62,1002.83 L 1103.62,1012.91 L 1113.7,1022.99 L 1123.78,1022.99 L 1133.86,1022.99 L 1143.94,1022.99 L 1154.02,1022.99 L 1164.09,1012.91 L 1154.02,1002.83 L 1154.02,992.756 L 1164.09,1002.83 L 1174.17,1002.83 L 1184.25,1012.91 L 1194.33,1012.91 L 1194.33,1022.99 L 1184.25,1033.07 L 1174.17,1033.07 L 1164.09,1033.07 L 1154.02,1033.07 L 1143.94,1033.07 L 1133.86,1033.07 L 1123.78,1033.07 L 1113.7,1033.07 L 1103.62,1022.99 L 1093.54,1033.07 L 1083.46,1033.07 L 1073.39,1043.15 L 1073.39,1053.23 L 1073.39,1063.31 L 1063.31,1063.31 L 1053.23,1073.39 L 1063.31,1083.46 L 1053.23,1093.54 L 1043.15,1103.62 L 1033.07,1113.7 L 1033.07,1123.78 L 1043.15,1133.86 L 1033.07,1143.94 L 1043.15,1154.02 L 1033.07,1164.09 L 1043.15,1174.17 L 1033.07,1184.25 L 1033.07,1194.33 L 1033.07,1204.41 L 1022.99,1214.49 L 1012.91,1214.49 L 1002.83,1224.57 L 992.756,1224.57 L 982.677,1234.65 L 972.598,1234.65 L 962.52,1234.65 L 952.441,1244.72 L 952.441,1254.8 L 952.441,1264.88 L 962.52,1274.96 L 972.598,1285.04 L 982.677,1285.04 L 992.756,1285.04 L 1002.83,1285.04 L 1012.91,1285.04 L 1022.99,1285.04 L 1033.07,1285.04 L 1043.15,1285.04 L 1053.23,1285.04 L 1063.31,1285.04 L 1073.39,1285.04 L 1083.46,1285.04 L 1093.54,1285.04 L 1103.62,1285.04 L 1113.7,1285.04 L 1123.78,1285.04 L 1133.86,1285.04 L 1143.94,1285.04 L 1154.02,1285.04 L 1164.09,1285.04 L 1174.17,1285.04 L 1184.25,1285.04 L 1194.33,1285.04 L 1204.41,1285.04 L 1214.49,1285.04 L 1224.57,1285.04 L 1234.65,1285.04 L 1244.72,1274.96 L 1254.8,1274.96 L 1264.88,1274.96 L 1274.96,1274.96 L 1285.04,1274.96 L 1285.04,1285.04 L 1274.96,1285.04 L 1264.88,1285.04 L 1254.8,1285.04 L 1244.72,1285.04 L 1234.65,1285.04 L 1224.57,1285.04 L 1214.49,1285.04 L 1204.41,1285.04 L 1194.33,1285.04 L 1184.25,1285.04 L 1174.17,1285.04 L 1164.09,1285.04 L 1154.02,1285.04 L 1143.94,1285.04 L 1133.86,1285.04 L 1123.78,1285.04 L 1113.7,1285.04 L 1103.62,1285.04 L 1093.54,1285.04 L 1083.46,1285.04 L 1073.39,1285.04 L 1063.31,1285.04 L 1053.23,1285.04 L 1043.15,1285.04 L 1033.07,1285.04 L 1022.99,1285.04 L 1012.91,1285.04 L 1002.83,1285.04 L 992.756,1285.04 L 982.677,1285.04 L 972.598,1285.04 L 962.52,1285.04 L 952.441,1285.04 L 942.362,1285.04 L 932.283,1285.04 L 922.205,1285.04 L 912.126,1285.04 L 902.047,1285.04 L 891.969,1285.04 L 881.89,1285.04 L 871.811,1285.04 L 861.732,1285.04 L 851.654,1285.04 L 841.575,1285.04 L 831.496,1285.04 L 821.417,1285.04 L 811.339,1285.04 L 801.26,1285.04 L 791.181,1285.04 L 781.102,1285.04 L 771.024,1285.04 L 760.945,1285.04 L 750.866,1285.04 L 740.787,1285.04 L 730.709,1285.04 L 720.63,1285.04 L 710.551,1285.04 L 700.472,1285.04 L 690.394,1285.04 L 680.315,1285.04 L 670.236,1285.04 L 660.157,1285.04 L 650.079,1285.04 L 640,1285.04 L 629.921,1285.04 L 619.843,1285.04 L 609.764,1285.04 L 599.685,1285.04 L 589.606,1285.04 L 579.528,1285.04 L 569.449,1285.04 L 559.37,1285.04 L 549.291,1285.04 L 539.213,1285.04 L 529.134,1285.04 L 519.055,1285.04 L 508.976,1285.04 L 498.898,1285.04 L 488.819,1285.04 L 478.74,1285.04 L 468.661,1285.04 L 458.583,1285.04 L 448.504,1285.04 L 438.425,1285.04 L 428.346,1285.04 L 418.268,1285.04 L 408.189,1285.04 L 398.11,1285.04 L 388.031,1285.04 L 377.953,1285.04 L 367.874,1285.04 L 357.795,1285.04 L 347.717,1285.04 L 337.638,1285.04 L 327.559,1285.04 L 317.48,1285.04 L 307.402,1285.04 L 297.323,1285.04 L 287.244,1285.04 L 277.165,1285.04 L 267.087,1285.04 L 257.008,1285.04 L 246.929,1285.04 L 236.85,1285.04 L 226.772,1285.04 L 216.693,1285.04 L 206.614,1285.04 L 196.535,1285.04 L 186.457,1285.04 L 176.378,1285.04 L 166.299,1285.04 L 156.22,1285.04 L 146.142,1285.04 L 136.063,1285.04 L 125.984,1285.04 L 115.906,1285.04 L 105.827,1285.04 L 95.748,1285.04 L 85.6693,1285.04 L 75.5906,1285.04 L 65.5118,1285.04 L 55.4331,1285.04 L 45.3543,1285.04 L 35.2756,1285.04 L 25.1969,1285.04 L 15.1181,1285.04 L 5.03937,1285.04 L 5.03937,1274.96 L 15.1181,1274.96 L 25.1969,1274.96 L 35.2756,1274.96 L 45.3543,1274.96 L 55.4331,1285.04 L 65.5118,1285.04 L 75.5906,1285.04 L 85.6693,1285.04 L 95.748,1285.04 L 105.827,1285.04 L 115.906,1285.04 L 125.984,1285.04 L 136.063,1285.04 L 146.142,1285.04 L 156.22,1285.04 L 166.299,1285.04 L 176.378,1285.04 L 186.457,1285.04 L 196.535,1285.04 L 206.614,1285.04 L 216.693,1285.04 L 226.772,1285.04 L 236.85,1285.04 L 246.929,1285.04 L 257.008,1285.04 L 267.087,1285.04 L 277.165,1285.04 L 287.244,1285.04 L 297.323,1285.04 L 307.402,1285.04 L 317.48,1285.04 L 327.559,1274.96 L 337.638,1264.88 L 327.559,1254.8 L 337.638,1244.72 L 327.559,1234.65 L 317.48,1234.65 L 307.402,1234.65 L 297.323,1224.57 L 287.244,1224.57 L 277.165,1214.49 L 267.087,1214.49 L 257.008,1204.41 L 246.929,1194.33 L 257.008,1184.25 L 246.929,1174.17 L 257.008,1164.09 L 257.008,1154.02 L 257.008,1143.94 L 257.008,1133.86 L 257.008,1123.78 L 246.929,1113.7 L 257.008,1103.62 L 246.929,1093.54 L 236.85,1093.54 L 226.772,1083.46 L 226.772,1073.39 L 216.693,1063.31 L 206.614,1053.23 L 206.614,1043.15 L 196.535,1033.07 L 186.457,1022.99 L 176.378,1033.07 L 166.299,1033.07 L 156.22,1033.07 L 146.142,1022.99 L 136.063,1022.99 L 125.984,1033.07 L 115.906,1033.07 L 105.827,1033.07 L 95.748,1022.99 L 95.748,1012.91 L 105.827,1012.91 L 115.906,1002.83 L 125.984,1002.83 L 136.063,992.756M 549.291,1083.46 L 539.213,1093.54 L 549.291,1103.62 L 559.37,1103.62 L 569.449,1093.54 L 559.37,1083.46 L 549.291,1083.46M 801.26,1164.09 L 791.181,1174.17 L 801.26,1184.25 L 811.339,1174.17 L 801.26,1164.09 z " style="fill-opacity:0.5;fill:rgb(253,0,0);stroke:rgb(253,0,0);stroke-width:2"/></g>
<g fill-rule="evenodd"><path d="M 1285.04,1285.04 L 5.03937,1274.96 L 317.48,1285.04 L 337.638,1264.88 L 327.559,1234.65 L 246.929,1194.33 L 257.008,1103.62 L 226.772,1083.46 L 206.614,1043.15 L 186.457,1022.99 L 95.748,1022.99 L 136.063,992.756 L 136.063,1022.99 L 176.378,1022.99 L 186.457,992.756 L 277.165,1022.99 L 277.165,1063.31 L 317.48,1083.46 L 317.48,1123.78 L 277.165,1133.86 L 277.165,1204.41 L 357.795,1244.72 L 367.874,1285.04 L 478.74,1285.04 L 508.976,1264.88 L 488.819,1254.8 L 508.976,1244.72 L 498.898,1234.65 L 468.661,1234.65 L 428.346,1194.33 L 448.504,1174.17 L 478.74,1174.17 L 488.819,1154.02 L 529.134,1164.09 L 519.055,1264.88 L 549.291,1285.04 L 760.945,1274.96 L 771.024,1154.02 L 841.575,1174.17 L 861.732,1194.33 L 791.181,1244.72 L 811.339,1285.04 L 922.205,1285.04 L 932.283,1244.72 L 1012.91,1204.41 L 1012.91,1133.86 L 972.598,1123.78 L 972.598,1083.46 L 1012.91,1063.31 L 1012.91,1022.99 L 1073.39,992.756 L 1103.62,992.756 L 1113.7,1022.99 L 1154.02,1022.99 L 1154.02,992.756 L 1194.33,1022.99 L 1083.46,1033.07 L 1033.07,1113.7 L 1033.07,1204.41 L 962.52,1234.65 L 952.441,1264.88 L 972.598,1285.04 L 1285.04,1285.04M 559.37,1103.62 L 569.449,1093.54 L 549.291,1083.46 L 539.213,1093.54 L 559.37,1103.62 z " style="fill-opacity:0.5;fill:rgb(51,51,153);stroke:rgb(0,0,0);stroke-width:5"/></g>
</svg>
