<?xml version="1.0" standalone="no"?>
<!DOCTYPE svg PUBLIC "-//W3C//DTD SVG 1.1//EN"
"http://www.w3.org/Graphics/SVG/1.1/DTD/svg11.dtd">
<svg width="100%" height="100%" version="1.1"
xmlns="http://www.w3.org/2000/svg"
xmlns:xlink="http://www.w3.org/1999/xlink">
<g fill-rule="evenodd"><path d="M 303.874,4.53543 L 312.945,4.53543 L 322.016,4.53543 L 331.087,4.53543 L 340.157,4.53543 L 331.087,4.53543 L 322.016,13.6063 L 322.016,22.6772 L 322.016,31.748 L 322.016,40.8189 L 322.016,49.8898 L 312.945,49.8898 L 303.874,58.9606 L 294.803,58.9606 L 285.732,68.0315 L 276.661,68.0315 L 267.591,77.1024 L 258.52,77.1024 L 249.449,86.1732 L 249.449,95.2441 L 249.449,104.315 L 249.449,113.386 L 249.449,122.457 L 249.449,131.528 L 249.449,140.598 L 249.449,149.669 L 258.52,158.74 L 267.591,158.74 L 276.661,158.74 L 285.732,158.74 L 285.732,167.811 L 285.732,176.882 L 285.732,185.953 L 285.732,195.024 L 276.661,195.024 L 267.591,204.094 L 258.52,204.094 L 249.449,213.165 L 249.449,222.236 L 249.449,231.307 L 249.449,240.378 L 249.449,249.449 L 240.378,249.449 L 231.307,258.52 L 222.236,258.52 L 213.165,267.591 L 204.094,267.591 L 195.024,276.661 L 185.953,276.661 L 176.882,276.661 L 167.811,276.661 L 167.811,267.591 L 167.811,258.52 L 158.74,249.449 L 149.669,249.449 L 140.598,249.449 L 131.528,249.449 L 122.457,249.449 L 113.386,249.449 L 104.315,249.449 L 95.2441,258.52 L 104.315,267.591 L 95.2441,267.591 L 86.1732,267.591 L 77.1024,258.52 L 68.0315,249.449 L 77.1024,240.378 L 86.1732,240.378 L 95.2441,231.307 L 104.315,231.307 L 113.386,231.307 L 122.457,231.307 L 131.528,231.307 L 140.598,231.307 L 149.669,231.307 L 158.74,231.307 L 167.811,231.307 L 176.882,231.307 L 185.953,222.236 L 195.024,213.165 L 195.024,204.094 L 204.094,195.024 L 213.165,185.953 L 204.094,176.882 L 213.165,176.882 L 222.236,167.811 L 231.307,158.74 L 231.307,149.669 L 231.307,140.598 L 222.236,131.528 L 231.307,122.457 L 222.236,113.386 L 231.307,104.315 L 231.307,95.2441 L 231.307,86.1732 L 231.307,77.1024 L 240.378,68.0315 L 249.449,68.0315 L 258.52,58.9606 L 267.591,58.9606 L 276.661,49.8898 L 285.732,49.8898 L 294.803,40.8189 L 303.874,31.748 L 303.874,22.6772 L 303.874,13.6063 L 303.874,4.53543 z " style="fill-opacity:0.5;fill:rgb(253,0,0);stroke:rgb(253,0,0);stroke-width:2"/></g>
<g fill-rule="evenodd"><path d="M 86.1732,267.591 L 104.315,267.591 L 104.315,249.449 L 158.74,249.449 L 167.811,276.661 L 195.024,276.661 L 249.449,249.449 L 249.449,213.165 L 285.732,195.024 L 285.732,158.74 L 249.449,149.669 L 249.449,86.1732 L 322.016,49.8898 L 322.016,13.6063 L 340.157,4.53543 L 303.874,4.53543 L 303.874,31.748 L 231.307,77.1024 L 231.307,158.74 L 204.094,176.882 L 213.165,185.953 L 195.024,213.165 L 176.882,231.307 L 77.1024,240.378 L 68.0315,249.449 L 86.1732,267.591 z " style="fill-opacity:0.5;fill:rgb(0,253,0);stroke:rgb(0,0,0);stroke-width:5"/></g>
<g fill-rule="evenodd"><path d="M 421.795,4.53543 L 430.866,4.53543 L 439.937,4.53543 L 449.008,4.53543 L 458.079,4.53543 L 467.15,4.53543 L 476.22,4.53543 L 485.291,4.53543 L 494.362,4.53543 L 503.433,4.53543 L 512.504,4.53543 L 503.433,4.53543 L 494.362,13.6063 L 485.291,13.6063 L 476.22,22.6772 L 467.15,31.748 L 467.15,40.8189 L 467.15,49.8898 L 467.15,58.9606 L 467.15,68.0315 L 467.15,77.1024 L 467.15,86.1732 L 476.22,95.2441 L 485.291,95.2441 L 494.362,104.315 L 503.433,104.315 L 512.504,113.386 L 521.575,113.386 L 521.575,122.457 L 521.575,131.528 L 512.504,131.528 L 503.433,122.457 L 494.362,113.386 L 485.291,104.315 L 476.22,104.315 L 467.15,95.2441 L 458.079,95.2441 L 449.008,86.1732 L 439.937,95.2441 L 430.866,104.315 L 421.795,104.315 L 412.724,104.315 L 403.654,104.315 L 394.583,95.2441 L 385.512,95.2441 L 385.512,86.1732 L 394.583,86.1732 L 403.654,77.1024 L 412.724,77.1024 L 421.795,68.0315 L 412.724,58.9606 L 403.654,58.9606 L 412.724,58.9606 L 421.795,49.8898 L 430.866,49.8898 L 439.937,40.8189 L 449.008,40.8189 L 458.079,31.748 L 449.008,22.6772 L 439.937,22.6772 L 439.937,13.6063 L 430.866,4.53543 L 421.795,4.53543 z " style="fill-opacity:0.5;fill:rgb(253,0,0);stroke:rgb(253,0,0);stroke-width:2"/></g>
<g fill-rule="evenodd"><path d="M 521.575,131.528 L 521.575,113.386 L 467.15,86.1732 L 467.15,31.748 L 512.504,4.53543 L 421.795,4.53543 L 458.079,31.748 L 403.654,58.9606 L 421.795,68.0315 L 385.512,95.2441 L 430.866,104.315 L 449.008,86.1732 L 521.575,131.528 z " style="fill-opacity:0.5;fill:rgb(0,253,0);stroke:rgb(0,0,0);stroke-width:5"/></g>
<g fill-rule="evenodd"><path d="M 648.567,4.53543 L 657.638,4.53543 L 666.709,4.53543 L 675.78,4.53543 L 684.85,4.53543 L 693.921,4.53543 L 702.992,4.53543 L 712.063,4.53543 L 721.134,4.53543 L 730.205,4.53543 L 739.276,4.53543 L 730.205,4.53543 L 721.134,13.6063 L 712.063,22.6772 L 712.063,31.748 L 712.063,40.8189 L 721.134,49.8898 L 730.205,49.8898 L 739.276,49.8898 L 748.346,58.9606 L 748.346,68.0315 L 757.417,77.1024 L 766.488,86.1732 L 775.559,95.2441 L 766.488,95.2441 L 757.417,104.315 L 748.346,104.315 L 739.276,104.315 L 730.205,104.315 L 730.205,95.2441 L 721.134,86.1732 L 712.063,86.1732 L 702.992,95.2441 L 693.921,95.2441 L 684.85,104.315 L 675.78,104.315 L 666.709,113.386 L 657.638,122.457 L 648.567,131.528 L 639.496,131.528 L 639.496,122.457 L 639.496,113.386 L 648.567,113.386 L 657.638,104.315 L 666.709,104.315 L 675.78,95.2441 L 684.85,95.2441 L 693.921,86.1732 L 693.921,77.1024 L 693.921,68.0315 L 693.921,58.9606 L 693.921,49.8898 L 693.921,40.8189 L 693.921,31.748 L 684.85,22.6772 L 675.78,13.6063 L 666.709,13.6063 L 657.638,4.53543 L 648.567,4.53543 z " style="fill-opacity:0.5;fill:rgb(253,0,0);stroke:rgb(253,0,0);stroke-width:2"/></g>
<g fill-rule="evenodd"><path d="M 775.559,95.2441 L 739.276,49.8898 L 712.063,40.8189 L 712.063,22.6772 L 739.276,4.53543 L 648.567,4.53543 L 693.921,31.748 L 693.921,86.1732 L 639.496,113.386 L 639.496,131.528 L 712.063,86.1732 L 730.205,104.315 L 775.559,95.2441 z " style="fill-opacity:0.5;fill:rgb(0,253,0);stroke:rgb(0,0,0);stroke-width:5"/></g>
<g fill-rule="evenodd"><path d="M 820.913,4.53543 L 829.984,4.53543 L 839.055,4.53543 L 848.126,4.53543 L 857.197,4.53543 L 866.268,4.53543 L 857.197,13.6063 L 857.197,22.6772 L 857.197,31.748 L 866.268,40.8189 L 875.339,49.8898 L 884.409,49.8898 L 893.48,58.9606 L 902.551,58.9606 L 911.622,68.0315 L 920.693,68.0315 L 929.764,77.1024 L 938.835,77.1024 L 929.764,86.1732 L 929.764,95.2441 L 929.764,104.315 L 938.835,113.386 L 929.764,122.457 L 929.764,131.528 L 929.764,140.598 L 929.764,149.669 L 929.764,158.74 L 938.835,167.811 L 947.906,176.882 L 956.976,176.882 L 947.906,185.953 L 956.976,195.024 L 966.047,204.094 L 975.118,204.094 L 966.047,213.165 L 975.118,222.236 L 984.189,231.307 L 993.26,231.307 L 1002.33,231.307 L 1011.4,231.307 L 1020.47,231.307 L 1029.54,231.307 L 1038.61,231.307 L 1047.69,231.307 L 1056.76,231.307 L 1065.83,231.307 L 1074.9,240.378 L 1083.97,240.378 L 1093.04,249.449 L 1083.97,258.52 L 1074.9,267.591 L 1065.83,267.591 L 1056.76,267.591 L 1065.83,258.52 L 1056.76,249.449 L 1047.69,249.449 L 1038.61,249.449 L 1029.54,249.449 L 1020.47,249.449 L 1011.4,249.449 L 1002.33,249.449 L 993.26,258.52 L 993.26,267.591 L 993.26,276.661 L 984.189,276.661 L 975.118,276.661 L 966.047,276.661 L 956.976,267.591 L 947.906,267.591 L 938.835,258.52 L 929.764,258.52 L 920.693,249.449 L 911.622,249.449 L 911.622,240.378 L 911.622,231.307 L 911.622,222.236 L 911.622,213.165 L 902.551,204.094 L 893.48,204.094 L 884.409,195.024 L 875.339,195.024 L 875.339,185.953 L 875.339,176.882 L 875.339,167.811 L 875.339,158.74 L 884.409,158.74 L 893.48,158.74 L 902.551,158.74 L 911.622,149.669 L 911.622,140.598 L 911.622,131.528 L 911.622,122.457 L 911.622,113.386 L 911.622,104.315 L 911.622,95.2441 L 911.622,86.1732 L 902.551,77.1024 L 893.48,77.1024 L 884.409,68.0315 L 875.339,68.0315 L 866.268,58.9606 L 857.197,58.9606 L 848.126,49.8898 L 839.055,49.8898 L 839.055,40.8189 L 839.055,31.748 L 839.055,22.6772 L 839.055,13.6063 L 829.984,4.53543 L 820.913,4.53543 z " style="fill-opacity:0.5;fill:rgb(253,0,0);stroke:rgb(253,0,0);stroke-width:2"/></g>
<g fill-rule="evenodd"><path d="M 1093.04,249.449 L 1065.83,231.307 L 984.189,231.307 L 966.047,213.165 L 975.118,204.094 L 947.906,185.953 L 956.976,176.882 L 929.764,158.74 L 938.835,77.1024 L 875.339,49.8898 L 857.197,31.748 L 866.268,4.53543 L 820.913,4.53543 L 839.055,13.6063 L 839.055,49.8898 L 911.622,86.1732 L 911.622,149.669 L 875.339,158.74 L 875.339,195.024 L 911.622,213.165 L 911.622,249.449 L 966.047,276.661 L 993.26,276.661 L 1002.33,249.449 L 1056.76,249.449 L 1056.76,267.591 L 1093.04,249.449 z " style="fill-opacity:0.5;fill:rgb(0,253,0);stroke:rgb(0,0,0);stroke-width:5"/></g>
<g fill-rule="evenodd"><path d="M 439.937,149.669 L 449.008,149.669 L 458.079,149.669 L 467.15,149.669 L 476.22,158.74 L 485.291,167.811 L 494.362,176.882 L 503.433,176.882 L 512.504,185.953 L 521.575,185.953 L 530.646,185.953 L 539.717,185.953 L 548.787,176.882 L 557.858,176.882 L 566.929,176.882 L 576,176.882 L 585.071,176.882 L 594.142,176.882 L 603.213,176.882 L 612.283,176.882 L 621.354,185.953 L 630.425,185.953 L 639.496,185.953 L 648.567,185.953 L 657.638,176.882 L 666.709,176.882 L 675.78,167.811 L 684.85,158.74 L 693.921,149.669 L 702.992,149.669 L 712.063,149.669 L 721.134,158.74 L 712.063,167.811 L 702.992,176.882 L 693.921,185.953 L 684.85,185.953 L 675.78,195.024 L 666.709,195.024 L 657.638,204.094 L 648.567,204.094 L 639.496,213.165 L 630.425,213.165 L 621.354,222.236 L 630.425,231.307 L 639.496,240.378 L 648.567,240.378 L 639.496,249.449 L 639.496,258.52 L 639.496,267.591 L 648.567,276.661 L 639.496,285.732 L 630.425,285.732 L 621.354,294.803 L 630.425,303.874 L 621.354,312.945 L 621.354,322.016 L 621.354,331.087 L 630.425,340.157 L 621.354,349.228 L 630.425,358.299 L 639.496,367.37 L 648.567,367.37 L 657.638,376.441 L 666.709,385.512 L 657.638,385.512 L 648.567,385.512 L 639.496,385.512 L 630.425,394.583 L 630.425,403.654 L 621.354,403.654 L 612.283,403.654 L 603.213,403.654 L 594.142,394.583 L 585.071,394.583 L 576,394.583 L 566.929,394.583 L 557.858,403.654 L 548.787,403.654 L 539.717,403.654 L 530.646,403.654 L 530.646,394.583 L 521.575,385.512 L 512.504,385.512 L 503.433,385.512 L 494.362,385.512 L 503.433,376.441 L 512.504,367.37 L 521.575,367.37 L 530.646,358.299 L 539.717,349.228 L 530.646,340.157 L 539.717,331.087 L 539.717,322.016 L 539.717,312.945 L 530.646,303.874 L 530.646,294.803 L 521.575,285.732 L 512.504,276.661 L 521.575,267.591 L 512.504,258.52 L 521.575,249.449 L 521.575,240.378 L 530.646,231.307 L 539.717,222.236 L 530.646,213.165 L 521.575,213.165 L 512.504,213.165 L 503.433,204.094 L 494.362,195.024 L 485.291,195.024 L 476.22,185.953 L 467.15,185.953 L 458.079,176.882 L 458.079,167.811 L 449.008,158.74 L 439.937,158.74 L 439.937,149.669 z " style="fill-opacity:0.5;fill:rgb(253,0,0);stroke:rgb(253,0,0);stroke-width:2"/></g>
<g fill-rule="evenodd"><path d="M 666.709,385.512 L 621.354,349.228 L 621.354,294.803 L 648.567,276.661 L 648.567,240.378 L 621.354,222.236 L 721.134,158.74 L 693.921,149.669 L 648.567,185.953 L 512.504,185.953 L 467.15,149.669 L 439.937,149.669 L 467.15,185.953 L 539.717,222.236 L 512.504,258.52 L 539.717,312.945 L 539.717,349.228 L 494.362,385.512 L 521.575,385.512 L 530.646,403.654 L 630.425,403.654 L 639.496,385.512 L 666.709,385.512 z " style="fill-opacity:0.5;fill:rgb(0,253,0);stroke:rgb(0,0,0);stroke-width:5"/></g>
<g fill-rule="evenodd"><path d="M 331.087,231.307 L 340.157,240.378 L 349.228,240.378 L 358.299,249.449 L 367.37,249.449 L 367.37,258.52 L 376.441,267.591 L 367.37,276.661 L 376.441,285.732 L 385.512,294.803 L 394.583,294.803 L 403.654,303.874 L 412.724,303.874 L 421.795,312.945 L 430.866,312.945 L 439.937,322.016 L 430.866,331.087 L 421.795,340.157 L 412.724,340.157 L 403.654,340.157 L 394.583,340.157 L 385.512,340.157 L 376.441,349.228 L 367.37,349.228 L 358.299,340.157 L 349.228,340.157 L 340.157,331.087 L 331.087,331.087 L 322.016,322.016 L 331.087,312.945 L 340.157,312.945 L 349.228,303.874 L 349.228,294.803 L 349.228,285.732 L 349.228,276.661 L 349.228,267.591 L 349.228,258.52 L 340.157,249.449 L 331.087,240.378 L 331.087,231.307 z " style="fill-opacity:0.5;fill:rgb(253,0,0);stroke:rgb(253,0,0);stroke-width:2"/></g>
<g fill-rule="evenodd"><path d="M 421.795,340.157 L 439.937,322.016 L 385.512,294.803 L 367.37,276.661 L 367.37,249.449 L 331.087,231.307 L 349.228,258.52 L 349.228,303.874 L 322.016,322.016 L 367.37,349.228 L 421.795,340.157 z " style="fill-opacity:0.5;fill:rgb(0,253,0);stroke:rgb(0,0,0);stroke-width:5"/></g>
<g fill-rule="evenodd"><path d="M 829.984,231.307 L 829.984,240.378 L 820.913,249.449 L 811.843,258.52 L 811.843,267.591 L 811.843,276.661 L 811.843,285.732 L 811.843,294.803 L 811.843,303.874 L 820.913,312.945 L 829.984,312.945 L 829.984,322.016 L 829.984,331.087 L 820.913,331.087 L 811.843,340.157 L 802.772,340.157 L 793.701,349.228 L 784.63,349.228 L 775.559,340.157 L 766.488,340.157 L 757.417,340.157 L 748.346,340.157 L 739.276,340.157 L 730.205,331.087 L 721.134,322.016 L 730.205,312.945 L 739.276,312.945 L 748.346,303.874 L 757.417,303.874 L 766.488,294.803 L 775.559,294.803 L 784.63,285.732 L 793.701,276.661 L 784.63,267.591 L 793.701,258.52 L 793.701,249.449 L 802.772,249.449 L 811.843,240.378 L 820.913,240.378 L 829.984,231.307 z " style="fill-opacity:0.5;fill:rgb(253,0,0);stroke:rgb(253,0,0);stroke-width:2"/></g>
<g fill-rule="evenodd"><path d="M 721.134,322.016 L 739.276,340.157 L 784.63,349.228 L 829.984,331.087 L 829.984,312.945 L 811.843,303.874 L 811.843,258.52 L 829.984,231.307 L 793.701,249.449 L 793.701,276.661 L 775.559,294.803 L 721.134,322.016 z " style="fill-opacity:0.5;fill:rgb(0,253,0);stroke:rgb(0,0,0);stroke-width:5"/></g>
<g fill-rule="evenodd"><path d="M 4.53543,249.449 L 13.6063,249.449 L 22.6772,258.52 L 31.748,258.52 L 40.8189,267.591 L 49.8898,267.591 L 58.9606,276.661 L 68.0315,285.732 L 58.9606,285.732 L 49.8898,285.732 L 40.8189,285.732 L 31.748,276.661 L 22.6772,276.661 L 13.6063,267.591 L 4.53543,267.591 L 4.53543,258.52 L 4.53543,249.449 z " style="fill-opacity:0.5;fill:rgb(253,0,0);stroke:rgb(253,0,0);stroke-width:2"/></g>
<g fill-rule="evenodd"><path d="M 68.0315,285.732 L 4.53543,249.449 L 4.53543,267.591 L 68.0315,285.732 z " style="fill-opacity:0.5;fill:rgb(0,253,0);stroke:rgb(0,0,0);stroke-width:5"/></g>
<g fill-rule="evenodd"><path d="M 1147.46,249.449 L 1156.54,249.449 L 1156.54,258.52 L 1156.54,267.591 L 1147.46,267.591 L 1138.39,276.661 L 1129.32,276.661 L 1120.25,285.732 L 1111.18,285.732 L 1102.11,285.732 L 1093.04,285.732 L 1102.11,276.661 L 1111.18,267.591 L 1120.25,267.591 L 1129.32,258.52 L 1138.39,258.52 L 1147.46,249.449 z " style="fill-opacity:0.5;fill:rgb(253,0,0);stroke:rgb(253,0,0);stroke-width:2"/></g>
<g fill-rule="evenodd"><path d="M 1093.04,285.732 L 1156.54,267.591 L 1156.54,249.449 L 1093.04,285.732 z " style="fill-opacity:0.5;fill:rgb(0,253,0);stroke:rgb(0,0,0);stroke-width:5"/></g>
<g fill-rule="evenodd"><path d="M 276.661,340.157 L 285.732,340.157 L 294.803,340.157 L 303.874,340.157 L 312.945,349.228 L 322.016,349.228 L 331.087,358.299 L 340.157,358.299 L 340.157,367.37 L 331.087,367.37 L 322.016,376.441 L 312.945,376.441 L 303.874,385.512 L 294.803,385.512 L 285.732,376.441 L 276.661,376.441 L 267.591,367.37 L 258.52,367.37 L 249.449,358.299 L 258.52,349.228 L 267.591,349.228 L 276.661,340.157 z " style="fill-opacity:0.5;fill:rgb(253,0,0);stroke:rgb(253,0,0);stroke-width:2"/></g>
<g fill-rule="evenodd"><path d="M 340.157,367.37 L 303.874,340.157 L 249.449,358.299 L 294.803,385.512 L 340.157,367.37 z " style="fill-opacity:0.5;fill:rgb(0,253,0);stroke:rgb(0,0,0);stroke-width:5"/></g>
<g fill-rule="evenodd"><path d="M 857.197,340.157 L 866.268,340.157 L 875.339,340.157 L 884.409,340.157 L 893.48,349.228 L 902.551,349.228 L 902.551,358.299 L 902.551,367.37 L 893.48,367.37 L 884.409,376.441 L 875.339,376.441 L 866.268,385.512 L 857.197,385.512 L 848.126,376.441 L 839.055,376.441 L 829.984,367.37 L 820.913,367.37 L 820.913,358.299 L 829.984,358.299 L 839.055,349.228 L 848.126,349.228 L 857.197,340.157 z " style="fill-opacity:0.5;fill:rgb(253,0,0);stroke:rgb(253,0,0);stroke-width:2"/></g>
<g fill-rule="evenodd"><path d="M 902.551,367.37 L 902.551,349.228 L 884.409,340.157 L 820.913,358.299 L 857.197,385.512 L 902.551,367.37 z " style="fill-opacity:0.5;fill:rgb(0,253,0);stroke:rgb(0,0,0);stroke-width:5"/></g>
<g fill-rule="evenodd"><path d="M 149.669,358.299 L 158.74,358.299 L 167.811,358.299 L 176.882,358.299 L 176.882,367.37 L 176.882,376.441 L 185.953,385.512 L 195.024,385.512 L 204.094,376.441 L 213.165,376.441 L 222.236,376.441 L 231.307,376.441 L 240.378,385.512 L 249.449,385.512 L 258.52,394.583 L 267.591,394.583 L 267.591,403.654 L 258.52,412.724 L 267.591,421.795 L 267.591,430.866 L 267.591,439.937 L 276.661,449.008 L 285.732,449.008 L 285.732,458.079 L 285.732,467.15 L 285.732,476.22 L 285.732,485.291 L 285.732,494.362 L 285.732,503.433 L 276.661,503.433 L 267.591,512.504 L 258.52,512.504 L 249.449,521.575 L 240.378,530.646 L 240.378,539.717 L 240.378,548.787 L 240.378,557.858 L 231.307,566.929 L 222.236,566.929 L 222.236,557.858 L 222.236,548.787 L 222.236,539.717 L 231.307,530.646 L 222.236,521.575 L 213.165,521.575 L 204.094,512.504 L 195.024,512.504 L 185.953,503.433 L 176.882,503.433 L 167.811,494.362 L 158.74,494.362 L 149.669,503.433 L 140.598,503.433 L 131.528,494.362 L 122.457,494.362 L 113.386,503.433 L 104.315,503.433 L 95.2441,512.504 L 86.1732,512.504 L 77.1024,521.575 L 68.0315,530.646 L 68.0315,539.717 L 58.9606,548.787 L 49.8898,548.787 L 40.8189,557.858 L 31.748,566.929 L 31.748,576 L 31.748,585.071 L 31.748,594.142 L 31.748,603.213 L 40.8189,612.283 L 49.8898,612.283 L 58.9606,621.354 L 68.0315,621.354 L 68.0315,630.425 L 68.0315,639.496 L 77.1024,648.567 L 86.1732,648.567 L 95.2441,657.638 L 104.315,657.638 L 113.386,666.709 L 122.457,666.709 L 131.528,666.709 L 140.598,666.709 L 149.669,666.709 L 158.74,666.709 L 167.811,666.709 L 176.882,666.709 L 185.953,657.638 L 195.024,657.638 L 204.094,648.567 L 213.165,648.567 L 222.236,639.496 L 231.307,639.496 L 240.378,630.425 L 249.449,630.425 L 258.52,621.354 L 258.52,612.283 L 258.52,603.213 L 258.52,594.142 L 249.449,585.071 L 258.52,576 L 267.591,576 L 276.661,576 L 276.661,585.071 L 276.661,594.142 L 276.661,603.213 L 276.661,612.283 L 276.661,621.354 L 267.591,630.425 L 258.52,630.425 L 249.449,639.496 L 240.378,639.496 L 231.307,648.567 L 240.378,657.638 L 249.449,657.638 L 258.52,657.638 L 267.591,657.638 L 276.661,666.709 L 285.732,666.709 L 285.732,675.78 L 285.732,684.85 L 285.732,693.921 L 285.732,702.992 L 285.732,712.063 L 285.732,721.134 L 276.661,721.134 L 267.591,730.205 L 267.591,739.276 L 267.591,748.346 L 267.591,757.417 L 267.591,766.488 L 267.591,775.559 L 258.52,775.559 L 249.449,784.63 L 240.378,784.63 L 231.307,793.701 L 222.236,793.701 L 213.165,784.63 L 204.094,784.63 L 195.024,775.559 L 185.953,775.559 L 176.882,784.63 L 176.882,793.701 L 176.882,802.772 L 176.882,811.843 L 167.811,811.843 L 158.74,811.843 L 149.669,811.843 L 149.669,802.772 L 149.669,793.701 L 149.669,784.63 L 149.669,775.559 L 140.598,766.488 L 131.528,766.488 L 122.457,766.488 L 113.386,766.488 L 104.315,766.488 L 95.2441,766.488 L 86.1732,766.488 L 77.1024,766.488 L 68.0315,766.488 L 58.9606,766.488 L 49.8898,766.488 L 40.8189,766.488 L 31.748,775.559 L 22.6772,775.559 L 13.6063,784.63 L 4.53543,784.63 L 4.53543,775.559 L 4.53543,766.488 L 4.53543,757.417 L 4.53543,748.346 L 4.53543,739.276 L 4.53543,730.205 L 4.53543,721.134 L 4.53543,712.063 L 4.53543,702.992 L 4.53543,693.921 L 4.53543,684.85 L 4.53543,675.78 L 4.53543,666.709 L 4.53543,657.638 L 4.53543,648.567 L 4.53543,639.496 L 4.53543,630.425 L 4.53543,621.354 L 4.53543,612.283 L 4.53543,603.213 L 4.53543,594.142 L 4.53543,585.071 L 4.53543,576 L 4.53543,566.929 L 4.53543,557.858 L 4.53543,548.787 L 4.53543,539.717 L 4.53543,530.646 L 4.53543,521.575 L 4.53543,512.504 L 4.53543,503.433 L 4.53543,494.362 L 4.53543,485.291 L 4.53543,476.22 L 4.53543,467.15 L 4.53543,458.079 L 4.53543,449.008 L 4.53543,439.937 L 4.53543,430.866 L 4.53543,421.795 L 4.53543,412.724 L 4.53543,403.654 L 4.53543,394.583 L 4.53543,385.512 L 13.6063,385.512 L 22.6772,394.583 L 31.748,394.583 L 40.8189,403.654 L 49.8898,403.654 L 58.9606,403.654 L 68.0315,403.654 L 77.1024,403.654 L 86.1732,403.654 L 95.2441,403.654 L 104.315,403.654 L 113.386,403.654 L 122.457,403.654 L 131.528,403.654 L 140.598,403.654 L 149.669,394.583 L 149.669,385.512 L 149.669,376.441 L 149.669,367.37 L 149.669,358.299 z " style="fill-opacity:0.5;fill:rgb(253,0,0);stroke:rgb(253,0,0);stroke-width:2"/></g>
<g fill-rule="evenodd"><path d="M 176.882,811.843 L 185.953,775.559 L 222.236,793.701 L 267.591,775.559 L 285.732,666.709 L 231.307,648.567 L 276.661,621.354 L 276.661,576 L 249.449,585.071 L 249.449,630.425 L 176.882,666.709 L 113.386,666.709 L 31.748,603.213 L 31.748,566.929 L 122.457,494.362 L 167.811,494.362 L 222.236,521.575 L 231.307,566.929 L 240.378,530.646 L 285.732,503.433 L 285.732,449.008 L 267.591,439.937 L 258.52,412.724 L 267.591,394.583 L 231.307,376.441 L 185.953,385.512 L 176.882,358.299 L 149.669,358.299 L 140.598,403.654 L 40.8189,403.654 L 4.53543,385.512 L 4.53543,784.63 L 40.8189,766.488 L 140.598,766.488 L 149.669,811.843 L 176.882,811.843 z " style="fill-opacity:0.5;fill:rgb(0,253,0);stroke:rgb(0,0,0);stroke-width:5"/></g>
<g fill-rule="evenodd"><path d="M 984.189,358.299 L 993.26,358.299 L 1002.33,358.299 L 1011.4,358.299 L 1011.4,367.37 L 1011.4,376.441 L 1011.4,385.512 L 1011.4,394.583 L 1020.47,403.654 L 1029.54,403.654 L 1038.61,403.654 L 1047.69,403.654 L 1056.76,403.654 L 1065.83,403.654 L 1074.9,403.654 L 1083.97,403.654 L 1093.04,403.654 L 1102.11,403.654 L 1111.18,403.654 L 1120.25,403.654 L 1129.32,394.583 L 1138.39,394.583 L 1147.46,385.512 L 1156.54,385.512 L 1156.54,394.583 L 1156.54,403.654 L 1156.54,412.724 L 1156.54,421.795 L 1156.54,430.866 L 1156.54,439.937 L 1156.54,449.008 L 1156.54,458.079 L 1156.54,467.15 L 1156.54,476.22 L 1156.54,485.291 L 1156.54,494.362 L 1156.54,503.433 L 1156.54,512.504 L 1156.54,521.575 L 1156.54,530.646 L 1156.54,539.717 L 1156.54,548.787 L 1156.54,557.858 L 1156.54,566.929 L 1156.54,576 L 1156.54,585.071 L 1156.54,594.142 L 1156.54,603.213 L 1156.54,612.283 L 1156.54,621.354 L 1156.54,630.425 L 1156.54,639.496 L 1156.54,648.567 L 1156.54,657.638 L 1156.54,666.709 L 1156.54,675.78 L 1156.54,684.85 L 1156.54,693.921 L 1156.54,702.992 L 1156.54,712.063 L 1156.54,721.134 L 1156.54,730.205 L 1156.54,739.276 L 1156.54,748.346 L 1156.54,757.417 L 1156.54,766.488 L 1156.54,775.559 L 1156.54,784.63 L 1147.46,784.63 L 1138.39,775.559 L 1129.32,775.559 L 1120.25,766.488 L 1111.18,766.488 L 1102.11,766.488 L 1093.04,766.488 L 1083.97,766.488 L 1074.9,766.488 L 1065.83,766.488 L 1056.76,766.488 L 1047.69,766.488 L 1038.61,766.488 L 1029.54,766.488 L 1020.47,766.488 L 1011.4,775.559 L 1011.4,784.63 L 1011.4,793.701 L 1011.4,802.772 L 1011.4,811.843 L 1002.33,811.843 L 993.26,811.843 L 984.189,811.843 L 984.189,802.772 L 984.189,793.701 L 984.189,784.63 L 975.118,775.559 L 966.047,775.559 L 956.976,784.63 L 947.906,784.63 L 938.835,793.701 L 929.764,793.701 L 920.693,784.63 L 911.622,784.63 L 902.551,775.559 L 893.48,775.559 L 884.409,766.488 L 893.48,757.417 L 893.48,748.346 L 893.48,739.276 L 893.48,730.205 L 884.409,721.134 L 875.339,721.134 L 875.339,712.063 L 875.339,702.992 L 875.339,693.921 L 875.339,684.85 L 875.339,675.78 L 875.339,666.709 L 884.409,666.709 L 893.48,657.638 L 902.551,657.638 L 911.622,657.638 L 920.693,657.638 L 929.764,648.567 L 920.693,639.496 L 911.622,639.496 L 902.551,630.425 L 893.48,630.425 L 893.48,621.354 L 884.409,612.283 L 875.339,612.283 L 884.409,612.283 L 893.48,603.213 L 884.409,594.142 L 875.339,594.142 L 884.409,594.142 L 893.48,585.071 L 884.409,576 L 875.339,576 L 884.409,576 L 893.48,576 L 902.551,576 L 911.622,585.071 L 902.551,594.142 L 902.551,603.213 L 902.551,612.283 L 902.551,621.354 L 911.622,630.425 L 920.693,630.425 L 929.764,639.496 L 938.835,639.496 L 947.906,648.567 L 956.976,648.567 L 966.047,657.638 L 975.118,657.638 L 984.189,666.709 L 993.26,666.709 L 1002.33,666.709 L 1011.4,666.709 L 1020.47,666.709 L 1029.54,666.709 L 1038.61,666.709 L 1047.69,666.709 L 1056.76,657.638 L 1065.83,657.638 L 1074.9,648.567 L 1083.97,648.567 L 1093.04,639.496 L 1093.04,630.425 L 1093.04,621.354 L 1102.11,621.354 L 1111.18,612.283 L 1120.25,612.283 L 1129.32,603.213 L 1129.32,594.142 L 1129.32,585.071 L 1129.32,576 L 1129.32,566.929 L 1120.25,557.858 L 1111.18,548.787 L 1102.11,548.787 L 1093.04,539.717 L 1093.04,530.646 L 1083.97,521.575 L 1074.9,512.504 L 1065.83,512.504 L 1056.76,503.433 L 1047.69,503.433 L 1038.61,494.362 L 1029.54,494.362 L 1020.47,503.433 L 1011.4,503.433 L 1002.33,494.362 L 993.26,494.362 L 984.189,503.433 L 975.118,503.433 L 966.047,512.504 L 956.976,512.504 L 947.906,521.575 L 938.835,530.646 L 938.835,539.717 L 938.835,548.787 L 938.835,557.858 L 938.835,566.929 L 929.764,566.929 L 920.693,557.858 L 929.764,548.787 L 920.693,539.717 L 911.622,539.717 L 920.693,539.717 L 929.764,530.646 L 920.693,521.575 L 911.622,521.575 L 902.551,512.504 L 893.48,512.504 L 884.409,503.433 L 875.339,503.433 L 875.339,494.362 L 875.339,485.291 L 875.339,476.22 L 875.339,467.15 L 875.339,458.079 L 875.339,449.008 L 884.409,449.008 L 893.48,439.937 L 893.48,430.866 L 893.48,421.795 L 902.551,421.795 L 911.622,412.724 L 902.551,403.654 L 893.48,403.654 L 893.48,394.583 L 902.551,394.583 L 911.622,385.512 L 920.693,385.512 L 929.764,376.441 L 938.835,376.441 L 947.906,376.441 L 956.976,376.441 L 966.047,385.512 L 975.118,385.512 L 984.189,376.441 L 984.189,367.37 L 984.189,358.299 z " style="fill-opacity:0.5;fill:rgb(253,0,0);stroke:rgb(253,0,0);stroke-width:2"/></g>
<g fill-rule="evenodd"><path d="M 1156.54,784.63 L 1156.54,385.512 L 1120.25,403.654 L 1020.47,403.654 L 1011.4,358.299 L 984.189,358.299 L 975.118,385.512 L 929.764,376.441 L 893.48,394.583 L 911.622,412.724 L 875.339,449.008 L 875.339,503.433 L 929.764,530.646 L 911.622,539.717 L 929.764,548.787 L 929.764,566.929 L 956.976,512.504 L 993.26,494.362 L 1038.61,494.362 L 1129.32,566.929 L 1129.32,603.213 L 1047.69,666.709 L 984.189,666.709 L 911.622,630.425 L 911.622,585.071 L 875.339,576 L 893.48,585.071 L 875.339,594.142 L 893.48,603.213 L 875.339,612.283 L 929.764,648.567 L 875.339,666.709 L 875.339,721.134 L 893.48,730.205 L 884.409,766.488 L 929.764,793.701 L 975.118,775.559 L 984.189,811.843 L 1011.4,811.843 L 1020.47,766.488 L 1120.25,766.488 L 1156.54,784.63 z " style="fill-opacity:0.5;fill:rgb(0,253,0);stroke:rgb(0,0,0);stroke-width:5"/></g>
<g fill-rule="evenodd"><path d="M 530.646,766.488 L 539.717,766.488 L 548.787,766.488 L 557.858,766.488 L 566.929,775.559 L 576,775.559 L 585.071,775.559 L 594.142,775.559 L 603.213,766.488 L 612.283,766.488 L 621.354,766.488 L 630.425,766.488 L 630.425,775.559 L 639.496,784.63 L 648.567,784.63 L 657.638,775.559 L 666.709,775.559 L 657.638,784.63 L 648.567,784.63 L 639.496,793.701 L 630.425,793.701 L 621.354,802.772 L 630.425,811.843 L 621.354,820.913 L 630.425,829.984 L 621.354,839.055 L 621.354,848.126 L 621.354,857.197 L 630.425,866.268 L 639.496,875.339 L 648.567,875.339 L 639.496,884.409 L 648.567,893.48 L 639.496,902.551 L 639.496,911.622 L 639.496,920.693 L 630.425,929.764 L 630.425,938.835 L 639.496,947.906 L 648.567,947.906 L 657.638,956.976 L 666.709,956.976 L 675.78,966.047 L 684.85,966.047 L 693.921,975.118 L 702.992,984.189 L 693.921,984.189 L 684.85,984.189 L 675.78,984.189 L 666.709,975.118 L 657.638,984.189 L 657.638,993.26 L 657.638,1002.33 L 657.638,1011.4 L 648.567,1020.47 L 639.496,1020.47 L 639.496,1011.4 L 639.496,1002.33 L 639.496,993.26 L 639.496,984.189 L 630.425,975.118 L 621.354,984.189 L 612.283,984.189 L 603.213,993.26 L 594.142,993.26 L 585.071,984.189 L 576,984.189 L 566.929,993.26 L 557.858,993.26 L 548.787,984.189 L 539.717,984.189 L 530.646,975.118 L 521.575,984.189 L 521.575,993.26 L 521.575,1002.33 L 521.575,1011.4 L 521.575,1020.47 L 512.504,1020.47 L 503.433,1011.4 L 512.504,1002.33 L 503.433,993.26 L 494.362,993.26 L 485.291,984.189 L 476.22,984.189 L 467.15,984.189 L 458.079,984.189 L 467.15,975.118 L 476.22,966.047 L 485.291,966.047 L 494.362,956.976 L 503.433,956.976 L 512.504,947.906 L 521.575,947.906 L 530.646,938.835 L 539.717,929.764 L 530.646,920.693 L 521.575,920.693 L 512.504,911.622 L 521.575,902.551 L 512.504,893.48 L 521.575,884.409 L 512.504,875.339 L 521.575,875.339 L 530.646,866.268 L 539.717,857.197 L 539.717,848.126 L 539.717,839.055 L 530.646,829.984 L 539.717,820.913 L 530.646,811.843 L 539.717,802.772 L 530.646,793.701 L 521.575,793.701 L 512.504,784.63 L 503.433,784.63 L 494.362,775.559 L 503.433,775.559 L 512.504,784.63 L 521.575,784.63 L 530.646,775.559 L 530.646,766.488 z " style="fill-opacity:0.5;fill:rgb(253,0,0);stroke:rgb(253,0,0);stroke-width:2"/></g>
<g fill-rule="evenodd"><path d="M 648.567,1020.47 L 666.709,975.118 L 702.992,984.189 L 630.425,938.835 L 648.567,875.339 L 621.354,857.197 L 621.354,802.772 L 666.709,775.559 L 494.362,775.559 L 539.717,802.772 L 539.717,857.197 L 512.504,875.339 L 512.504,911.622 L 539.717,929.764 L 458.079,984.189 L 503.433,993.26 L 503.433,1011.4 L 521.575,1020.47 L 530.646,975.118 L 557.858,993.26 L 603.213,993.26 L 630.425,975.118 L 648.567,1020.47 z " style="fill-opacity:0.5;fill:rgb(0,253,0);stroke:rgb(0,0,0);stroke-width:5"/></g>
<g fill-rule="evenodd"><path d="M 294.803,784.63 L 303.874,784.63 L 312.945,784.63 L 322.016,784.63 L 331.087,793.701 L 340.157,793.701 L 340.157,802.772 L 340.157,811.843 L 331.087,811.843 L 322.016,820.913 L 312.945,820.913 L 303.874,829.984 L 294.803,829.984 L 285.732,820.913 L 276.661,820.913 L 267.591,811.843 L 258.52,811.843 L 258.52,802.772 L 267.591,802.772 L 276.661,793.701 L 285.732,793.701 L 294.803,784.63 z " style="fill-opacity:0.5;fill:rgb(253,0,0);stroke:rgb(253,0,0);stroke-width:2"/></g>
<g fill-rule="evenodd"><path d="M 340.157,811.843 L 340.157,793.701 L 322.016,784.63 L 258.52,802.772 L 294.803,829.984 L 340.157,811.843 z " style="fill-opacity:0.5;fill:rgb(0,253,0);stroke:rgb(0,0,0);stroke-width:5"/></g>
<g fill-rule="evenodd"><path d="M 839.055,784.63 L 848.126,784.63 L 857.197,784.63 L 866.268,784.63 L 875.339,793.701 L 884.409,793.701 L 893.48,802.772 L 902.551,802.772 L 902.551,811.843 L 893.48,811.843 L 884.409,820.913 L 875.339,820.913 L 866.268,829.984 L 857.197,829.984 L 848.126,820.913 L 839.055,820.913 L 829.984,811.843 L 820.913,811.843 L 811.843,802.772 L 820.913,793.701 L 829.984,793.701 L 839.055,784.63 z " style="fill-opacity:0.5;fill:rgb(253,0,0);stroke:rgb(253,0,0);stroke-width:2"/></g>
<g fill-rule="evenodd"><path d="M 902.551,811.843 L 866.268,784.63 L 811.843,802.772 L 857.197,829.984 L 902.551,811.843 z " style="fill-opacity:0.5;fill:rgb(0,253,0);stroke:rgb(0,0,0);stroke-width:5"/></g>
<g fill-rule="evenodd"><path d="M 403.654,811.843 L 412.724,820.913 L 421.795,820.913 L 430.866,829.984 L 439.937,829.984 L 439.937,839.055 L 430.866,848.126 L 421.795,848.126 L 412.724,848.126 L 403.654,857.197 L 394.583,866.268 L 385.512,875.339 L 385.512,884.409 L 385.512,893.48 L 385.512,902.551 L 385.512,911.622 L 376.441,920.693 L 367.37,929.764 L 358.299,929.764 L 349.228,929.764 L 358.299,920.693 L 367.37,911.622 L 367.37,902.551 L 367.37,893.48 L 367.37,884.409 L 367.37,875.339 L 367.37,866.268 L 358.299,857.197 L 349.228,857.197 L 340.157,848.126 L 331.087,848.126 L 331.087,839.055 L 340.157,839.055 L 349.228,829.984 L 358.299,829.984 L 367.37,820.913 L 376.441,820.913 L 385.512,820.913 L 394.583,820.913 L 403.654,811.843 z " style="fill-opacity:0.5;fill:rgb(253,0,0);stroke:rgb(253,0,0);stroke-width:2"/></g>
<g fill-rule="evenodd"><path d="M 349.228,929.764 L 385.512,911.622 L 385.512,875.339 L 439.937,829.984 L 403.654,811.843 L 331.087,839.055 L 367.37,866.268 L 367.37,911.622 L 349.228,929.764 z " style="fill-opacity:0.5;fill:rgb(0,253,0);stroke:rgb(0,0,0);stroke-width:5"/></g>
<g fill-rule="evenodd"><path d="M 757.417,811.843 L 766.488,820.913 L 775.559,820.913 L 784.63,820.913 L 793.701,820.913 L 802.772,829.984 L 811.843,829.984 L 820.913,839.055 L 829.984,839.055 L 829.984,848.126 L 820.913,848.126 L 811.843,857.197 L 802.772,857.197 L 793.701,866.268 L 793.701,875.339 L 793.701,884.409 L 793.701,893.48 L 793.701,902.551 L 793.701,911.622 L 802.772,920.693 L 811.843,929.764 L 802.772,929.764 L 793.701,929.764 L 784.63,920.693 L 775.559,911.622 L 775.559,902.551 L 775.559,893.48 L 775.559,884.409 L 775.559,875.339 L 766.488,866.268 L 757.417,857.197 L 748.346,848.126 L 739.276,848.126 L 730.205,848.126 L 721.134,839.055 L 721.134,829.984 L 730.205,829.984 L 739.276,820.913 L 748.346,820.913 L 757.417,811.843 z " style="fill-opacity:0.5;fill:rgb(253,0,0);stroke:rgb(253,0,0);stroke-width:2"/></g>
<g fill-rule="evenodd"><path d="M 811.843,929.764 L 793.701,911.622 L 793.701,866.268 L 829.984,839.055 L 757.417,811.843 L 721.134,829.984 L 775.559,875.339 L 775.559,911.622 L 811.843,929.764 z " style="fill-opacity:0.5;fill:rgb(0,253,0);stroke:rgb(0,0,0);stroke-width:5"/></g>
<g fill-rule="evenodd"><path d="M 77.1024,884.409 L 86.1732,884.409 L 77.1024,893.48 L 68.0315,893.48 L 58.9606,902.551 L 49.8898,902.551 L 40.8189,902.551 L 31.748,893.48 L 22.6772,902.551 L 13.6063,902.551 L 4.53543,902.551 L 13.6063,902.551 L 22.6772,893.48 L 31.748,893.48 L 40.8189,893.48 L 49.8898,893.48 L 58.9606,893.48 L 68.0315,893.48 L 77.1024,884.409 z " style="fill-opacity:0.5;fill:rgb(253,0,0);stroke:rgb(253,0,0);stroke-width:2"/></g>
<g fill-rule="evenodd"><path d="M 4.53543,902.551 L 58.9606,902.551 L 86.1732,884.409 L 4.53543,902.551 z " style="fill-opacity:0.5;fill:rgb(0,253,0);stroke:rgb(0,0,0);stroke-width:5"/></g>
<g fill-rule="evenodd"><path d="M 1074.9,884.409 L 1083.97,884.409 L 1093.04,893.48 L 1102.11,893.48 L 1111.18,893.48 L 1120.25,893.48 L 1129.32,893.48 L 1138.39,893.48 L 1147.46,902.551 L 1156.54,902.551 L 1147.46,902.551 L 1138.39,902.551 L 1129.32,902.551 L 1120.25,893.48 L 1111.18,902.551 L 1102.11,902.551 L 1093.04,893.48 L 1083.97,893.48 L 1074.9,884.409 z " style="fill-opacity:0.5;fill:rgb(253,0,0);stroke:rgb(253,0,0);stroke-width:2"/></g>
<g fill-rule="evenodd"><path d="M 1156.54,902.551 L 1074.9,884.409 L 1102.11,902.551 L 1156.54,902.551 z " style="fill-opacity:0.5;fill:rgb(0,253,0);stroke:rgb(0,0,0);stroke-width:5"/></g>
<g fill-rule="evenodd"><path d="M 122.457,893.48 L 122.457,902.551 L 113.386,911.622 L 122.457,920.693 L 131.528,920.693 L 140.598,920.693 L 149.669,920.693 L 158.74,920.693 L 167.811,911.622 L 167.811,902.551 L 167.811,893.48 L 176.882,893.48 L 185.953,893.48 L 195.024,893.48 L 204.094,902.551 L 213.165,902.551 L 222.236,911.622 L 231.307,911.622 L 240.378,920.693 L 249.449,920.693 L 249.449,929.764 L 249.449,938.835 L 249.449,947.906 L 249.449,956.976 L 258.52,966.047 L 267.591,966.047 L 276.661,975.118 L 285.732,975.118 L 285.732,984.189 L 285.732,993.26 L 285.732,1002.33 L 285.732,1011.4 L 276.661,1011.4 L 267.591,1011.4 L 258.52,1011.4 L 249.449,1020.47 L 249.449,1029.54 L 249.449,1038.61 L 249.449,1047.69 L 249.449,1056.76 L 249.449,1065.83 L 249.449,1074.9 L 249.449,1083.97 L 258.52,1093.04 L 267.591,1093.04 L 276.661,1102.11 L 285.732,1102.11 L 294.803,1111.18 L 303.874,1111.18 L 312.945,1120.25 L 322.016,1120.25 L 322.016,1129.32 L 322.016,1138.39 L 322.016,1147.46 L 331.087,1156.54 L 340.157,1156.54 L 349.228,1156.54 L 358.299,1156.54 L 367.37,1156.54 L 376.441,1156.54 L 385.512,1156.54 L 394.583,1156.54 L 403.654,1156.54 L 412.724,1156.54 L 421.795,1156.54 L 430.866,1156.54 L 439.937,1147.46 L 449.008,1147.46 L 458.079,1138.39 L 449.008,1129.32 L 439.937,1129.32 L 449.008,1129.32 L 458.079,1120.25 L 449.008,1111.18 L 439.937,1111.18 L 430.866,1111.18 L 421.795,1111.18 L 421.795,1102.11 L 412.724,1093.04 L 403.654,1093.04 L 403.654,1083.97 L 394.583,1074.9 L 385.512,1074.9 L 385.512,1065.83 L 394.583,1065.83 L 403.654,1056.76 L 412.724,1056.76 L 421.795,1056.76 L 430.866,1056.76 L 439.937,1047.69 L 439.937,1038.61 L 449.008,1038.61 L 458.079,1038.61 L 467.15,1038.61 L 476.22,1047.69 L 467.15,1056.76 L 467.15,1065.83 L 467.15,1074.9 L 467.15,1083.97 L 467.15,1093.04 L 467.15,1102.11 L 467.15,1111.18 L 467.15,1120.25 L 467.15,1129.32 L 467.15,1138.39 L 476.22,1147.46 L 485.291,1147.46 L 494.362,1156.54 L 503.433,1156.54 L 512.504,1156.54 L 521.575,1156.54 L 530.646,1156.54 L 539.717,1156.54 L 548.787,1156.54 L 557.858,1156.54 L 566.929,1156.54 L 576,1156.54 L 585.071,1156.54 L 594.142,1156.54 L 603.213,1156.54 L 612.283,1156.54 L 621.354,1156.54 L 630.425,1156.54 L 639.496,1156.54 L 648.567,1156.54 L 657.638,1156.54 L 666.709,1156.54 L 675.78,1147.46 L 684.85,1147.46 L 693.921,1138.39 L 693.921,1129.32 L 693.921,1120.25 L 693.921,1111.18 L 693.921,1102.11 L 693.921,1093.04 L 693.921,1083.97 L 693.921,1074.9 L 693.921,1065.83 L 693.921,1056.76 L 684.85,1047.69 L 693.921,1038.61 L 702.992,1038.61 L 712.063,1038.61 L 721.134,1047.69 L 730.205,1056.76 L 739.276,1056.76 L 748.346,1056.76 L 757.417,1056.76 L 766.488,1065.83 L 775.559,1074.9 L 766.488,1074.9 L 757.417,1083.97 L 748.346,1093.04 L 748.346,1102.11 L 739.276,1111.18 L 730.205,1111.18 L 721.134,1111.18 L 712.063,1120.25 L 712.063,1129.32 L 712.063,1138.39 L 721.134,1147.46 L 730.205,1156.54 L 739.276,1156.54 L 748.346,1156.54 L 757.417,1156.54 L 766.488,1156.54 L 775.559,1156.54 L 784.63,1156.54 L 793.701,1156.54 L 802.772,1156.54 L 811.843,1156.54 L 820.913,1156.54 L 829.984,1156.54 L 839.055,1147.46 L 839.055,1138.39 L 839.055,1129.32 L 839.055,1120.25 L 848.126,1120.25 L 857.197,1111.18 L 866.268,1111.18 L 875.339,1102.11 L 884.409,1102.11 L 893.48,1093.04 L 902.551,1093.04 L 911.622,1083.97 L 911.622,1074.9 L 911.622,1065.83 L 911.622,1056.76 L 911.622,1047.69 L 911.622,1038.61 L 911.622,1029.54 L 911.622,1020.47 L 902.551,1011.4 L 893.48,1011.4 L 884.409,1011.4 L 875.339,1011.4 L 875.339,1002.33 L 875.339,993.26 L 875.339,984.189 L 875.339,975.118 L 884.409,975.118 L 893.48,966.047 L 902.551,966.047 L 911.622,956.976 L 911.622,947.906 L 911.622,938.835 L 911.622,929.764 L 911.622,920.693 L 920.693,920.693 L 929.764,911.622 L 938.835,911.622 L 947.906,902.551 L 956.976,902.551 L 966.047,893.48 L 975.118,893.48 L 984.189,893.48 L 993.26,893.48 L 993.26,902.551 L 993.26,911.622 L 1002.33,920.693 L 1011.4,920.693 L 1020.47,920.693 L 1029.54,920.693 L 1038.61,920.693 L 1047.69,911.622 L 1038.61,902.551 L 1038.61,893.48 L 1047.69,902.551 L 1056.76,902.551 L 1065.83,911.622 L 1074.9,911.622 L 1074.9,920.693 L 1065.83,929.764 L 1056.76,929.764 L 1047.69,929.764 L 1038.61,929.764 L 1029.54,929.764 L 1020.47,929.764 L 1011.4,929.764 L 1002.33,929.764 L 993.26,920.693 L 984.189,929.764 L 975.118,929.764 L 966.047,938.835 L 966.047,947.906 L 966.047,956.976 L 956.976,956.976 L 947.906,966.047 L 956.976,975.118 L 947.906,984.189 L 938.835,993.26 L 929.764,1002.33 L 929.764,1011.4 L 938.835,1020.47 L 929.764,1029.54 L 938.835,1038.61 L 929.764,1047.69 L 938.835,1056.76 L 929.764,1065.83 L 929.764,1074.9 L 929.764,1083.97 L 920.693,1093.04 L 911.622,1093.04 L 902.551,1102.11 L 893.48,1102.11 L 884.409,1111.18 L 875.339,1111.18 L 866.268,1111.18 L 857.197,1120.25 L 857.197,1129.32 L 857.197,1138.39 L 866.268,1147.46 L 875.339,1156.54 L 884.409,1156.54 L 893.48,1156.54 L 902.551,1156.54 L 911.622,1156.54 L 920.693,1156.54 L 929.764,1156.54 L 938.835,1156.54 L 947.906,1156.54 L 956.976,1156.54 L 966.047,1156.54 L 975.118,1156.54 L 984.189,1156.54 L 993.26,1156.54 L 1002.33,1156.54 L 1011.4,1156.54 L 1020.47,1156.54 L 1029.54,1156.54 L 1038.61,1156.54 L 1047.69,1156.54 L 1056.76,1156.54 L 1065.83,1156.54 L 1074.9,1156.54 L 1083.97,1156.54 L 1093.04,1156.54 L 1102.11,1156.54 L 1111.18,1156.54 L 1120.25,1147.46 L 1129.32,1147.46 L 1138.39,1147.46 L 1147.46,1147.46 L 1156.54,1147.46 L 1156.54,1156.54 L 1147.46,1156.54 L 1138.39,1156.54 L 1129.32,1156.54 L 1120.25,1156.54 L 1111.18,1156.54 L 1102.11,1156.54 L 1093.04,1156.54 L 1083.97,1156.54 L 1074.9,1156.54 L 1065.83,1156.54 L 1056.76,1156.54 L 1047.69,1156.54 L 1038.61,1156.54 L 1029.54,1156.54 L 1020.47,1156.54 L 1011.4,1156.54 L 1002.33,1156.54 L 993.26,1156.54 L 984.189,1156.54 L 975.118,1156.54 L 966.047,1156.54 L 956.976,1156.54 L 947.906,1156.54 L 938.835,1156.54 L 929.764,1156.54 L 920.693,1156.54 L 911.622,1156.54 L 902.551,1156.54 L 893.48,1156.54 L 884.409,1156.54 L 875.339,1156.54 L 866.268,1156.54 L 857.197,1156.54 L 848.126,1156.54 L 839.055,1156.54 L 829.984,1156.54 L 820.913,1156.54 L 811.843,1156.54 L 802.772,1156.54 L 793.701,1156.54 L 784.63,1156.54 L 775.559,1156.54 L 766.488,1156.54 L 757.417,1156.54 L 748.346,1156.54 L 739.276,1156.54 L 730.205,1156.54 L 721.134,1156.54 L 712.063,1156.54 L 702.992,1156.54 L 693.921,1156.54 L 684.85,1156.54 L 675.78,1156.54 L 666.709,1156.54 L 657.638,1156.54 L 648.567,1156.54 L 639.496,1156.54 L 630.425,1156.54 L 621.354,1156.54 L 612.283,1156.54 L 603.213,1156.54 L 594.142,1156.54 L 585.071,1156.54 L 576,1156.54 L 566.929,1156.54 L 557.858,1156.54 L 548.787,1156.54 L 539.717,1156.54 L 530.646,1156.54 L 521.575,1156.54 L 512.504,1156.54 L 503.433,1156.54 L 494.362,1156.54 L 485.291,1156.54 L 476.22,1156.54 L 467.15,1156.54 L 458.079,1156.54 L 449.008,1156.54 L 439.937,1156.54 L 430.866,1156.54 L 421.795,1156.54 L 412.724,1156.54 L 403.654,1156.54 L 394.583,1156.54 L 385.512,1156.54 L 376.441,1156.54 L 367.37,1156.54 L 358.299,1156.54 L 349.228,1156.54 L 340.157,1156.54 L 331.087,1156.54 L 322.016,1156.54 L 312.945,1156.54 L 303.874,1156.54 L 294.803,1156.54 L 285.732,1156.54 L 276.661,1156.54 L 267.591,1156.54 L 258.52,1156.54 L 249.449,1156.54 L 240.378,1156.54 L 231.307,1156.54 L 222.236,1156.54 L 213.165,1156.54 L 204.094,1156.54 L 195.024,1156.54 L 185.953,1156.54 L 176.882,1156.54 L 167.811,1156.54 L 158.74,1156.54 L 149.669,1156.54 L 140.598,1156.54 L 131.528,1156.54 L 122.457,1156.54 L 113.386,1156.54 L 104.315,1156.54 L 95.2441,1156.54 L 86.1732,1156.54 L 77.1024,1156.54 L 68.0315,1156.54 L 58.9606,1156.54 L 49.8898,1156.54 L 40.8189,1156.54 L 31.748,1156.54 L 22.6772,1156.54 L 13.6063,1156.54 L 4.53543,1156.54 L 4.53543,1147.46 L 13.6063,1147.46 L 22.6772,1147.46 L 31.748,1147.46 L 40.8189,1147.46 L 49.8898,1156.54 L 58.9606,1156.54 L 68.0315,1156.54 L 77.1024,1156.54 L 86.1732,1156.54 L 95.2441,1156.54 L 104.315,1156.54 L 113.386,1156.54 L 122.457,1156.54 L 131.528,1156.54 L 140.598,1156.54 L 149.669,1156.54 L 158.74,1156.54 L 167.811,1156.54 L 176.882,1156.54 L 185.953,1156.54 L 195.024,1156.54 L 204.094,1156.54 L 213.165,1156.54 L 222.236,1156.54 L 231.307,1156.54 L 240.378,1156.54 L 249.449,1156.54 L 258.52,1156.54 L 267.591,1156.54 L 276.661,1156.54 L 285.732,1156.54 L 294.803,1147.46 L 303.874,1138.39 L 294.803,1129.32 L 303.874,1120.25 L 294.803,1111.18 L 285.732,1111.18 L 276.661,1111.18 L 267.591,1102.11 L 258.52,1102.11 L 249.449,1093.04 L 240.378,1093.04 L 231.307,1083.97 L 222.236,1074.9 L 231.307,1065.83 L 222.236,1056.76 L 231.307,1047.69 L 231.307,1038.61 L 231.307,1029.54 L 231.307,1020.47 L 231.307,1011.4 L 222.236,1002.33 L 231.307,993.26 L 222.236,984.189 L 213.165,984.189 L 204.094,975.118 L 204.094,966.047 L 195.024,956.976 L 185.953,947.906 L 185.953,938.835 L 176.882,929.764 L 167.811,920.693 L 158.74,929.764 L 149.669,929.764 L 140.598,929.764 L 131.528,920.693 L 122.457,920.693 L 113.386,929.764 L 104.315,929.764 L 95.2441,929.764 L 86.1732,920.693 L 86.1732,911.622 L 95.2441,911.622 L 104.315,902.551 L 113.386,902.551 L 122.457,893.48 z " style="fill-opacity:0.5;fill:rgb(253,0,0);stroke:rgb(253,0,0);stroke-width:2"/></g>
<g fill-rule="evenodd"><path d="M 1156.54,1156.54 L 875.339,1156.54 L 857.197,1138.39 L 866.268,1111.18 L 929.764,1083.97 L 929.764,1002.33 L 956.976,975.118 L 947.906,966.047 L 966.047,956.976 L 966.047,938.835 L 993.26,920.693 L 1074.9,920.693 L 1038.61,893.48 L 1038.61,920.693 L 1002.33,920.693 L 993.26,893.48 L 911.622,920.693 L 911.622,956.976 L 875.339,975.118 L 875.339,1011.4 L 911.622,1020.47 L 911.622,1083.97 L 839.055,1120.25 L 829.984,1156.54 L 730.205,1156.54 L 712.063,1120.25 L 775.559,1074.9 L 712.063,1038.61 L 684.85,1047.69 L 693.921,1138.39 L 666.709,1156.54 L 476.22,1147.46 L 467.15,1038.61 L 385.512,1065.83 L 421.795,1111.18 L 458.079,1120.25 L 439.937,1129.32 L 458.079,1138.39 L 449.008,1147.46 L 331.087,1156.54 L 322.016,1120.25 L 249.449,1083.97 L 249.449,1020.47 L 285.732,1011.4 L 285.732,975.118 L 249.449,956.976 L 249.449,920.693 L 195.024,893.48 L 167.811,893.48 L 158.74,920.693 L 122.457,920.693 L 122.457,893.48 L 86.1732,920.693 L 167.811,920.693 L 231.307,993.26 L 222.236,1074.9 L 294.803,1111.18 L 303.874,1138.39 L 285.732,1156.54 L 4.53543,1147.46 L 1156.54,1156.54 z " style="fill-opacity:0.5;fill:rgb(0,253,0);stroke:rgb(0,0,0);stroke-width:5"/></g>
<g fill-rule="evenodd"><path d="M 512.504,993.26 L 521.575,984.189 L 512.504,975.118 L 503.433,975.118 L 494.362,975.118 L 485.291,984.189 L 494.362,993.26 L 503.433,993.26 L 512.504,993.26 z " style="fill-opacity:0.5;fill:rgb(253,0,0);stroke:rgb(253,0,0);stroke-width:2"/></g>
<g fill-rule="evenodd"><path d=" z " style="fill-opacity:0.5;fill:rgb(0,253,0);stroke:rgb(0,0,0);stroke-width:5"/></g>
<g fill-rule="evenodd"><path d="M 721.134,1065.83 L 730.205,1056.76 L 721.134,1047.69 L 712.063,1056.76 L 721.134,1065.83 z " style="fill-opacity:0.5;fill:rgb(253,0,0);stroke:rgb(253,0,0);stroke-width:2"/></g>
<g fill-rule="evenodd"><path d=" z " style="fill-opacity:0.5;fill:rgb(0,253,0);stroke:rgb(0,0,0);stroke-width:5"/></g>
</svg>
