<?xml version="1.0" standalone="no"?>
<!DOCTYPE svg PUBLIC "-//W3C//DTD SVG 1.1//EN"
"http://www.w3.org/Graphics/SVG/1.1/DTD/svg11.dtd">
<svg width="100%" height="100%" version="1.1"
xmlns="http://www.w3.org/2000/svg"
xmlns:xlink="http://www.w3.org/1999/xlink">
<g fill-rule="evenodd"><path d="M 1291.47,4.78322 L 1282.41,4.78322 L 1273.34,4.78322 L 1264.28,4.78322 L 1255.22,4.78322 L 1246.15,4.78322 L 1237.09,4.78322 L 1228.03,4.78322 L 1218.97,4.78322 L 1209.9,4.78322 L 1200.84,4.78322 L 1191.78,4.78322 L 1182.71,4.78322 L 1173.65,4.78322 L 1164.59,4.78322 L 1155.52,4.78322 L 1146.46,4.78322 L 1137.4,4.78322 L 1128.34,4.78322 L 1119.27,4.78322 L 1110.21,4.78322 L 1101.15,4.78322 L 1092.08,4.78322 L 1083.02,4.78322 L 1073.96,4.78322 L 1064.9,4.78322 L 1055.83,4.78322 L 1046.77,4.78322 L 1037.71,4.78322 L 1028.64,4.78322 L 1019.58,4.78322 L 1010.52,4.78322 L 1001.45,4.78322 L 992.392,4.78322 L 983.329,4.78322 L 974.266,4.78322 L 965.203,4.78322 L 956.14,4.78322 L 947.077,4.78322 L 938.014,4.78322 L 928.951,4.78322 L 919.888,4.78322 L 910.825,4.78322 L 901.762,4.78322 L 892.699,4.78322 L 883.636,4.78322 L 874.573,4.78322 L 865.51,4.78322 L 856.448,4.78322 L 847.385,4.78322 L 838.322,4.78322 L 829.259,4.78322 L 820.196,4.78322 L 811.133,4.78322 L 802.07,4.78322 L 793.007,4.78322 L 783.944,4.78322 L 774.881,4.78322 L 765.818,4.78322 L 756.755,4.78322 L 747.692,4.78322 L 738.629,4.78322 L 729.566,4.78322 L 720.503,4.78322 L 711.441,4.78322 L 702.378,4.78322 L 693.315,4.78322 L 684.252,4.78322 L 675.189,4.78322 L 666.126,4.78322 L 657.063,4.78322 L 648,4.78322 L 638.937,4.78322 L 629.874,4.78322 L 620.811,4.78322 L 611.748,4.78322 L 602.685,4.78322 L 593.622,4.78322 L 584.559,4.78322 L 575.497,4.78322 L 566.434,4.78322 L 557.371,4.78322 L 548.308,4.78322 L 539.245,4.78322 L 530.182,4.78322 L 521.119,4.78322 L 512.056,4.78322 L 502.993,4.78322 L 493.93,4.78322 L 484.867,4.78322 L 475.804,4.78322 L 466.741,4.78322 L 457.678,4.78322 L 448.615,4.78322 L 439.552,4.78322 L 430.49,4.78322 L 421.427,4.78322 L 412.364,4.78322 L 403.301,4.78322 L 394.238,4.78322 L 385.175,4.78322 L 376.112,4.78322 L 367.049,4.78322 L 357.986,4.78322 L 348.923,4.78322 L 339.86,4.78322 L 330.797,4.78322 L 321.734,4.78322 L 312.671,4.78322 L 303.608,4.78322 L 294.545,4.78322 L 285.483,4.78322 L 276.42,4.78322 L 267.357,4.78322 L 258.294,4.78322 L 249.231,4.78322 L 240.168,4.78322 L 231.105,4.78322 L 222.042,4.78322 L 212.979,4.78322 L 203.916,4.78322 L 194.853,4.78322 L 185.79,4.78322 L 176.727,4.78322 L 167.664,4.78322 L 158.601,4.78322 L 149.538,4.78322 L 140.476,4.78322 L 131.413,4.78322 L 122.35,4.78322 L 113.287,4.78322 L 104.224,4.78322 L 95.1608,4.78322 L 86.0979,4.78322 L 77.035,4.78322 L 67.972,4.78322 L 58.9091,4.78322 L 49.8462,4.78322 L 40.7832,4.78322 L 31.7203,4.78322 L 22.6573,4.78322 L 13.5944,4.78322 L 4.53147,4.78322 L -4.53147,4.78322 L -4.53147,13.8462 L -4.53147,22.9091 L -4.53147,31.972 L -4.53147,41.035 L -4.53147,50.0979 L -4.53147,59.1608 L -4.53147,68.2238 L -4.53147,77.2867 L -4.53147,86.3497 L -4.53147,95.4126 L -4.53147,104.476 L -4.53147,113.538 L -4.53147,122.601 L -4.53147,131.664 L -4.53147,140.727 L -4.53147,149.79 L -4.53147,158.853 L -4.53147,167.916 L -4.53147,176.979 L -4.53147,186.042 L -4.53147,195.105 L -4.53147,204.168 L -4.53147,213.231 L -4.53147,222.294 L -4.53147,231.357 L -4.53147,240.42 L -4.53147,249.483 L -4.53147,258.545 L -4.53147,267.608 L -4.53147,276.671 L -4.53147,285.734 L -4.53147,294.797 L -4.53147,303.86 L -4.53147,312.923 L -4.53147,321.986 L -4.53147,331.049 L -4.53147,340.112 L -4.53147,349.175 L -4.53147,358.238 L -4.53147,367.301 L -4.53147,376.364 L -4.53147,385.427 L -4.53147,394.49 L -4.53147,403.552 L -4.53147,412.615 L -4.53147,421.678 L -4.53147,430.741 L -4.53147,439.804 L -4.53147,448.867 L -4.53147,457.93 L -4.53147,466.993 L -4.53147,476.056 L -4.53147,485.119 L -4.53147,494.182 L -4.53147,503.245 L -4.53147,512.308 L -4.53147,521.371 L -4.53147,530.434 L -4.53147,539.497 L -4.53147,548.559 L -4.53147,557.622 L -4.53147,566.685 L -4.53147,575.748 L -4.53147,584.811 L -4.53147,593.874 L -4.53147,602.937 L -4.53147,612 L -4.53147,621.063 L -4.53147,630.126 L -4.53147,639.189 L -4.53147,648.252 L -4.53147,657.315 L -4.53147,666.378 L -4.53147,675.441 L -4.53147,684.503 L -4.53147,693.566 L -4.53147,702.629 L -4.53147,711.692 L -4.53147,720.755 L -4.53147,729.818 L -4.53147,738.881 L -4.53147,747.944 L -4.53147,757.007 L -4.53147,766.07 L -4.53147,775.133 L -4.53147,784.196 L -4.53147,793.259 L -4.53147,802.322 L -4.53147,811.385 L -4.53147,820.448 L -4.53147,829.51 L -4.53147,838.573 L -4.53147,847.636 L -4.53147,856.699 L -4.53147,865.762 L -4.53147,874.825 L -4.53147,883.888 L -4.53147,892.951 L -4.53147,902.014 L -4.53147,911.077 L -4.53147,920.14 L -4.53147,929.203 L -4.53147,938.266 L -4.53147,947.329 L -4.53147,956.392 L -4.53147,965.455 L -4.53147,974.517 L -4.53147,983.58 L -4.53147,992.643 L -4.53147,1001.71 L -4.53147,1010.77 L -4.53147,1019.83 L -4.53147,1028.9 L -4.53147,1037.96 L -4.53147,1047.02 L -4.53147,1056.08 L -4.53147,1065.15 L -4.53147,1074.21 L -4.53147,1083.27 L -4.53147,1092.34 L -4.53147,1101.4 L -4.53147,1110.46 L -4.53147,1119.52 L -4.53147,1128.59 L -4.53147,1137.65 L -4.53147,1146.71 L -4.53147,1155.78 L -4.53147,1164.84 L -4.53147,1173.9 L -4.53147,1182.97 L -4.53147,1192.03 L -4.53147,1201.09 L -4.53147,1210.15 L -4.53147,1219.22 L -4.53147,1228.28 L 4.53147,1228.28 L 13.5944,1228.28 L 22.6573,1228.28 L 31.7203,1228.28 L 40.7832,1228.28 L 49.8462,1228.28 L 58.9091,1228.28 L 67.972,1228.28 L 77.035,1228.28 L 86.0979,1228.28 L 95.1608,1228.28 L 104.224,1228.28 L 113.287,1228.28 L 122.35,1228.28 L 131.413,1228.28 L 140.476,1228.28 L 149.538,1228.28 L 158.601,1228.28 L 167.664,1228.28 L 176.727,1228.28 L 185.79,1228.28 L 194.853,1228.28 L 203.916,1228.28 L 212.979,1228.28 L 222.042,1228.28 L 231.105,1228.28 L 240.168,1228.28 L 249.231,1228.28 L 258.294,1228.28 L 267.357,1228.28 L 276.42,1228.28 L 285.483,1228.28 L 294.545,1228.28 L 303.608,1228.28 L 312.671,1228.28 L 321.734,1228.28 L 330.797,1228.28 L 339.86,1228.28 L 348.923,1228.28 L 357.986,1228.28 L 367.049,1228.28 L 376.112,1228.28 L 385.175,1228.28 L 394.238,1228.28 L 403.301,1228.28 L 412.364,1228.28 L 421.427,1228.28 L 430.49,1228.28 L 439.552,1228.28 L 448.615,1228.28 L 457.678,1228.28 L 466.741,1228.28 L 475.804,1228.28 L 484.867,1228.28 L 493.93,1228.28 L 502.993,1228.28 L 512.056,1228.28 L 521.119,1228.28 L 530.182,1228.28 L 539.245,1228.28 L 548.308,1228.28 L 557.371,1228.28 L 566.434,1228.28 L 575.497,1228.28 L 584.559,1228.28 L 593.622,1228.28 L 602.685,1228.28 L 611.748,1228.28 L 620.811,1228.28 L 629.874,1228.28 L 638.937,1228.28 L 648,1228.28 L 657.063,1228.28 L 666.126,1228.28 L 675.189,1228.28 L 684.252,1228.28 L 693.315,1228.28 L 702.378,1228.28 L 711.441,1228.28 L 720.503,1228.28 L 729.566,1228.28 L 738.629,1228.28 L 747.692,1228.28 L 756.755,1228.28 L 765.818,1228.28 L 774.881,1228.28 L 783.944,1228.28 L 793.007,1228.28 L 802.07,1228.28 L 811.133,1228.28 L 820.196,1228.28 L 829.259,1228.28 L 838.322,1228.28 L 847.385,1228.28 L 856.448,1228.28 L 865.51,1228.28 L 874.573,1228.28 L 883.636,1228.28 L 892.699,1228.28 L 901.762,1228.28 L 910.825,1228.28 L 919.888,1228.28 L 928.951,1228.28 L 938.014,1228.28 L 947.077,1228.28 L 956.14,1228.28 L 965.203,1228.28 L 974.266,1228.28 L 983.329,1228.28 L 992.392,1228.28 L 1001.45,1228.28 L 1010.52,1228.28 L 1019.58,1228.28 L 1028.64,1228.28 L 1037.71,1228.28 L 1046.77,1228.28 L 1055.83,1228.28 L 1064.9,1228.28 L 1073.96,1228.28 L 1083.02,1228.28 L 1092.08,1228.28 L 1101.15,1228.28 L 1110.21,1228.28 L 1119.27,1228.28 L 1128.34,1228.28 L 1137.4,1228.28 L 1146.46,1228.28 L 1155.52,1228.28 L 1164.59,1228.28 L 1173.65,1228.28 L 1182.71,1228.28 L 1191.78,1228.28 L 1200.84,1228.28 L 1209.9,1228.28 L 1218.97,1228.28 L 1228.03,1228.28 L 1237.09,1228.28 L 1246.15,1228.28 L 1255.22,1228.28 L 1264.28,1228.28 L 1273.34,1228.28 L 1282.41,1228.28 L 1291.47,1228.28 L 1291.47,1219.22 L 1291.47,1210.15 L 1291.47,1201.09 L 1291.47,1192.03 L 1291.47,1182.97 L 1291.47,1173.9 L 1291.47,1164.84 L 1291.47,1155.78 L 1291.47,1146.71 L 1291.47,1137.65 L 1291.47,1128.59 L 1291.47,1119.52 L 1291.47,1110.46 L 1291.47,1101.4 L 1291.47,1092.34 L 1291.47,1083.27 L 1291.47,1074.21 L 1291.47,1065.15 L 1291.47,1056.08 L 1291.47,1047.02 L 1291.47,1037.96 L 1291.47,1028.9 L 1291.47,1019.83 L 1291.47,1010.77 L 1291.47,1001.71 L 1291.47,992.643 L 1291.47,983.58 L 1291.47,974.517 L 1291.47,965.455 L 1291.47,956.392 L 1291.47,947.329 L 1291.47,938.266 L 1291.47,929.203 L 1291.47,920.14 L 1291.47,911.077 L 1291.47,902.014 L 1291.47,892.951 L 1291.47,883.888 L 1291.47,874.825 L 1291.47,865.762 L 1291.47,856.699 L 1291.47,847.636 L 1291.47,838.573 L 1291.47,829.51 L 1291.47,820.448 L 1291.47,811.385 L 1291.47,802.322 L 1291.47,793.259 L 1291.47,784.196 L 1291.47,775.133 L 1291.47,766.07 L 1291.47,757.007 L 1291.47,747.944 L 1291.47,738.881 L 1291.47,729.818 L 1291.47,720.755 L 1291.47,711.692 L 1291.47,702.629 L 1291.47,693.566 L 1291.47,684.503 L 1291.47,675.441 L 1291.47,666.378 L 1291.47,657.315 L 1291.47,648.252 L 1291.47,639.189 L 1291.47,630.126 L 1291.47,621.063 L 1291.47,612 L 1291.47,602.937 L 1291.47,593.874 L 1291.47,584.811 L 1291.47,575.748 L 1291.47,566.685 L 1291.47,557.622 L 1291.47,548.559 L 1291.47,539.497 L 1291.47,530.434 L 1291.47,521.371 L 1291.47,512.308 L 1291.47,503.245 L 1291.47,494.182 L 1291.47,485.119 L 1291.47,476.056 L 1291.47,466.993 L 1291.47,457.93 L 1291.47,448.867 L 1291.47,439.804 L 1291.47,430.741 L 1291.47,421.678 L 1291.47,412.615 L 1291.47,403.552 L 1291.47,394.49 L 1291.47,385.427 L 1291.47,376.364 L 1291.47,367.301 L 1291.47,358.238 L 1291.47,349.175 L 1291.47,340.112 L 1291.47,331.049 L 1291.47,321.986 L 1291.47,312.923 L 1291.47,303.86 L 1291.47,294.797 L 1291.47,285.734 L 1291.47,276.671 L 1291.47,267.608 L 1291.47,258.545 L 1291.47,249.483 L 1291.47,240.42 L 1291.47,231.357 L 1291.47,222.294 L 1291.47,213.231 L 1291.47,204.168 L 1291.47,195.105 L 1291.47,186.042 L 1291.47,176.979 L 1291.47,167.916 L 1291.47,158.853 L 1291.47,149.79 L 1291.47,140.727 L 1291.47,131.664 L 1291.47,122.601 L 1291.47,113.538 L 1291.47,104.476 L 1291.47,95.4126 L 1291.47,86.3497 L 1291.47,77.2867 L 1291.47,68.2238 L 1291.47,59.1608 L 1291.47,50.0979 L 1291.47,41.035 L 1291.47,31.972 L 1291.47,22.9091 L 1291.47,13.8462 L 1291.47,4.78322M 865.51,13.8462 L 874.573,22.9091 L 883.636,22.9091 L 892.699,31.972 L 901.762,41.035 L 910.825,50.0979 L 919.888,59.1608 L 928.951,68.2238 L 928.951,77.2867 L 928.951,86.3497 L 919.888,95.4126 L 910.825,104.476 L 910.825,113.538 L 910.825,122.601 L 910.825,131.664 L 919.888,140.727 L 928.951,149.79 L 938.014,158.853 L 947.077,158.853 L 956.14,158.853 L 965.203,158.853 L 974.266,158.853 L 983.329,158.853 L 992.392,149.79 L 1001.45,140.727 L 1010.52,131.664 L 1019.58,131.664 L 1028.64,131.664 L 1037.71,131.664 L 1046.77,140.727 L 1055.83,140.727 L 1064.9,140.727 L 1073.96,140.727 L 1083.02,149.79 L 1092.08,158.853 L 1101.15,167.916 L 1110.21,176.979 L 1110.21,186.042 L 1110.21,195.105 L 1110.21,204.168 L 1110.21,213.231 L 1110.21,222.294 L 1110.21,231.357 L 1119.27,240.42 L 1128.34,249.483 L 1137.4,258.545 L 1146.46,267.608 L 1155.52,267.608 L 1155.52,258.545 L 1164.59,249.483 L 1173.65,258.545 L 1182.71,267.608 L 1191.78,267.608 L 1200.84,258.545 L 1209.9,267.608 L 1218.97,276.671 L 1228.03,285.734 L 1237.09,294.797 L 1246.15,303.86 L 1255.22,312.923 L 1255.22,321.986 L 1246.15,331.049 L 1237.09,340.112 L 1237.09,349.175 L 1237.09,358.238 L 1228.03,367.301 L 1218.97,376.364 L 1209.9,376.364 L 1200.84,376.364 L 1191.78,385.427 L 1182.71,394.49 L 1173.65,403.552 L 1164.59,412.615 L 1164.59,421.678 L 1164.59,430.741 L 1164.59,439.804 L 1173.65,439.804 L 1182.71,430.741 L 1191.78,421.678 L 1200.84,421.678 L 1209.9,430.741 L 1218.97,439.804 L 1228.03,439.804 L 1237.09,439.804 L 1246.15,448.867 L 1255.22,457.93 L 1255.22,466.993 L 1255.22,476.056 L 1264.28,485.119 L 1273.34,494.182 L 1273.34,503.245 L 1273.34,512.308 L 1273.34,521.371 L 1273.34,530.434 L 1273.34,539.497 L 1273.34,548.559 L 1273.34,557.622 L 1273.34,566.685 L 1273.34,575.748 L 1264.28,584.811 L 1255.22,593.874 L 1255.22,602.937 L 1255.22,612 L 1246.15,621.063 L 1237.09,630.126 L 1228.03,639.189 L 1218.97,648.252 L 1209.9,648.252 L 1200.84,648.252 L 1191.78,657.315 L 1182.71,666.378 L 1173.65,666.378 L 1164.59,666.378 L 1155.52,666.378 L 1146.46,666.378 L 1137.4,666.378 L 1128.34,657.315 L 1119.27,648.252 L 1110.21,648.252 L 1101.15,648.252 L 1092.08,639.189 L 1083.02,630.126 L 1083.02,621.063 L 1083.02,612 L 1073.96,612 L 1064.9,602.937 L 1055.83,602.937 L 1046.77,612 L 1037.71,621.063 L 1028.64,630.126 L 1019.58,639.189 L 1010.52,648.252 L 1001.45,648.252 L 1001.45,657.315 L 1001.45,666.378 L 1010.52,675.441 L 1019.58,684.503 L 1028.64,693.566 L 1037.71,702.629 L 1046.77,702.629 L 1055.83,702.629 L 1064.9,702.629 L 1073.96,693.566 L 1083.02,693.566 L 1092.08,693.566 L 1101.15,702.629 L 1110.21,711.692 L 1110.21,720.755 L 1110.21,729.818 L 1119.27,738.881 L 1119.27,747.944 L 1110.21,757.007 L 1110.21,766.07 L 1119.27,775.133 L 1128.34,784.196 L 1128.34,793.259 L 1128.34,802.322 L 1137.4,811.385 L 1146.46,820.448 L 1146.46,829.51 L 1137.4,838.573 L 1128.34,838.573 L 1119.27,847.636 L 1110.21,856.699 L 1101.15,865.762 L 1101.15,874.825 L 1101.15,883.888 L 1092.08,892.951 L 1083.02,902.014 L 1073.96,911.077 L 1064.9,920.14 L 1055.83,929.203 L 1046.77,929.203 L 1037.71,929.203 L 1028.64,938.266 L 1019.58,938.266 L 1010.52,938.266 L 1001.45,938.266 L 992.392,947.329 L 983.329,956.392 L 983.329,965.455 L 983.329,974.517 L 983.329,983.58 L 983.329,992.643 L 983.329,1001.71 L 992.392,1001.71 L 1001.45,1001.71 L 1010.52,1001.71 L 1019.58,1010.77 L 1028.64,1019.83 L 1028.64,1028.9 L 1028.64,1037.96 L 1028.64,1047.02 L 1037.71,1037.96 L 1046.77,1028.9 L 1046.77,1019.83 L 1046.77,1010.77 L 1037.71,1001.71 L 1028.64,992.643 L 1028.64,983.58 L 1028.64,974.517 L 1028.64,965.455 L 1028.64,956.392 L 1028.64,947.329 L 1037.71,938.266 L 1046.77,929.203 L 1055.83,929.203 L 1064.9,929.203 L 1073.96,920.14 L 1083.02,911.077 L 1092.08,902.014 L 1101.15,892.951 L 1101.15,883.888 L 1101.15,874.825 L 1110.21,865.762 L 1119.27,856.699 L 1128.34,847.636 L 1137.4,838.573 L 1146.46,838.573 L 1155.52,838.573 L 1164.59,829.51 L 1173.65,820.448 L 1182.71,820.448 L 1191.78,820.448 L 1200.84,820.448 L 1209.9,829.51 L 1218.97,838.573 L 1228.03,847.636 L 1237.09,856.699 L 1237.09,865.762 L 1237.09,874.825 L 1246.15,874.825 L 1255.22,874.825 L 1264.28,883.888 L 1273.34,892.951 L 1282.41,902.014 L 1291.47,911.077 L 1291.47,920.14 L 1282.41,929.203 L 1273.34,938.266 L 1273.34,947.329 L 1273.34,956.392 L 1273.34,965.455 L 1282.41,974.517 L 1291.47,983.58 L 1291.47,992.643 L 1291.47,1001.71 L 1291.47,1010.77 L 1291.47,1019.83 L 1291.47,1028.9 L 1291.47,1037.96 L 1291.47,1047.02 L 1291.47,1056.08 L 1291.47,1065.15 L 1282.41,1074.21 L 1273.34,1083.27 L 1273.34,1092.34 L 1273.34,1101.4 L 1264.28,1110.46 L 1255.22,1119.52 L 1246.15,1128.59 L 1237.09,1137.65 L 1228.03,1137.65 L 1218.97,1137.65 L 1209.9,1146.71 L 1200.84,1155.78 L 1191.78,1155.78 L 1182.71,1155.78 L 1173.65,1155.78 L 1164.59,1155.78 L 1155.52,1155.78 L 1146.46,1146.71 L 1137.4,1137.65 L 1128.34,1137.65 L 1119.27,1137.65 L 1110.21,1128.59 L 1101.15,1119.52 L 1101.15,1110.46 L 1101.15,1101.4 L 1101.15,1092.34 L 1101.15,1083.27 L 1101.15,1074.21 L 1101.15,1065.15 L 1092.08,1056.08 L 1083.02,1047.02 L 1073.96,1047.02 L 1064.9,1047.02 L 1055.83,1056.08 L 1046.77,1065.15 L 1055.83,1065.15 L 1064.9,1065.15 L 1073.96,1056.08 L 1083.02,1056.08 L 1092.08,1065.15 L 1101.15,1074.21 L 1101.15,1083.27 L 1101.15,1092.34 L 1101.15,1101.4 L 1101.15,1110.46 L 1101.15,1119.52 L 1101.15,1128.59 L 1110.21,1137.65 L 1110.21,1146.71 L 1110.21,1155.78 L 1101.15,1164.84 L 1092.08,1173.9 L 1092.08,1182.97 L 1092.08,1192.03 L 1083.02,1201.09 L 1073.96,1210.15 L 1064.9,1210.15 L 1055.83,1210.15 L 1046.77,1219.22 L 1037.71,1228.28 L 1028.64,1228.28 L 1019.58,1228.28 L 1010.52,1228.28 L 1001.45,1228.28 L 992.392,1228.28 L 983.329,1228.28 L 974.266,1228.28 L 965.203,1228.28 L 956.14,1228.28 L 947.077,1219.22 L 938.014,1210.15 L 928.951,1210.15 L 919.888,1210.15 L 910.825,1201.09 L 901.762,1192.03 L 892.699,1182.97 L 883.636,1173.9 L 883.636,1164.84 L 883.636,1155.78 L 874.573,1146.71 L 865.51,1137.65 L 865.51,1128.59 L 865.51,1119.52 L 865.51,1110.46 L 874.573,1101.4 L 883.636,1092.34 L 883.636,1083.27 L 883.636,1074.21 L 892.699,1065.15 L 901.762,1056.08 L 910.825,1056.08 L 919.888,1056.08 L 919.888,1047.02 L 910.825,1037.96 L 901.762,1028.9 L 892.699,1028.9 L 883.636,1037.96 L 874.573,1037.96 L 865.51,1047.02 L 856.448,1056.08 L 847.385,1065.15 L 838.322,1074.21 L 829.259,1083.27 L 829.259,1092.34 L 829.259,1101.4 L 829.259,1110.46 L 829.259,1119.52 L 829.259,1128.59 L 829.259,1137.65 L 829.259,1146.71 L 829.259,1155.78 L 820.196,1164.84 L 820.196,1173.9 L 820.196,1182.97 L 811.133,1192.03 L 802.07,1201.09 L 793.007,1210.15 L 783.944,1210.15 L 774.881,1210.15 L 765.818,1210.15 L 756.755,1210.15 L 747.692,1210.15 L 738.629,1210.15 L 729.566,1210.15 L 720.503,1210.15 L 711.441,1210.15 L 702.378,1210.15 L 693.315,1210.15 L 684.252,1201.09 L 675.189,1201.09 L 666.126,1192.03 L 657.063,1182.97 L 657.063,1173.9 L 657.063,1164.84 L 657.063,1155.78 L 648,1146.71 L 648,1137.65 L 648,1128.59 L 648,1119.52 L 657.063,1110.46 L 657.063,1101.4 L 666.126,1092.34 L 675.189,1083.27 L 684.252,1074.21 L 684.252,1065.15 L 684.252,1056.08 L 675.189,1056.08 L 666.126,1056.08 L 657.063,1065.15 L 648,1065.15 L 638.937,1065.15 L 629.874,1065.15 L 620.811,1065.15 L 611.748,1065.15 L 602.685,1056.08 L 593.622,1056.08 L 584.559,1047.02 L 575.497,1037.96 L 566.434,1037.96 L 557.371,1028.9 L 548.308,1028.9 L 539.245,1028.9 L 530.182,1037.96 L 530.182,1047.02 L 530.182,1056.08 L 530.182,1065.15 L 539.245,1074.21 L 539.245,1083.27 L 539.245,1092.34 L 539.245,1101.4 L 548.308,1110.46 L 548.308,1119.52 L 548.308,1128.59 L 548.308,1137.65 L 548.308,1146.71 L 548.308,1155.78 L 539.245,1164.84 L 530.182,1173.9 L 521.119,1182.97 L 512.056,1192.03 L 502.993,1201.09 L 493.93,1201.09 L 484.867,1201.09 L 475.804,1210.15 L 466.741,1219.22 L 457.678,1219.22 L 448.615,1219.22 L 439.552,1219.22 L 430.49,1219.22 L 421.427,1219.22 L 412.364,1210.15 L 403.301,1210.15 L 394.238,1201.09 L 385.175,1192.03 L 376.112,1182.97 L 367.049,1173.9 L 357.986,1164.84 L 357.986,1155.78 L 357.986,1146.71 L 367.049,1137.65 L 376.112,1128.59 L 376.112,1119.52 L 376.112,1110.46 L 376.112,1101.4 L 367.049,1092.34 L 357.986,1083.27 L 348.923,1074.21 L 339.86,1074.21 L 330.797,1074.21 L 321.734,1074.21 L 312.671,1074.21 L 303.608,1074.21 L 294.545,1083.27 L 285.483,1092.34 L 276.42,1101.4 L 267.357,1101.4 L 258.294,1101.4 L 249.231,1101.4 L 240.168,1092.34 L 231.105,1092.34 L 222.042,1092.34 L 212.979,1092.34 L 203.916,1083.27 L 194.853,1074.21 L 185.79,1065.15 L 176.727,1056.08 L 176.727,1047.02 L 176.727,1037.96 L 176.727,1028.9 L 176.727,1019.83 L 176.727,1010.77 L 176.727,1001.71 L 167.664,992.643 L 158.601,983.58 L 149.538,974.517 L 140.476,965.455 L 131.413,965.455 L 131.413,974.517 L 122.35,983.58 L 113.287,974.517 L 104.224,965.455 L 95.1608,965.455 L 86.0979,974.517 L 77.035,965.455 L 67.972,956.392 L 58.9091,947.329 L 49.8462,938.266 L 40.7832,929.203 L 31.7203,920.14 L 31.7203,911.077 L 40.7832,902.014 L 49.8462,892.951 L 49.8462,883.888 L 49.8462,874.825 L 58.9091,865.762 L 67.972,856.699 L 77.035,856.699 L 86.0979,856.699 L 95.1608,847.636 L 104.224,838.573 L 113.287,829.51 L 122.35,820.448 L 122.35,811.385 L 122.35,802.322 L 122.35,793.259 L 113.287,793.259 L 104.224,802.322 L 95.1608,811.385 L 86.0979,811.385 L 77.035,802.322 L 67.972,793.259 L 58.9091,793.259 L 49.8462,793.259 L 40.7832,784.196 L 31.7203,775.133 L 31.7203,766.07 L 31.7203,757.007 L 22.6573,747.944 L 13.5944,738.881 L 13.5944,729.818 L 13.5944,720.755 L 13.5944,711.692 L 13.5944,702.629 L 13.5944,693.566 L 13.5944,684.503 L 13.5944,675.441 L 13.5944,666.378 L 13.5944,657.315 L 22.6573,648.252 L 31.7203,639.189 L 31.7203,630.126 L 31.7203,621.063 L 40.7832,612 L 49.8462,602.937 L 58.9091,593.874 L 67.972,584.811 L 77.035,584.811 L 86.0979,584.811 L 95.1608,575.748 L 104.224,566.685 L 113.287,566.685 L 122.35,566.685 L 131.413,566.685 L 140.476,566.685 L 149.538,566.685 L 158.601,575.748 L 167.664,584.811 L 176.727,584.811 L 185.79,584.811 L 194.853,593.874 L 203.916,602.937 L 203.916,612 L 203.916,621.063 L 212.979,621.063 L 222.042,630.126 L 231.105,630.126 L 240.168,621.063 L 249.231,612 L 258.294,602.937 L 267.357,593.874 L 276.42,584.811 L 285.483,584.811 L 285.483,575.748 L 285.483,566.685 L 276.42,557.622 L 267.357,548.559 L 258.294,539.497 L 249.231,530.434 L 240.168,530.434 L 231.105,530.434 L 222.042,530.434 L 212.979,539.497 L 203.916,539.497 L 194.853,539.497 L 185.79,530.434 L 176.727,521.371 L 176.727,512.308 L 176.727,503.245 L 167.664,494.182 L 167.664,485.119 L 176.727,476.056 L 176.727,466.993 L 167.664,457.93 L 158.601,448.867 L 158.601,439.804 L 158.601,430.741 L 149.538,421.678 L 140.476,412.615 L 140.476,403.552 L 149.538,394.49 L 158.601,394.49 L 167.664,385.427 L 176.727,376.364 L 185.79,367.301 L 185.79,358.238 L 185.79,349.175 L 194.853,340.112 L 203.916,331.049 L 212.979,321.986 L 222.042,312.923 L 231.105,303.86 L 240.168,303.86 L 249.231,303.86 L 258.294,294.797 L 267.357,294.797 L 276.42,294.797 L 285.483,294.797 L 294.545,285.734 L 303.608,276.671 L 303.608,267.608 L 303.608,258.545 L 303.608,249.483 L 303.608,240.42 L 303.608,231.357 L 294.545,231.357 L 285.483,231.357 L 276.42,231.357 L 267.357,222.294 L 258.294,213.231 L 258.294,204.168 L 258.294,195.105 L 258.294,186.042 L 249.231,195.105 L 240.168,204.168 L 240.168,213.231 L 240.168,222.294 L 249.231,231.357 L 258.294,240.42 L 258.294,249.483 L 258.294,258.545 L 258.294,267.608 L 258.294,276.671 L 258.294,285.734 L 249.231,294.797 L 240.168,303.86 L 231.105,303.86 L 222.042,303.86 L 212.979,312.923 L 203.916,321.986 L 194.853,331.049 L 185.79,340.112 L 185.79,349.175 L 185.79,358.238 L 176.727,367.301 L 167.664,376.364 L 158.601,385.427 L 149.538,394.49 L 140.476,394.49 L 131.413,394.49 L 122.35,403.552 L 113.287,412.615 L 104.224,412.615 L 95.1608,412.615 L 86.0979,412.615 L 77.035,403.552 L 67.972,394.49 L 58.9091,385.427 L 49.8462,376.364 L 49.8462,367.301 L 49.8462,358.238 L 40.7832,358.238 L 31.7203,358.238 L 22.6573,349.175 L 13.5944,340.112 L 4.53147,331.049 L -4.53147,321.986 L -4.53147,312.923 L 4.53147,303.86 L 13.5944,294.797 L 13.5944,285.734 L 13.5944,276.671 L 13.5944,267.608 L 4.53147,258.545 L -4.53147,249.483 L -4.53147,240.42 L -4.53147,231.357 L -4.53147,222.294 L -4.53147,213.231 L -4.53147,204.168 L -4.53147,195.105 L -4.53147,186.042 L -4.53147,176.979 L -4.53147,167.916 L 4.53147,158.853 L 13.5944,149.79 L 13.5944,140.727 L 13.5944,131.664 L 22.6573,122.601 L 31.7203,113.538 L 40.7832,104.476 L 49.8462,95.4126 L 58.9091,95.4126 L 67.972,95.4126 L 77.035,86.3497 L 86.0979,77.2867 L 95.1608,77.2867 L 104.224,77.2867 L 113.287,77.2867 L 122.35,77.2867 L 131.413,77.2867 L 140.476,86.3497 L 149.538,95.4126 L 158.601,95.4126 L 167.664,95.4126 L 176.727,104.476 L 185.79,113.538 L 185.79,122.601 L 185.79,131.664 L 185.79,140.727 L 185.79,149.79 L 185.79,158.853 L 185.79,167.916 L 194.853,176.979 L 203.916,186.042 L 212.979,186.042 L 222.042,186.042 L 231.105,176.979 L 240.168,167.916 L 231.105,167.916 L 222.042,167.916 L 212.979,176.979 L 203.916,176.979 L 194.853,167.916 L 185.79,158.853 L 185.79,149.79 L 185.79,140.727 L 185.79,131.664 L 185.79,122.601 L 185.79,113.538 L 185.79,104.476 L 176.727,95.4126 L 176.727,86.3497 L 176.727,77.2867 L 185.79,68.2238 L 194.853,59.1608 L 194.853,50.0979 L 194.853,41.035 L 203.916,31.972 L 212.979,22.9091 L 222.042,22.9091 L 231.105,22.9091 L 240.168,13.8462 L 249.231,4.78322 L 258.294,4.78322 L 267.357,4.78322 L 276.42,4.78322 L 285.483,4.78322 L 294.545,4.78322 L 303.608,4.78322 L 312.671,4.78322 L 321.734,4.78322 L 330.797,4.78322 L 339.86,13.8462 L 348.923,22.9091 L 357.986,22.9091 L 367.049,22.9091 L 376.112,31.972 L 385.175,41.035 L 394.238,50.0979 L 403.301,59.1608 L 403.301,68.2238 L 403.301,77.2867 L 412.364,86.3497 L 421.427,95.4126 L 421.427,104.476 L 421.427,113.538 L 421.427,122.601 L 412.364,131.664 L 403.301,140.727 L 403.301,149.79 L 403.301,158.853 L 394.238,167.916 L 385.175,176.979 L 376.112,176.979 L 367.049,176.979 L 367.049,186.042 L 376.112,195.105 L 385.175,204.168 L 394.238,204.168 L 403.301,195.105 L 412.364,195.105 L 421.427,186.042 L 430.49,176.979 L 439.552,167.916 L 448.615,158.853 L 457.678,149.79 L 457.678,140.727 L 457.678,131.664 L 457.678,122.601 L 457.678,113.538 L 457.678,104.476 L 457.678,95.4126 L 457.678,86.3497 L 457.678,77.2867 L 466.741,68.2238 L 466.741,59.1608 L 466.741,50.0979 L 475.804,41.035 L 484.867,31.972 L 493.93,22.9091 L 502.993,22.9091 L 512.056,22.9091 L 521.119,22.9091 L 530.182,22.9091 L 539.245,22.9091 L 548.308,22.9091 L 557.371,22.9091 L 566.434,22.9091 L 575.497,22.9091 L 584.559,22.9091 L 593.622,22.9091 L 602.685,31.972 L 611.748,31.972 L 620.811,41.035 L 629.874,50.0979 L 629.874,59.1608 L 629.874,68.2238 L 629.874,77.2867 L 638.937,86.3497 L 638.937,95.4126 L 638.937,104.476 L 638.937,113.538 L 629.874,122.601 L 629.874,131.664 L 620.811,140.727 L 611.748,149.79 L 602.685,158.853 L 602.685,167.916 L 602.685,176.979 L 611.748,176.979 L 620.811,176.979 L 629.874,167.916 L 638.937,167.916 L 648,167.916 L 657.063,167.916 L 666.126,167.916 L 675.189,167.916 L 684.252,176.979 L 693.315,176.979 L 702.378,186.042 L 711.441,195.105 L 720.503,195.105 L 729.566,204.168 L 738.629,204.168 L 747.692,204.168 L 756.755,195.105 L 756.755,186.042 L 756.755,176.979 L 756.755,167.916 L 747.692,158.853 L 747.692,149.79 L 747.692,140.727 L 747.692,131.664 L 738.629,122.601 L 738.629,113.538 L 738.629,104.476 L 738.629,95.4126 L 738.629,86.3497 L 738.629,77.2867 L 747.692,68.2238 L 756.755,59.1608 L 765.818,50.0979 L 774.881,41.035 L 783.944,31.972 L 793.007,31.972 L 802.07,31.972 L 811.133,22.9091 L 820.196,13.8462 L 829.259,13.8462 L 838.322,13.8462 L 847.385,13.8462 L 856.448,13.8462 L 865.51,13.8462 z " style="fill-opacity:0.5;fill:rgb(253,0,0);stroke:rgb(253,0,0);stroke-width:2"/></g>
<g fill-rule="evenodd"><path d="M -4.53147,1228.28 L -4.53147,4.78322 L 1291.47,4.78322 L 1291.47,1228.28 L -4.53147,1228.28M 421.427,1219.22 L 466.741,1219.22 L 548.308,1155.78 L 530.182,1065.15 L 539.245,1028.9 L 611.748,1065.15 L 684.252,1056.08 L 648,1119.52 L 648,1146.71 L 657.063,1182.97 L 693.315,1210.15 L 793.007,1210.15 L 829.259,1155.78 L 829.259,1083.27 L 901.762,1028.9 L 919.888,1056.08 L 883.636,1074.21 L 865.51,1137.65 L 883.636,1173.9 L 956.14,1228.28 L 1037.71,1228.28 L 1092.08,1192.03 L 1110.21,1155.78 L 1101.15,1074.21 L 1083.02,1056.08 L 1046.77,1065.15 L 1064.9,1047.02 L 1101.15,1065.15 L 1101.15,1119.52 L 1155.52,1155.78 L 1200.84,1155.78 L 1237.09,1137.65 L 1291.47,1065.15 L 1291.47,983.58 L 1273.34,965.455 L 1291.47,911.077 L 1255.22,874.825 L 1237.09,874.825 L 1237.09,856.699 L 1200.84,820.448 L 1137.4,838.573 L 1101.15,874.825 L 1101.15,892.951 L 1028.64,947.329 L 1028.64,992.643 L 1046.77,1010.77 L 1028.64,1047.02 L 1028.64,1019.83 L 1010.52,1001.71 L 983.329,1001.71 L 983.329,956.392 L 1001.45,938.266 L 1055.83,929.203 L 1101.15,883.888 L 1101.15,865.762 L 1146.46,829.51 L 1110.21,766.07 L 1110.21,711.692 L 1092.08,693.566 L 1037.71,702.629 L 1001.45,666.378 L 1001.45,648.252 L 1064.9,602.937 L 1101.15,648.252 L 1137.4,666.378 L 1182.71,666.378 L 1218.97,648.252 L 1273.34,575.748 L 1273.34,494.182 L 1255.22,457.93 L 1200.84,421.678 L 1164.59,439.804 L 1164.59,412.615 L 1237.09,358.238 L 1255.22,312.923 L 1200.84,258.545 L 1182.71,267.608 L 1164.59,249.483 L 1146.46,267.608 L 1110.21,231.357 L 1110.21,176.979 L 1073.96,140.727 L 1010.52,131.664 L 983.329,158.853 L 938.014,158.853 L 910.825,131.664 L 928.951,68.2238 L 865.51,13.8462 L 820.196,13.8462 L 738.629,77.2867 L 756.755,167.916 L 747.692,204.168 L 675.189,167.916 L 602.685,176.979 L 638.937,113.538 L 638.937,86.3497 L 629.874,50.0979 L 593.622,22.9091 L 493.93,22.9091 L 457.678,77.2867 L 457.678,149.79 L 385.175,204.168 L 367.049,176.979 L 403.301,158.853 L 421.427,95.4126 L 403.301,59.1608 L 330.797,4.78322 L 249.231,4.78322 L 194.853,41.035 L 176.727,77.2867 L 185.79,158.853 L 203.916,176.979 L 240.168,167.916 L 222.042,186.042 L 185.79,167.916 L 185.79,113.538 L 131.413,77.2867 L 86.0979,77.2867 L 49.8462,95.4126 L -4.53147,167.916 L -4.53147,249.483 L 13.5944,267.608 L -4.53147,321.986 L 31.7203,358.238 L 49.8462,358.238 L 49.8462,376.364 L 86.0979,412.615 L 149.538,394.49 L 185.79,358.238 L 185.79,340.112 L 258.294,285.734 L 258.294,240.42 L 240.168,222.294 L 258.294,186.042 L 258.294,213.231 L 276.42,231.357 L 303.608,231.357 L 303.608,276.671 L 285.483,294.797 L 231.105,303.86 L 185.79,349.175 L 185.79,367.301 L 140.476,403.552 L 176.727,466.993 L 176.727,521.371 L 194.853,539.497 L 249.231,530.434 L 285.483,566.685 L 285.483,584.811 L 222.042,630.126 L 185.79,584.811 L 149.538,566.685 L 104.224,566.685 L 67.972,584.811 L 13.5944,657.315 L 13.5944,738.881 L 31.7203,775.133 L 86.0979,811.385 L 122.35,793.259 L 122.35,820.448 L 49.8462,874.825 L 31.7203,920.14 L 86.0979,974.517 L 104.224,965.455 L 122.35,983.58 L 140.476,965.455 L 176.727,1001.71 L 176.727,1056.08 L 212.979,1092.34 L 276.42,1101.4 L 303.608,1074.21 L 348.923,1074.21 L 376.112,1101.4 L 357.986,1164.84 L 421.427,1219.22 z " style="fill-opacity:0.5;fill:rgb(0,253,0);stroke:rgb(0,0,0);stroke-width:5"/></g>
<g fill-rule="evenodd"><path d="M 530.182,213.231 L 521.119,213.231 L 512.056,213.231 L 502.993,213.231 L 493.93,222.294 L 484.867,231.357 L 475.804,240.42 L 466.741,249.483 L 466.741,258.545 L 466.741,267.608 L 466.741,276.671 L 466.741,285.734 L 466.741,294.797 L 475.804,303.86 L 484.867,312.923 L 493.93,321.986 L 502.993,331.049 L 512.056,331.049 L 521.119,331.049 L 530.182,331.049 L 539.245,321.986 L 539.245,312.923 L 548.308,303.86 L 557.371,294.797 L 566.434,285.734 L 566.434,276.671 L 557.371,267.608 L 557.371,258.545 L 557.371,249.483 L 548.308,240.42 L 539.245,231.357 L 539.245,222.294 L 530.182,213.231 z " style="fill-opacity:0.5;fill:rgb(253,0,0);stroke:rgb(253,0,0);stroke-width:2"/></g>
<g fill-rule="evenodd"><path d="M 502.993,331.049 L 466.741,294.797 L 466.741,249.483 L 502.993,213.231 L 530.182,213.231 L 566.434,285.734 L 530.182,331.049 L 502.993,331.049 z " style="fill-opacity:0.5;fill:rgb(0,253,0);stroke:rgb(0,0,0);stroke-width:5"/></g>
<g fill-rule="evenodd"><path d="M 883.636,222.294 L 874.573,222.294 L 865.51,222.294 L 856.448,222.294 L 847.385,222.294 L 838.322,231.357 L 829.259,240.42 L 820.196,249.483 L 820.196,258.545 L 820.196,267.608 L 820.196,276.671 L 811.133,285.734 L 802.07,294.797 L 802.07,303.86 L 802.07,312.923 L 811.133,321.986 L 820.196,321.986 L 829.259,321.986 L 838.322,321.986 L 847.385,312.923 L 856.448,303.86 L 865.51,303.86 L 865.51,294.797 L 874.573,285.734 L 883.636,276.671 L 892.699,276.671 L 901.762,276.671 L 910.825,276.671 L 919.888,276.671 L 928.951,276.671 L 938.014,285.734 L 947.077,294.797 L 956.14,294.797 L 965.203,294.797 L 974.266,303.86 L 983.329,312.923 L 992.392,321.986 L 1001.45,331.049 L 1001.45,340.112 L 1001.45,349.175 L 1010.52,358.238 L 1019.58,367.301 L 1019.58,376.364 L 1019.58,385.427 L 1019.58,394.49 L 1019.58,403.552 L 1019.58,412.615 L 1019.58,421.678 L 1028.64,421.678 L 1028.64,412.615 L 1028.64,403.552 L 1037.71,394.49 L 1046.77,385.427 L 1046.77,376.364 L 1046.77,367.301 L 1055.83,358.238 L 1064.9,349.175 L 1073.96,349.175 L 1073.96,340.112 L 1064.9,331.049 L 1055.83,321.986 L 1046.77,312.923 L 1037.71,303.86 L 1028.64,294.797 L 1019.58,294.797 L 1010.52,285.734 L 1001.45,285.734 L 992.392,285.734 L 983.329,285.734 L 974.266,276.671 L 965.203,276.671 L 956.14,267.608 L 947.077,258.545 L 938.014,258.545 L 928.951,258.545 L 919.888,249.483 L 910.825,240.42 L 901.762,231.357 L 892.699,231.357 L 883.636,222.294 z " style="fill-opacity:0.5;fill:rgb(253,0,0);stroke:rgb(253,0,0);stroke-width:2"/></g>
<g fill-rule="evenodd"><path d="M 1028.64,421.678 L 1001.45,331.049 L 928.951,276.671 L 883.636,276.671 L 838.322,321.986 L 811.133,321.986 L 802.07,294.797 L 820.196,276.671 L 820.196,249.483 L 847.385,222.294 L 883.636,222.294 L 928.951,258.545 L 1028.64,294.797 L 1073.96,340.112 L 1046.77,367.301 L 1028.64,421.678 z " style="fill-opacity:0.5;fill:rgb(0,253,0);stroke:rgb(0,0,0);stroke-width:5"/></g>
<g fill-rule="evenodd"><path d="M 666.126,258.545 L 657.063,258.545 L 648,258.545 L 638.937,258.545 L 629.874,258.545 L 620.811,267.608 L 620.811,276.671 L 620.811,285.734 L 620.811,294.797 L 629.874,303.86 L 638.937,303.86 L 648,312.923 L 657.063,312.923 L 666.126,312.923 L 675.189,303.86 L 684.252,294.797 L 684.252,285.734 L 684.252,276.671 L 675.189,267.608 L 666.126,258.545 z " style="fill-opacity:0.5;fill:rgb(253,0,0);stroke:rgb(253,0,0);stroke-width:2"/></g>
<g fill-rule="evenodd"><path d="M 629.874,303.86 L 629.874,258.545 L 666.126,258.545 L 684.252,276.671 L 666.126,312.923 L 629.874,303.86 z " style="fill-opacity:0.5;fill:rgb(0,253,0);stroke:rgb(0,0,0);stroke-width:5"/></g>
<g fill-rule="evenodd"><path d="M 765.818,321.986 L 756.755,321.986 L 756.755,331.049 L 756.755,340.112 L 756.755,349.175 L 756.755,358.238 L 756.755,367.301 L 756.755,376.364 L 756.755,385.427 L 747.692,394.49 L 747.692,403.552 L 747.692,412.615 L 747.692,421.678 L 756.755,430.741 L 756.755,439.804 L 756.755,448.867 L 756.755,457.93 L 765.818,457.93 L 774.881,448.867 L 783.944,439.804 L 793.007,430.741 L 802.07,421.678 L 802.07,412.615 L 793.007,403.552 L 793.007,394.49 L 793.007,385.427 L 793.007,376.364 L 802.07,367.301 L 802.07,358.238 L 793.007,349.175 L 783.944,340.112 L 774.881,331.049 L 765.818,321.986 z " style="fill-opacity:0.5;fill:rgb(253,0,0);stroke:rgb(253,0,0);stroke-width:2"/></g>
<g fill-rule="evenodd"><path d="M 756.755,457.93 L 747.692,394.49 L 765.818,321.986 L 802.07,358.238 L 802.07,421.678 L 756.755,457.93 z " style="fill-opacity:0.5;fill:rgb(0,253,0);stroke:rgb(0,0,0);stroke-width:5"/></g>
<g fill-rule="evenodd"><path d="M 430.49,331.049 L 421.427,331.049 L 421.427,340.112 L 412.364,349.175 L 403.301,358.238 L 394.238,358.238 L 385.175,358.238 L 376.112,358.238 L 367.049,358.238 L 367.049,367.301 L 376.112,376.364 L 376.112,385.427 L 367.049,394.49 L 367.049,403.552 L 367.049,412.615 L 357.986,421.678 L 348.923,430.741 L 348.923,439.804 L 348.923,448.867 L 339.86,457.93 L 330.797,466.993 L 321.734,466.993 L 312.671,466.993 L 303.608,466.993 L 303.608,476.056 L 312.671,485.119 L 321.734,494.182 L 330.797,503.245 L 339.86,512.308 L 348.923,512.308 L 357.986,512.308 L 367.049,512.308 L 376.112,512.308 L 385.175,512.308 L 394.238,512.308 L 403.301,512.308 L 412.364,503.245 L 412.364,494.182 L 412.364,485.119 L 412.364,476.056 L 412.364,466.993 L 421.427,457.93 L 421.427,448.867 L 421.427,439.804 L 421.427,430.741 L 412.364,421.678 L 421.427,412.615 L 430.49,403.552 L 430.49,394.49 L 439.552,385.427 L 448.615,385.427 L 457.678,376.364 L 466.741,376.364 L 466.741,367.301 L 457.678,358.238 L 448.615,349.175 L 439.552,340.112 L 430.49,331.049 z " style="fill-opacity:0.5;fill:rgb(253,0,0);stroke:rgb(253,0,0);stroke-width:2"/></g>
<g fill-rule="evenodd"><path d="M 339.86,512.308 L 303.608,466.993 L 330.797,466.993 L 348.923,448.867 L 376.112,385.427 L 367.049,358.238 L 403.301,358.238 L 430.49,331.049 L 466.741,376.364 L 439.552,385.427 L 412.364,421.678 L 412.364,503.245 L 339.86,512.308 z " style="fill-opacity:0.5;fill:rgb(0,253,0);stroke:rgb(0,0,0);stroke-width:5"/></g>
<g fill-rule="evenodd"><path d="M 620.811,358.238 L 611.748,358.238 L 602.685,358.238 L 593.622,358.238 L 584.559,358.238 L 575.497,367.301 L 566.434,376.364 L 557.371,385.427 L 557.371,394.49 L 548.308,403.552 L 548.308,412.615 L 548.308,421.678 L 548.308,430.741 L 557.371,430.741 L 566.434,439.804 L 575.497,439.804 L 584.559,439.804 L 593.622,439.804 L 602.685,439.804 L 611.748,439.804 L 620.811,439.804 L 629.874,439.804 L 638.937,439.804 L 648,439.804 L 657.063,439.804 L 666.126,439.804 L 675.189,439.804 L 684.252,430.741 L 684.252,421.678 L 684.252,412.615 L 684.252,403.552 L 675.189,394.49 L 666.126,385.427 L 657.063,376.364 L 648,376.364 L 638.937,376.364 L 629.874,367.301 L 620.811,358.238 z " style="fill-opacity:0.5;fill:rgb(253,0,0);stroke:rgb(253,0,0);stroke-width:2"/></g>
<g fill-rule="evenodd"><path d="M 548.308,430.741 L 548.308,403.552 L 584.559,358.238 L 620.811,358.238 L 684.252,403.552 L 675.189,439.804 L 548.308,430.741 z " style="fill-opacity:0.5;fill:rgb(0,253,0);stroke:rgb(0,0,0);stroke-width:5"/></g>
<g fill-rule="evenodd"><path d="M 883.636,476.056 L 874.573,476.056 L 865.51,476.056 L 856.448,476.056 L 847.385,485.119 L 838.322,494.182 L 829.259,503.245 L 820.196,512.308 L 820.196,521.371 L 829.259,521.371 L 838.322,530.434 L 847.385,539.497 L 856.448,548.559 L 865.51,557.622 L 874.573,566.685 L 883.636,566.685 L 892.699,566.685 L 901.762,566.685 L 910.825,566.685 L 919.888,566.685 L 928.951,575.748 L 938.014,575.748 L 947.077,584.811 L 956.14,584.811 L 965.203,584.811 L 974.266,575.748 L 983.329,566.685 L 992.392,557.622 L 1001.45,548.559 L 1001.45,539.497 L 992.392,539.497 L 983.329,530.434 L 974.266,521.371 L 974.266,512.308 L 974.266,503.245 L 965.203,503.245 L 956.14,503.245 L 947.077,503.245 L 938.014,503.245 L 928.951,494.182 L 919.888,485.119 L 910.825,485.119 L 901.762,494.182 L 892.699,485.119 L 883.636,476.056 z " style="fill-opacity:0.5;fill:rgb(253,0,0);stroke:rgb(253,0,0);stroke-width:2"/></g>
<g fill-rule="evenodd"><path d="M 1001.45,548.559 L 965.203,584.811 L 947.077,584.811 L 919.888,566.685 L 874.573,566.685 L 820.196,512.308 L 856.448,476.056 L 883.636,476.056 L 901.762,494.182 L 919.888,485.119 L 938.014,503.245 L 974.266,503.245 L 974.266,521.371 L 1001.45,548.559 z " style="fill-opacity:0.5;fill:rgb(0,253,0);stroke:rgb(0,0,0);stroke-width:5"/></g>
<g fill-rule="evenodd"><path d="M 566.434,512.308 L 557.371,512.308 L 548.308,512.308 L 539.245,512.308 L 530.182,512.308 L 521.119,521.371 L 512.056,530.434 L 502.993,530.434 L 493.93,539.497 L 493.93,548.559 L 484.867,557.622 L 484.867,566.685 L 475.804,575.748 L 475.804,584.811 L 475.804,593.874 L 475.804,602.937 L 475.804,612 L 484.867,621.063 L 493.93,621.063 L 502.993,621.063 L 512.056,621.063 L 521.119,621.063 L 530.182,621.063 L 539.245,621.063 L 548.308,621.063 L 557.371,621.063 L 566.434,630.126 L 575.497,639.189 L 584.559,630.126 L 593.622,621.063 L 602.685,612 L 611.748,602.937 L 620.811,593.874 L 629.874,584.811 L 638.937,575.748 L 648,566.685 L 657.063,557.622 L 666.126,548.559 L 675.189,539.497 L 675.189,530.434 L 675.189,521.371 L 666.126,521.371 L 657.063,521.371 L 648,521.371 L 638.937,521.371 L 629.874,521.371 L 620.811,521.371 L 611.748,521.371 L 602.685,521.371 L 593.622,521.371 L 584.559,521.371 L 575.497,521.371 L 566.434,512.308 z " style="fill-opacity:0.5;fill:rgb(253,0,0);stroke:rgb(253,0,0);stroke-width:2"/></g>
<g fill-rule="evenodd"><path d="M 484.867,621.063 L 475.804,575.748 L 493.93,539.497 L 530.182,512.308 L 675.189,521.371 L 675.189,539.497 L 575.497,639.189 L 557.371,621.063 L 484.867,621.063 z " style="fill-opacity:0.5;fill:rgb(0,253,0);stroke:rgb(0,0,0);stroke-width:5"/></g>
<g fill-rule="evenodd"><path d="M 711.441,593.874 L 702.378,602.937 L 693.315,612 L 684.252,621.063 L 675.189,630.126 L 666.126,639.189 L 657.063,648.252 L 648,657.315 L 638.937,666.378 L 629.874,675.441 L 620.811,684.503 L 611.748,693.566 L 611.748,702.629 L 611.748,711.692 L 620.811,711.692 L 629.874,711.692 L 638.937,711.692 L 648,711.692 L 657.063,711.692 L 666.126,711.692 L 675.189,711.692 L 684.252,711.692 L 693.315,711.692 L 702.378,711.692 L 711.441,711.692 L 720.503,720.755 L 729.566,720.755 L 738.629,720.755 L 747.692,720.755 L 756.755,720.755 L 765.818,711.692 L 774.881,702.629 L 783.944,702.629 L 793.007,693.566 L 793.007,684.503 L 802.07,675.441 L 802.07,666.378 L 811.133,657.315 L 811.133,648.252 L 811.133,639.189 L 811.133,630.126 L 811.133,621.063 L 802.07,612 L 793.007,612 L 783.944,612 L 774.881,612 L 765.818,612 L 756.755,612 L 747.692,612 L 738.629,612 L 729.566,612 L 720.503,602.937 L 711.441,593.874 z " style="fill-opacity:0.5;fill:rgb(253,0,0);stroke:rgb(253,0,0);stroke-width:2"/></g>
<g fill-rule="evenodd"><path d="M 611.748,711.692 L 611.748,693.566 L 711.441,593.874 L 729.566,612 L 811.133,621.063 L 793.007,693.566 L 756.755,720.755 L 611.748,711.692 z " style="fill-opacity:0.5;fill:rgb(0,253,0);stroke:rgb(0,0,0);stroke-width:5"/></g>
<g fill-rule="evenodd"><path d="M 339.86,648.252 L 330.797,648.252 L 321.734,648.252 L 312.671,657.315 L 303.608,666.378 L 294.545,675.441 L 285.483,684.503 L 285.483,693.566 L 294.545,693.566 L 303.608,702.629 L 312.671,711.692 L 312.671,720.755 L 312.671,729.818 L 321.734,729.818 L 330.797,729.818 L 339.86,729.818 L 348.923,729.818 L 357.986,738.881 L 367.049,747.944 L 376.112,747.944 L 385.175,738.881 L 394.238,747.944 L 403.301,757.007 L 412.364,757.007 L 421.427,757.007 L 430.49,757.007 L 439.552,747.944 L 448.615,738.881 L 457.678,729.818 L 466.741,720.755 L 466.741,711.692 L 457.678,711.692 L 448.615,702.629 L 439.552,693.566 L 430.49,684.503 L 421.427,675.441 L 412.364,666.378 L 403.301,666.378 L 394.238,666.378 L 385.175,666.378 L 376.112,666.378 L 367.049,666.378 L 357.986,657.315 L 348.923,657.315 L 339.86,648.252 z " style="fill-opacity:0.5;fill:rgb(253,0,0);stroke:rgb(253,0,0);stroke-width:2"/></g>
<g fill-rule="evenodd"><path d="M 466.741,720.755 L 430.49,757.007 L 403.301,757.007 L 385.175,738.881 L 367.049,747.944 L 348.923,729.818 L 312.671,729.818 L 312.671,711.692 L 285.483,684.503 L 321.734,648.252 L 339.86,648.252 L 367.049,666.378 L 412.364,666.378 L 466.741,720.755 z " style="fill-opacity:0.5;fill:rgb(0,253,0);stroke:rgb(0,0,0);stroke-width:5"/></g>
<g fill-rule="evenodd"><path d="M 947.077,720.755 L 938.014,720.755 L 928.951,720.755 L 919.888,720.755 L 910.825,720.755 L 901.762,720.755 L 892.699,720.755 L 883.636,720.755 L 874.573,729.818 L 874.573,738.881 L 874.573,747.944 L 874.573,757.007 L 874.573,766.07 L 865.51,775.133 L 865.51,784.196 L 865.51,793.259 L 865.51,802.322 L 874.573,811.385 L 865.51,820.448 L 856.448,829.51 L 856.448,838.573 L 847.385,847.636 L 838.322,847.636 L 829.259,856.699 L 820.196,856.699 L 820.196,865.762 L 829.259,874.825 L 838.322,883.888 L 847.385,892.951 L 856.448,902.014 L 865.51,902.014 L 865.51,892.951 L 874.573,883.888 L 883.636,874.825 L 892.699,874.825 L 901.762,874.825 L 910.825,874.825 L 919.888,874.825 L 919.888,865.762 L 910.825,856.699 L 910.825,847.636 L 919.888,838.573 L 919.888,829.51 L 919.888,820.448 L 928.951,811.385 L 938.014,802.322 L 938.014,793.259 L 938.014,784.196 L 947.077,775.133 L 956.14,766.07 L 965.203,766.07 L 974.266,766.07 L 983.329,766.07 L 983.329,757.007 L 974.266,747.944 L 965.203,738.881 L 956.14,729.818 L 947.077,720.755 z " style="fill-opacity:0.5;fill:rgb(253,0,0);stroke:rgb(253,0,0);stroke-width:2"/></g>
<g fill-rule="evenodd"><path d="M 856.448,902.014 L 820.196,856.699 L 847.385,847.636 L 874.573,811.385 L 874.573,729.818 L 947.077,720.755 L 983.329,766.07 L 956.14,766.07 L 938.014,784.196 L 910.825,847.636 L 919.888,874.825 L 883.636,874.825 L 856.448,902.014 z " style="fill-opacity:0.5;fill:rgb(0,253,0);stroke:rgb(0,0,0);stroke-width:5"/></g>
<g fill-rule="evenodd"><path d="M 530.182,775.133 L 521.119,775.133 L 512.056,784.196 L 502.993,793.259 L 493.93,802.322 L 484.867,811.385 L 484.867,820.448 L 493.93,829.51 L 493.93,838.573 L 493.93,847.636 L 493.93,856.699 L 484.867,865.762 L 484.867,874.825 L 493.93,883.888 L 502.993,892.951 L 512.056,902.014 L 521.119,911.077 L 530.182,911.077 L 530.182,902.014 L 530.182,892.951 L 530.182,883.888 L 530.182,874.825 L 530.182,865.762 L 530.182,856.699 L 530.182,847.636 L 539.245,838.573 L 539.245,829.51 L 539.245,820.448 L 539.245,811.385 L 530.182,802.322 L 530.182,793.259 L 530.182,784.196 L 530.182,775.133 z " style="fill-opacity:0.5;fill:rgb(253,0,0);stroke:rgb(253,0,0);stroke-width:2"/></g>
<g fill-rule="evenodd"><path d="M 521.119,911.077 L 484.867,874.825 L 484.867,811.385 L 530.182,775.133 L 539.245,838.573 L 521.119,911.077 z " style="fill-opacity:0.5;fill:rgb(0,253,0);stroke:rgb(0,0,0);stroke-width:5"/></g>
<g fill-rule="evenodd"><path d="M 720.503,793.259 L 711.441,793.259 L 702.378,793.259 L 693.315,793.259 L 684.252,793.259 L 675.189,793.259 L 666.126,793.259 L 657.063,793.259 L 648,793.259 L 638.937,793.259 L 629.874,793.259 L 620.811,793.259 L 611.748,793.259 L 602.685,802.322 L 602.685,811.385 L 602.685,820.448 L 602.685,829.51 L 611.748,838.573 L 620.811,847.636 L 629.874,856.699 L 638.937,856.699 L 648,856.699 L 657.063,865.762 L 666.126,874.825 L 675.189,874.825 L 684.252,874.825 L 693.315,874.825 L 702.378,874.825 L 711.441,865.762 L 720.503,856.699 L 729.566,847.636 L 729.566,838.573 L 738.629,829.51 L 738.629,820.448 L 738.629,811.385 L 738.629,802.322 L 729.566,802.322 L 720.503,793.259 z " style="fill-opacity:0.5;fill:rgb(253,0,0);stroke:rgb(253,0,0);stroke-width:2"/></g>
<g fill-rule="evenodd"><path d="M 602.685,829.51 L 611.748,793.259 L 738.629,802.322 L 738.629,829.51 L 702.378,874.825 L 666.126,874.825 L 602.685,829.51 z " style="fill-opacity:0.5;fill:rgb(0,253,0);stroke:rgb(0,0,0);stroke-width:5"/></g>
<g fill-rule="evenodd"><path d="M 267.357,811.385 L 258.294,811.385 L 258.294,820.448 L 258.294,829.51 L 249.231,838.573 L 240.168,847.636 L 240.168,856.699 L 240.168,865.762 L 231.105,874.825 L 222.042,883.888 L 212.979,883.888 L 212.979,892.951 L 222.042,902.014 L 231.105,911.077 L 240.168,920.14 L 249.231,929.203 L 258.294,938.266 L 267.357,938.266 L 276.42,947.329 L 285.483,947.329 L 294.545,947.329 L 303.608,947.329 L 312.671,956.392 L 321.734,956.392 L 330.797,965.455 L 339.86,974.517 L 348.923,974.517 L 357.986,974.517 L 367.049,983.58 L 376.112,992.643 L 385.175,1001.71 L 394.238,1001.71 L 403.301,1010.77 L 412.364,1010.77 L 421.427,1010.77 L 430.49,1010.77 L 439.552,1010.77 L 448.615,1001.71 L 457.678,992.643 L 466.741,983.58 L 466.741,974.517 L 466.741,965.455 L 466.741,956.392 L 475.804,947.329 L 484.867,938.266 L 484.867,929.203 L 484.867,920.14 L 475.804,911.077 L 466.741,911.077 L 457.678,911.077 L 448.615,911.077 L 439.552,920.14 L 430.49,929.203 L 421.427,929.203 L 421.427,938.266 L 412.364,947.329 L 403.301,956.392 L 394.238,956.392 L 385.175,956.392 L 376.112,956.392 L 367.049,956.392 L 357.986,956.392 L 348.923,947.329 L 339.86,938.266 L 330.797,938.266 L 321.734,938.266 L 312.671,929.203 L 303.608,920.14 L 294.545,911.077 L 285.483,902.014 L 285.483,892.951 L 285.483,883.888 L 276.42,874.825 L 267.357,865.762 L 267.357,856.699 L 267.357,847.636 L 267.357,838.573 L 267.357,829.51 L 267.357,820.448 L 267.357,811.385 z " style="fill-opacity:0.5;fill:rgb(253,0,0);stroke:rgb(253,0,0);stroke-width:2"/></g>
<g fill-rule="evenodd"><path d="M 466.741,983.58 L 439.552,1010.77 L 403.301,1010.77 L 357.986,974.517 L 258.294,938.266 L 212.979,883.888 L 240.168,865.762 L 267.357,811.385 L 267.357,865.762 L 285.483,902.014 L 357.986,956.392 L 403.301,956.392 L 448.615,911.077 L 475.804,911.077 L 484.867,938.266 L 466.741,956.392 L 466.741,983.58 z " style="fill-opacity:0.5;fill:rgb(0,253,0);stroke:rgb(0,0,0);stroke-width:5"/></g>
<g fill-rule="evenodd"><path d="M 783.944,902.014 L 774.881,902.014 L 765.818,902.014 L 756.755,902.014 L 747.692,911.077 L 747.692,920.14 L 738.629,929.203 L 729.566,938.266 L 720.503,947.329 L 720.503,956.392 L 729.566,965.455 L 729.566,974.517 L 729.566,983.58 L 738.629,992.643 L 747.692,1001.71 L 747.692,1010.77 L 756.755,1019.83 L 765.818,1019.83 L 774.881,1019.83 L 783.944,1019.83 L 793.007,1010.77 L 802.07,1001.71 L 811.133,992.643 L 820.196,983.58 L 820.196,974.517 L 820.196,965.455 L 820.196,956.392 L 820.196,947.329 L 820.196,938.266 L 811.133,929.203 L 802.07,920.14 L 793.007,911.077 L 783.944,902.014 z " style="fill-opacity:0.5;fill:rgb(253,0,0);stroke:rgb(253,0,0);stroke-width:2"/></g>
<g fill-rule="evenodd"><path d="M 756.755,1019.83 L 720.503,947.329 L 756.755,902.014 L 783.944,902.014 L 820.196,938.266 L 820.196,983.58 L 783.944,1019.83 L 756.755,1019.83 z " style="fill-opacity:0.5;fill:rgb(0,253,0);stroke:rgb(0,0,0);stroke-width:5"/></g>
<g fill-rule="evenodd"><path d="M 638.937,920.14 L 629.874,920.14 L 620.811,920.14 L 611.748,929.203 L 602.685,938.266 L 602.685,947.329 L 602.685,956.392 L 611.748,965.455 L 620.811,974.517 L 629.874,974.517 L 638.937,974.517 L 648,974.517 L 657.063,974.517 L 666.126,965.455 L 666.126,956.392 L 666.126,947.329 L 666.126,938.266 L 657.063,929.203 L 648,929.203 L 638.937,920.14 z " style="fill-opacity:0.5;fill:rgb(253,0,0);stroke:rgb(253,0,0);stroke-width:2"/></g>
<g fill-rule="evenodd"><path d="M 657.063,974.517 L 620.811,974.517 L 602.685,938.266 L 620.811,920.14 L 657.063,929.203 L 657.063,974.517 z " style="fill-opacity:0.5;fill:rgb(0,253,0);stroke:rgb(0,0,0);stroke-width:5"/></g>
</svg>
