<?xml version="1.0" standalone="no"?>
<!DOCTYPE svg PUBLIC "-//W3C//DTD SVG 1.1//EN"
"http://www.w3.org/Graphics/SVG/1.1/DTD/svg11.dtd">
<svg width="100%" height="100%" version="1.1"
xmlns="http://www.w3.org/2000/svg"
xmlns:xlink="http://www.w3.org/1999/xlink">
<g fill-rule="evenodd"><path d="M 6.29921,5.03937 L 16.378,5.03937 L 26.4567,5.03937 L 36.5354,5.03937 L 46.6142,5.03937 L 56.6929,5.03937 L 66.7717,5.03937 L 76.8504,5.03937 L 86.9291,5.03937 L 97.0079,5.03937 L 107.087,5.03937 L 117.165,5.03937 L 127.244,5.03937 L 137.323,5.03937 L 137.323,15.1181 L 147.402,25.1969 L 157.48,25.1969 L 157.48,35.2756 L 147.402,35.2756 L 137.323,45.3543 L 137.323,55.4331 L 137.323,65.5118 L 137.323,75.5906 L 137.323,85.6693 L 127.244,85.6693 L 117.165,95.748 L 117.165,105.827 L 117.165,115.906 L 117.165,125.984 L 127.244,136.063 L 137.323,136.063 L 137.323,146.142 L 137.323,156.22 L 147.402,166.299 L 157.48,166.299 L 157.48,176.378 L 147.402,176.378 L 137.323,186.457 L 137.323,196.535 L 137.323,206.614 L 137.323,216.693 L 147.402,226.772 L 157.48,226.772 L 167.559,236.85 L 177.638,236.85 L 177.638,246.929 L 177.638,257.008 L 187.717,267.087 L 197.795,267.087 L 207.874,267.087 L 217.953,267.087 L 228.031,267.087 L 238.11,267.087 L 248.189,277.165 L 258.268,277.165 L 268.346,287.244 L 278.425,287.244 L 288.504,297.323 L 298.583,297.323 L 308.661,297.323 L 318.74,287.244 L 328.819,287.244 L 338.898,287.244 L 348.976,287.244 L 359.055,287.244 L 369.134,297.323 L 379.213,297.323 L 389.291,297.323 L 399.37,297.323 L 409.449,287.244 L 409.449,277.165 L 409.449,267.087 L 419.528,267.087 L 429.606,257.008 L 429.606,246.929 L 429.606,236.85 L 439.685,236.85 L 449.764,226.772 L 459.843,226.772 L 469.921,226.772 L 480,226.772 L 490.079,226.772 L 500.157,226.772 L 510.236,216.693 L 520.315,216.693 L 530.394,206.614 L 530.394,196.535 L 520.315,186.457 L 510.236,186.457 L 510.236,176.378 L 510.236,166.299 L 500.157,156.22 L 490.079,156.22 L 490.079,146.142 L 500.157,146.142 L 510.236,136.063 L 520.315,136.063 L 530.394,125.984 L 540.472,125.984 L 550.551,136.063 L 560.63,146.142 L 560.63,156.22 L 550.551,156.22 L 540.472,156.22 L 530.394,166.299 L 540.472,176.378 L 540.472,186.457 L 550.551,196.535 L 560.63,206.614 L 560.63,216.693 L 550.551,216.693 L 540.472,226.772 L 540.472,236.85 L 550.551,246.929 L 560.63,246.929 L 560.63,257.008 L 550.551,257.008 L 540.472,257.008 L 530.394,267.087 L 520.315,267.087 L 510.236,277.165 L 500.157,277.165 L 490.079,287.244 L 480,287.244 L 469.921,287.244 L 459.843,277.165 L 449.764,277.165 L 439.685,287.244 L 439.685,297.323 L 429.606,297.323 L 419.528,307.402 L 409.449,307.402 L 399.37,317.48 L 389.291,317.48 L 379.213,327.559 L 369.134,327.559 L 369.134,317.48 L 359.055,307.402 L 348.976,307.402 L 338.898,307.402 L 328.819,317.48 L 318.74,327.559 L 318.74,337.638 L 308.661,337.638 L 298.583,337.638 L 288.504,337.638 L 278.425,347.717 L 278.425,357.795 L 268.346,357.795 L 258.268,367.874 L 248.189,367.874 L 238.11,377.953 L 228.031,377.953 L 217.953,377.953 L 207.874,367.874 L 197.795,367.874 L 187.717,367.874 L 187.717,357.795 L 197.795,357.795 L 207.874,347.717 L 207.874,337.638 L 207.874,327.559 L 207.874,317.48 L 197.795,307.402 L 187.717,307.402 L 187.717,297.323 L 187.717,287.244 L 177.638,277.165 L 167.559,277.165 L 157.48,267.087 L 147.402,267.087 L 147.402,257.008 L 147.402,246.929 L 137.323,236.85 L 127.244,236.85 L 117.165,226.772 L 107.087,226.772 L 107.087,216.693 L 107.087,206.614 L 97.0079,196.535 L 86.9291,196.535 L 76.8504,196.535 L 66.7717,196.535 L 56.6929,196.535 L 46.6142,196.535 L 36.5354,196.535 L 26.4567,196.535 L 16.378,206.614 L 6.29921,206.614 L 6.29921,196.535 L 6.29921,186.457 L 6.29921,176.378 L 6.29921,166.299 L 6.29921,156.22 L 6.29921,146.142 L 6.29921,136.063 L 6.29921,125.984 L 6.29921,115.906 L 6.29921,105.827 L 6.29921,95.748 L 6.29921,85.6693 L 6.29921,75.5906 L 6.29921,65.5118 L 6.29921,55.4331 L 6.29921,45.3543 L 6.29921,35.2756 L 6.29921,25.1969 L 6.29921,15.1181 L 6.29921,5.03937 z " style="fill-opacity:0.5;fill:rgb(253,0,0);stroke:rgb(253,0,0);stroke-width:2"/></g>
<g fill-rule="evenodd"><path d="M 560.63,257.008 L 490.079,287.244 L 449.764,277.165 L 439.685,297.323 L 379.213,327.559 L 338.898,307.402 L 318.74,337.638 L 288.504,337.638 L 238.11,377.953 L 187.717,367.874 L 207.874,347.717 L 207.874,317.48 L 187.717,307.402 L 177.638,277.165 L 147.402,267.087 L 137.323,236.85 L 107.087,226.772 L 97.0079,196.535 L 6.29921,206.614 L 6.29921,5.03937 L 137.323,5.03937 L 157.48,25.1969 L 137.323,45.3543 L 117.165,125.984 L 157.48,166.299 L 137.323,186.457 L 137.323,216.693 L 177.638,236.85 L 187.717,267.087 L 238.11,267.087 L 288.504,297.323 L 399.37,297.323 L 429.606,236.85 L 500.157,226.772 L 530.394,206.614 L 490.079,156.22 L 530.394,125.984 L 560.63,146.142 L 530.394,166.299 L 560.63,206.614 L 540.472,226.772 L 560.63,257.008 z " style="fill-opacity:0.5;fill:rgb(51,51,153);stroke:rgb(0,0,0);stroke-width:5"/></g>
<g fill-rule="evenodd"><path d="M 530.394,5.03937 L 540.472,5.03937 L 550.551,5.03937 L 560.63,5.03937 L 570.709,5.03937 L 580.787,5.03937 L 570.709,5.03937 L 560.63,15.1181 L 560.63,25.1969 L 560.63,35.2756 L 550.551,45.3543 L 550.551,55.4331 L 540.472,65.5118 L 530.394,65.5118 L 520.315,65.5118 L 510.236,65.5118 L 500.157,55.4331 L 490.079,55.4331 L 490.079,45.3543 L 500.157,45.3543 L 510.236,35.2756 L 520.315,35.2756 L 530.394,25.1969 L 530.394,15.1181 L 530.394,5.03937 z " style="fill-opacity:0.5;fill:rgb(253,0,0);stroke:rgb(253,0,0);stroke-width:2"/></g>
<g fill-rule="evenodd"><path d="M 490.079,55.4331 L 530.394,25.1969 L 530.394,5.03937 L 580.787,5.03937 L 560.63,15.1181 L 540.472,65.5118 L 490.079,55.4331 z " style="fill-opacity:0.5;fill:rgb(51,51,153);stroke:rgb(0,0,0);stroke-width:5"/></g>
<g fill-rule="evenodd"><path d="M 580.787,65.5118 L 590.866,65.5118 L 580.787,75.5906 L 580.787,85.6693 L 590.866,95.748 L 600.945,95.748 L 611.024,95.748 L 621.102,95.748 L 631.181,95.748 L 641.26,95.748 L 651.339,105.827 L 661.417,115.906 L 671.496,115.906 L 681.575,105.827 L 691.654,95.748 L 701.732,95.748 L 711.811,95.748 L 721.89,95.748 L 731.969,95.748 L 742.047,95.748 L 752.126,95.748 L 762.205,95.748 L 772.283,105.827 L 782.362,115.906 L 792.441,125.984 L 802.52,125.984 L 812.598,125.984 L 822.677,125.984 L 832.756,136.063 L 842.835,146.142 L 852.913,156.22 L 862.992,146.142 L 873.071,146.142 L 883.15,156.22 L 893.228,156.22 L 893.228,166.299 L 883.15,176.378 L 873.071,176.378 L 862.992,186.457 L 862.992,196.535 L 862.992,206.614 L 852.913,206.614 L 842.835,216.693 L 842.835,226.772 L 842.835,236.85 L 842.835,246.929 L 842.835,257.008 L 842.835,267.087 L 842.835,277.165 L 842.835,287.244 L 842.835,297.323 L 842.835,307.402 L 842.835,317.48 L 832.756,317.48 L 822.677,327.559 L 812.598,327.559 L 802.52,337.638 L 792.441,337.638 L 782.362,347.717 L 782.362,357.795 L 792.441,367.874 L 802.52,367.874 L 802.52,377.953 L 792.441,377.953 L 782.362,388.031 L 792.441,398.11 L 792.441,408.189 L 782.362,418.268 L 772.283,418.268 L 762.205,408.189 L 752.126,408.189 L 742.047,408.189 L 731.969,408.189 L 721.89,418.268 L 711.811,418.268 L 701.732,418.268 L 691.654,418.268 L 681.575,418.268 L 671.496,418.268 L 661.417,418.268 L 651.339,418.268 L 651.339,408.189 L 651.339,398.11 L 651.339,388.031 L 661.417,377.953 L 651.339,367.874 L 641.26,367.874 L 631.181,367.874 L 621.102,357.795 L 611.024,357.795 L 600.945,347.717 L 611.024,337.638 L 621.102,337.638 L 631.181,327.559 L 641.26,327.559 L 651.339,317.48 L 661.417,317.48 L 671.496,307.402 L 681.575,307.402 L 691.654,317.48 L 701.732,317.48 L 711.811,317.48 L 721.89,307.402 L 731.969,307.402 L 742.047,307.402 L 752.126,297.323 L 752.126,287.244 L 752.126,277.165 L 762.205,267.087 L 772.283,257.008 L 772.283,246.929 L 782.362,236.85 L 792.441,226.772 L 792.441,216.693 L 792.441,206.614 L 792.441,196.535 L 802.52,186.457 L 792.441,176.378 L 782.362,176.378 L 772.283,176.378 L 772.283,166.299 L 772.283,156.22 L 762.205,146.142 L 752.126,146.142 L 742.047,136.063 L 731.969,136.063 L 721.89,125.984 L 711.811,125.984 L 701.732,125.984 L 691.654,125.984 L 681.575,125.984 L 671.496,125.984 L 661.417,125.984 L 651.339,125.984 L 641.26,125.984 L 631.181,125.984 L 621.102,125.984 L 611.024,125.984 L 600.945,125.984 L 590.866,125.984 L 580.787,125.984 L 570.709,125.984 L 560.63,115.906 L 560.63,105.827 L 570.709,95.748 L 560.63,85.6693 L 560.63,75.5906 L 570.709,75.5906 L 580.787,65.5118 z " style="fill-opacity:0.5;fill:rgb(253,0,0);stroke:rgb(253,0,0);stroke-width:2"/></g>
<g fill-rule="evenodd"><path d="M 782.362,418.268 L 651.339,418.268 L 661.417,377.953 L 600.945,347.717 L 671.496,307.402 L 742.047,307.402 L 802.52,186.457 L 721.89,125.984 L 570.709,125.984 L 560.63,75.5906 L 590.866,65.5118 L 590.866,95.748 L 641.26,95.748 L 661.417,115.906 L 691.654,95.748 L 762.205,95.748 L 852.913,156.22 L 893.228,156.22 L 842.835,216.693 L 842.835,317.48 L 782.362,347.717 L 802.52,367.874 L 782.362,388.031 L 782.362,418.268 z " style="fill-opacity:0.5;fill:rgb(51,51,153);stroke:rgb(0,0,0);stroke-width:5"/></g>
<g fill-rule="evenodd"><path d="M 933.543,95.748 L 943.622,105.827 L 953.701,115.906 L 963.78,115.906 L 963.78,125.984 L 953.701,125.984 L 943.622,115.906 L 943.622,105.827 L 933.543,95.748 z " style="fill-opacity:0.5;fill:rgb(253,0,0);stroke:rgb(253,0,0);stroke-width:2"/></g>
<g fill-rule="evenodd"><path d=" z " style="fill-opacity:0.5;fill:rgb(51,51,153);stroke:rgb(0,0,0);stroke-width:5"/></g>
<g fill-rule="evenodd"><path d="M 590.866,267.087 L 600.945,267.087 L 611.024,277.165 L 621.102,277.165 L 631.181,287.244 L 641.26,287.244 L 641.26,297.323 L 631.181,297.323 L 621.102,297.323 L 611.024,307.402 L 600.945,307.402 L 590.866,317.48 L 580.787,317.48 L 570.709,327.559 L 560.63,327.559 L 550.551,327.559 L 540.472,317.48 L 530.394,317.48 L 520.315,307.402 L 530.394,297.323 L 540.472,297.323 L 550.551,287.244 L 560.63,287.244 L 570.709,277.165 L 580.787,277.165 L 590.866,267.087 z " style="fill-opacity:0.5;fill:rgb(253,0,0);stroke:rgb(253,0,0);stroke-width:2"/></g>
<g fill-rule="evenodd"><path d="M 520.315,307.402 L 590.866,267.087 L 641.26,287.244 L 570.709,327.559 L 520.315,307.402 z " style="fill-opacity:0.5;fill:rgb(51,51,153);stroke:rgb(0,0,0);stroke-width:5"/></g>
<g fill-rule="evenodd"><path d="M 953.701,347.717 L 963.78,347.717 L 963.78,357.795 L 953.701,357.795 L 953.701,347.717 z " style="fill-opacity:0.5;fill:rgb(253,0,0);stroke:rgb(253,0,0);stroke-width:2"/></g>
<g fill-rule="evenodd"><path d=" z " style="fill-opacity:0.5;fill:rgb(51,51,153);stroke:rgb(0,0,0);stroke-width:5"/></g>
<g fill-rule="evenodd"><path d="M 26.4567,377.953 L 36.5354,377.953 L 46.6142,377.953 L 56.6929,377.953 L 66.7717,388.031 L 76.8504,388.031 L 86.9291,388.031 L 97.0079,388.031 L 107.087,388.031 L 117.165,388.031 L 127.244,377.953 L 137.323,377.953 L 147.402,377.953 L 157.48,377.953 L 167.559,388.031 L 177.638,388.031 L 187.717,398.11 L 177.638,408.189 L 167.559,408.189 L 157.48,418.268 L 147.402,418.268 L 137.323,428.346 L 147.402,438.425 L 157.48,438.425 L 157.48,448.504 L 167.559,458.583 L 177.638,458.583 L 187.717,448.504 L 187.717,458.583 L 177.638,468.661 L 167.559,468.661 L 157.48,468.661 L 147.402,468.661 L 137.323,458.583 L 127.244,458.583 L 117.165,448.504 L 107.087,448.504 L 97.0079,448.504 L 86.9291,448.504 L 76.8504,448.504 L 66.7717,448.504 L 56.6929,438.425 L 46.6142,438.425 L 36.5354,438.425 L 26.4567,438.425 L 16.378,448.504 L 26.4567,458.583 L 36.5354,458.583 L 36.5354,468.661 L 26.4567,468.661 L 16.378,478.74 L 6.29921,478.74 L 6.29921,468.661 L 16.378,468.661 L 26.4567,458.583 L 16.378,448.504 L 6.29921,448.504 L 6.29921,438.425 L 6.29921,428.346 L 6.29921,418.268 L 6.29921,408.189 L 6.29921,398.11 L 6.29921,388.031 L 16.378,388.031 L 26.4567,377.953 z " style="fill-opacity:0.5;fill:rgb(253,0,0);stroke:rgb(253,0,0);stroke-width:2"/></g>
<g fill-rule="evenodd"><path d="M 187.717,458.583 L 147.402,468.661 L 117.165,448.504 L 26.4567,438.425 L 16.378,448.504 L 36.5354,468.661 L 6.29921,478.74 L 26.4567,458.583 L 6.29921,448.504 L 6.29921,388.031 L 157.48,377.953 L 187.717,398.11 L 137.323,428.346 L 167.559,458.583 L 187.717,458.583 z " style="fill-opacity:0.5;fill:rgb(51,51,153);stroke:rgb(0,0,0);stroke-width:5"/></g>
<g fill-rule="evenodd"><path d="M 217.953,468.661 L 228.031,468.661 L 217.953,478.74 L 217.953,488.819 L 228.031,498.898 L 238.11,508.976 L 238.11,519.055 L 238.11,529.134 L 238.11,539.213 L 248.189,549.291 L 258.268,559.37 L 258.268,569.449 L 248.189,569.449 L 238.11,579.528 L 238.11,589.606 L 238.11,599.685 L 228.031,599.685 L 217.953,609.764 L 228.031,619.843 L 238.11,619.843 L 238.11,629.921 L 228.031,629.921 L 217.953,640 L 207.874,640 L 197.795,640 L 187.717,640 L 177.638,650.079 L 187.717,660.157 L 197.795,660.157 L 207.874,660.157 L 217.953,660.157 L 228.031,670.236 L 238.11,670.236 L 238.11,680.315 L 228.031,680.315 L 217.953,680.315 L 207.874,690.394 L 197.795,690.394 L 187.717,700.472 L 177.638,700.472 L 167.559,710.551 L 157.48,710.551 L 147.402,710.551 L 137.323,700.472 L 127.244,700.472 L 117.165,710.551 L 107.087,710.551 L 107.087,700.472 L 97.0079,690.394 L 86.9291,690.394 L 76.8504,680.315 L 76.8504,670.236 L 86.9291,660.157 L 97.0079,660.157 L 107.087,670.236 L 117.165,670.236 L 127.244,670.236 L 137.323,670.236 L 147.402,660.157 L 147.402,650.079 L 147.402,640 L 147.402,629.921 L 147.402,619.843 L 157.48,619.843 L 167.559,609.764 L 177.638,609.764 L 187.717,599.685 L 197.795,589.606 L 207.874,579.528 L 207.874,569.449 L 217.953,569.449 L 228.031,559.37 L 228.031,549.291 L 217.953,539.213 L 207.874,539.213 L 207.874,529.134 L 207.874,519.055 L 207.874,508.976 L 207.874,498.898 L 197.795,488.819 L 197.795,478.74 L 207.874,478.74 L 217.953,468.661 z " style="fill-opacity:0.5;fill:rgb(253,0,0);stroke:rgb(253,0,0);stroke-width:2"/></g>
<g fill-rule="evenodd"><path d="M 107.087,710.551 L 76.8504,670.236 L 137.323,670.236 L 147.402,619.843 L 228.031,559.37 L 207.874,539.213 L 197.795,488.819 L 228.031,468.661 L 217.953,488.819 L 258.268,569.449 L 217.953,609.764 L 238.11,629.921 L 177.638,650.079 L 238.11,680.315 L 167.559,710.551 L 107.087,710.551 z " style="fill-opacity:0.5;fill:rgb(51,51,153);stroke:rgb(0,0,0);stroke-width:5"/></g>
<g fill-rule="evenodd"><path d="M 681.575,488.819 L 691.654,488.819 L 701.732,498.898 L 701.732,508.976 L 711.811,519.055 L 721.89,529.134 L 731.969,529.134 L 742.047,529.134 L 742.047,539.213 L 742.047,549.291 L 742.047,559.37 L 752.126,569.449 L 762.205,579.528 L 752.126,579.528 L 742.047,579.528 L 731.969,589.606 L 721.89,589.606 L 711.811,599.685 L 701.732,599.685 L 691.654,609.764 L 681.575,609.764 L 671.496,609.764 L 661.417,609.764 L 651.339,609.764 L 641.26,609.764 L 631.181,599.685 L 621.102,599.685 L 611.024,589.606 L 600.945,589.606 L 590.866,579.528 L 580.787,579.528 L 570.709,579.528 L 570.709,569.449 L 580.787,569.449 L 590.866,559.37 L 600.945,559.37 L 611.024,549.291 L 621.102,539.213 L 631.181,539.213 L 641.26,539.213 L 651.339,529.134 L 651.339,519.055 L 661.417,519.055 L 671.496,508.976 L 671.496,498.898 L 681.575,488.819 z " style="fill-opacity:0.5;fill:rgb(253,0,0);stroke:rgb(253,0,0);stroke-width:2"/></g>
<g fill-rule="evenodd"><path d="M 570.709,579.528 L 641.26,539.213 L 681.575,488.819 L 721.89,529.134 L 742.047,529.134 L 742.047,559.37 L 762.205,579.528 L 691.654,609.764 L 641.26,609.764 L 570.709,579.528 z " style="fill-opacity:0.5;fill:rgb(51,51,153);stroke:rgb(0,0,0);stroke-width:5"/></g>
<g fill-rule="evenodd"><path d="M 953.701,488.819 L 963.78,488.819 L 963.78,498.898 L 963.78,508.976 L 963.78,519.055 L 963.78,529.134 L 963.78,539.213 L 953.701,539.213 L 953.701,529.134 L 943.622,519.055 L 933.543,519.055 L 933.543,508.976 L 943.622,498.898 L 953.701,488.819 z " style="fill-opacity:0.5;fill:rgb(253,0,0);stroke:rgb(253,0,0);stroke-width:2"/></g>
<g fill-rule="evenodd"><path d="M 963.78,539.213 L 933.543,519.055 L 953.701,488.819 L 963.78,539.213 z " style="fill-opacity:0.5;fill:rgb(51,51,153);stroke:rgb(0,0,0);stroke-width:5"/></g>
<g fill-rule="evenodd"><path d="M 923.465,559.37 L 933.543,569.449 L 943.622,569.449 L 953.701,579.528 L 963.78,579.528 L 963.78,589.606 L 953.701,589.606 L 943.622,579.528 L 933.543,579.528 L 923.465,569.449 L 923.465,559.37 z " style="fill-opacity:0.5;fill:rgb(253,0,0);stroke:rgb(253,0,0);stroke-width:2"/></g>
<g fill-rule="evenodd"><path d=" z " style="fill-opacity:0.5;fill:rgb(51,51,153);stroke:rgb(0,0,0);stroke-width:5"/></g>
<g fill-rule="evenodd"><path d="M 348.976,579.528 L 359.055,579.528 L 359.055,589.606 L 348.976,589.606 L 348.976,579.528 z " style="fill-opacity:0.5;fill:rgb(253,0,0);stroke:rgb(253,0,0);stroke-width:2"/></g>
<g fill-rule="evenodd"><path d=" z " style="fill-opacity:0.5;fill:rgb(51,51,153);stroke:rgb(0,0,0);stroke-width:5"/></g>
<g fill-rule="evenodd"><path d="M 883.15,579.528 L 893.228,579.528 L 903.307,589.606 L 913.386,589.606 L 913.386,599.685 L 903.307,609.764 L 903.307,619.843 L 893.228,619.843 L 883.15,629.921 L 883.15,640 L 873.071,640 L 862.992,650.079 L 852.913,650.079 L 842.835,660.157 L 832.756,660.157 L 822.677,670.236 L 812.598,670.236 L 802.52,680.315 L 792.441,680.315 L 782.362,690.394 L 782.362,700.472 L 782.362,710.551 L 772.283,710.551 L 762.205,720.63 L 752.126,720.63 L 742.047,730.709 L 742.047,740.787 L 742.047,750.866 L 742.047,760.945 L 752.126,771.024 L 762.205,771.024 L 762.205,781.102 L 772.283,791.181 L 772.283,801.26 L 762.205,811.339 L 752.126,811.339 L 742.047,801.26 L 731.969,801.26 L 731.969,791.181 L 731.969,781.102 L 721.89,771.024 L 711.811,771.024 L 711.811,760.945 L 711.811,750.866 L 711.811,740.787 L 721.89,730.709 L 711.811,720.63 L 711.811,710.551 L 721.89,710.551 L 731.969,700.472 L 742.047,700.472 L 752.126,690.394 L 752.126,680.315 L 762.205,670.236 L 752.126,660.157 L 752.126,650.079 L 742.047,640 L 752.126,629.921 L 762.205,629.921 L 772.283,619.843 L 782.362,619.843 L 792.441,609.764 L 802.52,609.764 L 812.598,599.685 L 822.677,599.685 L 832.756,609.764 L 842.835,609.764 L 852.913,619.843 L 862.992,619.843 L 873.071,609.764 L 883.15,609.764 L 893.228,599.685 L 893.228,589.606 L 883.15,579.528 z " style="fill-opacity:0.5;fill:rgb(253,0,0);stroke:rgb(253,0,0);stroke-width:2"/></g>
<g fill-rule="evenodd"><path d="M 731.969,801.26 L 731.969,781.102 L 711.811,771.024 L 711.811,710.551 L 742.047,700.472 L 762.205,670.236 L 742.047,640 L 812.598,599.685 L 862.992,619.843 L 893.228,599.685 L 883.15,579.528 L 913.386,589.606 L 883.15,640 L 792.441,680.315 L 782.362,710.551 L 742.047,730.709 L 742.047,760.945 L 772.283,801.26 L 731.969,801.26 z " style="fill-opacity:0.5;fill:rgb(51,51,153);stroke:rgb(0,0,0);stroke-width:5"/></g>
<g fill-rule="evenodd"><path d="M 510.236,599.685 L 520.315,599.685 L 530.394,609.764 L 540.472,609.764 L 550.551,619.843 L 560.63,619.843 L 570.709,629.921 L 580.787,629.921 L 590.866,640 L 580.787,650.079 L 570.709,650.079 L 560.63,660.157 L 550.551,660.157 L 540.472,660.157 L 530.394,650.079 L 520.315,650.079 L 510.236,640 L 500.157,640 L 490.079,629.921 L 480,629.921 L 469.921,629.921 L 469.921,619.843 L 480,619.843 L 490.079,609.764 L 500.157,609.764 L 510.236,599.685M 207.874,609.764 L 197.795,619.843 L 207.874,629.921 L 217.953,629.921 L 228.031,619.843 L 217.953,609.764 L 207.874,609.764 z " style="fill-opacity:0.5;fill:rgb(253,0,0);stroke:rgb(253,0,0);stroke-width:2"/></g>
<g fill-rule="evenodd"><path d="M 590.866,640 L 540.472,660.157 L 469.921,619.843 L 520.315,599.685 L 590.866,640M 217.953,629.921 L 228.031,619.843 L 207.874,609.764 L 197.795,619.843 L 217.953,629.921 z " style="fill-opacity:0.5;fill:rgb(51,51,153);stroke:rgb(0,0,0);stroke-width:5"/></g>
<g fill-rule="evenodd"><path d="M 409.449,650.079 L 419.528,650.079 L 429.606,660.157 L 439.685,660.157 L 449.764,670.236 L 459.843,670.236 L 469.921,680.315 L 480,680.315 L 490.079,690.394 L 480,700.472 L 469.921,700.472 L 459.843,710.551 L 449.764,710.551 L 439.685,710.551 L 429.606,700.472 L 419.528,700.472 L 409.449,690.394 L 399.37,690.394 L 389.291,680.315 L 379.213,680.315 L 369.134,680.315 L 369.134,670.236 L 379.213,670.236 L 389.291,660.157 L 399.37,660.157 L 409.449,650.079 z " style="fill-opacity:0.5;fill:rgb(253,0,0);stroke:rgb(253,0,0);stroke-width:2"/></g>
<g fill-rule="evenodd"><path d="M 490.079,690.394 L 439.685,710.551 L 369.134,670.236 L 419.528,650.079 L 490.079,690.394 z " style="fill-opacity:0.5;fill:rgb(51,51,153);stroke:rgb(0,0,0);stroke-width:5"/></g>
<g fill-rule="evenodd"><path d="M 6.29921,690.394 L 16.378,690.394 L 26.4567,700.472 L 36.5354,700.472 L 46.6142,690.394 L 56.6929,690.394 L 66.7717,700.472 L 76.8504,710.551 L 76.8504,720.63 L 66.7717,720.63 L 56.6929,720.63 L 46.6142,720.63 L 36.5354,720.63 L 26.4567,720.63 L 16.378,720.63 L 6.29921,730.709 L 16.378,740.787 L 16.378,750.866 L 6.29921,750.866 L 6.29921,740.787 L 6.29921,730.709 L 6.29921,720.63 L 6.29921,710.551 L 6.29921,700.472 L 6.29921,690.394 z " style="fill-opacity:0.5;fill:rgb(253,0,0);stroke:rgb(253,0,0);stroke-width:2"/></g>
<g fill-rule="evenodd"><path d="M 76.8504,720.63 L 16.378,720.63 L 6.29921,750.866 L 6.29921,690.394 L 56.6929,690.394 L 76.8504,720.63 z " style="fill-opacity:0.5;fill:rgb(51,51,153);stroke:rgb(0,0,0);stroke-width:5"/></g>
<g fill-rule="evenodd"><path d="M 288.504,700.472 L 298.583,700.472 L 308.661,700.472 L 318.74,700.472 L 328.819,710.551 L 338.898,710.551 L 348.976,720.63 L 359.055,720.63 L 369.134,730.709 L 379.213,730.709 L 389.291,740.787 L 379.213,750.866 L 379.213,760.945 L 379.213,771.024 L 369.134,771.024 L 359.055,781.102 L 348.976,781.102 L 338.898,781.102 L 328.819,781.102 L 318.74,791.181 L 328.819,801.26 L 338.898,801.26 L 338.898,811.339 L 328.819,811.339 L 318.74,821.417 L 308.661,821.417 L 298.583,821.417 L 288.504,821.417 L 288.504,811.339 L 288.504,801.26 L 278.425,791.181 L 268.346,791.181 L 268.346,781.102 L 268.346,771.024 L 268.346,760.945 L 258.268,750.866 L 248.189,750.866 L 238.11,750.866 L 228.031,750.866 L 217.953,740.787 L 228.031,730.709 L 238.11,730.709 L 248.189,720.63 L 258.268,720.63 L 268.346,710.551 L 278.425,710.551 L 288.504,700.472M 268.346,740.787 L 258.268,750.866 L 268.346,760.945 L 278.425,750.866 L 268.346,740.787M 359.055,750.866 L 348.976,760.945 L 359.055,771.024 L 369.134,760.945 L 359.055,750.866 z " style="fill-opacity:0.5;fill:rgb(253,0,0);stroke:rgb(253,0,0);stroke-width:2"/></g>
<g fill-rule="evenodd"><path d="M 318.74,821.417 L 288.504,821.417 L 268.346,760.945 L 217.953,740.787 L 288.504,700.472 L 379.213,730.709 L 379.213,771.024 L 328.819,781.102 L 318.74,791.181 L 338.898,811.339 L 318.74,821.417 z " style="fill-opacity:0.5;fill:rgb(51,51,153);stroke:rgb(0,0,0);stroke-width:5"/></g>
<g fill-rule="evenodd"><path d="M 550.551,760.945 L 560.63,760.945 L 560.63,771.024 L 550.551,771.024 L 550.551,760.945 z " style="fill-opacity:0.5;fill:rgb(253,0,0);stroke:rgb(253,0,0);stroke-width:2"/></g>
<g fill-rule="evenodd"><path d=" z " style="fill-opacity:0.5;fill:rgb(51,51,153);stroke:rgb(0,0,0);stroke-width:5"/></g>
<g fill-rule="evenodd"><path d="M 6.29921,771.024 L 16.378,771.024 L 16.378,781.102 L 26.4567,791.181 L 26.4567,801.26 L 16.378,811.339 L 6.29921,811.339 L 6.29921,801.26 L 16.378,801.26 L 26.4567,791.181 L 16.378,781.102 L 6.29921,781.102 L 6.29921,771.024 z " style="fill-opacity:0.5;fill:rgb(253,0,0);stroke:rgb(253,0,0);stroke-width:2"/></g>
<g fill-rule="evenodd"><path d="M 16.378,811.339 L 6.29921,801.26 L 26.4567,791.181 L 6.29921,771.024 L 26.4567,791.181 L 16.378,811.339 z " style="fill-opacity:0.5;fill:rgb(51,51,153);stroke:rgb(0,0,0);stroke-width:5"/></g>
<g fill-rule="evenodd"><path d="M 792.441,811.339 L 802.52,811.339 L 812.598,821.417 L 822.677,821.417 L 832.756,831.496 L 842.835,831.496 L 852.913,841.575 L 862.992,841.575 L 873.071,841.575 L 883.15,841.575 L 893.228,831.496 L 903.307,831.496 L 913.386,831.496 L 923.465,831.496 L 933.543,831.496 L 943.622,841.575 L 953.701,831.496 L 953.701,821.417 L 963.78,821.417 L 963.78,831.496 L 963.78,841.575 L 963.78,851.654 L 963.78,861.732 L 963.78,871.811 L 963.78,881.89 L 963.78,891.969 L 963.78,902.047 L 953.701,902.047 L 943.622,912.126 L 933.543,912.126 L 923.465,912.126 L 913.386,912.126 L 903.307,902.047 L 893.228,902.047 L 883.15,902.047 L 873.071,902.047 L 862.992,902.047 L 852.913,902.047 L 842.835,902.047 L 832.756,902.047 L 822.677,912.126 L 812.598,912.126 L 802.52,912.126 L 792.441,902.047 L 782.362,902.047 L 772.283,902.047 L 772.283,891.969 L 782.362,891.969 L 792.441,881.89 L 802.52,881.89 L 812.598,871.811 L 812.598,861.732 L 812.598,851.654 L 802.52,841.575 L 792.441,841.575 L 782.362,841.575 L 772.283,841.575 L 772.283,831.496 L 782.362,821.417 L 792.441,811.339 z " style="fill-opacity:0.5;fill:rgb(253,0,0);stroke:rgb(253,0,0);stroke-width:2"/></g>
<g fill-rule="evenodd"><path d="M 963.78,902.047 L 772.283,902.047 L 812.598,871.811 L 812.598,851.654 L 772.283,831.496 L 792.441,811.339 L 852.913,841.575 L 943.622,841.575 L 963.78,821.417 L 963.78,902.047 z " style="fill-opacity:0.5;fill:rgb(51,51,153);stroke:rgb(0,0,0);stroke-width:5"/></g>
<g fill-rule="evenodd"><path d="M 197.795,881.89 L 207.874,881.89 L 197.795,891.969 L 207.874,902.047 L 217.953,902.047 L 228.031,891.969 L 238.11,891.969 L 248.189,891.969 L 258.268,891.969 L 268.346,891.969 L 278.425,891.969 L 288.504,891.969 L 298.583,902.047 L 308.661,912.126 L 318.74,912.126 L 328.819,912.126 L 338.898,922.205 L 348.976,932.283 L 359.055,932.283 L 369.134,942.362 L 379.213,942.362 L 379.213,952.441 L 369.134,952.441 L 359.055,952.441 L 348.976,962.52 L 338.898,962.52 L 328.819,972.598 L 318.74,972.598 L 308.661,982.677 L 298.583,982.677 L 288.504,982.677 L 278.425,972.598 L 268.346,972.598 L 258.268,982.677 L 258.268,992.756 L 248.189,992.756 L 238.11,992.756 L 228.031,992.756 L 217.953,1002.83 L 217.953,1012.91 L 217.953,1022.99 L 217.953,1033.07 L 207.874,1033.07 L 197.795,1043.15 L 197.795,1053.23 L 197.795,1063.31 L 187.717,1063.31 L 177.638,1063.31 L 167.559,1073.39 L 177.638,1083.46 L 177.638,1093.54 L 177.638,1103.62 L 177.638,1113.7 L 187.717,1123.78 L 197.795,1133.86 L 197.795,1143.94 L 207.874,1154.02 L 217.953,1154.02 L 228.031,1164.09 L 238.11,1164.09 L 248.189,1174.17 L 258.268,1174.17 L 268.346,1174.17 L 278.425,1174.17 L 288.504,1174.17 L 298.583,1184.25 L 308.661,1184.25 L 318.74,1174.17 L 328.819,1174.17 L 338.898,1174.17 L 348.976,1174.17 L 359.055,1174.17 L 369.134,1174.17 L 379.213,1174.17 L 389.291,1164.09 L 379.213,1154.02 L 389.291,1154.02 L 399.37,1164.09 L 409.449,1164.09 L 409.449,1174.17 L 399.37,1184.25 L 409.449,1194.33 L 409.449,1204.41 L 399.37,1214.49 L 389.291,1214.49 L 379.213,1204.41 L 369.134,1204.41 L 359.055,1204.41 L 348.976,1204.41 L 338.898,1204.41 L 328.819,1204.41 L 318.74,1194.33 L 308.661,1184.25 L 298.583,1194.33 L 288.504,1194.33 L 278.425,1204.41 L 268.346,1204.41 L 258.268,1204.41 L 248.189,1204.41 L 238.11,1204.41 L 228.031,1204.41 L 217.953,1204.41 L 207.874,1204.41 L 197.795,1194.33 L 187.717,1194.33 L 187.717,1184.25 L 177.638,1174.17 L 167.559,1174.17 L 157.48,1174.17 L 147.402,1174.17 L 137.323,1164.09 L 127.244,1164.09 L 127.244,1154.02 L 117.165,1143.94 L 107.087,1143.94 L 97.0079,1133.86 L 86.9291,1133.86 L 76.8504,1123.78 L 76.8504,1113.7 L 86.9291,1113.7 L 97.0079,1113.7 L 107.087,1103.62 L 107.087,1093.54 L 107.087,1083.46 L 117.165,1083.46 L 127.244,1073.39 L 127.244,1063.31 L 127.244,1053.23 L 127.244,1043.15 L 117.165,1033.07 L 107.087,1033.07 L 107.087,1022.99 L 117.165,1022.99 L 127.244,1012.91 L 127.244,1002.83 L 127.244,992.756 L 137.323,992.756 L 147.402,982.677 L 147.402,972.598 L 147.402,962.52 L 157.48,962.52 L 167.559,952.441 L 177.638,952.441 L 187.717,942.362 L 187.717,932.283 L 187.717,922.205 L 187.717,912.126 L 177.638,902.047 L 177.638,891.969 L 187.717,891.969 L 197.795,881.89 z " style="fill-opacity:0.5;fill:rgb(253,0,0);stroke:rgb(253,0,0);stroke-width:2"/></g>
<g fill-rule="evenodd"><path d="M 399.37,1214.49 L 328.819,1204.41 L 308.661,1184.25 L 278.425,1204.41 L 207.874,1204.41 L 76.8504,1123.78 L 127.244,1073.39 L 127.244,1043.15 L 107.087,1022.99 L 127.244,1012.91 L 147.402,962.52 L 187.717,942.362 L 177.638,891.969 L 288.504,891.969 L 379.213,942.362 L 308.661,982.677 L 268.346,972.598 L 258.268,992.756 L 228.031,992.756 L 197.795,1063.31 L 167.559,1073.39 L 197.795,1143.94 L 248.189,1174.17 L 308.661,1184.25 L 379.213,1174.17 L 379.213,1154.02 L 409.449,1164.09 L 399.37,1214.49 z " style="fill-opacity:0.5;fill:rgb(51,51,153);stroke:rgb(0,0,0);stroke-width:5"/></g>
<g fill-rule="evenodd"><path d="M 731.969,912.126 L 742.047,912.126 L 752.126,922.205 L 762.205,922.205 L 772.283,932.283 L 762.205,942.362 L 752.126,942.362 L 742.047,952.441 L 742.047,962.52 L 752.126,972.598 L 762.205,972.598 L 762.205,982.677 L 772.283,992.756 L 782.362,992.756 L 792.441,1002.83 L 802.52,1002.83 L 812.598,1012.91 L 822.677,1022.99 L 822.677,1033.07 L 832.756,1043.15 L 842.835,1043.15 L 852.913,1053.23 L 862.992,1063.31 L 862.992,1073.39 L 862.992,1083.46 L 862.992,1093.54 L 873.071,1103.62 L 883.15,1113.7 L 893.228,1103.62 L 893.228,1093.54 L 903.307,1093.54 L 913.386,1083.46 L 913.386,1073.39 L 923.465,1083.46 L 933.543,1073.39 L 943.622,1073.39 L 953.701,1073.39 L 963.78,1073.39 L 963.78,1083.46 L 963.78,1093.54 L 963.78,1103.62 L 963.78,1113.7 L 963.78,1123.78 L 963.78,1133.86 L 963.78,1143.94 L 963.78,1154.02 L 963.78,1164.09 L 963.78,1174.17 L 963.78,1184.25 L 963.78,1194.33 L 963.78,1204.41 L 963.78,1214.49 L 963.78,1224.57 L 963.78,1234.65 L 963.78,1244.72 L 963.78,1254.8 L 963.78,1264.88 L 963.78,1274.96 L 963.78,1285.04 L 953.701,1285.04 L 943.622,1285.04 L 933.543,1285.04 L 923.465,1285.04 L 913.386,1285.04 L 903.307,1285.04 L 893.228,1285.04 L 883.15,1285.04 L 873.071,1285.04 L 862.992,1285.04 L 852.913,1285.04 L 842.835,1285.04 L 832.756,1285.04 L 822.677,1285.04 L 812.598,1285.04 L 802.52,1285.04 L 792.441,1285.04 L 782.362,1285.04 L 772.283,1285.04 L 762.205,1285.04 L 752.126,1285.04 L 742.047,1285.04 L 731.969,1285.04 L 721.89,1285.04 L 711.811,1285.04 L 701.732,1285.04 L 691.654,1285.04 L 681.575,1285.04 L 671.496,1285.04 L 661.417,1285.04 L 651.339,1285.04 L 641.26,1285.04 L 631.181,1285.04 L 621.102,1285.04 L 611.024,1285.04 L 600.945,1285.04 L 590.866,1285.04 L 580.787,1285.04 L 570.709,1285.04 L 560.63,1285.04 L 550.551,1285.04 L 540.472,1285.04 L 530.394,1285.04 L 520.315,1285.04 L 510.236,1285.04 L 500.157,1285.04 L 490.079,1285.04 L 480,1285.04 L 469.921,1285.04 L 459.843,1285.04 L 449.764,1285.04 L 439.685,1285.04 L 429.606,1285.04 L 419.528,1285.04 L 409.449,1285.04 L 399.37,1285.04 L 389.291,1285.04 L 379.213,1285.04 L 369.134,1285.04 L 359.055,1285.04 L 348.976,1285.04 L 338.898,1285.04 L 328.819,1285.04 L 318.74,1285.04 L 308.661,1285.04 L 298.583,1285.04 L 288.504,1285.04 L 278.425,1285.04 L 268.346,1285.04 L 258.268,1285.04 L 248.189,1285.04 L 238.11,1285.04 L 228.031,1285.04 L 217.953,1285.04 L 207.874,1285.04 L 197.795,1285.04 L 187.717,1285.04 L 177.638,1285.04 L 167.559,1285.04 L 157.48,1285.04 L 147.402,1285.04 L 137.323,1285.04 L 127.244,1285.04 L 117.165,1285.04 L 107.087,1285.04 L 97.0079,1285.04 L 86.9291,1285.04 L 76.8504,1285.04 L 66.7717,1285.04 L 56.6929,1285.04 L 46.6142,1285.04 L 36.5354,1285.04 L 26.4567,1285.04 L 16.378,1285.04 L 6.29921,1285.04 L 6.29921,1274.96 L 16.378,1274.96 L 26.4567,1274.96 L 36.5354,1274.96 L 46.6142,1274.96 L 56.6929,1285.04 L 66.7717,1285.04 L 76.8504,1285.04 L 86.9291,1285.04 L 97.0079,1285.04 L 107.087,1285.04 L 117.165,1285.04 L 127.244,1285.04 L 137.323,1285.04 L 147.402,1285.04 L 157.48,1285.04 L 167.559,1285.04 L 177.638,1285.04 L 187.717,1285.04 L 197.795,1285.04 L 207.874,1285.04 L 217.953,1285.04 L 228.031,1285.04 L 238.11,1285.04 L 248.189,1285.04 L 258.268,1285.04 L 268.346,1285.04 L 278.425,1285.04 L 288.504,1285.04 L 298.583,1285.04 L 308.661,1285.04 L 318.74,1285.04 L 328.819,1285.04 L 338.898,1285.04 L 348.976,1285.04 L 359.055,1285.04 L 369.134,1285.04 L 379.213,1285.04 L 389.291,1285.04 L 399.37,1285.04 L 409.449,1274.96 L 419.528,1264.88 L 429.606,1254.8 L 419.528,1244.72 L 409.449,1244.72 L 409.449,1234.65 L 419.528,1224.57 L 429.606,1214.49 L 439.685,1214.49 L 449.764,1224.57 L 459.843,1224.57 L 469.921,1234.65 L 480,1234.65 L 480,1244.72 L 469.921,1244.72 L 459.843,1254.8 L 449.764,1254.8 L 439.685,1264.88 L 439.685,1274.96 L 449.764,1285.04 L 459.843,1285.04 L 469.921,1285.04 L 480,1285.04 L 490.079,1285.04 L 500.157,1285.04 L 510.236,1285.04 L 520.315,1285.04 L 530.394,1285.04 L 540.472,1285.04 L 550.551,1285.04 L 560.63,1285.04 L 570.709,1285.04 L 580.787,1285.04 L 590.866,1285.04 L 600.945,1285.04 L 611.024,1285.04 L 621.102,1285.04 L 631.181,1285.04 L 641.26,1285.04 L 651.339,1285.04 L 661.417,1285.04 L 671.496,1285.04 L 681.575,1285.04 L 691.654,1285.04 L 701.732,1285.04 L 711.811,1285.04 L 721.89,1285.04 L 731.969,1285.04 L 742.047,1285.04 L 752.126,1285.04 L 762.205,1285.04 L 772.283,1285.04 L 782.362,1285.04 L 792.441,1285.04 L 802.52,1285.04 L 812.598,1274.96 L 812.598,1264.88 L 812.598,1254.8 L 822.677,1254.8 L 832.756,1244.72 L 832.756,1234.65 L 832.756,1224.57 L 842.835,1224.57 L 852.913,1214.49 L 852.913,1204.41 L 852.913,1194.33 L 852.913,1184.25 L 842.835,1174.17 L 832.756,1174.17 L 832.756,1164.09 L 842.835,1164.09 L 852.913,1154.02 L 862.992,1154.02 L 873.071,1143.94 L 873.071,1133.86 L 862.992,1123.78 L 852.913,1123.78 L 852.913,1113.7 L 852.913,1103.62 L 842.835,1093.54 L 832.756,1093.54 L 832.756,1083.46 L 832.756,1073.39 L 832.756,1063.31 L 832.756,1053.23 L 822.677,1043.15 L 812.598,1043.15 L 802.52,1033.07 L 792.441,1033.07 L 792.441,1022.99 L 792.441,1012.91 L 782.362,1002.83 L 772.283,1002.83 L 762.205,1002.83 L 752.126,1002.83 L 742.047,1002.83 L 731.969,1002.83 L 721.89,1002.83 L 711.811,1002.83 L 701.732,1002.83 L 691.654,1002.83 L 681.575,992.756 L 671.496,992.756 L 661.417,992.756 L 651.339,992.756 L 641.26,992.756 L 631.181,992.756 L 621.102,982.677 L 611.024,982.677 L 600.945,982.677 L 590.866,982.677 L 580.787,992.756 L 570.709,992.756 L 560.63,1002.83 L 560.63,1012.91 L 560.63,1022.99 L 550.551,1022.99 L 540.472,1033.07 L 540.472,1043.15 L 540.472,1053.23 L 530.394,1053.23 L 520.315,1063.31 L 510.236,1063.31 L 500.157,1063.31 L 490.079,1063.31 L 480,1063.31 L 469.921,1063.31 L 459.843,1073.39 L 449.764,1073.39 L 439.685,1083.46 L 439.685,1093.54 L 449.764,1103.62 L 459.843,1103.62 L 459.843,1113.7 L 459.843,1123.78 L 469.921,1133.86 L 480,1133.86 L 480,1143.94 L 469.921,1143.94 L 459.843,1154.02 L 449.764,1154.02 L 439.685,1154.02 L 429.606,1154.02 L 419.528,1143.94 L 419.528,1133.86 L 429.606,1123.78 L 429.606,1113.7 L 419.528,1103.62 L 409.449,1103.62 L 409.449,1093.54 L 419.528,1083.46 L 429.606,1073.39 L 439.685,1073.39 L 449.764,1063.31 L 439.685,1053.23 L 429.606,1053.23 L 419.528,1043.15 L 409.449,1043.15 L 419.528,1033.07 L 429.606,1033.07 L 439.685,1022.99 L 449.764,1022.99 L 459.843,1012.91 L 469.921,1012.91 L 480,1002.83 L 490.079,1002.83 L 500.157,1012.91 L 510.236,1012.91 L 520.315,1012.91 L 530.394,1012.91 L 540.472,1002.83 L 550.551,992.756 L 560.63,992.756 L 570.709,982.677 L 580.787,982.677 L 590.866,972.598 L 600.945,972.598 L 611.024,972.598 L 621.102,972.598 L 631.181,982.677 L 641.26,982.677 L 651.339,982.677 L 661.417,982.677 L 671.496,972.598 L 671.496,962.52 L 681.575,962.52 L 691.654,952.441 L 691.654,942.362 L 691.654,932.283 L 701.732,932.283 L 711.811,922.205 L 721.89,922.205 L 731.969,912.126 z " style="fill-opacity:0.5;fill:rgb(253,0,0);stroke:rgb(253,0,0);stroke-width:2"/></g>
<g fill-rule="evenodd"><path d="M 6.29921,1285.04 L 399.37,1285.04 L 429.606,1254.8 L 409.449,1244.72 L 429.606,1214.49 L 480,1234.65 L 439.685,1264.88 L 449.764,1285.04 L 802.52,1285.04 L 832.756,1224.57 L 852.913,1214.49 L 852.913,1184.25 L 832.756,1164.09 L 873.071,1133.86 L 832.756,1093.54 L 832.756,1053.23 L 792.441,1033.07 L 782.362,1002.83 L 590.866,982.677 L 560.63,1002.83 L 540.472,1053.23 L 469.921,1063.31 L 439.685,1083.46 L 480,1143.94 L 429.606,1154.02 L 429.606,1113.7 L 409.449,1103.62 L 449.764,1063.31 L 409.449,1043.15 L 419.528,1033.07 L 480,1002.83 L 530.394,1012.91 L 590.866,972.598 L 661.417,982.677 L 691.654,952.441 L 691.654,932.283 L 731.969,912.126 L 772.283,932.283 L 742.047,962.52 L 862.992,1063.31 L 862.992,1093.54 L 883.15,1113.7 L 913.386,1073.39 L 963.78,1073.39 L 963.78,1285.04 L 6.29921,1285.04 z " style="fill-opacity:0.5;fill:rgb(51,51,153);stroke:rgb(0,0,0);stroke-width:5"/></g>
<g fill-rule="evenodd"><path d="M 6.29921,962.52 L 16.378,962.52 L 16.378,972.598 L 6.29921,972.598 L 6.29921,962.52 z " style="fill-opacity:0.5;fill:rgb(253,0,0);stroke:rgb(253,0,0);stroke-width:2"/></g>
<g fill-rule="evenodd"><path d=" z " style="fill-opacity:0.5;fill:rgb(51,51,153);stroke:rgb(0,0,0);stroke-width:5"/></g>
<g fill-rule="evenodd"><path d="M 409.449,962.52 L 419.528,962.52 L 429.606,972.598 L 439.685,972.598 L 449.764,982.677 L 459.843,982.677 L 459.843,992.756 L 449.764,992.756 L 439.685,992.756 L 429.606,1002.83 L 419.528,1002.83 L 409.449,1012.91 L 399.37,1012.91 L 389.291,1022.99 L 379.213,1022.99 L 369.134,1022.99 L 359.055,1012.91 L 348.976,1012.91 L 338.898,1002.83 L 348.976,992.756 L 359.055,992.756 L 369.134,982.677 L 379.213,982.677 L 389.291,972.598 L 399.37,972.598 L 409.449,962.52 z " style="fill-opacity:0.5;fill:rgb(253,0,0);stroke:rgb(253,0,0);stroke-width:2"/></g>
<g fill-rule="evenodd"><path d="M 338.898,1002.83 L 409.449,962.52 L 459.843,982.677 L 389.291,1022.99 L 338.898,1002.83 z " style="fill-opacity:0.5;fill:rgb(51,51,153);stroke:rgb(0,0,0);stroke-width:5"/></g>
<g fill-rule="evenodd"><path d="M 6.29921,1154.02 L 16.378,1154.02 L 26.4567,1164.09 L 36.5354,1174.17 L 36.5354,1184.25 L 26.4567,1184.25 L 16.378,1184.25 L 6.29921,1184.25 L 6.29921,1174.17 L 6.29921,1164.09 L 6.29921,1154.02 z " style="fill-opacity:0.5;fill:rgb(253,0,0);stroke:rgb(253,0,0);stroke-width:2"/></g>
<g fill-rule="evenodd"><path d="M 36.5354,1184.25 L 6.29921,1184.25 L 6.29921,1154.02 L 36.5354,1184.25 z " style="fill-opacity:0.5;fill:rgb(51,51,153);stroke:rgb(0,0,0);stroke-width:5"/></g>
</svg>
