<?xml version="1.0" standalone="no"?>
<!DOCTYPE svg PUBLIC "-//W3C//DTD SVG 1.1//EN"
"http://www.w3.org/Graphics/SVG/1.1/DTD/svg11.dtd">
<svg width="100%" height="100%" version="1.1"
xmlns="http://www.w3.org/2000/svg"
xmlns:xlink="http://www.w3.org/1999/xlink">
<g fill-rule="evenodd"><path d="M 5.66929,4.53543 L 14.7402,4.53543 L 23.811,4.53543 L 32.8819,4.53543 L 41.9528,4.53543 L 51.0236,4.53543 L 60.0945,4.53543 L 69.1654,4.53543 L 78.2362,4.53543 L 87.3071,4.53543 L 96.378,4.53543 L 105.449,4.53543 L 114.52,4.53543 L 123.591,4.53543 L 123.591,13.6063 L 132.661,22.6772 L 141.732,22.6772 L 141.732,31.748 L 132.661,31.748 L 123.591,40.8189 L 123.591,49.8898 L 123.591,58.9606 L 123.591,68.0315 L 123.591,77.1024 L 114.52,77.1024 L 105.449,86.1732 L 105.449,95.2441 L 105.449,104.315 L 105.449,113.386 L 114.52,122.457 L 123.591,122.457 L 123.591,131.528 L 123.591,140.598 L 132.661,149.669 L 141.732,149.669 L 141.732,158.74 L 132.661,158.74 L 123.591,167.811 L 123.591,176.882 L 123.591,185.953 L 123.591,195.024 L 132.661,204.094 L 141.732,204.094 L 150.803,213.165 L 159.874,213.165 L 159.874,222.236 L 159.874,231.307 L 168.945,240.378 L 178.016,240.378 L 187.087,240.378 L 196.157,240.378 L 205.228,240.378 L 214.299,240.378 L 223.37,249.449 L 232.441,249.449 L 241.512,258.52 L 250.583,258.52 L 259.654,267.591 L 268.724,267.591 L 277.795,267.591 L 286.866,258.52 L 295.937,258.52 L 305.008,258.52 L 314.079,258.52 L 323.15,258.52 L 332.22,267.591 L 341.291,267.591 L 350.362,267.591 L 359.433,267.591 L 368.504,258.52 L 368.504,249.449 L 368.504,240.378 L 377.575,240.378 L 386.646,231.307 L 386.646,222.236 L 386.646,213.165 L 395.717,213.165 L 404.787,204.094 L 413.858,204.094 L 422.929,204.094 L 432,204.094 L 441.071,204.094 L 450.142,204.094 L 459.213,195.024 L 468.283,195.024 L 477.354,185.953 L 477.354,176.882 L 468.283,167.811 L 459.213,167.811 L 459.213,158.74 L 459.213,149.669 L 450.142,140.598 L 441.071,140.598 L 441.071,131.528 L 450.142,131.528 L 459.213,122.457 L 468.283,122.457 L 477.354,113.386 L 486.425,113.386 L 495.496,122.457 L 504.567,131.528 L 504.567,140.598 L 495.496,140.598 L 486.425,140.598 L 477.354,149.669 L 486.425,158.74 L 486.425,167.811 L 495.496,176.882 L 504.567,185.953 L 504.567,195.024 L 495.496,195.024 L 486.425,204.094 L 486.425,213.165 L 495.496,222.236 L 504.567,222.236 L 504.567,231.307 L 495.496,231.307 L 486.425,231.307 L 477.354,240.378 L 468.283,240.378 L 459.213,249.449 L 450.142,249.449 L 441.071,258.52 L 432,258.52 L 422.929,258.52 L 413.858,249.449 L 404.787,249.449 L 395.717,258.52 L 395.717,267.591 L 386.646,267.591 L 377.575,276.661 L 368.504,276.661 L 359.433,285.732 L 350.362,285.732 L 341.291,294.803 L 332.22,294.803 L 332.22,285.732 L 323.15,276.661 L 314.079,276.661 L 305.008,276.661 L 295.937,285.732 L 286.866,294.803 L 286.866,303.874 L 277.795,303.874 L 268.724,303.874 L 259.654,303.874 L 250.583,312.945 L 250.583,322.016 L 241.512,322.016 L 232.441,331.087 L 223.37,331.087 L 214.299,340.157 L 205.228,340.157 L 196.157,340.157 L 187.087,331.087 L 178.016,331.087 L 168.945,331.087 L 168.945,322.016 L 178.016,322.016 L 187.087,312.945 L 187.087,303.874 L 187.087,294.803 L 187.087,285.732 L 178.016,276.661 L 168.945,276.661 L 168.945,267.591 L 168.945,258.52 L 159.874,249.449 L 150.803,249.449 L 141.732,240.378 L 132.661,240.378 L 132.661,231.307 L 132.661,222.236 L 123.591,213.165 L 114.52,213.165 L 105.449,204.094 L 96.378,204.094 L 96.378,195.024 L 96.378,185.953 L 87.3071,176.882 L 78.2362,176.882 L 69.1654,176.882 L 60.0945,176.882 L 51.0236,176.882 L 41.9528,176.882 L 32.8819,176.882 L 23.811,176.882 L 14.7402,185.953 L 5.66929,185.953 L 5.66929,176.882 L 5.66929,167.811 L 5.66929,158.74 L 5.66929,149.669 L 5.66929,140.598 L 5.66929,131.528 L 5.66929,122.457 L 5.66929,113.386 L 5.66929,104.315 L 5.66929,95.2441 L 5.66929,86.1732 L 5.66929,77.1024 L 5.66929,68.0315 L 5.66929,58.9606 L 5.66929,49.8898 L 5.66929,40.8189 L 5.66929,31.748 L 5.66929,22.6772 L 5.66929,13.6063 L 5.66929,4.53543 z " style="fill-opacity:0.5;fill:rgb(253,0,0);stroke:rgb(253,0,0);stroke-width:2"/></g>
<g fill-rule="evenodd"><path d="M 504.567,231.307 L 486.425,213.165 L 504.567,185.953 L 477.354,149.669 L 504.567,131.528 L 477.354,113.386 L 441.071,131.528 L 477.354,185.953 L 450.142,204.094 L 386.646,213.165 L 359.433,267.591 L 259.654,267.591 L 214.299,240.378 L 168.945,240.378 L 159.874,213.165 L 123.591,195.024 L 123.591,167.811 L 141.732,149.669 L 105.449,113.386 L 105.449,86.1732 L 123.591,77.1024 L 123.591,40.8189 L 141.732,22.6772 L 123.591,4.53543 L 5.66929,4.53543 L 5.66929,185.953 L 87.3071,176.882 L 96.378,204.094 L 123.591,213.165 L 132.661,240.378 L 159.874,249.449 L 168.945,276.661 L 187.087,285.732 L 187.087,312.945 L 168.945,331.087 L 214.299,340.157 L 259.654,303.874 L 286.866,303.874 L 305.008,276.661 L 341.291,294.803 L 395.717,267.591 L 404.787,249.449 L 441.071,258.52 L 504.567,231.307 z " style="fill-opacity:0.5;fill:rgb(0,253,0);stroke:rgb(0,0,0);stroke-width:5"/></g>
<g fill-rule="evenodd"><path d="M 477.354,4.53543 L 486.425,4.53543 L 495.496,4.53543 L 504.567,4.53543 L 513.638,4.53543 L 522.709,4.53543 L 513.638,4.53543 L 504.567,13.6063 L 504.567,22.6772 L 504.567,31.748 L 495.496,40.8189 L 495.496,49.8898 L 486.425,58.9606 L 477.354,58.9606 L 468.283,58.9606 L 459.213,58.9606 L 450.142,49.8898 L 441.071,49.8898 L 441.071,40.8189 L 450.142,40.8189 L 459.213,31.748 L 468.283,31.748 L 477.354,22.6772 L 477.354,13.6063 L 477.354,4.53543 z " style="fill-opacity:0.5;fill:rgb(253,0,0);stroke:rgb(253,0,0);stroke-width:2"/></g>
<g fill-rule="evenodd"><path d="M 441.071,49.8898 L 486.425,58.9606 L 504.567,13.6063 L 522.709,4.53543 L 477.354,4.53543 L 477.354,22.6772 L 441.071,49.8898 z " style="fill-opacity:0.5;fill:rgb(0,253,0);stroke:rgb(0,0,0);stroke-width:5"/></g>
<g fill-rule="evenodd"><path d="M 522.709,58.9606 L 531.78,58.9606 L 522.709,68.0315 L 522.709,77.1024 L 531.78,86.1732 L 540.85,86.1732 L 549.921,86.1732 L 558.992,86.1732 L 568.063,86.1732 L 577.134,86.1732 L 586.205,95.2441 L 595.276,104.315 L 604.346,104.315 L 613.417,95.2441 L 622.488,86.1732 L 631.559,86.1732 L 640.63,86.1732 L 649.701,86.1732 L 658.772,86.1732 L 667.843,86.1732 L 676.913,86.1732 L 685.984,86.1732 L 695.055,95.2441 L 704.126,104.315 L 713.197,113.386 L 722.268,113.386 L 731.339,113.386 L 740.409,113.386 L 749.48,122.457 L 758.551,131.528 L 767.622,140.598 L 776.693,131.528 L 785.764,131.528 L 794.835,140.598 L 803.906,140.598 L 803.906,149.669 L 794.835,158.74 L 785.764,158.74 L 776.693,167.811 L 776.693,176.882 L 776.693,185.953 L 767.622,185.953 L 758.551,195.024 L 758.551,204.094 L 758.551,213.165 L 758.551,222.236 L 758.551,231.307 L 758.551,240.378 L 758.551,249.449 L 758.551,258.52 L 758.551,267.591 L 758.551,276.661 L 758.551,285.732 L 749.48,285.732 L 740.409,294.803 L 731.339,294.803 L 722.268,303.874 L 713.197,303.874 L 704.126,312.945 L 704.126,322.016 L 713.197,331.087 L 722.268,331.087 L 722.268,340.157 L 713.197,340.157 L 704.126,349.228 L 713.197,358.299 L 713.197,367.37 L 704.126,376.441 L 695.055,376.441 L 685.984,367.37 L 676.913,367.37 L 667.843,367.37 L 658.772,367.37 L 649.701,376.441 L 640.63,376.441 L 631.559,376.441 L 622.488,376.441 L 613.417,376.441 L 604.346,376.441 L 595.276,376.441 L 586.205,376.441 L 586.205,367.37 L 586.205,358.299 L 586.205,349.228 L 595.276,340.157 L 586.205,331.087 L 577.134,331.087 L 568.063,331.087 L 558.992,322.016 L 549.921,322.016 L 540.85,312.945 L 549.921,303.874 L 558.992,303.874 L 568.063,294.803 L 577.134,294.803 L 586.205,285.732 L 595.276,285.732 L 604.346,276.661 L 613.417,276.661 L 622.488,285.732 L 631.559,285.732 L 640.63,285.732 L 649.701,276.661 L 658.772,276.661 L 667.843,276.661 L 676.913,267.591 L 676.913,258.52 L 676.913,249.449 L 685.984,240.378 L 695.055,231.307 L 695.055,222.236 L 704.126,213.165 L 713.197,204.094 L 713.197,195.024 L 713.197,185.953 L 713.197,176.882 L 722.268,167.811 L 713.197,158.74 L 704.126,158.74 L 695.055,158.74 L 695.055,149.669 L 695.055,140.598 L 685.984,131.528 L 676.913,131.528 L 667.843,122.457 L 658.772,122.457 L 649.701,113.386 L 640.63,113.386 L 631.559,113.386 L 622.488,113.386 L 613.417,113.386 L 604.346,113.386 L 595.276,113.386 L 586.205,113.386 L 577.134,113.386 L 568.063,113.386 L 558.992,113.386 L 549.921,113.386 L 540.85,113.386 L 531.78,113.386 L 522.709,113.386 L 513.638,113.386 L 504.567,104.315 L 504.567,95.2441 L 513.638,86.1732 L 504.567,77.1024 L 504.567,68.0315 L 513.638,68.0315 L 522.709,58.9606 z " style="fill-opacity:0.5;fill:rgb(253,0,0);stroke:rgb(253,0,0);stroke-width:2"/></g>
<g fill-rule="evenodd"><path d="M 704.126,376.441 L 704.126,349.228 L 722.268,340.157 L 704.126,312.945 L 758.551,285.732 L 758.551,195.024 L 803.906,140.598 L 767.622,140.598 L 685.984,86.1732 L 622.488,86.1732 L 595.276,104.315 L 577.134,86.1732 L 531.78,86.1732 L 531.78,58.9606 L 504.567,68.0315 L 513.638,113.386 L 649.701,113.386 L 722.268,167.811 L 667.843,276.661 L 604.346,276.661 L 540.85,312.945 L 595.276,340.157 L 586.205,376.441 L 704.126,376.441 z " style="fill-opacity:0.5;fill:rgb(0,253,0);stroke:rgb(0,0,0);stroke-width:5"/></g>
<g fill-rule="evenodd"><path d="M 840.189,86.1732 L 849.26,95.2441 L 858.331,104.315 L 867.402,104.315 L 867.402,113.386 L 858.331,113.386 L 849.26,104.315 L 849.26,95.2441 L 840.189,86.1732 z " style="fill-opacity:0.5;fill:rgb(253,0,0);stroke:rgb(253,0,0);stroke-width:2"/></g>
<g fill-rule="evenodd"><path d=" z " style="fill-opacity:0.5;fill:rgb(0,253,0);stroke:rgb(0,0,0);stroke-width:5"/></g>
<g fill-rule="evenodd"><path d="M 531.78,240.378 L 540.85,240.378 L 549.921,249.449 L 558.992,249.449 L 568.063,258.52 L 577.134,258.52 L 577.134,267.591 L 568.063,267.591 L 558.992,267.591 L 549.921,276.661 L 540.85,276.661 L 531.78,285.732 L 522.709,285.732 L 513.638,294.803 L 504.567,294.803 L 495.496,294.803 L 486.425,285.732 L 477.354,285.732 L 468.283,276.661 L 477.354,267.591 L 486.425,267.591 L 495.496,258.52 L 504.567,258.52 L 513.638,249.449 L 522.709,249.449 L 531.78,240.378 z " style="fill-opacity:0.5;fill:rgb(253,0,0);stroke:rgb(253,0,0);stroke-width:2"/></g>
<g fill-rule="evenodd"><path d="M 468.283,276.661 L 513.638,294.803 L 577.134,258.52 L 531.78,240.378 L 468.283,276.661 z " style="fill-opacity:0.5;fill:rgb(0,253,0);stroke:rgb(0,0,0);stroke-width:5"/></g>
<g fill-rule="evenodd"><path d="M 858.331,312.945 L 867.402,312.945 L 867.402,322.016 L 858.331,322.016 L 858.331,312.945 z " style="fill-opacity:0.5;fill:rgb(253,0,0);stroke:rgb(253,0,0);stroke-width:2"/></g>
<g fill-rule="evenodd"><path d=" z " style="fill-opacity:0.5;fill:rgb(0,253,0);stroke:rgb(0,0,0);stroke-width:5"/></g>
<g fill-rule="evenodd"><path d="M 23.811,340.157 L 32.8819,340.157 L 41.9528,340.157 L 51.0236,340.157 L 60.0945,349.228 L 69.1654,349.228 L 78.2362,349.228 L 87.3071,349.228 L 96.378,349.228 L 105.449,349.228 L 114.52,340.157 L 123.591,340.157 L 132.661,340.157 L 141.732,340.157 L 150.803,349.228 L 159.874,349.228 L 168.945,358.299 L 159.874,367.37 L 150.803,367.37 L 141.732,376.441 L 132.661,376.441 L 123.591,385.512 L 132.661,394.583 L 141.732,394.583 L 141.732,403.654 L 150.803,412.724 L 159.874,412.724 L 168.945,403.654 L 168.945,412.724 L 159.874,421.795 L 150.803,421.795 L 141.732,421.795 L 132.661,421.795 L 123.591,412.724 L 114.52,412.724 L 105.449,403.654 L 96.378,403.654 L 87.3071,403.654 L 78.2362,403.654 L 69.1654,403.654 L 60.0945,403.654 L 51.0236,394.583 L 41.9528,394.583 L 32.8819,394.583 L 23.811,394.583 L 14.7402,403.654 L 23.811,412.724 L 32.8819,412.724 L 32.8819,421.795 L 23.811,421.795 L 14.7402,430.866 L 5.66929,430.866 L 5.66929,421.795 L 14.7402,421.795 L 23.811,412.724 L 14.7402,403.654 L 5.66929,403.654 L 5.66929,394.583 L 5.66929,385.512 L 5.66929,376.441 L 5.66929,367.37 L 5.66929,358.299 L 5.66929,349.228 L 14.7402,349.228 L 23.811,340.157 z " style="fill-opacity:0.5;fill:rgb(253,0,0);stroke:rgb(253,0,0);stroke-width:2"/></g>
<g fill-rule="evenodd"><path d="M 168.945,412.724 L 150.803,412.724 L 123.591,385.512 L 168.945,358.299 L 141.732,340.157 L 5.66929,349.228 L 5.66929,403.654 L 23.811,412.724 L 5.66929,430.866 L 32.8819,421.795 L 14.7402,403.654 L 23.811,394.583 L 105.449,403.654 L 132.661,421.795 L 168.945,412.724 z " style="fill-opacity:0.5;fill:rgb(0,253,0);stroke:rgb(0,0,0);stroke-width:5"/></g>
<g fill-rule="evenodd"><path d="M 196.157,421.795 L 205.228,421.795 L 196.157,430.866 L 196.157,439.937 L 205.228,449.008 L 214.299,458.079 L 214.299,467.15 L 214.299,476.22 L 214.299,485.291 L 223.37,494.362 L 232.441,503.433 L 232.441,512.504 L 223.37,512.504 L 214.299,521.575 L 214.299,530.646 L 214.299,539.717 L 205.228,539.717 L 196.157,548.787 L 205.228,557.858 L 214.299,557.858 L 214.299,566.929 L 205.228,566.929 L 196.157,576 L 187.087,576 L 178.016,576 L 168.945,576 L 159.874,585.071 L 168.945,594.142 L 178.016,594.142 L 187.087,594.142 L 196.157,594.142 L 205.228,603.213 L 214.299,603.213 L 214.299,612.283 L 205.228,612.283 L 196.157,612.283 L 187.087,621.354 L 178.016,621.354 L 168.945,630.425 L 159.874,630.425 L 150.803,639.496 L 141.732,639.496 L 132.661,639.496 L 123.591,630.425 L 114.52,630.425 L 105.449,639.496 L 96.378,639.496 L 96.378,630.425 L 87.3071,621.354 L 78.2362,621.354 L 69.1654,612.283 L 69.1654,603.213 L 78.2362,594.142 L 87.3071,594.142 L 96.378,603.213 L 105.449,603.213 L 114.52,603.213 L 123.591,603.213 L 132.661,594.142 L 132.661,585.071 L 132.661,576 L 132.661,566.929 L 132.661,557.858 L 141.732,557.858 L 150.803,548.787 L 159.874,548.787 L 168.945,539.717 L 178.016,530.646 L 187.087,521.575 L 187.087,512.504 L 196.157,512.504 L 205.228,503.433 L 205.228,494.362 L 196.157,485.291 L 187.087,485.291 L 187.087,476.22 L 187.087,467.15 L 187.087,458.079 L 187.087,449.008 L 178.016,439.937 L 178.016,430.866 L 187.087,430.866 L 196.157,421.795 z " style="fill-opacity:0.5;fill:rgb(253,0,0);stroke:rgb(253,0,0);stroke-width:2"/></g>
<g fill-rule="evenodd"><path d="M 96.378,639.496 L 150.803,639.496 L 214.299,612.283 L 159.874,585.071 L 214.299,566.929 L 196.157,548.787 L 232.441,512.504 L 196.157,439.937 L 205.228,421.795 L 178.016,430.866 L 187.087,485.291 L 205.228,503.433 L 132.661,557.858 L 123.591,603.213 L 69.1654,603.213 L 96.378,639.496 z " style="fill-opacity:0.5;fill:rgb(0,253,0);stroke:rgb(0,0,0);stroke-width:5"/></g>
<g fill-rule="evenodd"><path d="M 613.417,439.937 L 622.488,439.937 L 631.559,449.008 L 631.559,458.079 L 640.63,467.15 L 649.701,476.22 L 658.772,476.22 L 667.843,476.22 L 667.843,485.291 L 667.843,494.362 L 667.843,503.433 L 676.913,512.504 L 685.984,521.575 L 676.913,521.575 L 667.843,521.575 L 658.772,530.646 L 649.701,530.646 L 640.63,539.717 L 631.559,539.717 L 622.488,548.787 L 613.417,548.787 L 604.346,548.787 L 595.276,548.787 L 586.205,548.787 L 577.134,548.787 L 568.063,539.717 L 558.992,539.717 L 549.921,530.646 L 540.85,530.646 L 531.78,521.575 L 522.709,521.575 L 513.638,521.575 L 513.638,512.504 L 522.709,512.504 L 531.78,503.433 L 540.85,503.433 L 549.921,494.362 L 558.992,485.291 L 568.063,485.291 L 577.134,485.291 L 586.205,476.22 L 586.205,467.15 L 595.276,467.15 L 604.346,458.079 L 604.346,449.008 L 613.417,439.937 z " style="fill-opacity:0.5;fill:rgb(253,0,0);stroke:rgb(253,0,0);stroke-width:2"/></g>
<g fill-rule="evenodd"><path d="M 513.638,521.575 L 577.134,548.787 L 622.488,548.787 L 685.984,521.575 L 667.843,503.433 L 667.843,476.22 L 649.701,476.22 L 622.488,439.937 L 513.638,521.575 z " style="fill-opacity:0.5;fill:rgb(0,253,0);stroke:rgb(0,0,0);stroke-width:5"/></g>
<g fill-rule="evenodd"><path d="M 858.331,439.937 L 867.402,439.937 L 867.402,449.008 L 867.402,458.079 L 867.402,467.15 L 867.402,476.22 L 867.402,485.291 L 858.331,485.291 L 858.331,476.22 L 849.26,467.15 L 840.189,467.15 L 840.189,458.079 L 849.26,449.008 L 858.331,439.937 z " style="fill-opacity:0.5;fill:rgb(253,0,0);stroke:rgb(253,0,0);stroke-width:2"/></g>
<g fill-rule="evenodd"><path d="M 867.402,485.291 L 858.331,439.937 L 840.189,467.15 L 867.402,485.291 z " style="fill-opacity:0.5;fill:rgb(0,253,0);stroke:rgb(0,0,0);stroke-width:5"/></g>
<g fill-rule="evenodd"><path d="M 831.118,503.433 L 840.189,512.504 L 849.26,512.504 L 858.331,521.575 L 867.402,521.575 L 867.402,530.646 L 858.331,530.646 L 849.26,521.575 L 840.189,521.575 L 831.118,512.504 L 831.118,503.433 z " style="fill-opacity:0.5;fill:rgb(253,0,0);stroke:rgb(253,0,0);stroke-width:2"/></g>
<g fill-rule="evenodd"><path d=" z " style="fill-opacity:0.5;fill:rgb(0,253,0);stroke:rgb(0,0,0);stroke-width:5"/></g>
<g fill-rule="evenodd"><path d="M 314.079,521.575 L 323.15,521.575 L 323.15,530.646 L 314.079,530.646 L 314.079,521.575 z " style="fill-opacity:0.5;fill:rgb(253,0,0);stroke:rgb(253,0,0);stroke-width:2"/></g>
<g fill-rule="evenodd"><path d=" z " style="fill-opacity:0.5;fill:rgb(0,253,0);stroke:rgb(0,0,0);stroke-width:5"/></g>
<g fill-rule="evenodd"><path d="M 794.835,521.575 L 803.906,521.575 L 812.976,530.646 L 822.047,530.646 L 822.047,539.717 L 812.976,548.787 L 812.976,557.858 L 803.906,557.858 L 794.835,566.929 L 794.835,576 L 785.764,576 L 776.693,585.071 L 767.622,585.071 L 758.551,594.142 L 749.48,594.142 L 740.409,603.213 L 731.339,603.213 L 722.268,612.283 L 713.197,612.283 L 704.126,621.354 L 704.126,630.425 L 704.126,639.496 L 695.055,639.496 L 685.984,648.567 L 676.913,648.567 L 667.843,657.638 L 667.843,666.709 L 667.843,675.78 L 667.843,684.85 L 676.913,693.921 L 685.984,693.921 L 685.984,702.992 L 695.055,712.063 L 695.055,721.134 L 685.984,730.205 L 676.913,730.205 L 667.843,721.134 L 658.772,721.134 L 658.772,712.063 L 658.772,702.992 L 649.701,693.921 L 640.63,693.921 L 640.63,684.85 L 640.63,675.78 L 640.63,666.709 L 649.701,657.638 L 640.63,648.567 L 640.63,639.496 L 649.701,639.496 L 658.772,630.425 L 667.843,630.425 L 676.913,621.354 L 676.913,612.283 L 685.984,603.213 L 676.913,594.142 L 676.913,585.071 L 667.843,576 L 676.913,566.929 L 685.984,566.929 L 695.055,557.858 L 704.126,557.858 L 713.197,548.787 L 722.268,548.787 L 731.339,539.717 L 740.409,539.717 L 749.48,548.787 L 758.551,548.787 L 767.622,557.858 L 776.693,557.858 L 785.764,548.787 L 794.835,548.787 L 803.906,539.717 L 803.906,530.646 L 794.835,521.575 z " style="fill-opacity:0.5;fill:rgb(253,0,0);stroke:rgb(253,0,0);stroke-width:2"/></g>
<g fill-rule="evenodd"><path d="M 658.772,721.134 L 695.055,721.134 L 667.843,684.85 L 667.843,657.638 L 704.126,639.496 L 713.197,612.283 L 794.835,576 L 822.047,530.646 L 794.835,521.575 L 803.906,539.717 L 776.693,557.858 L 731.339,539.717 L 667.843,576 L 685.984,603.213 L 667.843,630.425 L 640.63,639.496 L 640.63,693.921 L 658.772,702.992 L 658.772,721.134 z " style="fill-opacity:0.5;fill:rgb(0,253,0);stroke:rgb(0,0,0);stroke-width:5"/></g>
<g fill-rule="evenodd"><path d="M 459.213,539.717 L 468.283,539.717 L 477.354,548.787 L 486.425,548.787 L 495.496,557.858 L 504.567,557.858 L 513.638,566.929 L 522.709,566.929 L 531.78,576 L 522.709,585.071 L 513.638,585.071 L 504.567,594.142 L 495.496,594.142 L 486.425,594.142 L 477.354,585.071 L 468.283,585.071 L 459.213,576 L 450.142,576 L 441.071,566.929 L 432,566.929 L 422.929,566.929 L 422.929,557.858 L 432,557.858 L 441.071,548.787 L 450.142,548.787 L 459.213,539.717 z " style="fill-opacity:0.5;fill:rgb(253,0,0);stroke:rgb(253,0,0);stroke-width:2"/></g>
<g fill-rule="evenodd"><path d="M 531.78,576 L 468.283,539.717 L 422.929,557.858 L 486.425,594.142 L 531.78,576 z " style="fill-opacity:0.5;fill:rgb(0,253,0);stroke:rgb(0,0,0);stroke-width:5"/></g>
<g fill-rule="evenodd"><path d="M 187.087,566.929 L 196.157,566.929 L 205.228,557.858 L 196.157,548.787 L 187.087,548.787 L 178.016,557.858 L 187.087,566.929 z " style="fill-opacity:0.5;fill:rgb(253,0,0);stroke:rgb(253,0,0);stroke-width:2"/></g>
<g fill-rule="evenodd"><path d="M 187.087,566.929 L 205.228,557.858 L 187.087,548.787 L 187.087,566.929 z " style="fill-opacity:0.5;fill:rgb(0,253,0);stroke:rgb(0,0,0);stroke-width:5"/></g>
<g fill-rule="evenodd"><path d="M 368.504,585.071 L 377.575,585.071 L 386.646,594.142 L 395.717,594.142 L 404.787,603.213 L 413.858,603.213 L 422.929,612.283 L 432,612.283 L 441.071,621.354 L 432,630.425 L 422.929,630.425 L 413.858,639.496 L 404.787,639.496 L 395.717,639.496 L 386.646,630.425 L 377.575,630.425 L 368.504,621.354 L 359.433,621.354 L 350.362,612.283 L 341.291,612.283 L 332.22,612.283 L 332.22,603.213 L 341.291,603.213 L 350.362,594.142 L 359.433,594.142 L 368.504,585.071 z " style="fill-opacity:0.5;fill:rgb(253,0,0);stroke:rgb(253,0,0);stroke-width:2"/></g>
<g fill-rule="evenodd"><path d="M 441.071,621.354 L 377.575,585.071 L 332.22,603.213 L 395.717,639.496 L 441.071,621.354 z " style="fill-opacity:0.5;fill:rgb(0,253,0);stroke:rgb(0,0,0);stroke-width:5"/></g>
<g fill-rule="evenodd"><path d="M 5.66929,621.354 L 14.7402,621.354 L 23.811,630.425 L 32.8819,630.425 L 41.9528,621.354 L 51.0236,621.354 L 60.0945,630.425 L 69.1654,639.496 L 69.1654,648.567 L 60.0945,648.567 L 51.0236,648.567 L 41.9528,648.567 L 32.8819,648.567 L 23.811,648.567 L 14.7402,648.567 L 5.66929,657.638 L 14.7402,666.709 L 14.7402,675.78 L 5.66929,675.78 L 5.66929,666.709 L 5.66929,657.638 L 5.66929,648.567 L 5.66929,639.496 L 5.66929,630.425 L 5.66929,621.354 z " style="fill-opacity:0.5;fill:rgb(253,0,0);stroke:rgb(253,0,0);stroke-width:2"/></g>
<g fill-rule="evenodd"><path d="M 69.1654,648.567 L 51.0236,621.354 L 5.66929,621.354 L 5.66929,675.78 L 14.7402,648.567 L 69.1654,648.567 z " style="fill-opacity:0.5;fill:rgb(0,253,0);stroke:rgb(0,0,0);stroke-width:5"/></g>
<g fill-rule="evenodd"><path d="M 259.654,630.425 L 268.724,630.425 L 277.795,630.425 L 286.866,630.425 L 295.937,639.496 L 305.008,639.496 L 314.079,648.567 L 323.15,648.567 L 332.22,657.638 L 341.291,657.638 L 350.362,666.709 L 341.291,675.78 L 341.291,684.85 L 341.291,693.921 L 332.22,693.921 L 323.15,702.992 L 314.079,702.992 L 305.008,702.992 L 295.937,702.992 L 286.866,712.063 L 295.937,721.134 L 305.008,721.134 L 305.008,730.205 L 295.937,730.205 L 286.866,739.276 L 277.795,739.276 L 268.724,739.276 L 259.654,739.276 L 259.654,730.205 L 259.654,721.134 L 250.583,712.063 L 241.512,712.063 L 241.512,702.992 L 241.512,693.921 L 241.512,684.85 L 232.441,675.78 L 223.37,675.78 L 214.299,675.78 L 205.228,675.78 L 196.157,666.709 L 205.228,657.638 L 214.299,657.638 L 223.37,648.567 L 232.441,648.567 L 241.512,639.496 L 250.583,639.496 L 259.654,630.425 z " style="fill-opacity:0.5;fill:rgb(253,0,0);stroke:rgb(253,0,0);stroke-width:2"/></g>
<g fill-rule="evenodd"><path d="M 286.866,739.276 L 305.008,730.205 L 286.866,712.063 L 295.937,702.992 L 341.291,693.921 L 341.291,657.638 L 259.654,630.425 L 196.157,666.709 L 241.512,684.85 L 259.654,739.276 L 286.866,739.276 z " style="fill-opacity:0.5;fill:rgb(0,253,0);stroke:rgb(0,0,0);stroke-width:5"/></g>
<g fill-rule="evenodd"><path d="M 250.583,684.85 L 259.654,684.85 L 268.724,684.85 L 277.795,684.85 L 286.866,684.85 L 295.937,684.85 L 305.008,684.85 L 314.079,684.85 L 323.15,693.921 L 332.22,684.85 L 341.291,675.78 L 332.22,666.709 L 323.15,666.709 L 314.079,666.709 L 305.008,666.709 L 295.937,666.709 L 286.866,666.709 L 277.795,666.709 L 268.724,666.709 L 259.654,666.709 L 250.583,666.709 L 241.512,666.709 L 232.441,675.78 L 241.512,684.85 L 250.583,684.85 z " style="fill-opacity:0.5;fill:rgb(253,0,0);stroke:rgb(253,0,0);stroke-width:2"/></g>
<g fill-rule="evenodd"><path d="M 341.291,675.78 L 232.441,675.78 L 323.15,693.921 L 341.291,675.78 z " style="fill-opacity:0.5;fill:rgb(0,253,0);stroke:rgb(0,0,0);stroke-width:5"/></g>
<g fill-rule="evenodd"><path d="M 495.496,684.85 L 504.567,684.85 L 504.567,693.921 L 495.496,693.921 L 495.496,684.85 z " style="fill-opacity:0.5;fill:rgb(253,0,0);stroke:rgb(253,0,0);stroke-width:2"/></g>
<g fill-rule="evenodd"><path d=" z " style="fill-opacity:0.5;fill:rgb(0,253,0);stroke:rgb(0,0,0);stroke-width:5"/></g>
<g fill-rule="evenodd"><path d="M 5.66929,693.921 L 14.7402,693.921 L 14.7402,702.992 L 23.811,712.063 L 23.811,721.134 L 14.7402,730.205 L 5.66929,730.205 L 5.66929,721.134 L 14.7402,721.134 L 23.811,712.063 L 14.7402,702.992 L 5.66929,702.992 L 5.66929,693.921 z " style="fill-opacity:0.5;fill:rgb(253,0,0);stroke:rgb(253,0,0);stroke-width:2"/></g>
<g fill-rule="evenodd"><path d="M 14.7402,730.205 L 23.811,712.063 L 5.66929,693.921 L 23.811,712.063 L 5.66929,721.134 L 14.7402,730.205 z " style="fill-opacity:0.5;fill:rgb(0,253,0);stroke:rgb(0,0,0);stroke-width:5"/></g>
<g fill-rule="evenodd"><path d="M 713.197,730.205 L 722.268,730.205 L 731.339,739.276 L 740.409,739.276 L 749.48,748.346 L 758.551,748.346 L 767.622,757.417 L 776.693,757.417 L 785.764,757.417 L 794.835,757.417 L 803.906,748.346 L 812.976,748.346 L 822.047,748.346 L 831.118,748.346 L 840.189,748.346 L 849.26,757.417 L 858.331,748.346 L 858.331,739.276 L 867.402,739.276 L 867.402,748.346 L 867.402,757.417 L 867.402,766.488 L 867.402,775.559 L 867.402,784.63 L 867.402,793.701 L 867.402,802.772 L 867.402,811.843 L 858.331,811.843 L 849.26,820.913 L 840.189,820.913 L 831.118,820.913 L 822.047,820.913 L 812.976,811.843 L 803.906,811.843 L 794.835,811.843 L 785.764,811.843 L 776.693,811.843 L 767.622,811.843 L 758.551,811.843 L 749.48,811.843 L 740.409,820.913 L 731.339,820.913 L 722.268,820.913 L 713.197,811.843 L 704.126,811.843 L 695.055,811.843 L 695.055,802.772 L 704.126,802.772 L 713.197,793.701 L 722.268,793.701 L 731.339,784.63 L 731.339,775.559 L 731.339,766.488 L 722.268,757.417 L 713.197,757.417 L 704.126,757.417 L 695.055,757.417 L 695.055,748.346 L 704.126,739.276 L 713.197,730.205 z " style="fill-opacity:0.5;fill:rgb(253,0,0);stroke:rgb(253,0,0);stroke-width:2"/></g>
<g fill-rule="evenodd"><path d="M 867.402,811.843 L 867.402,739.276 L 849.26,757.417 L 767.622,757.417 L 722.268,730.205 L 695.055,748.346 L 731.339,766.488 L 731.339,784.63 L 695.055,811.843 L 867.402,811.843 z " style="fill-opacity:0.5;fill:rgb(0,253,0);stroke:rgb(0,0,0);stroke-width:5"/></g>
<g fill-rule="evenodd"><path d="M 178.016,793.701 L 187.087,793.701 L 178.016,802.772 L 187.087,811.843 L 196.157,811.843 L 205.228,802.772 L 214.299,802.772 L 223.37,802.772 L 232.441,802.772 L 241.512,802.772 L 250.583,802.772 L 259.654,802.772 L 268.724,811.843 L 277.795,820.913 L 286.866,820.913 L 295.937,820.913 L 305.008,829.984 L 314.079,839.055 L 323.15,839.055 L 332.22,848.126 L 341.291,848.126 L 341.291,857.197 L 332.22,857.197 L 323.15,857.197 L 314.079,866.268 L 305.008,866.268 L 295.937,875.339 L 286.866,875.339 L 277.795,884.409 L 268.724,884.409 L 259.654,884.409 L 250.583,875.339 L 241.512,875.339 L 232.441,884.409 L 232.441,893.48 L 223.37,893.48 L 214.299,893.48 L 205.228,893.48 L 196.157,902.551 L 196.157,911.622 L 196.157,920.693 L 196.157,929.764 L 187.087,929.764 L 178.016,938.835 L 178.016,947.906 L 178.016,956.976 L 168.945,956.976 L 159.874,956.976 L 150.803,966.047 L 159.874,975.118 L 159.874,984.189 L 159.874,993.26 L 159.874,1002.33 L 168.945,1011.4 L 178.016,1020.47 L 178.016,1029.54 L 187.087,1038.61 L 196.157,1038.61 L 205.228,1047.69 L 214.299,1047.69 L 223.37,1056.76 L 232.441,1056.76 L 241.512,1056.76 L 250.583,1056.76 L 259.654,1056.76 L 268.724,1065.83 L 277.795,1065.83 L 286.866,1056.76 L 295.937,1056.76 L 305.008,1056.76 L 314.079,1056.76 L 323.15,1056.76 L 332.22,1056.76 L 341.291,1056.76 L 350.362,1047.69 L 341.291,1038.61 L 350.362,1038.61 L 359.433,1047.69 L 368.504,1047.69 L 368.504,1056.76 L 359.433,1065.83 L 368.504,1074.9 L 368.504,1083.97 L 359.433,1093.04 L 350.362,1093.04 L 341.291,1083.97 L 332.22,1083.97 L 323.15,1083.97 L 314.079,1083.97 L 305.008,1083.97 L 295.937,1083.97 L 286.866,1074.9 L 277.795,1065.83 L 268.724,1074.9 L 259.654,1074.9 L 250.583,1083.97 L 241.512,1083.97 L 232.441,1083.97 L 223.37,1083.97 L 214.299,1083.97 L 205.228,1083.97 L 196.157,1083.97 L 187.087,1083.97 L 178.016,1074.9 L 168.945,1074.9 L 168.945,1065.83 L 159.874,1056.76 L 150.803,1056.76 L 141.732,1056.76 L 132.661,1056.76 L 123.591,1047.69 L 114.52,1047.69 L 114.52,1038.61 L 105.449,1029.54 L 96.378,1029.54 L 87.3071,1020.47 L 78.2362,1020.47 L 69.1654,1011.4 L 69.1654,1002.33 L 78.2362,1002.33 L 87.3071,1002.33 L 96.378,993.26 L 96.378,984.189 L 96.378,975.118 L 105.449,975.118 L 114.52,966.047 L 114.52,956.976 L 114.52,947.906 L 114.52,938.835 L 105.449,929.764 L 96.378,929.764 L 96.378,920.693 L 105.449,920.693 L 114.52,911.622 L 114.52,902.551 L 114.52,893.48 L 123.591,893.48 L 132.661,884.409 L 132.661,875.339 L 132.661,866.268 L 141.732,866.268 L 150.803,857.197 L 159.874,857.197 L 168.945,848.126 L 168.945,839.055 L 168.945,829.984 L 168.945,820.913 L 159.874,811.843 L 159.874,802.772 L 168.945,802.772 L 178.016,793.701 z " style="fill-opacity:0.5;fill:rgb(253,0,0);stroke:rgb(253,0,0);stroke-width:2"/></g>
<g fill-rule="evenodd"><path d="M 359.433,1093.04 L 368.504,1047.69 L 341.291,1038.61 L 341.291,1056.76 L 277.795,1065.83 L 223.37,1056.76 L 178.016,1029.54 L 150.803,966.047 L 178.016,956.976 L 205.228,893.48 L 232.441,893.48 L 241.512,875.339 L 277.795,884.409 L 341.291,848.126 L 259.654,802.772 L 159.874,802.772 L 168.945,848.126 L 132.661,866.268 L 132.661,884.409 L 96.378,920.693 L 114.52,938.835 L 114.52,966.047 L 69.1654,1011.4 L 187.087,1083.97 L 250.583,1083.97 L 277.795,1065.83 L 295.937,1083.97 L 359.433,1093.04 z " style="fill-opacity:0.5;fill:rgb(0,253,0);stroke:rgb(0,0,0);stroke-width:5"/></g>
<g fill-rule="evenodd"><path d="M 658.772,820.913 L 667.843,820.913 L 676.913,829.984 L 685.984,829.984 L 695.055,839.055 L 685.984,848.126 L 676.913,848.126 L 667.843,857.197 L 667.843,866.268 L 676.913,875.339 L 685.984,875.339 L 685.984,884.409 L 695.055,893.48 L 704.126,893.48 L 713.197,902.551 L 722.268,902.551 L 731.339,911.622 L 740.409,920.693 L 740.409,929.764 L 749.48,938.835 L 758.551,938.835 L 767.622,947.906 L 776.693,956.976 L 776.693,966.047 L 776.693,975.118 L 776.693,984.189 L 785.764,993.26 L 794.835,1002.33 L 803.906,993.26 L 803.906,984.189 L 812.976,984.189 L 822.047,975.118 L 822.047,966.047 L 831.118,975.118 L 840.189,966.047 L 849.26,966.047 L 858.331,966.047 L 867.402,966.047 L 867.402,975.118 L 867.402,984.189 L 867.402,993.26 L 867.402,1002.33 L 867.402,1011.4 L 867.402,1020.47 L 867.402,1029.54 L 867.402,1038.61 L 867.402,1047.69 L 867.402,1056.76 L 867.402,1065.83 L 867.402,1074.9 L 867.402,1083.97 L 867.402,1093.04 L 867.402,1102.11 L 867.402,1111.18 L 867.402,1120.25 L 867.402,1129.32 L 867.402,1138.39 L 867.402,1147.46 L 867.402,1156.54 L 858.331,1156.54 L 849.26,1156.54 L 840.189,1156.54 L 831.118,1156.54 L 822.047,1156.54 L 812.976,1156.54 L 803.906,1156.54 L 794.835,1156.54 L 785.764,1156.54 L 776.693,1156.54 L 767.622,1156.54 L 758.551,1156.54 L 749.48,1156.54 L 740.409,1156.54 L 731.339,1156.54 L 722.268,1156.54 L 713.197,1156.54 L 704.126,1156.54 L 695.055,1156.54 L 685.984,1156.54 L 676.913,1156.54 L 667.843,1156.54 L 658.772,1156.54 L 649.701,1156.54 L 640.63,1156.54 L 631.559,1156.54 L 622.488,1156.54 L 613.417,1156.54 L 604.346,1156.54 L 595.276,1156.54 L 586.205,1156.54 L 577.134,1156.54 L 568.063,1156.54 L 558.992,1156.54 L 549.921,1156.54 L 540.85,1156.54 L 531.78,1156.54 L 522.709,1156.54 L 513.638,1156.54 L 504.567,1156.54 L 495.496,1156.54 L 486.425,1156.54 L 477.354,1156.54 L 468.283,1156.54 L 459.213,1156.54 L 450.142,1156.54 L 441.071,1156.54 L 432,1156.54 L 422.929,1156.54 L 413.858,1156.54 L 404.787,1156.54 L 395.717,1156.54 L 386.646,1156.54 L 377.575,1156.54 L 368.504,1156.54 L 359.433,1156.54 L 350.362,1156.54 L 341.291,1156.54 L 332.22,1156.54 L 323.15,1156.54 L 314.079,1156.54 L 305.008,1156.54 L 295.937,1156.54 L 286.866,1156.54 L 277.795,1156.54 L 268.724,1156.54 L 259.654,1156.54 L 250.583,1156.54 L 241.512,1156.54 L 232.441,1156.54 L 223.37,1156.54 L 214.299,1156.54 L 205.228,1156.54 L 196.157,1156.54 L 187.087,1156.54 L 178.016,1156.54 L 168.945,1156.54 L 159.874,1156.54 L 150.803,1156.54 L 141.732,1156.54 L 132.661,1156.54 L 123.591,1156.54 L 114.52,1156.54 L 105.449,1156.54 L 96.378,1156.54 L 87.3071,1156.54 L 78.2362,1156.54 L 69.1654,1156.54 L 60.0945,1156.54 L 51.0236,1156.54 L 41.9528,1156.54 L 32.8819,1156.54 L 23.811,1156.54 L 14.7402,1156.54 L 5.66929,1156.54 L 5.66929,1147.46 L 14.7402,1147.46 L 23.811,1147.46 L 32.8819,1147.46 L 41.9528,1147.46 L 51.0236,1156.54 L 60.0945,1156.54 L 69.1654,1156.54 L 78.2362,1156.54 L 87.3071,1156.54 L 96.378,1156.54 L 105.449,1156.54 L 114.52,1156.54 L 123.591,1156.54 L 132.661,1156.54 L 141.732,1156.54 L 150.803,1156.54 L 159.874,1156.54 L 168.945,1156.54 L 178.016,1156.54 L 187.087,1156.54 L 196.157,1156.54 L 205.228,1156.54 L 214.299,1156.54 L 223.37,1156.54 L 232.441,1156.54 L 241.512,1156.54 L 250.583,1156.54 L 259.654,1156.54 L 268.724,1156.54 L 277.795,1156.54 L 286.866,1156.54 L 295.937,1156.54 L 305.008,1156.54 L 314.079,1156.54 L 323.15,1156.54 L 332.22,1156.54 L 341.291,1156.54 L 350.362,1156.54 L 359.433,1156.54 L 368.504,1147.46 L 377.575,1138.39 L 386.646,1129.32 L 377.575,1120.25 L 368.504,1120.25 L 368.504,1111.18 L 377.575,1102.11 L 386.646,1093.04 L 395.717,1093.04 L 404.787,1102.11 L 413.858,1102.11 L 422.929,1111.18 L 432,1111.18 L 432,1120.25 L 422.929,1120.25 L 413.858,1129.32 L 404.787,1129.32 L 395.717,1138.39 L 395.717,1147.46 L 404.787,1156.54 L 413.858,1156.54 L 422.929,1156.54 L 432,1156.54 L 441.071,1156.54 L 450.142,1156.54 L 459.213,1156.54 L 468.283,1156.54 L 477.354,1156.54 L 486.425,1156.54 L 495.496,1156.54 L 504.567,1156.54 L 513.638,1156.54 L 522.709,1156.54 L 531.78,1156.54 L 540.85,1156.54 L 549.921,1156.54 L 558.992,1156.54 L 568.063,1156.54 L 577.134,1156.54 L 586.205,1156.54 L 595.276,1156.54 L 604.346,1156.54 L 613.417,1156.54 L 622.488,1156.54 L 631.559,1156.54 L 640.63,1156.54 L 649.701,1156.54 L 658.772,1156.54 L 667.843,1156.54 L 676.913,1156.54 L 685.984,1156.54 L 695.055,1156.54 L 704.126,1156.54 L 713.197,1156.54 L 722.268,1156.54 L 731.339,1147.46 L 731.339,1138.39 L 731.339,1129.32 L 740.409,1129.32 L 749.48,1120.25 L 749.48,1111.18 L 749.48,1102.11 L 758.551,1102.11 L 767.622,1093.04 L 767.622,1083.97 L 767.622,1074.9 L 767.622,1065.83 L 758.551,1056.76 L 749.48,1056.76 L 749.48,1047.69 L 758.551,1047.69 L 767.622,1038.61 L 776.693,1038.61 L 785.764,1029.54 L 785.764,1020.47 L 776.693,1011.4 L 767.622,1011.4 L 767.622,1002.33 L 767.622,993.26 L 758.551,984.189 L 749.48,984.189 L 749.48,975.118 L 749.48,966.047 L 749.48,956.976 L 749.48,947.906 L 740.409,938.835 L 731.339,938.835 L 722.268,929.764 L 713.197,929.764 L 713.197,920.693 L 713.197,911.622 L 704.126,902.551 L 695.055,902.551 L 685.984,902.551 L 676.913,902.551 L 667.843,902.551 L 658.772,902.551 L 649.701,902.551 L 640.63,902.551 L 631.559,902.551 L 622.488,902.551 L 613.417,893.48 L 604.346,893.48 L 595.276,893.48 L 586.205,893.48 L 577.134,893.48 L 568.063,893.48 L 558.992,884.409 L 549.921,884.409 L 540.85,884.409 L 531.78,884.409 L 522.709,893.48 L 513.638,893.48 L 504.567,902.551 L 504.567,911.622 L 504.567,920.693 L 495.496,920.693 L 486.425,929.764 L 486.425,938.835 L 486.425,947.906 L 477.354,947.906 L 468.283,956.976 L 459.213,956.976 L 450.142,956.976 L 441.071,956.976 L 432,956.976 L 422.929,956.976 L 413.858,966.047 L 404.787,966.047 L 395.717,975.118 L 395.717,984.189 L 404.787,993.26 L 413.858,993.26 L 413.858,1002.33 L 413.858,1011.4 L 422.929,1020.47 L 432,1020.47 L 432,1029.54 L 422.929,1029.54 L 413.858,1038.61 L 404.787,1038.61 L 395.717,1038.61 L 386.646,1038.61 L 377.575,1029.54 L 377.575,1020.47 L 386.646,1011.4 L 386.646,1002.33 L 377.575,993.26 L 368.504,993.26 L 368.504,984.189 L 377.575,975.118 L 386.646,966.047 L 395.717,966.047 L 404.787,956.976 L 395.717,947.906 L 386.646,947.906 L 377.575,938.835 L 368.504,938.835 L 377.575,929.764 L 386.646,929.764 L 395.717,920.693 L 404.787,920.693 L 413.858,911.622 L 422.929,911.622 L 432,902.551 L 441.071,902.551 L 450.142,911.622 L 459.213,911.622 L 468.283,911.622 L 477.354,911.622 L 486.425,902.551 L 495.496,893.48 L 504.567,893.48 L 513.638,884.409 L 522.709,884.409 L 531.78,875.339 L 540.85,875.339 L 549.921,875.339 L 558.992,875.339 L 568.063,884.409 L 577.134,884.409 L 586.205,884.409 L 595.276,884.409 L 604.346,875.339 L 604.346,866.268 L 613.417,866.268 L 622.488,857.197 L 622.488,848.126 L 622.488,839.055 L 631.559,839.055 L 640.63,829.984 L 649.701,829.984 L 658.772,820.913 z " style="fill-opacity:0.5;fill:rgb(253,0,0);stroke:rgb(253,0,0);stroke-width:2"/></g>
<g fill-rule="evenodd"><path d="M 5.66929,1156.54 L 867.402,1156.54 L 867.402,966.047 L 822.047,966.047 L 794.835,1002.33 L 776.693,984.189 L 776.693,956.976 L 667.843,866.268 L 695.055,839.055 L 658.772,820.913 L 622.488,839.055 L 622.488,857.197 L 595.276,884.409 L 531.78,875.339 L 477.354,911.622 L 432,902.551 L 377.575,929.764 L 368.504,938.835 L 404.787,956.976 L 368.504,993.26 L 386.646,1002.33 L 386.646,1038.61 L 432,1029.54 L 395.717,975.118 L 422.929,956.976 L 486.425,947.906 L 504.567,902.551 L 531.78,884.409 L 704.126,902.551 L 713.197,929.764 L 749.48,947.906 L 749.48,984.189 L 785.764,1020.47 L 749.48,1047.69 L 767.622,1065.83 L 767.622,1093.04 L 749.48,1102.11 L 722.268,1156.54 L 404.787,1156.54 L 395.717,1138.39 L 432,1111.18 L 395.717,1093.04 L 368.504,1111.18 L 386.646,1129.32 L 359.433,1156.54 L 5.66929,1156.54 z " style="fill-opacity:0.5;fill:rgb(0,253,0);stroke:rgb(0,0,0);stroke-width:5"/></g>
<g fill-rule="evenodd"><path d="M 5.66929,866.268 L 14.7402,866.268 L 14.7402,875.339 L 5.66929,875.339 L 5.66929,866.268 z " style="fill-opacity:0.5;fill:rgb(253,0,0);stroke:rgb(253,0,0);stroke-width:2"/></g>
<g fill-rule="evenodd"><path d=" z " style="fill-opacity:0.5;fill:rgb(0,253,0);stroke:rgb(0,0,0);stroke-width:5"/></g>
<g fill-rule="evenodd"><path d="M 368.504,866.268 L 377.575,866.268 L 386.646,875.339 L 395.717,875.339 L 404.787,884.409 L 413.858,884.409 L 413.858,893.48 L 404.787,893.48 L 395.717,893.48 L 386.646,902.551 L 377.575,902.551 L 368.504,911.622 L 359.433,911.622 L 350.362,920.693 L 341.291,920.693 L 332.22,920.693 L 323.15,911.622 L 314.079,911.622 L 305.008,902.551 L 314.079,893.48 L 323.15,893.48 L 332.22,884.409 L 341.291,884.409 L 350.362,875.339 L 359.433,875.339 L 368.504,866.268 z " style="fill-opacity:0.5;fill:rgb(253,0,0);stroke:rgb(253,0,0);stroke-width:2"/></g>
<g fill-rule="evenodd"><path d="M 305.008,902.551 L 350.362,920.693 L 413.858,884.409 L 368.504,866.268 L 305.008,902.551 z " style="fill-opacity:0.5;fill:rgb(0,253,0);stroke:rgb(0,0,0);stroke-width:5"/></g>
<g fill-rule="evenodd"><path d="M 5.66929,1038.61 L 14.7402,1038.61 L 23.811,1047.69 L 32.8819,1056.76 L 32.8819,1065.83 L 23.811,1065.83 L 14.7402,1065.83 L 5.66929,1065.83 L 5.66929,1056.76 L 5.66929,1047.69 L 5.66929,1038.61 z " style="fill-opacity:0.5;fill:rgb(253,0,0);stroke:rgb(253,0,0);stroke-width:2"/></g>
<g fill-rule="evenodd"><path d="M 32.8819,1065.83 L 5.66929,1038.61 L 5.66929,1065.83 L 32.8819,1065.83 z " style="fill-opacity:0.5;fill:rgb(0,253,0);stroke:rgb(0,0,0);stroke-width:5"/></g>
</svg>
