<?xml version="1.0" standalone="no"?>
<!DOCTYPE svg PUBLIC "-//W3C//DTD SVG 1.1//EN"
"http://www.w3.org/Graphics/SVG/1.1/DTD/svg11.dtd">
<svg width="100%" height="100%" version="1.1"
xmlns="http://www.w3.org/2000/svg"
xmlns:xlink="http://www.w3.org/1999/xlink">
<g fill-rule="evenodd"><path d="M 196.535,5.03937 L 206.614,5.03937 L 216.693,5.03937 L 226.772,5.03937 L 236.85,5.03937 L 246.929,5.03937 L 257.008,5.03937 L 267.087,15.1181 L 277.165,15.1181 L 277.165,25.1969 L 277.165,35.2756 L 277.165,45.3543 L 277.165,55.4331 L 277.165,65.5118 L 277.165,75.5906 L 267.087,75.5906 L 257.008,75.5906 L 257.008,65.5118 L 246.929,55.4331 L 246.929,45.3543 L 246.929,35.2756 L 236.85,25.1969 L 226.772,15.1181 L 216.693,15.1181 L 206.614,5.03937 L 196.535,5.03937 z " style="fill-opacity:0.5;fill:rgb(253,0,0);stroke:rgb(253,0,0);stroke-width:2"/></g>
<g fill-rule="evenodd"><path d="M 277.165,75.5906 L 257.008,75.5906 L 246.929,35.2756 L 196.535,5.03937 L 277.165,15.1181 L 277.165,75.5906 z " style="fill-opacity:0.5;fill:rgb(51,51,153);stroke:rgb(0,0,0);stroke-width:5"/></g>
<g fill-rule="evenodd"><path d="M 428.346,5.03937 L 438.425,5.03937 L 448.504,5.03937 L 458.583,5.03937 L 468.661,5.03937 L 478.74,5.03937 L 488.819,5.03937 L 498.898,5.03937 L 508.976,5.03937 L 519.055,5.03937 L 529.134,5.03937 L 539.213,5.03937 L 549.291,5.03937 L 559.37,5.03937 L 569.449,15.1181 L 579.528,15.1181 L 579.528,25.1969 L 579.528,35.2756 L 579.528,45.3543 L 579.528,55.4331 L 579.528,65.5118 L 569.449,65.5118 L 559.37,75.5906 L 549.291,75.5906 L 539.213,85.6693 L 539.213,95.748 L 549.291,105.827 L 559.37,105.827 L 559.37,115.906 L 559.37,125.984 L 569.449,136.063 L 579.528,136.063 L 589.606,136.063 L 599.685,136.063 L 609.764,146.142 L 619.843,146.142 L 629.921,146.142 L 640,146.142 L 650.079,146.142 L 660.157,146.142 L 670.236,146.142 L 680.315,146.142 L 690.394,146.142 L 700.472,146.142 L 710.551,156.22 L 720.63,156.22 L 730.709,146.142 L 730.709,136.063 L 730.709,125.984 L 730.709,115.906 L 730.709,105.827 L 740.787,105.827 L 750.866,95.748 L 750.866,85.6693 L 740.787,75.5906 L 730.709,75.5906 L 730.709,65.5118 L 730.709,55.4331 L 720.63,45.3543 L 710.551,45.3543 L 710.551,35.2756 L 720.63,35.2756 L 730.709,25.1969 L 720.63,15.1181 L 710.551,15.1181 L 710.551,5.03937 L 720.63,5.03937 L 730.709,5.03937 L 740.787,5.03937 L 750.866,5.03937 L 760.945,5.03937 L 771.024,5.03937 L 781.102,5.03937 L 791.181,5.03937 L 801.26,5.03937 L 811.339,5.03937 L 821.417,5.03937 L 831.496,15.1181 L 841.575,5.03937 L 851.654,5.03937 L 861.732,5.03937 L 861.732,15.1181 L 861.732,25.1969 L 861.732,35.2756 L 861.732,45.3543 L 851.654,45.3543 L 841.575,55.4331 L 841.575,65.5118 L 851.654,75.5906 L 861.732,75.5906 L 861.732,85.6693 L 861.732,95.748 L 861.732,105.827 L 851.654,105.827 L 841.575,115.906 L 841.575,125.984 L 851.654,136.063 L 861.732,136.063 L 871.811,146.142 L 881.89,146.142 L 881.89,156.22 L 881.89,166.299 L 881.89,176.378 L 871.811,176.378 L 861.732,186.457 L 851.654,186.457 L 841.575,196.535 L 831.496,196.535 L 821.417,206.614 L 821.417,216.693 L 821.417,226.772 L 811.339,226.772 L 801.26,236.85 L 791.181,236.85 L 781.102,246.929 L 771.024,246.929 L 760.945,257.008 L 760.945,267.087 L 760.945,277.165 L 750.866,287.244 L 740.787,297.323 L 740.787,307.402 L 740.787,317.48 L 740.787,327.559 L 750.866,337.638 L 750.866,347.717 L 740.787,357.795 L 730.709,357.795 L 720.63,347.717 L 710.551,357.795 L 710.551,347.717 L 710.551,337.638 L 700.472,327.559 L 690.394,327.559 L 680.315,337.638 L 670.236,337.638 L 660.157,337.638 L 650.079,337.638 L 640,337.638 L 629.921,337.638 L 619.843,337.638 L 609.764,337.638 L 599.685,327.559 L 589.606,327.559 L 579.528,337.638 L 589.606,347.717 L 579.528,347.717 L 569.449,347.717 L 559.37,357.795 L 549.291,357.795 L 539.213,347.717 L 539.213,337.638 L 549.291,327.559 L 549.291,317.48 L 549.291,307.402 L 549.291,297.323 L 549.291,287.244 L 539.213,277.165 L 529.134,277.165 L 519.055,267.087 L 508.976,267.087 L 508.976,257.008 L 508.976,246.929 L 498.898,236.85 L 488.819,236.85 L 478.74,226.772 L 468.661,226.772 L 458.583,216.693 L 448.504,216.693 L 448.504,206.614 L 448.504,196.535 L 438.425,186.457 L 428.346,186.457 L 418.268,176.378 L 408.189,176.378 L 408.189,166.299 L 408.189,156.22 L 408.189,146.142 L 418.268,146.142 L 428.346,136.063 L 438.425,136.063 L 448.504,125.984 L 448.504,115.906 L 438.425,105.827 L 428.346,105.827 L 428.346,95.748 L 428.346,85.6693 L 428.346,75.5906 L 438.425,75.5906 L 448.504,65.5118 L 448.504,55.4331 L 438.425,45.3543 L 428.346,45.3543 L 428.346,35.2756 L 438.425,35.2756 L 448.504,25.1969 L 448.504,15.1181 L 438.425,5.03937 L 428.346,5.03937M 478.74,5.03937 L 468.661,15.1181 L 478.74,25.1969 L 488.819,15.1181 L 478.74,5.03937 z " style="fill-opacity:0.5;fill:rgb(253,0,0);stroke:rgb(253,0,0);stroke-width:2"/></g>
<g fill-rule="evenodd"><path d="M 881.89,176.378 L 831.496,196.535 L 821.417,226.772 L 760.945,257.008 L 740.787,297.323 L 740.787,357.795 L 710.551,357.795 L 700.472,327.559 L 589.606,327.559 L 589.606,347.717 L 549.291,357.795 L 549.291,287.244 L 508.976,267.087 L 498.898,236.85 L 448.504,216.693 L 438.425,186.457 L 408.189,176.378 L 408.189,146.142 L 448.504,125.984 L 428.346,105.827 L 428.346,75.5906 L 448.504,65.5118 L 428.346,35.2756 L 448.504,15.1181 L 428.346,5.03937 L 579.528,15.1181 L 579.528,65.5118 L 539.213,85.6693 L 559.37,125.984 L 710.551,156.22 L 730.709,146.142 L 730.709,105.827 L 750.866,95.748 L 710.551,45.3543 L 730.709,25.1969 L 710.551,5.03937 L 861.732,5.03937 L 861.732,45.3543 L 841.575,55.4331 L 861.732,75.5906 L 861.732,105.827 L 841.575,125.984 L 881.89,146.142 L 881.89,176.378 z " style="fill-opacity:0.5;fill:rgb(51,51,153);stroke:rgb(0,0,0);stroke-width:5"/></g>
<g fill-rule="evenodd"><path d="M 1033.07,5.03937 L 1043.15,5.03937 L 1053.23,5.03937 L 1063.31,5.03937 L 1073.39,5.03937 L 1083.46,5.03937 L 1093.54,5.03937 L 1083.46,5.03937 L 1073.39,15.1181 L 1063.31,15.1181 L 1053.23,25.1969 L 1043.15,35.2756 L 1043.15,45.3543 L 1043.15,55.4331 L 1033.07,65.5118 L 1033.07,75.5906 L 1022.99,75.5906 L 1012.91,75.5906 L 1012.91,65.5118 L 1012.91,55.4331 L 1012.91,45.3543 L 1012.91,35.2756 L 1012.91,25.1969 L 1012.91,15.1181 L 1022.99,15.1181 L 1033.07,5.03937M 478.74,45.3543 L 468.661,55.4331 L 478.74,65.5118 L 488.819,55.4331 L 478.74,45.3543M 811.339,45.3543 L 801.26,55.4331 L 811.339,65.5118 L 821.417,55.4331 L 811.339,45.3543M 458.583,75.5906 L 448.504,85.6693 L 458.583,95.748 L 468.661,85.6693 L 458.583,75.5906M 478.74,105.827 L 468.661,115.906 L 478.74,125.984 L 488.819,115.906 L 478.74,105.827M 811.339,105.827 L 801.26,115.906 L 811.339,125.984 L 821.417,115.906 L 811.339,105.827 z " style="fill-opacity:0.5;fill:rgb(253,0,0);stroke:rgb(253,0,0);stroke-width:2"/></g>
<g fill-rule="evenodd"><path d="M 1012.91,75.5906 L 1012.91,15.1181 L 1093.54,5.03937 L 1043.15,35.2756 L 1033.07,75.5906 L 1012.91,75.5906 z " style="fill-opacity:0.5;fill:rgb(51,51,153);stroke:rgb(0,0,0);stroke-width:5"/></g>
<g fill-rule="evenodd"><path d="M 246.929,115.906 L 257.008,115.906 L 267.087,115.906 L 277.165,115.906 L 277.165,125.984 L 277.165,136.063 L 287.244,146.142 L 297.323,146.142 L 307.402,156.22 L 317.48,156.22 L 317.48,166.299 L 317.48,176.378 L 317.48,186.457 L 317.48,196.535 L 317.48,206.614 L 317.48,216.693 L 307.402,216.693 L 297.323,216.693 L 287.244,226.772 L 277.165,226.772 L 267.087,236.85 L 257.008,246.929 L 257.008,257.008 L 257.008,267.087 L 246.929,267.087 L 236.85,267.087 L 226.772,277.165 L 216.693,287.244 L 226.772,297.323 L 236.85,297.323 L 226.772,297.323 L 216.693,307.402 L 206.614,307.402 L 196.535,307.402 L 186.457,317.48 L 176.378,317.48 L 166.299,327.559 L 156.22,327.559 L 146.142,337.638 L 136.063,337.638 L 125.984,327.559 L 115.906,327.559 L 105.827,317.48 L 95.748,317.48 L 85.6693,307.402 L 75.5906,307.402 L 65.5118,317.48 L 55.4331,317.48 L 45.3543,327.559 L 35.2756,327.559 L 25.1969,317.48 L 15.1181,317.48 L 5.03937,327.559 L 5.03937,317.48 L 5.03937,307.402 L 5.03937,297.323 L 15.1181,297.323 L 25.1969,297.323 L 35.2756,297.323 L 45.3543,297.323 L 55.4331,297.323 L 65.5118,287.244 L 75.5906,287.244 L 85.6693,287.244 L 95.748,287.244 L 105.827,297.323 L 115.906,297.323 L 125.984,307.402 L 136.063,307.402 L 146.142,307.402 L 156.22,307.402 L 166.299,297.323 L 176.378,297.323 L 186.457,287.244 L 186.457,277.165 L 186.457,267.087 L 196.535,267.087 L 206.614,257.008 L 216.693,257.008 L 226.772,246.929 L 226.772,236.85 L 226.772,226.772 L 236.85,226.772 L 246.929,216.693 L 257.008,216.693 L 267.087,206.614 L 277.165,206.614 L 287.244,196.535 L 287.244,186.457 L 287.244,176.378 L 277.165,166.299 L 267.087,156.22 L 257.008,156.22 L 246.929,146.142 L 236.85,146.142 L 226.772,136.063 L 226.772,125.984 L 236.85,125.984 L 246.929,115.906 z " style="fill-opacity:0.5;fill:rgb(253,0,0);stroke:rgb(253,0,0);stroke-width:2"/></g>
<g fill-rule="evenodd"><path d="M 5.03937,327.559 L 5.03937,297.323 L 65.5118,287.244 L 156.22,307.402 L 186.457,287.244 L 186.457,267.087 L 226.772,246.929 L 226.772,226.772 L 277.165,206.614 L 287.244,176.378 L 226.772,125.984 L 277.165,115.906 L 277.165,136.063 L 317.48,156.22 L 317.48,216.693 L 277.165,226.772 L 257.008,267.087 L 216.693,287.244 L 236.85,297.323 L 146.142,337.638 L 85.6693,307.402 L 5.03937,327.559 z " style="fill-opacity:0.5;fill:rgb(51,51,153);stroke:rgb(0,0,0);stroke-width:5"/></g>
<g fill-rule="evenodd"><path d="M 1012.91,115.906 L 1022.99,115.906 L 1033.07,115.906 L 1043.15,115.906 L 1053.23,125.984 L 1063.31,125.984 L 1063.31,136.063 L 1063.31,146.142 L 1053.23,146.142 L 1043.15,146.142 L 1033.07,156.22 L 1022.99,156.22 L 1012.91,166.299 L 1002.83,176.378 L 1002.83,186.457 L 1002.83,196.535 L 1012.91,206.614 L 1022.99,206.614 L 1033.07,216.693 L 1043.15,216.693 L 1053.23,226.772 L 1063.31,226.772 L 1063.31,236.85 L 1063.31,246.929 L 1073.39,257.008 L 1083.46,257.008 L 1093.54,267.087 L 1103.62,267.087 L 1103.62,277.165 L 1103.62,287.244 L 1113.7,297.323 L 1123.78,297.323 L 1133.86,307.402 L 1143.94,307.402 L 1154.02,307.402 L 1164.09,307.402 L 1174.17,297.323 L 1184.25,297.323 L 1194.33,287.244 L 1204.41,287.244 L 1214.49,287.244 L 1224.57,287.244 L 1234.65,297.323 L 1244.72,297.323 L 1254.8,297.323 L 1264.88,297.323 L 1274.96,297.323 L 1285.04,297.323 L 1285.04,307.402 L 1285.04,317.48 L 1285.04,327.559 L 1274.96,317.48 L 1264.88,317.48 L 1254.8,327.559 L 1244.72,327.559 L 1234.65,317.48 L 1224.57,317.48 L 1214.49,307.402 L 1204.41,307.402 L 1194.33,317.48 L 1184.25,317.48 L 1174.17,327.559 L 1164.09,327.559 L 1154.02,337.638 L 1143.94,337.638 L 1133.86,327.559 L 1123.78,327.559 L 1113.7,317.48 L 1103.62,317.48 L 1093.54,307.402 L 1083.46,307.402 L 1073.39,307.402 L 1063.31,307.402 L 1073.39,297.323 L 1073.39,287.244 L 1063.31,277.165 L 1053.23,267.087 L 1043.15,267.087 L 1033.07,267.087 L 1022.99,257.008 L 1033.07,246.929 L 1022.99,236.85 L 1012.91,226.772 L 1002.83,226.772 L 992.756,216.693 L 982.677,216.693 L 972.598,206.614 L 972.598,196.535 L 972.598,186.457 L 972.598,176.378 L 972.598,166.299 L 972.598,156.22 L 982.677,156.22 L 992.756,146.142 L 1002.83,146.142 L 1012.91,136.063 L 1012.91,125.984 L 1012.91,115.906M 549.291,136.063 L 539.213,146.142 L 549.291,156.22 L 559.37,146.142 L 549.291,136.063M 589.606,146.142 L 579.528,156.22 L 579.528,166.299 L 579.528,176.378 L 589.606,186.457 L 599.685,186.457 L 599.685,196.535 L 609.764,206.614 L 619.843,206.614 L 629.921,206.614 L 640,206.614 L 650.079,206.614 L 660.157,206.614 L 670.236,196.535 L 680.315,196.535 L 690.394,186.457 L 700.472,186.457 L 710.551,176.378 L 710.551,166.299 L 700.472,156.22 L 690.394,156.22 L 680.315,156.22 L 670.236,156.22 L 660.157,156.22 L 650.079,156.22 L 640,156.22 L 629.921,156.22 L 619.843,156.22 L 609.764,156.22 L 599.685,146.142 L 589.606,146.142M 740.787,156.22 L 730.709,166.299 L 740.787,176.378 L 750.866,166.299 L 740.787,156.22M 478.74,186.457 L 468.661,196.535 L 478.74,206.614 L 488.819,196.535 L 478.74,186.457M 791.181,196.535 L 781.102,206.614 L 791.181,216.693 L 801.26,206.614 L 791.181,196.535M 539.213,236.85 L 529.134,246.929 L 539.213,257.008 L 549.291,246.929 L 539.213,236.85M 730.709,246.929 L 720.63,257.008 L 730.709,267.087 L 740.787,257.008 L 730.709,246.929M 579.528,277.165 L 569.449,287.244 L 579.528,297.323 L 589.606,287.244 L 579.528,277.165M 710.551,277.165 L 700.472,287.244 L 710.551,297.323 L 720.63,287.244 L 710.551,277.165 z " style="fill-opacity:0.5;fill:rgb(253,0,0);stroke:rgb(253,0,0);stroke-width:2"/></g>
<g fill-rule="evenodd"><path d="M 1285.04,327.559 L 1204.41,307.402 L 1143.94,337.638 L 1093.54,307.402 L 1063.31,307.402 L 1073.39,287.244 L 972.598,206.614 L 972.598,156.22 L 1002.83,146.142 L 1012.91,115.906 L 1063.31,125.984 L 1063.31,146.142 L 1002.83,176.378 L 1012.91,206.614 L 1063.31,226.772 L 1063.31,246.929 L 1103.62,267.087 L 1103.62,287.244 L 1133.86,307.402 L 1224.57,287.244 L 1285.04,297.323 L 1285.04,327.559M 710.551,176.378 L 700.472,156.22 L 579.528,156.22 L 579.528,176.378 L 609.764,206.614 L 660.157,206.614 L 710.551,176.378 z " style="fill-opacity:0.5;fill:rgb(51,51,153);stroke:rgb(0,0,0);stroke-width:5"/></g>
<g fill-rule="evenodd"><path d="M 972.598,337.638 L 982.677,337.638 L 972.598,337.638 z " style="fill-opacity:0.5;fill:rgb(253,0,0);stroke:rgb(253,0,0);stroke-width:2"/></g>
<g fill-rule="evenodd"><path d="M 982.677,337.638 z " style="fill-opacity:0.5;fill:rgb(51,51,153);stroke:rgb(0,0,0);stroke-width:5"/></g>
<g fill-rule="evenodd"><path d="M 5.03937,357.795 L 15.1181,357.795 L 25.1969,357.795 L 35.2756,357.795 L 45.3543,357.795 L 55.4331,357.795 L 65.5118,357.795 L 75.5906,357.795 L 85.6693,357.795 L 95.748,357.795 L 105.827,367.874 L 115.906,367.874 L 125.984,367.874 L 136.063,367.874 L 146.142,367.874 L 156.22,367.874 L 166.299,377.953 L 176.378,377.953 L 186.457,377.953 L 186.457,388.031 L 176.378,398.11 L 166.299,398.11 L 156.22,388.031 L 146.142,388.031 L 136.063,388.031 L 125.984,388.031 L 115.906,388.031 L 105.827,388.031 L 95.748,377.953 L 85.6693,377.953 L 75.5906,377.953 L 65.5118,377.953 L 55.4331,377.953 L 45.3543,377.953 L 35.2756,377.953 L 25.1969,377.953 L 15.1181,377.953 L 5.03937,377.953 L 5.03937,367.874 L 5.03937,357.795 z " style="fill-opacity:0.5;fill:rgb(253,0,0);stroke:rgb(253,0,0);stroke-width:2"/></g>
<g fill-rule="evenodd"><path d="M 186.457,388.031 L 166.299,398.11 L 95.748,377.953 L 5.03937,377.953 L 5.03937,357.795 L 156.22,367.874 L 186.457,388.031 z " style="fill-opacity:0.5;fill:rgb(51,51,153);stroke:rgb(0,0,0);stroke-width:5"/></g>
<g fill-rule="evenodd"><path d="M 1194.33,357.795 L 1204.41,357.795 L 1214.49,357.795 L 1224.57,357.795 L 1234.65,357.795 L 1244.72,357.795 L 1254.8,357.795 L 1264.88,357.795 L 1274.96,357.795 L 1285.04,357.795 L 1285.04,367.874 L 1285.04,377.953 L 1274.96,377.953 L 1264.88,377.953 L 1254.8,377.953 L 1244.72,377.953 L 1234.65,377.953 L 1224.57,377.953 L 1214.49,377.953 L 1204.41,377.953 L 1194.33,377.953 L 1184.25,388.031 L 1174.17,388.031 L 1164.09,388.031 L 1154.02,388.031 L 1143.94,388.031 L 1133.86,388.031 L 1123.78,398.11 L 1113.7,398.11 L 1103.62,388.031 L 1103.62,377.953 L 1113.7,377.953 L 1123.78,377.953 L 1133.86,367.874 L 1143.94,367.874 L 1154.02,367.874 L 1164.09,367.874 L 1174.17,367.874 L 1184.25,367.874 L 1194.33,357.795 z " style="fill-opacity:0.5;fill:rgb(253,0,0);stroke:rgb(253,0,0);stroke-width:2"/></g>
<g fill-rule="evenodd"><path d="M 1103.62,388.031 L 1133.86,367.874 L 1285.04,357.795 L 1285.04,377.953 L 1194.33,377.953 L 1123.78,398.11 L 1103.62,388.031 z " style="fill-opacity:0.5;fill:rgb(51,51,153);stroke:rgb(0,0,0);stroke-width:5"/></g>
<g fill-rule="evenodd"><path d="M 206.614,398.11 L 216.693,398.11 L 226.772,408.189 L 236.85,408.189 L 246.929,418.268 L 257.008,418.268 L 257.008,428.346 L 257.008,438.425 L 267.087,448.504 L 277.165,448.504 L 287.244,458.583 L 297.323,458.583 L 307.402,458.583 L 317.48,458.583 L 327.559,468.661 L 337.638,478.74 L 337.638,488.819 L 327.559,488.819 L 317.48,488.819 L 307.402,488.819 L 297.323,478.74 L 287.244,478.74 L 277.165,488.819 L 267.087,488.819 L 257.008,498.898 L 257.008,508.976 L 257.008,519.055 L 246.929,519.055 L 236.85,529.134 L 246.929,539.213 L 257.008,539.213 L 267.087,539.213 L 277.165,549.291 L 287.244,559.37 L 297.323,559.37 L 287.244,569.449 L 297.323,579.528 L 297.323,589.606 L 287.244,589.606 L 277.165,599.685 L 267.087,599.685 L 257.008,589.606 L 257.008,579.528 L 246.929,569.449 L 236.85,569.449 L 226.772,569.449 L 236.85,569.449 L 246.929,559.37 L 236.85,549.291 L 226.772,549.291 L 216.693,549.291 L 206.614,549.291 L 196.535,559.37 L 186.457,559.37 L 176.378,559.37 L 166.299,559.37 L 156.22,549.291 L 156.22,539.213 L 166.299,549.291 L 176.378,549.291 L 186.457,539.213 L 186.457,529.134 L 186.457,519.055 L 196.535,508.976 L 186.457,498.898 L 186.457,488.819 L 196.535,488.819 L 206.614,478.74 L 206.614,468.661 L 206.614,458.583 L 206.614,448.504 L 216.693,448.504 L 226.772,438.425 L 216.693,428.346 L 206.614,428.346 L 196.535,428.346 L 186.457,428.346 L 186.457,418.268 L 196.535,408.189 L 206.614,398.11 z " style="fill-opacity:0.5;fill:rgb(253,0,0);stroke:rgb(253,0,0);stroke-width:2"/></g>
<g fill-rule="evenodd"><path d="M 277.165,599.685 L 246.929,569.449 L 226.772,569.449 L 246.929,559.37 L 236.85,549.291 L 156.22,549.291 L 186.457,539.213 L 186.457,488.819 L 226.772,438.425 L 186.457,428.346 L 206.614,398.11 L 257.008,418.268 L 267.087,448.504 L 317.48,458.583 L 337.638,478.74 L 287.244,478.74 L 236.85,529.134 L 297.323,559.37 L 297.323,589.606 L 277.165,599.685 z " style="fill-opacity:0.5;fill:rgb(51,51,153);stroke:rgb(0,0,0);stroke-width:5"/></g>
<g fill-rule="evenodd"><path d="M 1073.39,398.11 L 1083.46,398.11 L 1093.54,408.189 L 1103.62,418.268 L 1103.62,428.346 L 1093.54,428.346 L 1083.46,428.346 L 1073.39,428.346 L 1063.31,438.425 L 1073.39,448.504 L 1083.46,448.504 L 1083.46,458.583 L 1083.46,468.661 L 1083.46,478.74 L 1083.46,488.819 L 1073.39,498.898 L 1083.46,508.976 L 1093.54,508.976 L 1103.62,508.976 L 1113.7,519.055 L 1123.78,519.055 L 1123.78,529.134 L 1113.7,539.213 L 1123.78,549.291 L 1133.86,559.37 L 1143.94,559.37 L 1154.02,549.291 L 1154.02,559.37 L 1143.94,569.449 L 1133.86,569.449 L 1123.78,569.449 L 1113.7,569.449 L 1103.62,559.37 L 1093.54,559.37 L 1083.46,559.37 L 1073.39,559.37 L 1063.31,569.449 L 1063.31,579.528 L 1053.23,579.528 L 1053.23,569.449 L 1043.15,559.37 L 1033.07,559.37 L 1022.99,569.449 L 1033.07,579.528 L 1033.07,589.606 L 1022.99,599.685 L 1012.91,599.685 L 1002.83,589.606 L 992.756,589.606 L 992.756,579.528 L 1002.83,569.449 L 1012.91,559.37 L 1022.99,559.37 L 1033.07,549.291 L 1033.07,539.213 L 1033.07,529.134 L 1033.07,519.055 L 1033.07,508.976 L 1033.07,498.898 L 1033.07,488.819 L 1022.99,478.74 L 1012.91,478.74 L 1002.83,488.819 L 992.756,488.819 L 982.677,478.74 L 972.598,488.819 L 962.52,488.819 L 952.441,488.819 L 952.441,478.74 L 962.52,468.661 L 972.598,458.583 L 982.677,458.583 L 992.756,458.583 L 1002.83,458.583 L 1012.91,448.504 L 1022.99,448.504 L 1033.07,438.425 L 1033.07,428.346 L 1033.07,418.268 L 1043.15,418.268 L 1053.23,408.189 L 1063.31,408.189 L 1073.39,398.11M 226.772,448.504 L 216.693,458.583 L 216.693,468.661 L 226.772,478.74 L 236.85,468.661 L 246.929,458.583 L 236.85,448.504 L 226.772,448.504M 1053.23,448.504 L 1043.15,458.583 L 1053.23,468.661 L 1063.31,478.74 L 1073.39,468.661 L 1073.39,458.583 L 1063.31,448.504 L 1053.23,448.504 z " style="fill-opacity:0.5;fill:rgb(253,0,0);stroke:rgb(253,0,0);stroke-width:2"/></g>
<g fill-rule="evenodd"><path d="M 1012.91,599.685 L 992.756,579.528 L 1033.07,549.291 L 1033.07,488.819 L 952.441,478.74 L 972.598,458.583 L 1022.99,448.504 L 1033.07,418.268 L 1083.46,398.11 L 1103.62,428.346 L 1063.31,438.425 L 1083.46,448.504 L 1073.39,498.898 L 1123.78,519.055 L 1113.7,539.213 L 1154.02,559.37 L 1073.39,559.37 L 1063.31,579.528 L 1033.07,559.37 L 1033.07,589.606 L 1012.91,599.685M 226.772,478.74 L 246.929,458.583 L 236.85,448.504 L 216.693,458.583 L 226.772,478.74M 1063.31,478.74 L 1073.39,458.583 L 1053.23,448.504 L 1043.15,458.583 L 1063.31,478.74 z " style="fill-opacity:0.5;fill:rgb(51,51,153);stroke:rgb(0,0,0);stroke-width:5"/></g>
<g fill-rule="evenodd"><path d="M 357.795,519.055 L 367.874,519.055 L 377.953,519.055 L 388.031,529.134 L 388.031,539.213 L 377.953,549.291 L 388.031,559.37 L 388.031,569.449 L 377.953,579.528 L 367.874,579.528 L 357.795,569.449 L 347.717,579.528 L 347.717,569.449 L 347.717,559.37 L 357.795,549.291 L 367.874,539.213 L 367.874,529.134 L 357.795,519.055 z " style="fill-opacity:0.5;fill:rgb(253,0,0);stroke:rgb(253,0,0);stroke-width:2"/></g>
<g fill-rule="evenodd"><path d="M 377.953,579.528 L 347.717,579.528 L 367.874,539.213 L 357.795,519.055 L 388.031,529.134 L 377.953,579.528 z " style="fill-opacity:0.5;fill:rgb(51,51,153);stroke:rgb(0,0,0);stroke-width:5"/></g>
<g fill-rule="evenodd"><path d="M 912.126,519.055 L 922.205,519.055 L 932.283,519.055 L 922.205,529.134 L 922.205,539.213 L 932.283,549.291 L 942.362,559.37 L 942.362,569.449 L 932.283,569.449 L 922.205,579.528 L 912.126,579.528 L 902.047,569.449 L 902.047,559.37 L 912.126,549.291 L 902.047,539.213 L 902.047,529.134 L 912.126,519.055 z " style="fill-opacity:0.5;fill:rgb(253,0,0);stroke:rgb(253,0,0);stroke-width:2"/></g>
<g fill-rule="evenodd"><path d="M 922.205,579.528 L 902.047,569.449 L 912.126,519.055 L 932.283,519.055 L 922.205,539.213 L 942.362,559.37 L 922.205,579.528 z " style="fill-opacity:0.5;fill:rgb(51,51,153);stroke:rgb(0,0,0);stroke-width:5"/></g>
<g fill-rule="evenodd"><path d="M 508.976,539.213 L 519.055,539.213 L 529.134,549.291 L 539.213,559.37 L 539.213,569.449 L 529.134,569.449 L 519.055,569.449 L 508.976,559.37 L 498.898,569.449 L 498.898,579.528 L 498.898,589.606 L 488.819,589.606 L 478.74,599.685 L 468.661,599.685 L 458.583,589.606 L 458.583,579.528 L 468.661,569.449 L 478.74,559.37 L 488.819,549.291 L 498.898,549.291 L 508.976,539.213 z " style="fill-opacity:0.5;fill:rgb(253,0,0);stroke:rgb(253,0,0);stroke-width:2"/></g>
<g fill-rule="evenodd"><path d="M 468.661,599.685 L 458.583,579.528 L 488.819,549.291 L 519.055,539.213 L 539.213,559.37 L 508.976,559.37 L 498.898,589.606 L 468.661,599.685 z " style="fill-opacity:0.5;fill:rgb(51,51,153);stroke:rgb(0,0,0);stroke-width:5"/></g>
<g fill-rule="evenodd"><path d="M 771.024,539.213 L 781.102,539.213 L 791.181,549.291 L 801.26,549.291 L 811.339,559.37 L 821.417,559.37 L 821.417,569.449 L 831.496,579.528 L 831.496,589.606 L 821.417,599.685 L 811.339,599.685 L 801.26,589.606 L 791.181,589.606 L 781.102,589.606 L 771.024,589.606 L 771.024,579.528 L 760.945,569.449 L 750.866,569.449 L 750.866,559.37 L 760.945,549.291 L 771.024,539.213M 1073.39,539.213 L 1063.31,549.291 L 1073.39,559.37 L 1083.46,559.37 L 1093.54,549.291 L 1083.46,539.213 L 1073.39,539.213 z " style="fill-opacity:0.5;fill:rgb(253,0,0);stroke:rgb(253,0,0);stroke-width:2"/></g>
<g fill-rule="evenodd"><path d="M 831.496,589.606 L 771.024,589.606 L 750.866,559.37 L 781.102,539.213 L 821.417,559.37 L 831.496,589.606M 1083.46,559.37 L 1093.54,549.291 L 1073.39,539.213 L 1063.31,549.291 L 1083.46,559.37 z " style="fill-opacity:0.5;fill:rgb(51,51,153);stroke:rgb(0,0,0);stroke-width:5"/></g>
<g fill-rule="evenodd"><path d="M 1274.96,539.213 L 1285.04,539.213 L 1274.96,539.213M 1053.23,549.291 L 1043.15,559.37 L 1053.23,569.449 L 1063.31,569.449 L 1073.39,559.37 L 1063.31,549.291 L 1053.23,549.291 z " style="fill-opacity:0.5;fill:rgb(253,0,0);stroke:rgb(253,0,0);stroke-width:2"/></g>
<g fill-rule="evenodd"><path d="M 1285.04,539.213M 1063.31,569.449 L 1073.39,559.37 L 1053.23,549.291 L 1043.15,559.37 L 1063.31,569.449 z " style="fill-opacity:0.5;fill:rgb(51,51,153);stroke:rgb(0,0,0);stroke-width:5"/></g>
<g fill-rule="evenodd"><path d="M 115.906,559.37 L 125.984,559.37 L 136.063,559.37 L 146.142,569.449 L 146.142,579.528 L 136.063,589.606 L 125.984,589.606 L 115.906,589.606 L 105.827,589.606 L 95.748,589.606 L 85.6693,589.606 L 75.5906,589.606 L 65.5118,589.606 L 55.4331,579.528 L 45.3543,579.528 L 35.2756,579.528 L 25.1969,579.528 L 15.1181,579.528 L 5.03937,579.528 L 5.03937,569.449 L 15.1181,569.449 L 25.1969,569.449 L 35.2756,569.449 L 45.3543,569.449 L 55.4331,569.449 L 65.5118,579.528 L 75.5906,579.528 L 85.6693,579.528 L 95.748,579.528 L 105.827,579.528 L 115.906,579.528 L 125.984,569.449 L 115.906,559.37M 781.102,559.37 L 771.024,569.449 L 781.102,579.528 L 791.181,569.449 L 781.102,559.37 z " style="fill-opacity:0.5;fill:rgb(253,0,0);stroke:rgb(253,0,0);stroke-width:2"/></g>
<g fill-rule="evenodd"><path d="M 5.03937,579.528 L 115.906,579.528 L 115.906,559.37 L 146.142,569.449 L 136.063,589.606 L 5.03937,579.528 z " style="fill-opacity:0.5;fill:rgb(51,51,153);stroke:rgb(0,0,0);stroke-width:5"/></g>
<g fill-rule="evenodd"><path d="M 1174.17,569.449 L 1184.25,569.449 L 1194.33,569.449 L 1184.25,579.528 L 1194.33,589.606 L 1204.41,589.606 L 1214.49,579.528 L 1224.57,579.528 L 1234.65,579.528 L 1244.72,579.528 L 1254.8,579.528 L 1264.88,579.528 L 1274.96,569.449 L 1285.04,569.449 L 1285.04,579.528 L 1274.96,579.528 L 1264.88,589.606 L 1254.8,589.606 L 1244.72,589.606 L 1234.65,589.606 L 1224.57,589.606 L 1214.49,589.606 L 1204.41,599.685 L 1194.33,599.685 L 1184.25,599.685 L 1174.17,599.685 L 1164.09,589.606 L 1164.09,579.528 L 1174.17,569.449 z " style="fill-opacity:0.5;fill:rgb(253,0,0);stroke:rgb(253,0,0);stroke-width:2"/></g>
<g fill-rule="evenodd"><path d="M 1285.04,579.528 L 1204.41,599.685 L 1164.09,589.606 L 1174.17,569.449 L 1194.33,569.449 L 1194.33,589.606 L 1274.96,569.449 L 1285.04,579.528 z " style="fill-opacity:0.5;fill:rgb(51,51,153);stroke:rgb(0,0,0);stroke-width:5"/></g>
<g fill-rule="evenodd"><path d="M 710.551,599.685 L 720.63,599.685 L 720.63,609.764 L 710.551,599.685 z " style="fill-opacity:0.5;fill:rgb(253,0,0);stroke:rgb(253,0,0);stroke-width:2"/></g>
<g fill-rule="evenodd"><path d=" z " style="fill-opacity:0.5;fill:rgb(51,51,153);stroke:rgb(0,0,0);stroke-width:5"/></g>
<g fill-rule="evenodd"><path d="M 569.449,609.764 L 579.528,609.764 L 579.528,619.843 L 569.449,619.843 L 569.449,609.764 z " style="fill-opacity:0.5;fill:rgb(253,0,0);stroke:rgb(253,0,0);stroke-width:2"/></g>
<g fill-rule="evenodd"><path d=" z " style="fill-opacity:0.5;fill:rgb(51,51,153);stroke:rgb(0,0,0);stroke-width:5"/></g>
<g fill-rule="evenodd"><path d="M 206.614,619.843 L 216.693,619.843 L 206.614,619.843 z " style="fill-opacity:0.5;fill:rgb(253,0,0);stroke:rgb(253,0,0);stroke-width:2"/></g>
<g fill-rule="evenodd"><path d="M 216.693,619.843 z " style="fill-opacity:0.5;fill:rgb(51,51,153);stroke:rgb(0,0,0);stroke-width:5"/></g>
<g fill-rule="evenodd"><path d="M 1073.39,619.843 L 1083.46,619.843 L 1073.39,619.843 z " style="fill-opacity:0.5;fill:rgb(253,0,0);stroke:rgb(253,0,0);stroke-width:2"/></g>
<g fill-rule="evenodd"><path d="M 1083.46,619.843 z " style="fill-opacity:0.5;fill:rgb(51,51,153);stroke:rgb(0,0,0);stroke-width:5"/></g>
<g fill-rule="evenodd"><path d="M 5.03937,629.921 L 15.1181,629.921 L 15.1181,640 L 15.1181,650.079 L 5.03937,650.079 L 5.03937,640 L 5.03937,629.921 z " style="fill-opacity:0.5;fill:rgb(253,0,0);stroke:rgb(253,0,0);stroke-width:2"/></g>
<g fill-rule="evenodd"><path d=" z " style="fill-opacity:0.5;fill:rgb(51,51,153);stroke:rgb(0,0,0);stroke-width:5"/></g>
<g fill-rule="evenodd"><path d="M 95.748,640 L 95.748,650.079 L 85.6693,650.079 L 95.748,640 z " style="fill-opacity:0.5;fill:rgb(253,0,0);stroke:rgb(253,0,0);stroke-width:2"/></g>
<g fill-rule="evenodd"><path d=" z " style="fill-opacity:0.5;fill:rgb(51,51,153);stroke:rgb(0,0,0);stroke-width:5"/></g>
<g fill-rule="evenodd"><path d="M 246.929,690.394 L 257.008,690.394 L 267.087,690.394 L 267.087,700.472 L 277.165,710.551 L 287.244,710.551 L 297.323,720.63 L 297.323,730.709 L 287.244,730.709 L 277.165,740.787 L 267.087,740.787 L 257.008,750.866 L 246.929,750.866 L 236.85,750.866 L 226.772,760.945 L 236.85,771.024 L 246.929,771.024 L 257.008,771.024 L 257.008,781.102 L 257.008,791.181 L 257.008,801.26 L 257.008,811.339 L 267.087,821.417 L 277.165,821.417 L 287.244,821.417 L 297.323,821.417 L 307.402,811.339 L 317.48,811.339 L 327.559,801.26 L 327.559,811.339 L 317.48,821.417 L 307.402,821.417 L 297.323,831.496 L 287.244,831.496 L 277.165,841.575 L 267.087,841.575 L 257.008,851.654 L 257.008,861.732 L 257.008,871.811 L 246.929,871.811 L 236.85,881.89 L 226.772,881.89 L 216.693,881.89 L 206.614,881.89 L 196.535,871.811 L 196.535,861.732 L 206.614,871.811 L 216.693,871.811 L 226.772,861.732 L 236.85,851.654 L 246.929,841.575 L 236.85,831.496 L 226.772,831.496 L 216.693,841.575 L 206.614,841.575 L 196.535,831.496 L 186.457,831.496 L 186.457,821.417 L 186.457,811.339 L 186.457,801.26 L 186.457,791.181 L 176.378,781.102 L 166.299,781.102 L 166.299,771.024 L 176.378,771.024 L 186.457,760.945 L 176.378,750.866 L 166.299,750.866 L 156.22,750.866 L 146.142,750.866 L 146.142,740.787 L 156.22,730.709 L 166.299,720.63 L 176.378,720.63 L 186.457,730.709 L 196.535,730.709 L 206.614,730.709 L 216.693,730.709 L 226.772,720.63 L 226.772,710.551 L 236.85,710.551 L 246.929,700.472 L 246.929,690.394 z " style="fill-opacity:0.5;fill:rgb(253,0,0);stroke:rgb(253,0,0);stroke-width:2"/></g>
<g fill-rule="evenodd"><path d="M 206.614,881.89 L 196.535,861.732 L 216.693,871.811 L 246.929,841.575 L 186.457,831.496 L 186.457,791.181 L 166.299,781.102 L 186.457,760.945 L 146.142,740.787 L 166.299,720.63 L 216.693,730.709 L 246.929,690.394 L 267.087,690.394 L 297.323,730.709 L 226.772,760.945 L 257.008,771.024 L 267.087,821.417 L 327.559,811.339 L 267.087,841.575 L 257.008,871.811 L 206.614,881.89 z " style="fill-opacity:0.5;fill:rgb(51,51,153);stroke:rgb(0,0,0);stroke-width:5"/></g>
<g fill-rule="evenodd"><path d="M 448.504,690.394 L 458.583,690.394 L 468.661,690.394 L 468.661,700.472 L 478.74,710.551 L 488.819,710.551 L 488.819,720.63 L 498.898,730.709 L 508.976,720.63 L 508.976,710.551 L 519.055,710.551 L 529.134,720.63 L 529.134,730.709 L 519.055,740.787 L 508.976,740.787 L 498.898,740.787 L 488.819,740.787 L 478.74,730.709 L 468.661,730.709 L 468.661,720.63 L 468.661,710.551 L 458.583,700.472 L 448.504,700.472 L 448.504,690.394 z " style="fill-opacity:0.5;fill:rgb(253,0,0);stroke:rgb(253,0,0);stroke-width:2"/></g>
<g fill-rule="evenodd"><path d="M 529.134,730.709 L 488.819,740.787 L 448.504,690.394 L 468.661,690.394 L 498.898,730.709 L 508.976,710.551 L 529.134,730.709 z " style="fill-opacity:0.5;fill:rgb(51,51,153);stroke:rgb(0,0,0);stroke-width:5"/></g>
<g fill-rule="evenodd"><path d="M 821.417,690.394 L 831.496,690.394 L 841.575,690.394 L 841.575,700.472 L 831.496,700.472 L 821.417,710.551 L 821.417,720.63 L 821.417,730.709 L 811.339,730.709 L 801.26,740.787 L 791.181,740.787 L 781.102,740.787 L 771.024,740.787 L 760.945,730.709 L 760.945,720.63 L 771.024,710.551 L 781.102,710.551 L 791.181,720.63 L 801.26,710.551 L 811.339,710.551 L 821.417,700.472 L 821.417,690.394 z " style="fill-opacity:0.5;fill:rgb(253,0,0);stroke:rgb(253,0,0);stroke-width:2"/></g>
<g fill-rule="evenodd"><path d="M 760.945,730.709 L 771.024,710.551 L 791.181,720.63 L 821.417,690.394 L 841.575,690.394 L 821.417,730.709 L 760.945,730.709 z " style="fill-opacity:0.5;fill:rgb(51,51,153);stroke:rgb(0,0,0);stroke-width:5"/></g>
<g fill-rule="evenodd"><path d="M 1022.99,690.394 L 1033.07,690.394 L 1043.15,690.394 L 1043.15,700.472 L 1033.07,700.472 L 1022.99,710.551 L 1022.99,720.63 L 1033.07,730.709 L 1043.15,730.709 L 1053.23,730.709 L 1063.31,730.709 L 1063.31,740.787 L 1073.39,750.866 L 1083.46,750.866 L 1093.54,740.787 L 1093.54,730.709 L 1103.62,730.709 L 1113.7,720.63 L 1123.78,720.63 L 1133.86,710.551 L 1143.94,710.551 L 1154.02,720.63 L 1164.09,730.709 L 1164.09,740.787 L 1154.02,740.787 L 1143.94,740.787 L 1133.86,740.787 L 1123.78,750.866 L 1123.78,760.945 L 1113.7,760.945 L 1103.62,771.024 L 1093.54,771.024 L 1083.46,781.102 L 1083.46,791.181 L 1093.54,801.26 L 1103.62,811.339 L 1093.54,811.339 L 1083.46,821.417 L 1083.46,831.496 L 1073.39,831.496 L 1063.31,841.575 L 1073.39,851.654 L 1063.31,861.732 L 1073.39,871.811 L 1083.46,871.811 L 1093.54,861.732 L 1093.54,871.811 L 1083.46,881.89 L 1073.39,881.89 L 1063.31,881.89 L 1053.23,881.89 L 1043.15,871.811 L 1033.07,871.811 L 1033.07,861.732 L 1033.07,851.654 L 1022.99,841.575 L 1012.91,841.575 L 1002.83,831.496 L 992.756,831.496 L 982.677,821.417 L 972.598,821.417 L 962.52,811.339 L 962.52,801.26 L 972.598,811.339 L 982.677,811.339 L 992.756,821.417 L 1002.83,821.417 L 1012.91,811.339 L 1022.99,801.26 L 1033.07,791.181 L 1022.99,781.102 L 1012.91,781.102 L 1022.99,781.102 L 1033.07,771.024 L 1022.99,760.945 L 1012.91,760.945 L 1022.99,760.945 L 1033.07,760.945 L 1043.15,750.866 L 1033.07,740.787 L 1022.99,740.787 L 1012.91,740.787 L 1002.83,740.787 L 992.756,740.787 L 992.756,730.709 L 992.756,720.63 L 1002.83,710.551 L 1012.91,710.551 L 1022.99,700.472 L 1022.99,690.394 z " style="fill-opacity:0.5;fill:rgb(253,0,0);stroke:rgb(253,0,0);stroke-width:2"/></g>
<g fill-rule="evenodd"><path d="M 1083.46,881.89 L 1033.07,871.811 L 1022.99,841.575 L 962.52,811.339 L 1002.83,821.417 L 1033.07,791.181 L 1012.91,781.102 L 1033.07,771.024 L 1012.91,760.945 L 1043.15,750.866 L 992.756,740.787 L 992.756,720.63 L 1022.99,690.394 L 1043.15,690.394 L 1022.99,720.63 L 1063.31,730.709 L 1073.39,750.866 L 1133.86,710.551 L 1164.09,730.709 L 1083.46,781.102 L 1103.62,811.339 L 1063.31,841.575 L 1073.39,871.811 L 1093.54,861.732 L 1083.46,881.89 z " style="fill-opacity:0.5;fill:rgb(51,51,153);stroke:rgb(0,0,0);stroke-width:5"/></g>
<g fill-rule="evenodd"><path d="M 1164.09,690.394 L 1174.17,690.394 L 1184.25,690.394 L 1194.33,690.394 L 1204.41,690.394 L 1214.49,700.472 L 1224.57,700.472 L 1234.65,700.472 L 1244.72,700.472 L 1254.8,700.472 L 1264.88,700.472 L 1274.96,700.472 L 1285.04,700.472 L 1285.04,710.551 L 1285.04,720.63 L 1274.96,720.63 L 1264.88,720.63 L 1254.8,720.63 L 1244.72,720.63 L 1234.65,720.63 L 1224.57,720.63 L 1214.49,720.63 L 1204.41,710.551 L 1194.33,710.551 L 1184.25,710.551 L 1174.17,710.551 L 1164.09,700.472 L 1164.09,690.394 z " style="fill-opacity:0.5;fill:rgb(253,0,0);stroke:rgb(253,0,0);stroke-width:2"/></g>
<g fill-rule="evenodd"><path d="M 1285.04,720.63 L 1214.49,720.63 L 1174.17,710.551 L 1164.09,690.394 L 1285.04,700.472 L 1285.04,720.63 z " style="fill-opacity:0.5;fill:rgb(51,51,153);stroke:rgb(0,0,0);stroke-width:5"/></g>
<g fill-rule="evenodd"><path d="M 65.5118,700.472 L 75.5906,700.472 L 85.6693,700.472 L 95.748,700.472 L 105.827,700.472 L 115.906,700.472 L 125.984,700.472 L 136.063,700.472 L 146.142,700.472 L 146.142,710.551 L 136.063,720.63 L 125.984,720.63 L 115.906,720.63 L 105.827,720.63 L 95.748,720.63 L 85.6693,720.63 L 75.5906,720.63 L 65.5118,720.63 L 55.4331,730.709 L 45.3543,730.709 L 35.2756,730.709 L 25.1969,730.709 L 15.1181,730.709 L 5.03937,730.709 L 5.03937,720.63 L 5.03937,710.551 L 15.1181,710.551 L 25.1969,710.551 L 35.2756,710.551 L 45.3543,710.551 L 55.4331,710.551 L 65.5118,700.472 z " style="fill-opacity:0.5;fill:rgb(253,0,0);stroke:rgb(253,0,0);stroke-width:2"/></g>
<g fill-rule="evenodd"><path d="M 146.142,710.551 L 5.03937,730.709 L 5.03937,710.551 L 65.5118,700.472 L 146.142,710.551 z " style="fill-opacity:0.5;fill:rgb(51,51,153);stroke:rgb(0,0,0);stroke-width:5"/></g>
<g fill-rule="evenodd"><path d="M 377.953,710.551 L 388.031,710.551 L 398.11,710.551 L 398.11,720.63 L 388.031,720.63 L 377.953,730.709 L 388.031,740.787 L 388.031,750.866 L 377.953,760.945 L 367.874,760.945 L 357.795,750.866 L 347.717,750.866 L 347.717,740.787 L 357.795,730.709 L 367.874,730.709 L 377.953,720.63 L 377.953,710.551 z " style="fill-opacity:0.5;fill:rgb(253,0,0);stroke:rgb(253,0,0);stroke-width:2"/></g>
<g fill-rule="evenodd"><path d="M 367.874,760.945 L 347.717,740.787 L 377.953,710.551 L 398.11,710.551 L 377.953,730.709 L 388.031,750.866 L 367.874,760.945 z " style="fill-opacity:0.5;fill:rgb(51,51,153);stroke:rgb(0,0,0);stroke-width:5"/></g>
<g fill-rule="evenodd"><path d="M 690.394,710.551 L 700.472,710.551 L 700.472,720.63 L 690.394,720.63 L 690.394,710.551 z " style="fill-opacity:0.5;fill:rgb(253,0,0);stroke:rgb(253,0,0);stroke-width:2"/></g>
<g fill-rule="evenodd"><path d=" z " style="fill-opacity:0.5;fill:rgb(51,51,153);stroke:rgb(0,0,0);stroke-width:5"/></g>
<g fill-rule="evenodd"><path d="M 891.969,710.551 L 902.047,710.551 L 912.126,710.551 L 912.126,720.63 L 922.205,730.709 L 932.283,730.709 L 942.362,740.787 L 942.362,750.866 L 932.283,750.866 L 922.205,760.945 L 912.126,760.945 L 902.047,750.866 L 902.047,740.787 L 912.126,730.709 L 902.047,720.63 L 891.969,720.63 L 891.969,710.551M 186.457,771.024 L 176.378,781.102 L 186.457,791.181 L 196.535,791.181 L 206.614,791.181 L 216.693,781.102 L 206.614,771.024 L 196.535,771.024 L 186.457,771.024M 1073.39,791.181 L 1063.31,801.26 L 1063.31,811.339 L 1073.39,821.417 L 1083.46,811.339 L 1083.46,801.26 L 1073.39,791.181M 1053.23,811.339 L 1043.15,821.417 L 1053.23,831.496 L 1063.31,831.496 L 1073.39,821.417 L 1063.31,811.339 L 1053.23,811.339M 1063.31,841.575 L 1053.23,851.654 L 1063.31,861.732 L 1073.39,851.654 L 1063.31,841.575 z " style="fill-opacity:0.5;fill:rgb(253,0,0);stroke:rgb(253,0,0);stroke-width:2"/></g>
<g fill-rule="evenodd"><path d="M 942.362,750.866 L 912.126,760.945 L 912.126,730.709 L 891.969,710.551 L 912.126,710.551 L 942.362,750.866M 1063.31,831.496 L 1073.39,821.417 L 1053.23,811.339 L 1043.15,821.417 L 1063.31,831.496 z " style="fill-opacity:0.5;fill:rgb(51,51,153);stroke:rgb(0,0,0);stroke-width:5"/></g>
<g fill-rule="evenodd"><path d="M 156.22,881.89 L 166.299,881.89 L 176.378,881.89 L 186.457,891.969 L 186.457,902.047 L 176.378,912.126 L 166.299,912.126 L 156.22,922.205 L 146.142,922.205 L 136.063,922.205 L 125.984,922.205 L 115.906,922.205 L 105.827,922.205 L 95.748,932.283 L 85.6693,932.283 L 75.5906,932.283 L 65.5118,932.283 L 55.4331,932.283 L 45.3543,932.283 L 35.2756,932.283 L 25.1969,932.283 L 15.1181,932.283 L 5.03937,932.283 L 5.03937,922.205 L 15.1181,922.205 L 25.1969,922.205 L 35.2756,922.205 L 45.3543,922.205 L 55.4331,922.205 L 65.5118,922.205 L 75.5906,922.205 L 85.6693,922.205 L 95.748,922.205 L 105.827,912.126 L 115.906,912.126 L 125.984,912.126 L 136.063,912.126 L 146.142,912.126 L 156.22,912.126 L 166.299,902.047 L 166.299,891.969 L 156.22,881.89 z " style="fill-opacity:0.5;fill:rgb(253,0,0);stroke:rgb(253,0,0);stroke-width:2"/></g>
<g fill-rule="evenodd"><path d="M 5.03937,932.283 L 156.22,912.126 L 156.22,881.89 L 186.457,891.969 L 156.22,922.205 L 5.03937,932.283 z " style="fill-opacity:0.5;fill:rgb(51,51,153);stroke:rgb(0,0,0);stroke-width:5"/></g>
<g fill-rule="evenodd"><path d="M 1113.7,881.89 L 1123.78,881.89 L 1133.86,881.89 L 1123.78,891.969 L 1123.78,902.047 L 1133.86,912.126 L 1143.94,912.126 L 1154.02,912.126 L 1164.09,912.126 L 1174.17,912.126 L 1184.25,912.126 L 1194.33,922.205 L 1204.41,922.205 L 1214.49,922.205 L 1224.57,922.205 L 1234.65,922.205 L 1244.72,922.205 L 1254.8,922.205 L 1264.88,922.205 L 1274.96,922.205 L 1285.04,922.205 L 1285.04,932.283 L 1274.96,932.283 L 1264.88,932.283 L 1254.8,932.283 L 1244.72,932.283 L 1234.65,932.283 L 1224.57,932.283 L 1214.49,932.283 L 1204.41,932.283 L 1194.33,932.283 L 1184.25,922.205 L 1174.17,922.205 L 1164.09,922.205 L 1154.02,922.205 L 1143.94,922.205 L 1133.86,922.205 L 1123.78,912.126 L 1113.7,912.126 L 1103.62,902.047 L 1103.62,891.969 L 1113.7,881.89 z " style="fill-opacity:0.5;fill:rgb(253,0,0);stroke:rgb(253,0,0);stroke-width:2"/></g>
<g fill-rule="evenodd"><path d="M 1285.04,932.283 L 1133.86,922.205 L 1103.62,891.969 L 1133.86,881.89 L 1133.86,912.126 L 1285.04,932.283 z " style="fill-opacity:0.5;fill:rgb(51,51,153);stroke:rgb(0,0,0);stroke-width:5"/></g>
<g fill-rule="evenodd"><path d="M 549.291,922.205 L 559.37,922.205 L 569.449,922.205 L 559.37,932.283 L 559.37,942.362 L 569.449,952.441 L 579.528,962.52 L 589.606,962.52 L 599.685,962.52 L 609.764,952.441 L 619.843,952.441 L 629.921,952.441 L 640,952.441 L 650.079,952.441 L 660.157,952.441 L 670.236,952.441 L 680.315,952.441 L 690.394,962.52 L 700.472,962.52 L 710.551,962.52 L 720.63,952.441 L 730.709,942.362 L 730.709,932.283 L 720.63,922.205 L 730.709,922.205 L 740.787,922.205 L 750.866,932.283 L 750.866,942.362 L 740.787,952.441 L 750.866,962.52 L 740.787,972.598 L 740.787,982.677 L 740.787,992.756 L 740.787,1002.83 L 750.866,1012.91 L 760.945,1012.91 L 771.024,1022.99 L 781.102,1022.99 L 781.102,1033.07 L 781.102,1043.15 L 791.181,1053.23 L 801.26,1053.23 L 811.339,1063.31 L 821.417,1063.31 L 821.417,1073.39 L 821.417,1083.46 L 831.496,1093.54 L 841.575,1093.54 L 851.654,1103.62 L 861.732,1103.62 L 871.811,1113.7 L 881.89,1113.7 L 881.89,1123.78 L 881.89,1133.86 L 881.89,1143.94 L 871.811,1143.94 L 861.732,1154.02 L 851.654,1154.02 L 841.575,1164.09 L 841.575,1174.17 L 851.654,1184.25 L 861.732,1184.25 L 861.732,1194.33 L 861.732,1204.41 L 861.732,1214.49 L 851.654,1214.49 L 841.575,1224.57 L 841.575,1234.65 L 841.575,1244.72 L 841.575,1254.8 L 851.654,1264.88 L 861.732,1264.88 L 861.732,1274.96 L 871.811,1285.04 L 881.89,1285.04 L 891.969,1285.04 L 902.047,1285.04 L 912.126,1285.04 L 922.205,1285.04 L 932.283,1285.04 L 942.362,1285.04 L 952.441,1285.04 L 962.52,1285.04 L 972.598,1285.04 L 982.677,1285.04 L 992.756,1285.04 L 1002.83,1285.04 L 1012.91,1285.04 L 1022.99,1285.04 L 1033.07,1274.96 L 1033.07,1264.88 L 1033.07,1254.8 L 1022.99,1244.72 L 1012.91,1244.72 L 1012.91,1234.65 L 1012.91,1224.57 L 1022.99,1224.57 L 1033.07,1224.57 L 1043.15,1224.57 L 1053.23,1234.65 L 1063.31,1234.65 L 1063.31,1244.72 L 1063.31,1254.8 L 1063.31,1264.88 L 1063.31,1274.96 L 1073.39,1285.04 L 1083.46,1285.04 L 1093.54,1285.04 L 1103.62,1285.04 L 1113.7,1285.04 L 1123.78,1285.04 L 1133.86,1285.04 L 1143.94,1285.04 L 1154.02,1285.04 L 1164.09,1285.04 L 1174.17,1285.04 L 1184.25,1285.04 L 1194.33,1285.04 L 1204.41,1285.04 L 1214.49,1285.04 L 1224.57,1285.04 L 1234.65,1285.04 L 1244.72,1274.96 L 1254.8,1274.96 L 1264.88,1274.96 L 1274.96,1274.96 L 1285.04,1274.96 L 1285.04,1285.04 L 1274.96,1285.04 L 1264.88,1285.04 L 1254.8,1285.04 L 1244.72,1285.04 L 1234.65,1285.04 L 1224.57,1285.04 L 1214.49,1285.04 L 1204.41,1285.04 L 1194.33,1285.04 L 1184.25,1285.04 L 1174.17,1285.04 L 1164.09,1285.04 L 1154.02,1285.04 L 1143.94,1285.04 L 1133.86,1285.04 L 1123.78,1285.04 L 1113.7,1285.04 L 1103.62,1285.04 L 1093.54,1285.04 L 1083.46,1285.04 L 1073.39,1285.04 L 1063.31,1285.04 L 1053.23,1285.04 L 1043.15,1285.04 L 1033.07,1285.04 L 1022.99,1285.04 L 1012.91,1285.04 L 1002.83,1285.04 L 992.756,1285.04 L 982.677,1285.04 L 972.598,1285.04 L 962.52,1285.04 L 952.441,1285.04 L 942.362,1285.04 L 932.283,1285.04 L 922.205,1285.04 L 912.126,1285.04 L 902.047,1285.04 L 891.969,1285.04 L 881.89,1285.04 L 871.811,1285.04 L 861.732,1285.04 L 851.654,1285.04 L 841.575,1285.04 L 831.496,1285.04 L 821.417,1285.04 L 811.339,1285.04 L 801.26,1285.04 L 791.181,1285.04 L 781.102,1285.04 L 771.024,1285.04 L 760.945,1285.04 L 750.866,1285.04 L 740.787,1285.04 L 730.709,1285.04 L 720.63,1285.04 L 710.551,1285.04 L 700.472,1285.04 L 690.394,1285.04 L 680.315,1285.04 L 670.236,1285.04 L 660.157,1285.04 L 650.079,1285.04 L 640,1285.04 L 629.921,1285.04 L 619.843,1285.04 L 609.764,1285.04 L 599.685,1285.04 L 589.606,1285.04 L 579.528,1285.04 L 569.449,1285.04 L 559.37,1285.04 L 549.291,1285.04 L 539.213,1285.04 L 529.134,1285.04 L 519.055,1285.04 L 508.976,1285.04 L 498.898,1285.04 L 488.819,1285.04 L 478.74,1285.04 L 468.661,1285.04 L 458.583,1285.04 L 448.504,1285.04 L 438.425,1285.04 L 428.346,1285.04 L 418.268,1285.04 L 408.189,1285.04 L 398.11,1285.04 L 388.031,1285.04 L 377.953,1285.04 L 367.874,1285.04 L 357.795,1285.04 L 347.717,1285.04 L 337.638,1285.04 L 327.559,1285.04 L 317.48,1285.04 L 307.402,1285.04 L 297.323,1285.04 L 287.244,1285.04 L 277.165,1285.04 L 267.087,1285.04 L 257.008,1285.04 L 246.929,1285.04 L 236.85,1285.04 L 226.772,1285.04 L 216.693,1285.04 L 206.614,1285.04 L 196.535,1285.04 L 186.457,1285.04 L 176.378,1285.04 L 166.299,1285.04 L 156.22,1285.04 L 146.142,1285.04 L 136.063,1285.04 L 125.984,1285.04 L 115.906,1285.04 L 105.827,1285.04 L 95.748,1285.04 L 85.6693,1285.04 L 75.5906,1285.04 L 65.5118,1285.04 L 55.4331,1285.04 L 45.3543,1285.04 L 35.2756,1285.04 L 25.1969,1285.04 L 15.1181,1285.04 L 5.03937,1285.04 L 5.03937,1274.96 L 15.1181,1274.96 L 25.1969,1274.96 L 35.2756,1274.96 L 45.3543,1274.96 L 55.4331,1285.04 L 65.5118,1285.04 L 75.5906,1285.04 L 85.6693,1285.04 L 95.748,1285.04 L 105.827,1285.04 L 115.906,1285.04 L 125.984,1285.04 L 136.063,1285.04 L 146.142,1285.04 L 156.22,1285.04 L 166.299,1285.04 L 176.378,1285.04 L 186.457,1285.04 L 196.535,1285.04 L 206.614,1285.04 L 216.693,1285.04 L 226.772,1274.96 L 226.772,1264.88 L 226.772,1254.8 L 226.772,1244.72 L 226.772,1234.65 L 236.85,1234.65 L 246.929,1224.57 L 257.008,1224.57 L 267.087,1224.57 L 277.165,1224.57 L 277.165,1234.65 L 267.087,1244.72 L 257.008,1254.8 L 257.008,1264.88 L 257.008,1274.96 L 267.087,1285.04 L 277.165,1285.04 L 287.244,1285.04 L 297.323,1285.04 L 307.402,1285.04 L 317.48,1285.04 L 327.559,1285.04 L 337.638,1285.04 L 347.717,1285.04 L 357.795,1285.04 L 367.874,1285.04 L 377.953,1285.04 L 388.031,1285.04 L 398.11,1285.04 L 408.189,1274.96 L 418.268,1274.96 L 428.346,1264.88 L 428.346,1254.8 L 428.346,1244.72 L 438.425,1244.72 L 448.504,1234.65 L 448.504,1224.57 L 448.504,1214.49 L 448.504,1204.41 L 438.425,1194.33 L 428.346,1194.33 L 428.346,1184.25 L 438.425,1184.25 L 448.504,1174.17 L 448.504,1164.09 L 438.425,1154.02 L 428.346,1154.02 L 418.268,1143.94 L 408.189,1143.94 L 408.189,1133.86 L 408.189,1123.78 L 408.189,1113.7 L 418.268,1113.7 L 428.346,1103.62 L 438.425,1103.62 L 448.504,1093.54 L 458.583,1093.54 L 468.661,1083.46 L 468.661,1073.39 L 468.661,1063.31 L 478.74,1063.31 L 488.819,1053.23 L 498.898,1053.23 L 508.976,1043.15 L 508.976,1033.07 L 508.976,1022.99 L 508.976,1012.91 L 519.055,1022.99 L 529.134,1012.91 L 539.213,1012.91 L 549.291,1002.83 L 549.291,992.756 L 549.291,982.677 L 549.291,972.598 L 549.291,962.52 L 549.291,952.441 L 539.213,942.362 L 539.213,932.283 L 549.291,922.205 z " style="fill-opacity:0.5;fill:rgb(253,0,0);stroke:rgb(253,0,0);stroke-width:2"/></g>
<g fill-rule="evenodd"><path d="M 1285.04,1285.04 L 5.03937,1274.96 L 216.693,1285.04 L 226.772,1234.65 L 277.165,1224.57 L 257.008,1254.8 L 267.087,1285.04 L 398.11,1285.04 L 448.504,1234.65 L 448.504,1204.41 L 428.346,1194.33 L 448.504,1164.09 L 408.189,1143.94 L 408.189,1113.7 L 458.583,1093.54 L 468.661,1063.31 L 508.976,1043.15 L 508.976,1012.91 L 519.055,1022.99 L 549.291,1002.83 L 539.213,932.283 L 569.449,922.205 L 559.37,942.362 L 579.528,962.52 L 710.551,962.52 L 730.709,942.362 L 720.63,922.205 L 740.787,922.205 L 740.787,1002.83 L 781.102,1022.99 L 781.102,1043.15 L 821.417,1063.31 L 831.496,1093.54 L 881.89,1113.7 L 881.89,1143.94 L 841.575,1164.09 L 861.732,1184.25 L 841.575,1254.8 L 871.811,1285.04 L 1022.99,1285.04 L 1033.07,1254.8 L 1012.91,1244.72 L 1012.91,1224.57 L 1063.31,1234.65 L 1073.39,1285.04 L 1285.04,1285.04 z " style="fill-opacity:0.5;fill:rgb(51,51,153);stroke:rgb(0,0,0);stroke-width:5"/></g>
<g fill-rule="evenodd"><path d="M 125.984,962.52 L 136.063,962.52 L 146.142,962.52 L 156.22,962.52 L 166.299,972.598 L 176.378,972.598 L 186.457,982.677 L 196.535,982.677 L 206.614,992.756 L 216.693,992.756 L 216.693,1002.83 L 216.693,1012.91 L 226.772,1022.99 L 236.85,1012.91 L 236.85,1022.99 L 246.929,1033.07 L 257.008,1033.07 L 257.008,1043.15 L 267.087,1053.23 L 277.165,1053.23 L 277.165,1063.31 L 287.244,1073.39 L 297.323,1073.39 L 307.402,1083.46 L 317.48,1083.46 L 317.48,1093.54 L 317.48,1103.62 L 317.48,1113.7 L 317.48,1123.78 L 317.48,1133.86 L 307.402,1143.94 L 297.323,1143.94 L 287.244,1154.02 L 277.165,1164.09 L 277.165,1174.17 L 267.087,1184.25 L 257.008,1184.25 L 257.008,1174.17 L 246.929,1164.09 L 246.929,1154.02 L 246.929,1143.94 L 257.008,1143.94 L 267.087,1133.86 L 277.165,1133.86 L 287.244,1123.78 L 287.244,1113.7 L 287.244,1103.62 L 277.165,1093.54 L 267.087,1083.46 L 257.008,1083.46 L 246.929,1073.39 L 236.85,1073.39 L 226.772,1063.31 L 226.772,1053.23 L 216.693,1043.15 L 206.614,1033.07 L 196.535,1033.07 L 186.457,1033.07 L 186.457,1022.99 L 186.457,1012.91 L 176.378,1002.83 L 166.299,992.756 L 156.22,992.756 L 146.142,982.677 L 136.063,982.677 L 125.984,992.756 L 115.906,992.756 L 105.827,1002.83 L 95.748,1002.83 L 85.6693,1012.91 L 75.5906,1012.91 L 65.5118,1002.83 L 55.4331,1002.83 L 45.3543,992.756 L 35.2756,992.756 L 25.1969,1002.83 L 15.1181,1002.83 L 5.03937,992.756 L 5.03937,982.677 L 5.03937,972.598 L 15.1181,972.598 L 25.1969,972.598 L 35.2756,972.598 L 45.3543,972.598 L 55.4331,972.598 L 65.5118,982.677 L 75.5906,982.677 L 85.6693,982.677 L 95.748,982.677 L 105.827,972.598 L 115.906,972.598 L 125.984,962.52 z " style="fill-opacity:0.5;fill:rgb(253,0,0);stroke:rgb(253,0,0);stroke-width:2"/></g>
<g fill-rule="evenodd"><path d="M 267.087,1184.25 L 246.929,1143.94 L 277.165,1133.86 L 287.244,1103.62 L 236.85,1073.39 L 206.614,1033.07 L 186.457,1033.07 L 166.299,992.756 L 136.063,982.677 L 75.5906,1012.91 L 45.3543,992.756 L 15.1181,1002.83 L 5.03937,972.598 L 95.748,982.677 L 156.22,962.52 L 216.693,992.756 L 226.772,1022.99 L 236.85,1012.91 L 287.244,1073.39 L 317.48,1083.46 L 317.48,1133.86 L 267.087,1184.25 z " style="fill-opacity:0.5;fill:rgb(51,51,153);stroke:rgb(0,0,0);stroke-width:5"/></g>
<g fill-rule="evenodd"><path d="M 1133.86,962.52 L 1143.94,962.52 L 1154.02,962.52 L 1164.09,962.52 L 1174.17,972.598 L 1184.25,972.598 L 1194.33,982.677 L 1204.41,982.677 L 1214.49,982.677 L 1224.57,982.677 L 1234.65,972.598 L 1244.72,972.598 L 1254.8,972.598 L 1264.88,972.598 L 1274.96,972.598 L 1285.04,972.598 L 1285.04,982.677 L 1285.04,992.756 L 1274.96,1002.83 L 1264.88,1002.83 L 1254.8,992.756 L 1244.72,992.756 L 1234.65,1002.83 L 1224.57,1002.83 L 1214.49,1012.91 L 1204.41,1012.91 L 1194.33,1002.83 L 1184.25,1002.83 L 1174.17,992.756 L 1164.09,992.756 L 1154.02,982.677 L 1143.94,982.677 L 1133.86,992.756 L 1123.78,992.756 L 1113.7,1002.83 L 1103.62,1012.91 L 1103.62,1022.99 L 1093.54,1033.07 L 1083.46,1033.07 L 1073.39,1043.15 L 1063.31,1053.23 L 1063.31,1063.31 L 1063.31,1073.39 L 1053.23,1073.39 L 1043.15,1073.39 L 1033.07,1083.46 L 1022.99,1083.46 L 1012.91,1093.54 L 1002.83,1103.62 L 1002.83,1113.7 L 1002.83,1123.78 L 1012.91,1133.86 L 1022.99,1133.86 L 1033.07,1143.94 L 1043.15,1143.94 L 1043.15,1154.02 L 1043.15,1164.09 L 1033.07,1174.17 L 1033.07,1184.25 L 1022.99,1184.25 L 1012.91,1184.25 L 1012.91,1174.17 L 1012.91,1164.09 L 1002.83,1154.02 L 992.756,1143.94 L 982.677,1143.94 L 972.598,1133.86 L 972.598,1123.78 L 972.598,1113.7 L 972.598,1103.62 L 972.598,1093.54 L 972.598,1083.46 L 982.677,1083.46 L 992.756,1073.39 L 1002.83,1073.39 L 1012.91,1063.31 L 1012.91,1053.23 L 1022.99,1053.23 L 1033.07,1043.15 L 1033.07,1033.07 L 1043.15,1033.07 L 1053.23,1022.99 L 1053.23,1012.91 L 1063.31,1012.91 L 1073.39,1002.83 L 1073.39,992.756 L 1083.46,992.756 L 1093.54,982.677 L 1103.62,982.677 L 1113.7,972.598 L 1123.78,972.598 L 1133.86,962.52 z " style="fill-opacity:0.5;fill:rgb(253,0,0);stroke:rgb(253,0,0);stroke-width:2"/></g>
<g fill-rule="evenodd"><path d="M 1012.91,1184.25 L 1012.91,1164.09 L 972.598,1133.86 L 972.598,1083.46 L 1002.83,1073.39 L 1073.39,992.756 L 1133.86,962.52 L 1194.33,982.677 L 1285.04,972.598 L 1274.96,1002.83 L 1244.72,992.756 L 1214.49,1012.91 L 1154.02,982.677 L 1123.78,992.756 L 1063.31,1053.23 L 1063.31,1073.39 L 1002.83,1103.62 L 1002.83,1123.78 L 1043.15,1143.94 L 1033.07,1184.25 L 1012.91,1184.25 z " style="fill-opacity:0.5;fill:rgb(51,51,153);stroke:rgb(0,0,0);stroke-width:5"/></g>
<g fill-rule="evenodd"><path d="M 388.031,1002.83 L 398.11,1002.83 L 388.031,1002.83M 750.866,1022.99 L 740.787,1033.07 L 750.866,1043.15 L 760.945,1033.07 L 750.866,1022.99 z " style="fill-opacity:0.5;fill:rgb(253,0,0);stroke:rgb(253,0,0);stroke-width:2"/></g>
<g fill-rule="evenodd"><path d="M 398.11,1002.83 z " style="fill-opacity:0.5;fill:rgb(51,51,153);stroke:rgb(0,0,0);stroke-width:5"/></g>
<g fill-rule="evenodd"><path d="M 952.441,1022.99 L 962.52,1022.99 L 952.441,1022.99M 589.606,1063.31 L 579.528,1073.39 L 589.606,1083.46 L 599.685,1073.39 L 589.606,1063.31M 700.472,1063.31 L 690.394,1073.39 L 700.472,1083.46 L 710.551,1073.39 L 700.472,1063.31M 629.921,1083.46 L 619.843,1093.54 L 609.764,1093.54 L 599.685,1103.62 L 589.606,1103.62 L 579.528,1113.7 L 579.528,1123.78 L 589.606,1133.86 L 599.685,1133.86 L 609.764,1133.86 L 619.843,1133.86 L 629.921,1133.86 L 640,1133.86 L 650.079,1133.86 L 660.157,1133.86 L 670.236,1123.78 L 680.315,1123.78 L 690.394,1123.78 L 700.472,1123.78 L 710.551,1113.7 L 700.472,1103.62 L 690.394,1103.62 L 680.315,1093.54 L 670.236,1093.54 L 660.157,1083.46 L 650.079,1083.46 L 640,1083.46 L 629.921,1083.46M 549.291,1103.62 L 539.213,1113.7 L 549.291,1123.78 L 559.37,1113.7 L 549.291,1103.62M 740.787,1103.62 L 730.709,1113.7 L 740.787,1123.78 L 750.866,1113.7 L 740.787,1103.62M 549.291,1133.86 L 539.213,1143.94 L 549.291,1154.02 L 559.37,1154.02 L 569.449,1143.94 L 559.37,1133.86 L 549.291,1133.86M 569.449,1143.94 L 559.37,1154.02 L 569.449,1164.09 L 579.528,1164.09 L 589.606,1154.02 L 579.528,1143.94 L 569.449,1143.94M 670.236,1143.94 L 660.157,1154.02 L 650.079,1154.02 L 640,1154.02 L 629.921,1154.02 L 619.843,1154.02 L 609.764,1154.02 L 599.685,1154.02 L 589.606,1154.02 L 579.528,1164.09 L 579.528,1174.17 L 569.449,1174.17 L 559.37,1184.25 L 559.37,1194.33 L 559.37,1204.41 L 559.37,1214.49 L 569.449,1224.57 L 579.528,1224.57 L 579.528,1234.65 L 569.449,1234.65 L 559.37,1244.72 L 559.37,1254.8 L 559.37,1264.88 L 569.449,1274.96 L 579.528,1274.96 L 589.606,1285.04 L 599.685,1285.04 L 609.764,1285.04 L 619.843,1285.04 L 629.921,1285.04 L 640,1285.04 L 650.079,1285.04 L 660.157,1285.04 L 670.236,1285.04 L 680.315,1285.04 L 690.394,1285.04 L 700.472,1285.04 L 710.551,1274.96 L 720.63,1274.96 L 730.709,1264.88 L 730.709,1254.8 L 730.709,1244.72 L 720.63,1234.65 L 710.551,1234.65 L 710.551,1224.57 L 720.63,1224.57 L 730.709,1214.49 L 740.787,1214.49 L 750.866,1204.41 L 750.866,1194.33 L 740.787,1184.25 L 730.709,1184.25 L 730.709,1174.17 L 730.709,1164.09 L 730.709,1154.02 L 720.63,1143.94 L 710.551,1143.94 L 700.472,1143.94 L 690.394,1143.94 L 680.315,1143.94 L 670.236,1143.94M 478.74,1154.02 L 468.661,1164.09 L 478.74,1174.17 L 488.819,1164.09 L 478.74,1154.02M 811.339,1154.02 L 801.26,1164.09 L 811.339,1174.17 L 821.417,1164.09 L 811.339,1154.02M 478.74,1194.33 L 468.661,1204.41 L 478.74,1214.49 L 488.819,1204.41 L 478.74,1194.33M 811.339,1214.49 L 801.26,1224.57 L 811.339,1234.65 L 821.417,1224.57 L 811.339,1214.49 z " style="fill-opacity:0.5;fill:rgb(253,0,0);stroke:rgb(253,0,0);stroke-width:2"/></g>
<g fill-rule="evenodd"><path d="M 962.52,1022.99M 710.551,1113.7 L 660.157,1083.46 L 629.921,1083.46 L 579.528,1123.78 L 660.157,1133.86 L 710.551,1113.7M 559.37,1154.02 L 569.449,1143.94 L 549.291,1133.86 L 539.213,1143.94 L 559.37,1154.02M 579.528,1164.09 L 589.606,1154.02 L 569.449,1143.94 L 559.37,1154.02 L 579.528,1164.09M 569.449,1274.96 L 720.63,1274.96 L 730.709,1244.72 L 710.551,1224.57 L 750.866,1204.41 L 730.709,1184.25 L 730.709,1154.02 L 589.606,1154.02 L 559.37,1184.25 L 559.37,1214.49 L 579.528,1224.57 L 559.37,1244.72 L 569.449,1274.96 z " style="fill-opacity:0.5;fill:rgb(51,51,153);stroke:rgb(0,0,0);stroke-width:5"/></g>
</svg>
