<?xml version="1.0" standalone="no"?>
<!DOCTYPE svg PUBLIC "-//W3C//DTD SVG 1.1//EN"
"http://www.w3.org/Graphics/SVG/1.1/DTD/svg11.dtd">
<svg width="100%" height="100%" version="1.1"
xmlns="http://www.w3.org/2000/svg"
xmlns:xlink="http://www.w3.org/1999/xlink">
<g fill-rule="evenodd"><path d="M 176.882,4.53543 L 185.953,4.53543 L 195.024,4.53543 L 204.094,4.53543 L 213.165,4.53543 L 222.236,4.53543 L 231.307,4.53543 L 240.378,13.6063 L 249.449,13.6063 L 249.449,22.6772 L 249.449,31.748 L 249.449,40.8189 L 249.449,49.8898 L 249.449,58.9606 L 249.449,68.0315 L 240.378,68.0315 L 231.307,68.0315 L 231.307,58.9606 L 222.236,49.8898 L 222.236,40.8189 L 222.236,31.748 L 213.165,22.6772 L 204.094,13.6063 L 195.024,13.6063 L 185.953,4.53543 L 176.882,4.53543 z " style="fill-opacity:0.5;fill:rgb(253,0,0);stroke:rgb(253,0,0);stroke-width:2"/></g>
<g fill-rule="evenodd"><path d="M 249.449,68.0315 L 249.449,13.6063 L 176.882,4.53543 L 222.236,31.748 L 231.307,68.0315 L 249.449,68.0315 z " style="fill-opacity:0.5;fill:rgb(0,253,0);stroke:rgb(0,0,0);stroke-width:5"/></g>
<g fill-rule="evenodd"><path d="M 385.512,4.53543 L 394.583,4.53543 L 403.654,4.53543 L 412.724,4.53543 L 421.795,4.53543 L 430.866,4.53543 L 439.937,4.53543 L 449.008,4.53543 L 458.079,4.53543 L 467.15,4.53543 L 476.22,4.53543 L 485.291,4.53543 L 494.362,4.53543 L 503.433,4.53543 L 512.504,13.6063 L 521.575,13.6063 L 521.575,22.6772 L 521.575,31.748 L 521.575,40.8189 L 521.575,49.8898 L 521.575,58.9606 L 512.504,58.9606 L 503.433,68.0315 L 494.362,68.0315 L 485.291,77.1024 L 485.291,86.1732 L 494.362,95.2441 L 503.433,95.2441 L 503.433,104.315 L 503.433,113.386 L 512.504,122.457 L 521.575,122.457 L 530.646,122.457 L 539.717,122.457 L 548.787,131.528 L 557.858,131.528 L 566.929,131.528 L 576,131.528 L 585.071,131.528 L 594.142,131.528 L 603.213,131.528 L 612.283,131.528 L 621.354,131.528 L 630.425,131.528 L 639.496,140.598 L 648.567,140.598 L 657.638,131.528 L 657.638,122.457 L 657.638,113.386 L 657.638,104.315 L 657.638,95.2441 L 666.709,95.2441 L 675.78,86.1732 L 675.78,77.1024 L 666.709,68.0315 L 657.638,68.0315 L 657.638,58.9606 L 657.638,49.8898 L 648.567,40.8189 L 639.496,40.8189 L 639.496,31.748 L 648.567,31.748 L 657.638,22.6772 L 648.567,13.6063 L 639.496,13.6063 L 639.496,4.53543 L 648.567,4.53543 L 657.638,4.53543 L 666.709,4.53543 L 675.78,4.53543 L 684.85,4.53543 L 693.921,4.53543 L 702.992,4.53543 L 712.063,4.53543 L 721.134,4.53543 L 730.205,4.53543 L 739.276,4.53543 L 748.346,13.6063 L 757.417,4.53543 L 766.488,4.53543 L 775.559,4.53543 L 775.559,13.6063 L 775.559,22.6772 L 775.559,31.748 L 775.559,40.8189 L 766.488,40.8189 L 757.417,49.8898 L 757.417,58.9606 L 766.488,68.0315 L 775.559,68.0315 L 775.559,77.1024 L 775.559,86.1732 L 775.559,95.2441 L 766.488,95.2441 L 757.417,104.315 L 757.417,113.386 L 766.488,122.457 L 775.559,122.457 L 784.63,131.528 L 793.701,131.528 L 793.701,140.598 L 793.701,149.669 L 793.701,158.74 L 784.63,158.74 L 775.559,167.811 L 766.488,167.811 L 757.417,176.882 L 748.346,176.882 L 739.276,185.953 L 739.276,195.024 L 739.276,204.094 L 730.205,204.094 L 721.134,213.165 L 712.063,213.165 L 702.992,222.236 L 693.921,222.236 L 684.85,231.307 L 684.85,240.378 L 684.85,249.449 L 675.78,258.52 L 666.709,267.591 L 666.709,276.661 L 666.709,285.732 L 666.709,294.803 L 675.78,303.874 L 675.78,312.945 L 666.709,322.016 L 657.638,322.016 L 648.567,312.945 L 639.496,322.016 L 639.496,312.945 L 639.496,303.874 L 630.425,294.803 L 621.354,294.803 L 612.283,303.874 L 603.213,303.874 L 594.142,303.874 L 585.071,303.874 L 576,303.874 L 566.929,303.874 L 557.858,303.874 L 548.787,303.874 L 539.717,294.803 L 530.646,294.803 L 521.575,303.874 L 530.646,312.945 L 521.575,312.945 L 512.504,312.945 L 503.433,322.016 L 494.362,322.016 L 485.291,312.945 L 485.291,303.874 L 494.362,294.803 L 494.362,285.732 L 494.362,276.661 L 494.362,267.591 L 494.362,258.52 L 485.291,249.449 L 476.22,249.449 L 467.15,240.378 L 458.079,240.378 L 458.079,231.307 L 458.079,222.236 L 449.008,213.165 L 439.937,213.165 L 430.866,204.094 L 421.795,204.094 L 412.724,195.024 L 403.654,195.024 L 403.654,185.953 L 403.654,176.882 L 394.583,167.811 L 385.512,167.811 L 376.441,158.74 L 367.37,158.74 L 367.37,149.669 L 367.37,140.598 L 367.37,131.528 L 376.441,131.528 L 385.512,122.457 L 394.583,122.457 L 403.654,113.386 L 403.654,104.315 L 394.583,95.2441 L 385.512,95.2441 L 385.512,86.1732 L 385.512,77.1024 L 385.512,68.0315 L 394.583,68.0315 L 403.654,58.9606 L 403.654,49.8898 L 394.583,40.8189 L 385.512,40.8189 L 385.512,31.748 L 394.583,31.748 L 403.654,22.6772 L 403.654,13.6063 L 394.583,4.53543 L 385.512,4.53543 z " style="fill-opacity:0.5;fill:rgb(253,0,0);stroke:rgb(253,0,0);stroke-width:2"/></g>
<g fill-rule="evenodd"><path d="M 793.701,158.74 L 793.701,131.528 L 757.417,113.386 L 775.559,95.2441 L 775.559,68.0315 L 757.417,58.9606 L 775.559,40.8189 L 775.559,4.53543 L 639.496,4.53543 L 657.638,22.6772 L 639.496,40.8189 L 675.78,77.1024 L 657.638,95.2441 L 648.567,140.598 L 512.504,122.457 L 485.291,77.1024 L 521.575,58.9606 L 521.575,13.6063 L 385.512,4.53543 L 403.654,13.6063 L 385.512,31.748 L 403.654,49.8898 L 385.512,68.0315 L 385.512,95.2441 L 403.654,113.386 L 367.37,131.528 L 367.37,158.74 L 394.583,167.811 L 403.654,195.024 L 449.008,213.165 L 458.079,240.378 L 494.362,258.52 L 494.362,322.016 L 530.646,312.945 L 530.646,294.803 L 630.425,294.803 L 639.496,322.016 L 666.709,322.016 L 666.709,267.591 L 684.85,231.307 L 739.276,204.094 L 748.346,176.882 L 793.701,158.74 z " style="fill-opacity:0.5;fill:rgb(0,253,0);stroke:rgb(0,0,0);stroke-width:5"/></g>
<g fill-rule="evenodd"><path d="M 929.764,4.53543 L 938.835,4.53543 L 947.906,4.53543 L 956.976,4.53543 L 966.047,4.53543 L 975.118,4.53543 L 984.189,4.53543 L 975.118,4.53543 L 966.047,13.6063 L 956.976,13.6063 L 947.906,22.6772 L 938.835,31.748 L 938.835,40.8189 L 938.835,49.8898 L 929.764,58.9606 L 929.764,68.0315 L 920.693,68.0315 L 911.622,68.0315 L 911.622,58.9606 L 911.622,49.8898 L 911.622,40.8189 L 911.622,31.748 L 911.622,22.6772 L 911.622,13.6063 L 920.693,13.6063 L 929.764,4.53543 z " style="fill-opacity:0.5;fill:rgb(253,0,0);stroke:rgb(253,0,0);stroke-width:2"/></g>
<g fill-rule="evenodd"><path d="M 911.622,68.0315 L 929.764,68.0315 L 938.835,31.748 L 984.189,4.53543 L 911.622,13.6063 L 911.622,68.0315 z " style="fill-opacity:0.5;fill:rgb(0,253,0);stroke:rgb(0,0,0);stroke-width:5"/></g>
<g fill-rule="evenodd"><path d="M 430.866,22.6772 L 439.937,22.6772 L 449.008,22.6772 L 458.079,22.6772 L 467.15,22.6772 L 476.22,22.6772 L 485.291,22.6772 L 494.362,22.6772 L 503.433,22.6772 L 512.504,13.6063 L 503.433,4.53543 L 494.362,4.53543 L 485.291,4.53543 L 476.22,4.53543 L 467.15,4.53543 L 458.079,4.53543 L 449.008,4.53543 L 439.937,4.53543 L 430.866,4.53543 L 421.795,13.6063 L 430.866,22.6772M 430.866,40.8189 L 421.795,49.8898 L 430.866,58.9606 L 439.937,49.8898 L 430.866,40.8189M 730.205,40.8189 L 721.134,49.8898 L 730.205,58.9606 L 739.276,49.8898 L 730.205,40.8189M 412.724,68.0315 L 403.654,77.1024 L 412.724,86.1732 L 421.795,77.1024 L 412.724,68.0315M 430.866,95.2441 L 421.795,104.315 L 430.866,113.386 L 439.937,104.315 L 430.866,95.2441M 730.205,95.2441 L 721.134,104.315 L 730.205,113.386 L 739.276,104.315 L 730.205,95.2441 z " style="fill-opacity:0.5;fill:rgb(253,0,0);stroke:rgb(253,0,0);stroke-width:2"/></g>
<g fill-rule="evenodd"><path d=" z " style="fill-opacity:0.5;fill:rgb(0,253,0);stroke:rgb(0,0,0);stroke-width:5"/></g>
<g fill-rule="evenodd"><path d="M 222.236,104.315 L 231.307,104.315 L 240.378,104.315 L 249.449,104.315 L 249.449,113.386 L 249.449,122.457 L 258.52,131.528 L 267.591,131.528 L 276.661,140.598 L 285.732,140.598 L 285.732,149.669 L 285.732,158.74 L 285.732,167.811 L 285.732,176.882 L 285.732,185.953 L 285.732,195.024 L 276.661,195.024 L 267.591,195.024 L 258.52,204.094 L 249.449,204.094 L 240.378,213.165 L 231.307,222.236 L 231.307,231.307 L 231.307,240.378 L 222.236,240.378 L 213.165,240.378 L 204.094,249.449 L 195.024,258.52 L 204.094,267.591 L 213.165,267.591 L 204.094,267.591 L 195.024,276.661 L 185.953,276.661 L 176.882,276.661 L 167.811,285.732 L 158.74,285.732 L 149.669,294.803 L 140.598,294.803 L 131.528,303.874 L 122.457,303.874 L 113.386,294.803 L 104.315,294.803 L 95.2441,285.732 L 86.1732,285.732 L 77.1024,276.661 L 68.0315,276.661 L 58.9606,285.732 L 49.8898,285.732 L 40.8189,294.803 L 31.748,294.803 L 22.6772,285.732 L 13.6063,285.732 L 4.53543,294.803 L 4.53543,285.732 L 4.53543,276.661 L 4.53543,267.591 L 13.6063,267.591 L 22.6772,267.591 L 31.748,267.591 L 40.8189,267.591 L 49.8898,267.591 L 58.9606,258.52 L 68.0315,258.52 L 77.1024,258.52 L 86.1732,258.52 L 95.2441,267.591 L 104.315,267.591 L 113.386,276.661 L 122.457,276.661 L 131.528,276.661 L 140.598,276.661 L 149.669,267.591 L 158.74,267.591 L 167.811,258.52 L 167.811,249.449 L 167.811,240.378 L 176.882,240.378 L 185.953,231.307 L 195.024,231.307 L 204.094,222.236 L 204.094,213.165 L 204.094,204.094 L 213.165,204.094 L 222.236,195.024 L 231.307,195.024 L 240.378,185.953 L 249.449,185.953 L 258.52,176.882 L 258.52,167.811 L 258.52,158.74 L 249.449,149.669 L 240.378,140.598 L 231.307,140.598 L 222.236,131.528 L 213.165,131.528 L 204.094,122.457 L 204.094,113.386 L 213.165,113.386 L 222.236,104.315 z " style="fill-opacity:0.5;fill:rgb(253,0,0);stroke:rgb(253,0,0);stroke-width:2"/></g>
<g fill-rule="evenodd"><path d="M 4.53543,294.803 L 77.1024,276.661 L 131.528,303.874 L 213.165,267.591 L 195.024,258.52 L 231.307,240.378 L 249.449,204.094 L 285.732,195.024 L 285.732,140.598 L 258.52,131.528 L 249.449,104.315 L 204.094,113.386 L 258.52,158.74 L 249.449,185.953 L 204.094,204.094 L 204.094,222.236 L 167.811,240.378 L 167.811,258.52 L 140.598,276.661 L 58.9606,258.52 L 4.53543,267.591 L 4.53543,294.803 z " style="fill-opacity:0.5;fill:rgb(0,253,0);stroke:rgb(0,0,0);stroke-width:5"/></g>
<g fill-rule="evenodd"><path d="M 911.622,104.315 L 920.693,104.315 L 929.764,104.315 L 938.835,104.315 L 947.906,113.386 L 956.976,113.386 L 956.976,122.457 L 956.976,131.528 L 947.906,131.528 L 938.835,131.528 L 929.764,140.598 L 920.693,140.598 L 911.622,149.669 L 902.551,158.74 L 902.551,167.811 L 902.551,176.882 L 911.622,185.953 L 920.693,185.953 L 929.764,195.024 L 938.835,195.024 L 947.906,204.094 L 956.976,204.094 L 956.976,213.165 L 956.976,222.236 L 966.047,231.307 L 975.118,231.307 L 984.189,240.378 L 993.26,240.378 L 993.26,249.449 L 993.26,258.52 L 1002.33,267.591 L 1011.4,267.591 L 1020.47,276.661 L 1029.54,276.661 L 1038.61,276.661 L 1047.69,276.661 L 1056.76,267.591 L 1065.83,267.591 L 1074.9,258.52 L 1083.97,258.52 L 1093.04,258.52 L 1102.11,258.52 L 1111.18,267.591 L 1120.25,267.591 L 1129.32,267.591 L 1138.39,267.591 L 1147.46,267.591 L 1156.54,267.591 L 1156.54,276.661 L 1156.54,285.732 L 1156.54,294.803 L 1147.46,285.732 L 1138.39,285.732 L 1129.32,294.803 L 1120.25,294.803 L 1111.18,285.732 L 1102.11,285.732 L 1093.04,276.661 L 1083.97,276.661 L 1074.9,285.732 L 1065.83,285.732 L 1056.76,294.803 L 1047.69,294.803 L 1038.61,303.874 L 1029.54,303.874 L 1020.47,294.803 L 1011.4,294.803 L 1002.33,285.732 L 993.26,285.732 L 984.189,276.661 L 975.118,276.661 L 966.047,276.661 L 956.976,276.661 L 966.047,267.591 L 966.047,258.52 L 956.976,249.449 L 947.906,240.378 L 938.835,240.378 L 929.764,240.378 L 920.693,231.307 L 929.764,222.236 L 920.693,213.165 L 911.622,204.094 L 902.551,204.094 L 893.48,195.024 L 884.409,195.024 L 875.339,185.953 L 875.339,176.882 L 875.339,167.811 L 875.339,158.74 L 875.339,149.669 L 875.339,140.598 L 884.409,140.598 L 893.48,131.528 L 902.551,131.528 L 911.622,122.457 L 911.622,113.386 L 911.622,104.315M 494.362,122.457 L 485.291,131.528 L 494.362,140.598 L 503.433,131.528 L 494.362,122.457M 530.646,131.528 L 521.575,140.598 L 521.575,149.669 L 521.575,158.74 L 530.646,167.811 L 539.717,167.811 L 539.717,176.882 L 548.787,185.953 L 557.858,185.953 L 566.929,185.953 L 576,185.953 L 585.071,185.953 L 594.142,185.953 L 603.213,176.882 L 612.283,176.882 L 621.354,167.811 L 630.425,167.811 L 639.496,158.74 L 639.496,149.669 L 630.425,140.598 L 621.354,140.598 L 612.283,140.598 L 603.213,140.598 L 594.142,140.598 L 585.071,140.598 L 576,140.598 L 566.929,140.598 L 557.858,140.598 L 548.787,140.598 L 539.717,131.528 L 530.646,131.528M 666.709,140.598 L 657.638,149.669 L 666.709,158.74 L 675.78,149.669 L 666.709,140.598M 430.866,167.811 L 421.795,176.882 L 430.866,185.953 L 439.937,176.882 L 430.866,167.811M 712.063,176.882 L 702.992,185.953 L 712.063,195.024 L 721.134,185.953 L 712.063,176.882M 485.291,213.165 L 476.22,222.236 L 485.291,231.307 L 494.362,222.236 L 485.291,213.165M 657.638,222.236 L 648.567,231.307 L 657.638,240.378 L 666.709,231.307 L 657.638,222.236M 521.575,249.449 L 512.504,258.52 L 521.575,267.591 L 530.646,258.52 L 521.575,249.449M 639.496,249.449 L 630.425,258.52 L 639.496,267.591 L 648.567,258.52 L 639.496,249.449 z " style="fill-opacity:0.5;fill:rgb(253,0,0);stroke:rgb(253,0,0);stroke-width:2"/></g>
<g fill-rule="evenodd"><path d="M 1156.54,294.803 L 1156.54,267.591 L 1102.11,258.52 L 1020.47,276.661 L 993.26,258.52 L 993.26,240.378 L 956.976,222.236 L 956.976,204.094 L 911.622,185.953 L 902.551,158.74 L 956.976,131.528 L 956.976,113.386 L 911.622,104.315 L 911.622,122.457 L 875.339,140.598 L 875.339,185.953 L 966.047,258.52 L 956.976,276.661 L 984.189,276.661 L 1029.54,303.874 L 1083.97,276.661 L 1156.54,294.803M 639.496,158.74 L 594.142,185.953 L 548.787,185.953 L 521.575,158.74 L 521.575,140.598 L 630.425,140.598 L 639.496,158.74 z " style="fill-opacity:0.5;fill:rgb(0,253,0);stroke:rgb(0,0,0);stroke-width:5"/></g>
<g fill-rule="evenodd"><path d="M 875.339,303.874 L 884.409,303.874 L 875.339,303.874 z " style="fill-opacity:0.5;fill:rgb(253,0,0);stroke:rgb(253,0,0);stroke-width:2"/></g>
<g fill-rule="evenodd"><path d="M 884.409,303.874 z " style="fill-opacity:0.5;fill:rgb(0,253,0);stroke:rgb(0,0,0);stroke-width:5"/></g>
<g fill-rule="evenodd"><path d="M 4.53543,322.016 L 13.6063,322.016 L 22.6772,322.016 L 31.748,322.016 L 40.8189,322.016 L 49.8898,322.016 L 58.9606,322.016 L 68.0315,322.016 L 77.1024,322.016 L 86.1732,322.016 L 95.2441,331.087 L 104.315,331.087 L 113.386,331.087 L 122.457,331.087 L 131.528,331.087 L 140.598,331.087 L 149.669,340.157 L 158.74,340.157 L 167.811,340.157 L 167.811,349.228 L 158.74,358.299 L 149.669,358.299 L 140.598,349.228 L 131.528,349.228 L 122.457,349.228 L 113.386,349.228 L 104.315,349.228 L 95.2441,349.228 L 86.1732,340.157 L 77.1024,340.157 L 68.0315,340.157 L 58.9606,340.157 L 49.8898,340.157 L 40.8189,340.157 L 31.748,340.157 L 22.6772,340.157 L 13.6063,340.157 L 4.53543,340.157 L 4.53543,331.087 L 4.53543,322.016 z " style="fill-opacity:0.5;fill:rgb(253,0,0);stroke:rgb(253,0,0);stroke-width:2"/></g>
<g fill-rule="evenodd"><path d="M 167.811,349.228 L 140.598,331.087 L 4.53543,322.016 L 4.53543,340.157 L 86.1732,340.157 L 149.669,358.299 L 167.811,349.228 z " style="fill-opacity:0.5;fill:rgb(0,253,0);stroke:rgb(0,0,0);stroke-width:5"/></g>
<g fill-rule="evenodd"><path d="M 1074.9,322.016 L 1083.97,322.016 L 1093.04,322.016 L 1102.11,322.016 L 1111.18,322.016 L 1120.25,322.016 L 1129.32,322.016 L 1138.39,322.016 L 1147.46,322.016 L 1156.54,322.016 L 1156.54,331.087 L 1156.54,340.157 L 1147.46,340.157 L 1138.39,340.157 L 1129.32,340.157 L 1120.25,340.157 L 1111.18,340.157 L 1102.11,340.157 L 1093.04,340.157 L 1083.97,340.157 L 1074.9,340.157 L 1065.83,349.228 L 1056.76,349.228 L 1047.69,349.228 L 1038.61,349.228 L 1029.54,349.228 L 1020.47,349.228 L 1011.4,358.299 L 1002.33,358.299 L 993.26,349.228 L 993.26,340.157 L 1002.33,340.157 L 1011.4,340.157 L 1020.47,331.087 L 1029.54,331.087 L 1038.61,331.087 L 1047.69,331.087 L 1056.76,331.087 L 1065.83,331.087 L 1074.9,322.016 z " style="fill-opacity:0.5;fill:rgb(253,0,0);stroke:rgb(253,0,0);stroke-width:2"/></g>
<g fill-rule="evenodd"><path d="M 993.26,349.228 L 1011.4,358.299 L 1074.9,340.157 L 1156.54,340.157 L 1156.54,322.016 L 1074.9,322.016 L 993.26,349.228 z " style="fill-opacity:0.5;fill:rgb(0,253,0);stroke:rgb(0,0,0);stroke-width:5"/></g>
<g fill-rule="evenodd"><path d="M 185.953,358.299 L 195.024,358.299 L 204.094,367.37 L 213.165,367.37 L 222.236,376.441 L 231.307,376.441 L 231.307,385.512 L 231.307,394.583 L 240.378,403.654 L 249.449,403.654 L 258.52,412.724 L 267.591,412.724 L 276.661,412.724 L 285.732,412.724 L 294.803,421.795 L 303.874,430.866 L 303.874,439.937 L 294.803,439.937 L 285.732,439.937 L 276.661,439.937 L 267.591,430.866 L 258.52,430.866 L 249.449,439.937 L 240.378,439.937 L 231.307,449.008 L 231.307,458.079 L 231.307,467.15 L 222.236,467.15 L 213.165,476.22 L 222.236,485.291 L 231.307,485.291 L 240.378,485.291 L 249.449,494.362 L 258.52,503.433 L 267.591,503.433 L 258.52,512.504 L 267.591,521.575 L 267.591,530.646 L 258.52,530.646 L 249.449,539.717 L 240.378,539.717 L 231.307,530.646 L 231.307,521.575 L 222.236,512.504 L 213.165,512.504 L 204.094,512.504 L 213.165,512.504 L 222.236,503.433 L 213.165,494.362 L 204.094,494.362 L 195.024,494.362 L 185.953,494.362 L 176.882,503.433 L 167.811,503.433 L 158.74,503.433 L 149.669,503.433 L 140.598,494.362 L 140.598,485.291 L 149.669,494.362 L 158.74,494.362 L 167.811,485.291 L 167.811,476.22 L 167.811,467.15 L 176.882,458.079 L 167.811,449.008 L 167.811,439.937 L 176.882,439.937 L 185.953,430.866 L 185.953,421.795 L 185.953,412.724 L 185.953,403.654 L 195.024,403.654 L 204.094,394.583 L 195.024,385.512 L 185.953,385.512 L 176.882,385.512 L 167.811,385.512 L 167.811,376.441 L 176.882,367.37 L 185.953,358.299 z " style="fill-opacity:0.5;fill:rgb(253,0,0);stroke:rgb(253,0,0);stroke-width:2"/></g>
<g fill-rule="evenodd"><path d="M 249.449,539.717 L 267.591,530.646 L 267.591,503.433 L 213.165,476.22 L 231.307,467.15 L 240.378,439.937 L 303.874,430.866 L 285.732,412.724 L 240.378,403.654 L 231.307,376.441 L 185.953,358.299 L 167.811,385.512 L 204.094,394.583 L 167.811,439.937 L 167.811,485.291 L 140.598,494.362 L 213.165,494.362 L 222.236,503.433 L 204.094,512.504 L 222.236,512.504 L 249.449,539.717 z " style="fill-opacity:0.5;fill:rgb(0,253,0);stroke:rgb(0,0,0);stroke-width:5"/></g>
<g fill-rule="evenodd"><path d="M 966.047,358.299 L 975.118,358.299 L 984.189,367.37 L 993.26,376.441 L 993.26,385.512 L 984.189,385.512 L 975.118,385.512 L 966.047,385.512 L 956.976,394.583 L 966.047,403.654 L 975.118,403.654 L 975.118,412.724 L 975.118,421.795 L 975.118,430.866 L 975.118,439.937 L 966.047,449.008 L 975.118,458.079 L 984.189,458.079 L 993.26,458.079 L 1002.33,467.15 L 1011.4,467.15 L 1011.4,476.22 L 1002.33,485.291 L 1011.4,494.362 L 1020.47,503.433 L 1029.54,503.433 L 1038.61,494.362 L 1038.61,503.433 L 1029.54,512.504 L 1020.47,512.504 L 1011.4,512.504 L 1002.33,512.504 L 993.26,503.433 L 984.189,503.433 L 975.118,503.433 L 966.047,503.433 L 956.976,512.504 L 956.976,521.575 L 947.906,521.575 L 947.906,512.504 L 938.835,503.433 L 929.764,503.433 L 920.693,512.504 L 929.764,521.575 L 929.764,530.646 L 920.693,539.717 L 911.622,539.717 L 902.551,530.646 L 893.48,530.646 L 893.48,521.575 L 902.551,512.504 L 911.622,503.433 L 920.693,503.433 L 929.764,494.362 L 929.764,485.291 L 929.764,476.22 L 929.764,467.15 L 929.764,458.079 L 929.764,449.008 L 929.764,439.937 L 920.693,430.866 L 911.622,430.866 L 902.551,439.937 L 893.48,439.937 L 884.409,430.866 L 875.339,439.937 L 866.268,439.937 L 857.197,439.937 L 857.197,430.866 L 866.268,421.795 L 875.339,412.724 L 884.409,412.724 L 893.48,412.724 L 902.551,412.724 L 911.622,403.654 L 920.693,403.654 L 929.764,394.583 L 929.764,385.512 L 929.764,376.441 L 938.835,376.441 L 947.906,367.37 L 956.976,367.37 L 966.047,358.299M 213.165,403.654 L 204.094,403.654 L 195.024,412.724 L 195.024,421.795 L 204.094,430.866 L 213.165,421.795 L 222.236,412.724 L 213.165,403.654M 947.906,403.654 L 938.835,412.724 L 947.906,421.795 L 956.976,430.866 L 966.047,421.795 L 966.047,412.724 L 956.976,403.654 L 947.906,403.654 z " style="fill-opacity:0.5;fill:rgb(253,0,0);stroke:rgb(253,0,0);stroke-width:2"/></g>
<g fill-rule="evenodd"><path d="M 911.622,539.717 L 929.764,530.646 L 929.764,503.433 L 947.906,521.575 L 966.047,503.433 L 1038.61,503.433 L 1002.33,485.291 L 1011.4,467.15 L 966.047,449.008 L 975.118,403.654 L 956.976,394.583 L 993.26,385.512 L 975.118,358.299 L 929.764,376.441 L 920.693,403.654 L 875.339,412.724 L 857.197,430.866 L 929.764,439.937 L 929.764,494.362 L 893.48,521.575 L 911.622,539.717M 204.094,430.866 L 195.024,412.724 L 213.165,403.654 L 222.236,412.724 L 204.094,430.866M 956.976,430.866 L 938.835,412.724 L 947.906,403.654 L 966.047,412.724 L 956.976,430.866 z " style="fill-opacity:0.5;fill:rgb(0,253,0);stroke:rgb(0,0,0);stroke-width:5"/></g>
<g fill-rule="evenodd"><path d="M 322.016,467.15 L 331.087,467.15 L 340.157,467.15 L 349.228,476.22 L 349.228,485.291 L 340.157,494.362 L 349.228,503.433 L 349.228,512.504 L 340.157,521.575 L 331.087,521.575 L 322.016,512.504 L 312.945,521.575 L 312.945,512.504 L 312.945,503.433 L 322.016,494.362 L 331.087,485.291 L 331.087,476.22 L 322.016,467.15 z " style="fill-opacity:0.5;fill:rgb(253,0,0);stroke:rgb(253,0,0);stroke-width:2"/></g>
<g fill-rule="evenodd"><path d="M 340.157,521.575 L 349.228,476.22 L 322.016,467.15 L 331.087,485.291 L 312.945,521.575 L 340.157,521.575 z " style="fill-opacity:0.5;fill:rgb(0,253,0);stroke:rgb(0,0,0);stroke-width:5"/></g>
<g fill-rule="evenodd"><path d="M 820.913,467.15 L 829.984,467.15 L 839.055,467.15 L 829.984,476.22 L 829.984,485.291 L 839.055,494.362 L 848.126,503.433 L 848.126,512.504 L 839.055,512.504 L 829.984,521.575 L 820.913,521.575 L 811.843,512.504 L 811.843,503.433 L 820.913,494.362 L 811.843,485.291 L 811.843,476.22 L 820.913,467.15 z " style="fill-opacity:0.5;fill:rgb(253,0,0);stroke:rgb(253,0,0);stroke-width:2"/></g>
<g fill-rule="evenodd"><path d="M 829.984,521.575 L 848.126,512.504 L 829.984,485.291 L 839.055,467.15 L 811.843,476.22 L 811.843,512.504 L 829.984,521.575 z " style="fill-opacity:0.5;fill:rgb(0,253,0);stroke:rgb(0,0,0);stroke-width:5"/></g>
<g fill-rule="evenodd"><path d="M 458.079,485.291 L 467.15,485.291 L 476.22,494.362 L 485.291,503.433 L 485.291,512.504 L 476.22,512.504 L 467.15,512.504 L 458.079,503.433 L 449.008,512.504 L 449.008,521.575 L 449.008,530.646 L 439.937,530.646 L 430.866,539.717 L 421.795,539.717 L 412.724,530.646 L 412.724,521.575 L 421.795,512.504 L 430.866,503.433 L 439.937,494.362 L 449.008,494.362 L 458.079,485.291 z " style="fill-opacity:0.5;fill:rgb(253,0,0);stroke:rgb(253,0,0);stroke-width:2"/></g>
<g fill-rule="evenodd"><path d="M 421.795,539.717 L 449.008,530.646 L 458.079,503.433 L 485.291,503.433 L 467.15,485.291 L 439.937,494.362 L 412.724,521.575 L 421.795,539.717 z " style="fill-opacity:0.5;fill:rgb(0,253,0);stroke:rgb(0,0,0);stroke-width:5"/></g>
<g fill-rule="evenodd"><path d="M 693.921,485.291 L 702.992,485.291 L 712.063,494.362 L 721.134,494.362 L 730.205,503.433 L 739.276,503.433 L 739.276,512.504 L 748.346,521.575 L 748.346,530.646 L 739.276,539.717 L 730.205,539.717 L 721.134,530.646 L 712.063,530.646 L 702.992,530.646 L 693.921,530.646 L 693.921,521.575 L 684.85,512.504 L 675.78,512.504 L 675.78,503.433 L 684.85,494.362 L 693.921,485.291 z " style="fill-opacity:0.5;fill:rgb(253,0,0);stroke:rgb(253,0,0);stroke-width:2"/></g>
<g fill-rule="evenodd"><path d="M 739.276,539.717 L 739.276,503.433 L 702.992,485.291 L 675.78,503.433 L 693.921,530.646 L 739.276,539.717 z " style="fill-opacity:0.5;fill:rgb(0,253,0);stroke:rgb(0,0,0);stroke-width:5"/></g>
<g fill-rule="evenodd"><path d="M 1147.46,485.291 L 1156.54,485.291 L 1147.46,485.291 z " style="fill-opacity:0.5;fill:rgb(253,0,0);stroke:rgb(253,0,0);stroke-width:2"/></g>
<g fill-rule="evenodd"><path d="M 1156.54,485.291 z " style="fill-opacity:0.5;fill:rgb(0,253,0);stroke:rgb(0,0,0);stroke-width:5"/></g>
<g fill-rule="evenodd"><path d="M 104.315,503.433 L 113.386,503.433 L 122.457,503.433 L 131.528,512.504 L 131.528,521.575 L 122.457,530.646 L 113.386,530.646 L 104.315,530.646 L 95.2441,530.646 L 86.1732,530.646 L 77.1024,530.646 L 68.0315,530.646 L 58.9606,530.646 L 49.8898,521.575 L 40.8189,521.575 L 31.748,521.575 L 22.6772,521.575 L 13.6063,521.575 L 4.53543,521.575 L 4.53543,512.504 L 13.6063,512.504 L 22.6772,512.504 L 31.748,512.504 L 40.8189,512.504 L 49.8898,512.504 L 58.9606,521.575 L 68.0315,521.575 L 77.1024,521.575 L 86.1732,521.575 L 95.2441,521.575 L 104.315,521.575 L 113.386,512.504 L 104.315,503.433 z " style="fill-opacity:0.5;fill:rgb(253,0,0);stroke:rgb(253,0,0);stroke-width:2"/></g>
<g fill-rule="evenodd"><path d="M 4.53543,521.575 L 122.457,530.646 L 131.528,512.504 L 104.315,503.433 L 104.315,521.575 L 4.53543,521.575 z " style="fill-opacity:0.5;fill:rgb(0,253,0);stroke:rgb(0,0,0);stroke-width:5"/></g>
<g fill-rule="evenodd"><path d="M 1002.33,503.433 L 1011.4,494.362 L 1002.33,485.291 L 993.26,485.291 L 984.189,485.291 L 975.118,485.291 L 966.047,485.291 L 956.976,494.362 L 966.047,503.433 L 975.118,503.433 L 984.189,503.433 L 993.26,503.433 L 1002.33,503.433 z " style="fill-opacity:0.5;fill:rgb(253,0,0);stroke:rgb(253,0,0);stroke-width:2"/></g>
<g fill-rule="evenodd"><path d=" z " style="fill-opacity:0.5;fill:rgb(0,253,0);stroke:rgb(0,0,0);stroke-width:5"/></g>
<g fill-rule="evenodd"><path d="M 1056.76,512.504 L 1065.83,512.504 L 1074.9,512.504 L 1065.83,521.575 L 1074.9,530.646 L 1083.97,530.646 L 1093.04,521.575 L 1102.11,521.575 L 1111.18,521.575 L 1120.25,521.575 L 1129.32,521.575 L 1138.39,521.575 L 1147.46,512.504 L 1156.54,512.504 L 1156.54,521.575 L 1147.46,521.575 L 1138.39,530.646 L 1129.32,530.646 L 1120.25,530.646 L 1111.18,530.646 L 1102.11,530.646 L 1093.04,530.646 L 1083.97,539.717 L 1074.9,539.717 L 1065.83,539.717 L 1056.76,539.717 L 1047.69,530.646 L 1047.69,521.575 L 1056.76,512.504 z " style="fill-opacity:0.5;fill:rgb(253,0,0);stroke:rgb(253,0,0);stroke-width:2"/></g>
<g fill-rule="evenodd"><path d="M 1156.54,521.575 L 1147.46,512.504 L 1074.9,530.646 L 1074.9,512.504 L 1056.76,512.504 L 1047.69,530.646 L 1083.97,539.717 L 1156.54,521.575 z " style="fill-opacity:0.5;fill:rgb(0,253,0);stroke:rgb(0,0,0);stroke-width:5"/></g>
<g fill-rule="evenodd"><path d="M 702.992,521.575 L 712.063,521.575 L 721.134,521.575 L 730.205,521.575 L 739.276,512.504 L 730.205,503.433 L 721.134,503.433 L 712.063,503.433 L 702.992,503.433 L 693.921,512.504 L 702.992,521.575 z " style="fill-opacity:0.5;fill:rgb(253,0,0);stroke:rgb(253,0,0);stroke-width:2"/></g>
<g fill-rule="evenodd"><path d=" z " style="fill-opacity:0.5;fill:rgb(0,253,0);stroke:rgb(0,0,0);stroke-width:5"/></g>
<g fill-rule="evenodd"><path d="M 639.496,539.717 L 648.567,539.717 L 648.567,548.787 L 639.496,539.717 z " style="fill-opacity:0.5;fill:rgb(253,0,0);stroke:rgb(253,0,0);stroke-width:2"/></g>
<g fill-rule="evenodd"><path d=" z " style="fill-opacity:0.5;fill:rgb(0,253,0);stroke:rgb(0,0,0);stroke-width:5"/></g>
<g fill-rule="evenodd"><path d="M 512.504,548.787 L 521.575,548.787 L 521.575,557.858 L 512.504,557.858 L 512.504,548.787 z " style="fill-opacity:0.5;fill:rgb(253,0,0);stroke:rgb(253,0,0);stroke-width:2"/></g>
<g fill-rule="evenodd"><path d=" z " style="fill-opacity:0.5;fill:rgb(0,253,0);stroke:rgb(0,0,0);stroke-width:5"/></g>
<g fill-rule="evenodd"><path d="M 185.953,557.858 L 195.024,557.858 L 185.953,557.858 z " style="fill-opacity:0.5;fill:rgb(253,0,0);stroke:rgb(253,0,0);stroke-width:2"/></g>
<g fill-rule="evenodd"><path d="M 195.024,557.858 z " style="fill-opacity:0.5;fill:rgb(0,253,0);stroke:rgb(0,0,0);stroke-width:5"/></g>
<g fill-rule="evenodd"><path d="M 966.047,557.858 L 975.118,557.858 L 966.047,557.858 z " style="fill-opacity:0.5;fill:rgb(253,0,0);stroke:rgb(253,0,0);stroke-width:2"/></g>
<g fill-rule="evenodd"><path d="M 975.118,557.858 z " style="fill-opacity:0.5;fill:rgb(0,253,0);stroke:rgb(0,0,0);stroke-width:5"/></g>
<g fill-rule="evenodd"><path d="M 4.53543,566.929 L 13.6063,566.929 L 13.6063,576 L 13.6063,585.071 L 4.53543,585.071 L 4.53543,576 L 4.53543,566.929 z " style="fill-opacity:0.5;fill:rgb(253,0,0);stroke:rgb(253,0,0);stroke-width:2"/></g>
<g fill-rule="evenodd"><path d=" z " style="fill-opacity:0.5;fill:rgb(0,253,0);stroke:rgb(0,0,0);stroke-width:5"/></g>
<g fill-rule="evenodd"><path d="M 86.1732,576 L 86.1732,585.071 L 77.1024,585.071 L 86.1732,576 z " style="fill-opacity:0.5;fill:rgb(253,0,0);stroke:rgb(253,0,0);stroke-width:2"/></g>
<g fill-rule="evenodd"><path d=" z " style="fill-opacity:0.5;fill:rgb(0,253,0);stroke:rgb(0,0,0);stroke-width:5"/></g>
<g fill-rule="evenodd"><path d="M 222.236,621.354 L 231.307,621.354 L 240.378,621.354 L 240.378,630.425 L 249.449,639.496 L 258.52,639.496 L 267.591,648.567 L 267.591,657.638 L 258.52,657.638 L 249.449,666.709 L 240.378,666.709 L 231.307,675.78 L 222.236,675.78 L 213.165,675.78 L 204.094,684.85 L 213.165,693.921 L 222.236,693.921 L 231.307,693.921 L 231.307,702.992 L 231.307,712.063 L 231.307,721.134 L 231.307,730.205 L 240.378,739.276 L 249.449,739.276 L 258.52,739.276 L 267.591,739.276 L 276.661,730.205 L 285.732,730.205 L 294.803,721.134 L 294.803,730.205 L 285.732,739.276 L 276.661,739.276 L 267.591,748.346 L 258.52,748.346 L 249.449,757.417 L 240.378,757.417 L 231.307,766.488 L 231.307,775.559 L 231.307,784.63 L 222.236,784.63 L 213.165,793.701 L 204.094,793.701 L 195.024,793.701 L 185.953,793.701 L 176.882,784.63 L 176.882,775.559 L 185.953,784.63 L 195.024,784.63 L 204.094,775.559 L 213.165,766.488 L 222.236,757.417 L 213.165,748.346 L 204.094,748.346 L 195.024,757.417 L 185.953,757.417 L 176.882,748.346 L 167.811,748.346 L 167.811,739.276 L 167.811,730.205 L 167.811,721.134 L 167.811,712.063 L 158.74,702.992 L 149.669,702.992 L 149.669,693.921 L 158.74,693.921 L 167.811,684.85 L 158.74,675.78 L 149.669,675.78 L 140.598,675.78 L 131.528,675.78 L 131.528,666.709 L 140.598,657.638 L 149.669,648.567 L 158.74,648.567 L 167.811,657.638 L 176.882,657.638 L 185.953,657.638 L 195.024,657.638 L 204.094,648.567 L 204.094,639.496 L 213.165,639.496 L 222.236,630.425 L 222.236,621.354 z " style="fill-opacity:0.5;fill:rgb(253,0,0);stroke:rgb(253,0,0);stroke-width:2"/></g>
<g fill-rule="evenodd"><path d="M 185.953,793.701 L 231.307,784.63 L 240.378,757.417 L 294.803,730.205 L 240.378,739.276 L 231.307,693.921 L 204.094,684.85 L 267.591,657.638 L 240.378,621.354 L 222.236,621.354 L 195.024,657.638 L 149.669,648.567 L 131.528,666.709 L 167.811,684.85 L 149.669,693.921 L 167.811,712.063 L 167.811,748.346 L 222.236,757.417 L 195.024,784.63 L 176.882,775.559 L 185.953,793.701 z " style="fill-opacity:0.5;fill:rgb(0,253,0);stroke:rgb(0,0,0);stroke-width:5"/></g>
<g fill-rule="evenodd"><path d="M 403.654,621.354 L 412.724,621.354 L 421.795,621.354 L 421.795,630.425 L 430.866,639.496 L 439.937,639.496 L 439.937,648.567 L 449.008,657.638 L 458.079,648.567 L 458.079,639.496 L 467.15,639.496 L 476.22,648.567 L 476.22,657.638 L 467.15,666.709 L 458.079,666.709 L 449.008,666.709 L 439.937,666.709 L 430.866,657.638 L 421.795,657.638 L 421.795,648.567 L 421.795,639.496 L 412.724,630.425 L 403.654,630.425 L 403.654,621.354 z " style="fill-opacity:0.5;fill:rgb(253,0,0);stroke:rgb(253,0,0);stroke-width:2"/></g>
<g fill-rule="evenodd"><path d="M 476.22,657.638 L 467.15,639.496 L 449.008,657.638 L 421.795,621.354 L 403.654,621.354 L 421.795,657.638 L 476.22,657.638 z " style="fill-opacity:0.5;fill:rgb(0,253,0);stroke:rgb(0,0,0);stroke-width:5"/></g>
<g fill-rule="evenodd"><path d="M 739.276,621.354 L 748.346,621.354 L 757.417,621.354 L 757.417,630.425 L 748.346,630.425 L 739.276,639.496 L 739.276,648.567 L 739.276,657.638 L 730.205,657.638 L 721.134,666.709 L 712.063,666.709 L 702.992,666.709 L 693.921,666.709 L 684.85,657.638 L 684.85,648.567 L 693.921,639.496 L 702.992,639.496 L 712.063,648.567 L 721.134,639.496 L 730.205,639.496 L 739.276,630.425 L 739.276,621.354 z " style="fill-opacity:0.5;fill:rgb(253,0,0);stroke:rgb(253,0,0);stroke-width:2"/></g>
<g fill-rule="evenodd"><path d="M 684.85,657.638 L 721.134,666.709 L 757.417,621.354 L 739.276,621.354 L 712.063,648.567 L 693.921,639.496 L 684.85,657.638 z " style="fill-opacity:0.5;fill:rgb(0,253,0);stroke:rgb(0,0,0);stroke-width:5"/></g>
<g fill-rule="evenodd"><path d="M 920.693,621.354 L 929.764,621.354 L 938.835,621.354 L 938.835,630.425 L 929.764,630.425 L 920.693,639.496 L 920.693,648.567 L 929.764,657.638 L 938.835,657.638 L 947.906,657.638 L 956.976,657.638 L 956.976,666.709 L 966.047,675.78 L 975.118,675.78 L 984.189,666.709 L 984.189,657.638 L 993.26,657.638 L 1002.33,648.567 L 1011.4,648.567 L 1020.47,639.496 L 1029.54,639.496 L 1038.61,648.567 L 1047.69,657.638 L 1047.69,666.709 L 1038.61,666.709 L 1029.54,666.709 L 1020.47,666.709 L 1011.4,675.78 L 1011.4,684.85 L 1002.33,684.85 L 993.26,693.921 L 984.189,693.921 L 975.118,702.992 L 975.118,712.063 L 984.189,721.134 L 993.26,730.205 L 984.189,730.205 L 975.118,739.276 L 975.118,748.346 L 966.047,748.346 L 956.976,757.417 L 966.047,766.488 L 956.976,775.559 L 966.047,784.63 L 975.118,784.63 L 984.189,775.559 L 984.189,784.63 L 975.118,793.701 L 966.047,793.701 L 956.976,793.701 L 947.906,793.701 L 938.835,784.63 L 929.764,784.63 L 929.764,775.559 L 929.764,766.488 L 920.693,757.417 L 911.622,757.417 L 902.551,748.346 L 893.48,748.346 L 884.409,739.276 L 875.339,739.276 L 866.268,730.205 L 866.268,721.134 L 875.339,730.205 L 884.409,730.205 L 893.48,739.276 L 902.551,739.276 L 911.622,730.205 L 920.693,721.134 L 929.764,712.063 L 920.693,702.992 L 911.622,702.992 L 920.693,702.992 L 929.764,693.921 L 920.693,684.85 L 911.622,684.85 L 920.693,684.85 L 929.764,684.85 L 938.835,675.78 L 929.764,666.709 L 920.693,666.709 L 911.622,666.709 L 902.551,666.709 L 893.48,666.709 L 893.48,657.638 L 893.48,648.567 L 902.551,639.496 L 911.622,639.496 L 920.693,630.425 L 920.693,621.354 z " style="fill-opacity:0.5;fill:rgb(253,0,0);stroke:rgb(253,0,0);stroke-width:2"/></g>
<g fill-rule="evenodd"><path d="M 975.118,793.701 L 984.189,775.559 L 956.976,775.559 L 956.976,757.417 L 993.26,730.205 L 975.118,702.992 L 1047.69,657.638 L 1020.47,639.496 L 966.047,675.78 L 956.976,657.638 L 920.693,648.567 L 938.835,630.425 L 920.693,621.354 L 893.48,648.567 L 893.48,666.709 L 938.835,675.78 L 911.622,684.85 L 929.764,693.921 L 911.622,702.992 L 929.764,712.063 L 902.551,739.276 L 866.268,730.205 L 920.693,757.417 L 929.764,784.63 L 975.118,793.701 z " style="fill-opacity:0.5;fill:rgb(0,253,0);stroke:rgb(0,0,0);stroke-width:5"/></g>
<g fill-rule="evenodd"><path d="M 1047.69,621.354 L 1056.76,621.354 L 1065.83,621.354 L 1074.9,621.354 L 1083.97,621.354 L 1093.04,630.425 L 1102.11,630.425 L 1111.18,630.425 L 1120.25,630.425 L 1129.32,630.425 L 1138.39,630.425 L 1147.46,630.425 L 1156.54,630.425 L 1156.54,639.496 L 1156.54,648.567 L 1147.46,648.567 L 1138.39,648.567 L 1129.32,648.567 L 1120.25,648.567 L 1111.18,648.567 L 1102.11,648.567 L 1093.04,648.567 L 1083.97,639.496 L 1074.9,639.496 L 1065.83,639.496 L 1056.76,639.496 L 1047.69,630.425 L 1047.69,621.354 z " style="fill-opacity:0.5;fill:rgb(253,0,0);stroke:rgb(253,0,0);stroke-width:2"/></g>
<g fill-rule="evenodd"><path d="M 1156.54,648.567 L 1156.54,630.425 L 1047.69,621.354 L 1056.76,639.496 L 1156.54,648.567 z " style="fill-opacity:0.5;fill:rgb(0,253,0);stroke:rgb(0,0,0);stroke-width:5"/></g>
<g fill-rule="evenodd"><path d="M 58.9606,630.425 L 68.0315,630.425 L 77.1024,630.425 L 86.1732,630.425 L 95.2441,630.425 L 104.315,630.425 L 113.386,630.425 L 122.457,630.425 L 131.528,630.425 L 131.528,639.496 L 122.457,648.567 L 113.386,648.567 L 104.315,648.567 L 95.2441,648.567 L 86.1732,648.567 L 77.1024,648.567 L 68.0315,648.567 L 58.9606,648.567 L 49.8898,657.638 L 40.8189,657.638 L 31.748,657.638 L 22.6772,657.638 L 13.6063,657.638 L 4.53543,657.638 L 4.53543,648.567 L 4.53543,639.496 L 13.6063,639.496 L 22.6772,639.496 L 31.748,639.496 L 40.8189,639.496 L 49.8898,639.496 L 58.9606,630.425 z " style="fill-opacity:0.5;fill:rgb(253,0,0);stroke:rgb(253,0,0);stroke-width:2"/></g>
<g fill-rule="evenodd"><path d="M 131.528,639.496 L 58.9606,630.425 L 4.53543,639.496 L 4.53543,657.638 L 131.528,639.496 z " style="fill-opacity:0.5;fill:rgb(0,253,0);stroke:rgb(0,0,0);stroke-width:5"/></g>
<g fill-rule="evenodd"><path d="M 340.157,639.496 L 349.228,639.496 L 358.299,639.496 L 358.299,648.567 L 349.228,648.567 L 340.157,657.638 L 349.228,666.709 L 349.228,675.78 L 340.157,684.85 L 331.087,684.85 L 322.016,675.78 L 312.945,675.78 L 312.945,666.709 L 322.016,657.638 L 331.087,657.638 L 340.157,648.567 L 340.157,639.496 z " style="fill-opacity:0.5;fill:rgb(253,0,0);stroke:rgb(253,0,0);stroke-width:2"/></g>
<g fill-rule="evenodd"><path d="M 331.087,684.85 L 349.228,675.78 L 340.157,657.638 L 358.299,639.496 L 340.157,639.496 L 312.945,666.709 L 331.087,684.85 z " style="fill-opacity:0.5;fill:rgb(0,253,0);stroke:rgb(0,0,0);stroke-width:5"/></g>
<g fill-rule="evenodd"><path d="M 621.354,639.496 L 630.425,639.496 L 630.425,648.567 L 621.354,648.567 L 621.354,639.496 z " style="fill-opacity:0.5;fill:rgb(253,0,0);stroke:rgb(253,0,0);stroke-width:2"/></g>
<g fill-rule="evenodd"><path d=" z " style="fill-opacity:0.5;fill:rgb(0,253,0);stroke:rgb(0,0,0);stroke-width:5"/></g>
<g fill-rule="evenodd"><path d="M 802.772,639.496 L 811.843,639.496 L 820.913,639.496 L 820.913,648.567 L 829.984,657.638 L 839.055,657.638 L 848.126,666.709 L 848.126,675.78 L 839.055,675.78 L 829.984,684.85 L 820.913,684.85 L 811.843,675.78 L 811.843,666.709 L 820.913,657.638 L 811.843,648.567 L 802.772,648.567 L 802.772,639.496M 185.953,693.921 L 176.882,693.921 L 167.811,693.921 L 158.74,702.992 L 167.811,712.063 L 176.882,712.063 L 185.953,712.063 L 195.024,702.992 L 185.953,693.921M 947.906,730.205 L 938.835,739.276 L 947.906,748.346 L 956.976,748.346 L 966.047,739.276 L 956.976,730.205 L 947.906,730.205 z " style="fill-opacity:0.5;fill:rgb(253,0,0);stroke:rgb(253,0,0);stroke-width:2"/></g>
<g fill-rule="evenodd"><path d="M 848.126,675.78 L 820.913,639.496 L 802.772,639.496 L 820.913,657.638 L 820.913,684.85 L 848.126,675.78M 947.906,730.205 L 966.047,739.276 L 947.906,748.346 L 947.906,730.205 z " style="fill-opacity:0.5;fill:rgb(0,253,0);stroke:rgb(0,0,0);stroke-width:5"/></g>
<g fill-rule="evenodd"><path d="M 975.118,730.205 L 984.189,721.134 L 975.118,712.063 L 966.047,712.063 L 956.976,721.134 L 956.976,730.205 L 966.047,739.276 L 975.118,730.205 z " style="fill-opacity:0.5;fill:rgb(253,0,0);stroke:rgb(253,0,0);stroke-width:2"/></g>
<g fill-rule="evenodd"><path d="M 966.047,712.063 L 966.047,739.276 L 984.189,721.134 L 966.047,712.063 z " style="fill-opacity:0.5;fill:rgb(0,253,0);stroke:rgb(0,0,0);stroke-width:5"/></g>
<g fill-rule="evenodd"><path d="M 140.598,793.701 L 149.669,793.701 L 158.74,793.701 L 167.811,802.772 L 167.811,811.843 L 158.74,820.913 L 149.669,820.913 L 140.598,829.984 L 131.528,829.984 L 122.457,829.984 L 113.386,829.984 L 104.315,829.984 L 95.2441,829.984 L 86.1732,839.055 L 77.1024,839.055 L 68.0315,839.055 L 58.9606,839.055 L 49.8898,839.055 L 40.8189,839.055 L 31.748,839.055 L 22.6772,839.055 L 13.6063,839.055 L 4.53543,839.055 L 4.53543,829.984 L 13.6063,829.984 L 22.6772,829.984 L 31.748,829.984 L 40.8189,829.984 L 49.8898,829.984 L 58.9606,829.984 L 68.0315,829.984 L 77.1024,829.984 L 86.1732,829.984 L 95.2441,820.913 L 104.315,820.913 L 113.386,820.913 L 122.457,820.913 L 131.528,820.913 L 140.598,820.913 L 149.669,811.843 L 149.669,802.772 L 140.598,793.701 z " style="fill-opacity:0.5;fill:rgb(253,0,0);stroke:rgb(253,0,0);stroke-width:2"/></g>
<g fill-rule="evenodd"><path d="M 4.53543,839.055 L 140.598,829.984 L 167.811,802.772 L 140.598,793.701 L 140.598,820.913 L 4.53543,839.055 z " style="fill-opacity:0.5;fill:rgb(0,253,0);stroke:rgb(0,0,0);stroke-width:5"/></g>
<g fill-rule="evenodd"><path d="M 1002.33,793.701 L 1011.4,793.701 L 1020.47,793.701 L 1011.4,802.772 L 1011.4,811.843 L 1020.47,820.913 L 1029.54,820.913 L 1038.61,820.913 L 1047.69,820.913 L 1056.76,820.913 L 1065.83,820.913 L 1074.9,829.984 L 1083.97,829.984 L 1093.04,829.984 L 1102.11,829.984 L 1111.18,829.984 L 1120.25,829.984 L 1129.32,829.984 L 1138.39,829.984 L 1147.46,829.984 L 1156.54,829.984 L 1156.54,839.055 L 1147.46,839.055 L 1138.39,839.055 L 1129.32,839.055 L 1120.25,839.055 L 1111.18,839.055 L 1102.11,839.055 L 1093.04,839.055 L 1083.97,839.055 L 1074.9,839.055 L 1065.83,829.984 L 1056.76,829.984 L 1047.69,829.984 L 1038.61,829.984 L 1029.54,829.984 L 1020.47,829.984 L 1011.4,820.913 L 1002.33,820.913 L 993.26,811.843 L 993.26,802.772 L 1002.33,793.701 z " style="fill-opacity:0.5;fill:rgb(253,0,0);stroke:rgb(253,0,0);stroke-width:2"/></g>
<g fill-rule="evenodd"><path d="M 1156.54,839.055 L 1020.47,820.913 L 1020.47,793.701 L 993.26,802.772 L 1020.47,829.984 L 1156.54,839.055 z " style="fill-opacity:0.5;fill:rgb(0,253,0);stroke:rgb(0,0,0);stroke-width:5"/></g>
<g fill-rule="evenodd"><path d="M 494.362,829.984 L 503.433,829.984 L 512.504,829.984 L 503.433,839.055 L 503.433,848.126 L 512.504,857.197 L 521.575,866.268 L 530.646,866.268 L 539.717,866.268 L 548.787,857.197 L 557.858,857.197 L 566.929,857.197 L 576,857.197 L 585.071,857.197 L 594.142,857.197 L 603.213,857.197 L 612.283,857.197 L 621.354,866.268 L 630.425,866.268 L 639.496,866.268 L 648.567,857.197 L 657.638,848.126 L 657.638,839.055 L 648.567,829.984 L 657.638,829.984 L 666.709,829.984 L 675.78,839.055 L 675.78,848.126 L 666.709,857.197 L 675.78,866.268 L 666.709,875.339 L 666.709,884.409 L 666.709,893.48 L 666.709,902.551 L 675.78,911.622 L 684.85,911.622 L 693.921,920.693 L 702.992,920.693 L 702.992,929.764 L 702.992,938.835 L 712.063,947.906 L 721.134,947.906 L 730.205,956.976 L 739.276,956.976 L 739.276,966.047 L 739.276,975.118 L 748.346,984.189 L 757.417,984.189 L 766.488,993.26 L 775.559,993.26 L 784.63,1002.33 L 793.701,1002.33 L 793.701,1011.4 L 793.701,1020.47 L 793.701,1029.54 L 784.63,1029.54 L 775.559,1038.61 L 766.488,1038.61 L 757.417,1047.69 L 757.417,1056.76 L 766.488,1065.83 L 775.559,1065.83 L 775.559,1074.9 L 775.559,1083.97 L 775.559,1093.04 L 766.488,1093.04 L 757.417,1102.11 L 757.417,1111.18 L 757.417,1120.25 L 757.417,1129.32 L 766.488,1138.39 L 775.559,1138.39 L 775.559,1147.46 L 784.63,1156.54 L 793.701,1156.54 L 802.772,1156.54 L 811.843,1156.54 L 820.913,1156.54 L 829.984,1156.54 L 839.055,1156.54 L 848.126,1156.54 L 857.197,1156.54 L 866.268,1156.54 L 875.339,1156.54 L 884.409,1156.54 L 893.48,1156.54 L 902.551,1156.54 L 911.622,1156.54 L 920.693,1156.54 L 929.764,1147.46 L 929.764,1138.39 L 929.764,1129.32 L 920.693,1120.25 L 911.622,1120.25 L 911.622,1111.18 L 911.622,1102.11 L 920.693,1102.11 L 929.764,1102.11 L 938.835,1102.11 L 947.906,1111.18 L 956.976,1111.18 L 956.976,1120.25 L 956.976,1129.32 L 956.976,1138.39 L 956.976,1147.46 L 966.047,1156.54 L 975.118,1156.54 L 984.189,1156.54 L 993.26,1156.54 L 1002.33,1156.54 L 1011.4,1156.54 L 1020.47,1156.54 L 1029.54,1156.54 L 1038.61,1156.54 L 1047.69,1156.54 L 1056.76,1156.54 L 1065.83,1156.54 L 1074.9,1156.54 L 1083.97,1156.54 L 1093.04,1156.54 L 1102.11,1156.54 L 1111.18,1156.54 L 1120.25,1147.46 L 1129.32,1147.46 L 1138.39,1147.46 L 1147.46,1147.46 L 1156.54,1147.46 L 1156.54,1156.54 L 1147.46,1156.54 L 1138.39,1156.54 L 1129.32,1156.54 L 1120.25,1156.54 L 1111.18,1156.54 L 1102.11,1156.54 L 1093.04,1156.54 L 1083.97,1156.54 L 1074.9,1156.54 L 1065.83,1156.54 L 1056.76,1156.54 L 1047.69,1156.54 L 1038.61,1156.54 L 1029.54,1156.54 L 1020.47,1156.54 L 1011.4,1156.54 L 1002.33,1156.54 L 993.26,1156.54 L 984.189,1156.54 L 975.118,1156.54 L 966.047,1156.54 L 956.976,1156.54 L 947.906,1156.54 L 938.835,1156.54 L 929.764,1156.54 L 920.693,1156.54 L 911.622,1156.54 L 902.551,1156.54 L 893.48,1156.54 L 884.409,1156.54 L 875.339,1156.54 L 866.268,1156.54 L 857.197,1156.54 L 848.126,1156.54 L 839.055,1156.54 L 829.984,1156.54 L 820.913,1156.54 L 811.843,1156.54 L 802.772,1156.54 L 793.701,1156.54 L 784.63,1156.54 L 775.559,1156.54 L 766.488,1156.54 L 757.417,1156.54 L 748.346,1156.54 L 739.276,1156.54 L 730.205,1156.54 L 721.134,1156.54 L 712.063,1156.54 L 702.992,1156.54 L 693.921,1156.54 L 684.85,1156.54 L 675.78,1156.54 L 666.709,1156.54 L 657.638,1156.54 L 648.567,1156.54 L 639.496,1156.54 L 630.425,1156.54 L 621.354,1156.54 L 612.283,1156.54 L 603.213,1156.54 L 594.142,1156.54 L 585.071,1156.54 L 576,1156.54 L 566.929,1156.54 L 557.858,1156.54 L 548.787,1156.54 L 539.717,1156.54 L 530.646,1156.54 L 521.575,1156.54 L 512.504,1156.54 L 503.433,1156.54 L 494.362,1156.54 L 485.291,1156.54 L 476.22,1156.54 L 467.15,1156.54 L 458.079,1156.54 L 449.008,1156.54 L 439.937,1156.54 L 430.866,1156.54 L 421.795,1156.54 L 412.724,1156.54 L 403.654,1156.54 L 394.583,1156.54 L 385.512,1156.54 L 376.441,1156.54 L 367.37,1156.54 L 358.299,1156.54 L 349.228,1156.54 L 340.157,1156.54 L 331.087,1156.54 L 322.016,1156.54 L 312.945,1156.54 L 303.874,1156.54 L 294.803,1156.54 L 285.732,1156.54 L 276.661,1156.54 L 267.591,1156.54 L 258.52,1156.54 L 249.449,1156.54 L 240.378,1156.54 L 231.307,1156.54 L 222.236,1156.54 L 213.165,1156.54 L 204.094,1156.54 L 195.024,1156.54 L 185.953,1156.54 L 176.882,1156.54 L 167.811,1156.54 L 158.74,1156.54 L 149.669,1156.54 L 140.598,1156.54 L 131.528,1156.54 L 122.457,1156.54 L 113.386,1156.54 L 104.315,1156.54 L 95.2441,1156.54 L 86.1732,1156.54 L 77.1024,1156.54 L 68.0315,1156.54 L 58.9606,1156.54 L 49.8898,1156.54 L 40.8189,1156.54 L 31.748,1156.54 L 22.6772,1156.54 L 13.6063,1156.54 L 4.53543,1156.54 L 4.53543,1147.46 L 13.6063,1147.46 L 22.6772,1147.46 L 31.748,1147.46 L 40.8189,1147.46 L 49.8898,1156.54 L 58.9606,1156.54 L 68.0315,1156.54 L 77.1024,1156.54 L 86.1732,1156.54 L 95.2441,1156.54 L 104.315,1156.54 L 113.386,1156.54 L 122.457,1156.54 L 131.528,1156.54 L 140.598,1156.54 L 149.669,1156.54 L 158.74,1156.54 L 167.811,1156.54 L 176.882,1156.54 L 185.953,1156.54 L 195.024,1156.54 L 204.094,1147.46 L 204.094,1138.39 L 204.094,1129.32 L 204.094,1120.25 L 204.094,1111.18 L 213.165,1111.18 L 222.236,1102.11 L 231.307,1102.11 L 240.378,1102.11 L 249.449,1102.11 L 249.449,1111.18 L 240.378,1120.25 L 231.307,1129.32 L 231.307,1138.39 L 231.307,1147.46 L 240.378,1156.54 L 249.449,1156.54 L 258.52,1156.54 L 267.591,1156.54 L 276.661,1156.54 L 285.732,1156.54 L 294.803,1156.54 L 303.874,1156.54 L 312.945,1156.54 L 322.016,1156.54 L 331.087,1156.54 L 340.157,1156.54 L 349.228,1156.54 L 358.299,1156.54 L 367.37,1147.46 L 376.441,1147.46 L 385.512,1138.39 L 385.512,1129.32 L 385.512,1120.25 L 394.583,1120.25 L 403.654,1111.18 L 403.654,1102.11 L 403.654,1093.04 L 403.654,1083.97 L 394.583,1074.9 L 385.512,1074.9 L 385.512,1065.83 L 394.583,1065.83 L 403.654,1056.76 L 403.654,1047.69 L 394.583,1038.61 L 385.512,1038.61 L 376.441,1029.54 L 367.37,1029.54 L 367.37,1020.47 L 367.37,1011.4 L 367.37,1002.33 L 376.441,1002.33 L 385.512,993.26 L 394.583,993.26 L 403.654,984.189 L 412.724,984.189 L 421.795,975.118 L 421.795,966.047 L 421.795,956.976 L 430.866,956.976 L 439.937,947.906 L 449.008,947.906 L 458.079,938.835 L 458.079,929.764 L 458.079,920.693 L 458.079,911.622 L 467.15,920.693 L 476.22,911.622 L 485.291,911.622 L 494.362,902.551 L 494.362,893.48 L 494.362,884.409 L 494.362,875.339 L 494.362,866.268 L 494.362,857.197 L 485.291,848.126 L 485.291,839.055 L 494.362,829.984 z " style="fill-opacity:0.5;fill:rgb(253,0,0);stroke:rgb(253,0,0);stroke-width:2"/></g>
<g fill-rule="evenodd"><path d="M 1156.54,1156.54 L 966.047,1156.54 L 956.976,1111.18 L 938.835,1102.11 L 911.622,1102.11 L 911.622,1120.25 L 929.764,1129.32 L 920.693,1156.54 L 784.63,1156.54 L 757.417,1129.32 L 757.417,1102.11 L 775.559,1093.04 L 775.559,1065.83 L 757.417,1047.69 L 793.701,1029.54 L 793.701,1002.33 L 748.346,984.189 L 739.276,956.976 L 666.709,902.551 L 666.709,829.984 L 648.567,829.984 L 657.638,848.126 L 639.496,866.268 L 521.575,866.268 L 503.433,848.126 L 512.504,829.984 L 485.291,839.055 L 494.362,902.551 L 467.15,920.693 L 458.079,911.622 L 458.079,938.835 L 421.795,956.976 L 412.724,984.189 L 367.37,1002.33 L 367.37,1029.54 L 403.654,1047.69 L 385.512,1065.83 L 403.654,1083.97 L 403.654,1111.18 L 358.299,1156.54 L 240.378,1156.54 L 231.307,1129.32 L 249.449,1102.11 L 204.094,1111.18 L 195.024,1156.54 L 4.53543,1147.46 L 1156.54,1156.54 z " style="fill-opacity:0.5;fill:rgb(0,253,0);stroke:rgb(0,0,0);stroke-width:5"/></g>
<g fill-rule="evenodd"><path d="M 113.386,866.268 L 122.457,866.268 L 131.528,866.268 L 140.598,866.268 L 149.669,875.339 L 158.74,875.339 L 167.811,884.409 L 176.882,884.409 L 185.953,893.48 L 195.024,893.48 L 195.024,902.551 L 195.024,911.622 L 204.094,920.693 L 213.165,911.622 L 213.165,920.693 L 222.236,929.764 L 231.307,929.764 L 231.307,938.835 L 240.378,947.906 L 249.449,947.906 L 249.449,956.976 L 258.52,966.047 L 267.591,966.047 L 276.661,975.118 L 285.732,975.118 L 285.732,984.189 L 285.732,993.26 L 285.732,1002.33 L 285.732,1011.4 L 285.732,1020.47 L 276.661,1029.54 L 267.591,1029.54 L 258.52,1038.61 L 249.449,1047.69 L 249.449,1056.76 L 240.378,1065.83 L 231.307,1065.83 L 231.307,1056.76 L 222.236,1047.69 L 222.236,1038.61 L 222.236,1029.54 L 231.307,1029.54 L 240.378,1020.47 L 249.449,1020.47 L 258.52,1011.4 L 258.52,1002.33 L 258.52,993.26 L 249.449,984.189 L 240.378,975.118 L 231.307,975.118 L 222.236,966.047 L 213.165,966.047 L 204.094,956.976 L 204.094,947.906 L 195.024,938.835 L 185.953,929.764 L 176.882,929.764 L 167.811,929.764 L 167.811,920.693 L 167.811,911.622 L 158.74,902.551 L 149.669,893.48 L 140.598,893.48 L 131.528,884.409 L 122.457,884.409 L 113.386,893.48 L 104.315,893.48 L 95.2441,902.551 L 86.1732,902.551 L 77.1024,911.622 L 68.0315,911.622 L 58.9606,902.551 L 49.8898,902.551 L 40.8189,893.48 L 31.748,893.48 L 22.6772,902.551 L 13.6063,902.551 L 4.53543,893.48 L 4.53543,884.409 L 4.53543,875.339 L 13.6063,875.339 L 22.6772,875.339 L 31.748,875.339 L 40.8189,875.339 L 49.8898,875.339 L 58.9606,884.409 L 68.0315,884.409 L 77.1024,884.409 L 86.1732,884.409 L 95.2441,875.339 L 104.315,875.339 L 113.386,866.268 z " style="fill-opacity:0.5;fill:rgb(253,0,0);stroke:rgb(253,0,0);stroke-width:2"/></g>
<g fill-rule="evenodd"><path d="M 240.378,1065.83 L 285.732,1020.47 L 285.732,975.118 L 258.52,966.047 L 213.165,911.622 L 204.094,920.693 L 195.024,893.48 L 140.598,866.268 L 86.1732,884.409 L 4.53543,875.339 L 13.6063,902.551 L 40.8189,893.48 L 68.0315,911.622 L 122.457,884.409 L 149.669,893.48 L 167.811,929.764 L 185.953,929.764 L 213.165,966.047 L 258.52,993.26 L 258.52,1011.4 L 222.236,1029.54 L 240.378,1065.83 z " style="fill-opacity:0.5;fill:rgb(0,253,0);stroke:rgb(0,0,0);stroke-width:5"/></g>
<g fill-rule="evenodd"><path d="M 1020.47,866.268 L 1029.54,866.268 L 1038.61,866.268 L 1047.69,866.268 L 1056.76,875.339 L 1065.83,875.339 L 1074.9,884.409 L 1083.97,884.409 L 1093.04,884.409 L 1102.11,884.409 L 1111.18,875.339 L 1120.25,875.339 L 1129.32,875.339 L 1138.39,875.339 L 1147.46,875.339 L 1156.54,875.339 L 1156.54,884.409 L 1156.54,893.48 L 1147.46,902.551 L 1138.39,902.551 L 1129.32,893.48 L 1120.25,893.48 L 1111.18,902.551 L 1102.11,902.551 L 1093.04,911.622 L 1083.97,911.622 L 1074.9,902.551 L 1065.83,902.551 L 1056.76,893.48 L 1047.69,893.48 L 1038.61,884.409 L 1029.54,884.409 L 1020.47,893.48 L 1011.4,893.48 L 1002.33,902.551 L 993.26,911.622 L 993.26,920.693 L 984.189,929.764 L 975.118,929.764 L 966.047,938.835 L 956.976,947.906 L 956.976,956.976 L 956.976,966.047 L 947.906,966.047 L 938.835,966.047 L 929.764,975.118 L 920.693,975.118 L 911.622,984.189 L 902.551,993.26 L 902.551,1002.33 L 902.551,1011.4 L 911.622,1020.47 L 920.693,1020.47 L 929.764,1029.54 L 938.835,1029.54 L 938.835,1038.61 L 938.835,1047.69 L 929.764,1056.76 L 929.764,1065.83 L 920.693,1065.83 L 911.622,1065.83 L 911.622,1056.76 L 911.622,1047.69 L 902.551,1038.61 L 893.48,1029.54 L 884.409,1029.54 L 875.339,1020.47 L 875.339,1011.4 L 875.339,1002.33 L 875.339,993.26 L 875.339,984.189 L 875.339,975.118 L 884.409,975.118 L 893.48,966.047 L 902.551,966.047 L 911.622,956.976 L 911.622,947.906 L 920.693,947.906 L 929.764,938.835 L 929.764,929.764 L 938.835,929.764 L 947.906,920.693 L 947.906,911.622 L 956.976,911.622 L 966.047,902.551 L 966.047,893.48 L 975.118,893.48 L 984.189,884.409 L 993.26,884.409 L 1002.33,875.339 L 1011.4,875.339 L 1020.47,866.268 z " style="fill-opacity:0.5;fill:rgb(253,0,0);stroke:rgb(253,0,0);stroke-width:2"/></g>
<g fill-rule="evenodd"><path d="M 911.622,1065.83 L 929.764,1065.83 L 938.835,1029.54 L 911.622,1020.47 L 902.551,993.26 L 956.976,966.047 L 956.976,947.906 L 1011.4,893.48 L 1038.61,884.409 L 1093.04,911.622 L 1120.25,893.48 L 1147.46,902.551 L 1156.54,875.339 L 1074.9,884.409 L 1020.47,866.268 L 966.047,893.48 L 902.551,966.047 L 875.339,975.118 L 875.339,1020.47 L 911.622,1047.69 L 911.622,1065.83 z " style="fill-opacity:0.5;fill:rgb(0,253,0);stroke:rgb(0,0,0);stroke-width:5"/></g>
<g fill-rule="evenodd"><path d="M 349.228,902.551 L 358.299,902.551 L 349.228,902.551M 675.78,920.693 L 666.709,929.764 L 675.78,938.835 L 684.85,929.764 L 675.78,920.693 z " style="fill-opacity:0.5;fill:rgb(253,0,0);stroke:rgb(253,0,0);stroke-width:2"/></g>
<g fill-rule="evenodd"><path d="M 358.299,902.551 z " style="fill-opacity:0.5;fill:rgb(0,253,0);stroke:rgb(0,0,0);stroke-width:5"/></g>
<g fill-rule="evenodd"><path d="M 857.197,920.693 L 866.268,920.693 L 857.197,920.693M 530.646,956.976 L 521.575,966.047 L 530.646,975.118 L 539.717,966.047 L 530.646,956.976M 630.425,956.976 L 621.354,966.047 L 630.425,975.118 L 639.496,966.047 L 630.425,956.976M 566.929,975.118 L 557.858,984.189 L 548.787,984.189 L 539.717,993.26 L 530.646,993.26 L 521.575,1002.33 L 521.575,1011.4 L 530.646,1020.47 L 539.717,1020.47 L 548.787,1020.47 L 557.858,1020.47 L 566.929,1020.47 L 576,1020.47 L 585.071,1020.47 L 594.142,1020.47 L 603.213,1011.4 L 612.283,1011.4 L 621.354,1011.4 L 630.425,1011.4 L 639.496,1002.33 L 630.425,993.26 L 621.354,993.26 L 612.283,984.189 L 603.213,984.189 L 594.142,975.118 L 585.071,975.118 L 576,975.118 L 566.929,975.118M 494.362,993.26 L 485.291,1002.33 L 494.362,1011.4 L 503.433,1002.33 L 494.362,993.26M 666.709,993.26 L 657.638,1002.33 L 666.709,1011.4 L 675.78,1002.33 L 666.709,993.26M 494.362,1020.47 L 485.291,1029.54 L 494.362,1038.61 L 503.433,1038.61 L 512.504,1029.54 L 503.433,1020.47 L 494.362,1020.47M 603.213,1029.54 L 594.142,1038.61 L 585.071,1038.61 L 576,1038.61 L 566.929,1038.61 L 557.858,1038.61 L 548.787,1038.61 L 539.717,1038.61 L 530.646,1038.61 L 521.575,1047.69 L 521.575,1056.76 L 512.504,1056.76 L 503.433,1065.83 L 503.433,1074.9 L 503.433,1083.97 L 503.433,1093.04 L 512.504,1102.11 L 521.575,1102.11 L 521.575,1111.18 L 512.504,1111.18 L 503.433,1120.25 L 503.433,1129.32 L 503.433,1138.39 L 512.504,1147.46 L 521.575,1147.46 L 530.646,1156.54 L 539.717,1156.54 L 548.787,1156.54 L 557.858,1156.54 L 566.929,1156.54 L 576,1156.54 L 585.071,1156.54 L 594.142,1156.54 L 603.213,1156.54 L 612.283,1156.54 L 621.354,1156.54 L 630.425,1156.54 L 639.496,1147.46 L 648.567,1147.46 L 657.638,1138.39 L 657.638,1129.32 L 657.638,1120.25 L 648.567,1111.18 L 639.496,1111.18 L 639.496,1102.11 L 648.567,1102.11 L 657.638,1093.04 L 666.709,1093.04 L 675.78,1083.97 L 675.78,1074.9 L 666.709,1065.83 L 657.638,1065.83 L 657.638,1056.76 L 657.638,1047.69 L 657.638,1038.61 L 648.567,1029.54 L 639.496,1029.54 L 630.425,1029.54 L 621.354,1029.54 L 612.283,1029.54 L 603.213,1029.54M 430.866,1038.61 L 421.795,1047.69 L 430.866,1056.76 L 439.937,1047.69 L 430.866,1038.61M 730.205,1038.61 L 721.134,1047.69 L 730.205,1056.76 L 739.276,1047.69 L 730.205,1038.61 z " style="fill-opacity:0.5;fill:rgb(253,0,0);stroke:rgb(253,0,0);stroke-width:2"/></g>
<g fill-rule="evenodd"><path d="M 866.268,920.693M 639.496,1002.33 L 594.142,1020.47 L 521.575,1011.4 L 566.929,975.118 L 594.142,975.118 L 639.496,1002.33M 494.362,1020.47 L 512.504,1029.54 L 494.362,1038.61 L 494.362,1020.47M 512.504,1147.46 L 503.433,1120.25 L 521.575,1102.11 L 503.433,1093.04 L 503.433,1065.83 L 530.646,1038.61 L 657.638,1038.61 L 657.638,1065.83 L 675.78,1083.97 L 639.496,1102.11 L 657.638,1120.25 L 648.567,1147.46 L 512.504,1147.46 z " style="fill-opacity:0.5;fill:rgb(0,253,0);stroke:rgb(0,0,0);stroke-width:5"/></g>
<g fill-rule="evenodd"><path d="M 512.504,1047.69 L 521.575,1047.69 L 530.646,1038.61 L 521.575,1029.54 L 512.504,1029.54 L 503.433,1038.61 L 512.504,1047.69M 430.866,1074.9 L 421.795,1083.97 L 430.866,1093.04 L 439.937,1083.97 L 430.866,1074.9M 730.205,1093.04 L 721.134,1102.11 L 730.205,1111.18 L 739.276,1102.11 L 730.205,1093.04 z " style="fill-opacity:0.5;fill:rgb(253,0,0);stroke:rgb(253,0,0);stroke-width:2"/></g>
<g fill-rule="evenodd"><path d="M 512.504,1047.69 L 530.646,1038.61 L 512.504,1029.54 L 512.504,1047.69 z " style="fill-opacity:0.5;fill:rgb(0,253,0);stroke:rgb(0,0,0);stroke-width:5"/></g>
</svg>
