<?xml version="1.0" standalone="no"?>
<!DOCTYPE svg PUBLIC "-//W3C//DTD SVG 1.1//EN"
"http://www.w3.org/Graphics/SVG/1.1/DTD/svg11.dtd">
<svg width="100%" height="100%" version="1.1"
xmlns="http://www.w3.org/2000/svg"
xmlns:xlink="http://www.w3.org/1999/xlink">
<g fill-rule="evenodd"><path d="M 240.378,4.53543 L 249.449,4.53543 L 258.52,4.53543 L 267.591,4.53543 L 276.661,4.53543 L 285.732,4.53543 L 294.803,4.53543 L 285.732,4.53543 L 276.661,13.6063 L 267.591,22.6772 L 267.591,31.748 L 267.591,40.8189 L 267.591,49.8898 L 267.591,58.9606 L 267.591,68.0315 L 267.591,77.1024 L 267.591,86.1732 L 258.52,95.2441 L 249.449,104.315 L 249.449,113.386 L 249.449,122.457 L 249.449,131.528 L 249.449,140.598 L 258.52,149.669 L 267.591,149.669 L 276.661,158.74 L 285.732,158.74 L 285.732,167.811 L 285.732,176.882 L 285.732,185.953 L 285.732,195.024 L 294.803,204.094 L 303.874,204.094 L 312.945,204.094 L 322.016,204.094 L 331.087,204.094 L 340.157,204.094 L 349.228,213.165 L 358.299,213.165 L 367.37,222.236 L 376.441,222.236 L 385.512,231.307 L 394.583,231.307 L 403.654,240.378 L 412.724,240.378 L 421.795,240.378 L 430.866,240.378 L 439.937,231.307 L 449.008,231.307 L 458.079,231.307 L 467.15,231.307 L 476.22,231.307 L 485.291,231.307 L 494.362,231.307 L 503.433,231.307 L 512.504,240.378 L 521.575,240.378 L 530.646,240.378 L 539.717,240.378 L 548.787,231.307 L 557.858,231.307 L 566.929,222.236 L 566.929,213.165 L 566.929,204.094 L 566.929,195.024 L 566.929,185.953 L 576,185.953 L 585.071,176.882 L 585.071,167.811 L 585.071,158.74 L 585.071,149.669 L 585.071,140.598 L 594.142,140.598 L 603.213,131.528 L 612.283,131.528 L 621.354,122.457 L 621.354,113.386 L 621.354,104.315 L 630.425,104.315 L 639.496,95.2441 L 648.567,95.2441 L 657.638,95.2441 L 666.709,95.2441 L 675.78,104.315 L 684.85,104.315 L 684.85,113.386 L 675.78,122.457 L 666.709,122.457 L 657.638,131.528 L 648.567,131.528 L 639.496,140.598 L 630.425,140.598 L 621.354,149.669 L 612.283,158.74 L 612.283,167.811 L 612.283,176.882 L 612.283,185.953 L 612.283,195.024 L 603.213,195.024 L 594.142,204.094 L 594.142,213.165 L 594.142,222.236 L 594.142,231.307 L 594.142,240.378 L 585.071,240.378 L 576,240.378 L 566.929,249.449 L 557.858,258.52 L 557.858,267.591 L 548.787,276.661 L 539.717,276.661 L 530.646,267.591 L 521.575,267.591 L 512.504,258.52 L 503.433,258.52 L 494.362,249.449 L 485.291,249.449 L 476.22,258.52 L 467.15,258.52 L 458.079,249.449 L 449.008,249.449 L 439.937,258.52 L 430.866,258.52 L 421.795,267.591 L 412.724,276.661 L 412.724,285.732 L 412.724,294.803 L 412.724,303.874 L 412.724,312.945 L 412.724,322.016 L 403.654,331.087 L 394.583,331.087 L 385.512,322.016 L 376.441,322.016 L 367.37,312.945 L 367.37,303.874 L 367.37,294.803 L 367.37,285.732 L 367.37,276.661 L 367.37,267.591 L 358.299,258.52 L 349.228,249.449 L 340.157,249.449 L 331.087,240.378 L 322.016,240.378 L 312.945,249.449 L 303.874,249.449 L 294.803,240.378 L 285.732,240.378 L 276.661,231.307 L 267.591,231.307 L 258.52,240.378 L 249.449,240.378 L 240.378,240.378 L 231.307,249.449 L 222.236,258.52 L 213.165,267.591 L 213.165,276.661 L 213.165,285.732 L 222.236,294.803 L 231.307,294.803 L 240.378,303.874 L 249.449,303.874 L 249.449,312.945 L 249.449,322.016 L 249.449,331.087 L 249.449,340.157 L 249.449,349.228 L 249.449,358.299 L 240.378,358.299 L 231.307,367.37 L 231.307,376.441 L 231.307,385.512 L 231.307,394.583 L 231.307,403.654 L 231.307,412.724 L 231.307,421.795 L 222.236,421.795 L 213.165,421.795 L 204.094,430.866 L 195.024,430.866 L 185.953,421.795 L 176.882,421.795 L 167.811,412.724 L 158.74,412.724 L 149.669,403.654 L 149.669,394.583 L 149.669,385.512 L 149.669,376.441 L 158.74,376.441 L 167.811,367.37 L 167.811,358.299 L 167.811,349.228 L 167.811,340.157 L 167.811,331.087 L 176.882,331.087 L 185.953,322.016 L 185.953,312.945 L 185.953,303.874 L 176.882,294.803 L 167.811,294.803 L 167.811,285.732 L 167.811,276.661 L 167.811,267.591 L 167.811,258.52 L 158.74,249.449 L 149.669,240.378 L 140.598,240.378 L 131.528,249.449 L 122.457,249.449 L 113.386,240.378 L 104.315,240.378 L 95.2441,249.449 L 86.1732,249.449 L 77.1024,240.378 L 68.0315,240.378 L 58.9606,249.449 L 49.8898,249.449 L 40.8189,258.52 L 31.748,258.52 L 22.6772,267.591 L 13.6063,267.591 L 4.53543,276.661 L 4.53543,267.591 L 4.53543,258.52 L 4.53543,249.449 L 13.6063,249.449 L 22.6772,240.378 L 31.748,240.378 L 40.8189,231.307 L 49.8898,231.307 L 58.9606,222.236 L 68.0315,222.236 L 77.1024,222.236 L 86.1732,222.236 L 95.2441,222.236 L 104.315,222.236 L 113.386,222.236 L 122.457,222.236 L 131.528,222.236 L 140.598,222.236 L 149.669,213.165 L 158.74,213.165 L 167.811,213.165 L 176.882,213.165 L 185.953,204.094 L 185.953,195.024 L 195.024,195.024 L 204.094,185.953 L 213.165,185.953 L 222.236,176.882 L 231.307,176.882 L 240.378,167.811 L 231.307,158.74 L 222.236,149.669 L 213.165,149.669 L 204.094,149.669 L 204.094,140.598 L 204.094,131.528 L 204.094,122.457 L 204.094,113.386 L 204.094,104.315 L 204.094,95.2441 L 213.165,95.2441 L 222.236,86.1732 L 222.236,77.1024 L 222.236,68.0315 L 222.236,58.9606 L 222.236,49.8898 L 222.236,40.8189 L 222.236,31.748 L 222.236,22.6772 L 222.236,13.6063 L 231.307,13.6063 L 240.378,4.53543 z " style="fill-opacity:0.5;fill:rgb(253,0,0);stroke:rgb(253,0,0);stroke-width:2"/></g>
<g fill-rule="evenodd"><path d="M 684.85,113.386 L 666.709,95.2441 L 621.354,104.315 L 621.354,122.457 L 585.071,140.598 L 566.929,222.236 L 539.717,240.378 L 403.654,240.378 L 340.157,204.094 L 285.732,195.024 L 285.732,158.74 L 249.449,140.598 L 249.449,104.315 L 267.591,86.1732 L 267.591,22.6772 L 294.803,4.53543 L 240.378,4.53543 L 222.236,13.6063 L 222.236,86.1732 L 204.094,95.2441 L 204.094,149.669 L 240.378,167.811 L 185.953,195.024 L 176.882,213.165 L 58.9606,222.236 L 4.53543,249.449 L 4.53543,276.661 L 68.0315,240.378 L 149.669,240.378 L 167.811,258.52 L 167.811,294.803 L 185.953,303.874 L 185.953,322.016 L 167.811,331.087 L 167.811,367.37 L 149.669,376.441 L 149.669,403.654 L 204.094,430.866 L 231.307,421.795 L 231.307,367.37 L 249.449,358.299 L 249.449,303.874 L 213.165,285.732 L 213.165,267.591 L 240.378,240.378 L 276.661,231.307 L 303.874,249.449 L 349.228,249.449 L 367.37,267.591 L 367.37,312.945 L 403.654,331.087 L 412.724,276.661 L 449.008,249.449 L 494.362,249.449 L 548.787,276.661 L 576,240.378 L 594.142,240.378 L 612.283,158.74 L 684.85,113.386 z " style="fill-opacity:0.5;fill:rgb(0,253,0);stroke:rgb(0,0,0);stroke-width:5"/></g>
<g fill-rule="evenodd"><path d="M 639.496,4.53543 L 648.567,4.53543 L 657.638,4.53543 L 666.709,4.53543 L 666.709,13.6063 L 657.638,13.6063 L 648.567,22.6772 L 648.567,31.748 L 648.567,40.8189 L 639.496,40.8189 L 630.425,40.8189 L 621.354,40.8189 L 621.354,31.748 L 621.354,22.6772 L 621.354,13.6063 L 630.425,13.6063 L 639.496,4.53543 z " style="fill-opacity:0.5;fill:rgb(253,0,0);stroke:rgb(253,0,0);stroke-width:2"/></g>
<g fill-rule="evenodd"><path d="M 621.354,40.8189 L 648.567,40.8189 L 666.709,4.53543 L 621.354,13.6063 L 621.354,40.8189 z " style="fill-opacity:0.5;fill:rgb(0,253,0);stroke:rgb(0,0,0);stroke-width:5"/></g>
<g fill-rule="evenodd"><path d="M 748.346,4.53543 L 757.417,4.53543 L 766.488,4.53543 L 775.559,4.53543 L 775.559,13.6063 L 766.488,13.6063 L 757.417,13.6063 L 748.346,13.6063 L 748.346,4.53543 z " style="fill-opacity:0.5;fill:rgb(253,0,0);stroke:rgb(253,0,0);stroke-width:2"/></g>
<g fill-rule="evenodd"><path d=" z " style="fill-opacity:0.5;fill:rgb(0,253,0);stroke:rgb(0,0,0);stroke-width:5"/></g>
<g fill-rule="evenodd"><path d="M 902.551,4.53543 L 911.622,4.53543 L 920.693,4.53543 L 929.764,4.53543 L 938.835,4.53543 L 947.906,4.53543 L 956.976,4.53543 L 956.976,13.6063 L 956.976,22.6772 L 956.976,31.748 L 956.976,40.8189 L 966.047,49.8898 L 975.118,49.8898 L 975.118,58.9606 L 975.118,68.0315 L 975.118,77.1024 L 975.118,86.1732 L 975.118,95.2441 L 975.118,104.315 L 975.118,113.386 L 975.118,122.457 L 975.118,131.528 L 975.118,140.598 L 975.118,149.669 L 966.047,158.74 L 956.976,158.74 L 947.906,167.811 L 938.835,176.882 L 938.835,185.953 L 938.835,195.024 L 938.835,204.094 L 938.835,213.165 L 938.835,222.236 L 947.906,231.307 L 956.976,231.307 L 966.047,231.307 L 975.118,231.307 L 984.189,240.378 L 993.26,240.378 L 1002.33,249.449 L 1011.4,249.449 L 1020.47,249.449 L 1029.54,249.449 L 1038.61,249.449 L 1047.69,249.449 L 1056.76,249.449 L 1065.83,249.449 L 1074.9,249.449 L 1083.97,249.449 L 1093.04,249.449 L 1102.11,249.449 L 1111.18,249.449 L 1120.25,249.449 L 1129.32,258.52 L 1138.39,258.52 L 1147.46,267.591 L 1156.54,267.591 L 1156.54,276.661 L 1156.54,285.732 L 1156.54,294.803 L 1147.46,285.732 L 1138.39,285.732 L 1129.32,276.661 L 1120.25,276.661 L 1111.18,267.591 L 1102.11,267.591 L 1093.04,276.661 L 1083.97,276.661 L 1074.9,267.591 L 1065.83,267.591 L 1056.76,276.661 L 1047.69,276.661 L 1038.61,267.591 L 1029.54,267.591 L 1020.47,276.661 L 1011.4,276.661 L 1002.33,285.732 L 993.26,294.803 L 993.26,303.874 L 993.26,312.945 L 993.26,322.016 L 993.26,331.087 L 993.26,340.157 L 993.26,349.228 L 993.26,358.299 L 984.189,367.37 L 975.118,367.37 L 966.047,376.441 L 956.976,385.512 L 956.976,394.583 L 956.976,403.654 L 956.976,412.724 L 947.906,421.795 L 938.835,421.795 L 929.764,430.866 L 920.693,439.937 L 929.764,449.008 L 938.835,449.008 L 938.835,458.079 L 938.835,467.15 L 938.835,476.22 L 938.835,485.291 L 938.835,494.362 L 938.835,503.433 L 938.835,512.504 L 938.835,521.575 L 938.835,530.646 L 938.835,539.717 L 929.764,539.717 L 920.693,548.787 L 920.693,557.858 L 920.693,566.929 L 920.693,576 L 920.693,585.071 L 920.693,594.142 L 920.693,603.213 L 929.764,612.283 L 938.835,612.283 L 947.906,621.354 L 956.976,621.354 L 966.047,630.425 L 975.118,630.425 L 984.189,630.425 L 993.26,630.425 L 1002.33,630.425 L 1011.4,630.425 L 1020.47,639.496 L 1020.47,648.567 L 1020.47,657.638 L 1011.4,657.638 L 1002.33,666.709 L 993.26,666.709 L 984.189,657.638 L 975.118,657.638 L 966.047,648.567 L 956.976,648.567 L 947.906,639.496 L 938.835,639.496 L 929.764,630.425 L 920.693,630.425 L 911.622,621.354 L 902.551,621.354 L 893.48,621.354 L 893.48,612.283 L 893.48,603.213 L 893.48,594.142 L 893.48,585.071 L 893.48,576 L 893.48,566.929 L 884.409,557.858 L 875.339,566.929 L 866.268,566.929 L 857.197,566.929 L 857.197,557.858 L 857.197,548.787 L 866.268,548.787 L 875.339,539.717 L 884.409,539.717 L 893.48,530.646 L 902.551,530.646 L 911.622,521.575 L 911.622,512.504 L 911.622,503.433 L 911.622,494.362 L 911.622,485.291 L 911.622,476.22 L 911.622,467.15 L 902.551,458.079 L 893.48,449.008 L 884.409,449.008 L 875.339,439.937 L 866.268,439.937 L 857.197,430.866 L 848.126,430.866 L 839.055,439.937 L 829.984,439.937 L 820.913,430.866 L 811.843,430.866 L 802.772,439.937 L 793.701,439.937 L 784.63,430.866 L 784.63,421.795 L 793.701,421.795 L 802.772,412.724 L 811.843,412.724 L 820.913,412.724 L 829.984,412.724 L 839.055,412.724 L 848.126,412.724 L 857.197,412.724 L 866.268,412.724 L 875.339,412.724 L 884.409,412.724 L 893.48,403.654 L 893.48,394.583 L 893.48,385.512 L 893.48,376.441 L 893.48,367.37 L 902.551,367.37 L 911.622,358.299 L 920.693,358.299 L 929.764,349.228 L 929.764,340.157 L 929.764,331.087 L 929.764,322.016 L 929.764,312.945 L 929.764,303.874 L 929.764,294.803 L 920.693,285.732 L 911.622,276.661 L 902.551,276.661 L 893.48,267.591 L 884.409,258.52 L 875.339,258.52 L 866.268,258.52 L 857.197,249.449 L 848.126,249.449 L 839.055,258.52 L 829.984,258.52 L 820.913,249.449 L 811.843,249.449 L 802.772,240.378 L 793.701,240.378 L 784.63,231.307 L 775.559,231.307 L 766.488,222.236 L 757.417,222.236 L 748.346,213.165 L 748.346,204.094 L 739.276,195.024 L 739.276,185.953 L 739.276,176.882 L 748.346,167.811 L 757.417,167.811 L 766.488,158.74 L 775.559,158.74 L 784.63,158.74 L 793.701,158.74 L 802.772,167.811 L 811.843,167.811 L 820.913,176.882 L 829.984,176.882 L 829.984,185.953 L 829.984,195.024 L 829.984,204.094 L 839.055,213.165 L 848.126,213.165 L 857.197,213.165 L 866.268,213.165 L 875.339,213.165 L 884.409,213.165 L 893.48,204.094 L 893.48,195.024 L 893.48,185.953 L 893.48,176.882 L 893.48,167.811 L 902.551,167.811 L 911.622,158.74 L 920.693,158.74 L 929.764,149.669 L 929.764,140.598 L 929.764,131.528 L 929.764,122.457 L 929.764,113.386 L 929.764,104.315 L 929.764,95.2441 L 929.764,86.1732 L 929.764,77.1024 L 929.764,68.0315 L 929.764,58.9606 L 920.693,49.8898 L 911.622,49.8898 L 911.622,40.8189 L 911.622,31.748 L 911.622,22.6772 L 911.622,13.6063 L 902.551,4.53543M 213.165,204.094 L 204.094,213.165 L 195.024,213.165 L 185.953,213.165 L 176.882,222.236 L 176.882,231.307 L 185.953,240.378 L 195.024,240.378 L 204.094,240.378 L 213.165,240.378 L 222.236,240.378 L 231.307,240.378 L 240.378,231.307 L 240.378,222.236 L 231.307,213.165 L 222.236,204.094 L 213.165,204.094M 902.551,222.236 L 893.48,231.307 L 884.409,240.378 L 884.409,249.449 L 893.48,258.52 L 902.551,258.52 L 911.622,258.52 L 920.693,258.52 L 929.764,258.52 L 938.835,258.52 L 947.906,249.449 L 947.906,240.378 L 938.835,231.307 L 929.764,231.307 L 920.693,231.307 L 911.622,222.236 L 902.551,222.236 z " style="fill-opacity:0.5;fill:rgb(253,0,0);stroke:rgb(253,0,0);stroke-width:2"/></g>
<g fill-rule="evenodd"><path d="M 1002.33,666.709 L 1020.47,657.638 L 1011.4,630.425 L 966.047,630.425 L 920.693,603.213 L 920.693,548.787 L 938.835,539.717 L 938.835,449.008 L 920.693,439.937 L 993.26,358.299 L 993.26,294.803 L 1011.4,276.661 L 1111.18,267.591 L 1156.54,294.803 L 1156.54,267.591 L 1120.25,249.449 L 1002.33,249.449 L 938.835,222.236 L 938.835,176.882 L 975.118,149.669 L 975.118,49.8898 L 956.976,40.8189 L 956.976,4.53543 L 902.551,4.53543 L 911.622,49.8898 L 929.764,58.9606 L 929.764,149.669 L 893.48,167.811 L 893.48,204.094 L 839.055,213.165 L 829.984,176.882 L 793.701,158.74 L 748.346,167.811 L 739.276,195.024 L 757.417,222.236 L 829.984,258.52 L 884.409,258.52 L 929.764,294.803 L 929.764,349.228 L 893.48,367.37 L 884.409,412.724 L 802.772,412.724 L 784.63,430.866 L 857.197,430.866 L 911.622,467.15 L 911.622,521.575 L 857.197,548.787 L 857.197,566.929 L 893.48,566.929 L 893.48,621.354 L 1002.33,666.709M 185.953,240.378 L 185.953,213.165 L 222.236,204.094 L 240.378,222.236 L 231.307,240.378 L 185.953,240.378M 947.906,249.449 L 893.48,258.52 L 884.409,240.378 L 911.622,222.236 L 947.906,249.449 z " style="fill-opacity:0.5;fill:rgb(0,253,0);stroke:rgb(0,0,0);stroke-width:5"/></g>
<g fill-rule="evenodd"><path d="M 4.53543,458.079 L 13.6063,458.079 L 13.6063,467.15 L 4.53543,467.15 L 4.53543,458.079 z " style="fill-opacity:0.5;fill:rgb(253,0,0);stroke:rgb(253,0,0);stroke-width:2"/></g>
<g fill-rule="evenodd"><path d=" z " style="fill-opacity:0.5;fill:rgb(0,253,0);stroke:rgb(0,0,0);stroke-width:5"/></g>
<g fill-rule="evenodd"><path d="M 149.669,503.433 L 158.74,503.433 L 167.811,503.433 L 176.882,503.433 L 185.953,512.504 L 195.024,512.504 L 204.094,521.575 L 213.165,521.575 L 222.236,530.646 L 231.307,530.646 L 240.378,539.717 L 249.449,539.717 L 258.52,548.787 L 267.591,548.787 L 267.591,557.858 L 267.591,566.929 L 267.591,576 L 267.591,585.071 L 267.591,594.142 L 276.661,603.213 L 285.732,603.213 L 294.803,603.213 L 303.874,603.213 L 303.874,612.283 L 303.874,621.354 L 294.803,621.354 L 285.732,621.354 L 276.661,630.425 L 267.591,630.425 L 258.52,639.496 L 249.449,648.567 L 249.449,657.638 L 249.449,666.709 L 249.449,675.78 L 249.449,684.85 L 249.449,693.921 L 249.449,702.992 L 258.52,712.063 L 267.591,712.063 L 276.661,721.134 L 285.732,721.134 L 294.803,730.205 L 303.874,730.205 L 312.945,730.205 L 322.016,730.205 L 331.087,730.205 L 340.157,730.205 L 349.228,730.205 L 358.299,730.205 L 367.37,730.205 L 376.441,730.205 L 376.441,739.276 L 376.441,748.346 L 367.37,748.346 L 358.299,748.346 L 349.228,757.417 L 340.157,757.417 L 331.087,748.346 L 322.016,748.346 L 312.945,757.417 L 303.874,757.417 L 294.803,748.346 L 285.732,748.346 L 276.661,757.417 L 267.591,766.488 L 267.591,775.559 L 267.591,784.63 L 267.591,793.701 L 267.591,802.772 L 258.52,802.772 L 249.449,802.772 L 240.378,811.843 L 231.307,820.913 L 231.307,829.984 L 231.307,839.055 L 231.307,848.126 L 231.307,857.197 L 231.307,866.268 L 231.307,875.339 L 240.378,884.409 L 249.449,884.409 L 258.52,893.48 L 267.591,893.48 L 267.591,902.551 L 276.661,911.622 L 285.732,911.622 L 294.803,911.622 L 303.874,911.622 L 312.945,911.622 L 322.016,911.622 L 331.087,911.622 L 340.157,911.622 L 349.228,920.693 L 358.299,920.693 L 367.37,929.764 L 376.441,929.764 L 385.512,938.835 L 394.583,938.835 L 403.654,947.906 L 412.724,947.906 L 412.724,956.976 L 412.724,966.047 L 421.795,975.118 L 421.795,984.189 L 421.795,993.26 L 412.724,993.26 L 403.654,1002.33 L 394.583,1002.33 L 385.512,1011.4 L 376.441,1011.4 L 367.37,1002.33 L 358.299,1002.33 L 349.228,993.26 L 340.157,993.26 L 331.087,984.189 L 331.087,975.118 L 331.087,966.047 L 331.087,956.976 L 322.016,947.906 L 312.945,956.976 L 303.874,956.976 L 294.803,947.906 L 285.732,947.906 L 276.661,956.976 L 267.591,966.047 L 267.591,975.118 L 267.591,984.189 L 267.591,993.26 L 258.52,1002.33 L 249.449,1002.33 L 240.378,1011.4 L 231.307,1020.47 L 231.307,1029.54 L 231.307,1038.61 L 231.307,1047.69 L 231.307,1056.76 L 231.307,1065.83 L 231.307,1074.9 L 231.307,1083.97 L 231.307,1093.04 L 231.307,1102.11 L 231.307,1111.18 L 240.378,1120.25 L 249.449,1120.25 L 249.449,1129.32 L 249.449,1138.39 L 249.449,1147.46 L 258.52,1156.54 L 267.591,1156.54 L 276.661,1156.54 L 285.732,1156.54 L 294.803,1156.54 L 303.874,1156.54 L 312.945,1156.54 L 322.016,1156.54 L 331.087,1156.54 L 340.157,1156.54 L 349.228,1156.54 L 358.299,1156.54 L 367.37,1156.54 L 376.441,1156.54 L 385.512,1147.46 L 394.583,1147.46 L 403.654,1147.46 L 412.724,1147.46 L 421.795,1156.54 L 430.866,1156.54 L 439.937,1156.54 L 449.008,1156.54 L 458.079,1156.54 L 467.15,1156.54 L 476.22,1156.54 L 485.291,1156.54 L 494.362,1147.46 L 503.433,1147.46 L 512.504,1138.39 L 512.504,1129.32 L 512.504,1120.25 L 521.575,1120.25 L 530.646,1120.25 L 539.717,1120.25 L 539.717,1129.32 L 539.717,1138.39 L 539.717,1147.46 L 548.787,1156.54 L 557.858,1156.54 L 566.929,1156.54 L 576,1156.54 L 585.071,1156.54 L 594.142,1156.54 L 603.213,1156.54 L 612.283,1156.54 L 621.354,1156.54 L 630.425,1156.54 L 639.496,1156.54 L 648.567,1156.54 L 657.638,1156.54 L 666.709,1156.54 L 675.78,1156.54 L 684.85,1156.54 L 693.921,1156.54 L 702.992,1156.54 L 712.063,1156.54 L 721.134,1156.54 L 730.205,1156.54 L 739.276,1156.54 L 748.346,1156.54 L 757.417,1156.54 L 766.488,1156.54 L 775.559,1156.54 L 784.63,1156.54 L 793.701,1156.54 L 802.772,1156.54 L 811.843,1156.54 L 820.913,1156.54 L 829.984,1156.54 L 839.055,1156.54 L 848.126,1156.54 L 857.197,1156.54 L 866.268,1156.54 L 875.339,1156.54 L 884.409,1156.54 L 893.48,1147.46 L 893.48,1138.39 L 893.48,1129.32 L 893.48,1120.25 L 893.48,1111.18 L 893.48,1102.11 L 893.48,1093.04 L 893.48,1083.97 L 893.48,1074.9 L 902.551,1074.9 L 911.622,1065.83 L 911.622,1056.76 L 911.622,1047.69 L 911.622,1038.61 L 911.622,1029.54 L 902.551,1020.47 L 893.48,1011.4 L 884.409,1011.4 L 875.339,1002.33 L 875.339,993.26 L 875.339,984.189 L 875.339,975.118 L 866.268,966.047 L 857.197,956.976 L 848.126,956.976 L 839.055,966.047 L 829.984,966.047 L 820.913,956.976 L 811.843,956.976 L 802.772,947.906 L 793.701,947.906 L 784.63,938.835 L 775.559,938.835 L 766.488,929.764 L 757.417,929.764 L 748.346,920.693 L 739.276,920.693 L 730.205,929.764 L 721.134,929.764 L 712.063,938.835 L 702.992,938.835 L 693.921,929.764 L 684.85,929.764 L 675.78,938.835 L 666.709,938.835 L 657.638,929.764 L 648.567,929.764 L 639.496,920.693 L 630.425,920.693 L 621.354,929.764 L 612.283,929.764 L 603.213,938.835 L 594.142,947.906 L 594.142,956.976 L 594.142,966.047 L 594.142,975.118 L 594.142,984.189 L 585.071,984.189 L 576,993.26 L 576,1002.33 L 576,1011.4 L 576,1020.47 L 566.929,1029.54 L 557.858,1029.54 L 548.787,1038.61 L 539.717,1047.69 L 539.717,1056.76 L 530.646,1065.83 L 521.575,1065.83 L 512.504,1074.9 L 503.433,1074.9 L 494.362,1065.83 L 485.291,1065.83 L 476.22,1056.76 L 476.22,1047.69 L 485.291,1047.69 L 494.362,1038.61 L 503.433,1038.61 L 512.504,1029.54 L 521.575,1029.54 L 530.646,1020.47 L 539.717,1020.47 L 548.787,1011.4 L 548.787,1002.33 L 548.787,993.26 L 548.787,984.189 L 548.787,975.118 L 557.858,975.118 L 566.929,966.047 L 566.929,956.976 L 566.929,947.906 L 566.929,938.835 L 566.929,929.764 L 576,929.764 L 585.071,920.693 L 594.142,920.693 L 603.213,911.622 L 603.213,902.551 L 603.213,893.48 L 612.283,893.48 L 621.354,893.48 L 630.425,893.48 L 639.496,902.551 L 648.567,902.551 L 657.638,911.622 L 666.709,911.622 L 675.78,911.622 L 684.85,911.622 L 693.921,911.622 L 702.992,911.622 L 712.063,911.622 L 721.134,911.622 L 730.205,902.551 L 739.276,902.551 L 748.346,893.48 L 748.346,884.409 L 748.346,875.339 L 748.346,866.268 L 748.346,857.197 L 748.346,848.126 L 748.346,839.055 L 757.417,839.055 L 766.488,839.055 L 775.559,839.055 L 784.63,848.126 L 793.701,848.126 L 793.701,857.197 L 793.701,866.268 L 793.701,875.339 L 793.701,884.409 L 793.701,893.48 L 793.701,902.551 L 802.772,911.622 L 811.843,911.622 L 820.913,920.693 L 829.984,920.693 L 839.055,920.693 L 848.126,920.693 L 857.197,920.693 L 866.268,920.693 L 875.339,929.764 L 884.409,929.764 L 893.48,929.764 L 902.551,929.764 L 911.622,929.764 L 920.693,929.764 L 929.764,920.693 L 929.764,911.622 L 938.835,911.622 L 947.906,902.551 L 947.906,893.48 L 947.906,884.409 L 938.835,875.339 L 929.764,866.268 L 920.693,866.268 L 911.622,857.197 L 911.622,848.126 L 911.622,839.055 L 911.622,829.984 L 911.622,820.913 L 911.622,811.843 L 920.693,811.843 L 929.764,802.772 L 929.764,793.701 L 929.764,784.63 L 929.764,775.559 L 929.764,766.488 L 929.764,757.417 L 929.764,748.346 L 938.835,748.346 L 947.906,739.276 L 956.976,739.276 L 966.047,739.276 L 975.118,739.276 L 984.189,748.346 L 993.26,748.346 L 1002.33,757.417 L 1011.4,757.417 L 1011.4,766.488 L 1011.4,775.559 L 1011.4,784.63 L 1002.33,793.701 L 993.26,802.772 L 993.26,811.843 L 993.26,820.913 L 993.26,829.984 L 984.189,839.055 L 975.118,848.126 L 975.118,857.197 L 975.118,866.268 L 984.189,875.339 L 993.26,875.339 L 993.26,884.409 L 993.26,893.48 L 993.26,902.551 L 993.26,911.622 L 1002.33,920.693 L 1011.4,920.693 L 1020.47,920.693 L 1029.54,920.693 L 1038.61,920.693 L 1047.69,920.693 L 1056.76,920.693 L 1065.83,920.693 L 1074.9,920.693 L 1083.97,920.693 L 1093.04,920.693 L 1102.11,920.693 L 1111.18,911.622 L 1120.25,911.622 L 1129.32,902.551 L 1138.39,902.551 L 1147.46,893.48 L 1156.54,893.48 L 1156.54,902.551 L 1156.54,911.622 L 1147.46,920.693 L 1138.39,920.693 L 1129.32,929.764 L 1120.25,929.764 L 1111.18,938.835 L 1102.11,938.835 L 1093.04,947.906 L 1083.97,947.906 L 1074.9,938.835 L 1065.83,938.835 L 1056.76,947.906 L 1047.69,947.906 L 1038.61,938.835 L 1029.54,938.835 L 1020.47,947.906 L 1011.4,947.906 L 1002.33,956.976 L 993.26,956.976 L 984.189,956.976 L 975.118,966.047 L 975.118,975.118 L 966.047,975.118 L 956.976,975.118 L 947.906,984.189 L 938.835,984.189 L 929.764,993.26 L 920.693,1002.33 L 929.764,1011.4 L 938.835,1011.4 L 947.906,1020.47 L 956.976,1020.47 L 956.976,1029.54 L 956.976,1038.61 L 956.976,1047.69 L 956.976,1056.76 L 956.976,1065.83 L 956.976,1074.9 L 947.906,1074.9 L 938.835,1083.97 L 938.835,1093.04 L 938.835,1102.11 L 938.835,1111.18 L 938.835,1120.25 L 938.835,1129.32 L 938.835,1138.39 L 938.835,1147.46 L 947.906,1156.54 L 956.976,1156.54 L 966.047,1156.54 L 975.118,1156.54 L 984.189,1156.54 L 993.26,1156.54 L 1002.33,1156.54 L 1011.4,1156.54 L 1020.47,1156.54 L 1029.54,1156.54 L 1038.61,1156.54 L 1047.69,1156.54 L 1056.76,1156.54 L 1065.83,1156.54 L 1074.9,1156.54 L 1083.97,1156.54 L 1093.04,1156.54 L 1102.11,1156.54 L 1111.18,1156.54 L 1120.25,1147.46 L 1129.32,1147.46 L 1138.39,1147.46 L 1147.46,1147.46 L 1156.54,1147.46 L 1156.54,1156.54 L 1147.46,1156.54 L 1138.39,1156.54 L 1129.32,1156.54 L 1120.25,1156.54 L 1111.18,1156.54 L 1102.11,1156.54 L 1093.04,1156.54 L 1083.97,1156.54 L 1074.9,1156.54 L 1065.83,1156.54 L 1056.76,1156.54 L 1047.69,1156.54 L 1038.61,1156.54 L 1029.54,1156.54 L 1020.47,1156.54 L 1011.4,1156.54 L 1002.33,1156.54 L 993.26,1156.54 L 984.189,1156.54 L 975.118,1156.54 L 966.047,1156.54 L 956.976,1156.54 L 947.906,1156.54 L 938.835,1156.54 L 929.764,1156.54 L 920.693,1156.54 L 911.622,1156.54 L 902.551,1156.54 L 893.48,1156.54 L 884.409,1156.54 L 875.339,1156.54 L 866.268,1156.54 L 857.197,1156.54 L 848.126,1156.54 L 839.055,1156.54 L 829.984,1156.54 L 820.913,1156.54 L 811.843,1156.54 L 802.772,1156.54 L 793.701,1156.54 L 784.63,1156.54 L 775.559,1156.54 L 766.488,1156.54 L 757.417,1156.54 L 748.346,1156.54 L 739.276,1156.54 L 730.205,1156.54 L 721.134,1156.54 L 712.063,1156.54 L 702.992,1156.54 L 693.921,1156.54 L 684.85,1156.54 L 675.78,1156.54 L 666.709,1156.54 L 657.638,1156.54 L 648.567,1156.54 L 639.496,1156.54 L 630.425,1156.54 L 621.354,1156.54 L 612.283,1156.54 L 603.213,1156.54 L 594.142,1156.54 L 585.071,1156.54 L 576,1156.54 L 566.929,1156.54 L 557.858,1156.54 L 548.787,1156.54 L 539.717,1156.54 L 530.646,1156.54 L 521.575,1156.54 L 512.504,1156.54 L 503.433,1156.54 L 494.362,1156.54 L 485.291,1156.54 L 476.22,1156.54 L 467.15,1156.54 L 458.079,1156.54 L 449.008,1156.54 L 439.937,1156.54 L 430.866,1156.54 L 421.795,1156.54 L 412.724,1156.54 L 403.654,1156.54 L 394.583,1156.54 L 385.512,1156.54 L 376.441,1156.54 L 367.37,1156.54 L 358.299,1156.54 L 349.228,1156.54 L 340.157,1156.54 L 331.087,1156.54 L 322.016,1156.54 L 312.945,1156.54 L 303.874,1156.54 L 294.803,1156.54 L 285.732,1156.54 L 276.661,1156.54 L 267.591,1156.54 L 258.52,1156.54 L 249.449,1156.54 L 240.378,1156.54 L 231.307,1156.54 L 222.236,1156.54 L 213.165,1156.54 L 204.094,1156.54 L 195.024,1156.54 L 185.953,1156.54 L 176.882,1156.54 L 167.811,1156.54 L 158.74,1156.54 L 149.669,1156.54 L 140.598,1156.54 L 131.528,1156.54 L 122.457,1156.54 L 113.386,1156.54 L 104.315,1156.54 L 95.2441,1156.54 L 86.1732,1156.54 L 77.1024,1156.54 L 68.0315,1156.54 L 58.9606,1156.54 L 49.8898,1156.54 L 40.8189,1156.54 L 31.748,1156.54 L 22.6772,1156.54 L 13.6063,1156.54 L 4.53543,1156.54 L 4.53543,1147.46 L 13.6063,1147.46 L 22.6772,1147.46 L 31.748,1147.46 L 40.8189,1147.46 L 49.8898,1156.54 L 58.9606,1156.54 L 68.0315,1156.54 L 77.1024,1156.54 L 86.1732,1156.54 L 95.2441,1156.54 L 104.315,1156.54 L 113.386,1156.54 L 122.457,1156.54 L 131.528,1156.54 L 140.598,1156.54 L 149.669,1156.54 L 158.74,1156.54 L 167.811,1156.54 L 176.882,1156.54 L 185.953,1156.54 L 195.024,1156.54 L 204.094,1147.46 L 204.094,1138.39 L 204.094,1129.32 L 195.024,1120.25 L 185.953,1120.25 L 185.953,1111.18 L 185.953,1102.11 L 185.953,1093.04 L 185.953,1083.97 L 185.953,1074.9 L 185.953,1065.83 L 185.953,1056.76 L 185.953,1047.69 L 185.953,1038.61 L 185.953,1029.54 L 185.953,1020.47 L 185.953,1011.4 L 195.024,1011.4 L 204.094,1002.33 L 213.165,1002.33 L 222.236,993.26 L 222.236,984.189 L 222.236,975.118 L 222.236,966.047 L 222.236,956.976 L 222.236,947.906 L 213.165,938.835 L 204.094,938.835 L 195.024,938.835 L 185.953,929.764 L 176.882,929.764 L 167.811,920.693 L 158.74,920.693 L 149.669,911.622 L 140.598,911.622 L 131.528,920.693 L 122.457,920.693 L 113.386,911.622 L 104.315,911.622 L 95.2441,920.693 L 86.1732,920.693 L 77.1024,911.622 L 68.0315,911.622 L 58.9606,920.693 L 49.8898,920.693 L 40.8189,911.622 L 31.748,911.622 L 22.6772,902.551 L 13.6063,902.551 L 4.53543,893.48 L 4.53543,884.409 L 4.53543,875.339 L 13.6063,875.339 L 22.6772,884.409 L 31.748,884.409 L 40.8189,893.48 L 49.8898,893.48 L 58.9606,893.48 L 68.0315,893.48 L 77.1024,893.48 L 86.1732,893.48 L 95.2441,893.48 L 104.315,893.48 L 113.386,893.48 L 122.457,893.48 L 131.528,893.48 L 140.598,893.48 L 149.669,884.409 L 158.74,884.409 L 167.811,875.339 L 167.811,866.268 L 167.811,857.197 L 167.811,848.126 L 167.811,839.055 L 167.811,829.984 L 167.811,820.913 L 167.811,811.843 L 167.811,802.772 L 176.882,802.772 L 185.953,793.701 L 195.024,793.701 L 204.094,784.63 L 204.094,775.559 L 204.094,766.488 L 204.094,757.417 L 204.094,748.346 L 213.165,748.346 L 222.236,739.276 L 231.307,739.276 L 240.378,730.205 L 231.307,721.134 L 222.236,721.134 L 222.236,712.063 L 222.236,702.992 L 222.236,693.921 L 222.236,684.85 L 222.236,675.78 L 222.236,666.709 L 222.236,657.638 L 222.236,648.567 L 222.236,639.496 L 222.236,630.425 L 231.307,630.425 L 240.378,621.354 L 240.378,612.283 L 240.378,603.213 L 240.378,594.142 L 240.378,585.071 L 240.378,576 L 240.378,566.929 L 231.307,557.858 L 222.236,548.787 L 213.165,548.787 L 204.094,539.717 L 195.024,539.717 L 185.953,530.646 L 176.882,530.646 L 167.811,539.717 L 158.74,539.717 L 149.669,530.646 L 140.598,530.646 L 140.598,521.575 L 140.598,512.504 L 149.669,503.433 z " style="fill-opacity:0.5;fill:rgb(253,0,0);stroke:rgb(253,0,0);stroke-width:2"/></g>
<g fill-rule="evenodd"><path d="M 1156.54,1156.54 L 938.835,1147.46 L 956.976,1020.47 L 920.693,1002.33 L 1029.54,938.835 L 1093.04,947.906 L 1156.54,911.622 L 1147.46,893.48 L 1102.11,920.693 L 1002.33,920.693 L 975.118,848.126 L 993.26,829.984 L 1011.4,757.417 L 975.118,739.276 L 929.764,748.346 L 911.622,857.197 L 947.906,884.409 L 947.906,902.551 L 920.693,929.764 L 802.772,911.622 L 793.701,848.126 L 748.346,839.055 L 748.346,893.48 L 721.134,911.622 L 657.638,911.622 L 603.213,893.48 L 603.213,911.622 L 566.929,929.764 L 548.787,1011.4 L 476.22,1047.69 L 503.433,1074.9 L 530.646,1065.83 L 576,1020.47 L 594.142,947.906 L 630.425,920.693 L 666.709,938.835 L 712.063,938.835 L 748.346,920.693 L 829.984,966.047 L 857.197,956.976 L 875.339,975.118 L 875.339,1002.33 L 911.622,1029.54 L 884.409,1156.54 L 548.787,1156.54 L 539.717,1120.25 L 512.504,1120.25 L 512.504,1138.39 L 485.291,1156.54 L 258.52,1156.54 L 249.449,1120.25 L 231.307,1111.18 L 231.307,1020.47 L 267.591,993.26 L 267.591,966.047 L 285.732,947.906 L 322.016,947.906 L 331.087,984.189 L 376.441,1011.4 L 421.795,993.26 L 421.795,975.118 L 412.724,947.906 L 340.157,911.622 L 276.661,911.622 L 231.307,875.339 L 231.307,820.913 L 267.591,802.772 L 267.591,766.488 L 285.732,748.346 L 349.228,757.417 L 376.441,748.346 L 376.441,730.205 L 294.803,730.205 L 258.52,712.063 L 249.449,648.567 L 303.874,621.354 L 303.874,603.213 L 267.591,594.142 L 267.591,548.787 L 176.882,503.433 L 140.598,512.504 L 140.598,530.646 L 185.953,530.646 L 240.378,566.929 L 240.378,621.354 L 222.236,630.425 L 222.236,721.134 L 240.378,730.205 L 204.094,748.346 L 204.094,784.63 L 167.811,802.772 L 158.74,884.409 L 40.8189,893.48 L 4.53543,875.339 L 4.53543,893.48 L 49.8898,920.693 L 149.669,911.622 L 222.236,947.906 L 222.236,993.26 L 185.953,1011.4 L 185.953,1120.25 L 204.094,1129.32 L 204.094,1147.46 L 4.53543,1156.54 L 1156.54,1156.54 z " style="fill-opacity:0.5;fill:rgb(0,253,0);stroke:rgb(0,0,0);stroke-width:5"/></g>
<g fill-rule="evenodd"><path d="M 4.53543,512.504 L 13.6063,512.504 L 22.6772,521.575 L 31.748,521.575 L 40.8189,521.575 L 49.8898,521.575 L 58.9606,521.575 L 68.0315,521.575 L 77.1024,530.646 L 86.1732,530.646 L 86.1732,539.717 L 77.1024,539.717 L 68.0315,539.717 L 58.9606,539.717 L 49.8898,539.717 L 40.8189,539.717 L 31.748,539.717 L 22.6772,539.717 L 13.6063,530.646 L 4.53543,530.646 L 4.53543,521.575 L 4.53543,512.504 z " style="fill-opacity:0.5;fill:rgb(253,0,0);stroke:rgb(253,0,0);stroke-width:2"/></g>
<g fill-rule="evenodd"><path d="M 86.1732,539.717 L 68.0315,521.575 L 4.53543,512.504 L 4.53543,530.646 L 22.6772,539.717 L 86.1732,539.717 z " style="fill-opacity:0.5;fill:rgb(0,253,0);stroke:rgb(0,0,0);stroke-width:5"/></g>
<g fill-rule="evenodd"><path d="M 1074.9,621.354 L 1083.97,621.354 L 1093.04,621.354 L 1102.11,621.354 L 1111.18,621.354 L 1120.25,621.354 L 1129.32,621.354 L 1138.39,621.354 L 1147.46,630.425 L 1156.54,630.425 L 1156.54,639.496 L 1156.54,648.567 L 1147.46,648.567 L 1138.39,639.496 L 1129.32,639.496 L 1120.25,639.496 L 1111.18,639.496 L 1102.11,639.496 L 1093.04,639.496 L 1083.97,630.425 L 1074.9,630.425 L 1074.9,621.354 z " style="fill-opacity:0.5;fill:rgb(253,0,0);stroke:rgb(253,0,0);stroke-width:2"/></g>
<g fill-rule="evenodd"><path d="M 1156.54,648.567 L 1156.54,630.425 L 1138.39,621.354 L 1074.9,621.354 L 1093.04,639.496 L 1156.54,648.567 z " style="fill-opacity:0.5;fill:rgb(0,253,0);stroke:rgb(0,0,0);stroke-width:5"/></g>
<g fill-rule="evenodd"><path d="M 1147.46,712.063 L 1156.54,712.063 L 1156.54,721.134 L 1147.46,721.134 L 1147.46,712.063M 231.307,902.551 L 222.236,911.622 L 213.165,920.693 L 213.165,929.764 L 222.236,938.835 L 231.307,938.835 L 240.378,938.835 L 249.449,938.835 L 258.52,938.835 L 267.591,938.835 L 276.661,929.764 L 276.661,920.693 L 267.591,911.622 L 258.52,911.622 L 249.449,911.622 L 240.378,902.551 L 231.307,902.551M 956.976,920.693 L 947.906,929.764 L 938.835,929.764 L 929.764,920.693 L 920.693,929.764 L 920.693,938.835 L 920.693,947.906 L 929.764,956.976 L 938.835,956.976 L 947.906,956.976 L 956.976,956.976 L 966.047,956.976 L 975.118,956.976 L 984.189,947.906 L 984.189,938.835 L 975.118,929.764 L 966.047,920.693 L 956.976,920.693 z " style="fill-opacity:0.5;fill:rgb(253,0,0);stroke:rgb(253,0,0);stroke-width:2"/></g>
<g fill-rule="evenodd"><path d="M 276.661,929.764 L 222.236,938.835 L 213.165,920.693 L 240.378,902.551 L 276.661,929.764M 929.764,956.976 L 929.764,920.693 L 966.047,920.693 L 984.189,938.835 L 975.118,956.976 L 929.764,956.976 z " style="fill-opacity:0.5;fill:rgb(0,253,0);stroke:rgb(0,0,0);stroke-width:5"/></g>
</svg>
