<?xml version="1.0" standalone="no"?>
<!DOCTYPE svg PUBLIC "-//W3C//DTD SVG 1.1//EN"
"http://www.w3.org/Graphics/SVG/1.1/DTD/svg11.dtd">
<svg width="100%" height="100%" version="1.1"
xmlns="http://www.w3.org/2000/svg"
xmlns:xlink="http://www.w3.org/1999/xlink">
<g fill-rule="evenodd"><path d="M 267.087,5.03937 L 277.165,5.03937 L 287.244,5.03937 L 297.323,5.03937 L 307.402,5.03937 L 317.48,5.03937 L 327.559,5.03937 L 317.48,5.03937 L 307.402,15.1181 L 297.323,25.1969 L 297.323,35.2756 L 297.323,45.3543 L 297.323,55.4331 L 297.323,65.5118 L 297.323,75.5906 L 297.323,85.6693 L 297.323,95.748 L 287.244,105.827 L 277.165,115.906 L 277.165,125.984 L 277.165,136.063 L 277.165,146.142 L 277.165,156.22 L 287.244,166.299 L 297.323,166.299 L 307.402,176.378 L 317.48,176.378 L 317.48,186.457 L 317.48,196.535 L 317.48,206.614 L 317.48,216.693 L 327.559,226.772 L 337.638,226.772 L 347.717,226.772 L 357.795,226.772 L 367.874,226.772 L 377.953,226.772 L 388.031,236.85 L 398.11,236.85 L 408.189,246.929 L 418.268,246.929 L 428.346,257.008 L 438.425,257.008 L 448.504,267.087 L 458.583,267.087 L 468.661,267.087 L 478.74,267.087 L 488.819,257.008 L 498.898,257.008 L 508.976,257.008 L 519.055,257.008 L 529.134,257.008 L 539.213,257.008 L 549.291,257.008 L 559.37,257.008 L 569.449,267.087 L 579.528,267.087 L 589.606,267.087 L 599.685,267.087 L 609.764,257.008 L 619.843,257.008 L 629.921,246.929 L 629.921,236.85 L 629.921,226.772 L 629.921,216.693 L 629.921,206.614 L 640,206.614 L 650.079,196.535 L 650.079,186.457 L 650.079,176.378 L 650.079,166.299 L 650.079,156.22 L 660.157,156.22 L 670.236,146.142 L 680.315,146.142 L 690.394,136.063 L 690.394,125.984 L 690.394,115.906 L 700.472,115.906 L 710.551,105.827 L 720.63,105.827 L 730.709,105.827 L 740.787,105.827 L 750.866,115.906 L 760.945,115.906 L 760.945,125.984 L 750.866,136.063 L 740.787,136.063 L 730.709,146.142 L 720.63,146.142 L 710.551,156.22 L 700.472,156.22 L 690.394,166.299 L 680.315,176.378 L 680.315,186.457 L 680.315,196.535 L 680.315,206.614 L 680.315,216.693 L 670.236,216.693 L 660.157,226.772 L 660.157,236.85 L 660.157,246.929 L 660.157,257.008 L 660.157,267.087 L 650.079,267.087 L 640,267.087 L 629.921,277.165 L 619.843,287.244 L 619.843,297.323 L 609.764,307.402 L 599.685,307.402 L 589.606,297.323 L 579.528,297.323 L 569.449,287.244 L 559.37,287.244 L 549.291,277.165 L 539.213,277.165 L 529.134,287.244 L 519.055,287.244 L 508.976,277.165 L 498.898,277.165 L 488.819,287.244 L 478.74,287.244 L 468.661,297.323 L 458.583,307.402 L 458.583,317.48 L 458.583,327.559 L 458.583,337.638 L 458.583,347.717 L 458.583,357.795 L 448.504,367.874 L 438.425,367.874 L 428.346,357.795 L 418.268,357.795 L 408.189,347.717 L 408.189,337.638 L 408.189,327.559 L 408.189,317.48 L 408.189,307.402 L 408.189,297.323 L 398.11,287.244 L 388.031,277.165 L 377.953,277.165 L 367.874,267.087 L 357.795,267.087 L 347.717,277.165 L 337.638,277.165 L 327.559,267.087 L 317.48,267.087 L 307.402,257.008 L 297.323,257.008 L 287.244,267.087 L 277.165,267.087 L 267.087,267.087 L 257.008,277.165 L 246.929,287.244 L 236.85,297.323 L 236.85,307.402 L 236.85,317.48 L 246.929,327.559 L 257.008,327.559 L 267.087,337.638 L 277.165,337.638 L 277.165,347.717 L 277.165,357.795 L 277.165,367.874 L 277.165,377.953 L 277.165,388.031 L 277.165,398.11 L 267.087,398.11 L 257.008,408.189 L 257.008,418.268 L 257.008,428.346 L 257.008,438.425 L 257.008,448.504 L 257.008,458.583 L 257.008,468.661 L 246.929,468.661 L 236.85,468.661 L 226.772,478.74 L 216.693,478.74 L 206.614,468.661 L 196.535,468.661 L 186.457,458.583 L 176.378,458.583 L 166.299,448.504 L 166.299,438.425 L 166.299,428.346 L 166.299,418.268 L 176.378,418.268 L 186.457,408.189 L 186.457,398.11 L 186.457,388.031 L 186.457,377.953 L 186.457,367.874 L 196.535,367.874 L 206.614,357.795 L 206.614,347.717 L 206.614,337.638 L 196.535,327.559 L 186.457,327.559 L 186.457,317.48 L 186.457,307.402 L 186.457,297.323 L 186.457,287.244 L 176.378,277.165 L 166.299,267.087 L 156.22,267.087 L 146.142,277.165 L 136.063,277.165 L 125.984,267.087 L 115.906,267.087 L 105.827,277.165 L 95.748,277.165 L 85.6693,267.087 L 75.5906,267.087 L 65.5118,277.165 L 55.4331,277.165 L 45.3543,287.244 L 35.2756,287.244 L 25.1969,297.323 L 15.1181,297.323 L 5.03937,307.402 L 5.03937,297.323 L 5.03937,287.244 L 5.03937,277.165 L 15.1181,277.165 L 25.1969,267.087 L 35.2756,267.087 L 45.3543,257.008 L 55.4331,257.008 L 65.5118,246.929 L 75.5906,246.929 L 85.6693,246.929 L 95.748,246.929 L 105.827,246.929 L 115.906,246.929 L 125.984,246.929 L 136.063,246.929 L 146.142,246.929 L 156.22,246.929 L 166.299,236.85 L 176.378,236.85 L 186.457,236.85 L 196.535,236.85 L 206.614,226.772 L 206.614,216.693 L 216.693,216.693 L 226.772,206.614 L 236.85,206.614 L 246.929,196.535 L 257.008,196.535 L 267.087,186.457 L 257.008,176.378 L 246.929,166.299 L 236.85,166.299 L 226.772,166.299 L 226.772,156.22 L 226.772,146.142 L 226.772,136.063 L 226.772,125.984 L 226.772,115.906 L 226.772,105.827 L 236.85,105.827 L 246.929,95.748 L 246.929,85.6693 L 246.929,75.5906 L 246.929,65.5118 L 246.929,55.4331 L 246.929,45.3543 L 246.929,35.2756 L 246.929,25.1969 L 246.929,15.1181 L 257.008,15.1181 L 267.087,5.03937 z " style="fill-opacity:0.5;fill:rgb(253,0,0);stroke:rgb(253,0,0);stroke-width:2"/></g>
<g fill-rule="evenodd"><path d="M 760.945,125.984 L 680.315,176.378 L 660.157,267.087 L 640,267.087 L 609.764,307.402 L 549.291,277.165 L 498.898,277.165 L 458.583,307.402 L 448.504,367.874 L 408.189,347.717 L 408.189,297.323 L 388.031,277.165 L 337.638,277.165 L 307.402,257.008 L 267.087,267.087 L 236.85,297.323 L 236.85,317.48 L 277.165,337.638 L 277.165,398.11 L 257.008,408.189 L 257.008,468.661 L 226.772,478.74 L 166.299,448.504 L 186.457,367.874 L 206.614,357.795 L 206.614,337.638 L 186.457,327.559 L 186.457,287.244 L 166.299,267.087 L 75.5906,267.087 L 5.03937,307.402 L 5.03937,277.165 L 65.5118,246.929 L 196.535,236.85 L 206.614,216.693 L 267.087,186.457 L 226.772,166.299 L 226.772,105.827 L 246.929,95.748 L 246.929,15.1181 L 267.087,5.03937 L 327.559,5.03937 L 297.323,25.1969 L 297.323,95.748 L 277.165,115.906 L 277.165,156.22 L 317.48,176.378 L 317.48,216.693 L 377.953,226.772 L 448.504,267.087 L 599.685,267.087 L 629.921,246.929 L 650.079,156.22 L 680.315,146.142 L 690.394,115.906 L 740.787,105.827 L 760.945,125.984 z " style="fill-opacity:0.5;fill:rgb(51,51,153);stroke:rgb(0,0,0);stroke-width:5"/></g>
<g fill-rule="evenodd"><path d="M 710.551,5.03937 L 720.63,5.03937 L 730.709,5.03937 L 740.787,5.03937 L 740.787,15.1181 L 730.709,15.1181 L 720.63,25.1969 L 720.63,35.2756 L 720.63,45.3543 L 710.551,45.3543 L 700.472,45.3543 L 690.394,45.3543 L 690.394,35.2756 L 690.394,25.1969 L 690.394,15.1181 L 700.472,15.1181 L 710.551,5.03937 z " style="fill-opacity:0.5;fill:rgb(253,0,0);stroke:rgb(253,0,0);stroke-width:2"/></g>
<g fill-rule="evenodd"><path d="M 690.394,45.3543 L 690.394,15.1181 L 740.787,5.03937 L 720.63,45.3543 L 690.394,45.3543 z " style="fill-opacity:0.5;fill:rgb(51,51,153);stroke:rgb(0,0,0);stroke-width:5"/></g>
<g fill-rule="evenodd"><path d="M 831.496,5.03937 L 841.575,5.03937 L 851.654,5.03937 L 861.732,5.03937 L 861.732,15.1181 L 851.654,15.1181 L 841.575,15.1181 L 831.496,15.1181 L 831.496,5.03937 z " style="fill-opacity:0.5;fill:rgb(253,0,0);stroke:rgb(253,0,0);stroke-width:2"/></g>
<g fill-rule="evenodd"><path d=" z " style="fill-opacity:0.5;fill:rgb(51,51,153);stroke:rgb(0,0,0);stroke-width:5"/></g>
<g fill-rule="evenodd"><path d="M 1002.83,5.03937 L 1012.91,5.03937 L 1022.99,5.03937 L 1033.07,5.03937 L 1043.15,5.03937 L 1053.23,5.03937 L 1063.31,5.03937 L 1063.31,15.1181 L 1063.31,25.1969 L 1063.31,35.2756 L 1063.31,45.3543 L 1073.39,55.4331 L 1083.46,55.4331 L 1083.46,65.5118 L 1083.46,75.5906 L 1083.46,85.6693 L 1083.46,95.748 L 1083.46,105.827 L 1083.46,115.906 L 1083.46,125.984 L 1083.46,136.063 L 1083.46,146.142 L 1083.46,156.22 L 1083.46,166.299 L 1073.39,176.378 L 1063.31,176.378 L 1053.23,186.457 L 1043.15,196.535 L 1043.15,206.614 L 1043.15,216.693 L 1043.15,226.772 L 1043.15,236.85 L 1043.15,246.929 L 1053.23,257.008 L 1063.31,257.008 L 1073.39,257.008 L 1083.46,257.008 L 1093.54,267.087 L 1103.62,267.087 L 1113.7,277.165 L 1123.78,277.165 L 1133.86,277.165 L 1143.94,277.165 L 1154.02,277.165 L 1164.09,277.165 L 1174.17,277.165 L 1184.25,277.165 L 1194.33,277.165 L 1204.41,277.165 L 1214.49,277.165 L 1224.57,277.165 L 1234.65,277.165 L 1244.72,277.165 L 1254.8,287.244 L 1264.88,287.244 L 1274.96,297.323 L 1285.04,297.323 L 1285.04,307.402 L 1285.04,317.48 L 1285.04,327.559 L 1274.96,317.48 L 1264.88,317.48 L 1254.8,307.402 L 1244.72,307.402 L 1234.65,297.323 L 1224.57,297.323 L 1214.49,307.402 L 1204.41,307.402 L 1194.33,297.323 L 1184.25,297.323 L 1174.17,307.402 L 1164.09,307.402 L 1154.02,297.323 L 1143.94,297.323 L 1133.86,307.402 L 1123.78,307.402 L 1113.7,317.48 L 1103.62,327.559 L 1103.62,337.638 L 1103.62,347.717 L 1103.62,357.795 L 1103.62,367.874 L 1103.62,377.953 L 1103.62,388.031 L 1103.62,398.11 L 1093.54,408.189 L 1083.46,408.189 L 1073.39,418.268 L 1063.31,428.346 L 1063.31,438.425 L 1063.31,448.504 L 1063.31,458.583 L 1053.23,468.661 L 1043.15,468.661 L 1033.07,478.74 L 1022.99,488.819 L 1033.07,498.898 L 1043.15,498.898 L 1043.15,508.976 L 1043.15,519.055 L 1043.15,529.134 L 1043.15,539.213 L 1043.15,549.291 L 1043.15,559.37 L 1043.15,569.449 L 1043.15,579.528 L 1043.15,589.606 L 1043.15,599.685 L 1033.07,599.685 L 1022.99,609.764 L 1022.99,619.843 L 1022.99,629.921 L 1022.99,640 L 1022.99,650.079 L 1022.99,660.157 L 1022.99,670.236 L 1033.07,680.315 L 1043.15,680.315 L 1053.23,690.394 L 1063.31,690.394 L 1073.39,700.472 L 1083.46,700.472 L 1093.54,700.472 L 1103.62,700.472 L 1113.7,700.472 L 1123.78,700.472 L 1133.86,710.551 L 1133.86,720.63 L 1133.86,730.709 L 1123.78,730.709 L 1113.7,740.787 L 1103.62,740.787 L 1093.54,730.709 L 1083.46,730.709 L 1073.39,720.63 L 1063.31,720.63 L 1053.23,710.551 L 1043.15,710.551 L 1033.07,700.472 L 1022.99,700.472 L 1012.91,690.394 L 1002.83,690.394 L 992.756,690.394 L 992.756,680.315 L 992.756,670.236 L 992.756,660.157 L 992.756,650.079 L 992.756,640 L 992.756,629.921 L 982.677,619.843 L 972.598,629.921 L 962.52,629.921 L 952.441,629.921 L 952.441,619.843 L 952.441,609.764 L 962.52,609.764 L 972.598,599.685 L 982.677,599.685 L 992.756,589.606 L 1002.83,589.606 L 1012.91,579.528 L 1012.91,569.449 L 1012.91,559.37 L 1012.91,549.291 L 1012.91,539.213 L 1012.91,529.134 L 1012.91,519.055 L 1002.83,508.976 L 992.756,498.898 L 982.677,498.898 L 972.598,488.819 L 962.52,488.819 L 952.441,478.74 L 942.362,478.74 L 932.283,488.819 L 922.205,488.819 L 912.126,478.74 L 902.047,478.74 L 891.969,488.819 L 881.89,488.819 L 871.811,478.74 L 871.811,468.661 L 881.89,468.661 L 891.969,458.583 L 902.047,458.583 L 912.126,458.583 L 922.205,458.583 L 932.283,458.583 L 942.362,458.583 L 952.441,458.583 L 962.52,458.583 L 972.598,458.583 L 982.677,458.583 L 992.756,448.504 L 992.756,438.425 L 992.756,428.346 L 992.756,418.268 L 992.756,408.189 L 1002.83,408.189 L 1012.91,398.11 L 1022.99,398.11 L 1033.07,388.031 L 1033.07,377.953 L 1033.07,367.874 L 1033.07,357.795 L 1033.07,347.717 L 1033.07,337.638 L 1033.07,327.559 L 1022.99,317.48 L 1012.91,307.402 L 1002.83,307.402 L 992.756,297.323 L 982.677,287.244 L 972.598,287.244 L 962.52,287.244 L 952.441,277.165 L 942.362,277.165 L 932.283,287.244 L 922.205,287.244 L 912.126,277.165 L 902.047,277.165 L 891.969,267.087 L 881.89,267.087 L 871.811,257.008 L 861.732,257.008 L 851.654,246.929 L 841.575,246.929 L 831.496,236.85 L 831.496,226.772 L 821.417,216.693 L 821.417,206.614 L 821.417,196.535 L 831.496,186.457 L 841.575,186.457 L 851.654,176.378 L 861.732,176.378 L 871.811,176.378 L 881.89,176.378 L 891.969,186.457 L 902.047,186.457 L 912.126,196.535 L 922.205,196.535 L 922.205,206.614 L 922.205,216.693 L 922.205,226.772 L 932.283,236.85 L 942.362,236.85 L 952.441,236.85 L 962.52,236.85 L 972.598,236.85 L 982.677,236.85 L 992.756,226.772 L 992.756,216.693 L 992.756,206.614 L 992.756,196.535 L 992.756,186.457 L 1002.83,186.457 L 1012.91,176.378 L 1022.99,176.378 L 1033.07,166.299 L 1033.07,156.22 L 1033.07,146.142 L 1033.07,136.063 L 1033.07,125.984 L 1033.07,115.906 L 1033.07,105.827 L 1033.07,95.748 L 1033.07,85.6693 L 1033.07,75.5906 L 1033.07,65.5118 L 1022.99,55.4331 L 1012.91,55.4331 L 1012.91,45.3543 L 1012.91,35.2756 L 1012.91,25.1969 L 1012.91,15.1181 L 1002.83,5.03937M 236.85,226.772 L 226.772,236.85 L 216.693,236.85 L 206.614,236.85 L 196.535,246.929 L 196.535,257.008 L 206.614,267.087 L 216.693,267.087 L 226.772,267.087 L 236.85,267.087 L 246.929,267.087 L 257.008,267.087 L 267.087,257.008 L 267.087,246.929 L 257.008,236.85 L 246.929,226.772 L 236.85,226.772M 1002.83,246.929 L 992.756,257.008 L 982.677,267.087 L 982.677,277.165 L 992.756,287.244 L 1002.83,287.244 L 1012.91,287.244 L 1022.99,287.244 L 1033.07,287.244 L 1043.15,287.244 L 1053.23,277.165 L 1053.23,267.087 L 1043.15,257.008 L 1033.07,257.008 L 1022.99,257.008 L 1012.91,246.929 L 1002.83,246.929 z " style="fill-opacity:0.5;fill:rgb(253,0,0);stroke:rgb(253,0,0);stroke-width:2"/></g>
<g fill-rule="evenodd"><path d="M 1113.7,740.787 L 992.756,690.394 L 992.756,629.921 L 952.441,629.921 L 952.441,609.764 L 1012.91,579.528 L 1012.91,519.055 L 952.441,478.74 L 871.811,478.74 L 891.969,458.583 L 982.677,458.583 L 992.756,408.189 L 1033.07,388.031 L 1033.07,327.559 L 982.677,287.244 L 922.205,287.244 L 841.575,246.929 L 821.417,216.693 L 831.496,186.457 L 881.89,176.378 L 922.205,196.535 L 932.283,236.85 L 992.756,226.772 L 992.756,186.457 L 1033.07,166.299 L 1033.07,65.5118 L 1012.91,55.4331 L 1002.83,5.03937 L 1063.31,5.03937 L 1063.31,45.3543 L 1083.46,55.4331 L 1083.46,166.299 L 1043.15,196.535 L 1043.15,246.929 L 1113.7,277.165 L 1244.72,277.165 L 1285.04,297.323 L 1285.04,327.559 L 1234.65,297.323 L 1123.78,307.402 L 1103.62,327.559 L 1103.62,398.11 L 1022.99,488.819 L 1043.15,498.898 L 1043.15,599.685 L 1022.99,609.764 L 1022.99,670.236 L 1073.39,700.472 L 1123.78,700.472 L 1133.86,730.709 L 1113.7,740.787M 196.535,257.008 L 257.008,267.087 L 267.087,246.929 L 236.85,226.772 L 206.614,236.85 L 196.535,257.008M 1053.23,277.165 L 1012.91,246.929 L 982.677,267.087 L 992.756,287.244 L 1053.23,277.165 z " style="fill-opacity:0.5;fill:rgb(51,51,153);stroke:rgb(0,0,0);stroke-width:5"/></g>
<g fill-rule="evenodd"><path d="M 5.03937,508.976 L 15.1181,508.976 L 15.1181,519.055 L 5.03937,519.055 L 5.03937,508.976 z " style="fill-opacity:0.5;fill:rgb(253,0,0);stroke:rgb(253,0,0);stroke-width:2"/></g>
<g fill-rule="evenodd"><path d=" z " style="fill-opacity:0.5;fill:rgb(51,51,153);stroke:rgb(0,0,0);stroke-width:5"/></g>
<g fill-rule="evenodd"><path d="M 166.299,559.37 L 176.378,559.37 L 186.457,559.37 L 196.535,559.37 L 206.614,569.449 L 216.693,569.449 L 226.772,579.528 L 236.85,579.528 L 246.929,589.606 L 257.008,589.606 L 267.087,599.685 L 277.165,599.685 L 287.244,609.764 L 297.323,609.764 L 297.323,619.843 L 297.323,629.921 L 297.323,640 L 297.323,650.079 L 297.323,660.157 L 307.402,670.236 L 317.48,670.236 L 327.559,670.236 L 337.638,670.236 L 337.638,680.315 L 337.638,690.394 L 327.559,690.394 L 317.48,690.394 L 307.402,700.472 L 297.323,700.472 L 287.244,710.551 L 277.165,720.63 L 277.165,730.709 L 277.165,740.787 L 277.165,750.866 L 277.165,760.945 L 277.165,771.024 L 277.165,781.102 L 287.244,791.181 L 297.323,791.181 L 307.402,801.26 L 317.48,801.26 L 327.559,811.339 L 337.638,811.339 L 347.717,811.339 L 357.795,811.339 L 367.874,811.339 L 377.953,811.339 L 388.031,811.339 L 398.11,811.339 L 408.189,811.339 L 418.268,811.339 L 418.268,821.417 L 418.268,831.496 L 408.189,831.496 L 398.11,831.496 L 388.031,841.575 L 377.953,841.575 L 367.874,831.496 L 357.795,831.496 L 347.717,841.575 L 337.638,841.575 L 327.559,831.496 L 317.48,831.496 L 307.402,841.575 L 297.323,851.654 L 297.323,861.732 L 297.323,871.811 L 297.323,881.89 L 297.323,891.969 L 287.244,891.969 L 277.165,891.969 L 267.087,902.047 L 257.008,912.126 L 257.008,922.205 L 257.008,932.283 L 257.008,942.362 L 257.008,952.441 L 257.008,962.52 L 257.008,972.598 L 267.087,982.677 L 277.165,982.677 L 287.244,992.756 L 297.323,992.756 L 297.323,1002.83 L 307.402,1012.91 L 317.48,1012.91 L 327.559,1012.91 L 337.638,1012.91 L 347.717,1012.91 L 357.795,1012.91 L 367.874,1012.91 L 377.953,1012.91 L 388.031,1022.99 L 398.11,1022.99 L 408.189,1033.07 L 418.268,1033.07 L 428.346,1043.15 L 438.425,1043.15 L 448.504,1053.23 L 458.583,1053.23 L 458.583,1063.31 L 458.583,1073.39 L 468.661,1083.46 L 468.661,1093.54 L 468.661,1103.62 L 458.583,1103.62 L 448.504,1113.7 L 438.425,1113.7 L 428.346,1123.78 L 418.268,1123.78 L 408.189,1113.7 L 398.11,1113.7 L 388.031,1103.62 L 377.953,1103.62 L 367.874,1093.54 L 367.874,1083.46 L 367.874,1073.39 L 367.874,1063.31 L 357.795,1053.23 L 347.717,1063.31 L 337.638,1063.31 L 327.559,1053.23 L 317.48,1053.23 L 307.402,1063.31 L 297.323,1073.39 L 297.323,1083.46 L 297.323,1093.54 L 297.323,1103.62 L 287.244,1113.7 L 277.165,1113.7 L 267.087,1123.78 L 257.008,1133.86 L 257.008,1143.94 L 257.008,1154.02 L 257.008,1164.09 L 257.008,1174.17 L 257.008,1184.25 L 257.008,1194.33 L 257.008,1204.41 L 257.008,1214.49 L 257.008,1224.57 L 257.008,1234.65 L 267.087,1244.72 L 277.165,1244.72 L 277.165,1254.8 L 277.165,1264.88 L 277.165,1274.96 L 287.244,1285.04 L 297.323,1285.04 L 307.402,1285.04 L 317.48,1285.04 L 327.559,1285.04 L 337.638,1285.04 L 347.717,1285.04 L 357.795,1285.04 L 367.874,1285.04 L 377.953,1285.04 L 388.031,1285.04 L 398.11,1285.04 L 408.189,1285.04 L 418.268,1285.04 L 428.346,1274.96 L 438.425,1274.96 L 448.504,1274.96 L 458.583,1274.96 L 468.661,1285.04 L 478.74,1285.04 L 488.819,1285.04 L 498.898,1285.04 L 508.976,1285.04 L 519.055,1285.04 L 529.134,1285.04 L 539.213,1285.04 L 549.291,1274.96 L 559.37,1274.96 L 569.449,1264.88 L 569.449,1254.8 L 569.449,1244.72 L 579.528,1244.72 L 589.606,1244.72 L 599.685,1244.72 L 599.685,1254.8 L 599.685,1264.88 L 599.685,1274.96 L 609.764,1285.04 L 619.843,1285.04 L 629.921,1285.04 L 640,1285.04 L 650.079,1285.04 L 660.157,1285.04 L 670.236,1285.04 L 680.315,1285.04 L 690.394,1285.04 L 700.472,1285.04 L 710.551,1285.04 L 720.63,1285.04 L 730.709,1285.04 L 740.787,1285.04 L 750.866,1285.04 L 760.945,1285.04 L 771.024,1285.04 L 781.102,1285.04 L 791.181,1285.04 L 801.26,1285.04 L 811.339,1285.04 L 821.417,1285.04 L 831.496,1285.04 L 841.575,1285.04 L 851.654,1285.04 L 861.732,1285.04 L 871.811,1285.04 L 881.89,1285.04 L 891.969,1285.04 L 902.047,1285.04 L 912.126,1285.04 L 922.205,1285.04 L 932.283,1285.04 L 942.362,1285.04 L 952.441,1285.04 L 962.52,1285.04 L 972.598,1285.04 L 982.677,1285.04 L 992.756,1274.96 L 992.756,1264.88 L 992.756,1254.8 L 992.756,1244.72 L 992.756,1234.65 L 992.756,1224.57 L 992.756,1214.49 L 992.756,1204.41 L 992.756,1194.33 L 1002.83,1194.33 L 1012.91,1184.25 L 1012.91,1174.17 L 1012.91,1164.09 L 1012.91,1154.02 L 1012.91,1143.94 L 1002.83,1133.86 L 992.756,1123.78 L 982.677,1123.78 L 972.598,1113.7 L 972.598,1103.62 L 972.598,1093.54 L 972.598,1083.46 L 962.52,1073.39 L 952.441,1063.31 L 942.362,1063.31 L 932.283,1073.39 L 922.205,1073.39 L 912.126,1063.31 L 902.047,1063.31 L 891.969,1053.23 L 881.89,1053.23 L 871.811,1043.15 L 861.732,1043.15 L 851.654,1033.07 L 841.575,1033.07 L 831.496,1022.99 L 821.417,1022.99 L 811.339,1033.07 L 801.26,1033.07 L 791.181,1043.15 L 781.102,1043.15 L 771.024,1033.07 L 760.945,1033.07 L 750.866,1043.15 L 740.787,1043.15 L 730.709,1033.07 L 720.63,1033.07 L 710.551,1022.99 L 700.472,1022.99 L 690.394,1033.07 L 680.315,1033.07 L 670.236,1043.15 L 660.157,1053.23 L 660.157,1063.31 L 660.157,1073.39 L 660.157,1083.46 L 660.157,1093.54 L 650.079,1093.54 L 640,1103.62 L 640,1113.7 L 640,1123.78 L 640,1133.86 L 629.921,1143.94 L 619.843,1143.94 L 609.764,1154.02 L 599.685,1164.09 L 599.685,1174.17 L 589.606,1184.25 L 579.528,1184.25 L 569.449,1194.33 L 559.37,1194.33 L 549.291,1184.25 L 539.213,1184.25 L 529.134,1174.17 L 529.134,1164.09 L 539.213,1164.09 L 549.291,1154.02 L 559.37,1154.02 L 569.449,1143.94 L 579.528,1143.94 L 589.606,1133.86 L 599.685,1133.86 L 609.764,1123.78 L 609.764,1113.7 L 609.764,1103.62 L 609.764,1093.54 L 609.764,1083.46 L 619.843,1083.46 L 629.921,1073.39 L 629.921,1063.31 L 629.921,1053.23 L 629.921,1043.15 L 629.921,1033.07 L 640,1033.07 L 650.079,1022.99 L 660.157,1022.99 L 670.236,1012.91 L 670.236,1002.83 L 670.236,992.756 L 680.315,992.756 L 690.394,992.756 L 700.472,992.756 L 710.551,1002.83 L 720.63,1002.83 L 730.709,1012.91 L 740.787,1012.91 L 750.866,1012.91 L 760.945,1012.91 L 771.024,1012.91 L 781.102,1012.91 L 791.181,1012.91 L 801.26,1012.91 L 811.339,1002.83 L 821.417,1002.83 L 831.496,992.756 L 831.496,982.677 L 831.496,972.598 L 831.496,962.52 L 831.496,952.441 L 831.496,942.362 L 831.496,932.283 L 841.575,932.283 L 851.654,932.283 L 861.732,932.283 L 871.811,942.362 L 881.89,942.362 L 881.89,952.441 L 881.89,962.52 L 881.89,972.598 L 881.89,982.677 L 881.89,992.756 L 881.89,1002.83 L 891.969,1012.91 L 902.047,1012.91 L 912.126,1022.99 L 922.205,1022.99 L 932.283,1022.99 L 942.362,1022.99 L 952.441,1022.99 L 962.52,1022.99 L 972.598,1033.07 L 982.677,1033.07 L 992.756,1033.07 L 1002.83,1033.07 L 1012.91,1033.07 L 1022.99,1033.07 L 1033.07,1022.99 L 1033.07,1012.91 L 1043.15,1012.91 L 1053.23,1002.83 L 1053.23,992.756 L 1053.23,982.677 L 1043.15,972.598 L 1033.07,962.52 L 1022.99,962.52 L 1012.91,952.441 L 1012.91,942.362 L 1012.91,932.283 L 1012.91,922.205 L 1012.91,912.126 L 1012.91,902.047 L 1022.99,902.047 L 1033.07,891.969 L 1033.07,881.89 L 1033.07,871.811 L 1033.07,861.732 L 1033.07,851.654 L 1033.07,841.575 L 1033.07,831.496 L 1043.15,831.496 L 1053.23,821.417 L 1063.31,821.417 L 1073.39,821.417 L 1083.46,821.417 L 1093.54,831.496 L 1103.62,831.496 L 1113.7,841.575 L 1123.78,841.575 L 1123.78,851.654 L 1123.78,861.732 L 1123.78,871.811 L 1113.7,881.89 L 1103.62,891.969 L 1103.62,902.047 L 1103.62,912.126 L 1103.62,922.205 L 1093.54,932.283 L 1083.46,942.362 L 1083.46,952.441 L 1083.46,962.52 L 1093.54,972.598 L 1103.62,972.598 L 1103.62,982.677 L 1103.62,992.756 L 1103.62,1002.83 L 1103.62,1012.91 L 1113.7,1022.99 L 1123.78,1022.99 L 1133.86,1022.99 L 1143.94,1022.99 L 1154.02,1022.99 L 1164.09,1022.99 L 1174.17,1022.99 L 1184.25,1022.99 L 1194.33,1022.99 L 1204.41,1022.99 L 1214.49,1022.99 L 1224.57,1022.99 L 1234.65,1012.91 L 1244.72,1012.91 L 1254.8,1002.83 L 1264.88,1002.83 L 1274.96,992.756 L 1285.04,992.756 L 1285.04,1002.83 L 1285.04,1012.91 L 1274.96,1022.99 L 1264.88,1022.99 L 1254.8,1033.07 L 1244.72,1033.07 L 1234.65,1043.15 L 1224.57,1043.15 L 1214.49,1053.23 L 1204.41,1053.23 L 1194.33,1043.15 L 1184.25,1043.15 L 1174.17,1053.23 L 1164.09,1053.23 L 1154.02,1043.15 L 1143.94,1043.15 L 1133.86,1053.23 L 1123.78,1053.23 L 1113.7,1063.31 L 1103.62,1063.31 L 1093.54,1063.31 L 1083.46,1073.39 L 1083.46,1083.46 L 1073.39,1083.46 L 1063.31,1083.46 L 1053.23,1093.54 L 1043.15,1093.54 L 1033.07,1103.62 L 1022.99,1113.7 L 1033.07,1123.78 L 1043.15,1123.78 L 1053.23,1133.86 L 1063.31,1133.86 L 1063.31,1143.94 L 1063.31,1154.02 L 1063.31,1164.09 L 1063.31,1174.17 L 1063.31,1184.25 L 1063.31,1194.33 L 1053.23,1194.33 L 1043.15,1204.41 L 1043.15,1214.49 L 1043.15,1224.57 L 1043.15,1234.65 L 1043.15,1244.72 L 1043.15,1254.8 L 1043.15,1264.88 L 1043.15,1274.96 L 1053.23,1285.04 L 1063.31,1285.04 L 1073.39,1285.04 L 1083.46,1285.04 L 1093.54,1285.04 L 1103.62,1285.04 L 1113.7,1285.04 L 1123.78,1285.04 L 1133.86,1285.04 L 1143.94,1285.04 L 1154.02,1285.04 L 1164.09,1285.04 L 1174.17,1285.04 L 1184.25,1285.04 L 1194.33,1285.04 L 1204.41,1285.04 L 1214.49,1285.04 L 1224.57,1285.04 L 1234.65,1285.04 L 1244.72,1274.96 L 1254.8,1274.96 L 1264.88,1274.96 L 1274.96,1274.96 L 1285.04,1274.96 L 1285.04,1285.04 L 1274.96,1285.04 L 1264.88,1285.04 L 1254.8,1285.04 L 1244.72,1285.04 L 1234.65,1285.04 L 1224.57,1285.04 L 1214.49,1285.04 L 1204.41,1285.04 L 1194.33,1285.04 L 1184.25,1285.04 L 1174.17,1285.04 L 1164.09,1285.04 L 1154.02,1285.04 L 1143.94,1285.04 L 1133.86,1285.04 L 1123.78,1285.04 L 1113.7,1285.04 L 1103.62,1285.04 L 1093.54,1285.04 L 1083.46,1285.04 L 1073.39,1285.04 L 1063.31,1285.04 L 1053.23,1285.04 L 1043.15,1285.04 L 1033.07,1285.04 L 1022.99,1285.04 L 1012.91,1285.04 L 1002.83,1285.04 L 992.756,1285.04 L 982.677,1285.04 L 972.598,1285.04 L 962.52,1285.04 L 952.441,1285.04 L 942.362,1285.04 L 932.283,1285.04 L 922.205,1285.04 L 912.126,1285.04 L 902.047,1285.04 L 891.969,1285.04 L 881.89,1285.04 L 871.811,1285.04 L 861.732,1285.04 L 851.654,1285.04 L 841.575,1285.04 L 831.496,1285.04 L 821.417,1285.04 L 811.339,1285.04 L 801.26,1285.04 L 791.181,1285.04 L 781.102,1285.04 L 771.024,1285.04 L 760.945,1285.04 L 750.866,1285.04 L 740.787,1285.04 L 730.709,1285.04 L 720.63,1285.04 L 710.551,1285.04 L 700.472,1285.04 L 690.394,1285.04 L 680.315,1285.04 L 670.236,1285.04 L 660.157,1285.04 L 650.079,1285.04 L 640,1285.04 L 629.921,1285.04 L 619.843,1285.04 L 609.764,1285.04 L 599.685,1285.04 L 589.606,1285.04 L 579.528,1285.04 L 569.449,1285.04 L 559.37,1285.04 L 549.291,1285.04 L 539.213,1285.04 L 529.134,1285.04 L 519.055,1285.04 L 508.976,1285.04 L 498.898,1285.04 L 488.819,1285.04 L 478.74,1285.04 L 468.661,1285.04 L 458.583,1285.04 L 448.504,1285.04 L 438.425,1285.04 L 428.346,1285.04 L 418.268,1285.04 L 408.189,1285.04 L 398.11,1285.04 L 388.031,1285.04 L 377.953,1285.04 L 367.874,1285.04 L 357.795,1285.04 L 347.717,1285.04 L 337.638,1285.04 L 327.559,1285.04 L 317.48,1285.04 L 307.402,1285.04 L 297.323,1285.04 L 287.244,1285.04 L 277.165,1285.04 L 267.087,1285.04 L 257.008,1285.04 L 246.929,1285.04 L 236.85,1285.04 L 226.772,1285.04 L 216.693,1285.04 L 206.614,1285.04 L 196.535,1285.04 L 186.457,1285.04 L 176.378,1285.04 L 166.299,1285.04 L 156.22,1285.04 L 146.142,1285.04 L 136.063,1285.04 L 125.984,1285.04 L 115.906,1285.04 L 105.827,1285.04 L 95.748,1285.04 L 85.6693,1285.04 L 75.5906,1285.04 L 65.5118,1285.04 L 55.4331,1285.04 L 45.3543,1285.04 L 35.2756,1285.04 L 25.1969,1285.04 L 15.1181,1285.04 L 5.03937,1285.04 L 5.03937,1274.96 L 15.1181,1274.96 L 25.1969,1274.96 L 35.2756,1274.96 L 45.3543,1274.96 L 55.4331,1285.04 L 65.5118,1285.04 L 75.5906,1285.04 L 85.6693,1285.04 L 95.748,1285.04 L 105.827,1285.04 L 115.906,1285.04 L 125.984,1285.04 L 136.063,1285.04 L 146.142,1285.04 L 156.22,1285.04 L 166.299,1285.04 L 176.378,1285.04 L 186.457,1285.04 L 196.535,1285.04 L 206.614,1285.04 L 216.693,1285.04 L 226.772,1274.96 L 226.772,1264.88 L 226.772,1254.8 L 216.693,1244.72 L 206.614,1244.72 L 206.614,1234.65 L 206.614,1224.57 L 206.614,1214.49 L 206.614,1204.41 L 206.614,1194.33 L 206.614,1184.25 L 206.614,1174.17 L 206.614,1164.09 L 206.614,1154.02 L 206.614,1143.94 L 206.614,1133.86 L 206.614,1123.78 L 216.693,1123.78 L 226.772,1113.7 L 236.85,1113.7 L 246.929,1103.62 L 246.929,1093.54 L 246.929,1083.46 L 246.929,1073.39 L 246.929,1063.31 L 246.929,1053.23 L 236.85,1043.15 L 226.772,1043.15 L 216.693,1043.15 L 206.614,1033.07 L 196.535,1033.07 L 186.457,1022.99 L 176.378,1022.99 L 166.299,1012.91 L 156.22,1012.91 L 146.142,1022.99 L 136.063,1022.99 L 125.984,1012.91 L 115.906,1012.91 L 105.827,1022.99 L 95.748,1022.99 L 85.6693,1012.91 L 75.5906,1012.91 L 65.5118,1022.99 L 55.4331,1022.99 L 45.3543,1012.91 L 35.2756,1012.91 L 25.1969,1002.83 L 15.1181,1002.83 L 5.03937,992.756 L 5.03937,982.677 L 5.03937,972.598 L 15.1181,972.598 L 25.1969,982.677 L 35.2756,982.677 L 45.3543,992.756 L 55.4331,992.756 L 65.5118,992.756 L 75.5906,992.756 L 85.6693,992.756 L 95.748,992.756 L 105.827,992.756 L 115.906,992.756 L 125.984,992.756 L 136.063,992.756 L 146.142,992.756 L 156.22,992.756 L 166.299,982.677 L 176.378,982.677 L 186.457,972.598 L 186.457,962.52 L 186.457,952.441 L 186.457,942.362 L 186.457,932.283 L 186.457,922.205 L 186.457,912.126 L 186.457,902.047 L 186.457,891.969 L 196.535,891.969 L 206.614,881.89 L 216.693,881.89 L 226.772,871.811 L 226.772,861.732 L 226.772,851.654 L 226.772,841.575 L 226.772,831.496 L 236.85,831.496 L 246.929,821.417 L 257.008,821.417 L 267.087,811.339 L 257.008,801.26 L 246.929,801.26 L 246.929,791.181 L 246.929,781.102 L 246.929,771.024 L 246.929,760.945 L 246.929,750.866 L 246.929,740.787 L 246.929,730.709 L 246.929,720.63 L 246.929,710.551 L 246.929,700.472 L 257.008,700.472 L 267.087,690.394 L 267.087,680.315 L 267.087,670.236 L 267.087,660.157 L 267.087,650.079 L 267.087,640 L 267.087,629.921 L 257.008,619.843 L 246.929,609.764 L 236.85,609.764 L 226.772,599.685 L 216.693,599.685 L 206.614,589.606 L 196.535,589.606 L 186.457,599.685 L 176.378,599.685 L 166.299,589.606 L 156.22,589.606 L 156.22,579.528 L 156.22,569.449 L 166.299,559.37 z " style="fill-opacity:0.5;fill:rgb(253,0,0);stroke:rgb(253,0,0);stroke-width:2"/></g>
<g fill-rule="evenodd"><path d="M 1285.04,1285.04 L 5.03937,1285.04 L 226.772,1274.96 L 226.772,1254.8 L 206.614,1244.72 L 206.614,1123.78 L 246.929,1103.62 L 246.929,1053.23 L 166.299,1012.91 L 55.4331,1022.99 L 5.03937,992.756 L 5.03937,972.598 L 45.3543,992.756 L 176.378,982.677 L 186.457,891.969 L 216.693,881.89 L 226.772,831.496 L 267.087,811.339 L 246.929,801.26 L 246.929,700.472 L 267.087,690.394 L 267.087,629.921 L 206.614,589.606 L 156.22,589.606 L 156.22,569.449 L 196.535,559.37 L 297.323,609.764 L 297.323,660.157 L 337.638,670.236 L 337.638,690.394 L 277.165,720.63 L 287.244,791.181 L 327.559,811.339 L 418.268,811.339 L 418.268,831.496 L 388.031,841.575 L 317.48,831.496 L 297.323,851.654 L 297.323,891.969 L 257.008,912.126 L 257.008,972.598 L 307.402,1012.91 L 377.953,1012.91 L 458.583,1053.23 L 468.661,1083.46 L 468.661,1103.62 L 418.268,1123.78 L 367.874,1093.54 L 357.795,1053.23 L 317.48,1053.23 L 297.323,1073.39 L 297.323,1103.62 L 257.008,1133.86 L 257.008,1234.65 L 277.165,1244.72 L 287.244,1285.04 L 539.213,1285.04 L 569.449,1264.88 L 569.449,1244.72 L 599.685,1244.72 L 609.764,1285.04 L 982.677,1285.04 L 1012.91,1143.94 L 972.598,1113.7 L 972.598,1083.46 L 952.441,1063.31 L 922.205,1073.39 L 831.496,1022.99 L 791.181,1043.15 L 740.787,1043.15 L 700.472,1022.99 L 660.157,1053.23 L 640,1133.86 L 589.606,1184.25 L 559.37,1194.33 L 529.134,1164.09 L 609.764,1123.78 L 629.921,1033.07 L 660.157,1022.99 L 670.236,992.756 L 730.709,1012.91 L 801.26,1012.91 L 831.496,992.756 L 831.496,932.283 L 881.89,942.362 L 891.969,1012.91 L 1022.99,1033.07 L 1053.23,1002.83 L 1053.23,982.677 L 1012.91,952.441 L 1012.91,902.047 L 1033.07,891.969 L 1033.07,831.496 L 1053.23,821.417 L 1123.78,841.575 L 1123.78,871.811 L 1083.46,942.362 L 1113.7,1022.99 L 1224.57,1022.99 L 1274.96,992.756 L 1285.04,1012.91 L 1214.49,1053.23 L 1143.94,1043.15 L 1022.99,1113.7 L 1063.31,1133.86 L 1043.15,1274.96 L 1285.04,1285.04 z " style="fill-opacity:0.5;fill:rgb(51,51,153);stroke:rgb(0,0,0);stroke-width:5"/></g>
<g fill-rule="evenodd"><path d="M 5.03937,569.449 L 15.1181,569.449 L 25.1969,579.528 L 35.2756,579.528 L 45.3543,579.528 L 55.4331,579.528 L 65.5118,579.528 L 75.5906,579.528 L 85.6693,589.606 L 95.748,589.606 L 95.748,599.685 L 85.6693,599.685 L 75.5906,599.685 L 65.5118,599.685 L 55.4331,599.685 L 45.3543,599.685 L 35.2756,599.685 L 25.1969,599.685 L 15.1181,589.606 L 5.03937,589.606 L 5.03937,579.528 L 5.03937,569.449 z " style="fill-opacity:0.5;fill:rgb(253,0,0);stroke:rgb(253,0,0);stroke-width:2"/></g>
<g fill-rule="evenodd"><path d="M 95.748,599.685 L 25.1969,599.685 L 5.03937,589.606 L 5.03937,569.449 L 75.5906,579.528 L 95.748,599.685 z " style="fill-opacity:0.5;fill:rgb(51,51,153);stroke:rgb(0,0,0);stroke-width:5"/></g>
<g fill-rule="evenodd"><path d="M 1194.33,690.394 L 1204.41,690.394 L 1214.49,690.394 L 1224.57,690.394 L 1234.65,690.394 L 1244.72,690.394 L 1254.8,690.394 L 1264.88,690.394 L 1274.96,700.472 L 1285.04,700.472 L 1285.04,710.551 L 1285.04,720.63 L 1274.96,720.63 L 1264.88,710.551 L 1254.8,710.551 L 1244.72,710.551 L 1234.65,710.551 L 1224.57,710.551 L 1214.49,710.551 L 1204.41,700.472 L 1194.33,700.472 L 1194.33,690.394 z " style="fill-opacity:0.5;fill:rgb(253,0,0);stroke:rgb(253,0,0);stroke-width:2"/></g>
<g fill-rule="evenodd"><path d="M 1285.04,720.63 L 1214.49,710.551 L 1194.33,690.394 L 1264.88,690.394 L 1285.04,700.472 L 1285.04,720.63 z " style="fill-opacity:0.5;fill:rgb(51,51,153);stroke:rgb(0,0,0);stroke-width:5"/></g>
<g fill-rule="evenodd"><path d="M 1274.96,791.181 L 1285.04,791.181 L 1285.04,801.26 L 1274.96,801.26 L 1274.96,791.181M 257.008,1002.83 L 246.929,1012.91 L 236.85,1022.99 L 236.85,1033.07 L 246.929,1043.15 L 257.008,1043.15 L 267.087,1043.15 L 277.165,1043.15 L 287.244,1043.15 L 297.323,1043.15 L 307.402,1033.07 L 307.402,1022.99 L 297.323,1012.91 L 287.244,1012.91 L 277.165,1012.91 L 267.087,1002.83 L 257.008,1002.83M 1033.07,1022.99 L 1022.99,1033.07 L 1022.99,1043.15 L 1022.99,1053.23 L 1033.07,1063.31 L 1043.15,1063.31 L 1053.23,1063.31 L 1063.31,1063.31 L 1073.39,1063.31 L 1083.46,1063.31 L 1093.54,1053.23 L 1093.54,1043.15 L 1083.46,1033.07 L 1073.39,1022.99 L 1063.31,1022.99 L 1053.23,1033.07 L 1043.15,1033.07 L 1033.07,1022.99 z " style="fill-opacity:0.5;fill:rgb(253,0,0);stroke:rgb(253,0,0);stroke-width:2"/></g>
<g fill-rule="evenodd"><path d="M 307.402,1033.07 L 267.087,1002.83 L 236.85,1022.99 L 246.929,1043.15 L 307.402,1033.07M 1093.54,1053.23 L 1073.39,1022.99 L 1022.99,1033.07 L 1033.07,1063.31 L 1093.54,1053.23 z " style="fill-opacity:0.5;fill:rgb(51,51,153);stroke:rgb(0,0,0);stroke-width:5"/></g>
</svg>
