<?xml version="1.0" standalone="no"?>
<!DOCTYPE svg PUBLIC "-//W3C//DTD SVG 1.1//EN"
"http://www.w3.org/Graphics/SVG/1.1/DTD/svg11.dtd">
<svg width="100%" height="100%" version="1.1"
xmlns="http://www.w3.org/2000/svg"
xmlns:xlink="http://www.w3.org/1999/xlink">
<g fill-rule="evenodd"><path d="M 186.457,6.29921 L 196.535,6.29921 L 206.614,6.29921 L 216.693,6.29921 L 226.772,6.29921 L 236.85,6.29921 L 246.929,6.29921 L 257.008,6.29921 L 267.087,6.29921 L 277.165,6.29921 L 277.165,16.378 L 267.087,16.378 L 257.008,26.4567 L 246.929,26.4567 L 236.85,26.4567 L 226.772,26.4567 L 216.693,16.378 L 206.614,16.378 L 196.535,6.29921 L 186.457,6.29921 z " style="fill-opacity:0.5;fill:rgb(253,0,0);stroke:rgb(253,0,0);stroke-width:2"/></g>
<g fill-rule="evenodd"><path d="M 277.165,16.378 L 226.772,26.4567 L 186.457,6.29921 L 277.165,16.378 z " style="fill-opacity:0.5;fill:rgb(51,51,153);stroke:rgb(0,0,0);stroke-width:5"/></g>
<g fill-rule="evenodd"><path d="M 1174.17,46.6142 L 1184.25,46.6142 L 1194.33,46.6142 L 1204.41,46.6142 L 1214.49,56.6929 L 1224.57,56.6929 L 1224.57,66.7717 L 1224.57,76.8504 L 1234.65,86.9291 L 1244.72,86.9291 L 1244.72,97.0079 L 1234.65,97.0079 L 1224.57,107.087 L 1224.57,117.165 L 1234.65,127.244 L 1244.72,127.244 L 1244.72,137.323 L 1234.65,137.323 L 1224.57,147.402 L 1224.57,157.48 L 1234.65,167.559 L 1244.72,167.559 L 1244.72,177.638 L 1234.65,177.638 L 1224.57,187.717 L 1224.57,197.795 L 1234.65,207.874 L 1244.72,207.874 L 1244.72,217.953 L 1244.72,228.031 L 1254.8,238.11 L 1264.88,238.11 L 1264.88,248.189 L 1254.8,248.189 L 1244.72,258.268 L 1244.72,268.346 L 1244.72,278.425 L 1244.72,288.504 L 1244.72,298.583 L 1244.72,308.661 L 1244.72,318.74 L 1244.72,328.819 L 1254.8,338.898 L 1264.88,338.898 L 1264.88,348.976 L 1254.8,348.976 L 1244.72,359.055 L 1234.65,359.055 L 1224.57,359.055 L 1214.49,359.055 L 1204.41,348.976 L 1204.41,338.898 L 1214.49,328.819 L 1214.49,318.74 L 1224.57,308.661 L 1214.49,298.583 L 1224.57,288.504 L 1214.49,278.425 L 1224.57,268.346 L 1224.57,258.268 L 1234.65,248.189 L 1224.57,238.11 L 1214.49,238.11 L 1204.41,238.11 L 1194.33,238.11 L 1184.25,238.11 L 1174.17,238.11 L 1164.09,228.031 L 1154.02,228.031 L 1143.94,228.031 L 1133.86,228.031 L 1123.78,228.031 L 1113.7,228.031 L 1103.62,228.031 L 1093.54,228.031 L 1083.46,228.031 L 1073.39,228.031 L 1063.31,217.953 L 1053.23,217.953 L 1043.15,217.953 L 1033.07,217.953 L 1033.07,207.874 L 1022.99,197.795 L 1012.91,197.795 L 1012.91,187.717 L 1002.83,177.638 L 992.756,177.638 L 992.756,167.559 L 982.677,157.48 L 972.598,157.48 L 962.52,147.402 L 952.441,147.402 L 952.441,137.323 L 952.441,127.244 L 942.362,117.165 L 932.283,117.165 L 922.205,107.087 L 912.126,107.087 L 902.047,107.087 L 891.969,117.165 L 881.89,127.244 L 881.89,137.323 L 871.811,137.323 L 861.732,147.402 L 851.654,147.402 L 841.575,137.323 L 841.575,127.244 L 851.654,117.165 L 851.654,107.087 L 861.732,107.087 L 871.811,97.0079 L 871.811,86.9291 L 871.811,76.8504 L 881.89,76.8504 L 891.969,66.7717 L 902.047,66.7717 L 912.126,66.7717 L 922.205,66.7717 L 932.283,76.8504 L 942.362,76.8504 L 952.441,86.9291 L 962.52,86.9291 L 972.598,97.0079 L 982.677,97.0079 L 992.756,107.087 L 1002.83,107.087 L 1012.91,117.165 L 1022.99,117.165 L 1022.99,127.244 L 1022.99,137.323 L 1033.07,147.402 L 1043.15,147.402 L 1053.23,147.402 L 1063.31,147.402 L 1073.39,147.402 L 1083.46,147.402 L 1093.54,147.402 L 1103.62,147.402 L 1113.7,137.323 L 1123.78,137.323 L 1133.86,127.244 L 1133.86,117.165 L 1133.86,107.087 L 1143.94,107.087 L 1154.02,97.0079 L 1164.09,97.0079 L 1174.17,86.9291 L 1174.17,76.8504 L 1164.09,66.7717 L 1154.02,66.7717 L 1154.02,56.6929 L 1164.09,56.6929 L 1174.17,46.6142 z " style="fill-opacity:0.5;fill:rgb(253,0,0);stroke:rgb(253,0,0);stroke-width:2"/></g>
<g fill-rule="evenodd"><path d="M 841.575,137.323 L 871.811,76.8504 L 922.205,66.7717 L 1022.99,117.165 L 1033.07,147.402 L 1103.62,147.402 L 1133.86,127.244 L 1133.86,107.087 L 1174.17,86.9291 L 1154.02,56.6929 L 1204.41,46.6142 L 1244.72,86.9291 L 1224.57,107.087 L 1244.72,127.244 L 1224.57,147.402 L 1244.72,167.559 L 1224.57,197.795 L 1264.88,238.11 L 1244.72,258.268 L 1244.72,328.819 L 1264.88,348.976 L 1204.41,348.976 L 1224.57,308.661 L 1224.57,238.11 L 1033.07,217.953 L 922.205,107.087 L 902.047,107.087 L 861.732,147.402 L 841.575,137.323 z " style="fill-opacity:0.5;fill:rgb(51,51,153);stroke:rgb(0,0,0);stroke-width:5"/></g>
<g fill-rule="evenodd"><path d="M 246.929,66.7717 L 257.008,66.7717 L 267.087,66.7717 L 277.165,66.7717 L 287.244,76.8504 L 297.323,76.8504 L 297.323,86.9291 L 297.323,97.0079 L 307.402,107.087 L 317.48,107.087 L 327.559,117.165 L 337.638,117.165 L 347.717,127.244 L 357.795,127.244 L 357.795,137.323 L 347.717,137.323 L 337.638,147.402 L 347.717,157.48 L 357.795,157.48 L 367.874,157.48 L 377.953,157.48 L 388.031,167.559 L 398.11,167.559 L 408.189,167.559 L 418.268,167.559 L 428.346,167.559 L 438.425,167.559 L 448.504,167.559 L 458.583,167.559 L 468.661,167.559 L 478.74,167.559 L 478.74,177.638 L 468.661,187.717 L 458.583,197.795 L 448.504,197.795 L 438.425,207.874 L 428.346,207.874 L 418.268,207.874 L 408.189,207.874 L 398.11,217.953 L 388.031,217.953 L 377.953,217.953 L 367.874,217.953 L 357.795,228.031 L 357.795,238.11 L 357.795,248.189 L 357.795,258.268 L 357.795,268.346 L 347.717,278.425 L 357.795,288.504 L 357.795,298.583 L 367.874,308.661 L 377.953,308.661 L 377.953,318.74 L 367.874,328.819 L 377.953,338.898 L 377.953,348.976 L 367.874,359.055 L 367.874,369.134 L 357.795,379.213 L 347.717,379.213 L 337.638,389.291 L 327.559,389.291 L 317.48,399.37 L 317.48,409.449 L 327.559,419.528 L 337.638,419.528 L 347.717,419.528 L 347.717,429.606 L 337.638,439.685 L 327.559,439.685 L 317.48,449.764 L 317.48,459.843 L 307.402,459.843 L 297.323,469.921 L 297.323,480 L 297.323,490.079 L 297.323,500.157 L 297.323,510.236 L 297.323,520.315 L 287.244,530.394 L 297.323,540.472 L 297.323,550.551 L 287.244,550.551 L 277.165,560.63 L 267.087,560.63 L 257.008,570.709 L 267.087,580.787 L 277.165,590.866 L 277.165,600.945 L 277.165,611.024 L 277.165,621.102 L 277.165,631.181 L 277.165,641.26 L 277.165,651.339 L 277.165,661.417 L 267.087,661.417 L 257.008,661.417 L 246.929,661.417 L 236.85,651.339 L 226.772,651.339 L 226.772,641.26 L 236.85,631.181 L 246.929,621.102 L 246.929,611.024 L 246.929,600.945 L 236.85,590.866 L 226.772,590.866 L 216.693,590.866 L 206.614,590.866 L 196.535,590.866 L 186.457,590.866 L 176.378,580.787 L 166.299,580.787 L 166.299,570.709 L 176.378,560.63 L 186.457,560.63 L 196.535,560.63 L 206.614,560.63 L 216.693,560.63 L 226.772,550.551 L 236.85,550.551 L 246.929,540.472 L 236.85,530.394 L 226.772,530.394 L 226.772,520.315 L 236.85,510.236 L 246.929,500.157 L 246.929,490.079 L 257.008,480 L 267.087,469.921 L 267.087,459.843 L 277.165,449.764 L 287.244,439.685 L 287.244,429.606 L 287.244,419.528 L 287.244,409.449 L 297.323,399.37 L 307.402,389.291 L 307.402,379.213 L 307.402,369.134 L 307.402,359.055 L 317.48,348.976 L 327.559,338.898 L 317.48,328.819 L 307.402,328.819 L 297.323,338.898 L 287.244,338.898 L 287.244,328.819 L 297.323,328.819 L 307.402,318.74 L 307.402,308.661 L 297.323,298.583 L 287.244,298.583 L 287.244,288.504 L 287.244,278.425 L 287.244,268.346 L 287.244,258.268 L 277.165,248.189 L 267.087,248.189 L 257.008,248.189 L 246.929,248.189 L 257.008,248.189 L 267.087,238.11 L 257.008,228.031 L 246.929,228.031 L 236.85,228.031 L 226.772,228.031 L 216.693,228.031 L 206.614,228.031 L 196.535,238.11 L 186.457,238.11 L 176.378,238.11 L 166.299,238.11 L 156.22,228.031 L 146.142,228.031 L 136.063,238.11 L 125.984,238.11 L 115.906,238.11 L 105.827,238.11 L 95.748,248.189 L 85.6693,248.189 L 75.5906,238.11 L 65.5118,238.11 L 55.4331,238.11 L 45.3543,238.11 L 35.2756,238.11 L 25.1969,238.11 L 15.1181,248.189 L 5.03937,248.189 L 5.03937,238.11 L 5.03937,228.031 L 5.03937,217.953 L 5.03937,207.874 L 5.03937,197.795 L 5.03937,187.717 L 5.03937,177.638 L 5.03937,167.559 L 5.03937,157.48 L 5.03937,147.402 L 5.03937,137.323 L 15.1181,137.323 L 15.1181,147.402 L 25.1969,157.48 L 35.2756,157.48 L 45.3543,147.402 L 55.4331,147.402 L 65.5118,147.402 L 75.5906,147.402 L 85.6693,157.48 L 95.748,157.48 L 105.827,157.48 L 115.906,157.48 L 125.984,147.402 L 136.063,147.402 L 146.142,137.323 L 156.22,137.323 L 166.299,137.323 L 176.378,137.323 L 186.457,137.323 L 196.535,137.323 L 206.614,127.244 L 206.614,117.165 L 206.614,107.087 L 216.693,107.087 L 226.772,97.0079 L 226.772,86.9291 L 226.772,76.8504 L 236.85,76.8504 L 246.929,66.7717 z " style="fill-opacity:0.5;fill:rgb(253,0,0);stroke:rgb(253,0,0);stroke-width:2"/></g>
<g fill-rule="evenodd"><path d="M 277.165,661.417 L 226.772,651.339 L 246.929,621.102 L 236.85,590.866 L 186.457,590.866 L 166.299,570.709 L 246.929,540.472 L 226.772,520.315 L 287.244,439.685 L 287.244,409.449 L 327.559,338.898 L 287.244,338.898 L 307.402,318.74 L 287.244,298.583 L 287.244,258.268 L 246.929,248.189 L 267.087,238.11 L 257.008,228.031 L 5.03937,248.189 L 5.03937,137.323 L 25.1969,157.48 L 115.906,157.48 L 146.142,137.323 L 196.535,137.323 L 226.772,76.8504 L 246.929,66.7717 L 297.323,76.8504 L 307.402,107.087 L 357.795,127.244 L 337.638,147.402 L 347.717,157.48 L 478.74,167.559 L 458.583,197.795 L 357.795,228.031 L 347.717,278.425 L 377.953,308.661 L 377.953,348.976 L 357.795,379.213 L 317.48,399.37 L 347.717,429.606 L 297.323,469.921 L 297.323,550.551 L 257.008,570.709 L 277.165,590.866 L 277.165,661.417 z " style="fill-opacity:0.5;fill:rgb(51,51,153);stroke:rgb(0,0,0);stroke-width:5"/></g>
<g fill-rule="evenodd"><path d="M 609.764,86.9291 L 619.843,86.9291 L 629.921,86.9291 L 640,86.9291 L 650.079,86.9291 L 660.157,97.0079 L 670.236,97.0079 L 680.315,97.0079 L 690.394,86.9291 L 700.472,86.9291 L 710.551,86.9291 L 720.63,86.9291 L 730.709,86.9291 L 740.787,86.9291 L 750.866,86.9291 L 760.945,86.9291 L 771.024,97.0079 L 781.102,97.0079 L 781.102,107.087 L 791.181,117.165 L 791.181,127.244 L 781.102,137.323 L 771.024,137.323 L 760.945,127.244 L 750.866,127.244 L 740.787,127.244 L 730.709,127.244 L 720.63,127.244 L 710.551,127.244 L 710.551,117.165 L 700.472,107.087 L 690.394,107.087 L 680.315,117.165 L 670.236,117.165 L 660.157,117.165 L 650.079,117.165 L 640,117.165 L 629.921,107.087 L 619.843,117.165 L 609.764,117.165 L 599.685,117.165 L 589.606,117.165 L 579.528,117.165 L 569.449,117.165 L 559.37,117.165 L 549.291,127.244 L 549.291,137.323 L 539.213,137.323 L 529.134,137.323 L 519.055,127.244 L 519.055,117.165 L 529.134,117.165 L 539.213,107.087 L 549.291,97.0079 L 559.37,97.0079 L 569.449,97.0079 L 579.528,97.0079 L 589.606,97.0079 L 599.685,97.0079 L 609.764,86.9291M 216.693,197.795 L 206.614,207.874 L 216.693,217.953 L 226.772,207.874 L 216.693,197.795M 337.638,217.953 L 327.559,228.031 L 337.638,238.11 L 347.717,228.031 L 337.638,217.953 z " style="fill-opacity:0.5;fill:rgb(253,0,0);stroke:rgb(253,0,0);stroke-width:2"/></g>
<g fill-rule="evenodd"><path d="M 791.181,127.244 L 771.024,137.323 L 710.551,127.244 L 700.472,107.087 L 629.921,107.087 L 559.37,117.165 L 549.291,137.323 L 529.134,137.323 L 519.055,117.165 L 609.764,86.9291 L 760.945,86.9291 L 791.181,127.244 z " style="fill-opacity:0.5;fill:rgb(51,51,153);stroke:rgb(0,0,0);stroke-width:5"/></g>
<g fill-rule="evenodd"><path d="M 781.102,288.504 L 791.181,288.504 L 801.26,288.504 L 811.339,298.583 L 821.417,298.583 L 831.496,298.583 L 841.575,298.583 L 851.654,298.583 L 851.654,308.661 L 861.732,318.74 L 861.732,328.819 L 851.654,328.819 L 841.575,338.898 L 841.575,348.976 L 841.575,359.055 L 831.496,359.055 L 821.417,369.134 L 811.339,369.134 L 801.26,379.213 L 811.339,389.291 L 821.417,399.37 L 821.417,409.449 L 811.339,409.449 L 801.26,419.528 L 811.339,429.606 L 821.417,439.685 L 831.496,439.685 L 841.575,429.606 L 841.575,419.528 L 851.654,419.528 L 851.654,429.606 L 841.575,439.685 L 831.496,449.764 L 831.496,459.843 L 821.417,459.843 L 811.339,459.843 L 801.26,449.764 L 791.181,449.764 L 791.181,439.685 L 791.181,429.606 L 781.102,419.528 L 771.024,419.528 L 760.945,409.449 L 750.866,409.449 L 750.866,399.37 L 760.945,399.37 L 771.024,389.291 L 760.945,379.213 L 750.866,379.213 L 740.787,379.213 L 730.709,379.213 L 720.63,369.134 L 710.551,369.134 L 710.551,359.055 L 710.551,348.976 L 700.472,338.898 L 690.394,338.898 L 680.315,338.898 L 670.236,338.898 L 660.157,338.898 L 650.079,328.819 L 650.079,318.74 L 660.157,308.661 L 670.236,308.661 L 670.236,318.74 L 680.315,328.819 L 690.394,318.74 L 700.472,318.74 L 710.551,308.661 L 720.63,308.661 L 730.709,308.661 L 740.787,318.74 L 750.866,318.74 L 760.945,308.661 L 771.024,308.661 L 781.102,298.583 L 781.102,288.504 z " style="fill-opacity:0.5;fill:rgb(253,0,0);stroke:rgb(253,0,0);stroke-width:2"/></g>
<g fill-rule="evenodd"><path d="M 831.496,459.843 L 791.181,449.764 L 791.181,429.606 L 750.866,409.449 L 771.024,389.291 L 760.945,379.213 L 710.551,369.134 L 700.472,338.898 L 660.157,338.898 L 650.079,318.74 L 750.866,318.74 L 781.102,288.504 L 851.654,298.583 L 861.732,328.819 L 841.575,338.898 L 841.575,359.055 L 801.26,379.213 L 821.417,399.37 L 801.26,419.528 L 821.417,439.685 L 851.654,419.528 L 831.496,459.843 z " style="fill-opacity:0.5;fill:rgb(51,51,153);stroke:rgb(0,0,0);stroke-width:5"/></g>
<g fill-rule="evenodd"><path d="M 1022.99,318.74 L 1033.07,318.74 L 1043.15,318.74 L 1053.23,328.819 L 1063.31,338.898 L 1063.31,348.976 L 1053.23,348.976 L 1043.15,359.055 L 1043.15,369.134 L 1043.15,379.213 L 1053.23,389.291 L 1063.31,389.291 L 1073.39,389.291 L 1083.46,389.291 L 1093.54,389.291 L 1103.62,389.291 L 1113.7,399.37 L 1123.78,409.449 L 1123.78,419.528 L 1113.7,419.528 L 1103.62,419.528 L 1093.54,419.528 L 1083.46,419.528 L 1073.39,419.528 L 1063.31,429.606 L 1053.23,429.606 L 1043.15,439.685 L 1053.23,449.764 L 1063.31,459.843 L 1063.31,469.921 L 1053.23,469.921 L 1043.15,480 L 1043.15,490.079 L 1043.15,500.157 L 1033.07,500.157 L 1022.99,510.236 L 1022.99,520.315 L 1022.99,530.394 L 1022.99,540.472 L 1022.99,550.551 L 1022.99,560.63 L 1022.99,570.709 L 1012.91,570.709 L 1002.83,580.787 L 992.756,580.787 L 982.677,590.866 L 972.598,590.866 L 962.52,600.945 L 962.52,611.024 L 962.52,621.102 L 962.52,631.181 L 962.52,641.26 L 962.52,651.339 L 962.52,661.417 L 972.598,671.496 L 982.677,681.575 L 992.756,681.575 L 1002.83,681.575 L 1002.83,691.654 L 992.756,701.732 L 1002.83,711.811 L 1002.83,721.89 L 1012.91,731.969 L 1022.99,731.969 L 1022.99,742.047 L 1033.07,752.126 L 1043.15,752.126 L 1053.23,752.126 L 1063.31,742.047 L 1073.39,742.047 L 1073.39,752.126 L 1083.46,762.205 L 1093.54,762.205 L 1103.62,762.205 L 1113.7,752.126 L 1123.78,752.126 L 1133.86,752.126 L 1143.94,752.126 L 1154.02,742.047 L 1164.09,752.126 L 1174.17,752.126 L 1184.25,742.047 L 1194.33,742.047 L 1204.41,752.126 L 1214.49,752.126 L 1224.57,742.047 L 1234.65,742.047 L 1244.72,731.969 L 1254.8,731.969 L 1264.88,742.047 L 1274.96,731.969 L 1285.04,731.969 L 1285.04,742.047 L 1285.04,752.126 L 1285.04,762.205 L 1285.04,772.283 L 1285.04,782.362 L 1285.04,792.441 L 1285.04,802.52 L 1285.04,812.598 L 1285.04,822.677 L 1285.04,832.756 L 1274.96,832.756 L 1274.96,822.677 L 1264.88,812.598 L 1254.8,812.598 L 1244.72,822.677 L 1234.65,822.677 L 1224.57,822.677 L 1214.49,822.677 L 1204.41,812.598 L 1194.33,812.598 L 1184.25,812.598 L 1174.17,812.598 L 1164.09,822.677 L 1154.02,822.677 L 1143.94,832.756 L 1133.86,832.756 L 1123.78,832.756 L 1113.7,832.756 L 1103.62,832.756 L 1093.54,832.756 L 1083.46,842.835 L 1083.46,852.913 L 1083.46,862.992 L 1073.39,862.992 L 1063.31,873.071 L 1063.31,883.15 L 1063.31,893.228 L 1053.23,893.228 L 1043.15,903.307 L 1033.07,903.307 L 1022.99,903.307 L 1012.91,903.307 L 1002.83,893.228 L 992.756,893.228 L 992.756,883.15 L 992.756,873.071 L 982.677,862.992 L 972.598,862.992 L 962.52,852.913 L 952.441,852.913 L 942.362,842.835 L 932.283,842.835 L 932.283,832.756 L 942.362,832.756 L 952.441,822.677 L 942.362,812.598 L 932.283,812.598 L 922.205,812.598 L 912.126,812.598 L 902.047,802.52 L 891.969,802.52 L 881.89,802.52 L 871.811,802.52 L 861.732,802.52 L 851.654,802.52 L 841.575,802.52 L 831.496,802.52 L 821.417,802.52 L 811.339,792.441 L 811.339,782.362 L 821.417,772.283 L 831.496,772.283 L 831.496,782.362 L 841.575,792.441 L 851.654,782.362 L 851.654,772.283 L 861.732,772.283 L 871.811,782.362 L 881.89,772.283 L 891.969,762.205 L 902.047,762.205 L 912.126,752.126 L 922.205,752.126 L 932.283,742.047 L 932.283,731.969 L 932.283,721.89 L 932.283,711.811 L 932.283,701.732 L 932.283,691.654 L 932.283,681.575 L 922.205,671.496 L 912.126,671.496 L 912.126,661.417 L 912.126,651.339 L 912.126,641.26 L 922.205,631.181 L 912.126,621.102 L 912.126,611.024 L 912.126,600.945 L 922.205,590.866 L 932.283,580.787 L 942.362,580.787 L 952.441,580.787 L 962.52,580.787 L 972.598,570.709 L 972.598,560.63 L 962.52,550.551 L 962.52,540.472 L 972.598,530.394 L 982.677,530.394 L 992.756,520.315 L 992.756,510.236 L 992.756,500.157 L 1002.83,490.079 L 1012.91,480 L 1002.83,469.921 L 992.756,469.921 L 992.756,459.843 L 992.756,449.764 L 992.756,439.685 L 1002.83,429.606 L 1012.91,419.528 L 1022.99,419.528 L 1033.07,409.449 L 1022.99,399.37 L 1012.91,399.37 L 1012.91,389.291 L 1012.91,379.213 L 1012.91,369.134 L 1012.91,359.055 L 1012.91,348.976 L 1012.91,338.898 L 1012.91,328.819 L 1022.99,318.74 z " style="fill-opacity:0.5;fill:rgb(253,0,0);stroke:rgb(253,0,0);stroke-width:2"/></g>
<g fill-rule="evenodd"><path d="M 1043.15,903.307 L 992.756,893.228 L 982.677,862.992 L 932.283,842.835 L 952.441,822.677 L 942.362,812.598 L 811.339,792.441 L 821.417,772.283 L 841.575,792.441 L 851.654,772.283 L 871.811,782.362 L 932.283,742.047 L 912.126,600.945 L 972.598,570.709 L 962.52,540.472 L 992.756,520.315 L 1012.91,480 L 992.756,469.921 L 992.756,439.685 L 1033.07,409.449 L 1012.91,399.37 L 1022.99,318.74 L 1063.31,338.898 L 1043.15,379.213 L 1103.62,389.291 L 1123.78,419.528 L 1073.39,419.528 L 1043.15,439.685 L 1063.31,469.921 L 1022.99,510.236 L 1022.99,570.709 L 962.52,600.945 L 962.52,661.417 L 1002.83,681.575 L 992.756,701.732 L 1033.07,752.126 L 1073.39,742.047 L 1083.46,762.205 L 1103.62,762.205 L 1154.02,742.047 L 1214.49,752.126 L 1244.72,731.969 L 1285.04,731.969 L 1285.04,832.756 L 1264.88,812.598 L 1174.17,812.598 L 1143.94,832.756 L 1093.54,832.756 L 1063.31,893.228 L 1043.15,903.307 z " style="fill-opacity:0.5;fill:rgb(51,51,153);stroke:rgb(0,0,0);stroke-width:5"/></g>
<g fill-rule="evenodd"><path d="M 579.528,359.055 L 589.606,369.134 L 599.685,369.134 L 609.764,379.213 L 609.764,389.291 L 599.685,399.37 L 599.685,409.449 L 599.685,419.528 L 589.606,419.528 L 579.528,429.606 L 569.449,429.606 L 559.37,439.685 L 559.37,449.764 L 559.37,459.843 L 549.291,459.843 L 539.213,469.921 L 529.134,469.921 L 519.055,469.921 L 508.976,469.921 L 498.898,459.843 L 498.898,449.764 L 508.976,439.685 L 519.055,439.685 L 529.134,439.685 L 539.213,439.685 L 549.291,429.606 L 559.37,429.606 L 569.449,419.528 L 569.449,409.449 L 579.528,399.37 L 579.528,389.291 L 569.449,379.213 L 569.449,369.134 L 579.528,359.055 z " style="fill-opacity:0.5;fill:rgb(253,0,0);stroke:rgb(253,0,0);stroke-width:2"/></g>
<g fill-rule="evenodd"><path d="M 508.976,469.921 L 508.976,439.685 L 569.449,419.528 L 569.449,369.134 L 599.685,369.134 L 599.685,419.528 L 569.449,429.606 L 559.37,459.843 L 508.976,469.921 z " style="fill-opacity:0.5;fill:rgb(51,51,153);stroke:rgb(0,0,0);stroke-width:5"/></g>
<g fill-rule="evenodd"><path d="M 1164.09,359.055 L 1174.17,359.055 L 1184.25,359.055 L 1194.33,369.134 L 1194.33,379.213 L 1184.25,389.291 L 1184.25,399.37 L 1194.33,409.449 L 1204.41,409.449 L 1214.49,409.449 L 1224.57,409.449 L 1234.65,409.449 L 1244.72,409.449 L 1254.8,409.449 L 1264.88,419.528 L 1274.96,419.528 L 1285.04,419.528 L 1285.04,429.606 L 1285.04,439.685 L 1274.96,439.685 L 1264.88,439.685 L 1254.8,439.685 L 1244.72,429.606 L 1234.65,429.606 L 1224.57,429.606 L 1214.49,429.606 L 1204.41,429.606 L 1194.33,429.606 L 1184.25,419.528 L 1174.17,419.528 L 1164.09,409.449 L 1154.02,409.449 L 1154.02,399.37 L 1164.09,389.291 L 1174.17,379.213 L 1174.17,369.134 L 1164.09,359.055 z " style="fill-opacity:0.5;fill:rgb(253,0,0);stroke:rgb(253,0,0);stroke-width:2"/></g>
<g fill-rule="evenodd"><path d="M 1285.04,439.685 L 1194.33,429.606 L 1154.02,409.449 L 1174.17,379.213 L 1164.09,359.055 L 1194.33,369.134 L 1194.33,409.449 L 1254.8,409.449 L 1285.04,419.528 L 1285.04,439.685 z " style="fill-opacity:0.5;fill:rgb(51,51,153);stroke:rgb(0,0,0);stroke-width:5"/></g>
<g fill-rule="evenodd"><path d="M 750.866,500.157 L 760.945,500.157 L 771.024,500.157 L 781.102,500.157 L 791.181,500.157 L 791.181,510.236 L 781.102,520.315 L 771.024,520.315 L 760.945,530.394 L 760.945,540.472 L 750.866,540.472 L 740.787,550.551 L 740.787,560.63 L 730.709,560.63 L 720.63,570.709 L 720.63,580.787 L 710.551,590.866 L 710.551,600.945 L 700.472,600.945 L 690.394,600.945 L 680.315,590.866 L 680.315,580.787 L 690.394,580.787 L 700.472,570.709 L 690.394,560.63 L 690.394,550.551 L 700.472,550.551 L 710.551,540.472 L 720.63,540.472 L 730.709,530.394 L 730.709,520.315 L 730.709,510.236 L 740.787,510.236 L 750.866,500.157 z " style="fill-opacity:0.5;fill:rgb(253,0,0);stroke:rgb(253,0,0);stroke-width:2"/></g>
<g fill-rule="evenodd"><path d="M 690.394,600.945 L 690.394,550.551 L 720.63,540.472 L 730.709,510.236 L 791.181,500.157 L 720.63,570.709 L 710.551,600.945 L 690.394,600.945 z " style="fill-opacity:0.5;fill:rgb(51,51,153);stroke:rgb(0,0,0);stroke-width:5"/></g>
<g fill-rule="evenodd"><path d="M 478.74,510.236 L 488.819,520.315 L 498.898,520.315 L 508.976,530.394 L 508.976,540.472 L 519.055,550.551 L 529.134,560.63 L 539.213,560.63 L 539.213,570.709 L 529.134,570.709 L 519.055,580.787 L 529.134,590.866 L 539.213,590.866 L 549.291,590.866 L 559.37,590.866 L 569.449,600.945 L 579.528,600.945 L 579.528,611.024 L 579.528,621.102 L 589.606,631.181 L 599.685,631.181 L 609.764,631.181 L 619.843,631.181 L 629.921,631.181 L 640,631.181 L 640,641.26 L 629.921,651.339 L 619.843,651.339 L 609.764,651.339 L 599.685,661.417 L 599.685,671.496 L 599.685,681.575 L 589.606,681.575 L 579.528,681.575 L 569.449,681.575 L 559.37,691.654 L 549.291,691.654 L 539.213,691.654 L 529.134,691.654 L 519.055,701.732 L 508.976,701.732 L 498.898,691.654 L 498.898,681.575 L 488.819,671.496 L 478.74,671.496 L 468.661,671.496 L 458.583,661.417 L 448.504,671.496 L 448.504,681.575 L 438.425,691.654 L 428.346,691.654 L 418.268,681.575 L 408.189,681.575 L 408.189,671.496 L 418.268,661.417 L 408.189,651.339 L 418.268,651.339 L 428.346,651.339 L 438.425,651.339 L 448.504,641.26 L 448.504,631.181 L 458.583,621.102 L 468.661,611.024 L 478.74,611.024 L 488.819,600.945 L 478.74,590.866 L 468.661,590.866 L 468.661,580.787 L 478.74,570.709 L 488.819,560.63 L 488.819,550.551 L 478.74,540.472 L 468.661,530.394 L 468.661,520.315 L 478.74,510.236 z " style="fill-opacity:0.5;fill:rgb(253,0,0);stroke:rgb(253,0,0);stroke-width:2"/></g>
<g fill-rule="evenodd"><path d="M 599.685,681.575 L 519.055,701.732 L 458.583,661.417 L 438.425,691.654 L 408.189,681.575 L 408.189,651.339 L 438.425,651.339 L 488.819,600.945 L 468.661,590.866 L 488.819,560.63 L 468.661,530.394 L 478.74,510.236 L 539.213,560.63 L 519.055,580.787 L 529.134,590.866 L 579.528,600.945 L 589.606,631.181 L 640,631.181 L 599.685,661.417 L 599.685,681.575 z " style="fill-opacity:0.5;fill:rgb(51,51,153);stroke:rgb(0,0,0);stroke-width:5"/></g>
<g fill-rule="evenodd"><path d="M 5.03937,540.472 L 15.1181,540.472 L 25.1969,540.472 L 35.2756,540.472 L 45.3543,550.551 L 55.4331,550.551 L 65.5118,550.551 L 75.5906,550.551 L 85.6693,550.551 L 95.748,550.551 L 105.827,560.63 L 115.906,560.63 L 125.984,570.709 L 136.063,580.787 L 136.063,590.866 L 125.984,590.866 L 115.906,600.945 L 105.827,600.945 L 95.748,590.866 L 95.748,580.787 L 105.827,570.709 L 95.748,560.63 L 85.6693,560.63 L 75.5906,560.63 L 65.5118,560.63 L 55.4331,560.63 L 45.3543,560.63 L 35.2756,550.551 L 25.1969,550.551 L 15.1181,550.551 L 5.03937,550.551 L 5.03937,540.472 z " style="fill-opacity:0.5;fill:rgb(253,0,0);stroke:rgb(253,0,0);stroke-width:2"/></g>
<g fill-rule="evenodd"><path d="M 136.063,590.866 L 105.827,600.945 L 95.748,560.63 L 45.3543,560.63 L 5.03937,540.472 L 95.748,550.551 L 136.063,590.866 z " style="fill-opacity:0.5;fill:rgb(51,51,153);stroke:rgb(0,0,0);stroke-width:5"/></g>
<g fill-rule="evenodd"><path d="M 65.5118,600.945 L 75.5906,600.945 L 85.6693,611.024 L 95.748,621.102 L 95.748,631.181 L 85.6693,631.181 L 75.5906,631.181 L 65.5118,641.26 L 75.5906,651.339 L 75.5906,661.417 L 65.5118,671.496 L 75.5906,681.575 L 65.5118,691.654 L 75.5906,701.732 L 75.5906,711.811 L 75.5906,721.89 L 65.5118,721.89 L 55.4331,731.969 L 65.5118,742.047 L 75.5906,752.126 L 85.6693,752.126 L 95.748,742.047 L 105.827,742.047 L 115.906,742.047 L 125.984,752.126 L 136.063,752.126 L 146.142,752.126 L 156.22,752.126 L 166.299,752.126 L 176.378,752.126 L 186.457,752.126 L 196.535,752.126 L 206.614,752.126 L 216.693,752.126 L 226.772,762.205 L 236.85,772.283 L 246.929,782.362 L 257.008,782.362 L 267.087,782.362 L 277.165,792.441 L 287.244,802.52 L 297.323,802.52 L 297.323,812.598 L 307.402,822.677 L 317.48,822.677 L 327.559,832.756 L 337.638,842.835 L 347.717,852.913 L 357.795,852.913 L 357.795,862.992 L 347.717,862.992 L 337.638,873.071 L 347.717,883.15 L 357.795,883.15 L 367.874,883.15 L 377.953,883.15 L 388.031,873.071 L 398.11,873.071 L 408.189,862.992 L 418.268,862.992 L 428.346,862.992 L 438.425,852.913 L 438.425,842.835 L 448.504,852.913 L 438.425,862.992 L 428.346,862.992 L 418.268,873.071 L 408.189,873.071 L 398.11,883.15 L 388.031,883.15 L 377.953,893.228 L 367.874,893.228 L 357.795,893.228 L 347.717,893.228 L 337.638,883.15 L 327.559,883.15 L 317.48,873.071 L 307.402,873.071 L 297.323,862.992 L 287.244,862.992 L 277.165,852.913 L 267.087,852.913 L 267.087,842.835 L 267.087,832.756 L 257.008,822.677 L 246.929,822.677 L 236.85,822.677 L 226.772,822.677 L 216.693,822.677 L 206.614,822.677 L 196.535,822.677 L 186.457,822.677 L 176.378,832.756 L 166.299,832.756 L 156.22,842.835 L 156.22,852.913 L 156.22,862.992 L 146.142,862.992 L 136.063,873.071 L 125.984,873.071 L 115.906,883.15 L 115.906,893.228 L 125.984,903.307 L 136.063,903.307 L 136.063,913.386 L 125.984,913.386 L 115.906,923.465 L 105.827,923.465 L 95.748,923.465 L 85.6693,923.465 L 75.5906,913.386 L 65.5118,913.386 L 65.5118,903.307 L 65.5118,893.228 L 55.4331,883.15 L 45.3543,883.15 L 45.3543,873.071 L 55.4331,873.071 L 65.5118,862.992 L 65.5118,852.913 L 55.4331,842.835 L 45.3543,842.835 L 45.3543,832.756 L 55.4331,832.756 L 65.5118,822.677 L 65.5118,812.598 L 55.4331,802.52 L 45.3543,802.52 L 45.3543,792.441 L 55.4331,792.441 L 65.5118,782.362 L 65.5118,772.283 L 55.4331,762.205 L 45.3543,762.205 L 45.3543,752.126 L 45.3543,742.047 L 35.2756,731.969 L 25.1969,731.969 L 25.1969,721.89 L 35.2756,721.89 L 45.3543,711.811 L 45.3543,701.732 L 45.3543,691.654 L 45.3543,681.575 L 45.3543,671.496 L 45.3543,661.417 L 45.3543,651.339 L 45.3543,641.26 L 35.2756,631.181 L 25.1969,631.181 L 25.1969,621.102 L 35.2756,621.102 L 45.3543,611.024 L 55.4331,611.024 L 65.5118,600.945M 549.291,641.26 L 539.213,651.339 L 549.291,661.417 L 559.37,651.339 L 549.291,641.26 z " style="fill-opacity:0.5;fill:rgb(253,0,0);stroke:rgb(253,0,0);stroke-width:2"/></g>
<g fill-rule="evenodd"><path d="M 448.504,852.913 L 377.953,893.228 L 347.717,893.228 L 267.087,852.913 L 257.008,822.677 L 186.457,822.677 L 156.22,842.835 L 156.22,862.992 L 115.906,883.15 L 136.063,913.386 L 65.5118,913.386 L 65.5118,893.228 L 45.3543,883.15 L 65.5118,862.992 L 45.3543,842.835 L 65.5118,822.677 L 45.3543,802.52 L 65.5118,772.283 L 25.1969,731.969 L 45.3543,711.811 L 45.3543,641.26 L 25.1969,621.102 L 65.5118,600.945 L 95.748,621.102 L 65.5118,641.26 L 75.5906,721.89 L 55.4331,731.969 L 75.5906,752.126 L 216.693,752.126 L 357.795,852.913 L 337.638,873.071 L 347.717,883.15 L 428.346,862.992 L 438.425,842.835 L 448.504,852.913 z " style="fill-opacity:0.5;fill:rgb(51,51,153);stroke:rgb(0,0,0);stroke-width:5"/></g>
<g fill-rule="evenodd"><path d="M 740.787,822.677 L 750.866,832.756 L 760.945,832.756 L 771.024,842.835 L 771.024,852.913 L 760.945,862.992 L 750.866,862.992 L 740.787,862.992 L 730.709,862.992 L 720.63,862.992 L 710.551,862.992 L 700.472,873.071 L 690.394,873.071 L 680.315,883.15 L 670.236,883.15 L 660.157,883.15 L 650.079,883.15 L 640,873.071 L 629.921,873.071 L 619.843,873.071 L 609.764,873.071 L 599.685,883.15 L 589.606,883.15 L 579.528,883.15 L 569.449,883.15 L 559.37,873.071 L 549.291,873.071 L 539.213,873.071 L 529.134,873.071 L 519.055,873.071 L 508.976,873.071 L 498.898,862.992 L 498.898,852.913 L 508.976,852.913 L 508.976,862.992 L 519.055,873.071 L 529.134,862.992 L 539.213,862.992 L 549.291,862.992 L 559.37,862.992 L 569.449,873.071 L 579.528,873.071 L 589.606,873.071 L 599.685,873.071 L 609.764,862.992 L 619.843,862.992 L 629.921,862.992 L 640,862.992 L 650.079,852.913 L 660.157,852.913 L 670.236,852.913 L 680.315,852.913 L 690.394,862.992 L 700.472,862.992 L 710.551,852.913 L 720.63,852.913 L 730.709,842.835 L 730.709,832.756 L 740.787,822.677 z " style="fill-opacity:0.5;fill:rgb(253,0,0);stroke:rgb(253,0,0);stroke-width:2"/></g>
<g fill-rule="evenodd"><path d="M 498.898,862.992 L 700.472,862.992 L 740.787,822.677 L 771.024,842.835 L 760.945,862.992 L 710.551,862.992 L 680.315,883.15 L 569.449,883.15 L 498.898,862.992 z " style="fill-opacity:0.5;fill:rgb(51,51,153);stroke:rgb(0,0,0);stroke-width:5"/></g>
<g fill-rule="evenodd"><path d="M 1033.07,943.622 L 1043.15,943.622 L 1053.23,943.622 L 1063.31,943.622 L 1073.39,953.701 L 1083.46,953.701 L 1093.54,963.78 L 1103.62,963.78 L 1113.7,963.78 L 1123.78,963.78 L 1133.86,963.78 L 1143.94,963.78 L 1154.02,963.78 L 1164.09,963.78 L 1174.17,963.78 L 1184.25,963.78 L 1194.33,963.78 L 1204.41,963.78 L 1214.49,963.78 L 1224.57,963.78 L 1234.65,963.78 L 1244.72,953.701 L 1254.8,953.701 L 1264.88,953.701 L 1274.96,953.701 L 1285.04,953.701 L 1285.04,963.78 L 1274.96,963.78 L 1264.88,963.78 L 1254.8,963.78 L 1244.72,963.78 L 1234.65,963.78 L 1224.57,963.78 L 1214.49,963.78 L 1204.41,963.78 L 1194.33,963.78 L 1184.25,963.78 L 1174.17,963.78 L 1164.09,963.78 L 1154.02,963.78 L 1143.94,963.78 L 1133.86,963.78 L 1123.78,963.78 L 1113.7,963.78 L 1103.62,963.78 L 1093.54,963.78 L 1083.46,963.78 L 1073.39,963.78 L 1063.31,963.78 L 1053.23,963.78 L 1043.15,963.78 L 1033.07,963.78 L 1022.99,963.78 L 1012.91,963.78 L 1002.83,963.78 L 992.756,963.78 L 982.677,963.78 L 972.598,963.78 L 962.52,963.78 L 952.441,963.78 L 942.362,963.78 L 932.283,963.78 L 922.205,963.78 L 912.126,963.78 L 902.047,963.78 L 891.969,963.78 L 881.89,963.78 L 871.811,963.78 L 861.732,963.78 L 851.654,963.78 L 841.575,963.78 L 831.496,963.78 L 821.417,963.78 L 811.339,963.78 L 801.26,963.78 L 791.181,963.78 L 781.102,963.78 L 771.024,963.78 L 760.945,963.78 L 750.866,963.78 L 740.787,963.78 L 730.709,963.78 L 720.63,963.78 L 710.551,963.78 L 700.472,963.78 L 690.394,963.78 L 680.315,963.78 L 670.236,963.78 L 660.157,963.78 L 650.079,963.78 L 640,963.78 L 629.921,963.78 L 619.843,963.78 L 609.764,963.78 L 599.685,963.78 L 589.606,963.78 L 579.528,963.78 L 569.449,963.78 L 559.37,963.78 L 549.291,963.78 L 539.213,963.78 L 529.134,963.78 L 519.055,963.78 L 508.976,963.78 L 498.898,963.78 L 488.819,963.78 L 478.74,963.78 L 468.661,963.78 L 458.583,963.78 L 448.504,963.78 L 438.425,963.78 L 428.346,963.78 L 418.268,963.78 L 408.189,963.78 L 398.11,963.78 L 388.031,963.78 L 377.953,963.78 L 367.874,963.78 L 357.795,963.78 L 347.717,963.78 L 337.638,963.78 L 327.559,963.78 L 317.48,963.78 L 307.402,963.78 L 297.323,963.78 L 287.244,963.78 L 277.165,963.78 L 267.087,963.78 L 257.008,963.78 L 246.929,963.78 L 236.85,963.78 L 226.772,963.78 L 216.693,963.78 L 206.614,963.78 L 196.535,963.78 L 186.457,963.78 L 176.378,963.78 L 166.299,963.78 L 156.22,963.78 L 146.142,963.78 L 136.063,963.78 L 125.984,963.78 L 115.906,963.78 L 105.827,963.78 L 95.748,963.78 L 85.6693,963.78 L 75.5906,963.78 L 65.5118,963.78 L 55.4331,963.78 L 45.3543,963.78 L 35.2756,963.78 L 25.1969,963.78 L 15.1181,963.78 L 5.03937,963.78 L 5.03937,953.701 L 15.1181,953.701 L 25.1969,953.701 L 35.2756,953.701 L 45.3543,953.701 L 55.4331,963.78 L 65.5118,963.78 L 75.5906,963.78 L 85.6693,963.78 L 95.748,963.78 L 105.827,963.78 L 115.906,963.78 L 125.984,963.78 L 136.063,963.78 L 146.142,963.78 L 156.22,963.78 L 166.299,963.78 L 176.378,963.78 L 186.457,963.78 L 196.535,963.78 L 206.614,963.78 L 216.693,963.78 L 226.772,963.78 L 236.85,963.78 L 246.929,963.78 L 257.008,963.78 L 267.087,963.78 L 277.165,963.78 L 287.244,963.78 L 297.323,963.78 L 307.402,963.78 L 317.48,963.78 L 327.559,963.78 L 337.638,963.78 L 347.717,963.78 L 357.795,963.78 L 367.874,963.78 L 377.953,963.78 L 388.031,963.78 L 398.11,963.78 L 408.189,963.78 L 418.268,963.78 L 428.346,963.78 L 438.425,963.78 L 448.504,963.78 L 458.583,963.78 L 468.661,963.78 L 478.74,963.78 L 488.819,963.78 L 498.898,963.78 L 508.976,963.78 L 519.055,963.78 L 529.134,963.78 L 539.213,963.78 L 549.291,963.78 L 559.37,963.78 L 569.449,963.78 L 579.528,963.78 L 589.606,963.78 L 599.685,963.78 L 609.764,963.78 L 619.843,963.78 L 629.921,963.78 L 640,963.78 L 650.079,963.78 L 660.157,963.78 L 670.236,963.78 L 680.315,963.78 L 690.394,963.78 L 700.472,963.78 L 710.551,963.78 L 720.63,963.78 L 730.709,963.78 L 740.787,963.78 L 750.866,963.78 L 760.945,963.78 L 771.024,963.78 L 781.102,963.78 L 791.181,963.78 L 801.26,963.78 L 811.339,963.78 L 821.417,963.78 L 831.496,963.78 L 841.575,963.78 L 851.654,963.78 L 861.732,963.78 L 871.811,963.78 L 881.89,963.78 L 891.969,963.78 L 902.047,963.78 L 912.126,963.78 L 922.205,963.78 L 932.283,963.78 L 942.362,963.78 L 952.441,963.78 L 962.52,963.78 L 972.598,963.78 L 982.677,963.78 L 992.756,963.78 L 1002.83,963.78 L 1012.91,953.701 L 1022.99,953.701 L 1033.07,943.622 z " style="fill-opacity:0.5;fill:rgb(253,0,0);stroke:rgb(253,0,0);stroke-width:2"/></g>
<g fill-rule="evenodd"><path d=" z " style="fill-opacity:0.5;fill:rgb(51,51,153);stroke:rgb(0,0,0);stroke-width:5"/></g>
</svg>
