<?xml version="1.0" standalone="no"?>
<!DOCTYPE svg PUBLIC "-//W3C//DTD SVG 1.1//EN"
"http://www.w3.org/Graphics/SVG/1.1/DTD/svg11.dtd">
<svg width="100%" height="100%" version="1.1"
xmlns="http://www.w3.org/2000/svg"
xmlns:xlink="http://www.w3.org/1999/xlink">
<g fill-rule="evenodd"><path d="M 167.811,5.66929 L 176.882,5.66929 L 185.953,5.66929 L 195.024,5.66929 L 204.094,5.66929 L 213.165,5.66929 L 222.236,5.66929 L 231.307,5.66929 L 240.378,5.66929 L 249.449,5.66929 L 249.449,14.7402 L 240.378,14.7402 L 231.307,23.811 L 222.236,23.811 L 213.165,23.811 L 204.094,23.811 L 195.024,14.7402 L 185.953,14.7402 L 176.882,5.66929 L 167.811,5.66929 z " style="fill-opacity:0.5;fill:rgb(253,0,0);stroke:rgb(253,0,0);stroke-width:2"/></g>
<g fill-rule="evenodd"><path d="M 249.449,14.7402 L 167.811,5.66929 L 204.094,23.811 L 249.449,14.7402 z " style="fill-opacity:0.5;fill:rgb(0,253,0);stroke:rgb(0,0,0);stroke-width:5"/></g>
<g fill-rule="evenodd"><path d="M 1056.76,41.9528 L 1065.83,41.9528 L 1074.9,41.9528 L 1083.97,41.9528 L 1093.04,51.0236 L 1102.11,51.0236 L 1102.11,60.0945 L 1102.11,69.1654 L 1111.18,78.2362 L 1120.25,78.2362 L 1120.25,87.3071 L 1111.18,87.3071 L 1102.11,96.378 L 1102.11,105.449 L 1111.18,114.52 L 1120.25,114.52 L 1120.25,123.591 L 1111.18,123.591 L 1102.11,132.661 L 1102.11,141.732 L 1111.18,150.803 L 1120.25,150.803 L 1120.25,159.874 L 1111.18,159.874 L 1102.11,168.945 L 1102.11,178.016 L 1111.18,187.087 L 1120.25,187.087 L 1120.25,196.157 L 1120.25,205.228 L 1129.32,214.299 L 1138.39,214.299 L 1138.39,223.37 L 1129.32,223.37 L 1120.25,232.441 L 1120.25,241.512 L 1120.25,250.583 L 1120.25,259.654 L 1120.25,268.724 L 1120.25,277.795 L 1120.25,286.866 L 1120.25,295.937 L 1129.32,305.008 L 1138.39,305.008 L 1138.39,314.079 L 1129.32,314.079 L 1120.25,323.15 L 1111.18,323.15 L 1102.11,323.15 L 1093.04,323.15 L 1083.97,314.079 L 1083.97,305.008 L 1093.04,295.937 L 1093.04,286.866 L 1102.11,277.795 L 1093.04,268.724 L 1102.11,259.654 L 1093.04,250.583 L 1102.11,241.512 L 1102.11,232.441 L 1111.18,223.37 L 1102.11,214.299 L 1093.04,214.299 L 1083.97,214.299 L 1074.9,214.299 L 1065.83,214.299 L 1056.76,214.299 L 1047.69,205.228 L 1038.61,205.228 L 1029.54,205.228 L 1020.47,205.228 L 1011.4,205.228 L 1002.33,205.228 L 993.26,205.228 L 984.189,205.228 L 975.118,205.228 L 966.047,205.228 L 956.976,196.157 L 947.906,196.157 L 938.835,196.157 L 929.764,196.157 L 929.764,187.087 L 920.693,178.016 L 911.622,178.016 L 911.622,168.945 L 902.551,159.874 L 893.48,159.874 L 893.48,150.803 L 884.409,141.732 L 875.339,141.732 L 866.268,132.661 L 857.197,132.661 L 857.197,123.591 L 857.197,114.52 L 848.126,105.449 L 839.055,105.449 L 829.984,96.378 L 820.913,96.378 L 811.843,96.378 L 802.772,105.449 L 793.701,114.52 L 793.701,123.591 L 784.63,123.591 L 775.559,132.661 L 766.488,132.661 L 757.417,123.591 L 757.417,114.52 L 766.488,105.449 L 766.488,96.378 L 775.559,96.378 L 784.63,87.3071 L 784.63,78.2362 L 784.63,69.1654 L 793.701,69.1654 L 802.772,60.0945 L 811.843,60.0945 L 820.913,60.0945 L 829.984,60.0945 L 839.055,69.1654 L 848.126,69.1654 L 857.197,78.2362 L 866.268,78.2362 L 875.339,87.3071 L 884.409,87.3071 L 893.48,96.378 L 902.551,96.378 L 911.622,105.449 L 920.693,105.449 L 920.693,114.52 L 920.693,123.591 L 929.764,132.661 L 938.835,132.661 L 947.906,132.661 L 956.976,132.661 L 966.047,132.661 L 975.118,132.661 L 984.189,132.661 L 993.26,132.661 L 1002.33,123.591 L 1011.4,123.591 L 1020.47,114.52 L 1020.47,105.449 L 1020.47,96.378 L 1029.54,96.378 L 1038.61,87.3071 L 1047.69,87.3071 L 1056.76,78.2362 L 1056.76,69.1654 L 1047.69,60.0945 L 1038.61,60.0945 L 1038.61,51.0236 L 1047.69,51.0236 L 1056.76,41.9528 z " style="fill-opacity:0.5;fill:rgb(253,0,0);stroke:rgb(253,0,0);stroke-width:2"/></g>
<g fill-rule="evenodd"><path d="M 757.417,123.591 L 775.559,132.661 L 811.843,96.378 L 829.984,96.378 L 929.764,196.157 L 1102.11,214.299 L 1102.11,277.795 L 1083.97,314.079 L 1138.39,314.079 L 1120.25,295.937 L 1120.25,232.441 L 1138.39,214.299 L 1102.11,178.016 L 1120.25,159.874 L 1102.11,141.732 L 1120.25,123.591 L 1102.11,105.449 L 1120.25,87.3071 L 1102.11,51.0236 L 1038.61,51.0236 L 1056.76,78.2362 L 1020.47,96.378 L 1020.47,114.52 L 993.26,132.661 L 929.764,132.661 L 920.693,105.449 L 829.984,60.0945 L 784.63,69.1654 L 757.417,123.591 z " style="fill-opacity:0.5;fill:rgb(0,253,0);stroke:rgb(0,0,0);stroke-width:5"/></g>
<g fill-rule="evenodd"><path d="M 222.236,60.0945 L 231.307,60.0945 L 240.378,60.0945 L 249.449,60.0945 L 258.52,69.1654 L 267.591,69.1654 L 267.591,78.2362 L 267.591,87.3071 L 276.661,96.378 L 285.732,96.378 L 294.803,105.449 L 303.874,105.449 L 312.945,114.52 L 322.016,114.52 L 322.016,123.591 L 312.945,123.591 L 303.874,132.661 L 312.945,141.732 L 322.016,141.732 L 331.087,141.732 L 340.157,141.732 L 349.228,150.803 L 358.299,150.803 L 367.37,150.803 L 376.441,150.803 L 385.512,150.803 L 394.583,150.803 L 403.654,150.803 L 412.724,150.803 L 421.795,150.803 L 430.866,150.803 L 430.866,159.874 L 421.795,168.945 L 412.724,178.016 L 403.654,178.016 L 394.583,187.087 L 385.512,187.087 L 376.441,187.087 L 367.37,187.087 L 358.299,196.157 L 349.228,196.157 L 340.157,196.157 L 331.087,196.157 L 322.016,205.228 L 322.016,214.299 L 322.016,223.37 L 322.016,232.441 L 322.016,241.512 L 312.945,250.583 L 322.016,259.654 L 322.016,268.724 L 331.087,277.795 L 340.157,277.795 L 340.157,286.866 L 331.087,295.937 L 340.157,305.008 L 340.157,314.079 L 331.087,323.15 L 331.087,332.22 L 322.016,341.291 L 312.945,341.291 L 303.874,350.362 L 294.803,350.362 L 285.732,359.433 L 285.732,368.504 L 294.803,377.575 L 303.874,377.575 L 312.945,377.575 L 312.945,386.646 L 303.874,395.717 L 294.803,395.717 L 285.732,404.787 L 285.732,413.858 L 276.661,413.858 L 267.591,422.929 L 267.591,432 L 267.591,441.071 L 267.591,450.142 L 267.591,459.213 L 267.591,468.283 L 258.52,477.354 L 267.591,486.425 L 267.591,495.496 L 258.52,495.496 L 249.449,504.567 L 240.378,504.567 L 231.307,513.638 L 240.378,522.709 L 249.449,531.78 L 249.449,540.85 L 249.449,549.921 L 249.449,558.992 L 249.449,568.063 L 249.449,577.134 L 249.449,586.205 L 249.449,595.276 L 240.378,595.276 L 231.307,595.276 L 222.236,595.276 L 213.165,586.205 L 204.094,586.205 L 204.094,577.134 L 213.165,568.063 L 222.236,558.992 L 222.236,549.921 L 222.236,540.85 L 213.165,531.78 L 204.094,531.78 L 195.024,531.78 L 185.953,531.78 L 176.882,531.78 L 167.811,531.78 L 158.74,522.709 L 149.669,522.709 L 149.669,513.638 L 158.74,504.567 L 167.811,504.567 L 176.882,504.567 L 185.953,504.567 L 195.024,504.567 L 204.094,495.496 L 213.165,495.496 L 222.236,486.425 L 213.165,477.354 L 204.094,477.354 L 204.094,468.283 L 213.165,459.213 L 222.236,450.142 L 222.236,441.071 L 231.307,432 L 240.378,422.929 L 240.378,413.858 L 249.449,404.787 L 258.52,395.717 L 258.52,386.646 L 258.52,377.575 L 258.52,368.504 L 267.591,359.433 L 276.661,350.362 L 276.661,341.291 L 276.661,332.22 L 276.661,323.15 L 285.732,314.079 L 294.803,305.008 L 285.732,295.937 L 276.661,295.937 L 267.591,305.008 L 258.52,305.008 L 258.52,295.937 L 267.591,295.937 L 276.661,286.866 L 276.661,277.795 L 267.591,268.724 L 258.52,268.724 L 258.52,259.654 L 258.52,250.583 L 258.52,241.512 L 258.52,232.441 L 249.449,223.37 L 240.378,223.37 L 231.307,223.37 L 222.236,223.37 L 231.307,223.37 L 240.378,214.299 L 231.307,205.228 L 222.236,205.228 L 213.165,205.228 L 204.094,205.228 L 195.024,205.228 L 185.953,205.228 L 176.882,214.299 L 167.811,214.299 L 158.74,214.299 L 149.669,214.299 L 140.598,205.228 L 131.528,205.228 L 122.457,214.299 L 113.386,214.299 L 104.315,214.299 L 95.2441,214.299 L 86.1732,223.37 L 77.1024,223.37 L 68.0315,214.299 L 58.9606,214.299 L 49.8898,214.299 L 40.8189,214.299 L 31.748,214.299 L 22.6772,214.299 L 13.6063,223.37 L 4.53543,223.37 L 4.53543,214.299 L 4.53543,205.228 L 4.53543,196.157 L 4.53543,187.087 L 4.53543,178.016 L 4.53543,168.945 L 4.53543,159.874 L 4.53543,150.803 L 4.53543,141.732 L 4.53543,132.661 L 4.53543,123.591 L 13.6063,123.591 L 13.6063,132.661 L 22.6772,141.732 L 31.748,141.732 L 40.8189,132.661 L 49.8898,132.661 L 58.9606,132.661 L 68.0315,132.661 L 77.1024,141.732 L 86.1732,141.732 L 95.2441,141.732 L 104.315,141.732 L 113.386,132.661 L 122.457,132.661 L 131.528,123.591 L 140.598,123.591 L 149.669,123.591 L 158.74,123.591 L 167.811,123.591 L 176.882,123.591 L 185.953,114.52 L 185.953,105.449 L 185.953,96.378 L 195.024,96.378 L 204.094,87.3071 L 204.094,78.2362 L 204.094,69.1654 L 213.165,69.1654 L 222.236,60.0945 z " style="fill-opacity:0.5;fill:rgb(253,0,0);stroke:rgb(253,0,0);stroke-width:2"/></g>
<g fill-rule="evenodd"><path d="M 249.449,595.276 L 249.449,531.78 L 231.307,513.638 L 267.591,495.496 L 267.591,422.929 L 312.945,386.646 L 285.732,359.433 L 322.016,341.291 L 340.157,314.079 L 340.157,277.795 L 312.945,250.583 L 322.016,205.228 L 394.583,187.087 L 430.866,150.803 L 312.945,141.732 L 303.874,132.661 L 322.016,114.52 L 276.661,96.378 L 267.591,69.1654 L 222.236,60.0945 L 204.094,69.1654 L 176.882,123.591 L 131.528,123.591 L 104.315,141.732 L 22.6772,141.732 L 4.53543,123.591 L 4.53543,223.37 L 231.307,205.228 L 240.378,214.299 L 222.236,223.37 L 258.52,232.441 L 258.52,268.724 L 276.661,277.795 L 258.52,305.008 L 294.803,305.008 L 276.661,323.15 L 258.52,395.717 L 204.094,468.283 L 222.236,486.425 L 149.669,513.638 L 167.811,531.78 L 213.165,531.78 L 222.236,558.992 L 204.094,586.205 L 249.449,595.276 z " style="fill-opacity:0.5;fill:rgb(0,253,0);stroke:rgb(0,0,0);stroke-width:5"/></g>
<g fill-rule="evenodd"><path d="M 548.787,78.2362 L 557.858,78.2362 L 566.929,78.2362 L 576,78.2362 L 585.071,78.2362 L 594.142,87.3071 L 603.213,87.3071 L 612.283,87.3071 L 621.354,78.2362 L 630.425,78.2362 L 639.496,78.2362 L 648.567,78.2362 L 657.638,78.2362 L 666.709,78.2362 L 675.78,78.2362 L 684.85,78.2362 L 693.921,87.3071 L 702.992,87.3071 L 702.992,96.378 L 712.063,105.449 L 712.063,114.52 L 702.992,123.591 L 693.921,123.591 L 684.85,114.52 L 675.78,114.52 L 666.709,114.52 L 657.638,114.52 L 648.567,114.52 L 639.496,114.52 L 639.496,105.449 L 630.425,96.378 L 621.354,96.378 L 612.283,105.449 L 603.213,105.449 L 594.142,105.449 L 585.071,105.449 L 576,105.449 L 566.929,96.378 L 557.858,105.449 L 548.787,105.449 L 539.717,105.449 L 530.646,105.449 L 521.575,105.449 L 512.504,105.449 L 503.433,105.449 L 494.362,114.52 L 494.362,123.591 L 485.291,123.591 L 476.22,123.591 L 467.15,114.52 L 467.15,105.449 L 476.22,105.449 L 485.291,96.378 L 494.362,87.3071 L 503.433,87.3071 L 512.504,87.3071 L 521.575,87.3071 L 530.646,87.3071 L 539.717,87.3071 L 548.787,78.2362M 195.024,178.016 L 185.953,187.087 L 195.024,196.157 L 204.094,187.087 L 195.024,178.016M 303.874,196.157 L 294.803,205.228 L 303.874,214.299 L 312.945,205.228 L 303.874,196.157 z " style="fill-opacity:0.5;fill:rgb(253,0,0);stroke:rgb(253,0,0);stroke-width:2"/></g>
<g fill-rule="evenodd"><path d="M 712.063,114.52 L 684.85,78.2362 L 548.787,78.2362 L 467.15,105.449 L 476.22,123.591 L 494.362,123.591 L 503.433,105.449 L 566.929,96.378 L 630.425,96.378 L 639.496,114.52 L 693.921,123.591 L 712.063,114.52 z " style="fill-opacity:0.5;fill:rgb(0,253,0);stroke:rgb(0,0,0);stroke-width:5"/></g>
<g fill-rule="evenodd"><path d="M 702.992,259.654 L 712.063,259.654 L 721.134,259.654 L 730.205,268.724 L 739.276,268.724 L 748.346,268.724 L 757.417,268.724 L 766.488,268.724 L 766.488,277.795 L 775.559,286.866 L 775.559,295.937 L 766.488,295.937 L 757.417,305.008 L 757.417,314.079 L 757.417,323.15 L 748.346,323.15 L 739.276,332.22 L 730.205,332.22 L 721.134,341.291 L 730.205,350.362 L 739.276,359.433 L 739.276,368.504 L 730.205,368.504 L 721.134,377.575 L 730.205,386.646 L 739.276,395.717 L 748.346,395.717 L 757.417,386.646 L 757.417,377.575 L 766.488,377.575 L 766.488,386.646 L 757.417,395.717 L 748.346,404.787 L 748.346,413.858 L 739.276,413.858 L 730.205,413.858 L 721.134,404.787 L 712.063,404.787 L 712.063,395.717 L 712.063,386.646 L 702.992,377.575 L 693.921,377.575 L 684.85,368.504 L 675.78,368.504 L 675.78,359.433 L 684.85,359.433 L 693.921,350.362 L 684.85,341.291 L 675.78,341.291 L 666.709,341.291 L 657.638,341.291 L 648.567,332.22 L 639.496,332.22 L 639.496,323.15 L 639.496,314.079 L 630.425,305.008 L 621.354,305.008 L 612.283,305.008 L 603.213,305.008 L 594.142,305.008 L 585.071,295.937 L 585.071,286.866 L 594.142,277.795 L 603.213,277.795 L 603.213,286.866 L 612.283,295.937 L 621.354,286.866 L 630.425,286.866 L 639.496,277.795 L 648.567,277.795 L 657.638,277.795 L 666.709,286.866 L 675.78,286.866 L 684.85,277.795 L 693.921,277.795 L 702.992,268.724 L 702.992,259.654 z " style="fill-opacity:0.5;fill:rgb(253,0,0);stroke:rgb(253,0,0);stroke-width:2"/></g>
<g fill-rule="evenodd"><path d="M 748.346,413.858 L 766.488,377.575 L 739.276,395.717 L 721.134,377.575 L 739.276,368.504 L 721.134,341.291 L 757.417,323.15 L 757.417,305.008 L 775.559,295.937 L 766.488,268.724 L 702.992,259.654 L 675.78,286.866 L 585.071,286.866 L 594.142,305.008 L 630.425,305.008 L 639.496,332.22 L 684.85,341.291 L 693.921,350.362 L 675.78,368.504 L 702.992,377.575 L 712.063,404.787 L 748.346,413.858 z " style="fill-opacity:0.5;fill:rgb(0,253,0);stroke:rgb(0,0,0);stroke-width:5"/></g>
<g fill-rule="evenodd"><path d="M 920.693,286.866 L 929.764,286.866 L 938.835,286.866 L 947.906,295.937 L 956.976,305.008 L 956.976,314.079 L 947.906,314.079 L 938.835,323.15 L 938.835,332.22 L 938.835,341.291 L 947.906,350.362 L 956.976,350.362 L 966.047,350.362 L 975.118,350.362 L 984.189,350.362 L 993.26,350.362 L 1002.33,359.433 L 1011.4,368.504 L 1011.4,377.575 L 1002.33,377.575 L 993.26,377.575 L 984.189,377.575 L 975.118,377.575 L 966.047,377.575 L 956.976,386.646 L 947.906,386.646 L 938.835,395.717 L 947.906,404.787 L 956.976,413.858 L 956.976,422.929 L 947.906,422.929 L 938.835,432 L 938.835,441.071 L 938.835,450.142 L 929.764,450.142 L 920.693,459.213 L 920.693,468.283 L 920.693,477.354 L 920.693,486.425 L 920.693,495.496 L 920.693,504.567 L 920.693,513.638 L 911.622,513.638 L 902.551,522.709 L 893.48,522.709 L 884.409,531.78 L 875.339,531.78 L 866.268,540.85 L 866.268,549.921 L 866.268,558.992 L 866.268,568.063 L 866.268,577.134 L 866.268,586.205 L 866.268,595.276 L 875.339,604.346 L 884.409,613.417 L 893.48,613.417 L 902.551,613.417 L 902.551,622.488 L 893.48,631.559 L 902.551,640.63 L 902.551,649.701 L 911.622,658.772 L 920.693,658.772 L 920.693,667.843 L 929.764,676.913 L 938.835,676.913 L 947.906,676.913 L 956.976,667.843 L 966.047,667.843 L 966.047,676.913 L 975.118,685.984 L 984.189,685.984 L 993.26,685.984 L 1002.33,676.913 L 1011.4,676.913 L 1020.47,676.913 L 1029.54,676.913 L 1038.61,667.843 L 1047.69,676.913 L 1056.76,676.913 L 1065.83,667.843 L 1074.9,667.843 L 1083.97,676.913 L 1093.04,676.913 L 1102.11,667.843 L 1111.18,667.843 L 1120.25,658.772 L 1129.32,658.772 L 1138.39,667.843 L 1147.46,658.772 L 1156.54,658.772 L 1156.54,667.843 L 1156.54,676.913 L 1156.54,685.984 L 1156.54,695.055 L 1156.54,704.126 L 1156.54,713.197 L 1156.54,722.268 L 1156.54,731.339 L 1156.54,740.409 L 1156.54,749.48 L 1147.46,749.48 L 1147.46,740.409 L 1138.39,731.339 L 1129.32,731.339 L 1120.25,740.409 L 1111.18,740.409 L 1102.11,740.409 L 1093.04,740.409 L 1083.97,731.339 L 1074.9,731.339 L 1065.83,731.339 L 1056.76,731.339 L 1047.69,740.409 L 1038.61,740.409 L 1029.54,749.48 L 1020.47,749.48 L 1011.4,749.48 L 1002.33,749.48 L 993.26,749.48 L 984.189,749.48 L 975.118,758.551 L 975.118,767.622 L 975.118,776.693 L 966.047,776.693 L 956.976,785.764 L 956.976,794.835 L 956.976,803.906 L 947.906,803.906 L 938.835,812.976 L 929.764,812.976 L 920.693,812.976 L 911.622,812.976 L 902.551,803.906 L 893.48,803.906 L 893.48,794.835 L 893.48,785.764 L 884.409,776.693 L 875.339,776.693 L 866.268,767.622 L 857.197,767.622 L 848.126,758.551 L 839.055,758.551 L 839.055,749.48 L 848.126,749.48 L 857.197,740.409 L 848.126,731.339 L 839.055,731.339 L 829.984,731.339 L 820.913,731.339 L 811.843,722.268 L 802.772,722.268 L 793.701,722.268 L 784.63,722.268 L 775.559,722.268 L 766.488,722.268 L 757.417,722.268 L 748.346,722.268 L 739.276,722.268 L 730.205,713.197 L 730.205,704.126 L 739.276,695.055 L 748.346,695.055 L 748.346,704.126 L 757.417,713.197 L 766.488,704.126 L 766.488,695.055 L 775.559,695.055 L 784.63,704.126 L 793.701,695.055 L 802.772,685.984 L 811.843,685.984 L 820.913,676.913 L 829.984,676.913 L 839.055,667.843 L 839.055,658.772 L 839.055,649.701 L 839.055,640.63 L 839.055,631.559 L 839.055,622.488 L 839.055,613.417 L 829.984,604.346 L 820.913,604.346 L 820.913,595.276 L 820.913,586.205 L 820.913,577.134 L 829.984,568.063 L 820.913,558.992 L 820.913,549.921 L 820.913,540.85 L 829.984,531.78 L 839.055,522.709 L 848.126,522.709 L 857.197,522.709 L 866.268,522.709 L 875.339,513.638 L 875.339,504.567 L 866.268,495.496 L 866.268,486.425 L 875.339,477.354 L 884.409,477.354 L 893.48,468.283 L 893.48,459.213 L 893.48,450.142 L 902.551,441.071 L 911.622,432 L 902.551,422.929 L 893.48,422.929 L 893.48,413.858 L 893.48,404.787 L 893.48,395.717 L 902.551,386.646 L 911.622,377.575 L 920.693,377.575 L 929.764,368.504 L 920.693,359.433 L 911.622,359.433 L 911.622,350.362 L 911.622,341.291 L 911.622,332.22 L 911.622,323.15 L 911.622,314.079 L 911.622,305.008 L 911.622,295.937 L 920.693,286.866 z " style="fill-opacity:0.5;fill:rgb(253,0,0);stroke:rgb(253,0,0);stroke-width:2"/></g>
<g fill-rule="evenodd"><path d="M 938.835,812.976 L 956.976,803.906 L 984.189,749.48 L 1029.54,749.48 L 1056.76,731.339 L 1138.39,731.339 L 1156.54,749.48 L 1156.54,658.772 L 1120.25,658.772 L 1093.04,676.913 L 1038.61,667.843 L 993.26,685.984 L 975.118,685.984 L 966.047,667.843 L 929.764,676.913 L 893.48,631.559 L 902.551,613.417 L 866.268,595.276 L 866.268,540.85 L 920.693,513.638 L 920.693,459.213 L 956.976,422.929 L 938.835,395.717 L 966.047,377.575 L 1011.4,377.575 L 993.26,350.362 L 947.906,350.362 L 938.835,323.15 L 956.976,305.008 L 920.693,286.866 L 911.622,359.433 L 929.764,368.504 L 893.48,395.717 L 893.48,422.929 L 911.622,432 L 893.48,468.283 L 866.268,486.425 L 875.339,513.638 L 820.913,540.85 L 839.055,667.843 L 784.63,704.126 L 766.488,695.055 L 757.417,713.197 L 739.276,695.055 L 730.205,713.197 L 848.126,731.339 L 857.197,740.409 L 839.055,758.551 L 884.409,776.693 L 893.48,803.906 L 938.835,812.976 z " style="fill-opacity:0.5;fill:rgb(0,253,0);stroke:rgb(0,0,0);stroke-width:5"/></g>
<g fill-rule="evenodd"><path d="M 521.575,323.15 L 530.646,332.22 L 539.717,332.22 L 548.787,341.291 L 548.787,350.362 L 539.717,359.433 L 539.717,368.504 L 539.717,377.575 L 530.646,377.575 L 521.575,386.646 L 512.504,386.646 L 503.433,395.717 L 503.433,404.787 L 503.433,413.858 L 494.362,413.858 L 485.291,422.929 L 476.22,422.929 L 467.15,422.929 L 458.079,422.929 L 449.008,413.858 L 449.008,404.787 L 458.079,395.717 L 467.15,395.717 L 476.22,395.717 L 485.291,395.717 L 494.362,386.646 L 503.433,386.646 L 512.504,377.575 L 512.504,368.504 L 521.575,359.433 L 521.575,350.362 L 512.504,341.291 L 512.504,332.22 L 521.575,323.15 z " style="fill-opacity:0.5;fill:rgb(253,0,0);stroke:rgb(253,0,0);stroke-width:2"/></g>
<g fill-rule="evenodd"><path d="M 458.079,422.929 L 503.433,413.858 L 503.433,395.717 L 539.717,377.575 L 548.787,341.291 L 521.575,323.15 L 512.504,377.575 L 458.079,395.717 L 458.079,422.929 z " style="fill-opacity:0.5;fill:rgb(0,253,0);stroke:rgb(0,0,0);stroke-width:5"/></g>
<g fill-rule="evenodd"><path d="M 1047.69,323.15 L 1056.76,323.15 L 1065.83,323.15 L 1074.9,332.22 L 1074.9,341.291 L 1065.83,350.362 L 1065.83,359.433 L 1074.9,368.504 L 1083.97,368.504 L 1093.04,368.504 L 1102.11,368.504 L 1111.18,368.504 L 1120.25,368.504 L 1129.32,368.504 L 1138.39,377.575 L 1147.46,377.575 L 1156.54,377.575 L 1156.54,386.646 L 1156.54,395.717 L 1147.46,395.717 L 1138.39,395.717 L 1129.32,395.717 L 1120.25,386.646 L 1111.18,386.646 L 1102.11,386.646 L 1093.04,386.646 L 1083.97,386.646 L 1074.9,386.646 L 1065.83,377.575 L 1056.76,377.575 L 1047.69,368.504 L 1038.61,368.504 L 1038.61,359.433 L 1047.69,350.362 L 1056.76,341.291 L 1056.76,332.22 L 1047.69,323.15 z " style="fill-opacity:0.5;fill:rgb(253,0,0);stroke:rgb(253,0,0);stroke-width:2"/></g>
<g fill-rule="evenodd"><path d="M 1156.54,395.717 L 1156.54,377.575 L 1074.9,368.504 L 1074.9,332.22 L 1047.69,323.15 L 1056.76,341.291 L 1038.61,368.504 L 1074.9,386.646 L 1156.54,395.717 z " style="fill-opacity:0.5;fill:rgb(0,253,0);stroke:rgb(0,0,0);stroke-width:5"/></g>
<g fill-rule="evenodd"><path d="M 675.78,450.142 L 684.85,450.142 L 693.921,450.142 L 702.992,450.142 L 712.063,450.142 L 712.063,459.213 L 702.992,468.283 L 693.921,468.283 L 684.85,477.354 L 684.85,486.425 L 675.78,486.425 L 666.709,495.496 L 666.709,504.567 L 657.638,504.567 L 648.567,513.638 L 648.567,522.709 L 639.496,531.78 L 639.496,540.85 L 630.425,540.85 L 621.354,540.85 L 612.283,531.78 L 612.283,522.709 L 621.354,522.709 L 630.425,513.638 L 621.354,504.567 L 621.354,495.496 L 630.425,495.496 L 639.496,486.425 L 648.567,486.425 L 657.638,477.354 L 657.638,468.283 L 657.638,459.213 L 666.709,459.213 L 675.78,450.142 z " style="fill-opacity:0.5;fill:rgb(253,0,0);stroke:rgb(253,0,0);stroke-width:2"/></g>
<g fill-rule="evenodd"><path d="M 621.354,540.85 L 639.496,540.85 L 648.567,513.638 L 712.063,450.142 L 657.638,459.213 L 657.638,477.354 L 621.354,495.496 L 621.354,540.85 z " style="fill-opacity:0.5;fill:rgb(0,253,0);stroke:rgb(0,0,0);stroke-width:5"/></g>
<g fill-rule="evenodd"><path d="M 430.866,459.213 L 439.937,468.283 L 449.008,468.283 L 458.079,477.354 L 458.079,486.425 L 467.15,495.496 L 476.22,504.567 L 485.291,504.567 L 485.291,513.638 L 476.22,513.638 L 467.15,522.709 L 476.22,531.78 L 485.291,531.78 L 494.362,531.78 L 503.433,531.78 L 512.504,540.85 L 521.575,540.85 L 521.575,549.921 L 521.575,558.992 L 530.646,568.063 L 539.717,568.063 L 548.787,568.063 L 557.858,568.063 L 566.929,568.063 L 576,568.063 L 576,577.134 L 566.929,586.205 L 557.858,586.205 L 548.787,586.205 L 539.717,595.276 L 539.717,604.346 L 539.717,613.417 L 530.646,613.417 L 521.575,613.417 L 512.504,613.417 L 503.433,622.488 L 494.362,622.488 L 485.291,622.488 L 476.22,622.488 L 467.15,631.559 L 458.079,631.559 L 449.008,622.488 L 449.008,613.417 L 439.937,604.346 L 430.866,604.346 L 421.795,604.346 L 412.724,595.276 L 403.654,604.346 L 403.654,613.417 L 394.583,622.488 L 385.512,622.488 L 376.441,613.417 L 367.37,613.417 L 367.37,604.346 L 376.441,595.276 L 367.37,586.205 L 376.441,586.205 L 385.512,586.205 L 394.583,586.205 L 403.654,577.134 L 403.654,568.063 L 412.724,558.992 L 421.795,549.921 L 430.866,549.921 L 439.937,540.85 L 430.866,531.78 L 421.795,531.78 L 421.795,522.709 L 430.866,513.638 L 439.937,504.567 L 439.937,495.496 L 430.866,486.425 L 421.795,477.354 L 421.795,468.283 L 430.866,459.213 z " style="fill-opacity:0.5;fill:rgb(253,0,0);stroke:rgb(253,0,0);stroke-width:2"/></g>
<g fill-rule="evenodd"><path d="M 539.717,613.417 L 539.717,595.276 L 576,568.063 L 530.646,568.063 L 521.575,540.85 L 476.22,531.78 L 467.15,522.709 L 485.291,504.567 L 430.866,459.213 L 421.795,477.354 L 439.937,504.567 L 421.795,531.78 L 439.937,540.85 L 394.583,586.205 L 367.37,586.205 L 367.37,613.417 L 394.583,622.488 L 412.724,595.276 L 439.937,604.346 L 458.079,631.559 L 539.717,613.417 z " style="fill-opacity:0.5;fill:rgb(0,253,0);stroke:rgb(0,0,0);stroke-width:5"/></g>
<g fill-rule="evenodd"><path d="M 4.53543,486.425 L 13.6063,486.425 L 22.6772,486.425 L 31.748,486.425 L 40.8189,495.496 L 49.8898,495.496 L 58.9606,495.496 L 68.0315,495.496 L 77.1024,495.496 L 86.1732,495.496 L 95.2441,504.567 L 104.315,504.567 L 113.386,513.638 L 122.457,522.709 L 122.457,531.78 L 113.386,531.78 L 104.315,540.85 L 95.2441,540.85 L 86.1732,531.78 L 86.1732,522.709 L 95.2441,513.638 L 86.1732,504.567 L 77.1024,504.567 L 68.0315,504.567 L 58.9606,504.567 L 49.8898,504.567 L 40.8189,504.567 L 31.748,495.496 L 22.6772,495.496 L 13.6063,495.496 L 4.53543,495.496 L 4.53543,486.425 z " style="fill-opacity:0.5;fill:rgb(253,0,0);stroke:rgb(253,0,0);stroke-width:2"/></g>
<g fill-rule="evenodd"><path d="M 122.457,531.78 L 86.1732,495.496 L 4.53543,486.425 L 40.8189,504.567 L 86.1732,504.567 L 95.2441,540.85 L 122.457,531.78 z " style="fill-opacity:0.5;fill:rgb(0,253,0);stroke:rgb(0,0,0);stroke-width:5"/></g>
<g fill-rule="evenodd"><path d="M 58.9606,540.85 L 68.0315,540.85 L 77.1024,549.921 L 86.1732,558.992 L 86.1732,568.063 L 77.1024,568.063 L 68.0315,568.063 L 58.9606,577.134 L 68.0315,586.205 L 68.0315,595.276 L 58.9606,604.346 L 68.0315,613.417 L 58.9606,622.488 L 68.0315,631.559 L 68.0315,640.63 L 68.0315,649.701 L 58.9606,649.701 L 49.8898,658.772 L 58.9606,667.843 L 68.0315,676.913 L 77.1024,676.913 L 86.1732,667.843 L 95.2441,667.843 L 104.315,667.843 L 113.386,676.913 L 122.457,676.913 L 131.528,676.913 L 140.598,676.913 L 149.669,676.913 L 158.74,676.913 L 167.811,676.913 L 176.882,676.913 L 185.953,676.913 L 195.024,676.913 L 204.094,685.984 L 213.165,695.055 L 222.236,704.126 L 231.307,704.126 L 240.378,704.126 L 249.449,713.197 L 258.52,722.268 L 267.591,722.268 L 267.591,731.339 L 276.661,740.409 L 285.732,740.409 L 294.803,749.48 L 303.874,758.551 L 312.945,767.622 L 322.016,767.622 L 322.016,776.693 L 312.945,776.693 L 303.874,785.764 L 312.945,794.835 L 322.016,794.835 L 331.087,794.835 L 340.157,794.835 L 349.228,785.764 L 358.299,785.764 L 367.37,776.693 L 376.441,776.693 L 385.512,776.693 L 394.583,767.622 L 394.583,758.551 L 403.654,767.622 L 394.583,776.693 L 385.512,776.693 L 376.441,785.764 L 367.37,785.764 L 358.299,794.835 L 349.228,794.835 L 340.157,803.906 L 331.087,803.906 L 322.016,803.906 L 312.945,803.906 L 303.874,794.835 L 294.803,794.835 L 285.732,785.764 L 276.661,785.764 L 267.591,776.693 L 258.52,776.693 L 249.449,767.622 L 240.378,767.622 L 240.378,758.551 L 240.378,749.48 L 231.307,740.409 L 222.236,740.409 L 213.165,740.409 L 204.094,740.409 L 195.024,740.409 L 185.953,740.409 L 176.882,740.409 L 167.811,740.409 L 158.74,749.48 L 149.669,749.48 L 140.598,758.551 L 140.598,767.622 L 140.598,776.693 L 131.528,776.693 L 122.457,785.764 L 113.386,785.764 L 104.315,794.835 L 104.315,803.906 L 113.386,812.976 L 122.457,812.976 L 122.457,822.047 L 113.386,822.047 L 104.315,831.118 L 95.2441,831.118 L 86.1732,831.118 L 77.1024,831.118 L 68.0315,822.047 L 58.9606,822.047 L 58.9606,812.976 L 58.9606,803.906 L 49.8898,794.835 L 40.8189,794.835 L 40.8189,785.764 L 49.8898,785.764 L 58.9606,776.693 L 58.9606,767.622 L 49.8898,758.551 L 40.8189,758.551 L 40.8189,749.48 L 49.8898,749.48 L 58.9606,740.409 L 58.9606,731.339 L 49.8898,722.268 L 40.8189,722.268 L 40.8189,713.197 L 49.8898,713.197 L 58.9606,704.126 L 58.9606,695.055 L 49.8898,685.984 L 40.8189,685.984 L 40.8189,676.913 L 40.8189,667.843 L 31.748,658.772 L 22.6772,658.772 L 22.6772,649.701 L 31.748,649.701 L 40.8189,640.63 L 40.8189,631.559 L 40.8189,622.488 L 40.8189,613.417 L 40.8189,604.346 L 40.8189,595.276 L 40.8189,586.205 L 40.8189,577.134 L 31.748,568.063 L 22.6772,568.063 L 22.6772,558.992 L 31.748,558.992 L 40.8189,549.921 L 49.8898,549.921 L 58.9606,540.85M 494.362,577.134 L 485.291,586.205 L 494.362,595.276 L 503.433,586.205 L 494.362,577.134 z " style="fill-opacity:0.5;fill:rgb(253,0,0);stroke:rgb(253,0,0);stroke-width:2"/></g>
<g fill-rule="evenodd"><path d="M 403.654,767.622 L 394.583,758.551 L 385.512,776.693 L 312.945,794.835 L 303.874,785.764 L 322.016,767.622 L 195.024,676.913 L 68.0315,676.913 L 49.8898,658.772 L 68.0315,649.701 L 58.9606,577.134 L 86.1732,558.992 L 68.0315,540.85 L 22.6772,558.992 L 40.8189,577.134 L 40.8189,640.63 L 22.6772,658.772 L 58.9606,695.055 L 40.8189,713.197 L 58.9606,731.339 L 40.8189,749.48 L 58.9606,767.622 L 40.8189,785.764 L 58.9606,822.047 L 122.457,822.047 L 104.315,794.835 L 140.598,776.693 L 140.598,758.551 L 167.811,740.409 L 231.307,740.409 L 240.378,767.622 L 312.945,803.906 L 340.157,803.906 L 403.654,767.622 z " style="fill-opacity:0.5;fill:rgb(0,253,0);stroke:rgb(0,0,0);stroke-width:5"/></g>
<g fill-rule="evenodd"><path d="M 666.709,740.409 L 675.78,749.48 L 684.85,749.48 L 693.921,758.551 L 693.921,767.622 L 684.85,776.693 L 675.78,776.693 L 666.709,776.693 L 657.638,776.693 L 648.567,776.693 L 639.496,776.693 L 630.425,785.764 L 621.354,785.764 L 612.283,794.835 L 603.213,794.835 L 594.142,794.835 L 585.071,794.835 L 576,785.764 L 566.929,785.764 L 557.858,785.764 L 548.787,785.764 L 539.717,794.835 L 530.646,794.835 L 521.575,794.835 L 512.504,794.835 L 503.433,785.764 L 494.362,785.764 L 485.291,785.764 L 476.22,785.764 L 467.15,785.764 L 458.079,785.764 L 449.008,776.693 L 449.008,767.622 L 458.079,767.622 L 458.079,776.693 L 467.15,785.764 L 476.22,776.693 L 485.291,776.693 L 494.362,776.693 L 503.433,776.693 L 512.504,785.764 L 521.575,785.764 L 530.646,785.764 L 539.717,785.764 L 548.787,776.693 L 557.858,776.693 L 566.929,776.693 L 576,776.693 L 585.071,767.622 L 594.142,767.622 L 603.213,767.622 L 612.283,767.622 L 621.354,776.693 L 630.425,776.693 L 639.496,767.622 L 648.567,767.622 L 657.638,758.551 L 657.638,749.48 L 666.709,740.409 z " style="fill-opacity:0.5;fill:rgb(253,0,0);stroke:rgb(253,0,0);stroke-width:2"/></g>
<g fill-rule="evenodd"><path d="M 449.008,776.693 L 512.504,794.835 L 612.283,794.835 L 639.496,776.693 L 684.85,776.693 L 693.921,758.551 L 666.709,740.409 L 630.425,776.693 L 449.008,776.693 z " style="fill-opacity:0.5;fill:rgb(0,253,0);stroke:rgb(0,0,0);stroke-width:5"/></g>
<g fill-rule="evenodd"><path d="M 929.764,849.26 L 938.835,849.26 L 947.906,849.26 L 956.976,849.26 L 966.047,858.331 L 975.118,858.331 L 984.189,867.402 L 993.26,867.402 L 1002.33,867.402 L 1011.4,867.402 L 1020.47,867.402 L 1029.54,867.402 L 1038.61,867.402 L 1047.69,867.402 L 1056.76,867.402 L 1065.83,867.402 L 1074.9,867.402 L 1083.97,867.402 L 1093.04,867.402 L 1102.11,867.402 L 1111.18,867.402 L 1120.25,858.331 L 1129.32,858.331 L 1138.39,858.331 L 1147.46,858.331 L 1156.54,858.331 L 1156.54,867.402 L 1147.46,867.402 L 1138.39,867.402 L 1129.32,867.402 L 1120.25,867.402 L 1111.18,867.402 L 1102.11,867.402 L 1093.04,867.402 L 1083.97,867.402 L 1074.9,867.402 L 1065.83,867.402 L 1056.76,867.402 L 1047.69,867.402 L 1038.61,867.402 L 1029.54,867.402 L 1020.47,867.402 L 1011.4,867.402 L 1002.33,867.402 L 993.26,867.402 L 984.189,867.402 L 975.118,867.402 L 966.047,867.402 L 956.976,867.402 L 947.906,867.402 L 938.835,867.402 L 929.764,867.402 L 920.693,867.402 L 911.622,867.402 L 902.551,867.402 L 893.48,867.402 L 884.409,867.402 L 875.339,867.402 L 866.268,867.402 L 857.197,867.402 L 848.126,867.402 L 839.055,867.402 L 829.984,867.402 L 820.913,867.402 L 811.843,867.402 L 802.772,867.402 L 793.701,867.402 L 784.63,867.402 L 775.559,867.402 L 766.488,867.402 L 757.417,867.402 L 748.346,867.402 L 739.276,867.402 L 730.205,867.402 L 721.134,867.402 L 712.063,867.402 L 702.992,867.402 L 693.921,867.402 L 684.85,867.402 L 675.78,867.402 L 666.709,867.402 L 657.638,867.402 L 648.567,867.402 L 639.496,867.402 L 630.425,867.402 L 621.354,867.402 L 612.283,867.402 L 603.213,867.402 L 594.142,867.402 L 585.071,867.402 L 576,867.402 L 566.929,867.402 L 557.858,867.402 L 548.787,867.402 L 539.717,867.402 L 530.646,867.402 L 521.575,867.402 L 512.504,867.402 L 503.433,867.402 L 494.362,867.402 L 485.291,867.402 L 476.22,867.402 L 467.15,867.402 L 458.079,867.402 L 449.008,867.402 L 439.937,867.402 L 430.866,867.402 L 421.795,867.402 L 412.724,867.402 L 403.654,867.402 L 394.583,867.402 L 385.512,867.402 L 376.441,867.402 L 367.37,867.402 L 358.299,867.402 L 349.228,867.402 L 340.157,867.402 L 331.087,867.402 L 322.016,867.402 L 312.945,867.402 L 303.874,867.402 L 294.803,867.402 L 285.732,867.402 L 276.661,867.402 L 267.591,867.402 L 258.52,867.402 L 249.449,867.402 L 240.378,867.402 L 231.307,867.402 L 222.236,867.402 L 213.165,867.402 L 204.094,867.402 L 195.024,867.402 L 185.953,867.402 L 176.882,867.402 L 167.811,867.402 L 158.74,867.402 L 149.669,867.402 L 140.598,867.402 L 131.528,867.402 L 122.457,867.402 L 113.386,867.402 L 104.315,867.402 L 95.2441,867.402 L 86.1732,867.402 L 77.1024,867.402 L 68.0315,867.402 L 58.9606,867.402 L 49.8898,867.402 L 40.8189,867.402 L 31.748,867.402 L 22.6772,867.402 L 13.6063,867.402 L 4.53543,867.402 L 4.53543,858.331 L 13.6063,858.331 L 22.6772,858.331 L 31.748,858.331 L 40.8189,858.331 L 49.8898,867.402 L 58.9606,867.402 L 68.0315,867.402 L 77.1024,867.402 L 86.1732,867.402 L 95.2441,867.402 L 104.315,867.402 L 113.386,867.402 L 122.457,867.402 L 131.528,867.402 L 140.598,867.402 L 149.669,867.402 L 158.74,867.402 L 167.811,867.402 L 176.882,867.402 L 185.953,867.402 L 195.024,867.402 L 204.094,867.402 L 213.165,867.402 L 222.236,867.402 L 231.307,867.402 L 240.378,867.402 L 249.449,867.402 L 258.52,867.402 L 267.591,867.402 L 276.661,867.402 L 285.732,867.402 L 294.803,867.402 L 303.874,867.402 L 312.945,867.402 L 322.016,867.402 L 331.087,867.402 L 340.157,867.402 L 349.228,867.402 L 358.299,867.402 L 367.37,867.402 L 376.441,867.402 L 385.512,867.402 L 394.583,867.402 L 403.654,867.402 L 412.724,867.402 L 421.795,867.402 L 430.866,867.402 L 439.937,867.402 L 449.008,867.402 L 458.079,867.402 L 467.15,867.402 L 476.22,867.402 L 485.291,867.402 L 494.362,867.402 L 503.433,867.402 L 512.504,867.402 L 521.575,867.402 L 530.646,867.402 L 539.717,867.402 L 548.787,867.402 L 557.858,867.402 L 566.929,867.402 L 576,867.402 L 585.071,867.402 L 594.142,867.402 L 603.213,867.402 L 612.283,867.402 L 621.354,867.402 L 630.425,867.402 L 639.496,867.402 L 648.567,867.402 L 657.638,867.402 L 666.709,867.402 L 675.78,867.402 L 684.85,867.402 L 693.921,867.402 L 702.992,867.402 L 712.063,867.402 L 721.134,867.402 L 730.205,867.402 L 739.276,867.402 L 748.346,867.402 L 757.417,867.402 L 766.488,867.402 L 775.559,867.402 L 784.63,867.402 L 793.701,867.402 L 802.772,867.402 L 811.843,867.402 L 820.913,867.402 L 829.984,867.402 L 839.055,867.402 L 848.126,867.402 L 857.197,867.402 L 866.268,867.402 L 875.339,867.402 L 884.409,867.402 L 893.48,867.402 L 902.551,867.402 L 911.622,858.331 L 920.693,858.331 L 929.764,849.26 z " style="fill-opacity:0.5;fill:rgb(253,0,0);stroke:rgb(253,0,0);stroke-width:2"/></g>
<g fill-rule="evenodd"><path d=" z " style="fill-opacity:0.5;fill:rgb(0,253,0);stroke:rgb(0,0,0);stroke-width:5"/></g>
</svg>
