<?xml version="1.0" standalone="no"?>
<!DOCTYPE svg PUBLIC "-//W3C//DTD SVG 1.1//EN"
"http://www.w3.org/Graphics/SVG/1.1/DTD/svg11.dtd">
<svg width="100%" height="100%" version="1.1"
xmlns="http://www.w3.org/2000/svg"
xmlns:xlink="http://www.w3.org/1999/xlink">
<g fill-rule="evenodd"><path d="M 1074.66,4.53103 L 1065.6,4.53103 L 1056.54,4.53103 L 1047.48,4.53103 L 1038.41,4.53103 L 1029.35,4.53103 L 1020.29,4.53103 L 1011.23,4.53103 L 1002.17,4.53103 L 993.103,4.53103 L 984.041,4.53103 L 974.979,4.53103 L 965.917,4.53103 L 956.855,4.53103 L 947.793,4.53103 L 938.731,4.53103 L 929.669,4.53103 L 920.607,4.53103 L 911.545,4.53103 L 902.483,4.53103 L 893.421,4.53103 L 884.359,4.53103 L 875.297,4.53103 L 866.234,4.53103 L 857.172,4.53103 L 848.11,4.53103 L 839.048,4.53103 L 829.986,4.53103 L 820.924,4.53103 L 811.862,4.53103 L 802.8,4.53103 L 793.738,4.53103 L 784.676,4.53103 L 775.614,4.53103 L 766.552,4.53103 L 757.49,4.53103 L 748.428,4.53103 L 739.366,4.53103 L 730.303,4.53103 L 721.241,4.53103 L 712.179,4.53103 L 703.117,4.53103 L 694.055,4.53103 L 684.993,4.53103 L 675.931,4.53103 L 666.869,4.53103 L 657.807,4.53103 L 648.745,4.53103 L 639.683,4.53103 L 630.621,4.53103 L 621.559,4.53103 L 612.497,4.53103 L 603.434,4.53103 L 594.372,4.53103 L 585.31,4.53103 L 576.248,4.53103 L 567.186,4.53103 L 558.124,4.53103 L 549.062,4.53103 L 540,4.53103 L 530.938,4.53103 L 521.876,4.53103 L 512.814,4.53103 L 503.752,4.53103 L 494.69,4.53103 L 485.628,4.53103 L 476.566,4.53103 L 467.503,4.53103 L 458.441,4.53103 L 449.379,4.53103 L 440.317,4.53103 L 431.255,4.53103 L 422.193,4.53103 L 413.131,4.53103 L 404.069,4.53103 L 395.007,4.53103 L 385.945,4.53103 L 376.883,4.53103 L 367.821,4.53103 L 358.759,4.53103 L 349.697,4.53103 L 340.634,4.53103 L 331.572,4.53103 L 322.51,4.53103 L 313.448,4.53103 L 304.386,4.53103 L 295.324,4.53103 L 286.262,4.53103 L 277.2,4.53103 L 268.138,4.53103 L 259.076,4.53103 L 250.014,4.53103 L 240.952,4.53103 L 231.89,4.53103 L 222.828,4.53103 L 213.766,4.53103 L 204.703,4.53103 L 195.641,4.53103 L 186.579,4.53103 L 177.517,4.53103 L 168.455,4.53103 L 159.393,4.53103 L 150.331,4.53103 L 141.269,4.53103 L 132.207,4.53103 L 123.145,4.53103 L 114.083,4.53103 L 105.021,4.53103 L 95.9586,4.53103 L 86.8966,4.53103 L 77.8345,4.53103 L 68.7724,4.53103 L 59.7103,4.53103 L 50.6483,4.53103 L 41.5862,4.53103 L 32.5241,4.53103 L 23.4621,4.53103 L 14.4,4.53103 L 5.33793,4.53103 L -3.72414,4.53103 L -3.72414,13.5931 L -3.72414,22.6552 L -3.72414,31.7172 L -3.72414,40.7793 L -3.72414,49.8414 L -3.72414,58.9034 L -3.72414,67.9655 L -3.72414,77.0276 L -3.72414,86.0897 L -3.72414,95.1517 L -3.72414,104.214 L -3.72414,113.276 L -3.72414,122.338 L -3.72414,131.4 L -3.72414,140.462 L -3.72414,149.524 L -3.72414,158.586 L -3.72414,167.648 L -3.72414,176.71 L -3.72414,185.772 L -3.72414,194.834 L -3.72414,203.897 L -3.72414,212.959 L -3.72414,222.021 L -3.72414,231.083 L -3.72414,240.145 L -3.72414,249.207 L -3.72414,258.269 L -3.72414,267.331 L -3.72414,276.393 L -3.72414,285.455 L -3.72414,294.517 L -3.72414,303.579 L -3.72414,312.641 L -3.72414,321.703 L -3.72414,330.766 L -3.72414,339.828 L -3.72414,348.89 L -3.72414,357.952 L -3.72414,367.014 L -3.72414,376.076 L -3.72414,385.138 L -3.72414,394.2 L -3.72414,403.262 L -3.72414,412.324 L -3.72414,421.386 L -3.72414,430.448 L -3.72414,439.51 L -3.72414,448.572 L -3.72414,457.634 L -3.72414,466.697 L -3.72414,475.759 L -3.72414,484.821 L -3.72414,493.883 L -3.72414,502.945 L -3.72414,512.007 L -3.72414,521.069 L -3.72414,530.131 L -3.72414,539.193 L -3.72414,548.255 L -3.72414,557.317 L -3.72414,566.379 L -3.72414,575.441 L -3.72414,584.503 L -3.72414,593.566 L -3.72414,602.628 L -3.72414,611.69 L -3.72414,620.752 L -3.72414,629.814 L -3.72414,638.876 L -3.72414,647.938 L -3.72414,657 L -3.72414,666.062 L -3.72414,675.124 L -3.72414,684.186 L -3.72414,693.248 L -3.72414,702.31 L -3.72414,711.372 L -3.72414,720.434 L -3.72414,729.497 L -3.72414,738.559 L -3.72414,747.621 L -3.72414,756.683 L -3.72414,765.745 L -3.72414,774.807 L -3.72414,783.869 L -3.72414,792.931 L -3.72414,801.993 L -3.72414,811.055 L -3.72414,820.117 L -3.72414,829.179 L -3.72414,838.241 L -3.72414,847.303 L -3.72414,856.366 L -3.72414,865.428 L -3.72414,874.49 L -3.72414,883.552 L -3.72414,892.614 L -3.72414,901.676 L -3.72414,910.738 L -3.72414,919.8 L -3.72414,928.862 L -3.72414,937.924 L -3.72414,946.986 L -3.72414,956.048 L -3.72414,965.11 L -3.72414,974.172 L -3.72414,983.234 L -3.72414,992.297 L -3.72414,1001.36 L -3.72414,1010.42 L -3.72414,1019.48 L -3.72414,1028.54 L -3.72414,1037.61 L -3.72414,1046.67 L -3.72414,1055.73 L -3.72414,1064.79 L -3.72414,1073.86 L -3.72414,1082.92 L -3.72414,1091.98 L -3.72414,1101.04 L -3.72414,1110.1 L -3.72414,1119.17 L -3.72414,1128.23 L -3.72414,1137.29 L -3.72414,1146.35 L -3.72414,1155.41 L -3.72414,1164.48 L -3.72414,1173.54 L -3.72414,1182.6 L -3.72414,1191.66 L -3.72414,1200.72 L -3.72414,1209.79 L -3.72414,1218.85 L -3.72414,1227.91 L -3.72414,1236.97 L -3.72414,1246.03 L -3.72414,1255.1 L -3.72414,1264.16 L -3.72414,1273.22 L -3.72414,1282.28 L -3.72414,1291.34 L -3.72414,1300.41 L -3.72414,1309.47 L -3.72414,1318.53 L 5.33793,1318.53 L 14.4,1318.53 L 23.4621,1318.53 L 32.5241,1318.53 L 41.5862,1318.53 L 50.6483,1318.53 L 59.7103,1318.53 L 68.7724,1318.53 L 77.8345,1318.53 L 86.8966,1318.53 L 95.9586,1318.53 L 105.021,1318.53 L 114.083,1318.53 L 123.145,1318.53 L 132.207,1318.53 L 141.269,1318.53 L 150.331,1318.53 L 159.393,1318.53 L 168.455,1318.53 L 177.517,1318.53 L 186.579,1318.53 L 195.641,1318.53 L 204.703,1318.53 L 213.766,1318.53 L 222.828,1318.53 L 231.89,1318.53 L 240.952,1318.53 L 250.014,1318.53 L 259.076,1318.53 L 268.138,1318.53 L 277.2,1318.53 L 286.262,1318.53 L 295.324,1318.53 L 304.386,1318.53 L 313.448,1318.53 L 322.51,1318.53 L 331.572,1318.53 L 340.634,1318.53 L 349.697,1318.53 L 358.759,1318.53 L 367.821,1318.53 L 376.883,1318.53 L 385.945,1318.53 L 395.007,1318.53 L 404.069,1318.53 L 413.131,1318.53 L 422.193,1318.53 L 431.255,1318.53 L 440.317,1318.53 L 449.379,1318.53 L 458.441,1318.53 L 467.503,1318.53 L 476.566,1318.53 L 485.628,1318.53 L 494.69,1318.53 L 503.752,1318.53 L 512.814,1318.53 L 521.876,1318.53 L 530.938,1318.53 L 540,1318.53 L 549.062,1318.53 L 558.124,1318.53 L 567.186,1318.53 L 576.248,1318.53 L 585.31,1318.53 L 594.372,1318.53 L 603.434,1318.53 L 612.497,1318.53 L 621.559,1318.53 L 630.621,1318.53 L 639.683,1318.53 L 648.745,1318.53 L 657.807,1318.53 L 666.869,1318.53 L 675.931,1318.53 L 684.993,1318.53 L 694.055,1318.53 L 703.117,1318.53 L 712.179,1318.53 L 721.241,1318.53 L 730.303,1318.53 L 739.366,1318.53 L 748.428,1318.53 L 757.49,1318.53 L 766.552,1318.53 L 775.614,1318.53 L 784.676,1318.53 L 793.738,1318.53 L 802.8,1318.53 L 811.862,1318.53 L 820.924,1318.53 L 829.986,1318.53 L 839.048,1318.53 L 848.11,1318.53 L 857.172,1318.53 L 866.234,1318.53 L 875.297,1318.53 L 884.359,1318.53 L 893.421,1318.53 L 902.483,1318.53 L 911.545,1318.53 L 920.607,1318.53 L 929.669,1318.53 L 938.731,1318.53 L 947.793,1318.53 L 956.855,1318.53 L 965.917,1318.53 L 974.979,1318.53 L 984.041,1318.53 L 993.103,1318.53 L 1002.17,1318.53 L 1011.23,1318.53 L 1020.29,1318.53 L 1029.35,1318.53 L 1038.41,1318.53 L 1047.48,1318.53 L 1056.54,1318.53 L 1065.6,1318.53 L 1074.66,1318.53 L 1074.66,1309.47 L 1074.66,1300.41 L 1074.66,1291.34 L 1074.66,1282.28 L 1074.66,1273.22 L 1074.66,1264.16 L 1074.66,1255.1 L 1074.66,1246.03 L 1074.66,1236.97 L 1074.66,1227.91 L 1074.66,1218.85 L 1074.66,1209.79 L 1074.66,1200.72 L 1074.66,1191.66 L 1074.66,1182.6 L 1074.66,1173.54 L 1074.66,1164.48 L 1074.66,1155.41 L 1074.66,1146.35 L 1074.66,1137.29 L 1074.66,1128.23 L 1074.66,1119.17 L 1074.66,1110.1 L 1074.66,1101.04 L 1074.66,1091.98 L 1074.66,1082.92 L 1074.66,1073.86 L 1074.66,1064.79 L 1074.66,1055.73 L 1074.66,1046.67 L 1074.66,1037.61 L 1074.66,1028.54 L 1074.66,1019.48 L 1074.66,1010.42 L 1074.66,1001.36 L 1074.66,992.297 L 1074.66,983.234 L 1074.66,974.172 L 1074.66,965.11 L 1074.66,956.048 L 1074.66,946.986 L 1074.66,937.924 L 1074.66,928.862 L 1074.66,919.8 L 1074.66,910.738 L 1074.66,901.676 L 1074.66,892.614 L 1074.66,883.552 L 1074.66,874.49 L 1074.66,865.428 L 1074.66,856.366 L 1074.66,847.303 L 1074.66,838.241 L 1074.66,829.179 L 1074.66,820.117 L 1074.66,811.055 L 1074.66,801.993 L 1074.66,792.931 L 1074.66,783.869 L 1074.66,774.807 L 1074.66,765.745 L 1074.66,756.683 L 1074.66,747.621 L 1074.66,738.559 L 1074.66,729.497 L 1074.66,720.434 L 1074.66,711.372 L 1074.66,702.31 L 1074.66,693.248 L 1074.66,684.186 L 1074.66,675.124 L 1074.66,666.062 L 1074.66,657 L 1074.66,647.938 L 1074.66,638.876 L 1074.66,629.814 L 1074.66,620.752 L 1074.66,611.69 L 1074.66,602.628 L 1074.66,593.566 L 1074.66,584.503 L 1074.66,575.441 L 1074.66,566.379 L 1074.66,557.317 L 1074.66,548.255 L 1074.66,539.193 L 1074.66,530.131 L 1074.66,521.069 L 1074.66,512.007 L 1074.66,502.945 L 1074.66,493.883 L 1074.66,484.821 L 1074.66,475.759 L 1074.66,466.697 L 1074.66,457.634 L 1074.66,448.572 L 1074.66,439.51 L 1074.66,430.448 L 1074.66,421.386 L 1074.66,412.324 L 1074.66,403.262 L 1074.66,394.2 L 1074.66,385.138 L 1074.66,376.076 L 1074.66,367.014 L 1074.66,357.952 L 1074.66,348.89 L 1074.66,339.828 L 1074.66,330.766 L 1074.66,321.703 L 1074.66,312.641 L 1074.66,303.579 L 1074.66,294.517 L 1074.66,285.455 L 1074.66,276.393 L 1074.66,267.331 L 1074.66,258.269 L 1074.66,249.207 L 1074.66,240.145 L 1074.66,231.083 L 1074.66,222.021 L 1074.66,212.959 L 1074.66,203.897 L 1074.66,194.834 L 1074.66,185.772 L 1074.66,176.71 L 1074.66,167.648 L 1074.66,158.586 L 1074.66,149.524 L 1074.66,140.462 L 1074.66,131.4 L 1074.66,122.338 L 1074.66,113.276 L 1074.66,104.214 L 1074.66,95.1517 L 1074.66,86.0897 L 1074.66,77.0276 L 1074.66,67.9655 L 1074.66,58.9034 L 1074.66,49.8414 L 1074.66,40.7793 L 1074.66,31.7172 L 1074.66,22.6552 L 1074.66,13.5931 L 1074.66,4.53103M 993.103,13.5931 L 1002.17,22.6552 L 1011.23,31.7172 L 1020.29,40.7793 L 1029.35,49.8414 L 1038.41,58.9034 L 1047.48,67.9655 L 1056.54,77.0276 L 1056.54,86.0897 L 1047.48,95.1517 L 1038.41,104.214 L 1038.41,113.276 L 1038.41,122.338 L 1038.41,131.4 L 1047.48,140.462 L 1056.54,149.524 L 1056.54,158.586 L 1047.48,167.648 L 1038.41,176.71 L 1038.41,185.772 L 1038.41,194.834 L 1038.41,203.897 L 1047.48,212.959 L 1056.54,222.021 L 1056.54,231.083 L 1047.48,240.145 L 1038.41,249.207 L 1029.35,258.269 L 1020.29,267.331 L 1011.23,276.393 L 1002.17,285.455 L 993.103,294.517 L 984.041,303.579 L 974.979,303.579 L 965.917,294.517 L 956.855,285.455 L 947.793,285.455 L 938.731,285.455 L 929.669,285.455 L 920.607,294.517 L 911.545,303.579 L 902.483,303.579 L 893.421,294.517 L 884.359,285.455 L 875.297,285.455 L 866.234,285.455 L 857.172,285.455 L 848.11,294.517 L 839.048,303.579 L 829.986,303.579 L 820.924,303.579 L 811.862,303.579 L 802.8,294.517 L 793.738,285.455 L 793.738,276.393 L 793.738,267.331 L 784.676,267.331 L 775.614,267.331 L 766.552,258.269 L 757.49,249.207 L 748.428,240.145 L 739.366,231.083 L 739.366,222.021 L 748.428,212.959 L 757.49,203.897 L 757.49,194.834 L 757.49,185.772 L 748.428,176.71 L 739.366,167.648 L 739.366,176.71 L 739.366,185.772 L 748.428,194.834 L 739.366,203.897 L 730.303,212.959 L 721.241,222.021 L 712.179,222.021 L 703.117,212.959 L 694.055,212.959 L 684.993,222.021 L 675.931,222.021 L 666.869,222.021 L 657.807,222.021 L 648.745,231.083 L 648.745,240.145 L 657.807,249.207 L 666.869,249.207 L 675.931,258.269 L 675.931,267.331 L 675.931,276.393 L 684.993,276.393 L 694.055,285.455 L 703.117,285.455 L 712.179,294.517 L 712.179,303.579 L 721.241,303.579 L 730.303,294.517 L 739.366,294.517 L 748.428,294.517 L 757.49,303.579 L 766.552,303.579 L 775.614,312.641 L 784.676,303.579 L 793.738,303.579 L 802.8,303.579 L 811.862,303.579 L 820.924,303.579 L 829.986,303.579 L 839.048,312.641 L 848.11,321.703 L 857.172,330.766 L 857.172,339.828 L 857.172,348.89 L 857.172,357.952 L 848.11,367.014 L 839.048,376.076 L 839.048,385.138 L 839.048,394.2 L 839.048,403.262 L 839.048,412.324 L 829.986,421.386 L 820.924,430.448 L 811.862,430.448 L 802.8,430.448 L 802.8,439.51 L 802.8,448.572 L 811.862,457.634 L 820.924,466.697 L 820.924,457.634 L 829.986,448.572 L 839.048,457.634 L 848.11,466.697 L 857.172,475.759 L 866.234,475.759 L 866.234,466.697 L 866.234,457.634 L 875.297,448.572 L 884.359,439.51 L 884.359,430.448 L 875.297,421.386 L 875.297,412.324 L 884.359,403.262 L 893.421,403.262 L 902.483,403.262 L 911.545,394.2 L 920.607,394.2 L 929.669,403.262 L 938.731,403.262 L 947.793,394.2 L 956.855,385.138 L 965.917,385.138 L 974.979,385.138 L 984.041,385.138 L 993.103,394.2 L 1002.17,403.262 L 1011.23,403.262 L 1020.29,403.262 L 1029.35,412.324 L 1038.41,421.386 L 1038.41,430.448 L 1038.41,439.51 L 1047.48,448.572 L 1056.54,457.634 L 1056.54,466.697 L 1056.54,475.759 L 1065.6,484.821 L 1065.6,493.883 L 1056.54,502.945 L 1056.54,512.007 L 1065.6,521.069 L 1074.66,530.131 L 1074.66,539.193 L 1065.6,548.255 L 1056.54,557.317 L 1056.54,566.379 L 1065.6,575.441 L 1065.6,584.503 L 1056.54,593.566 L 1047.48,593.566 L 1038.41,593.566 L 1038.41,602.628 L 1038.41,611.69 L 1038.41,620.752 L 1047.48,629.814 L 1047.48,638.876 L 1038.41,647.938 L 1038.41,657 L 1038.41,666.062 L 1038.41,675.124 L 1047.48,684.186 L 1047.48,693.248 L 1038.41,702.31 L 1038.41,711.372 L 1038.41,720.434 L 1029.35,729.497 L 1020.29,729.497 L 1011.23,720.434 L 1002.17,720.434 L 993.103,711.372 L 984.041,702.31 L 984.041,693.248 L 974.979,702.31 L 965.917,711.372 L 965.917,720.434 L 965.917,729.497 L 974.979,738.559 L 974.979,747.621 L 965.917,756.683 L 956.855,765.745 L 947.793,774.807 L 938.731,774.807 L 929.669,774.807 L 929.669,783.869 L 920.607,792.931 L 920.607,801.993 L 929.669,811.055 L 938.731,811.055 L 947.793,801.993 L 947.793,792.931 L 956.855,783.869 L 965.917,783.869 L 974.979,783.869 L 984.041,774.807 L 993.103,765.745 L 1002.17,765.745 L 1011.23,774.807 L 1020.29,783.869 L 1029.35,792.931 L 1038.41,801.993 L 1038.41,811.055 L 1038.41,820.117 L 1047.48,820.117 L 1056.54,820.117 L 1065.6,829.179 L 1074.66,838.241 L 1074.66,847.303 L 1065.6,856.366 L 1056.54,865.428 L 1056.54,874.49 L 1056.54,883.552 L 1056.54,892.614 L 1065.6,901.676 L 1074.66,910.738 L 1074.66,919.8 L 1065.6,928.862 L 1056.54,937.924 L 1056.54,946.986 L 1056.54,956.048 L 1056.54,965.11 L 1065.6,974.172 L 1074.66,983.234 L 1074.66,992.297 L 1065.6,1001.36 L 1056.54,1010.42 L 1047.48,1010.42 L 1038.41,1010.42 L 1029.35,1019.48 L 1020.29,1028.54 L 1011.23,1028.54 L 1002.17,1019.48 L 993.103,1010.42 L 984.041,1010.42 L 974.979,1010.42 L 965.917,1010.42 L 956.855,1019.48 L 947.793,1028.54 L 938.731,1028.54 L 929.669,1019.48 L 920.607,1010.42 L 911.545,1010.42 L 902.483,1010.42 L 893.421,1019.48 L 884.359,1028.54 L 893.421,1028.54 L 902.483,1028.54 L 911.545,1019.48 L 920.607,1019.48 L 929.669,1028.54 L 929.669,1037.61 L 938.731,1046.67 L 938.731,1055.73 L 929.669,1064.79 L 920.607,1073.86 L 911.545,1082.92 L 902.483,1082.92 L 893.421,1091.98 L 884.359,1091.98 L 893.421,1101.04 L 902.483,1110.1 L 911.545,1110.1 L 920.607,1110.1 L 929.669,1101.04 L 938.731,1091.98 L 947.793,1091.98 L 956.855,1101.04 L 965.917,1110.1 L 974.979,1110.1 L 984.041,1110.1 L 993.103,1110.1 L 1002.17,1101.04 L 1011.23,1091.98 L 1020.29,1091.98 L 1029.35,1101.04 L 1038.41,1110.1 L 1047.48,1119.17 L 1056.54,1128.23 L 1056.54,1137.29 L 1056.54,1146.35 L 1056.54,1155.41 L 1056.54,1164.48 L 1065.6,1173.54 L 1074.66,1182.6 L 1074.66,1191.66 L 1065.6,1200.72 L 1056.54,1209.79 L 1056.54,1218.85 L 1056.54,1227.91 L 1056.54,1236.97 L 1065.6,1246.03 L 1074.66,1255.1 L 1074.66,1264.16 L 1065.6,1273.22 L 1056.54,1282.28 L 1047.48,1291.34 L 1038.41,1300.41 L 1029.35,1300.41 L 1020.29,1300.41 L 1011.23,1309.47 L 1002.17,1318.53 L 993.103,1318.53 L 984.041,1309.47 L 974.979,1300.41 L 965.917,1300.41 L 956.855,1300.41 L 947.793,1300.41 L 938.731,1309.47 L 929.669,1318.53 L 920.607,1318.53 L 911.545,1309.47 L 902.483,1300.41 L 893.421,1300.41 L 884.359,1300.41 L 875.297,1291.34 L 866.234,1282.28 L 857.172,1273.22 L 848.11,1264.16 L 848.11,1255.1 L 857.172,1246.03 L 866.234,1236.97 L 866.234,1227.91 L 866.234,1218.85 L 866.234,1209.79 L 857.172,1200.72 L 848.11,1191.66 L 848.11,1182.6 L 857.172,1173.54 L 866.234,1164.48 L 866.234,1155.41 L 866.234,1146.35 L 857.172,1137.29 L 848.11,1128.23 L 848.11,1137.29 L 839.048,1146.35 L 829.986,1155.41 L 820.924,1155.41 L 811.862,1164.48 L 802.8,1155.41 L 793.738,1146.35 L 793.738,1137.29 L 793.738,1128.23 L 784.676,1119.17 L 784.676,1110.1 L 775.614,1119.17 L 766.552,1128.23 L 766.552,1137.29 L 766.552,1146.35 L 775.614,1146.35 L 784.676,1146.35 L 793.738,1155.41 L 802.8,1164.48 L 802.8,1173.54 L 802.8,1182.6 L 811.862,1191.66 L 820.924,1200.72 L 820.924,1209.79 L 820.924,1218.85 L 820.924,1227.91 L 811.862,1236.97 L 802.8,1246.03 L 802.8,1255.1 L 802.8,1264.16 L 793.738,1273.22 L 784.676,1282.28 L 775.614,1291.34 L 766.552,1300.41 L 757.49,1300.41 L 748.428,1300.41 L 739.366,1309.47 L 730.303,1318.53 L 721.241,1318.53 L 712.179,1309.47 L 703.117,1300.41 L 694.055,1300.41 L 684.993,1300.41 L 675.931,1300.41 L 666.869,1309.47 L 657.807,1318.53 L 648.745,1318.53 L 639.683,1309.47 L 630.621,1300.41 L 621.559,1300.41 L 612.497,1300.41 L 603.434,1291.34 L 594.372,1282.28 L 594.372,1273.22 L 594.372,1264.16 L 585.31,1255.1 L 576.248,1246.03 L 576.248,1236.97 L 585.31,1227.91 L 594.372,1218.85 L 594.372,1209.79 L 585.31,1200.72 L 576.248,1191.66 L 576.248,1182.6 L 576.248,1173.54 L 576.248,1164.48 L 576.248,1155.41 L 567.186,1155.41 L 558.124,1155.41 L 549.062,1146.35 L 540,1137.29 L 530.938,1137.29 L 521.876,1146.35 L 512.814,1155.41 L 503.752,1155.41 L 494.69,1155.41 L 494.69,1164.48 L 503.752,1164.48 L 512.814,1164.48 L 521.876,1173.54 L 530.938,1182.6 L 530.938,1191.66 L 521.876,1200.72 L 512.814,1209.79 L 512.814,1218.85 L 521.876,1227.91 L 530.938,1236.97 L 530.938,1246.03 L 521.876,1255.1 L 512.814,1264.16 L 503.752,1264.16 L 494.69,1264.16 L 494.69,1273.22 L 494.69,1282.28 L 485.628,1291.34 L 476.566,1300.41 L 467.503,1300.41 L 458.441,1300.41 L 449.379,1309.47 L 440.317,1318.53 L 431.255,1318.53 L 422.193,1309.47 L 413.131,1300.41 L 404.069,1300.41 L 395.007,1300.41 L 385.945,1300.41 L 376.883,1309.47 L 367.821,1318.53 L 358.759,1318.53 L 349.697,1309.47 L 340.634,1300.41 L 331.572,1300.41 L 322.51,1300.41 L 313.448,1291.34 L 304.386,1282.28 L 304.386,1273.22 L 304.386,1264.16 L 295.324,1255.1 L 295.324,1246.03 L 286.262,1236.97 L 286.262,1227.91 L 295.324,1218.85 L 295.324,1209.79 L 295.324,1200.72 L 295.324,1191.66 L 295.324,1182.6 L 304.386,1173.54 L 313.448,1173.54 L 304.386,1164.48 L 295.324,1155.41 L 286.262,1155.41 L 277.2,1155.41 L 277.2,1164.48 L 277.2,1173.54 L 277.2,1182.6 L 286.262,1191.66 L 295.324,1200.72 L 295.324,1209.79 L 286.262,1218.85 L 277.2,1227.91 L 277.2,1236.97 L 286.262,1246.03 L 295.324,1255.1 L 295.324,1264.16 L 286.262,1273.22 L 277.2,1282.28 L 268.138,1291.34 L 259.076,1300.41 L 250.014,1300.41 L 240.952,1291.34 L 231.89,1282.28 L 222.828,1282.28 L 213.766,1291.34 L 204.703,1300.41 L 195.641,1300.41 L 186.579,1300.41 L 177.517,1309.47 L 168.455,1318.53 L 159.393,1318.53 L 150.331,1309.47 L 141.269,1300.41 L 132.207,1300.41 L 123.145,1300.41 L 114.083,1300.41 L 105.021,1309.47 L 95.9586,1318.53 L 86.8966,1318.53 L 77.8345,1309.47 L 68.7724,1300.41 L 59.7103,1291.34 L 50.6483,1282.28 L 41.5862,1273.22 L 32.5241,1264.16 L 23.4621,1255.1 L 14.4,1246.03 L 14.4,1236.97 L 23.4621,1227.91 L 32.5241,1218.85 L 32.5241,1209.79 L 32.5241,1200.72 L 32.5241,1191.66 L 23.4621,1182.6 L 14.4,1173.54 L 14.4,1164.48 L 23.4621,1155.41 L 32.5241,1146.35 L 32.5241,1137.29 L 32.5241,1128.23 L 32.5241,1119.17 L 23.4621,1110.1 L 14.4,1101.04 L 14.4,1091.98 L 23.4621,1082.92 L 32.5241,1073.86 L 41.5862,1064.79 L 50.6483,1055.73 L 59.7103,1046.67 L 68.7724,1037.61 L 77.8345,1028.54 L 86.8966,1019.48 L 95.9586,1019.48 L 105.021,1028.54 L 114.083,1037.61 L 123.145,1037.61 L 132.207,1037.61 L 141.269,1037.61 L 150.331,1028.54 L 159.393,1019.48 L 168.455,1019.48 L 177.517,1028.54 L 186.579,1037.61 L 195.641,1037.61 L 204.703,1037.61 L 213.766,1037.61 L 222.828,1028.54 L 231.89,1019.48 L 240.952,1019.48 L 250.014,1019.48 L 259.076,1019.48 L 268.138,1028.54 L 277.2,1037.61 L 277.2,1046.67 L 277.2,1055.73 L 286.262,1055.73 L 295.324,1055.73 L 304.386,1064.79 L 313.448,1073.86 L 322.51,1082.92 L 331.572,1091.98 L 331.572,1101.04 L 322.51,1110.1 L 313.448,1119.17 L 313.448,1128.23 L 313.448,1137.29 L 322.51,1146.35 L 331.572,1155.41 L 331.572,1146.35 L 331.572,1137.29 L 322.51,1128.23 L 331.572,1119.17 L 340.634,1110.1 L 349.697,1101.04 L 358.759,1101.04 L 367.821,1110.1 L 376.883,1110.1 L 385.945,1101.04 L 395.007,1101.04 L 404.069,1101.04 L 413.131,1101.04 L 422.193,1091.98 L 422.193,1082.92 L 413.131,1073.86 L 404.069,1073.86 L 395.007,1064.79 L 395.007,1055.73 L 395.007,1046.67 L 385.945,1046.67 L 376.883,1037.61 L 367.821,1037.61 L 358.759,1028.54 L 358.759,1019.48 L 349.697,1019.48 L 340.634,1028.54 L 331.572,1028.54 L 322.51,1028.54 L 313.448,1019.48 L 304.386,1019.48 L 295.324,1010.42 L 286.262,1019.48 L 277.2,1019.48 L 268.138,1019.48 L 259.076,1019.48 L 250.014,1019.48 L 240.952,1019.48 L 231.89,1010.42 L 222.828,1001.36 L 213.766,992.297 L 213.766,983.234 L 213.766,974.172 L 213.766,965.11 L 222.828,956.048 L 231.89,946.986 L 231.89,937.924 L 231.89,928.862 L 231.89,919.8 L 231.89,910.738 L 240.952,901.676 L 250.014,892.614 L 259.076,892.614 L 268.138,892.614 L 268.138,883.552 L 268.138,874.49 L 259.076,865.428 L 250.014,856.366 L 250.014,865.428 L 240.952,874.49 L 231.89,865.428 L 222.828,856.366 L 213.766,847.303 L 204.703,847.303 L 204.703,856.366 L 204.703,865.428 L 195.641,874.49 L 186.579,883.552 L 186.579,892.614 L 195.641,901.676 L 195.641,910.738 L 186.579,919.8 L 177.517,919.8 L 168.455,919.8 L 159.393,928.862 L 150.331,928.862 L 141.269,919.8 L 132.207,919.8 L 123.145,928.862 L 114.083,937.924 L 105.021,937.924 L 95.9586,937.924 L 86.8966,937.924 L 77.8345,928.862 L 68.7724,919.8 L 59.7103,919.8 L 50.6483,919.8 L 41.5862,910.738 L 32.5241,901.676 L 32.5241,892.614 L 32.5241,883.552 L 23.4621,874.49 L 14.4,865.428 L 14.4,856.366 L 14.4,847.303 L 5.33793,838.241 L 5.33793,829.179 L 14.4,820.117 L 14.4,811.055 L 5.33793,801.993 L -3.72414,792.931 L -3.72414,783.869 L 5.33793,774.807 L 14.4,765.745 L 14.4,756.683 L 5.33793,747.621 L 5.33793,738.559 L 14.4,729.497 L 23.4621,729.497 L 32.5241,729.497 L 32.5241,720.434 L 32.5241,711.372 L 32.5241,702.31 L 23.4621,693.248 L 23.4621,684.186 L 32.5241,675.124 L 32.5241,666.062 L 32.5241,657 L 32.5241,647.938 L 23.4621,638.876 L 23.4621,629.814 L 32.5241,620.752 L 32.5241,611.69 L 32.5241,602.628 L 41.5862,593.566 L 50.6483,593.566 L 59.7103,602.628 L 68.7724,602.628 L 77.8345,611.69 L 86.8966,620.752 L 86.8966,629.814 L 95.9586,620.752 L 105.021,611.69 L 105.021,602.628 L 105.021,593.566 L 95.9586,584.503 L 95.9586,575.441 L 105.021,566.379 L 114.083,557.317 L 123.145,548.255 L 132.207,548.255 L 141.269,548.255 L 141.269,539.193 L 150.331,530.131 L 150.331,521.069 L 141.269,512.007 L 132.207,512.007 L 123.145,521.069 L 123.145,530.131 L 114.083,539.193 L 105.021,539.193 L 95.9586,539.193 L 86.8966,548.255 L 77.8345,557.317 L 68.7724,557.317 L 59.7103,548.255 L 50.6483,539.193 L 41.5862,530.131 L 32.5241,521.069 L 32.5241,512.007 L 32.5241,502.945 L 23.4621,502.945 L 14.4,502.945 L 5.33793,493.883 L -3.72414,484.821 L -3.72414,475.759 L 5.33793,466.697 L 14.4,457.634 L 14.4,448.572 L 14.4,439.51 L 14.4,430.448 L 5.33793,421.386 L -3.72414,412.324 L -3.72414,403.262 L 5.33793,394.2 L 14.4,385.138 L 14.4,376.076 L 14.4,367.014 L 14.4,357.952 L 5.33793,348.89 L -3.72414,339.828 L -3.72414,330.766 L 5.33793,321.703 L 14.4,312.641 L 23.4621,312.641 L 32.5241,312.641 L 41.5862,303.579 L 50.6483,294.517 L 59.7103,294.517 L 68.7724,303.579 L 77.8345,312.641 L 86.8966,312.641 L 95.9586,312.641 L 105.021,312.641 L 114.083,303.579 L 123.145,294.517 L 132.207,294.517 L 141.269,303.579 L 150.331,312.641 L 159.393,312.641 L 168.455,312.641 L 177.517,303.579 L 186.579,294.517 L 177.517,294.517 L 168.455,294.517 L 159.393,303.579 L 150.331,303.579 L 141.269,294.517 L 141.269,285.455 L 132.207,276.393 L 132.207,267.331 L 141.269,258.269 L 150.331,249.207 L 159.393,240.145 L 168.455,240.145 L 177.517,231.083 L 186.579,231.083 L 177.517,222.021 L 168.455,212.959 L 159.393,212.959 L 150.331,212.959 L 141.269,222.021 L 132.207,231.083 L 123.145,231.083 L 114.083,222.021 L 105.021,212.959 L 95.9586,212.959 L 86.8966,212.959 L 77.8345,212.959 L 68.7724,222.021 L 59.7103,231.083 L 50.6483,231.083 L 41.5862,222.021 L 32.5241,212.959 L 23.4621,203.897 L 14.4,194.834 L 14.4,185.772 L 14.4,176.71 L 14.4,167.648 L 14.4,158.586 L 5.33793,149.524 L -3.72414,140.462 L -3.72414,131.4 L 5.33793,122.338 L 14.4,113.276 L 14.4,104.214 L 14.4,95.1517 L 14.4,86.0897 L 5.33793,77.0276 L -3.72414,67.9655 L -3.72414,58.9034 L 5.33793,49.8414 L 14.4,40.7793 L 23.4621,31.7172 L 32.5241,22.6552 L 41.5862,22.6552 L 50.6483,22.6552 L 59.7103,13.5931 L 68.7724,4.53103 L 77.8345,4.53103 L 86.8966,13.5931 L 95.9586,22.6552 L 105.021,22.6552 L 114.083,22.6552 L 123.145,22.6552 L 132.207,13.5931 L 141.269,4.53103 L 150.331,4.53103 L 159.393,13.5931 L 168.455,22.6552 L 177.517,22.6552 L 186.579,22.6552 L 195.641,31.7172 L 204.703,40.7793 L 213.766,49.8414 L 222.828,58.9034 L 222.828,67.9655 L 213.766,77.0276 L 204.703,86.0897 L 204.703,95.1517 L 204.703,104.214 L 204.703,113.276 L 213.766,122.338 L 222.828,131.4 L 222.828,140.462 L 213.766,149.524 L 204.703,158.586 L 204.703,167.648 L 204.703,176.71 L 213.766,185.772 L 222.828,194.834 L 222.828,185.772 L 231.89,176.71 L 240.952,167.648 L 250.014,167.648 L 259.076,158.586 L 268.138,167.648 L 277.2,176.71 L 277.2,185.772 L 277.2,194.834 L 286.262,203.897 L 286.262,212.959 L 295.324,203.897 L 304.386,194.834 L 304.386,185.772 L 304.386,176.71 L 295.324,176.71 L 286.262,176.71 L 277.2,167.648 L 268.138,158.586 L 268.138,149.524 L 268.138,140.462 L 259.076,131.4 L 250.014,122.338 L 250.014,113.276 L 250.014,104.214 L 250.014,95.1517 L 259.076,86.0897 L 268.138,77.0276 L 268.138,67.9655 L 268.138,58.9034 L 277.2,49.8414 L 286.262,40.7793 L 295.324,31.7172 L 304.386,22.6552 L 313.448,22.6552 L 322.51,22.6552 L 331.572,13.5931 L 340.634,4.53103 L 349.697,4.53103 L 358.759,13.5931 L 367.821,22.6552 L 376.883,22.6552 L 385.945,22.6552 L 395.007,22.6552 L 404.069,13.5931 L 413.131,4.53103 L 422.193,4.53103 L 431.255,13.5931 L 440.317,22.6552 L 449.379,22.6552 L 458.441,22.6552 L 467.503,31.7172 L 476.566,40.7793 L 476.566,49.8414 L 476.566,58.9034 L 485.628,67.9655 L 494.69,77.0276 L 494.69,86.0897 L 485.628,95.1517 L 476.566,104.214 L 476.566,113.276 L 485.628,122.338 L 494.69,131.4 L 494.69,140.462 L 494.69,149.524 L 494.69,158.586 L 494.69,167.648 L 503.752,167.648 L 512.814,167.648 L 521.876,176.71 L 530.938,185.772 L 540,185.772 L 549.062,176.71 L 558.124,167.648 L 567.186,167.648 L 576.248,167.648 L 576.248,158.586 L 567.186,158.586 L 558.124,158.586 L 549.062,149.524 L 540,140.462 L 540,131.4 L 549.062,122.338 L 558.124,113.276 L 558.124,104.214 L 549.062,95.1517 L 540,86.0897 L 540,77.0276 L 549.062,67.9655 L 558.124,58.9034 L 567.186,58.9034 L 576.248,58.9034 L 576.248,49.8414 L 576.248,40.7793 L 585.31,31.7172 L 594.372,22.6552 L 603.434,22.6552 L 612.497,22.6552 L 621.559,13.5931 L 630.621,4.53103 L 639.683,4.53103 L 648.745,13.5931 L 657.807,22.6552 L 666.869,22.6552 L 675.931,22.6552 L 684.993,22.6552 L 694.055,13.5931 L 703.117,4.53103 L 712.179,4.53103 L 721.241,13.5931 L 730.303,22.6552 L 739.366,22.6552 L 748.428,22.6552 L 757.49,31.7172 L 766.552,40.7793 L 766.552,49.8414 L 766.552,58.9034 L 775.614,67.9655 L 775.614,77.0276 L 784.676,86.0897 L 784.676,95.1517 L 775.614,104.214 L 775.614,113.276 L 775.614,122.338 L 775.614,131.4 L 775.614,140.462 L 766.552,149.524 L 757.49,149.524 L 766.552,158.586 L 775.614,167.648 L 784.676,167.648 L 793.738,167.648 L 793.738,158.586 L 793.738,149.524 L 793.738,140.462 L 784.676,131.4 L 775.614,122.338 L 775.614,113.276 L 784.676,104.214 L 793.738,95.1517 L 793.738,86.0897 L 784.676,77.0276 L 775.614,67.9655 L 775.614,58.9034 L 784.676,49.8414 L 793.738,40.7793 L 802.8,31.7172 L 811.862,22.6552 L 820.924,22.6552 L 829.986,31.7172 L 839.048,40.7793 L 848.11,40.7793 L 857.172,31.7172 L 866.234,22.6552 L 875.297,22.6552 L 884.359,22.6552 L 893.421,13.5931 L 902.483,4.53103 L 911.545,4.53103 L 920.607,13.5931 L 929.669,22.6552 L 938.731,22.6552 L 947.793,22.6552 L 956.855,22.6552 L 965.917,13.5931 L 974.979,4.53103 L 984.041,4.53103 L 993.103,13.5931 z " style="fill-opacity:0.5;fill:rgb(253,0,0);stroke:rgb(253,0,0);stroke-width:2"/></g>
<g fill-rule="evenodd"><path d="M -3.72414,1318.53 L -3.72414,4.53103 L 1074.66,4.53103 L 1074.66,1318.53 L -3.72414,1318.53M 86.8966,1318.53 L 114.083,1300.41 L 168.455,1318.53 L 222.828,1282.28 L 259.076,1300.41 L 295.324,1264.16 L 277.2,1236.97 L 295.324,1209.79 L 277.2,1155.41 L 313.448,1173.54 L 295.324,1182.6 L 286.262,1227.91 L 304.386,1282.28 L 358.759,1318.53 L 385.945,1300.41 L 440.317,1318.53 L 530.938,1246.03 L 512.814,1218.85 L 530.938,1182.6 L 494.69,1164.48 L 530.938,1137.29 L 576.248,1155.41 L 576.248,1191.66 L 594.372,1209.79 L 576.248,1246.03 L 612.497,1300.41 L 648.745,1318.53 L 703.117,1300.41 L 730.303,1318.53 L 766.552,1300.41 L 820.924,1227.91 L 802.8,1164.48 L 766.552,1146.35 L 784.676,1110.1 L 811.862,1164.48 L 848.11,1128.23 L 866.234,1146.35 L 848.11,1182.6 L 866.234,1236.97 L 848.11,1264.16 L 884.359,1300.41 L 920.607,1318.53 L 974.979,1300.41 L 1002.17,1318.53 L 1074.66,1264.16 L 1056.54,1236.97 L 1074.66,1182.6 L 1056.54,1164.48 L 1056.54,1128.23 L 1020.29,1091.98 L 993.103,1110.1 L 965.917,1110.1 L 947.793,1091.98 L 902.483,1110.1 L 884.359,1091.98 L 938.731,1055.73 L 920.607,1019.48 L 884.359,1028.54 L 902.483,1010.42 L 938.731,1028.54 L 993.103,1010.42 L 1020.29,1028.54 L 1074.66,992.297 L 1056.54,965.11 L 1056.54,937.924 L 1074.66,919.8 L 1056.54,865.428 L 1074.66,838.241 L 1038.41,820.117 L 1038.41,801.993 L 1002.17,765.745 L 956.855,783.869 L 938.731,811.055 L 920.607,801.993 L 929.669,774.807 L 947.793,774.807 L 974.979,747.621 L 965.917,711.372 L 984.041,693.248 L 1020.29,729.497 L 1038.41,720.434 L 1038.41,593.566 L 1065.6,584.503 L 1056.54,557.317 L 1074.66,539.193 L 1056.54,512.007 L 1056.54,457.634 L 1020.29,403.262 L 956.855,385.138 L 938.731,403.262 L 884.359,403.262 L 866.234,475.759 L 829.986,448.572 L 820.924,466.697 L 802.8,430.448 L 839.048,412.324 L 857.172,330.766 L 829.986,303.579 L 712.179,303.579 L 648.745,240.145 L 657.807,222.021 L 721.241,222.021 L 748.428,194.834 L 739.366,167.648 L 757.49,185.772 L 739.366,231.083 L 775.614,267.331 L 793.738,267.331 L 811.862,303.579 L 839.048,303.579 L 857.172,285.455 L 884.359,285.455 L 902.483,303.579 L 956.855,285.455 L 984.041,303.579 L 1056.54,231.083 L 1038.41,203.897 L 1038.41,176.71 L 1056.54,158.586 L 1038.41,104.214 L 1056.54,77.0276 L 984.041,4.53103 L 956.855,22.6552 L 902.483,4.53103 L 848.11,40.7793 L 811.862,22.6552 L 775.614,58.9034 L 793.738,86.0897 L 775.614,113.276 L 793.738,167.648 L 757.49,149.524 L 775.614,140.462 L 784.676,95.1517 L 766.552,40.7793 L 712.179,4.53103 L 684.993,22.6552 L 630.621,4.53103 L 540,77.0276 L 558.124,104.214 L 540,140.462 L 576.248,158.586 L 540,185.772 L 494.69,167.648 L 494.69,131.4 L 476.566,113.276 L 494.69,77.0276 L 458.441,22.6552 L 422.193,4.53103 L 367.821,22.6552 L 340.634,4.53103 L 304.386,22.6552 L 250.014,95.1517 L 268.138,158.586 L 304.386,176.71 L 286.262,212.959 L 259.076,158.586 L 222.828,194.834 L 204.703,176.71 L 222.828,140.462 L 204.703,86.0897 L 222.828,58.9034 L 186.579,22.6552 L 150.331,4.53103 L 95.9586,22.6552 L 68.7724,4.53103 L -3.72414,58.9034 L 14.4,86.0897 L -3.72414,140.462 L 14.4,158.586 L 14.4,194.834 L 50.6483,231.083 L 77.8345,212.959 L 105.021,212.959 L 123.145,231.083 L 168.455,212.959 L 186.579,231.083 L 132.207,267.331 L 150.331,303.579 L 186.579,294.517 L 168.455,312.641 L 132.207,294.517 L 77.8345,312.641 L 50.6483,294.517 L -3.72414,330.766 L 14.4,357.952 L 14.4,385.138 L -3.72414,403.262 L 14.4,457.634 L -3.72414,484.821 L 32.5241,502.945 L 32.5241,521.069 L 68.7724,557.317 L 114.083,539.193 L 132.207,512.007 L 150.331,521.069 L 141.269,548.255 L 123.145,548.255 L 95.9586,575.441 L 105.021,611.69 L 86.8966,629.814 L 68.7724,602.628 L 32.5241,602.628 L 32.5241,729.497 L 5.33793,738.559 L 14.4,765.745 L -3.72414,783.869 L 14.4,811.055 L 14.4,865.428 L 50.6483,919.8 L 114.083,937.924 L 132.207,919.8 L 186.579,919.8 L 204.703,847.303 L 240.952,874.49 L 250.014,856.366 L 268.138,892.614 L 231.89,910.738 L 213.766,992.297 L 240.952,1019.48 L 358.759,1019.48 L 422.193,1082.92 L 413.131,1101.04 L 349.697,1101.04 L 322.51,1128.23 L 331.572,1155.41 L 313.448,1137.29 L 331.572,1091.98 L 295.324,1055.73 L 277.2,1055.73 L 259.076,1019.48 L 231.89,1019.48 L 213.766,1037.61 L 186.579,1037.61 L 168.455,1019.48 L 114.083,1037.61 L 86.8966,1019.48 L 14.4,1091.98 L 32.5241,1119.17 L 32.5241,1146.35 L 14.4,1164.48 L 32.5241,1218.85 L 14.4,1246.03 L 86.8966,1318.53 z " style="fill-opacity:0.5;fill:rgb(0,253,0);stroke:rgb(0,0,0);stroke-width:5"/></g>
<g fill-rule="evenodd"><path d="M 376.883,249.207 L 367.821,249.207 L 358.759,249.207 L 349.697,258.269 L 340.634,267.331 L 349.697,267.331 L 358.759,267.331 L 367.821,258.269 L 376.883,258.269 L 385.945,267.331 L 395.007,276.393 L 404.069,285.455 L 413.131,285.455 L 422.193,285.455 L 431.255,285.455 L 440.317,285.455 L 449.379,285.455 L 458.441,285.455 L 467.503,294.517 L 467.503,303.579 L 476.566,294.517 L 485.628,285.455 L 485.628,276.393 L 485.628,267.331 L 476.566,267.331 L 467.503,267.331 L 458.441,267.331 L 449.379,276.393 L 440.317,285.455 L 431.255,285.455 L 422.193,285.455 L 413.131,285.455 L 404.069,276.393 L 395.007,267.331 L 385.945,258.269 L 376.883,249.207 z " style="fill-opacity:0.5;fill:rgb(253,0,0);stroke:rgb(253,0,0);stroke-width:2"/></g>
<g fill-rule="evenodd"><path d="M 485.628,285.455 L 467.503,303.579 L 458.441,285.455 L 404.069,285.455 L 376.883,258.269 L 340.634,267.331 L 376.883,249.207 L 413.131,285.455 L 440.317,285.455 L 458.441,267.331 L 485.628,267.331 L 485.628,285.455 z " style="fill-opacity:0.5;fill:rgb(0,253,0);stroke:rgb(0,0,0);stroke-width:5"/></g>
<g fill-rule="evenodd"><path d="M 540,321.703 L 530.938,321.703 L 521.876,321.703 L 512.814,330.766 L 503.752,339.828 L 512.814,339.828 L 521.876,348.89 L 530.938,357.952 L 530.938,367.014 L 540,376.076 L 540,385.138 L 540,394.2 L 530.938,403.262 L 521.876,403.262 L 530.938,412.324 L 540,421.386 L 549.062,421.386 L 558.124,421.386 L 567.186,412.324 L 576.248,403.262 L 585.31,403.262 L 594.372,403.262 L 603.434,403.262 L 612.497,403.262 L 612.497,394.2 L 603.434,385.138 L 594.372,376.076 L 594.372,367.014 L 594.372,357.952 L 594.372,348.89 L 594.372,339.828 L 585.31,339.828 L 576.248,339.828 L 567.186,339.828 L 558.124,339.828 L 549.062,330.766 L 540,321.703 z " style="fill-opacity:0.5;fill:rgb(253,0,0);stroke:rgb(253,0,0);stroke-width:2"/></g>
<g fill-rule="evenodd"><path d="M 612.497,403.262 L 540,421.386 L 521.876,403.262 L 540,394.2 L 540,376.076 L 503.752,339.828 L 521.876,321.703 L 594.372,339.828 L 594.372,376.076 L 612.497,403.262 z " style="fill-opacity:0.5;fill:rgb(0,253,0);stroke:rgb(0,0,0);stroke-width:5"/></g>
<g fill-rule="evenodd"><path d="M 240.952,348.89 L 231.89,357.952 L 222.828,367.014 L 222.828,376.076 L 222.828,385.138 L 231.89,394.2 L 240.952,403.262 L 240.952,412.324 L 231.89,421.386 L 222.828,430.448 L 222.828,439.51 L 222.828,448.572 L 222.828,457.634 L 231.89,457.634 L 240.952,457.634 L 250.014,448.572 L 259.076,439.51 L 250.014,439.51 L 240.952,430.448 L 240.952,421.386 L 240.952,412.324 L 240.952,403.262 L 240.952,394.2 L 231.89,385.138 L 231.89,376.076 L 240.952,367.014 L 240.952,357.952 L 240.952,348.89 z " style="fill-opacity:0.5;fill:rgb(253,0,0);stroke:rgb(253,0,0);stroke-width:2"/></g>
<g fill-rule="evenodd"><path d="M 222.828,457.634 L 222.828,430.448 L 240.952,412.324 L 222.828,367.014 L 240.952,348.89 L 231.89,385.138 L 240.952,430.448 L 259.076,439.51 L 222.828,457.634 z " style="fill-opacity:0.5;fill:rgb(0,253,0);stroke:rgb(0,0,0);stroke-width:5"/></g>
<g fill-rule="evenodd"><path d="M 376.883,367.014 L 367.821,367.014 L 358.759,376.076 L 358.759,385.138 L 367.821,394.2 L 376.883,394.2 L 385.945,385.138 L 385.945,376.076 L 376.883,367.014 z " style="fill-opacity:0.5;fill:rgb(253,0,0);stroke:rgb(253,0,0);stroke-width:2"/></g>
<g fill-rule="evenodd"><path d="M 367.821,394.2 L 358.759,376.076 L 376.883,367.014 L 385.945,385.138 L 367.821,394.2 z " style="fill-opacity:0.5;fill:rgb(0,253,0);stroke:rgb(0,0,0);stroke-width:5"/></g>
<g fill-rule="evenodd"><path d="M 666.869,457.634 L 657.807,457.634 L 648.745,466.697 L 648.745,475.759 L 657.807,484.821 L 657.807,493.883 L 657.807,502.945 L 657.807,512.007 L 666.869,521.069 L 666.869,530.131 L 657.807,539.193 L 657.807,548.255 L 657.807,557.317 L 666.869,566.379 L 675.931,575.441 L 675.931,566.379 L 675.931,557.317 L 675.931,548.255 L 684.993,539.193 L 694.055,539.193 L 694.055,530.131 L 703.117,521.069 L 712.179,521.069 L 721.241,521.069 L 730.303,512.007 L 739.366,512.007 L 748.428,521.069 L 757.49,521.069 L 766.552,521.069 L 757.49,512.007 L 748.428,502.945 L 739.366,502.945 L 730.303,502.945 L 721.241,512.007 L 712.179,521.069 L 703.117,521.069 L 694.055,512.007 L 684.993,502.945 L 675.931,493.883 L 666.869,484.821 L 675.931,475.759 L 675.931,466.697 L 666.869,457.634 z " style="fill-opacity:0.5;fill:rgb(253,0,0);stroke:rgb(253,0,0);stroke-width:2"/></g>
<g fill-rule="evenodd"><path d="M 766.552,521.069 L 703.117,521.069 L 675.931,548.255 L 675.931,575.441 L 657.807,557.317 L 666.869,521.069 L 648.745,466.697 L 666.869,457.634 L 666.869,484.821 L 703.117,521.069 L 730.303,502.945 L 766.552,521.069 z " style="fill-opacity:0.5;fill:rgb(0,253,0);stroke:rgb(0,0,0);stroke-width:5"/></g>
<g fill-rule="evenodd"><path d="M 467.503,457.634 L 467.503,466.697 L 458.441,475.759 L 458.441,484.821 L 458.441,493.883 L 449.379,502.945 L 449.379,512.007 L 449.379,521.069 L 440.317,530.131 L 431.255,521.069 L 422.193,512.007 L 413.131,512.007 L 404.069,512.007 L 395.007,521.069 L 395.007,530.131 L 385.945,539.193 L 376.883,530.131 L 376.883,521.069 L 367.821,521.069 L 358.759,521.069 L 349.697,530.131 L 340.634,539.193 L 331.572,539.193 L 322.51,530.131 L 322.51,521.069 L 322.51,512.007 L 313.448,502.945 L 313.448,493.883 L 304.386,502.945 L 295.324,512.007 L 295.324,521.069 L 295.324,530.131 L 304.386,539.193 L 313.448,548.255 L 313.448,557.317 L 304.386,566.379 L 295.324,575.441 L 295.324,584.503 L 295.324,593.566 L 304.386,602.628 L 313.448,611.69 L 313.448,602.628 L 313.448,593.566 L 304.386,584.503 L 304.386,575.441 L 313.448,566.379 L 313.448,557.317 L 313.448,548.255 L 313.448,539.193 L 322.51,530.131 L 331.572,539.193 L 340.634,539.193 L 349.697,539.193 L 358.759,539.193 L 358.759,530.131 L 367.821,521.069 L 376.883,530.131 L 385.945,539.193 L 395.007,530.131 L 404.069,530.131 L 413.131,521.069 L 422.193,530.131 L 431.255,539.193 L 431.255,548.255 L 431.255,557.317 L 440.317,548.255 L 449.379,539.193 L 449.379,530.131 L 449.379,521.069 L 449.379,512.007 L 458.441,502.945 L 467.503,493.883 L 476.566,493.883 L 485.628,493.883 L 485.628,484.821 L 485.628,475.759 L 476.566,466.697 L 467.503,457.634 z " style="fill-opacity:0.5;fill:rgb(253,0,0);stroke:rgb(253,0,0);stroke-width:2"/></g>
<g fill-rule="evenodd"><path d="M 295.324,593.566 L 313.448,557.317 L 295.324,512.007 L 313.448,493.883 L 331.572,539.193 L 358.759,521.069 L 376.883,521.069 L 385.945,539.193 L 404.069,512.007 L 440.317,530.131 L 467.503,457.634 L 485.628,475.759 L 485.628,493.883 L 449.379,512.007 L 449.379,539.193 L 431.255,557.317 L 413.131,521.069 L 385.945,539.193 L 367.821,521.069 L 358.759,539.193 L 322.51,530.131 L 304.386,575.441 L 313.448,611.69 L 295.324,593.566 z " style="fill-opacity:0.5;fill:rgb(0,253,0);stroke:rgb(0,0,0);stroke-width:5"/></g>
<g fill-rule="evenodd"><path d="M 521.876,593.566 L 512.814,593.566 L 503.752,593.566 L 494.69,602.628 L 485.628,611.69 L 494.69,611.69 L 503.752,620.752 L 494.69,629.814 L 494.69,638.876 L 503.752,647.938 L 494.69,657 L 485.628,666.062 L 476.566,666.062 L 476.566,675.124 L 467.503,684.186 L 458.441,693.248 L 449.379,693.248 L 458.441,702.31 L 467.503,711.372 L 476.566,711.372 L 485.628,711.372 L 494.69,702.31 L 503.752,693.248 L 512.814,693.248 L 521.876,693.248 L 530.938,684.186 L 540,684.186 L 549.062,693.248 L 549.062,702.31 L 549.062,711.372 L 549.062,720.434 L 549.062,729.497 L 558.124,729.497 L 567.186,729.497 L 576.248,720.434 L 585.31,711.372 L 576.248,711.372 L 567.186,702.31 L 576.248,693.248 L 576.248,684.186 L 567.186,675.124 L 576.248,666.062 L 585.31,657 L 594.372,657 L 594.372,647.938 L 603.434,638.876 L 612.497,629.814 L 621.559,629.814 L 612.497,620.752 L 603.434,611.69 L 594.372,611.69 L 585.31,611.69 L 576.248,620.752 L 567.186,629.814 L 558.124,629.814 L 549.062,629.814 L 540,638.876 L 530.938,638.876 L 521.876,629.814 L 521.876,620.752 L 521.876,611.69 L 521.876,602.628 L 521.876,593.566 z " style="fill-opacity:0.5;fill:rgb(253,0,0);stroke:rgb(253,0,0);stroke-width:2"/></g>
<g fill-rule="evenodd"><path d="M 567.186,729.497 L 549.062,729.497 L 540,684.186 L 485.628,711.372 L 449.379,693.248 L 503.752,647.938 L 503.752,620.752 L 485.628,611.69 L 503.752,593.566 L 521.876,593.566 L 530.938,638.876 L 585.31,611.69 L 621.559,629.814 L 567.186,675.124 L 567.186,702.31 L 585.31,711.372 L 567.186,729.497 z " style="fill-opacity:0.5;fill:rgb(0,253,0);stroke:rgb(0,0,0);stroke-width:5"/></g>
<g fill-rule="evenodd"><path d="M 929.669,638.876 L 920.607,638.876 L 911.545,638.876 L 902.483,647.938 L 893.421,647.938 L 884.359,638.876 L 875.297,638.876 L 866.234,638.876 L 857.172,638.876 L 848.11,647.938 L 839.048,647.938 L 829.986,647.938 L 820.924,657 L 811.862,657 L 820.924,666.062 L 829.986,675.124 L 839.048,675.124 L 848.11,675.124 L 848.11,666.062 L 848.11,657 L 857.172,647.938 L 866.234,638.876 L 875.297,638.876 L 884.359,647.938 L 893.421,657 L 902.483,657 L 911.545,657 L 920.607,647.938 L 929.669,638.876 z " style="fill-opacity:0.5;fill:rgb(253,0,0);stroke:rgb(253,0,0);stroke-width:2"/></g>
<g fill-rule="evenodd"><path d="M 811.862,657 L 857.172,638.876 L 929.669,638.876 L 911.545,657 L 866.234,638.876 L 848.11,675.124 L 811.862,657 z " style="fill-opacity:0.5;fill:rgb(0,253,0);stroke:rgb(0,0,0);stroke-width:5"/></g>
<g fill-rule="evenodd"><path d="M 240.952,647.938 L 231.89,647.938 L 222.828,647.938 L 222.828,657 L 222.828,666.062 L 213.766,675.124 L 204.703,684.186 L 195.641,684.186 L 186.579,675.124 L 177.517,666.062 L 168.455,666.062 L 159.393,666.062 L 150.331,675.124 L 141.269,684.186 L 150.331,684.186 L 159.393,684.186 L 168.455,675.124 L 177.517,675.124 L 186.579,684.186 L 195.641,684.186 L 204.703,684.186 L 213.766,684.186 L 222.828,675.124 L 231.89,675.124 L 240.952,675.124 L 250.014,666.062 L 259.076,666.062 L 250.014,657 L 240.952,647.938 z " style="fill-opacity:0.5;fill:rgb(253,0,0);stroke:rgb(253,0,0);stroke-width:2"/></g>
<g fill-rule="evenodd"><path d="M 141.269,684.186 L 159.393,666.062 L 204.703,684.186 L 222.828,647.938 L 259.076,666.062 L 213.766,684.186 L 141.269,684.186 z " style="fill-opacity:0.5;fill:rgb(0,253,0);stroke:rgb(0,0,0);stroke-width:5"/></g>
<g fill-rule="evenodd"><path d="M 757.49,711.372 L 757.49,720.434 L 757.49,729.497 L 766.552,738.559 L 766.552,747.621 L 757.49,756.683 L 757.49,765.745 L 757.49,774.807 L 757.49,783.869 L 748.428,792.931 L 739.366,783.869 L 730.303,783.869 L 721.241,783.869 L 712.179,783.869 L 712.179,792.931 L 703.117,801.993 L 694.055,792.931 L 684.993,783.869 L 675.931,792.931 L 666.869,792.931 L 657.807,801.993 L 648.745,792.931 L 639.683,783.869 L 639.683,774.807 L 639.683,765.745 L 630.621,774.807 L 621.559,783.869 L 621.559,792.931 L 621.559,801.993 L 621.559,811.055 L 612.497,820.117 L 603.434,829.179 L 594.372,829.179 L 585.31,829.179 L 585.31,838.241 L 585.31,847.303 L 594.372,856.366 L 603.434,865.428 L 603.434,856.366 L 612.497,847.303 L 612.497,838.241 L 612.497,829.179 L 621.559,820.117 L 621.559,811.055 L 621.559,801.993 L 630.621,792.931 L 639.683,801.993 L 648.745,811.055 L 657.807,811.055 L 666.869,811.055 L 675.931,801.993 L 675.931,792.931 L 684.993,783.869 L 694.055,792.931 L 694.055,801.993 L 703.117,801.993 L 712.179,801.993 L 721.241,792.931 L 730.303,783.869 L 739.366,783.869 L 748.428,792.931 L 748.428,801.993 L 748.428,811.055 L 757.49,820.117 L 757.49,829.179 L 766.552,820.117 L 775.614,811.055 L 775.614,801.993 L 775.614,792.931 L 766.552,783.869 L 757.49,774.807 L 757.49,765.745 L 766.552,756.683 L 775.614,747.621 L 775.614,738.559 L 775.614,729.497 L 766.552,720.434 L 757.49,711.372 z " style="fill-opacity:0.5;fill:rgb(253,0,0);stroke:rgb(253,0,0);stroke-width:2"/></g>
<g fill-rule="evenodd"><path d="M 585.31,847.303 L 585.31,829.179 L 621.559,811.055 L 621.559,783.869 L 639.683,765.745 L 657.807,801.993 L 684.993,783.869 L 703.117,801.993 L 712.179,783.869 L 748.428,792.931 L 766.552,747.621 L 757.49,711.372 L 775.614,729.497 L 757.49,765.745 L 775.614,811.055 L 757.49,829.179 L 739.366,783.869 L 712.179,801.993 L 694.055,801.993 L 684.993,783.869 L 666.869,811.055 L 630.621,792.931 L 603.434,865.428 L 585.31,847.303 z " style="fill-opacity:0.5;fill:rgb(0,253,0);stroke:rgb(0,0,0);stroke-width:5"/></g>
<g fill-rule="evenodd"><path d="M 395.007,747.621 L 395.007,756.683 L 395.007,765.745 L 395.007,774.807 L 385.945,783.869 L 376.883,783.869 L 376.883,792.931 L 367.821,801.993 L 358.759,801.993 L 349.697,801.993 L 340.634,811.055 L 331.572,811.055 L 322.51,801.993 L 313.448,801.993 L 304.386,801.993 L 313.448,811.055 L 322.51,820.117 L 331.572,820.117 L 340.634,820.117 L 349.697,811.055 L 358.759,801.993 L 367.821,801.993 L 376.883,811.055 L 385.945,820.117 L 395.007,829.179 L 404.069,838.241 L 395.007,847.303 L 395.007,856.366 L 404.069,865.428 L 413.131,865.428 L 422.193,856.366 L 422.193,847.303 L 413.131,838.241 L 413.131,829.179 L 413.131,820.117 L 413.131,811.055 L 404.069,801.993 L 404.069,792.931 L 413.131,783.869 L 413.131,774.807 L 413.131,765.745 L 404.069,756.683 L 395.007,747.621 z " style="fill-opacity:0.5;fill:rgb(253,0,0);stroke:rgb(253,0,0);stroke-width:2"/></g>
<g fill-rule="evenodd"><path d="M 413.131,865.428 L 395.007,856.366 L 404.069,838.241 L 367.821,801.993 L 340.634,820.117 L 304.386,801.993 L 367.821,801.993 L 395.007,774.807 L 395.007,747.621 L 413.131,765.745 L 413.131,865.428 z " style="fill-opacity:0.5;fill:rgb(0,253,0);stroke:rgb(0,0,0);stroke-width:5"/></g>
<g fill-rule="evenodd"><path d="M 848.11,865.428 L 839.048,865.428 L 829.986,865.428 L 820.924,874.49 L 811.862,883.552 L 820.924,883.552 L 829.986,892.614 L 829.986,901.676 L 829.986,910.738 L 829.986,919.8 L 829.986,928.862 L 839.048,937.924 L 839.048,946.986 L 829.986,956.048 L 829.986,965.11 L 829.986,974.172 L 839.048,965.11 L 848.11,956.048 L 848.11,946.986 L 848.11,937.924 L 839.048,928.862 L 829.986,919.8 L 829.986,910.738 L 839.048,901.676 L 848.11,892.614 L 848.11,883.552 L 848.11,874.49 L 848.11,865.428 z " style="fill-opacity:0.5;fill:rgb(253,0,0);stroke:rgb(253,0,0);stroke-width:2"/></g>
<g fill-rule="evenodd"><path d="M 829.986,974.172 L 839.048,937.924 L 829.986,892.614 L 811.862,883.552 L 848.11,865.428 L 848.11,892.614 L 829.986,910.738 L 848.11,956.048 L 829.986,974.172 z " style="fill-opacity:0.5;fill:rgb(0,253,0);stroke:rgb(0,0,0);stroke-width:5"/></g>
<g fill-rule="evenodd"><path d="M 530.938,901.676 L 521.876,901.676 L 512.814,901.676 L 503.752,910.738 L 494.69,919.8 L 485.628,919.8 L 476.566,919.8 L 467.503,919.8 L 458.441,919.8 L 458.441,928.862 L 467.503,937.924 L 476.566,946.986 L 476.566,956.048 L 476.566,965.11 L 476.566,974.172 L 476.566,983.234 L 485.628,983.234 L 494.69,983.234 L 503.752,983.234 L 512.814,983.234 L 521.876,992.297 L 530.938,1001.36 L 540,1001.36 L 549.062,1001.36 L 558.124,992.297 L 567.186,983.234 L 558.124,983.234 L 549.062,974.172 L 540,965.11 L 540,956.048 L 530.938,946.986 L 530.938,937.924 L 530.938,928.862 L 540,919.8 L 549.062,919.8 L 540,910.738 L 530.938,901.676 z " style="fill-opacity:0.5;fill:rgb(253,0,0);stroke:rgb(253,0,0);stroke-width:2"/></g>
<g fill-rule="evenodd"><path d="M 549.062,1001.36 L 476.566,983.234 L 476.566,946.986 L 458.441,919.8 L 530.938,901.676 L 549.062,919.8 L 530.938,928.862 L 530.938,946.986 L 567.186,983.234 L 549.062,1001.36 z " style="fill-opacity:0.5;fill:rgb(0,253,0);stroke:rgb(0,0,0);stroke-width:5"/></g>
<g fill-rule="evenodd"><path d="M 703.117,928.862 L 694.055,928.862 L 684.993,937.924 L 684.993,946.986 L 694.055,956.048 L 703.117,956.048 L 712.179,946.986 L 712.179,937.924 L 703.117,928.862 z " style="fill-opacity:0.5;fill:rgb(253,0,0);stroke:rgb(253,0,0);stroke-width:2"/></g>
<g fill-rule="evenodd"><path d="M 694.055,956.048 L 684.993,937.924 L 703.117,928.862 L 712.179,946.986 L 694.055,956.048 z " style="fill-opacity:0.5;fill:rgb(0,253,0);stroke:rgb(0,0,0);stroke-width:5"/></g>
<g fill-rule="evenodd"><path d="M 603.434,1019.48 L 594.372,1028.54 L 585.31,1037.61 L 585.31,1046.67 L 585.31,1055.73 L 594.372,1055.73 L 603.434,1055.73 L 612.497,1055.73 L 621.559,1046.67 L 630.621,1037.61 L 639.683,1037.61 L 648.745,1037.61 L 657.807,1037.61 L 666.869,1046.67 L 675.931,1055.73 L 684.993,1064.79 L 694.055,1073.86 L 703.117,1073.86 L 712.179,1073.86 L 721.241,1064.79 L 730.303,1055.73 L 721.241,1055.73 L 712.179,1055.73 L 703.117,1064.79 L 694.055,1064.79 L 684.993,1055.73 L 675.931,1046.67 L 666.869,1037.61 L 657.807,1037.61 L 648.745,1037.61 L 639.683,1037.61 L 630.621,1037.61 L 621.559,1037.61 L 612.497,1037.61 L 603.434,1028.54 L 603.434,1019.48 z " style="fill-opacity:0.5;fill:rgb(253,0,0);stroke:rgb(253,0,0);stroke-width:2"/></g>
<g fill-rule="evenodd"><path d="M 730.303,1055.73 L 694.055,1073.86 L 657.807,1037.61 L 630.621,1037.61 L 612.497,1055.73 L 585.31,1055.73 L 585.31,1037.61 L 603.434,1019.48 L 612.497,1037.61 L 666.869,1037.61 L 694.055,1064.79 L 730.303,1055.73 z " style="fill-opacity:0.5;fill:rgb(0,253,0);stroke:rgb(0,0,0);stroke-width:5"/></g>
</svg>
