<?xml version="1.0" standalone="no"?>
<!DOCTYPE svg PUBLIC "-//W3C//DTD SVG 1.1//EN"
"http://www.w3.org/Graphics/SVG/1.1/DTD/svg11.dtd">
<svg width="100%" height="100%" version="1.1"
xmlns="http://www.w3.org/2000/svg"
xmlns:xlink="http://www.w3.org/1999/xlink">
<g fill-rule="evenodd"><path d="M 1219.47,4.6 L 1210.4,4.6 L 1201.33,4.6 L 1192.27,4.6 L 1183.2,4.6 L 1174.13,4.6 L 1165.07,4.6 L 1156,4.6 L 1146.93,4.6 L 1137.87,4.6 L 1128.8,4.6 L 1119.73,4.6 L 1110.67,4.6 L 1101.6,4.6 L 1092.53,4.6 L 1083.47,4.6 L 1074.4,4.6 L 1065.33,4.6 L 1056.27,4.6 L 1047.2,4.6 L 1038.13,4.6 L 1029.07,4.6 L 1020,4.6 L 1010.93,4.6 L 1001.87,4.6 L 992.8,4.6 L 983.733,4.6 L 974.667,4.6 L 965.6,4.6 L 956.533,4.6 L 947.467,4.6 L 938.4,4.6 L 929.333,4.6 L 920.267,4.6 L 911.2,4.6 L 902.133,4.6 L 893.067,4.6 L 884,4.6 L 874.933,4.6 L 865.867,4.6 L 856.8,4.6 L 847.733,4.6 L 838.667,4.6 L 829.6,4.6 L 820.533,4.6 L 811.467,4.6 L 802.4,4.6 L 793.333,4.6 L 784.267,4.6 L 775.2,4.6 L 766.133,4.6 L 757.067,4.6 L 748,4.6 L 738.933,4.6 L 729.867,4.6 L 720.8,4.6 L 711.733,4.6 L 702.667,4.6 L 693.6,4.6 L 684.533,4.6 L 675.467,4.6 L 666.4,4.6 L 657.333,4.6 L 648.267,4.6 L 639.2,4.6 L 630.133,4.6 L 621.067,4.6 L 612,4.6 L 602.933,4.6 L 593.867,4.6 L 584.8,4.6 L 575.733,4.6 L 566.667,4.6 L 557.6,4.6 L 548.533,4.6 L 539.467,4.6 L 530.4,4.6 L 521.333,4.6 L 512.267,4.6 L 503.2,4.6 L 494.133,4.6 L 485.067,4.6 L 476,4.6 L 466.933,4.6 L 457.867,4.6 L 448.8,4.6 L 439.733,4.6 L 430.667,4.6 L 421.6,4.6 L 412.533,4.6 L 403.467,4.6 L 394.4,4.6 L 385.333,4.6 L 376.267,4.6 L 367.2,4.6 L 358.133,4.6 L 349.067,4.6 L 340,4.6 L 330.933,4.6 L 321.867,4.6 L 312.8,4.6 L 303.733,4.6 L 294.667,4.6 L 285.6,4.6 L 276.533,4.6 L 267.467,4.6 L 258.4,4.6 L 249.333,4.6 L 240.267,4.6 L 231.2,4.6 L 222.133,4.6 L 213.067,4.6 L 204,4.6 L 194.933,4.6 L 185.867,4.6 L 176.8,4.6 L 167.733,4.6 L 158.667,4.6 L 149.6,4.6 L 140.533,4.6 L 131.467,4.6 L 122.4,4.6 L 113.333,4.6 L 104.267,4.6 L 95.2,4.6 L 86.1333,4.6 L 77.0667,4.6 L 68,4.6 L 58.9333,4.6 L 49.8667,4.6 L 40.8,4.6 L 31.7333,4.6 L 22.6667,4.6 L 13.6,4.6 L 4.53333,4.6 L -4.53333,4.6 L -4.53333,13.6667 L -4.53333,22.7333 L -4.53333,31.8 L -4.53333,40.8667 L -4.53333,49.9333 L -4.53333,59 L -4.53333,68.0667 L -4.53333,77.1333 L -4.53333,86.2 L -4.53333,95.2667 L -4.53333,104.333 L -4.53333,113.4 L -4.53333,122.467 L -4.53333,131.533 L -4.53333,140.6 L -4.53333,149.667 L -4.53333,158.733 L -4.53333,167.8 L -4.53333,176.867 L -4.53333,185.933 L -4.53333,195 L -4.53333,204.067 L -4.53333,213.133 L -4.53333,222.2 L -4.53333,231.267 L -4.53333,240.333 L -4.53333,249.4 L -4.53333,258.467 L -4.53333,267.533 L -4.53333,276.6 L -4.53333,285.667 L -4.53333,294.733 L -4.53333,303.8 L -4.53333,312.867 L -4.53333,321.933 L -4.53333,331 L -4.53333,340.067 L -4.53333,349.133 L -4.53333,358.2 L -4.53333,367.267 L -4.53333,376.333 L -4.53333,385.4 L -4.53333,394.467 L -4.53333,403.533 L -4.53333,412.6 L -4.53333,421.667 L -4.53333,430.733 L -4.53333,439.8 L -4.53333,448.867 L -4.53333,457.933 L -4.53333,467 L -4.53333,476.067 L -4.53333,485.133 L -4.53333,494.2 L -4.53333,503.267 L -4.53333,512.333 L -4.53333,521.4 L -4.53333,530.467 L -4.53333,539.533 L -4.53333,548.6 L -4.53333,557.667 L -4.53333,566.733 L -4.53333,575.8 L -4.53333,584.867 L -4.53333,593.933 L -4.53333,603 L -4.53333,612.067 L -4.53333,621.133 L -4.53333,630.2 L -4.53333,639.267 L -4.53333,648.333 L -4.53333,657.4 L -4.53333,666.467 L -4.53333,675.533 L -4.53333,684.6 L -4.53333,693.667 L -4.53333,702.733 L -4.53333,711.8 L -4.53333,720.867 L -4.53333,729.933 L -4.53333,739 L -4.53333,748.067 L -4.53333,757.133 L -4.53333,766.2 L -4.53333,775.267 L -4.53333,784.333 L -4.53333,793.4 L -4.53333,802.467 L -4.53333,811.533 L -4.53333,820.6 L -4.53333,829.667 L -4.53333,838.733 L -4.53333,847.8 L -4.53333,856.867 L -4.53333,865.933 L -4.53333,875 L -4.53333,884.067 L -4.53333,893.133 L -4.53333,902.2 L -4.53333,911.267 L -4.53333,920.333 L -4.53333,929.4 L -4.53333,938.467 L -4.53333,947.533 L -4.53333,956.6 L -4.53333,965.667 L -4.53333,974.733 L -4.53333,983.8 L -4.53333,992.867 L -4.53333,1001.93 L -4.53333,1011 L -4.53333,1020.07 L -4.53333,1029.13 L -4.53333,1038.2 L -4.53333,1047.27 L -4.53333,1056.33 L -4.53333,1065.4 L -4.53333,1074.47 L -4.53333,1083.53 L -4.53333,1092.6 L -4.53333,1101.67 L -4.53333,1110.73 L -4.53333,1119.8 L -4.53333,1128.87 L -4.53333,1137.93 L -4.53333,1147 L -4.53333,1156.07 L -4.53333,1165.13 L -4.53333,1174.2 L -4.53333,1183.27 L -4.53333,1192.33 L -4.53333,1201.4 L -4.53333,1210.47 L 4.53333,1210.47 L 13.6,1210.47 L 22.6667,1210.47 L 31.7333,1210.47 L 40.8,1210.47 L 49.8667,1210.47 L 58.9333,1210.47 L 68,1210.47 L 77.0667,1210.47 L 86.1333,1210.47 L 95.2,1210.47 L 104.267,1210.47 L 113.333,1210.47 L 122.4,1210.47 L 131.467,1210.47 L 140.533,1210.47 L 149.6,1210.47 L 158.667,1210.47 L 167.733,1210.47 L 176.8,1210.47 L 185.867,1210.47 L 194.933,1210.47 L 204,1210.47 L 213.067,1210.47 L 222.133,1210.47 L 231.2,1210.47 L 240.267,1210.47 L 249.333,1210.47 L 258.4,1210.47 L 267.467,1210.47 L 276.533,1210.47 L 285.6,1210.47 L 294.667,1210.47 L 303.733,1210.47 L 312.8,1210.47 L 321.867,1210.47 L 330.933,1210.47 L 340,1210.47 L 349.067,1210.47 L 358.133,1210.47 L 367.2,1210.47 L 376.267,1210.47 L 385.333,1210.47 L 394.4,1210.47 L 403.467,1210.47 L 412.533,1210.47 L 421.6,1210.47 L 430.667,1210.47 L 439.733,1210.47 L 448.8,1210.47 L 457.867,1210.47 L 466.933,1210.47 L 476,1210.47 L 485.067,1210.47 L 494.133,1210.47 L 503.2,1210.47 L 512.267,1210.47 L 521.333,1210.47 L 530.4,1210.47 L 539.467,1210.47 L 548.533,1210.47 L 557.6,1210.47 L 566.667,1210.47 L 575.733,1210.47 L 584.8,1210.47 L 593.867,1210.47 L 602.933,1210.47 L 612,1210.47 L 621.067,1210.47 L 630.133,1210.47 L 639.2,1210.47 L 648.267,1210.47 L 657.333,1210.47 L 666.4,1210.47 L 675.467,1210.47 L 684.533,1210.47 L 693.6,1210.47 L 702.667,1210.47 L 711.733,1210.47 L 720.8,1210.47 L 729.867,1210.47 L 738.933,1210.47 L 748,1210.47 L 757.067,1210.47 L 766.133,1210.47 L 775.2,1210.47 L 784.267,1210.47 L 793.333,1210.47 L 802.4,1210.47 L 811.467,1210.47 L 820.533,1210.47 L 829.6,1210.47 L 838.667,1210.47 L 847.733,1210.47 L 856.8,1210.47 L 865.867,1210.47 L 874.933,1210.47 L 884,1210.47 L 893.067,1210.47 L 902.133,1210.47 L 911.2,1210.47 L 920.267,1210.47 L 929.333,1210.47 L 938.4,1210.47 L 947.467,1210.47 L 956.533,1210.47 L 965.6,1210.47 L 974.667,1210.47 L 983.733,1210.47 L 992.8,1210.47 L 1001.87,1210.47 L 1010.93,1210.47 L 1020,1210.47 L 1029.07,1210.47 L 1038.13,1210.47 L 1047.2,1210.47 L 1056.27,1210.47 L 1065.33,1210.47 L 1074.4,1210.47 L 1083.47,1210.47 L 1092.53,1210.47 L 1101.6,1210.47 L 1110.67,1210.47 L 1119.73,1210.47 L 1128.8,1210.47 L 1137.87,1210.47 L 1146.93,1210.47 L 1156,1210.47 L 1165.07,1210.47 L 1174.13,1210.47 L 1183.2,1210.47 L 1192.27,1210.47 L 1201.33,1210.47 L 1210.4,1210.47 L 1219.47,1210.47 L 1219.47,1201.4 L 1219.47,1192.33 L 1219.47,1183.27 L 1219.47,1174.2 L 1219.47,1165.13 L 1219.47,1156.07 L 1219.47,1147 L 1219.47,1137.93 L 1219.47,1128.87 L 1219.47,1119.8 L 1219.47,1110.73 L 1219.47,1101.67 L 1219.47,1092.6 L 1219.47,1083.53 L 1219.47,1074.47 L 1219.47,1065.4 L 1219.47,1056.33 L 1219.47,1047.27 L 1219.47,1038.2 L 1219.47,1029.13 L 1219.47,1020.07 L 1219.47,1011 L 1219.47,1001.93 L 1219.47,992.867 L 1219.47,983.8 L 1219.47,974.733 L 1219.47,965.667 L 1219.47,956.6 L 1219.47,947.533 L 1219.47,938.467 L 1219.47,929.4 L 1219.47,920.333 L 1219.47,911.267 L 1219.47,902.2 L 1219.47,893.133 L 1219.47,884.067 L 1219.47,875 L 1219.47,865.933 L 1219.47,856.867 L 1219.47,847.8 L 1219.47,838.733 L 1219.47,829.667 L 1219.47,820.6 L 1219.47,811.533 L 1219.47,802.467 L 1219.47,793.4 L 1219.47,784.333 L 1219.47,775.267 L 1219.47,766.2 L 1219.47,757.133 L 1219.47,748.067 L 1219.47,739 L 1219.47,729.933 L 1219.47,720.867 L 1219.47,711.8 L 1219.47,702.733 L 1219.47,693.667 L 1219.47,684.6 L 1219.47,675.533 L 1219.47,666.467 L 1219.47,657.4 L 1219.47,648.333 L 1219.47,639.267 L 1219.47,630.2 L 1219.47,621.133 L 1219.47,612.067 L 1219.47,603 L 1219.47,593.933 L 1219.47,584.867 L 1219.47,575.8 L 1219.47,566.733 L 1219.47,557.667 L 1219.47,548.6 L 1219.47,539.533 L 1219.47,530.467 L 1219.47,521.4 L 1219.47,512.333 L 1219.47,503.267 L 1219.47,494.2 L 1219.47,485.133 L 1219.47,476.067 L 1219.47,467 L 1219.47,457.933 L 1219.47,448.867 L 1219.47,439.8 L 1219.47,430.733 L 1219.47,421.667 L 1219.47,412.6 L 1219.47,403.533 L 1219.47,394.467 L 1219.47,385.4 L 1219.47,376.333 L 1219.47,367.267 L 1219.47,358.2 L 1219.47,349.133 L 1219.47,340.067 L 1219.47,331 L 1219.47,321.933 L 1219.47,312.867 L 1219.47,303.8 L 1219.47,294.733 L 1219.47,285.667 L 1219.47,276.6 L 1219.47,267.533 L 1219.47,258.467 L 1219.47,249.4 L 1219.47,240.333 L 1219.47,231.267 L 1219.47,222.2 L 1219.47,213.133 L 1219.47,204.067 L 1219.47,195 L 1219.47,185.933 L 1219.47,176.867 L 1219.47,167.8 L 1219.47,158.733 L 1219.47,149.667 L 1219.47,140.6 L 1219.47,131.533 L 1219.47,122.467 L 1219.47,113.4 L 1219.47,104.333 L 1219.47,95.2667 L 1219.47,86.2 L 1219.47,77.1333 L 1219.47,68.0667 L 1219.47,59 L 1219.47,49.9333 L 1219.47,40.8667 L 1219.47,31.8 L 1219.47,22.7333 L 1219.47,13.6667 L 1219.47,4.6M 965.6,13.6667 L 974.667,22.7333 L 983.733,22.7333 L 992.8,31.8 L 1001.87,31.8 L 1010.93,40.8667 L 1020,49.9333 L 1029.07,59 L 1038.13,68.0667 L 1047.2,77.1333 L 1047.2,86.2 L 1056.27,95.2667 L 1056.27,104.333 L 1056.27,113.4 L 1065.33,122.467 L 1074.4,122.467 L 1083.47,122.467 L 1092.53,122.467 L 1101.6,122.467 L 1110.67,122.467 L 1119.73,122.467 L 1128.8,122.467 L 1137.87,122.467 L 1146.93,122.467 L 1156,122.467 L 1165.07,131.533 L 1174.13,131.533 L 1183.2,140.6 L 1192.27,149.667 L 1201.33,158.733 L 1201.33,167.8 L 1210.4,176.867 L 1219.47,185.933 L 1219.47,195 L 1210.4,204.067 L 1210.4,213.133 L 1210.4,222.2 L 1210.4,231.267 L 1201.33,240.333 L 1201.33,249.4 L 1201.33,258.467 L 1192.27,267.533 L 1183.2,276.6 L 1183.2,285.667 L 1183.2,294.733 L 1174.13,303.8 L 1165.07,303.8 L 1156,312.867 L 1146.93,321.933 L 1137.87,331 L 1128.8,340.067 L 1119.73,349.133 L 1110.67,358.2 L 1101.6,358.2 L 1092.53,358.2 L 1083.47,367.267 L 1074.4,376.333 L 1074.4,385.4 L 1074.4,394.467 L 1065.33,403.533 L 1065.33,412.6 L 1074.4,421.667 L 1083.47,421.667 L 1092.53,412.6 L 1092.53,403.533 L 1101.6,394.467 L 1110.67,385.4 L 1119.73,376.333 L 1128.8,376.333 L 1137.87,376.333 L 1146.93,376.333 L 1156,385.4 L 1165.07,394.467 L 1174.13,394.467 L 1183.2,394.467 L 1192.27,403.533 L 1201.33,412.6 L 1201.33,421.667 L 1201.33,430.733 L 1210.4,439.8 L 1219.47,448.867 L 1219.47,457.933 L 1219.47,467 L 1219.47,476.067 L 1219.47,485.133 L 1219.47,494.2 L 1219.47,503.267 L 1219.47,512.333 L 1219.47,521.4 L 1219.47,530.467 L 1210.4,539.533 L 1201.33,548.6 L 1201.33,557.667 L 1201.33,566.733 L 1192.27,575.8 L 1183.2,584.867 L 1174.13,584.867 L 1165.07,584.867 L 1156,593.933 L 1146.93,603 L 1137.87,603 L 1128.8,603 L 1119.73,603 L 1110.67,603 L 1101.6,603 L 1092.53,603 L 1083.47,612.067 L 1074.4,621.133 L 1065.33,621.133 L 1056.27,621.133 L 1056.27,630.2 L 1056.27,639.267 L 1047.2,648.333 L 1038.13,657.4 L 1038.13,666.467 L 1038.13,675.533 L 1038.13,684.6 L 1047.2,693.667 L 1047.2,702.733 L 1056.27,711.8 L 1065.33,711.8 L 1074.4,702.733 L 1074.4,693.667 L 1065.33,684.6 L 1074.4,675.533 L 1083.47,666.467 L 1092.53,666.467 L 1101.6,666.467 L 1110.67,666.467 L 1119.73,666.467 L 1128.8,666.467 L 1137.87,666.467 L 1146.93,666.467 L 1156,675.533 L 1165.07,684.6 L 1174.13,693.667 L 1183.2,702.733 L 1183.2,711.8 L 1183.2,720.867 L 1192.27,729.933 L 1201.33,739 L 1201.33,748.067 L 1201.33,757.133 L 1210.4,766.2 L 1219.47,775.267 L 1219.47,784.333 L 1219.47,793.4 L 1219.47,802.467 L 1219.47,811.533 L 1219.47,820.6 L 1210.4,829.667 L 1201.33,838.733 L 1201.33,847.8 L 1201.33,856.867 L 1192.27,865.933 L 1183.2,875 L 1174.13,884.067 L 1165.07,893.133 L 1156,902.2 L 1146.93,902.2 L 1137.87,902.2 L 1128.8,902.2 L 1119.73,902.2 L 1110.67,902.2 L 1101.6,911.267 L 1092.53,920.333 L 1083.47,920.333 L 1074.4,911.267 L 1074.4,902.2 L 1074.4,893.133 L 1074.4,884.067 L 1065.33,893.133 L 1056.27,902.2 L 1056.27,911.267 L 1056.27,920.333 L 1065.33,920.333 L 1074.4,920.333 L 1083.47,920.333 L 1092.53,920.333 L 1101.6,920.333 L 1110.67,911.267 L 1119.73,902.2 L 1128.8,902.2 L 1137.87,902.2 L 1146.93,902.2 L 1156,911.267 L 1165.07,920.333 L 1174.13,929.4 L 1183.2,938.467 L 1183.2,947.533 L 1183.2,956.6 L 1192.27,965.667 L 1201.33,974.733 L 1201.33,983.8 L 1192.27,992.867 L 1183.2,1001.93 L 1183.2,1011 L 1192.27,1020.07 L 1201.33,1029.13 L 1201.33,1038.2 L 1192.27,1047.27 L 1183.2,1056.33 L 1183.2,1065.4 L 1183.2,1074.47 L 1183.2,1083.53 L 1183.2,1092.6 L 1174.13,1101.67 L 1165.07,1110.73 L 1165.07,1119.8 L 1165.07,1128.87 L 1156,1137.93 L 1146.93,1147 L 1137.87,1156.07 L 1128.8,1165.13 L 1119.73,1165.13 L 1110.67,1165.13 L 1101.6,1165.13 L 1092.53,1165.13 L 1083.47,1174.2 L 1074.4,1183.27 L 1065.33,1183.27 L 1056.27,1183.27 L 1047.2,1183.27 L 1038.13,1174.2 L 1029.07,1165.13 L 1020,1165.13 L 1010.93,1165.13 L 1001.87,1165.13 L 992.8,1174.2 L 983.733,1183.27 L 974.667,1183.27 L 965.6,1174.2 L 956.533,1165.13 L 947.467,1165.13 L 938.4,1165.13 L 929.333,1156.07 L 920.267,1147 L 911.2,1137.93 L 902.133,1128.87 L 893.067,1119.8 L 884,1110.73 L 884,1101.67 L 884,1092.6 L 874.933,1083.53 L 865.867,1074.47 L 865.867,1065.4 L 865.867,1056.33 L 865.867,1047.27 L 874.933,1038.2 L 884,1029.13 L 884,1020.07 L 884,1011 L 893.067,1001.93 L 902.133,992.867 L 902.133,983.8 L 902.133,974.733 L 902.133,965.667 L 902.133,956.6 L 911.2,947.533 L 920.267,938.467 L 929.333,938.467 L 938.4,938.467 L 947.467,929.4 L 956.533,920.333 L 956.533,911.267 L 956.533,902.2 L 965.6,893.133 L 974.667,884.067 L 983.733,875 L 992.8,865.933 L 1001.87,865.933 L 1010.93,875 L 1020,884.067 L 1029.07,884.067 L 1038.13,884.067 L 1047.2,875 L 1056.27,865.933 L 1047.2,865.933 L 1038.13,865.933 L 1029.07,865.933 L 1020,865.933 L 1010.93,865.933 L 1001.87,865.933 L 992.8,856.867 L 983.733,847.8 L 974.667,838.733 L 974.667,829.667 L 974.667,820.6 L 974.667,811.533 L 983.733,802.467 L 992.8,793.4 L 992.8,784.333 L 983.733,784.333 L 974.667,784.333 L 965.6,784.333 L 956.533,784.333 L 947.467,793.4 L 938.4,802.467 L 938.4,811.533 L 938.4,820.6 L 947.467,829.667 L 938.4,838.733 L 938.4,847.8 L 938.4,856.867 L 947.467,865.933 L 938.4,875 L 938.4,884.067 L 938.4,893.133 L 947.467,902.2 L 938.4,911.267 L 929.333,920.333 L 920.267,929.4 L 911.2,929.4 L 902.133,938.467 L 893.067,938.467 L 884,947.533 L 874.933,947.533 L 865.867,956.6 L 856.8,956.6 L 847.733,956.6 L 838.667,965.667 L 829.6,956.6 L 820.533,956.6 L 811.467,947.533 L 802.4,947.533 L 793.333,947.533 L 784.267,956.6 L 775.2,965.667 L 775.2,974.733 L 775.2,983.8 L 784.267,992.867 L 793.333,992.867 L 802.4,1001.93 L 811.467,1011 L 811.467,1020.07 L 811.467,1029.13 L 802.4,1038.2 L 802.4,1047.27 L 802.4,1056.33 L 802.4,1065.4 L 802.4,1074.47 L 811.467,1083.53 L 811.467,1092.6 L 811.467,1101.67 L 811.467,1110.73 L 802.4,1119.8 L 802.4,1128.87 L 802.4,1137.93 L 802.4,1147 L 802.4,1156.07 L 793.333,1165.13 L 784.267,1174.2 L 775.2,1183.27 L 766.133,1183.27 L 757.067,1183.27 L 748,1192.33 L 738.933,1192.33 L 729.867,1192.33 L 720.8,1192.33 L 711.733,1192.33 L 702.667,1192.33 L 693.6,1192.33 L 684.533,1192.33 L 675.467,1183.27 L 666.4,1183.27 L 657.333,1183.27 L 648.267,1183.27 L 639.2,1174.2 L 630.133,1165.13 L 630.133,1156.07 L 621.067,1147 L 612,1137.93 L 602.933,1128.87 L 593.867,1128.87 L 584.8,1137.93 L 575.733,1137.93 L 566.667,1137.93 L 557.6,1137.93 L 548.533,1128.87 L 539.467,1119.8 L 539.467,1110.73 L 530.4,1101.67 L 521.333,1092.6 L 512.267,1092.6 L 503.2,1092.6 L 494.133,1092.6 L 494.133,1101.67 L 494.133,1110.73 L 485.067,1119.8 L 476,1128.87 L 466.933,1128.87 L 457.867,1128.87 L 448.8,1137.93 L 439.733,1137.93 L 430.667,1128.87 L 421.6,1128.87 L 412.533,1128.87 L 403.467,1137.93 L 394.4,1147 L 385.333,1156.07 L 376.267,1165.13 L 367.2,1165.13 L 358.133,1174.2 L 349.067,1183.27 L 340,1192.33 L 330.933,1201.4 L 321.867,1201.4 L 312.8,1201.4 L 303.733,1201.4 L 294.667,1201.4 L 285.6,1201.4 L 276.533,1210.47 L 267.467,1210.47 L 258.4,1201.4 L 249.333,1201.4 L 240.267,1192.33 L 231.2,1192.33 L 222.133,1183.27 L 213.067,1183.27 L 204,1174.2 L 194.933,1165.13 L 185.867,1156.07 L 176.8,1147 L 167.733,1137.93 L 167.733,1128.87 L 158.667,1119.8 L 158.667,1110.73 L 158.667,1101.67 L 149.6,1092.6 L 140.533,1092.6 L 131.467,1092.6 L 122.4,1092.6 L 113.333,1092.6 L 104.267,1092.6 L 95.2,1092.6 L 86.1333,1092.6 L 77.0667,1092.6 L 68,1092.6 L 58.9333,1092.6 L 49.8667,1083.53 L 40.8,1083.53 L 31.7333,1074.47 L 22.6667,1065.4 L 13.6,1056.33 L 13.6,1047.27 L 4.53333,1038.2 L -4.53333,1029.13 L -4.53333,1020.07 L 4.53333,1011 L 4.53333,1001.93 L 4.53333,992.867 L 4.53333,983.8 L 13.6,974.733 L 13.6,965.667 L 13.6,956.6 L 22.6667,947.533 L 31.7333,938.467 L 31.7333,929.4 L 31.7333,920.333 L 40.8,911.267 L 49.8667,911.267 L 58.9333,902.2 L 68,893.133 L 77.0667,884.067 L 86.1333,875 L 95.2,865.933 L 104.267,856.867 L 113.333,856.867 L 122.4,856.867 L 131.467,847.8 L 140.533,838.733 L 140.533,829.667 L 140.533,820.6 L 149.6,811.533 L 149.6,802.467 L 140.533,793.4 L 131.467,793.4 L 122.4,802.467 L 122.4,811.533 L 113.333,820.6 L 104.267,829.667 L 95.2,838.733 L 86.1333,838.733 L 77.0667,838.733 L 68,838.733 L 58.9333,829.667 L 49.8667,820.6 L 40.8,820.6 L 31.7333,820.6 L 22.6667,811.533 L 13.6,802.467 L 13.6,793.4 L 13.6,784.333 L 4.53333,775.267 L -4.53333,766.2 L -4.53333,757.133 L -4.53333,748.067 L -4.53333,739 L -4.53333,729.933 L -4.53333,720.867 L -4.53333,711.8 L -4.53333,702.733 L -4.53333,693.667 L -4.53333,684.6 L 4.53333,675.533 L 13.6,666.467 L 13.6,657.4 L 13.6,648.333 L 22.6667,639.267 L 31.7333,630.2 L 40.8,630.2 L 49.8667,630.2 L 58.9333,621.133 L 68,612.067 L 77.0667,612.067 L 86.1333,612.067 L 95.2,612.067 L 104.267,612.067 L 113.333,612.067 L 122.4,612.067 L 131.467,603 L 140.533,593.933 L 149.6,593.933 L 158.667,593.933 L 158.667,584.867 L 158.667,575.8 L 167.733,566.733 L 176.8,557.667 L 176.8,548.6 L 176.8,539.533 L 176.8,530.467 L 167.733,521.4 L 167.733,512.333 L 158.667,503.267 L 149.6,503.267 L 140.533,512.333 L 140.533,521.4 L 149.6,530.467 L 140.533,539.533 L 131.467,548.6 L 122.4,548.6 L 113.333,548.6 L 104.267,548.6 L 95.2,548.6 L 86.1333,548.6 L 77.0667,548.6 L 68,548.6 L 58.9333,539.533 L 49.8667,530.467 L 40.8,521.4 L 31.7333,512.333 L 31.7333,503.267 L 31.7333,494.2 L 22.6667,485.133 L 13.6,476.067 L 13.6,467 L 13.6,457.933 L 4.53333,448.867 L -4.53333,439.8 L -4.53333,430.733 L -4.53333,421.667 L -4.53333,412.6 L -4.53333,403.533 L -4.53333,394.467 L 4.53333,385.4 L 13.6,376.333 L 13.6,367.267 L 13.6,358.2 L 22.6667,349.133 L 31.7333,340.067 L 40.8,331 L 49.8667,321.933 L 58.9333,312.867 L 68,312.867 L 77.0667,312.867 L 86.1333,312.867 L 95.2,312.867 L 104.267,312.867 L 113.333,303.8 L 122.4,294.733 L 131.467,294.733 L 140.533,303.8 L 140.533,312.867 L 140.533,321.933 L 140.533,331 L 149.6,321.933 L 158.667,312.867 L 158.667,303.8 L 158.667,294.733 L 149.6,294.733 L 140.533,294.733 L 131.467,294.733 L 122.4,294.733 L 113.333,294.733 L 104.267,303.8 L 95.2,312.867 L 86.1333,312.867 L 77.0667,312.867 L 68,312.867 L 58.9333,303.8 L 49.8667,294.733 L 40.8,285.667 L 31.7333,276.6 L 31.7333,267.533 L 31.7333,258.467 L 22.6667,249.4 L 13.6,240.333 L 13.6,231.267 L 22.6667,222.2 L 31.7333,213.133 L 31.7333,204.067 L 22.6667,195 L 13.6,185.933 L 13.6,176.867 L 22.6667,167.8 L 31.7333,158.733 L 31.7333,149.667 L 31.7333,140.6 L 31.7333,131.533 L 31.7333,122.467 L 40.8,113.4 L 49.8667,104.333 L 49.8667,95.2667 L 49.8667,86.2 L 58.9333,77.1333 L 68,68.0667 L 77.0667,59 L 86.1333,49.9333 L 95.2,49.9333 L 104.267,49.9333 L 113.333,49.9333 L 122.4,49.9333 L 131.467,40.8667 L 140.533,31.8 L 149.6,31.8 L 158.667,31.8 L 167.733,31.8 L 176.8,40.8667 L 185.867,49.9333 L 194.933,49.9333 L 204,49.9333 L 213.067,49.9333 L 222.133,40.8667 L 231.2,31.8 L 240.267,31.8 L 249.333,40.8667 L 258.4,49.9333 L 267.467,49.9333 L 276.533,49.9333 L 285.6,59 L 294.667,68.0667 L 303.733,77.1333 L 312.8,86.2 L 321.867,95.2667 L 330.933,104.333 L 330.933,113.4 L 330.933,122.467 L 340,131.533 L 349.067,140.6 L 349.067,149.667 L 349.067,158.733 L 349.067,167.8 L 340,176.867 L 330.933,185.933 L 330.933,195 L 330.933,204.067 L 321.867,213.133 L 312.8,222.2 L 312.8,231.267 L 312.8,240.333 L 312.8,249.4 L 312.8,258.467 L 303.733,267.533 L 294.667,276.6 L 285.6,276.6 L 276.533,276.6 L 267.467,285.667 L 258.4,294.733 L 258.4,303.8 L 258.4,312.867 L 249.333,321.933 L 240.267,331 L 231.2,340.067 L 222.133,349.133 L 213.067,349.133 L 204,340.067 L 194.933,331 L 185.867,331 L 176.8,331 L 167.733,340.067 L 158.667,349.133 L 167.733,349.133 L 176.8,349.133 L 185.867,349.133 L 194.933,349.133 L 204,349.133 L 213.067,349.133 L 222.133,358.2 L 231.2,367.267 L 240.267,376.333 L 240.267,385.4 L 240.267,394.467 L 240.267,403.533 L 231.2,412.6 L 222.133,421.667 L 222.133,430.733 L 231.2,430.733 L 240.267,430.733 L 249.333,430.733 L 258.4,430.733 L 267.467,421.667 L 276.533,412.6 L 276.533,403.533 L 276.533,394.467 L 267.467,385.4 L 276.533,376.333 L 276.533,367.267 L 276.533,358.2 L 267.467,349.133 L 276.533,340.067 L 276.533,331 L 276.533,321.933 L 267.467,312.867 L 276.533,303.8 L 285.6,294.733 L 294.667,285.667 L 303.733,285.667 L 312.8,276.6 L 321.867,276.6 L 330.933,267.533 L 340,267.533 L 349.067,258.467 L 358.133,258.467 L 367.2,258.467 L 376.267,249.4 L 385.333,258.467 L 394.4,258.467 L 403.467,267.533 L 412.533,267.533 L 421.6,267.533 L 430.667,258.467 L 439.733,249.4 L 439.733,240.333 L 439.733,231.267 L 430.667,222.2 L 421.6,222.2 L 412.533,213.133 L 403.467,204.067 L 403.467,195 L 403.467,185.933 L 412.533,176.867 L 412.533,167.8 L 412.533,158.733 L 412.533,149.667 L 412.533,140.6 L 403.467,131.533 L 403.467,122.467 L 403.467,113.4 L 403.467,104.333 L 412.533,95.2667 L 412.533,86.2 L 412.533,77.1333 L 412.533,68.0667 L 412.533,59 L 421.6,49.9333 L 430.667,40.8667 L 439.733,31.8 L 448.8,31.8 L 457.867,31.8 L 466.933,22.7333 L 476,22.7333 L 485.067,22.7333 L 494.133,22.7333 L 503.2,22.7333 L 512.267,22.7333 L 521.333,22.7333 L 530.4,22.7333 L 539.467,31.8 L 548.533,31.8 L 557.6,31.8 L 566.667,31.8 L 575.733,40.8667 L 584.8,49.9333 L 584.8,59 L 593.867,68.0667 L 602.933,77.1333 L 612,86.2 L 621.067,86.2 L 630.133,77.1333 L 639.2,77.1333 L 648.267,77.1333 L 657.333,77.1333 L 666.4,86.2 L 675.467,95.2667 L 675.467,104.333 L 684.533,113.4 L 693.6,122.467 L 702.667,122.467 L 711.733,122.467 L 720.8,122.467 L 720.8,113.4 L 720.8,104.333 L 729.867,95.2667 L 738.933,86.2 L 748,86.2 L 757.067,86.2 L 766.133,77.1333 L 775.2,77.1333 L 784.267,86.2 L 793.333,86.2 L 802.4,86.2 L 811.467,77.1333 L 820.533,68.0667 L 829.6,59 L 838.667,49.9333 L 847.733,49.9333 L 856.8,40.8667 L 865.867,31.8 L 874.933,22.7333 L 884,13.6667 L 893.067,13.6667 L 902.133,13.6667 L 911.2,13.6667 L 920.267,13.6667 L 929.333,13.6667 L 938.4,4.6 L 947.467,4.6 L 956.533,13.6667 L 965.6,13.6667 z " style="fill-opacity:0.5;fill:rgb(253,0,0);stroke:rgb(253,0,0);stroke-width:2"/></g>
<g fill-rule="evenodd"><path d="M -4.53333,1210.47 L -4.53333,4.6 L 1219.47,4.6 L 1219.47,1210.47 L -4.53333,1210.47M 40.8,1083.53 L 149.6,1092.6 L 167.733,1137.93 L 213.067,1183.27 L 267.467,1210.47 L 330.933,1201.4 L 412.533,1128.87 L 476,1128.87 L 494.133,1092.6 L 521.333,1092.6 L 557.6,1137.93 L 602.933,1128.87 L 648.267,1183.27 L 748,1192.33 L 802.4,1156.07 L 811.467,1110.73 L 811.467,1011 L 775.2,983.8 L 775.2,965.667 L 793.333,947.533 L 838.667,965.667 L 920.267,929.4 L 947.467,902.2 L 938.4,802.467 L 956.533,784.333 L 992.8,784.333 L 974.667,838.733 L 1001.87,865.933 L 1056.27,865.933 L 1038.13,884.067 L 992.8,865.933 L 956.533,902.2 L 956.533,920.333 L 902.133,956.6 L 902.133,992.867 L 865.867,1047.27 L 865.867,1074.47 L 884,1110.73 L 974.667,1183.27 L 1001.87,1165.13 L 1029.07,1165.13 L 1047.2,1183.27 L 1128.8,1165.13 L 1183.2,1092.6 L 1183.2,1056.33 L 1201.33,1038.2 L 1183.2,1001.93 L 1201.33,974.733 L 1146.93,902.2 L 1119.73,902.2 L 1101.6,920.333 L 1056.27,920.333 L 1056.27,902.2 L 1074.4,884.067 L 1083.47,920.333 L 1110.67,902.2 L 1156,902.2 L 1201.33,856.867 L 1219.47,820.6 L 1219.47,775.267 L 1183.2,702.733 L 1146.93,666.467 L 1083.47,666.467 L 1065.33,684.6 L 1074.4,702.733 L 1056.27,711.8 L 1038.13,657.4 L 1056.27,621.133 L 1183.2,584.867 L 1219.47,530.467 L 1219.47,448.867 L 1183.2,394.467 L 1119.73,376.333 L 1083.47,421.667 L 1065.33,412.6 L 1074.4,376.333 L 1183.2,294.733 L 1219.47,195 L 1201.33,158.733 L 1156,122.467 L 1065.33,122.467 L 1047.2,77.1333 L 1010.93,40.8667 L 947.467,4.6 L 884,13.6667 L 802.4,86.2 L 738.933,86.2 L 720.8,122.467 L 693.6,122.467 L 657.333,77.1333 L 612,86.2 L 566.667,31.8 L 466.933,22.7333 L 412.533,59 L 403.467,104.333 L 403.467,204.067 L 439.733,231.267 L 439.733,249.4 L 421.6,267.533 L 376.267,249.4 L 294.667,285.667 L 267.467,312.867 L 276.533,412.6 L 258.4,430.733 L 222.133,430.733 L 240.267,376.333 L 213.067,349.133 L 158.667,349.133 L 176.8,331 L 222.133,349.133 L 258.4,312.867 L 258.4,294.733 L 312.8,258.467 L 312.8,222.2 L 349.067,167.8 L 349.067,140.6 L 330.933,104.333 L 240.267,31.8 L 213.067,49.9333 L 185.867,49.9333 L 167.733,31.8 L 86.1333,49.9333 L 31.7333,122.467 L 31.7333,158.733 L 13.6,176.867 L 31.7333,213.133 L 13.6,240.333 L 68,312.867 L 95.2,312.867 L 113.333,294.733 L 158.667,294.733 L 158.667,312.867 L 140.533,331 L 131.467,294.733 L 104.267,312.867 L 58.9333,312.867 L 13.6,358.2 L -4.53333,394.467 L -4.53333,439.8 L 31.7333,512.333 L 68,548.6 L 131.467,548.6 L 149.6,530.467 L 140.533,512.333 L 158.667,503.267 L 176.8,557.667 L 158.667,593.933 L 122.4,612.067 L 68,612.067 L 31.7333,630.2 L -4.53333,684.6 L -4.53333,766.2 L 31.7333,820.6 L 95.2,838.733 L 131.467,793.4 L 149.6,802.467 L 140.533,838.733 L 40.8,911.267 L 13.6,956.6 L -4.53333,1029.13 L 40.8,1083.53 z " style="fill-opacity:0.5;fill:rgb(0,253,0);stroke:rgb(0,0,0);stroke-width:5"/></g>
<g fill-rule="evenodd"><path d="M 893.067,122.467 L 884,122.467 L 874.933,122.467 L 865.867,131.533 L 856.8,140.6 L 856.8,149.667 L 856.8,158.733 L 847.733,167.8 L 847.733,176.867 L 856.8,185.933 L 865.867,185.933 L 874.933,176.867 L 874.933,167.8 L 884,158.733 L 893.067,149.667 L 902.133,140.6 L 911.2,140.6 L 920.267,149.667 L 929.333,158.733 L 938.4,158.733 L 947.467,158.733 L 956.533,167.8 L 965.6,176.867 L 974.667,185.933 L 983.733,195 L 992.8,204.067 L 1001.87,213.133 L 1001.87,222.2 L 1001.87,231.267 L 1010.93,240.333 L 1020,249.4 L 1020,258.467 L 1010.93,267.533 L 1001.87,276.6 L 1001.87,285.667 L 1001.87,294.733 L 1001.87,303.8 L 1001.87,312.867 L 1001.87,321.933 L 1010.93,321.933 L 1020,321.933 L 1029.07,312.867 L 1038.13,303.8 L 1047.2,294.733 L 1047.2,285.667 L 1047.2,276.6 L 1047.2,267.533 L 1047.2,258.467 L 1038.13,249.4 L 1038.13,240.333 L 1029.07,240.333 L 1020,240.333 L 1010.93,231.267 L 1001.87,222.2 L 1001.87,213.133 L 1001.87,204.067 L 1001.87,195 L 1001.87,185.933 L 992.8,176.867 L 983.733,167.8 L 974.667,158.733 L 965.6,158.733 L 956.533,158.733 L 947.467,149.667 L 947.467,140.6 L 938.4,140.6 L 929.333,140.6 L 920.267,140.6 L 911.2,140.6 L 902.133,140.6 L 893.067,131.533 L 893.067,122.467 z " style="fill-opacity:0.5;fill:rgb(253,0,0);stroke:rgb(253,0,0);stroke-width:2"/></g>
<g fill-rule="evenodd"><path d="M 1020,321.933 L 1001.87,321.933 L 1001.87,276.6 L 1020,249.4 L 947.467,158.733 L 902.133,140.6 L 865.867,185.933 L 847.733,176.867 L 874.933,122.467 L 893.067,122.467 L 902.133,140.6 L 947.467,140.6 L 1001.87,185.933 L 1001.87,222.2 L 1047.2,258.467 L 1047.2,294.733 L 1020,321.933 z " style="fill-opacity:0.5;fill:rgb(0,253,0);stroke:rgb(0,0,0);stroke-width:5"/></g>
<g fill-rule="evenodd"><path d="M 584.8,195 L 575.733,195 L 566.667,195 L 557.6,195 L 548.533,204.067 L 548.533,213.133 L 557.6,222.2 L 566.667,222.2 L 575.733,213.133 L 584.8,204.067 L 584.8,195 z " style="fill-opacity:0.5;fill:rgb(253,0,0);stroke:rgb(253,0,0);stroke-width:2"/></g>
<g fill-rule="evenodd"><path d="M 548.533,213.133 L 557.6,195 L 584.8,195 L 566.667,222.2 L 548.533,213.133 z " style="fill-opacity:0.5;fill:rgb(0,253,0);stroke:rgb(0,0,0);stroke-width:5"/></g>
<g fill-rule="evenodd"><path d="M 720.8,204.067 L 711.733,204.067 L 702.667,204.067 L 693.6,204.067 L 684.533,204.067 L 675.467,213.133 L 666.4,222.2 L 657.333,231.267 L 657.333,240.333 L 657.333,249.4 L 648.267,258.467 L 639.2,267.533 L 639.2,276.6 L 639.2,285.667 L 639.2,294.733 L 630.133,303.8 L 639.2,312.867 L 648.267,321.933 L 657.333,321.933 L 666.4,321.933 L 675.467,331 L 684.533,331 L 693.6,321.933 L 693.6,312.867 L 684.533,303.8 L 693.6,294.733 L 702.667,285.667 L 711.733,285.667 L 720.8,285.667 L 729.867,285.667 L 738.933,285.667 L 738.933,276.6 L 738.933,267.533 L 738.933,258.467 L 738.933,249.4 L 738.933,240.333 L 729.867,231.267 L 720.8,222.2 L 720.8,213.133 L 720.8,204.067 z " style="fill-opacity:0.5;fill:rgb(253,0,0);stroke:rgb(253,0,0);stroke-width:2"/></g>
<g fill-rule="evenodd"><path d="M 648.267,321.933 L 630.133,303.8 L 657.333,231.267 L 684.533,204.067 L 720.8,204.067 L 738.933,240.333 L 738.933,285.667 L 702.667,285.667 L 684.533,303.8 L 684.533,331 L 648.267,321.933 z " style="fill-opacity:0.5;fill:rgb(0,253,0);stroke:rgb(0,0,0);stroke-width:5"/></g>
<g fill-rule="evenodd"><path d="M 494.133,294.733 L 485.067,294.733 L 476,294.733 L 466.933,303.8 L 476,312.867 L 485.067,321.933 L 494.133,321.933 L 503.2,312.867 L 503.2,303.8 L 494.133,294.733 z " style="fill-opacity:0.5;fill:rgb(253,0,0);stroke:rgb(253,0,0);stroke-width:2"/></g>
<g fill-rule="evenodd"><path d="M 485.067,321.933 L 466.933,303.8 L 476,294.733 L 503.2,303.8 L 485.067,321.933 z " style="fill-opacity:0.5;fill:rgb(0,253,0);stroke:rgb(0,0,0);stroke-width:5"/></g>
<g fill-rule="evenodd"><path d="M 847.733,349.133 L 838.667,349.133 L 829.6,349.133 L 820.533,349.133 L 811.467,349.133 L 802.4,349.133 L 802.4,358.2 L 802.4,367.267 L 793.333,376.333 L 784.267,385.4 L 784.267,394.467 L 784.267,403.533 L 793.333,412.6 L 802.4,421.667 L 811.467,421.667 L 820.533,421.667 L 829.6,421.667 L 838.667,421.667 L 847.733,421.667 L 856.8,421.667 L 865.867,421.667 L 874.933,412.6 L 884,403.533 L 884,394.467 L 893.067,385.4 L 902.133,385.4 L 911.2,376.333 L 911.2,367.267 L 902.133,358.2 L 893.067,358.2 L 884,367.267 L 874.933,367.267 L 865.867,367.267 L 856.8,358.2 L 847.733,349.133 z " style="fill-opacity:0.5;fill:rgb(253,0,0);stroke:rgb(253,0,0);stroke-width:2"/></g>
<g fill-rule="evenodd"><path d="M 802.4,421.667 L 784.267,403.533 L 802.4,349.133 L 911.2,367.267 L 865.867,421.667 L 802.4,421.667 z " style="fill-opacity:0.5;fill:rgb(0,253,0);stroke:rgb(0,0,0);stroke-width:5"/></g>
<g fill-rule="evenodd"><path d="M 602.933,349.133 L 593.867,349.133 L 584.8,349.133 L 575.733,349.133 L 566.667,358.2 L 566.667,367.267 L 557.6,376.333 L 548.533,376.333 L 539.467,376.333 L 530.4,376.333 L 521.333,385.4 L 512.267,385.4 L 503.2,385.4 L 494.133,394.467 L 494.133,403.533 L 494.133,412.6 L 494.133,421.667 L 494.133,430.733 L 503.2,439.8 L 503.2,448.867 L 503.2,457.933 L 503.2,467 L 503.2,476.067 L 512.267,485.133 L 512.267,494.2 L 512.267,503.267 L 503.2,512.333 L 503.2,521.4 L 503.2,530.467 L 512.267,539.533 L 521.333,548.6 L 530.4,557.667 L 539.467,557.667 L 548.533,557.667 L 557.6,557.667 L 566.667,557.667 L 575.733,557.667 L 584.8,557.667 L 593.867,566.733 L 584.8,575.8 L 593.867,584.867 L 602.933,593.933 L 612,593.933 L 602.933,584.867 L 593.867,575.8 L 602.933,566.733 L 612,557.667 L 621.067,566.733 L 630.133,566.733 L 639.2,566.733 L 648.267,566.733 L 657.333,566.733 L 666.4,557.667 L 675.467,557.667 L 684.533,548.6 L 684.533,539.533 L 684.533,530.467 L 684.533,521.4 L 675.467,512.333 L 666.4,512.333 L 657.333,512.333 L 648.267,512.333 L 639.2,521.4 L 639.2,530.467 L 639.2,539.533 L 630.133,548.6 L 621.067,548.6 L 612,548.6 L 602.933,539.533 L 602.933,530.467 L 593.867,521.4 L 584.8,521.4 L 575.733,530.467 L 566.667,521.4 L 557.6,512.333 L 548.533,503.267 L 539.467,494.2 L 530.4,485.133 L 521.333,476.067 L 521.333,467 L 530.4,457.933 L 539.467,448.867 L 548.533,439.8 L 557.6,430.733 L 566.667,421.667 L 575.733,412.6 L 575.733,403.533 L 584.8,394.467 L 593.867,394.467 L 602.933,394.467 L 612,385.4 L 612,376.333 L 612,367.267 L 612,358.2 L 602.933,349.133 z " style="fill-opacity:0.5;fill:rgb(253,0,0);stroke:rgb(253,0,0);stroke-width:2"/></g>
<g fill-rule="evenodd"><path d="M 612,593.933 L 584.8,575.8 L 584.8,557.667 L 530.4,557.667 L 503.2,530.467 L 512.267,485.133 L 494.133,394.467 L 557.6,376.333 L 575.733,349.133 L 602.933,349.133 L 612,385.4 L 584.8,394.467 L 521.333,476.067 L 575.733,530.467 L 593.867,521.4 L 612,548.6 L 630.133,548.6 L 648.267,512.333 L 684.533,521.4 L 675.467,557.667 L 612,557.667 L 593.867,575.8 L 612,593.933 z " style="fill-opacity:0.5;fill:rgb(0,253,0);stroke:rgb(0,0,0);stroke-width:5"/></g>
<g fill-rule="evenodd"><path d="M 748,439.8 L 738.933,439.8 L 729.867,439.8 L 720.8,448.867 L 711.733,457.933 L 702.667,467 L 693.6,476.067 L 693.6,485.133 L 693.6,494.2 L 702.667,503.267 L 711.733,512.333 L 720.8,521.4 L 729.867,521.4 L 738.933,521.4 L 748,512.333 L 757.067,503.267 L 757.067,494.2 L 766.133,485.133 L 766.133,476.067 L 766.133,467 L 766.133,457.933 L 757.067,448.867 L 748,439.8 z " style="fill-opacity:0.5;fill:rgb(253,0,0);stroke:rgb(253,0,0);stroke-width:2"/></g>
<g fill-rule="evenodd"><path d="M 720.8,521.4 L 693.6,494.2 L 693.6,476.067 L 729.867,439.8 L 748,439.8 L 766.133,457.933 L 766.133,485.133 L 738.933,521.4 L 720.8,521.4 z " style="fill-opacity:0.5;fill:rgb(0,253,0);stroke:rgb(0,0,0);stroke-width:5"/></g>
<g fill-rule="evenodd"><path d="M 430.667,439.8 L 421.6,439.8 L 412.533,439.8 L 412.533,448.867 L 412.533,457.933 L 421.6,457.933 L 430.667,457.933 L 430.667,448.867 L 430.667,439.8 z " style="fill-opacity:0.5;fill:rgb(253,0,0);stroke:rgb(253,0,0);stroke-width:2"/></g>
<g fill-rule="evenodd"><path d="M 412.533,457.933 L 412.533,439.8 L 430.667,439.8 L 430.667,457.933 L 412.533,457.933 z " style="fill-opacity:0.5;fill:rgb(0,253,0);stroke:rgb(0,0,0);stroke-width:5"/></g>
<g fill-rule="evenodd"><path d="M 321.867,457.933 L 312.8,457.933 L 303.733,457.933 L 294.667,457.933 L 294.667,467 L 294.667,476.067 L 294.667,485.133 L 303.733,485.133 L 312.8,494.2 L 312.8,503.267 L 312.8,512.333 L 312.8,521.4 L 321.867,530.467 L 330.933,539.533 L 330.933,548.6 L 330.933,557.667 L 321.867,566.733 L 321.867,575.8 L 330.933,584.867 L 330.933,593.933 L 330.933,603 L 340,612.067 L 349.067,621.133 L 358.133,621.133 L 367.2,621.133 L 376.267,621.133 L 385.333,612.067 L 385.333,603 L 385.333,593.933 L 385.333,584.867 L 376.267,575.8 L 367.2,566.733 L 358.133,557.667 L 349.067,548.6 L 349.067,539.533 L 349.067,530.467 L 349.067,521.4 L 349.067,512.333 L 349.067,503.267 L 349.067,494.2 L 349.067,485.133 L 358.133,476.067 L 358.133,467 L 349.067,467 L 340,467 L 330.933,467 L 321.867,457.933 z " style="fill-opacity:0.5;fill:rgb(253,0,0);stroke:rgb(253,0,0);stroke-width:2"/></g>
<g fill-rule="evenodd"><path d="M 376.267,621.133 L 349.067,621.133 L 330.933,603 L 330.933,539.533 L 312.8,521.4 L 312.8,494.2 L 294.667,485.133 L 294.667,457.933 L 358.133,467 L 349.067,548.6 L 385.333,584.867 L 376.267,621.133 z " style="fill-opacity:0.5;fill:rgb(0,253,0);stroke:rgb(0,0,0);stroke-width:5"/></g>
<g fill-rule="evenodd"><path d="M 992.8,476.067 L 983.733,476.067 L 974.667,476.067 L 965.6,476.067 L 956.533,476.067 L 947.467,485.133 L 938.4,494.2 L 938.4,503.267 L 938.4,512.333 L 929.333,521.4 L 920.267,530.467 L 920.267,539.533 L 929.333,548.6 L 938.4,557.667 L 947.467,557.667 L 956.533,557.667 L 965.6,557.667 L 974.667,557.667 L 974.667,548.6 L 974.667,539.533 L 983.733,530.467 L 992.8,521.4 L 992.8,512.333 L 992.8,503.267 L 992.8,494.2 L 992.8,485.133 L 992.8,476.067 z " style="fill-opacity:0.5;fill:rgb(253,0,0);stroke:rgb(253,0,0);stroke-width:2"/></g>
<g fill-rule="evenodd"><path d="M 938.4,557.667 L 920.267,539.533 L 938.4,494.2 L 956.533,476.067 L 992.8,476.067 L 992.8,521.4 L 974.667,557.667 L 938.4,557.667 z " style="fill-opacity:0.5;fill:rgb(0,253,0);stroke:rgb(0,0,0);stroke-width:5"/></g>
<g fill-rule="evenodd"><path d="M 865.867,593.933 L 856.8,593.933 L 847.733,593.933 L 838.667,593.933 L 829.6,603 L 829.6,612.067 L 829.6,621.133 L 829.6,630.2 L 838.667,639.267 L 847.733,648.333 L 856.8,657.4 L 865.867,666.467 L 865.867,675.533 L 865.867,684.6 L 865.867,693.667 L 865.867,702.733 L 865.867,711.8 L 865.867,720.867 L 865.867,729.933 L 856.8,739 L 856.8,748.067 L 865.867,748.067 L 874.933,748.067 L 884,748.067 L 893.067,757.133 L 902.133,757.133 L 911.2,757.133 L 920.267,757.133 L 920.267,748.067 L 920.267,739 L 920.267,729.933 L 911.2,729.933 L 902.133,720.867 L 902.133,711.8 L 902.133,702.733 L 902.133,693.667 L 893.067,684.6 L 884,675.533 L 884,666.467 L 884,657.4 L 893.067,648.333 L 893.067,639.267 L 884,630.2 L 884,621.133 L 884,612.067 L 874.933,603 L 865.867,593.933 z " style="fill-opacity:0.5;fill:rgb(253,0,0);stroke:rgb(253,0,0);stroke-width:2"/></g>
<g fill-rule="evenodd"><path d="M 920.267,757.133 L 856.8,748.067 L 865.867,666.467 L 829.6,630.2 L 838.667,593.933 L 865.867,593.933 L 884,612.067 L 884,675.533 L 902.133,693.667 L 902.133,720.867 L 920.267,729.933 L 920.267,757.133 z " style="fill-opacity:0.5;fill:rgb(0,253,0);stroke:rgb(0,0,0);stroke-width:5"/></g>
<g fill-rule="evenodd"><path d="M 612,621.133 L 602.933,621.133 L 612,630.2 L 621.067,639.267 L 612,648.333 L 602.933,657.4 L 593.867,648.333 L 584.8,648.333 L 575.733,648.333 L 566.667,648.333 L 557.6,648.333 L 548.533,657.4 L 539.467,657.4 L 530.4,666.467 L 530.4,675.533 L 530.4,684.6 L 530.4,693.667 L 539.467,702.733 L 548.533,702.733 L 557.6,702.733 L 566.667,702.733 L 575.733,693.667 L 575.733,684.6 L 575.733,675.533 L 584.8,666.467 L 593.867,666.467 L 602.933,666.467 L 612,675.533 L 612,684.6 L 621.067,693.667 L 630.133,693.667 L 639.2,684.6 L 648.267,693.667 L 657.333,702.733 L 666.4,711.8 L 675.467,720.867 L 684.533,729.933 L 693.6,739 L 693.6,748.067 L 684.533,757.133 L 675.467,766.2 L 666.4,775.267 L 657.333,784.333 L 648.267,793.4 L 639.2,802.467 L 639.2,811.533 L 630.133,820.6 L 621.067,820.6 L 612,820.6 L 602.933,829.667 L 602.933,838.733 L 602.933,847.8 L 602.933,856.867 L 612,865.933 L 621.067,865.933 L 630.133,865.933 L 639.2,865.933 L 648.267,856.867 L 648.267,847.8 L 657.333,838.733 L 666.4,838.733 L 675.467,838.733 L 684.533,838.733 L 693.6,829.667 L 702.667,829.667 L 711.733,829.667 L 720.8,820.6 L 720.8,811.533 L 720.8,802.467 L 720.8,793.4 L 720.8,784.333 L 711.733,775.267 L 711.733,766.2 L 711.733,757.133 L 711.733,748.067 L 711.733,739 L 702.667,729.933 L 702.667,720.867 L 702.667,711.8 L 711.733,702.733 L 711.733,693.667 L 711.733,684.6 L 702.667,675.533 L 693.6,666.467 L 684.533,657.4 L 675.467,657.4 L 666.4,657.4 L 657.333,657.4 L 648.267,657.4 L 639.2,657.4 L 630.133,657.4 L 621.067,648.333 L 630.133,639.267 L 621.067,630.2 L 612,621.133 z " style="fill-opacity:0.5;fill:rgb(253,0,0);stroke:rgb(253,0,0);stroke-width:2"/></g>
<g fill-rule="evenodd"><path d="M 639.2,865.933 L 612,865.933 L 602.933,829.667 L 630.133,820.6 L 693.6,739 L 639.2,684.6 L 621.067,693.667 L 602.933,666.467 L 584.8,666.467 L 566.667,702.733 L 530.4,693.667 L 539.467,657.4 L 602.933,657.4 L 621.067,639.267 L 602.933,621.133 L 630.133,639.267 L 630.133,657.4 L 684.533,657.4 L 711.733,684.6 L 702.667,729.933 L 720.8,820.6 L 657.333,838.733 L 639.2,865.933 z " style="fill-opacity:0.5;fill:rgb(0,253,0);stroke:rgb(0,0,0);stroke-width:5"/></g>
<g fill-rule="evenodd"><path d="M 276.533,657.4 L 267.467,657.4 L 258.4,657.4 L 249.333,657.4 L 240.267,657.4 L 240.267,666.467 L 240.267,675.533 L 231.2,684.6 L 222.133,693.667 L 222.133,702.733 L 222.133,711.8 L 222.133,720.867 L 222.133,729.933 L 222.133,739 L 231.2,739 L 240.267,739 L 249.333,739 L 258.4,739 L 267.467,729.933 L 276.533,720.867 L 276.533,711.8 L 276.533,702.733 L 285.6,693.667 L 294.667,684.6 L 294.667,675.533 L 285.6,666.467 L 276.533,657.4 z " style="fill-opacity:0.5;fill:rgb(253,0,0);stroke:rgb(253,0,0);stroke-width:2"/></g>
<g fill-rule="evenodd"><path d="M 222.133,739 L 222.133,693.667 L 240.267,657.4 L 276.533,657.4 L 294.667,675.533 L 276.533,720.867 L 258.4,739 L 222.133,739 z " style="fill-opacity:0.5;fill:rgb(0,253,0);stroke:rgb(0,0,0);stroke-width:5"/></g>
<g fill-rule="evenodd"><path d="M 612,666.467 L 602.933,657.4 L 612,648.333 L 621.067,657.4 L 612,666.467 z " style="fill-opacity:0.5;fill:rgb(253,0,0);stroke:rgb(253,0,0);stroke-width:2"/></g>
<g fill-rule="evenodd"><path d=" z " style="fill-opacity:0.5;fill:rgb(0,253,0);stroke:rgb(0,0,0);stroke-width:5"/></g>
<g fill-rule="evenodd"><path d="M 494.133,693.667 L 485.067,693.667 L 476,693.667 L 466.933,702.733 L 457.867,711.8 L 457.867,720.867 L 448.8,729.933 L 448.8,739 L 448.8,748.067 L 448.8,757.133 L 457.867,766.2 L 466.933,775.267 L 476,775.267 L 485.067,775.267 L 494.133,766.2 L 503.2,757.133 L 512.267,748.067 L 521.333,739 L 521.333,729.933 L 521.333,720.867 L 512.267,711.8 L 503.2,702.733 L 494.133,693.667 z " style="fill-opacity:0.5;fill:rgb(253,0,0);stroke:rgb(253,0,0);stroke-width:2"/></g>
<g fill-rule="evenodd"><path d="M 466.933,775.267 L 448.8,757.133 L 448.8,729.933 L 476,693.667 L 494.133,693.667 L 521.333,720.867 L 521.333,739 L 485.067,775.267 L 466.933,775.267 z " style="fill-opacity:0.5;fill:rgb(0,253,0);stroke:rgb(0,0,0);stroke-width:5"/></g>
<g fill-rule="evenodd"><path d="M 802.4,757.133 L 793.333,757.133 L 784.267,757.133 L 784.267,766.2 L 784.267,775.267 L 793.333,775.267 L 802.4,775.267 L 802.4,766.2 L 802.4,757.133 z " style="fill-opacity:0.5;fill:rgb(253,0,0);stroke:rgb(253,0,0);stroke-width:2"/></g>
<g fill-rule="evenodd"><path d="M 784.267,775.267 L 784.267,757.133 L 802.4,757.133 L 802.4,775.267 L 784.267,775.267 z " style="fill-opacity:0.5;fill:rgb(0,253,0);stroke:rgb(0,0,0);stroke-width:5"/></g>
<g fill-rule="evenodd"><path d="M 412.533,793.4 L 403.467,793.4 L 394.4,793.4 L 385.333,793.4 L 376.267,793.4 L 367.2,793.4 L 358.133,793.4 L 349.067,793.4 L 340,802.467 L 330.933,811.533 L 330.933,820.6 L 321.867,829.667 L 312.8,829.667 L 303.733,838.733 L 303.733,847.8 L 312.8,856.867 L 321.867,856.867 L 330.933,847.8 L 340,847.8 L 349.067,847.8 L 358.133,856.867 L 367.2,865.933 L 376.267,865.933 L 385.333,865.933 L 394.4,865.933 L 403.467,865.933 L 412.533,865.933 L 412.533,856.867 L 412.533,847.8 L 421.6,838.733 L 430.667,829.667 L 430.667,820.6 L 430.667,811.533 L 421.6,802.467 L 412.533,793.4 z " style="fill-opacity:0.5;fill:rgb(253,0,0);stroke:rgb(253,0,0);stroke-width:2"/></g>
<g fill-rule="evenodd"><path d="M 303.733,847.8 L 349.067,793.4 L 412.533,793.4 L 430.667,811.533 L 412.533,865.933 L 303.733,847.8 z " style="fill-opacity:0.5;fill:rgb(0,253,0);stroke:rgb(0,0,0);stroke-width:5"/></g>
<g fill-rule="evenodd"><path d="M 539.467,884.067 L 530.4,884.067 L 521.333,893.133 L 521.333,902.2 L 530.4,911.267 L 521.333,920.333 L 512.267,929.4 L 503.2,929.4 L 494.133,929.4 L 485.067,929.4 L 476,929.4 L 476,938.467 L 476,947.533 L 476,956.6 L 476,965.667 L 476,974.733 L 485.067,983.8 L 494.133,992.867 L 494.133,1001.93 L 494.133,1011 L 503.2,1011 L 512.267,1011 L 521.333,1011 L 530.4,1011 L 539.467,1001.93 L 548.533,992.867 L 557.6,983.8 L 557.6,974.733 L 557.6,965.667 L 566.667,956.6 L 575.733,947.533 L 575.733,938.467 L 575.733,929.4 L 575.733,920.333 L 584.8,911.267 L 575.733,902.2 L 566.667,893.133 L 557.6,893.133 L 548.533,893.133 L 539.467,884.067 z " style="fill-opacity:0.5;fill:rgb(253,0,0);stroke:rgb(253,0,0);stroke-width:2"/></g>
<g fill-rule="evenodd"><path d="M 494.133,1011 L 476,974.733 L 476,929.4 L 512.267,929.4 L 530.4,911.267 L 530.4,884.067 L 566.667,893.133 L 584.8,911.267 L 557.6,983.8 L 530.4,1011 L 494.133,1011 z " style="fill-opacity:0.5;fill:rgb(0,253,0);stroke:rgb(0,0,0);stroke-width:5"/></g>
<g fill-rule="evenodd"><path d="M 729.867,893.133 L 720.8,893.133 L 711.733,902.2 L 711.733,911.267 L 720.8,920.333 L 729.867,920.333 L 738.933,920.333 L 748,911.267 L 738.933,902.2 L 729.867,893.133 z " style="fill-opacity:0.5;fill:rgb(253,0,0);stroke:rgb(253,0,0);stroke-width:2"/></g>
<g fill-rule="evenodd"><path d="M 738.933,920.333 L 720.8,920.333 L 711.733,902.2 L 729.867,893.133 L 748,911.267 L 738.933,920.333 z " style="fill-opacity:0.5;fill:rgb(0,253,0);stroke:rgb(0,0,0);stroke-width:5"/></g>
<g fill-rule="evenodd"><path d="M 213.067,893.133 L 204,893.133 L 194.933,893.133 L 185.867,902.2 L 176.8,911.267 L 167.733,920.333 L 167.733,929.4 L 167.733,938.467 L 167.733,947.533 L 167.733,956.6 L 176.8,965.667 L 176.8,974.733 L 185.867,974.733 L 194.933,974.733 L 204,983.8 L 213.067,992.867 L 213.067,1001.93 L 213.067,1011 L 213.067,1020.07 L 213.067,1029.13 L 222.133,1038.2 L 231.2,1047.27 L 240.267,1056.33 L 249.333,1056.33 L 258.4,1056.33 L 267.467,1065.4 L 267.467,1074.47 L 276.533,1074.47 L 285.6,1074.47 L 294.667,1074.47 L 303.733,1074.47 L 312.8,1074.47 L 321.867,1083.53 L 321.867,1092.6 L 330.933,1092.6 L 340,1092.6 L 349.067,1083.53 L 358.133,1074.47 L 358.133,1065.4 L 358.133,1056.33 L 367.2,1047.27 L 367.2,1038.2 L 358.133,1029.13 L 349.067,1029.13 L 340,1038.2 L 340,1047.27 L 330.933,1056.33 L 321.867,1065.4 L 312.8,1074.47 L 303.733,1074.47 L 294.667,1065.4 L 285.6,1056.33 L 276.533,1056.33 L 267.467,1056.33 L 258.4,1047.27 L 249.333,1038.2 L 240.267,1029.13 L 231.2,1020.07 L 222.133,1011 L 213.067,1001.93 L 213.067,992.867 L 213.067,983.8 L 204,974.733 L 194.933,965.667 L 194.933,956.6 L 204,947.533 L 213.067,938.467 L 213.067,929.4 L 213.067,920.333 L 213.067,911.267 L 213.067,902.2 L 213.067,893.133 z " style="fill-opacity:0.5;fill:rgb(253,0,0);stroke:rgb(253,0,0);stroke-width:2"/></g>
<g fill-rule="evenodd"><path d="M 340,1092.6 L 321.867,1092.6 L 312.8,1074.47 L 267.467,1074.47 L 213.067,1029.13 L 213.067,992.867 L 167.733,956.6 L 167.733,920.333 L 194.933,893.133 L 213.067,893.133 L 213.067,938.467 L 194.933,965.667 L 267.467,1056.33 L 312.8,1074.47 L 349.067,1029.13 L 367.2,1038.2 L 340,1092.6 z " style="fill-opacity:0.5;fill:rgb(0,253,0);stroke:rgb(0,0,0);stroke-width:5"/></g>
<g fill-rule="evenodd"><path d="M 657.333,992.867 L 648.267,992.867 L 639.2,1001.93 L 630.133,1011 L 630.133,1020.07 L 639.2,1020.07 L 648.267,1020.07 L 657.333,1020.07 L 666.4,1011 L 666.4,1001.93 L 657.333,992.867 z " style="fill-opacity:0.5;fill:rgb(253,0,0);stroke:rgb(253,0,0);stroke-width:2"/></g>
<g fill-rule="evenodd"><path d="M 630.133,1020.07 L 648.267,992.867 L 666.4,1001.93 L 657.333,1020.07 L 630.133,1020.07 z " style="fill-opacity:0.5;fill:rgb(0,253,0);stroke:rgb(0,0,0);stroke-width:5"/></g>
</svg>
