<?xml version="1.0" standalone="no"?>
<!DOCTYPE svg PUBLIC "-//W3C//DTD SVG 1.1//EN"
"http://www.w3.org/Graphics/SVG/1.1/DTD/svg11.dtd">
<svg width="100%" height="100%" version="1.1"
xmlns="http://www.w3.org/2000/svg"
xmlns:xlink="http://www.w3.org/1999/xlink">
<g fill-rule="evenodd"><path d="M 1219.47,4.93333 L 1210.4,4.93333 L 1201.33,4.93333 L 1192.27,4.93333 L 1183.2,4.93333 L 1174.13,4.93333 L 1165.07,4.93333 L 1156,4.93333 L 1146.93,4.93333 L 1137.87,4.93333 L 1128.8,4.93333 L 1119.73,4.93333 L 1110.67,4.93333 L 1101.6,4.93333 L 1092.53,4.93333 L 1083.47,4.93333 L 1074.4,4.93333 L 1065.33,4.93333 L 1056.27,4.93333 L 1047.2,4.93333 L 1038.13,4.93333 L 1029.07,4.93333 L 1020,4.93333 L 1010.93,4.93333 L 1001.87,4.93333 L 992.8,4.93333 L 983.733,4.93333 L 974.667,4.93333 L 965.6,4.93333 L 956.533,4.93333 L 947.467,4.93333 L 938.4,4.93333 L 929.333,4.93333 L 920.267,4.93333 L 911.2,4.93333 L 902.133,4.93333 L 893.067,4.93333 L 884,4.93333 L 874.933,4.93333 L 865.867,4.93333 L 856.8,4.93333 L 847.733,4.93333 L 838.667,4.93333 L 829.6,4.93333 L 820.533,4.93333 L 811.467,4.93333 L 802.4,4.93333 L 793.333,4.93333 L 784.267,4.93333 L 775.2,4.93333 L 766.133,4.93333 L 757.067,4.93333 L 748,4.93333 L 738.933,4.93333 L 729.867,4.93333 L 720.8,4.93333 L 711.733,4.93333 L 702.667,4.93333 L 693.6,4.93333 L 684.533,4.93333 L 675.467,4.93333 L 666.4,4.93333 L 657.333,4.93333 L 648.267,4.93333 L 639.2,4.93333 L 630.133,4.93333 L 621.067,4.93333 L 612,4.93333 L 602.933,4.93333 L 593.867,4.93333 L 584.8,4.93333 L 575.733,4.93333 L 566.667,4.93333 L 557.6,4.93333 L 548.533,4.93333 L 539.467,4.93333 L 530.4,4.93333 L 521.333,4.93333 L 512.267,4.93333 L 503.2,4.93333 L 494.133,4.93333 L 485.067,4.93333 L 476,4.93333 L 466.933,4.93333 L 457.867,4.93333 L 448.8,4.93333 L 439.733,4.93333 L 430.667,4.93333 L 421.6,4.93333 L 412.533,4.93333 L 403.467,4.93333 L 394.4,4.93333 L 385.333,4.93333 L 376.267,4.93333 L 367.2,4.93333 L 358.133,4.93333 L 349.067,4.93333 L 340,4.93333 L 330.933,4.93333 L 321.867,4.93333 L 312.8,4.93333 L 303.733,4.93333 L 294.667,4.93333 L 285.6,4.93333 L 276.533,4.93333 L 267.467,4.93333 L 258.4,4.93333 L 249.333,4.93333 L 240.267,4.93333 L 231.2,4.93333 L 222.133,4.93333 L 213.067,4.93333 L 204,4.93333 L 194.933,4.93333 L 185.867,4.93333 L 176.8,4.93333 L 167.733,4.93333 L 158.667,4.93333 L 149.6,4.93333 L 140.533,4.93333 L 131.467,4.93333 L 122.4,4.93333 L 113.333,4.93333 L 104.267,4.93333 L 95.2,4.93333 L 86.1333,4.93333 L 77.0667,4.93333 L 68,4.93333 L 58.9333,4.93333 L 49.8667,4.93333 L 40.8,4.93333 L 31.7333,4.93333 L 22.6667,4.93333 L 13.6,4.93333 L 4.53333,4.93333 L -4.53333,4.93333 L -4.53333,14 L -4.53333,23.0667 L -4.53333,32.1333 L -4.53333,41.2 L -4.53333,50.2667 L -4.53333,59.3333 L -4.53333,68.4 L -4.53333,77.4667 L -4.53333,86.5333 L -4.53333,95.6 L -4.53333,104.667 L -4.53333,113.733 L -4.53333,122.8 L -4.53333,131.867 L -4.53333,140.933 L -4.53333,150 L -4.53333,159.067 L -4.53333,168.133 L -4.53333,177.2 L -4.53333,186.267 L -4.53333,195.333 L -4.53333,204.4 L -4.53333,213.467 L -4.53333,222.533 L -4.53333,231.6 L -4.53333,240.667 L -4.53333,249.733 L -4.53333,258.8 L -4.53333,267.867 L -4.53333,276.933 L -4.53333,286 L -4.53333,295.067 L -4.53333,304.133 L -4.53333,313.2 L -4.53333,322.267 L -4.53333,331.333 L -4.53333,340.4 L -4.53333,349.467 L -4.53333,358.533 L -4.53333,367.6 L -4.53333,376.667 L -4.53333,385.733 L -4.53333,394.8 L -4.53333,403.867 L -4.53333,412.933 L -4.53333,422 L -4.53333,431.067 L -4.53333,440.133 L -4.53333,449.2 L -4.53333,458.267 L -4.53333,467.333 L -4.53333,476.4 L -4.53333,485.467 L -4.53333,494.533 L -4.53333,503.6 L -4.53333,512.667 L -4.53333,521.733 L -4.53333,530.8 L -4.53333,539.867 L -4.53333,548.933 L -4.53333,558 L -4.53333,567.067 L -4.53333,576.133 L -4.53333,585.2 L -4.53333,594.267 L -4.53333,603.333 L -4.53333,612.4 L -4.53333,621.467 L -4.53333,630.533 L -4.53333,639.6 L -4.53333,648.667 L -4.53333,657.733 L -4.53333,666.8 L -4.53333,675.867 L -4.53333,684.933 L -4.53333,694 L -4.53333,703.067 L -4.53333,712.133 L -4.53333,721.2 L -4.53333,730.267 L -4.53333,739.333 L -4.53333,748.4 L -4.53333,757.467 L -4.53333,766.533 L -4.53333,775.6 L -4.53333,784.667 L -4.53333,793.733 L -4.53333,802.8 L -4.53333,811.867 L -4.53333,820.933 L -4.53333,830 L -4.53333,839.067 L -4.53333,848.133 L -4.53333,857.2 L -4.53333,866.267 L -4.53333,875.333 L -4.53333,884.4 L -4.53333,893.467 L -4.53333,902.533 L -4.53333,911.6 L -4.53333,920.667 L -4.53333,929.733 L -4.53333,938.8 L -4.53333,947.867 L -4.53333,956.933 L -4.53333,966 L -4.53333,975.067 L -4.53333,984.133 L -4.53333,993.2 L -4.53333,1002.27 L -4.53333,1011.33 L -4.53333,1020.4 L -4.53333,1029.47 L -4.53333,1038.53 L -4.53333,1047.6 L -4.53333,1056.67 L -4.53333,1065.73 L -4.53333,1074.8 L -4.53333,1083.87 L -4.53333,1092.93 L -4.53333,1102 L -4.53333,1111.07 L -4.53333,1120.13 L 4.53333,1120.13 L 13.6,1120.13 L 22.6667,1120.13 L 31.7333,1120.13 L 40.8,1120.13 L 49.8667,1120.13 L 58.9333,1120.13 L 68,1120.13 L 77.0667,1120.13 L 86.1333,1120.13 L 95.2,1120.13 L 104.267,1120.13 L 113.333,1120.13 L 122.4,1120.13 L 131.467,1120.13 L 140.533,1120.13 L 149.6,1120.13 L 158.667,1120.13 L 167.733,1120.13 L 176.8,1120.13 L 185.867,1120.13 L 194.933,1120.13 L 204,1120.13 L 213.067,1120.13 L 222.133,1120.13 L 231.2,1120.13 L 240.267,1120.13 L 249.333,1120.13 L 258.4,1120.13 L 267.467,1120.13 L 276.533,1120.13 L 285.6,1120.13 L 294.667,1120.13 L 303.733,1120.13 L 312.8,1120.13 L 321.867,1120.13 L 330.933,1120.13 L 340,1120.13 L 349.067,1120.13 L 358.133,1120.13 L 367.2,1120.13 L 376.267,1120.13 L 385.333,1120.13 L 394.4,1120.13 L 403.467,1120.13 L 412.533,1120.13 L 421.6,1120.13 L 430.667,1120.13 L 439.733,1120.13 L 448.8,1120.13 L 457.867,1120.13 L 466.933,1120.13 L 476,1120.13 L 485.067,1120.13 L 494.133,1120.13 L 503.2,1120.13 L 512.267,1120.13 L 521.333,1120.13 L 530.4,1120.13 L 539.467,1120.13 L 548.533,1120.13 L 557.6,1120.13 L 566.667,1120.13 L 575.733,1120.13 L 584.8,1120.13 L 593.867,1120.13 L 602.933,1120.13 L 612,1120.13 L 621.067,1120.13 L 630.133,1120.13 L 639.2,1120.13 L 648.267,1120.13 L 657.333,1120.13 L 666.4,1120.13 L 675.467,1120.13 L 684.533,1120.13 L 693.6,1120.13 L 702.667,1120.13 L 711.733,1120.13 L 720.8,1120.13 L 729.867,1120.13 L 738.933,1120.13 L 748,1120.13 L 757.067,1120.13 L 766.133,1120.13 L 775.2,1120.13 L 784.267,1120.13 L 793.333,1120.13 L 802.4,1120.13 L 811.467,1120.13 L 820.533,1120.13 L 829.6,1120.13 L 838.667,1120.13 L 847.733,1120.13 L 856.8,1120.13 L 865.867,1120.13 L 874.933,1120.13 L 884,1120.13 L 893.067,1120.13 L 902.133,1120.13 L 911.2,1120.13 L 920.267,1120.13 L 929.333,1120.13 L 938.4,1120.13 L 947.467,1120.13 L 956.533,1120.13 L 965.6,1120.13 L 974.667,1120.13 L 983.733,1120.13 L 992.8,1120.13 L 1001.87,1120.13 L 1010.93,1120.13 L 1020,1120.13 L 1029.07,1120.13 L 1038.13,1120.13 L 1047.2,1120.13 L 1056.27,1120.13 L 1065.33,1120.13 L 1074.4,1120.13 L 1083.47,1120.13 L 1092.53,1120.13 L 1101.6,1120.13 L 1110.67,1120.13 L 1119.73,1120.13 L 1128.8,1120.13 L 1137.87,1120.13 L 1146.93,1120.13 L 1156,1120.13 L 1165.07,1120.13 L 1174.13,1120.13 L 1183.2,1120.13 L 1192.27,1120.13 L 1201.33,1120.13 L 1210.4,1120.13 L 1219.47,1120.13 L 1219.47,1111.07 L 1219.47,1102 L 1219.47,1092.93 L 1219.47,1083.87 L 1219.47,1074.8 L 1219.47,1065.73 L 1219.47,1056.67 L 1219.47,1047.6 L 1219.47,1038.53 L 1219.47,1029.47 L 1219.47,1020.4 L 1219.47,1011.33 L 1219.47,1002.27 L 1219.47,993.2 L 1219.47,984.133 L 1219.47,975.067 L 1219.47,966 L 1219.47,956.933 L 1219.47,947.867 L 1219.47,938.8 L 1219.47,929.733 L 1219.47,920.667 L 1219.47,911.6 L 1219.47,902.533 L 1219.47,893.467 L 1219.47,884.4 L 1219.47,875.333 L 1219.47,866.267 L 1219.47,857.2 L 1219.47,848.133 L 1219.47,839.067 L 1219.47,830 L 1219.47,820.933 L 1219.47,811.867 L 1219.47,802.8 L 1219.47,793.733 L 1219.47,784.667 L 1219.47,775.6 L 1219.47,766.533 L 1219.47,757.467 L 1219.47,748.4 L 1219.47,739.333 L 1219.47,730.267 L 1219.47,721.2 L 1219.47,712.133 L 1219.47,703.067 L 1219.47,694 L 1219.47,684.933 L 1219.47,675.867 L 1219.47,666.8 L 1219.47,657.733 L 1219.47,648.667 L 1219.47,639.6 L 1219.47,630.533 L 1219.47,621.467 L 1219.47,612.4 L 1219.47,603.333 L 1219.47,594.267 L 1219.47,585.2 L 1219.47,576.133 L 1219.47,567.067 L 1219.47,558 L 1219.47,548.933 L 1219.47,539.867 L 1219.47,530.8 L 1219.47,521.733 L 1219.47,512.667 L 1219.47,503.6 L 1219.47,494.533 L 1219.47,485.467 L 1219.47,476.4 L 1219.47,467.333 L 1219.47,458.267 L 1219.47,449.2 L 1219.47,440.133 L 1219.47,431.067 L 1219.47,422 L 1219.47,412.933 L 1219.47,403.867 L 1219.47,394.8 L 1219.47,385.733 L 1219.47,376.667 L 1219.47,367.6 L 1219.47,358.533 L 1219.47,349.467 L 1219.47,340.4 L 1219.47,331.333 L 1219.47,322.267 L 1219.47,313.2 L 1219.47,304.133 L 1219.47,295.067 L 1219.47,286 L 1219.47,276.933 L 1219.47,267.867 L 1219.47,258.8 L 1219.47,249.733 L 1219.47,240.667 L 1219.47,231.6 L 1219.47,222.533 L 1219.47,213.467 L 1219.47,204.4 L 1219.47,195.333 L 1219.47,186.267 L 1219.47,177.2 L 1219.47,168.133 L 1219.47,159.067 L 1219.47,150 L 1219.47,140.933 L 1219.47,131.867 L 1219.47,122.8 L 1219.47,113.733 L 1219.47,104.667 L 1219.47,95.6 L 1219.47,86.5333 L 1219.47,77.4667 L 1219.47,68.4 L 1219.47,59.3333 L 1219.47,50.2667 L 1219.47,41.2 L 1219.47,32.1333 L 1219.47,23.0667 L 1219.47,14 L 1219.47,4.93333M 884,14 L 893.067,23.0667 L 902.133,23.0667 L 911.2,23.0667 L 920.267,32.1333 L 929.333,41.2 L 938.4,50.2667 L 938.4,59.3333 L 938.4,68.4 L 938.4,77.4667 L 929.333,86.5333 L 938.4,95.6 L 938.4,104.667 L 938.4,113.733 L 929.333,122.8 L 920.267,131.867 L 920.267,140.933 L 911.2,150 L 902.133,150 L 911.2,159.067 L 920.267,168.133 L 929.333,168.133 L 938.4,168.133 L 938.4,159.067 L 938.4,150 L 947.467,140.933 L 956.533,131.867 L 956.533,122.8 L 947.467,113.733 L 938.4,104.667 L 938.4,95.6 L 947.467,86.5333 L 956.533,77.4667 L 956.533,68.4 L 956.533,59.3333 L 965.6,50.2667 L 974.667,41.2 L 983.733,41.2 L 992.8,41.2 L 1001.87,32.1333 L 1010.93,23.0667 L 1020,23.0667 L 1029.07,23.0667 L 1038.13,23.0667 L 1047.2,32.1333 L 1056.27,41.2 L 1065.33,41.2 L 1074.4,41.2 L 1083.47,41.2 L 1092.53,32.1333 L 1101.6,23.0667 L 1110.67,23.0667 L 1119.73,32.1333 L 1128.8,41.2 L 1137.87,41.2 L 1146.93,41.2 L 1156,50.2667 L 1165.07,59.3333 L 1165.07,68.4 L 1165.07,77.4667 L 1174.13,77.4667 L 1183.2,77.4667 L 1192.27,86.5333 L 1201.33,95.6 L 1201.33,104.667 L 1201.33,113.733 L 1201.33,122.8 L 1201.33,131.867 L 1201.33,140.933 L 1201.33,150 L 1201.33,159.067 L 1192.27,168.133 L 1183.2,177.2 L 1183.2,186.267 L 1183.2,195.333 L 1183.2,204.4 L 1192.27,213.467 L 1201.33,222.533 L 1201.33,231.6 L 1192.27,240.667 L 1183.2,249.733 L 1174.13,258.8 L 1165.07,267.867 L 1165.07,276.933 L 1165.07,286 L 1156,295.067 L 1146.93,304.133 L 1137.87,304.133 L 1128.8,304.133 L 1119.73,313.2 L 1110.67,322.267 L 1101.6,331.333 L 1092.53,340.4 L 1083.47,340.4 L 1074.4,340.4 L 1065.33,340.4 L 1056.27,331.333 L 1047.2,322.267 L 1038.13,322.267 L 1029.07,322.267 L 1020,313.2 L 1010.93,304.133 L 1010.93,295.067 L 1010.93,286 L 1001.87,286 L 992.8,286 L 983.733,286 L 974.667,286 L 965.6,276.933 L 956.533,267.867 L 947.467,267.867 L 938.4,267.867 L 929.333,267.867 L 920.267,267.867 L 911.2,258.8 L 902.133,249.733 L 893.067,240.667 L 884,231.6 L 884,222.533 L 893.067,213.467 L 902.133,204.4 L 902.133,195.333 L 902.133,186.267 L 893.067,177.2 L 884,168.133 L 884,177.2 L 884,186.267 L 884,195.333 L 884,204.4 L 884,213.467 L 884,222.533 L 884,231.6 L 884,240.667 L 874.933,249.733 L 865.867,249.733 L 856.8,249.733 L 847.733,249.733 L 838.667,249.733 L 829.6,249.733 L 820.533,240.667 L 811.467,231.6 L 802.4,231.6 L 793.333,231.6 L 784.267,240.667 L 775.2,249.733 L 784.267,258.8 L 784.267,267.867 L 784.267,276.933 L 793.333,286 L 802.4,295.067 L 802.4,304.133 L 802.4,313.2 L 802.4,322.267 L 811.467,331.333 L 820.533,340.4 L 829.6,340.4 L 838.667,331.333 L 847.733,331.333 L 856.8,322.267 L 865.867,313.2 L 874.933,304.133 L 874.933,295.067 L 884,286 L 893.067,286 L 902.133,286 L 911.2,295.067 L 920.267,286 L 929.333,286 L 938.4,286 L 947.467,286 L 956.533,295.067 L 965.6,304.133 L 974.667,304.133 L 983.733,304.133 L 992.8,304.133 L 1001.87,313.2 L 1010.93,313.2 L 1020,322.267 L 1029.07,322.267 L 1038.13,322.267 L 1047.2,331.333 L 1047.2,340.4 L 1047.2,349.467 L 1038.13,358.533 L 1038.13,367.6 L 1047.2,376.667 L 1056.27,385.733 L 1056.27,394.8 L 1047.2,403.867 L 1047.2,412.933 L 1038.13,422 L 1029.07,431.067 L 1020,440.133 L 1020,449.2 L 1010.93,458.267 L 1020,467.333 L 1029.07,476.4 L 1038.13,476.4 L 1047.2,476.4 L 1056.27,476.4 L 1056.27,467.333 L 1065.33,458.267 L 1074.4,458.267 L 1083.47,458.267 L 1092.53,449.2 L 1101.6,440.133 L 1110.67,440.133 L 1119.73,440.133 L 1128.8,440.133 L 1137.87,440.133 L 1146.93,440.133 L 1156,449.2 L 1165.07,458.267 L 1174.13,467.333 L 1183.2,476.4 L 1192.27,485.467 L 1201.33,494.533 L 1201.33,503.6 L 1201.33,512.667 L 1210.4,521.733 L 1219.47,530.8 L 1219.47,539.867 L 1219.47,548.933 L 1219.47,558 L 1219.47,567.067 L 1219.47,576.133 L 1219.47,585.2 L 1219.47,594.267 L 1210.4,603.333 L 1201.33,612.4 L 1201.33,621.467 L 1201.33,630.533 L 1192.27,639.6 L 1183.2,648.667 L 1174.13,657.733 L 1165.07,666.8 L 1156,666.8 L 1146.93,666.8 L 1137.87,675.867 L 1128.8,684.933 L 1119.73,694 L 1110.67,703.067 L 1101.6,703.067 L 1092.53,694 L 1092.53,684.933 L 1083.47,675.867 L 1074.4,675.867 L 1065.33,675.867 L 1056.27,675.867 L 1047.2,684.933 L 1047.2,694 L 1038.13,703.067 L 1029.07,703.067 L 1020,703.067 L 1010.93,703.067 L 1001.87,712.133 L 992.8,721.2 L 1001.87,730.267 L 1010.93,739.333 L 1010.93,748.4 L 1020,757.467 L 1029.07,766.533 L 1038.13,775.6 L 1047.2,784.667 L 1056.27,793.733 L 1056.27,802.8 L 1056.27,811.867 L 1056.27,820.933 L 1056.27,830 L 1056.27,839.067 L 1065.33,848.133 L 1065.33,857.2 L 1056.27,866.267 L 1056.27,875.333 L 1056.27,884.4 L 1065.33,893.467 L 1056.27,902.533 L 1056.27,911.6 L 1056.27,920.667 L 1056.27,929.733 L 1047.2,938.8 L 1047.2,947.867 L 1047.2,956.933 L 1047.2,966 L 1047.2,975.067 L 1047.2,984.133 L 1047.2,993.2 L 1047.2,1002.27 L 1047.2,1011.33 L 1038.13,1020.4 L 1038.13,1029.47 L 1038.13,1038.53 L 1029.07,1047.6 L 1029.07,1056.67 L 1029.07,1065.73 L 1038.13,1074.8 L 1038.13,1083.87 L 1029.07,1092.93 L 1020,1102 L 1010.93,1102 L 1001.87,1102 L 992.8,1102 L 983.733,1102 L 974.667,1111.07 L 965.6,1120.13 L 956.533,1120.13 L 947.467,1120.13 L 938.4,1120.13 L 929.333,1111.07 L 920.267,1102 L 911.2,1102 L 902.133,1102 L 893.067,1102 L 884,1102 L 874.933,1092.93 L 865.867,1083.87 L 865.867,1074.8 L 865.867,1065.73 L 856.8,1065.73 L 847.733,1065.73 L 838.667,1056.67 L 829.6,1047.6 L 829.6,1038.53 L 829.6,1029.47 L 829.6,1020.4 L 838.667,1011.33 L 847.733,1011.33 L 856.8,1002.27 L 856.8,993.2 L 856.8,984.133 L 856.8,975.067 L 856.8,966 L 847.733,956.933 L 847.733,947.867 L 856.8,938.8 L 847.733,929.733 L 838.667,920.667 L 829.6,920.667 L 820.533,920.667 L 811.467,929.733 L 802.4,920.667 L 793.333,911.6 L 784.267,911.6 L 775.2,911.6 L 766.133,911.6 L 757.067,920.667 L 757.067,929.733 L 757.067,938.8 L 757.067,947.867 L 766.133,956.933 L 766.133,966 L 775.2,975.067 L 784.267,984.133 L 784.267,993.2 L 784.267,1002.27 L 784.267,1011.33 L 784.267,1020.4 L 784.267,1029.47 L 775.2,1038.53 L 766.133,1047.6 L 766.133,1056.67 L 766.133,1065.73 L 757.067,1074.8 L 748,1083.87 L 738.933,1092.93 L 729.867,1102 L 720.8,1102 L 711.733,1102 L 702.667,1111.07 L 693.6,1120.13 L 684.533,1120.13 L 675.467,1120.13 L 666.4,1120.13 L 657.333,1120.13 L 648.267,1120.13 L 639.2,1111.07 L 630.133,1102 L 621.067,1102 L 612,1102 L 602.933,1092.93 L 593.867,1083.87 L 584.8,1074.8 L 575.733,1065.73 L 566.667,1056.67 L 566.667,1047.6 L 566.667,1038.53 L 566.667,1029.47 L 557.6,1020.4 L 557.6,1011.33 L 557.6,1002.27 L 557.6,993.2 L 557.6,984.133 L 548.533,975.067 L 548.533,966 L 548.533,956.933 L 557.6,947.867 L 557.6,938.8 L 557.6,929.733 L 548.533,920.667 L 539.467,911.6 L 530.4,920.667 L 521.333,920.667 L 512.267,920.667 L 503.2,920.667 L 494.133,920.667 L 485.067,920.667 L 476,911.6 L 466.933,920.667 L 457.867,929.733 L 457.867,938.8 L 457.867,947.867 L 466.933,947.867 L 476,947.867 L 485.067,956.933 L 494.133,966 L 503.2,975.067 L 512.267,984.133 L 512.267,993.2 L 512.267,1002.27 L 512.267,1011.33 L 512.267,1020.4 L 512.267,1029.47 L 503.2,1038.53 L 494.133,1047.6 L 494.133,1056.67 L 494.133,1065.73 L 485.067,1074.8 L 476,1083.87 L 466.933,1092.93 L 457.867,1102 L 448.8,1102 L 439.733,1102 L 430.667,1111.07 L 421.6,1120.13 L 412.533,1120.13 L 403.467,1120.13 L 394.4,1120.13 L 385.333,1120.13 L 376.267,1120.13 L 367.2,1120.13 L 358.133,1120.13 L 349.067,1120.13 L 340,1120.13 L 330.933,1111.07 L 321.867,1102 L 312.8,1102 L 303.733,1102 L 294.667,1092.93 L 285.6,1083.87 L 276.533,1074.8 L 276.533,1065.73 L 276.533,1056.67 L 276.533,1047.6 L 285.6,1038.53 L 276.533,1029.47 L 276.533,1020.4 L 276.533,1011.33 L 285.6,1002.27 L 294.667,993.2 L 294.667,984.133 L 303.733,975.067 L 312.8,975.067 L 303.733,966 L 294.667,956.933 L 285.6,956.933 L 276.533,956.933 L 276.533,966 L 276.533,975.067 L 267.467,984.133 L 258.4,993.2 L 258.4,1002.27 L 267.467,1011.33 L 276.533,1020.4 L 276.533,1029.47 L 267.467,1038.53 L 258.4,1047.6 L 258.4,1056.67 L 258.4,1065.73 L 249.333,1074.8 L 240.267,1083.87 L 231.2,1083.87 L 222.133,1083.87 L 213.067,1092.93 L 204,1102 L 194.933,1102 L 185.867,1102 L 176.8,1102 L 167.733,1092.93 L 158.667,1083.87 L 149.6,1083.87 L 140.533,1083.87 L 131.467,1083.87 L 122.4,1092.93 L 113.333,1102 L 104.267,1102 L 95.2,1092.93 L 86.1333,1083.87 L 77.0667,1083.87 L 68,1083.87 L 58.9333,1074.8 L 49.8667,1065.73 L 49.8667,1056.67 L 49.8667,1047.6 L 40.8,1047.6 L 31.7333,1047.6 L 22.6667,1038.53 L 13.6,1029.47 L 13.6,1020.4 L 13.6,1011.33 L 13.6,1002.27 L 13.6,993.2 L 13.6,984.133 L 13.6,975.067 L 13.6,966 L 22.6667,956.933 L 31.7333,947.867 L 31.7333,938.8 L 31.7333,929.733 L 31.7333,920.667 L 22.6667,911.6 L 13.6,902.533 L 13.6,893.467 L 22.6667,884.4 L 31.7333,875.333 L 40.8,866.267 L 49.8667,857.2 L 49.8667,848.133 L 49.8667,839.067 L 58.9333,830 L 68,820.933 L 77.0667,820.933 L 86.1333,820.933 L 95.2,811.867 L 104.267,802.8 L 113.333,793.733 L 122.4,784.667 L 131.467,784.667 L 140.533,784.667 L 149.6,784.667 L 158.667,793.733 L 167.733,802.8 L 176.8,802.8 L 185.867,802.8 L 194.933,811.867 L 204,820.933 L 204,830 L 204,839.067 L 213.067,839.067 L 222.133,839.067 L 231.2,839.067 L 240.267,839.067 L 249.333,848.133 L 258.4,857.2 L 267.467,857.2 L 276.533,857.2 L 285.6,857.2 L 294.667,857.2 L 303.733,866.267 L 312.8,875.333 L 321.867,884.4 L 330.933,893.467 L 330.933,902.533 L 321.867,911.6 L 312.8,920.667 L 312.8,929.733 L 312.8,938.8 L 321.867,947.867 L 330.933,956.933 L 330.933,947.867 L 330.933,938.8 L 330.933,929.733 L 330.933,920.667 L 330.933,911.6 L 330.933,902.533 L 330.933,893.467 L 330.933,884.4 L 340,875.333 L 349.067,875.333 L 358.133,875.333 L 367.2,875.333 L 376.267,875.333 L 385.333,875.333 L 394.4,884.4 L 403.467,893.467 L 412.533,893.467 L 421.6,893.467 L 430.667,884.4 L 439.733,875.333 L 430.667,866.267 L 430.667,857.2 L 430.667,848.133 L 421.6,839.067 L 412.533,830 L 412.533,820.933 L 412.533,811.867 L 412.533,802.8 L 403.467,793.733 L 394.4,784.667 L 385.333,784.667 L 376.267,793.733 L 367.2,793.733 L 358.133,802.8 L 349.067,811.867 L 340,820.933 L 340,830 L 330.933,839.067 L 321.867,839.067 L 312.8,839.067 L 303.733,830 L 294.667,839.067 L 285.6,839.067 L 276.533,839.067 L 267.467,839.067 L 258.4,830 L 249.333,820.933 L 240.267,820.933 L 231.2,820.933 L 222.133,820.933 L 213.067,811.867 L 204,811.867 L 194.933,802.8 L 185.867,802.8 L 176.8,802.8 L 167.733,793.733 L 167.733,784.667 L 167.733,775.6 L 176.8,766.533 L 176.8,757.467 L 167.733,748.4 L 158.667,739.333 L 158.667,730.267 L 167.733,721.2 L 167.733,712.133 L 176.8,703.067 L 185.867,694 L 194.933,684.933 L 194.933,675.867 L 204,666.8 L 194.933,657.733 L 185.867,648.667 L 176.8,648.667 L 167.733,648.667 L 158.667,648.667 L 158.667,657.733 L 149.6,666.8 L 140.533,666.8 L 131.467,666.8 L 122.4,675.867 L 113.333,684.933 L 104.267,684.933 L 95.2,684.933 L 86.1333,684.933 L 77.0667,684.933 L 68,684.933 L 58.9333,675.867 L 49.8667,666.8 L 40.8,657.733 L 31.7333,648.667 L 22.6667,639.6 L 13.6,630.533 L 13.6,621.467 L 13.6,612.4 L 4.53333,603.333 L -4.53333,594.267 L -4.53333,585.2 L -4.53333,576.133 L -4.53333,567.067 L -4.53333,558 L -4.53333,548.933 L -4.53333,539.867 L -4.53333,530.8 L 4.53333,521.733 L 13.6,512.667 L 13.6,503.6 L 13.6,494.533 L 22.6667,485.467 L 31.7333,476.4 L 40.8,467.333 L 49.8667,458.267 L 58.9333,458.267 L 68,458.267 L 77.0667,449.2 L 86.1333,440.133 L 95.2,431.067 L 104.267,422 L 113.333,422 L 122.4,431.067 L 122.4,440.133 L 131.467,449.2 L 140.533,449.2 L 149.6,449.2 L 158.667,449.2 L 167.733,440.133 L 167.733,431.067 L 176.8,422 L 185.867,422 L 194.933,422 L 204,422 L 213.067,412.933 L 222.133,403.867 L 213.067,394.8 L 204,385.733 L 204,376.667 L 194.933,367.6 L 185.867,358.533 L 176.8,349.467 L 167.733,340.4 L 158.667,331.333 L 158.667,322.267 L 158.667,313.2 L 158.667,304.133 L 158.667,295.067 L 158.667,286 L 149.6,276.933 L 149.6,267.867 L 158.667,258.8 L 158.667,249.733 L 158.667,240.667 L 149.6,231.6 L 158.667,222.533 L 158.667,213.467 L 158.667,204.4 L 158.667,195.333 L 167.733,186.267 L 167.733,177.2 L 167.733,168.133 L 167.733,159.067 L 167.733,150 L 167.733,140.933 L 167.733,131.867 L 167.733,122.8 L 167.733,113.733 L 176.8,104.667 L 176.8,95.6 L 176.8,86.5333 L 185.867,77.4667 L 185.867,68.4 L 185.867,59.3333 L 176.8,50.2667 L 176.8,41.2 L 185.867,32.1333 L 194.933,23.0667 L 204,23.0667 L 213.067,23.0667 L 222.133,23.0667 L 231.2,23.0667 L 240.267,14 L 249.333,4.93333 L 258.4,4.93333 L 267.467,4.93333 L 276.533,4.93333 L 285.6,14 L 294.667,23.0667 L 303.733,23.0667 L 312.8,23.0667 L 321.867,23.0667 L 330.933,23.0667 L 340,32.1333 L 349.067,41.2 L 349.067,50.2667 L 349.067,59.3333 L 358.133,59.3333 L 367.2,59.3333 L 376.267,68.4 L 385.333,77.4667 L 385.333,86.5333 L 385.333,95.6 L 385.333,104.667 L 376.267,113.733 L 367.2,113.733 L 358.133,122.8 L 358.133,131.867 L 358.133,140.933 L 358.133,150 L 358.133,159.067 L 367.2,168.133 L 367.2,177.2 L 358.133,186.267 L 367.2,195.333 L 376.267,204.4 L 385.333,204.4 L 394.4,204.4 L 403.467,195.333 L 412.533,204.4 L 421.6,213.467 L 430.667,213.467 L 439.733,213.467 L 448.8,213.467 L 457.867,204.4 L 457.867,195.333 L 457.867,186.267 L 457.867,177.2 L 448.8,168.133 L 448.8,159.067 L 439.733,150 L 430.667,140.933 L 430.667,131.867 L 430.667,122.8 L 430.667,113.733 L 430.667,104.667 L 430.667,95.6 L 439.733,86.5333 L 448.8,77.4667 L 448.8,68.4 L 448.8,59.3333 L 457.867,50.2667 L 466.933,41.2 L 476,32.1333 L 485.067,23.0667 L 494.133,23.0667 L 503.2,23.0667 L 512.267,14 L 521.333,4.93333 L 530.4,4.93333 L 539.467,4.93333 L 548.533,4.93333 L 557.6,4.93333 L 566.667,4.93333 L 575.733,14 L 584.8,23.0667 L 593.867,23.0667 L 602.933,23.0667 L 612,32.1333 L 621.067,41.2 L 630.133,50.2667 L 639.2,59.3333 L 648.267,68.4 L 648.267,77.4667 L 648.267,86.5333 L 648.267,95.6 L 657.333,104.667 L 657.333,113.733 L 657.333,122.8 L 657.333,131.867 L 657.333,140.933 L 666.4,150 L 666.4,159.067 L 666.4,168.133 L 657.333,177.2 L 657.333,186.267 L 657.333,195.333 L 666.4,204.4 L 675.467,213.467 L 684.533,204.4 L 693.6,204.4 L 702.667,204.4 L 711.733,204.4 L 720.8,204.4 L 729.867,204.4 L 738.933,213.467 L 748,204.4 L 757.067,195.333 L 757.067,186.267 L 757.067,177.2 L 748,177.2 L 738.933,177.2 L 729.867,168.133 L 720.8,159.067 L 711.733,150 L 702.667,140.933 L 702.667,131.867 L 702.667,122.8 L 702.667,113.733 L 702.667,104.667 L 702.667,95.6 L 711.733,86.5333 L 720.8,77.4667 L 720.8,68.4 L 720.8,59.3333 L 729.867,50.2667 L 738.933,41.2 L 748,32.1333 L 757.067,23.0667 L 766.133,23.0667 L 775.2,23.0667 L 784.267,14 L 793.333,4.93333 L 802.4,4.93333 L 811.467,4.93333 L 820.533,4.93333 L 829.6,4.93333 L 838.667,4.93333 L 847.733,4.93333 L 856.8,4.93333 L 865.867,4.93333 L 874.933,4.93333 L 884,14 z " style="fill-opacity:0.5;fill:rgb(253,0,0);stroke:rgb(253,0,0);stroke-width:2"/></g>
<g fill-rule="evenodd"><path d="M -4.53333,1120.13 L -4.53333,4.93333 L 1219.47,4.93333 L 1219.47,1120.13 L -4.53333,1120.13M 68,1083.87 L 104.267,1102 L 131.467,1083.87 L 158.667,1083.87 L 176.8,1102 L 240.267,1083.87 L 276.533,1029.47 L 258.4,993.2 L 276.533,956.933 L 294.667,956.933 L 312.8,975.067 L 276.533,1011.33 L 276.533,1074.8 L 340,1120.13 L 421.6,1120.13 L 457.867,1102 L 512.267,1029.47 L 512.267,984.133 L 476,947.867 L 457.867,947.867 L 457.867,929.733 L 476,911.6 L 539.467,911.6 L 557.6,929.733 L 548.533,975.067 L 566.667,1056.67 L 612,1102 L 648.267,1120.13 L 693.6,1120.13 L 729.867,1102 L 784.267,1029.47 L 784.267,984.133 L 757.067,947.867 L 757.067,920.667 L 793.333,911.6 L 811.467,929.733 L 838.667,920.667 L 856.8,938.8 L 856.8,1002.27 L 829.6,1020.4 L 829.6,1047.6 L 865.867,1065.73 L 884,1102 L 920.267,1102 L 938.4,1120.13 L 1020,1102 L 1038.13,1083.87 L 1029.07,1047.6 L 1047.2,1011.33 L 1065.33,848.133 L 1056.27,793.733 L 992.8,721.2 L 1010.93,703.067 L 1038.13,703.067 L 1056.27,675.867 L 1083.47,675.867 L 1110.67,703.067 L 1146.93,666.8 L 1165.07,666.8 L 1219.47,594.267 L 1219.47,530.8 L 1146.93,440.133 L 1101.6,440.133 L 1056.27,476.4 L 1029.07,476.4 L 1010.93,458.267 L 1056.27,394.8 L 1038.13,367.6 L 1038.13,322.267 L 965.6,304.133 L 947.467,286 L 884,286 L 847.733,331.333 L 820.533,340.4 L 775.2,249.733 L 793.333,231.6 L 829.6,249.733 L 874.933,249.733 L 884,168.133 L 902.133,186.267 L 884,231.6 L 920.267,267.867 L 1010.93,286 L 1029.07,322.267 L 1092.53,340.4 L 1128.8,304.133 L 1146.93,304.133 L 1201.33,231.6 L 1183.2,204.4 L 1183.2,177.2 L 1201.33,159.067 L 1201.33,95.6 L 1110.67,23.0667 L 1083.47,41.2 L 1010.93,23.0667 L 956.533,59.3333 L 938.4,95.6 L 956.533,131.867 L 938.4,168.133 L 920.267,168.133 L 902.133,150 L 938.4,113.733 L 938.4,50.2667 L 874.933,4.93333 L 793.333,4.93333 L 757.067,23.0667 L 702.667,95.6 L 702.667,140.933 L 738.933,177.2 L 757.067,177.2 L 757.067,195.333 L 738.933,213.467 L 675.467,213.467 L 657.333,195.333 L 666.4,150 L 648.267,68.4 L 602.933,23.0667 L 566.667,4.93333 L 521.333,4.93333 L 485.067,23.0667 L 430.667,95.6 L 430.667,140.933 L 457.867,177.2 L 457.867,204.4 L 421.6,213.467 L 403.467,195.333 L 376.267,204.4 L 358.133,186.267 L 358.133,122.8 L 385.333,104.667 L 385.333,77.4667 L 349.067,59.3333 L 330.933,23.0667 L 294.667,23.0667 L 276.533,4.93333 L 194.933,23.0667 L 176.8,41.2 L 185.867,77.4667 L 167.733,113.733 L 149.6,276.933 L 158.667,331.333 L 222.133,403.867 L 204,422 L 176.8,422 L 158.667,449.2 L 131.467,449.2 L 104.267,422 L 68,458.267 L 49.8667,458.267 L -4.53333,530.8 L -4.53333,594.267 L 68,684.933 L 113.333,684.933 L 158.667,648.667 L 185.867,648.667 L 204,666.8 L 158.667,730.267 L 176.8,757.467 L 176.8,802.8 L 249.333,820.933 L 267.467,839.067 L 330.933,839.067 L 367.2,793.733 L 394.4,784.667 L 439.733,875.333 L 421.6,893.467 L 385.333,875.333 L 340,875.333 L 330.933,956.933 L 312.8,938.8 L 330.933,893.467 L 294.667,857.2 L 204,839.067 L 185.867,802.8 L 122.4,784.667 L 86.1333,820.933 L 68,820.933 L 13.6,893.467 L 31.7333,920.667 L 31.7333,947.867 L 13.6,966 L 13.6,1029.47 L 49.8667,1047.6 L 68,1083.87 z " style="fill-opacity:0.5;fill:rgb(0,253,0);stroke:rgb(0,0,0);stroke-width:5"/></g>
<g fill-rule="evenodd"><path d="M 303.733,240.667 L 294.667,249.733 L 285.6,258.8 L 276.533,258.8 L 267.467,267.867 L 258.4,276.933 L 249.333,286 L 249.333,295.067 L 258.4,304.133 L 267.467,313.2 L 276.533,322.267 L 276.533,331.333 L 285.6,340.4 L 294.667,349.467 L 303.733,358.533 L 312.8,367.6 L 321.867,376.667 L 330.933,385.733 L 340,385.733 L 349.067,385.733 L 358.133,394.8 L 367.2,403.867 L 376.267,412.933 L 376.267,422 L 376.267,431.067 L 376.267,440.133 L 385.333,449.2 L 394.4,458.267 L 403.467,458.267 L 412.533,458.267 L 421.6,458.267 L 430.667,449.2 L 439.733,449.2 L 448.8,449.2 L 457.867,440.133 L 466.933,431.067 L 466.933,422 L 466.933,412.933 L 457.867,403.867 L 457.867,394.8 L 457.867,385.733 L 457.867,376.667 L 457.867,367.6 L 448.8,358.533 L 439.733,349.467 L 430.667,349.467 L 421.6,349.467 L 412.533,349.467 L 403.467,358.533 L 403.467,367.6 L 394.4,376.667 L 385.333,367.6 L 376.267,358.533 L 367.2,358.533 L 358.133,358.533 L 349.067,349.467 L 340,340.4 L 330.933,331.333 L 321.867,322.267 L 312.8,313.2 L 303.733,304.133 L 303.733,295.067 L 312.8,286 L 321.867,276.933 L 321.867,267.867 L 321.867,258.8 L 312.8,249.733 L 303.733,240.667 z " style="fill-opacity:0.5;fill:rgb(253,0,0);stroke:rgb(253,0,0);stroke-width:2"/></g>
<g fill-rule="evenodd"><path d="M 448.8,449.2 L 394.4,458.267 L 376.267,440.133 L 376.267,412.933 L 349.067,385.733 L 330.933,385.733 L 249.333,286 L 303.733,240.667 L 321.867,258.8 L 303.733,304.133 L 358.133,358.533 L 394.4,376.667 L 412.533,349.467 L 439.733,349.467 L 457.867,367.6 L 466.933,412.933 L 448.8,449.2 z " style="fill-opacity:0.5;fill:rgb(0,253,0);stroke:rgb(0,0,0);stroke-width:5"/></g>
<g fill-rule="evenodd"><path d="M 602.933,249.733 L 593.867,249.733 L 584.8,249.733 L 575.733,258.8 L 566.667,258.8 L 557.6,258.8 L 548.533,258.8 L 539.467,267.867 L 539.467,276.933 L 530.4,286 L 521.333,295.067 L 521.333,304.133 L 530.4,313.2 L 539.467,322.267 L 548.533,322.267 L 557.6,322.267 L 566.667,322.267 L 575.733,322.267 L 584.8,331.333 L 593.867,331.333 L 602.933,340.4 L 602.933,349.467 L 612,358.533 L 621.067,367.6 L 630.133,376.667 L 639.2,385.733 L 648.267,394.8 L 657.333,403.867 L 666.4,403.867 L 675.467,412.933 L 675.467,422 L 684.533,431.067 L 693.6,440.133 L 693.6,449.2 L 693.6,458.267 L 693.6,467.333 L 702.667,476.4 L 711.733,485.467 L 720.8,476.4 L 729.867,467.333 L 738.933,458.267 L 748,467.333 L 757.067,458.267 L 766.133,467.333 L 775.2,467.333 L 784.267,476.4 L 784.267,467.333 L 775.2,458.267 L 766.133,458.267 L 757.067,458.267 L 748,458.267 L 738.933,449.2 L 738.933,440.133 L 729.867,431.067 L 729.867,422 L 720.8,412.933 L 720.8,403.867 L 711.733,394.8 L 702.667,394.8 L 693.6,385.733 L 684.533,376.667 L 675.467,367.6 L 666.4,358.533 L 657.333,349.467 L 648.267,340.4 L 639.2,331.333 L 630.133,322.267 L 621.067,313.2 L 621.067,304.133 L 621.067,295.067 L 621.067,286 L 621.067,276.933 L 621.067,267.867 L 612,258.8 L 602.933,249.733 z " style="fill-opacity:0.5;fill:rgb(253,0,0);stroke:rgb(253,0,0);stroke-width:2"/></g>
<g fill-rule="evenodd"><path d="M 784.267,476.4 L 738.933,458.267 L 711.733,485.467 L 675.467,412.933 L 593.867,331.333 L 539.467,322.267 L 521.333,304.133 L 539.467,267.867 L 602.933,249.733 L 621.067,267.867 L 621.067,313.2 L 720.8,403.867 L 738.933,449.2 L 775.2,458.267 L 784.267,476.4 z " style="fill-opacity:0.5;fill:rgb(0,253,0);stroke:rgb(0,0,0);stroke-width:5"/></g>
<g fill-rule="evenodd"><path d="M 856.8,431.067 L 847.733,431.067 L 838.667,440.133 L 829.6,449.2 L 829.6,458.267 L 829.6,467.333 L 829.6,476.4 L 829.6,485.467 L 829.6,494.533 L 829.6,503.6 L 829.6,512.667 L 838.667,512.667 L 847.733,512.667 L 856.8,512.667 L 865.867,512.667 L 874.933,512.667 L 884,503.6 L 893.067,494.533 L 893.067,485.467 L 893.067,476.4 L 893.067,467.333 L 893.067,458.267 L 884,449.2 L 874.933,449.2 L 865.867,440.133 L 856.8,431.067 z " style="fill-opacity:0.5;fill:rgb(253,0,0);stroke:rgb(253,0,0);stroke-width:2"/></g>
<g fill-rule="evenodd"><path d="M 829.6,512.667 L 829.6,449.2 L 856.8,431.067 L 893.067,458.267 L 893.067,494.533 L 874.933,512.667 L 829.6,512.667 z " style="fill-opacity:0.5;fill:rgb(0,253,0);stroke:rgb(0,0,0);stroke-width:5"/></g>
<g fill-rule="evenodd"><path d="M 276.533,458.267 L 267.467,467.333 L 258.4,476.4 L 258.4,485.467 L 258.4,494.533 L 267.467,503.6 L 258.4,512.667 L 249.333,512.667 L 240.267,512.667 L 231.2,521.733 L 231.2,530.8 L 231.2,539.867 L 231.2,548.933 L 240.267,558 L 240.267,567.067 L 240.267,576.133 L 240.267,585.2 L 240.267,594.267 L 249.333,603.333 L 258.4,612.4 L 258.4,603.333 L 267.467,594.267 L 276.533,594.267 L 285.6,594.267 L 294.667,585.2 L 303.733,576.133 L 312.8,567.067 L 312.8,558 L 312.8,548.933 L 303.733,539.867 L 303.733,530.8 L 303.733,521.733 L 303.733,512.667 L 303.733,503.6 L 303.733,494.533 L 303.733,485.467 L 294.667,476.4 L 285.6,467.333 L 276.533,458.267 z " style="fill-opacity:0.5;fill:rgb(253,0,0);stroke:rgb(253,0,0);stroke-width:2"/></g>
<g fill-rule="evenodd"><path d="M 258.4,612.4 L 240.267,594.267 L 231.2,521.733 L 267.467,503.6 L 258.4,476.4 L 276.533,458.267 L 303.733,485.467 L 312.8,567.067 L 258.4,612.4 z " style="fill-opacity:0.5;fill:rgb(0,253,0);stroke:rgb(0,0,0);stroke-width:5"/></g>
<g fill-rule="evenodd"><path d="M 557.6,503.6 L 548.533,503.6 L 539.467,503.6 L 530.4,512.667 L 521.333,521.733 L 530.4,530.8 L 530.4,539.867 L 539.467,548.933 L 548.533,558 L 557.6,567.067 L 557.6,576.133 L 557.6,585.2 L 566.667,594.267 L 575.733,603.333 L 584.8,603.333 L 593.867,603.333 L 602.933,594.267 L 612,585.2 L 621.067,585.2 L 630.133,594.267 L 639.2,603.333 L 648.267,612.4 L 657.333,621.467 L 666.4,621.467 L 675.467,621.467 L 684.533,612.4 L 693.6,603.333 L 684.533,594.267 L 684.533,585.2 L 675.467,576.133 L 666.4,567.067 L 657.333,558 L 657.333,548.933 L 657.333,539.867 L 648.267,530.8 L 639.2,521.733 L 630.133,521.733 L 621.067,521.733 L 612,530.8 L 602.933,539.867 L 593.867,539.867 L 584.8,530.8 L 575.733,521.733 L 566.667,512.667 L 557.6,503.6 z " style="fill-opacity:0.5;fill:rgb(253,0,0);stroke:rgb(253,0,0);stroke-width:2"/></g>
<g fill-rule="evenodd"><path d="M 693.6,603.333 L 675.467,621.467 L 657.333,621.467 L 621.067,585.2 L 575.733,603.333 L 521.333,521.733 L 539.467,503.6 L 557.6,503.6 L 593.867,539.867 L 639.2,521.733 L 693.6,603.333 z " style="fill-opacity:0.5;fill:rgb(0,253,0);stroke:rgb(0,0,0);stroke-width:5"/></g>
<g fill-rule="evenodd"><path d="M 956.533,512.667 L 956.533,521.733 L 947.467,530.8 L 938.4,530.8 L 929.333,530.8 L 920.267,539.867 L 911.2,548.933 L 902.133,558 L 902.133,567.067 L 902.133,576.133 L 911.2,585.2 L 911.2,594.267 L 911.2,603.333 L 911.2,612.4 L 911.2,621.467 L 911.2,630.533 L 911.2,639.6 L 920.267,648.667 L 929.333,657.733 L 938.4,666.8 L 947.467,657.733 L 956.533,648.667 L 956.533,639.6 L 956.533,630.533 L 947.467,621.467 L 956.533,612.4 L 965.6,612.4 L 974.667,612.4 L 983.733,603.333 L 983.733,594.267 L 983.733,585.2 L 983.733,576.133 L 974.667,567.067 L 974.667,558 L 974.667,548.933 L 974.667,539.867 L 974.667,530.8 L 965.6,521.733 L 956.533,512.667 z " style="fill-opacity:0.5;fill:rgb(253,0,0);stroke:rgb(253,0,0);stroke-width:2"/></g>
<g fill-rule="evenodd"><path d="M 938.4,666.8 L 911.2,639.6 L 902.133,558 L 956.533,512.667 L 974.667,530.8 L 983.733,603.333 L 947.467,621.467 L 956.533,648.667 L 938.4,666.8 z " style="fill-opacity:0.5;fill:rgb(0,253,0);stroke:rgb(0,0,0);stroke-width:5"/></g>
<g fill-rule="evenodd"><path d="M 385.333,612.4 L 376.267,612.4 L 367.2,612.4 L 358.133,612.4 L 349.067,612.4 L 340,612.4 L 330.933,621.467 L 321.867,630.533 L 321.867,639.6 L 321.867,648.667 L 321.867,657.733 L 321.867,666.8 L 330.933,675.867 L 340,675.867 L 349.067,684.933 L 358.133,694 L 367.2,694 L 376.267,684.933 L 385.333,675.867 L 385.333,666.8 L 385.333,657.733 L 385.333,648.667 L 385.333,639.6 L 385.333,630.533 L 385.333,621.467 L 385.333,612.4 z " style="fill-opacity:0.5;fill:rgb(253,0,0);stroke:rgb(253,0,0);stroke-width:2"/></g>
<g fill-rule="evenodd"><path d="M 358.133,694 L 321.867,666.8 L 321.867,630.533 L 340,612.4 L 385.333,612.4 L 385.333,675.867 L 358.133,694 z " style="fill-opacity:0.5;fill:rgb(0,253,0);stroke:rgb(0,0,0);stroke-width:5"/></g>
<g fill-rule="evenodd"><path d="M 503.2,639.6 L 494.133,648.667 L 485.067,657.733 L 476,666.8 L 466.933,657.733 L 457.867,666.8 L 448.8,657.733 L 439.733,657.733 L 430.667,648.667 L 430.667,657.733 L 439.733,666.8 L 448.8,666.8 L 457.867,666.8 L 466.933,666.8 L 476,675.867 L 476,684.933 L 485.067,694 L 485.067,703.067 L 494.133,712.133 L 494.133,721.2 L 503.2,730.267 L 512.267,730.267 L 521.333,739.333 L 530.4,748.4 L 539.467,757.467 L 548.533,766.533 L 557.6,775.6 L 566.667,784.667 L 575.733,793.733 L 584.8,802.8 L 593.867,811.867 L 593.867,820.933 L 593.867,830 L 593.867,839.067 L 593.867,848.133 L 593.867,857.2 L 602.933,866.267 L 612,875.333 L 621.067,875.333 L 630.133,875.333 L 639.2,866.267 L 648.267,866.267 L 657.333,866.267 L 666.4,866.267 L 675.467,857.2 L 675.467,848.133 L 684.533,839.067 L 693.6,830 L 693.6,820.933 L 684.533,811.867 L 675.467,802.8 L 666.4,802.8 L 657.333,802.8 L 648.267,802.8 L 639.2,802.8 L 630.133,793.733 L 621.067,793.733 L 612,784.667 L 612,775.6 L 602.933,766.533 L 593.867,757.467 L 584.8,748.4 L 575.733,739.333 L 566.667,730.267 L 557.6,721.2 L 548.533,721.2 L 539.467,712.133 L 539.467,703.067 L 530.4,694 L 521.333,684.933 L 521.333,675.867 L 521.333,666.8 L 521.333,657.733 L 512.267,648.667 L 503.2,639.6 z " style="fill-opacity:0.5;fill:rgb(253,0,0);stroke:rgb(253,0,0);stroke-width:2"/></g>
<g fill-rule="evenodd"><path d="M 666.4,866.267 L 612,875.333 L 593.867,857.2 L 593.867,811.867 L 494.133,721.2 L 476,675.867 L 439.733,666.8 L 430.667,648.667 L 476,666.8 L 503.2,639.6 L 539.467,712.133 L 621.067,793.733 L 675.467,802.8 L 693.6,820.933 L 666.4,866.267 z " style="fill-opacity:0.5;fill:rgb(0,253,0);stroke:rgb(0,0,0);stroke-width:5"/></g>
<g fill-rule="evenodd"><path d="M 820.533,666.8 L 811.467,666.8 L 802.4,666.8 L 793.333,666.8 L 784.267,675.867 L 775.2,675.867 L 766.133,675.867 L 757.067,684.933 L 748,694 L 748,703.067 L 748,712.133 L 757.067,721.2 L 757.067,730.267 L 757.067,739.333 L 757.067,748.4 L 757.067,757.467 L 766.133,766.533 L 775.2,775.6 L 784.267,775.6 L 793.333,775.6 L 802.4,775.6 L 811.467,766.533 L 811.467,757.467 L 820.533,748.4 L 829.6,757.467 L 838.667,766.533 L 847.733,766.533 L 856.8,766.533 L 865.867,775.6 L 874.933,784.667 L 884,793.733 L 893.067,802.8 L 902.133,811.867 L 911.2,820.933 L 911.2,830 L 902.133,839.067 L 893.067,848.133 L 893.067,857.2 L 893.067,866.267 L 902.133,875.333 L 911.2,884.4 L 920.267,875.333 L 929.333,866.267 L 938.4,866.267 L 947.467,857.2 L 956.533,848.133 L 965.6,839.067 L 965.6,830 L 956.533,820.933 L 947.467,811.867 L 938.4,802.8 L 938.4,793.733 L 929.333,784.667 L 920.267,775.6 L 911.2,766.533 L 902.133,757.467 L 893.067,748.4 L 884,739.333 L 874.933,739.333 L 865.867,739.333 L 856.8,730.267 L 847.733,721.2 L 838.667,712.133 L 838.667,703.067 L 838.667,694 L 838.667,684.933 L 829.6,675.867 L 820.533,666.8 z " style="fill-opacity:0.5;fill:rgb(253,0,0);stroke:rgb(253,0,0);stroke-width:2"/></g>
<g fill-rule="evenodd"><path d="M 911.2,884.4 L 893.067,866.267 L 911.2,820.933 L 856.8,766.533 L 820.533,748.4 L 802.4,775.6 L 775.2,775.6 L 757.067,757.467 L 748,694 L 766.133,675.867 L 820.533,666.8 L 838.667,684.933 L 838.667,712.133 L 865.867,739.333 L 884,739.333 L 965.6,830 L 911.2,884.4 z " style="fill-opacity:0.5;fill:rgb(0,253,0);stroke:rgb(0,0,0);stroke-width:5"/></g>
</svg>
