<?xml version="1.0" standalone="no"?>
<!DOCTYPE svg PUBLIC "-//W3C//DTD SVG 1.1//EN"
"http://www.w3.org/Graphics/SVG/1.1/DTD/svg11.dtd">
<svg width="100%" height="100%" version="1.1"
xmlns="http://www.w3.org/2000/svg"
xmlns:xlink="http://www.w3.org/1999/xlink">
<g fill-rule="evenodd"><path d="M 1183.33,4.53333 L 1174.27,4.53333 L 1165.2,4.53333 L 1156.13,4.53333 L 1147.07,4.53333 L 1138,4.53333 L 1128.93,4.53333 L 1119.87,4.53333 L 1110.8,4.53333 L 1101.73,4.53333 L 1092.67,4.53333 L 1083.6,4.53333 L 1074.53,4.53333 L 1065.47,4.53333 L 1056.4,4.53333 L 1047.33,4.53333 L 1038.27,4.53333 L 1029.2,4.53333 L 1020.13,4.53333 L 1011.07,4.53333 L 1002,4.53333 L 992.933,4.53333 L 983.867,4.53333 L 974.8,4.53333 L 965.733,4.53333 L 956.667,4.53333 L 947.6,4.53333 L 938.533,4.53333 L 929.467,4.53333 L 920.4,4.53333 L 911.333,4.53333 L 902.267,4.53333 L 893.2,4.53333 L 884.133,4.53333 L 875.067,4.53333 L 866,4.53333 L 856.933,4.53333 L 847.867,4.53333 L 838.8,4.53333 L 829.733,4.53333 L 820.667,4.53333 L 811.6,4.53333 L 802.533,4.53333 L 793.467,4.53333 L 784.4,4.53333 L 775.333,4.53333 L 766.267,4.53333 L 757.2,4.53333 L 748.133,4.53333 L 739.067,4.53333 L 730,4.53333 L 720.933,4.53333 L 711.867,4.53333 L 702.8,4.53333 L 693.733,4.53333 L 684.667,4.53333 L 675.6,4.53333 L 666.533,4.53333 L 657.467,4.53333 L 648.4,4.53333 L 639.333,4.53333 L 630.267,4.53333 L 621.2,4.53333 L 612.133,4.53333 L 603.067,4.53333 L 594,4.53333 L 584.933,4.53333 L 575.867,4.53333 L 566.8,4.53333 L 557.733,4.53333 L 548.667,4.53333 L 539.6,4.53333 L 530.533,4.53333 L 521.467,4.53333 L 512.4,4.53333 L 503.333,4.53333 L 494.267,4.53333 L 485.2,4.53333 L 476.133,4.53333 L 467.067,4.53333 L 458,4.53333 L 448.933,4.53333 L 439.867,4.53333 L 430.8,4.53333 L 421.733,4.53333 L 412.667,4.53333 L 403.6,4.53333 L 394.533,4.53333 L 385.467,4.53333 L 376.4,4.53333 L 367.333,4.53333 L 358.267,4.53333 L 349.2,4.53333 L 340.133,4.53333 L 331.067,4.53333 L 322,4.53333 L 312.933,4.53333 L 303.867,4.53333 L 294.8,4.53333 L 285.733,4.53333 L 276.667,4.53333 L 267.6,4.53333 L 258.533,4.53333 L 249.467,4.53333 L 240.4,4.53333 L 231.333,4.53333 L 222.267,4.53333 L 213.2,4.53333 L 204.133,4.53333 L 195.067,4.53333 L 186,4.53333 L 176.933,4.53333 L 167.867,4.53333 L 158.8,4.53333 L 149.733,4.53333 L 140.667,4.53333 L 131.6,4.53333 L 122.533,4.53333 L 113.467,4.53333 L 104.4,4.53333 L 95.3333,4.53333 L 86.2667,4.53333 L 77.2,4.53333 L 68.1333,4.53333 L 59.0667,4.53333 L 50,4.53333 L 40.9333,4.53333 L 31.8667,4.53333 L 22.8,4.53333 L 13.7333,4.53333 L 4.66667,4.53333 L -4.4,4.53333 L -4.4,13.6 L -4.4,22.6667 L -4.4,31.7333 L -4.4,40.8 L -4.4,49.8667 L -4.4,58.9333 L -4.4,68 L -4.4,77.0667 L -4.4,86.1333 L -4.4,95.2 L -4.4,104.267 L -4.4,113.333 L -4.4,122.4 L -4.4,131.467 L -4.4,140.533 L -4.4,149.6 L -4.4,158.667 L -4.4,167.733 L -4.4,176.8 L -4.4,185.867 L -4.4,194.933 L -4.4,204 L -4.4,213.067 L -4.4,222.133 L -4.4,231.2 L -4.4,240.267 L -4.4,249.333 L -4.4,258.4 L -4.4,267.467 L -4.4,276.533 L -4.4,285.6 L -4.4,294.667 L -4.4,303.733 L -4.4,312.8 L -4.4,321.867 L -4.4,330.933 L -4.4,340 L -4.4,349.067 L -4.4,358.133 L -4.4,367.2 L -4.4,376.267 L -4.4,385.333 L -4.4,394.4 L -4.4,403.467 L -4.4,412.533 L -4.4,421.6 L -4.4,430.667 L -4.4,439.733 L -4.4,448.8 L -4.4,457.867 L -4.4,466.933 L -4.4,476 L -4.4,485.067 L -4.4,494.133 L -4.4,503.2 L -4.4,512.267 L -4.4,521.333 L -4.4,530.4 L -4.4,539.467 L -4.4,548.533 L -4.4,557.6 L -4.4,566.667 L -4.4,575.733 L -4.4,584.8 L -4.4,593.867 L -4.4,602.933 L -4.4,612 L -4.4,621.067 L -4.4,630.133 L -4.4,639.2 L -4.4,648.267 L -4.4,657.333 L -4.4,666.4 L -4.4,675.467 L -4.4,684.533 L -4.4,693.6 L -4.4,702.667 L -4.4,711.733 L -4.4,720.8 L -4.4,729.867 L -4.4,738.933 L -4.4,748 L -4.4,757.067 L -4.4,766.133 L -4.4,775.2 L -4.4,784.267 L -4.4,793.333 L -4.4,802.4 L -4.4,811.467 L -4.4,820.533 L -4.4,829.6 L -4.4,838.667 L -4.4,847.733 L -4.4,856.8 L -4.4,865.867 L -4.4,874.933 L -4.4,884 L -4.4,893.067 L -4.4,902.133 L -4.4,911.2 L -4.4,920.267 L -4.4,929.333 L -4.4,938.4 L -4.4,947.467 L -4.4,956.533 L -4.4,965.6 L -4.4,974.667 L -4.4,983.733 L -4.4,992.8 L -4.4,1001.87 L -4.4,1010.93 L -4.4,1020 L -4.4,1029.07 L -4.4,1038.13 L -4.4,1047.2 L -4.4,1056.27 L -4.4,1065.33 L -4.4,1074.4 L -4.4,1083.47 L -4.4,1092.53 L -4.4,1101.6 L -4.4,1110.67 L -4.4,1119.73 L -4.4,1128.8 L -4.4,1137.87 L -4.4,1146.93 L -4.4,1156 L -4.4,1165.07 L -4.4,1174.13 L -4.4,1183.2 L -4.4,1192.27 L -4.4,1201.33 L -4.4,1210.4 L -4.4,1219.47 L -4.4,1228.53 L 4.66667,1228.53 L 13.7333,1228.53 L 22.8,1228.53 L 31.8667,1228.53 L 40.9333,1228.53 L 50,1228.53 L 59.0667,1228.53 L 68.1333,1228.53 L 77.2,1228.53 L 86.2667,1228.53 L 95.3333,1228.53 L 104.4,1228.53 L 113.467,1228.53 L 122.533,1228.53 L 131.6,1228.53 L 140.667,1228.53 L 149.733,1228.53 L 158.8,1228.53 L 167.867,1228.53 L 176.933,1228.53 L 186,1228.53 L 195.067,1228.53 L 204.133,1228.53 L 213.2,1228.53 L 222.267,1228.53 L 231.333,1228.53 L 240.4,1228.53 L 249.467,1228.53 L 258.533,1228.53 L 267.6,1228.53 L 276.667,1228.53 L 285.733,1228.53 L 294.8,1228.53 L 303.867,1228.53 L 312.933,1228.53 L 322,1228.53 L 331.067,1228.53 L 340.133,1228.53 L 349.2,1228.53 L 358.267,1228.53 L 367.333,1228.53 L 376.4,1228.53 L 385.467,1228.53 L 394.533,1228.53 L 403.6,1228.53 L 412.667,1228.53 L 421.733,1228.53 L 430.8,1228.53 L 439.867,1228.53 L 448.933,1228.53 L 458,1228.53 L 467.067,1228.53 L 476.133,1228.53 L 485.2,1228.53 L 494.267,1228.53 L 503.333,1228.53 L 512.4,1228.53 L 521.467,1228.53 L 530.533,1228.53 L 539.6,1228.53 L 548.667,1228.53 L 557.733,1228.53 L 566.8,1228.53 L 575.867,1228.53 L 584.933,1228.53 L 594,1228.53 L 603.067,1228.53 L 612.133,1228.53 L 621.2,1228.53 L 630.267,1228.53 L 639.333,1228.53 L 648.4,1228.53 L 657.467,1228.53 L 666.533,1228.53 L 675.6,1228.53 L 684.667,1228.53 L 693.733,1228.53 L 702.8,1228.53 L 711.867,1228.53 L 720.933,1228.53 L 730,1228.53 L 739.067,1228.53 L 748.133,1228.53 L 757.2,1228.53 L 766.267,1228.53 L 775.333,1228.53 L 784.4,1228.53 L 793.467,1228.53 L 802.533,1228.53 L 811.6,1228.53 L 820.667,1228.53 L 829.733,1228.53 L 838.8,1228.53 L 847.867,1228.53 L 856.933,1228.53 L 866,1228.53 L 875.067,1228.53 L 884.133,1228.53 L 893.2,1228.53 L 902.267,1228.53 L 911.333,1228.53 L 920.4,1228.53 L 929.467,1228.53 L 938.533,1228.53 L 947.6,1228.53 L 956.667,1228.53 L 965.733,1228.53 L 974.8,1228.53 L 983.867,1228.53 L 992.933,1228.53 L 1002,1228.53 L 1011.07,1228.53 L 1020.13,1228.53 L 1029.2,1228.53 L 1038.27,1228.53 L 1047.33,1228.53 L 1056.4,1228.53 L 1065.47,1228.53 L 1074.53,1228.53 L 1083.6,1228.53 L 1092.67,1228.53 L 1101.73,1228.53 L 1110.8,1228.53 L 1119.87,1228.53 L 1128.93,1228.53 L 1138,1228.53 L 1147.07,1228.53 L 1156.13,1228.53 L 1165.2,1228.53 L 1174.27,1228.53 L 1183.33,1228.53 L 1183.33,1219.47 L 1183.33,1210.4 L 1183.33,1201.33 L 1183.33,1192.27 L 1183.33,1183.2 L 1183.33,1174.13 L 1183.33,1165.07 L 1183.33,1156 L 1183.33,1146.93 L 1183.33,1137.87 L 1183.33,1128.8 L 1183.33,1119.73 L 1183.33,1110.67 L 1183.33,1101.6 L 1183.33,1092.53 L 1183.33,1083.47 L 1183.33,1074.4 L 1183.33,1065.33 L 1183.33,1056.27 L 1183.33,1047.2 L 1183.33,1038.13 L 1183.33,1029.07 L 1183.33,1020 L 1183.33,1010.93 L 1183.33,1001.87 L 1183.33,992.8 L 1183.33,983.733 L 1183.33,974.667 L 1183.33,965.6 L 1183.33,956.533 L 1183.33,947.467 L 1183.33,938.4 L 1183.33,929.333 L 1183.33,920.267 L 1183.33,911.2 L 1183.33,902.133 L 1183.33,893.067 L 1183.33,884 L 1183.33,874.933 L 1183.33,865.867 L 1183.33,856.8 L 1183.33,847.733 L 1183.33,838.667 L 1183.33,829.6 L 1183.33,820.533 L 1183.33,811.467 L 1183.33,802.4 L 1183.33,793.333 L 1183.33,784.267 L 1183.33,775.2 L 1183.33,766.133 L 1183.33,757.067 L 1183.33,748 L 1183.33,738.933 L 1183.33,729.867 L 1183.33,720.8 L 1183.33,711.733 L 1183.33,702.667 L 1183.33,693.6 L 1183.33,684.533 L 1183.33,675.467 L 1183.33,666.4 L 1183.33,657.333 L 1183.33,648.267 L 1183.33,639.2 L 1183.33,630.133 L 1183.33,621.067 L 1183.33,612 L 1183.33,602.933 L 1183.33,593.867 L 1183.33,584.8 L 1183.33,575.733 L 1183.33,566.667 L 1183.33,557.6 L 1183.33,548.533 L 1183.33,539.467 L 1183.33,530.4 L 1183.33,521.333 L 1183.33,512.267 L 1183.33,503.2 L 1183.33,494.133 L 1183.33,485.067 L 1183.33,476 L 1183.33,466.933 L 1183.33,457.867 L 1183.33,448.8 L 1183.33,439.733 L 1183.33,430.667 L 1183.33,421.6 L 1183.33,412.533 L 1183.33,403.467 L 1183.33,394.4 L 1183.33,385.333 L 1183.33,376.267 L 1183.33,367.2 L 1183.33,358.133 L 1183.33,349.067 L 1183.33,340 L 1183.33,330.933 L 1183.33,321.867 L 1183.33,312.8 L 1183.33,303.733 L 1183.33,294.667 L 1183.33,285.6 L 1183.33,276.533 L 1183.33,267.467 L 1183.33,258.4 L 1183.33,249.333 L 1183.33,240.267 L 1183.33,231.2 L 1183.33,222.133 L 1183.33,213.067 L 1183.33,204 L 1183.33,194.933 L 1183.33,185.867 L 1183.33,176.8 L 1183.33,167.733 L 1183.33,158.667 L 1183.33,149.6 L 1183.33,140.533 L 1183.33,131.467 L 1183.33,122.4 L 1183.33,113.333 L 1183.33,104.267 L 1183.33,95.2 L 1183.33,86.1333 L 1183.33,77.0667 L 1183.33,68 L 1183.33,58.9333 L 1183.33,49.8667 L 1183.33,40.8 L 1183.33,31.7333 L 1183.33,22.6667 L 1183.33,13.6 L 1183.33,4.53333M 884.133,13.6 L 893.2,22.6667 L 902.267,22.6667 L 911.333,22.6667 L 920.4,31.7333 L 929.467,40.8 L 938.533,49.8667 L 947.6,58.9333 L 947.6,68 L 947.6,77.0667 L 938.533,86.1333 L 938.533,95.2 L 947.6,104.267 L 956.667,113.333 L 956.667,122.4 L 947.6,131.467 L 938.533,140.533 L 929.467,140.533 L 920.4,149.6 L 911.333,149.6 L 902.267,149.6 L 911.333,158.667 L 920.4,167.733 L 929.467,167.733 L 938.533,167.733 L 938.533,158.667 L 938.533,149.6 L 947.6,140.533 L 956.667,131.467 L 956.667,122.4 L 956.667,113.333 L 956.667,104.267 L 956.667,95.2 L 956.667,86.1333 L 956.667,77.0667 L 965.733,68 L 974.8,58.9333 L 983.867,49.8667 L 992.933,40.8 L 1002,40.8 L 1011.07,40.8 L 1020.13,31.7333 L 1029.2,40.8 L 1038.27,40.8 L 1047.33,31.7333 L 1056.4,40.8 L 1065.47,40.8 L 1074.53,40.8 L 1083.6,49.8667 L 1092.67,58.9333 L 1101.73,58.9333 L 1110.8,58.9333 L 1119.87,68 L 1128.93,77.0667 L 1138,77.0667 L 1147.07,86.1333 L 1156.13,95.2 L 1165.2,104.267 L 1165.2,113.333 L 1174.27,122.4 L 1183.33,131.467 L 1183.33,140.533 L 1183.33,149.6 L 1183.33,158.667 L 1183.33,167.733 L 1183.33,176.8 L 1183.33,185.867 L 1183.33,194.933 L 1183.33,204 L 1183.33,213.067 L 1183.33,222.133 L 1183.33,231.2 L 1183.33,240.267 L 1183.33,249.333 L 1183.33,258.4 L 1183.33,267.467 L 1174.27,276.533 L 1165.2,285.6 L 1156.13,285.6 L 1147.07,285.6 L 1138,294.667 L 1128.93,303.733 L 1119.87,303.733 L 1110.8,303.733 L 1101.73,312.8 L 1092.67,321.867 L 1083.6,321.867 L 1074.53,321.867 L 1065.47,330.933 L 1056.4,340 L 1047.33,340 L 1038.27,340 L 1029.2,340 L 1020.13,340 L 1011.07,340 L 1002,340 L 992.933,340 L 983.867,340 L 974.8,330.933 L 974.8,321.867 L 965.733,312.8 L 956.667,303.733 L 947.6,303.733 L 938.533,303.733 L 929.467,294.667 L 920.4,285.6 L 911.333,276.533 L 902.267,267.467 L 902.267,258.4 L 902.267,249.333 L 902.267,240.267 L 902.267,231.2 L 893.2,222.133 L 893.2,213.067 L 902.267,204 L 902.267,194.933 L 902.267,185.867 L 893.2,176.8 L 884.133,167.733 L 884.133,176.8 L 884.133,185.867 L 875.067,194.933 L 875.067,204 L 866,213.067 L 856.933,213.067 L 847.867,222.133 L 838.8,231.2 L 829.733,231.2 L 820.667,231.2 L 811.6,231.2 L 802.533,222.133 L 793.467,213.067 L 784.4,213.067 L 775.333,213.067 L 766.267,222.133 L 757.2,231.2 L 757.2,240.267 L 757.2,249.333 L 757.2,258.4 L 766.267,267.467 L 775.333,276.533 L 784.4,276.533 L 793.467,276.533 L 802.533,276.533 L 811.6,276.533 L 820.667,276.533 L 829.733,276.533 L 838.8,276.533 L 847.867,285.6 L 856.933,285.6 L 866,285.6 L 875.067,285.6 L 884.133,276.533 L 893.2,276.533 L 902.267,276.533 L 911.333,285.6 L 920.4,294.667 L 929.467,303.733 L 938.533,303.733 L 947.6,312.8 L 956.667,321.867 L 965.733,330.933 L 974.8,340 L 974.8,349.067 L 974.8,358.133 L 983.867,367.2 L 983.867,376.267 L 983.867,385.333 L 992.933,394.4 L 1002,403.467 L 1002,412.533 L 992.933,421.6 L 983.867,421.6 L 974.8,430.667 L 974.8,439.733 L 974.8,448.8 L 974.8,457.867 L 983.867,466.933 L 992.933,466.933 L 1002,466.933 L 1011.07,466.933 L 1020.13,457.867 L 1020.13,448.8 L 1029.2,439.733 L 1038.27,439.733 L 1047.33,439.733 L 1056.4,430.667 L 1065.47,421.6 L 1074.53,421.6 L 1083.6,421.6 L 1092.67,421.6 L 1101.73,430.667 L 1110.8,439.733 L 1119.87,439.733 L 1128.93,439.733 L 1138,448.8 L 1147.07,457.867 L 1156.13,466.933 L 1165.2,476 L 1165.2,485.067 L 1165.2,494.133 L 1174.27,503.2 L 1183.33,512.267 L 1183.33,521.333 L 1183.33,530.4 L 1183.33,539.467 L 1183.33,548.533 L 1183.33,557.6 L 1174.27,566.667 L 1165.2,575.733 L 1165.2,584.8 L 1165.2,593.867 L 1156.13,602.933 L 1147.07,612 L 1138,612 L 1128.93,612 L 1119.87,621.067 L 1110.8,630.133 L 1110.8,639.2 L 1110.8,648.267 L 1110.8,657.333 L 1110.8,666.4 L 1119.87,675.467 L 1128.93,684.533 L 1138,684.533 L 1147.07,693.6 L 1156.13,702.667 L 1156.13,711.733 L 1165.2,720.8 L 1174.27,729.867 L 1174.27,738.933 L 1165.2,748 L 1165.2,757.067 L 1165.2,766.133 L 1165.2,775.2 L 1156.13,784.267 L 1156.13,793.333 L 1147.07,802.4 L 1147.07,811.467 L 1147.07,820.533 L 1147.07,829.6 L 1147.07,838.667 L 1147.07,847.733 L 1156.13,856.8 L 1156.13,865.867 L 1156.13,874.933 L 1156.13,884 L 1156.13,893.067 L 1165.2,902.133 L 1165.2,911.2 L 1165.2,920.267 L 1174.27,929.333 L 1183.33,938.4 L 1183.33,947.467 L 1174.27,956.533 L 1165.2,965.6 L 1165.2,974.667 L 1156.13,983.733 L 1147.07,992.8 L 1138,992.8 L 1128.93,983.733 L 1119.87,992.8 L 1110.8,1001.87 L 1110.8,1010.93 L 1110.8,1020 L 1119.87,1020 L 1128.93,1020 L 1138,1029.07 L 1147.07,1038.13 L 1147.07,1047.2 L 1147.07,1056.27 L 1156.13,1065.33 L 1165.2,1074.4 L 1165.2,1083.47 L 1156.13,1092.53 L 1147.07,1101.6 L 1147.07,1110.67 L 1147.07,1119.73 L 1138,1128.8 L 1128.93,1137.87 L 1128.93,1146.93 L 1128.93,1156 L 1119.87,1165.07 L 1110.8,1174.13 L 1101.73,1174.13 L 1092.67,1174.13 L 1083.6,1183.2 L 1074.53,1192.27 L 1065.47,1192.27 L 1056.4,1192.27 L 1047.33,1201.33 L 1038.27,1210.4 L 1029.2,1210.4 L 1020.13,1210.4 L 1011.07,1219.47 L 1002,1228.53 L 992.933,1228.53 L 983.867,1228.53 L 974.8,1228.53 L 965.733,1219.47 L 956.667,1210.4 L 947.6,1210.4 L 938.533,1210.4 L 929.467,1201.33 L 920.4,1192.27 L 911.333,1192.27 L 902.267,1192.27 L 893.2,1192.27 L 884.133,1201.33 L 875.067,1210.4 L 866,1210.4 L 856.933,1210.4 L 847.867,1219.47 L 838.8,1228.53 L 829.733,1228.53 L 820.667,1219.47 L 811.6,1210.4 L 802.533,1210.4 L 793.467,1201.33 L 793.467,1192.27 L 793.467,1183.2 L 793.467,1174.13 L 793.467,1165.07 L 793.467,1156 L 793.467,1146.93 L 784.4,1137.87 L 775.333,1128.8 L 766.267,1119.73 L 757.2,1110.67 L 748.133,1101.6 L 739.067,1101.6 L 730,1101.6 L 720.933,1101.6 L 720.933,1110.67 L 720.933,1119.73 L 720.933,1128.8 L 711.867,1137.87 L 711.867,1146.93 L 711.867,1156 L 702.8,1165.07 L 693.733,1174.13 L 684.667,1183.2 L 675.6,1192.27 L 666.533,1201.33 L 657.467,1201.33 L 648.4,1210.4 L 639.333,1219.47 L 630.267,1219.47 L 621.2,1219.47 L 612.133,1219.47 L 603.067,1228.53 L 594,1228.53 L 584.933,1219.47 L 575.867,1219.47 L 566.8,1210.4 L 557.733,1201.33 L 548.667,1192.27 L 539.6,1183.2 L 530.533,1174.13 L 521.467,1165.07 L 512.4,1156 L 512.4,1146.93 L 512.4,1137.87 L 512.4,1128.8 L 512.4,1119.73 L 512.4,1110.67 L 512.4,1101.6 L 512.4,1092.53 L 512.4,1083.47 L 503.333,1074.4 L 494.267,1065.33 L 485.2,1056.27 L 476.133,1047.2 L 467.067,1038.13 L 458,1038.13 L 448.933,1047.2 L 439.867,1056.27 L 439.867,1065.33 L 439.867,1074.4 L 448.933,1083.47 L 448.933,1092.53 L 448.933,1101.6 L 448.933,1110.67 L 448.933,1119.73 L 448.933,1128.8 L 458,1137.87 L 448.933,1146.93 L 448.933,1156 L 458,1165.07 L 458,1174.13 L 448.933,1183.2 L 439.867,1192.27 L 430.8,1201.33 L 421.733,1210.4 L 412.667,1210.4 L 403.6,1210.4 L 394.533,1219.47 L 385.467,1228.53 L 376.4,1228.53 L 367.333,1228.53 L 358.267,1228.53 L 349.2,1228.53 L 340.133,1228.53 L 331.067,1228.53 L 322,1228.53 L 312.933,1228.53 L 303.867,1228.53 L 294.8,1219.47 L 285.733,1210.4 L 276.667,1210.4 L 267.6,1210.4 L 258.533,1201.33 L 249.467,1192.27 L 240.4,1183.2 L 231.333,1174.13 L 231.333,1165.07 L 231.333,1156 L 240.4,1146.93 L 240.4,1137.87 L 231.333,1128.8 L 222.267,1119.73 L 222.267,1110.67 L 231.333,1101.6 L 240.4,1092.53 L 249.467,1092.53 L 258.533,1083.47 L 267.6,1083.47 L 276.667,1083.47 L 267.6,1074.4 L 258.533,1065.33 L 249.467,1065.33 L 240.4,1065.33 L 240.4,1074.4 L 240.4,1083.47 L 231.333,1092.53 L 222.267,1101.6 L 222.267,1110.67 L 222.267,1119.73 L 222.267,1128.8 L 222.267,1137.87 L 222.267,1146.93 L 222.267,1156 L 213.2,1165.07 L 204.133,1174.13 L 195.067,1183.2 L 186,1192.27 L 176.933,1192.27 L 167.867,1192.27 L 158.8,1201.33 L 149.733,1192.27 L 140.667,1192.27 L 131.6,1201.33 L 122.533,1192.27 L 113.467,1192.27 L 104.4,1192.27 L 95.3333,1183.2 L 86.2667,1174.13 L 77.2,1174.13 L 68.1333,1174.13 L 59.0667,1165.07 L 50,1156 L 40.9333,1156 L 31.8667,1146.93 L 22.8,1137.87 L 13.7333,1128.8 L 13.7333,1119.73 L 4.66667,1110.67 L -4.4,1101.6 L -4.4,1092.53 L -4.4,1083.47 L -4.4,1074.4 L -4.4,1065.33 L -4.4,1056.27 L -4.4,1047.2 L -4.4,1038.13 L -4.4,1029.07 L -4.4,1020 L -4.4,1010.93 L -4.4,1001.87 L -4.4,992.8 L -4.4,983.733 L -4.4,974.667 L -4.4,965.6 L 4.66667,956.533 L 13.7333,947.467 L 22.8,947.467 L 31.8667,947.467 L 40.9333,938.4 L 50,929.333 L 59.0667,929.333 L 68.1333,929.333 L 77.2,920.267 L 86.2667,911.2 L 95.3333,911.2 L 104.4,911.2 L 113.467,902.133 L 122.533,893.067 L 131.6,893.067 L 140.667,893.067 L 149.733,893.067 L 158.8,893.067 L 167.867,893.067 L 176.933,893.067 L 186,893.067 L 195.067,893.067 L 204.133,902.133 L 204.133,911.2 L 213.2,920.267 L 222.267,929.333 L 231.333,929.333 L 240.4,929.333 L 249.467,938.4 L 258.533,947.467 L 267.6,956.533 L 276.667,965.6 L 276.667,974.667 L 276.667,983.733 L 276.667,992.8 L 276.667,1001.87 L 285.733,1010.93 L 285.733,1020 L 276.667,1029.07 L 276.667,1038.13 L 276.667,1047.2 L 285.733,1056.27 L 294.8,1065.33 L 294.8,1056.27 L 294.8,1047.2 L 303.867,1038.13 L 303.867,1029.07 L 312.933,1020 L 322,1020 L 331.067,1010.93 L 340.133,1001.87 L 349.2,1001.87 L 358.267,1001.87 L 367.333,1001.87 L 376.4,1010.93 L 385.467,1020 L 394.533,1020 L 403.6,1020 L 412.667,1010.93 L 421.733,1001.87 L 421.733,992.8 L 421.733,983.733 L 421.733,974.667 L 412.667,965.6 L 403.6,956.533 L 394.533,956.533 L 385.467,956.533 L 376.4,956.533 L 367.333,956.533 L 358.267,956.533 L 349.2,956.533 L 340.133,956.533 L 331.067,947.467 L 322,947.467 L 312.933,947.467 L 303.867,947.467 L 294.8,956.533 L 285.733,956.533 L 276.667,956.533 L 267.6,947.467 L 258.533,938.4 L 249.467,929.333 L 240.4,929.333 L 231.333,920.267 L 222.267,911.2 L 213.2,902.133 L 204.133,893.067 L 204.133,884 L 204.133,874.933 L 195.067,865.867 L 195.067,856.8 L 195.067,847.733 L 186,838.667 L 176.933,829.6 L 176.933,820.533 L 186,811.467 L 195.067,811.467 L 204.133,802.4 L 204.133,793.333 L 204.133,784.267 L 204.133,775.2 L 195.067,766.133 L 186,766.133 L 176.933,766.133 L 167.867,766.133 L 158.8,775.2 L 158.8,784.267 L 149.733,793.333 L 140.667,793.333 L 131.6,793.333 L 122.533,802.4 L 113.467,811.467 L 104.4,811.467 L 95.3333,811.467 L 86.2667,811.467 L 77.2,802.4 L 68.1333,793.333 L 59.0667,793.333 L 50,793.333 L 40.9333,784.267 L 31.8667,775.2 L 22.8,766.133 L 13.7333,757.067 L 13.7333,748 L 13.7333,738.933 L 4.66667,729.867 L -4.4,720.8 L -4.4,711.733 L -4.4,702.667 L -4.4,693.6 L -4.4,684.533 L -4.4,675.467 L 4.66667,666.4 L 13.7333,657.333 L 13.7333,648.267 L 13.7333,639.2 L 22.8,630.133 L 31.8667,621.067 L 40.9333,621.067 L 50,621.067 L 59.0667,612 L 68.1333,602.933 L 68.1333,593.867 L 68.1333,584.8 L 68.1333,575.733 L 68.1333,566.667 L 59.0667,557.6 L 50,548.533 L 40.9333,548.533 L 31.8667,539.467 L 22.8,530.4 L 22.8,521.333 L 13.7333,512.267 L 4.66667,503.2 L 4.66667,494.133 L 13.7333,485.067 L 13.7333,476 L 13.7333,466.933 L 13.7333,457.867 L 22.8,448.8 L 22.8,439.733 L 31.8667,430.667 L 31.8667,421.6 L 31.8667,412.533 L 31.8667,403.467 L 31.8667,394.4 L 31.8667,385.333 L 22.8,376.267 L 22.8,367.2 L 22.8,358.133 L 22.8,349.067 L 22.8,340 L 13.7333,330.933 L 13.7333,321.867 L 13.7333,312.8 L 4.66667,303.733 L -4.4,294.667 L -4.4,285.6 L 4.66667,276.533 L 13.7333,267.467 L 13.7333,258.4 L 22.8,249.333 L 31.8667,240.267 L 40.9333,240.267 L 50,249.333 L 59.0667,240.267 L 68.1333,231.2 L 68.1333,222.133 L 68.1333,213.067 L 59.0667,213.067 L 50,213.067 L 40.9333,204 L 31.8667,194.933 L 31.8667,185.867 L 31.8667,176.8 L 22.8,167.733 L 13.7333,158.667 L 13.7333,149.6 L 22.8,140.533 L 31.8667,131.467 L 31.8667,122.4 L 31.8667,113.333 L 40.9333,104.267 L 50,95.2 L 50,86.1333 L 50,77.0667 L 59.0667,68 L 68.1333,58.9333 L 77.2,58.9333 L 86.2667,58.9333 L 95.3333,49.8667 L 104.4,40.8 L 113.467,40.8 L 122.533,40.8 L 131.6,31.7333 L 140.667,22.6667 L 149.733,22.6667 L 158.8,22.6667 L 167.867,13.6 L 176.933,4.53333 L 186,4.53333 L 195.067,4.53333 L 204.133,4.53333 L 213.2,13.6 L 222.267,22.6667 L 231.333,22.6667 L 240.4,22.6667 L 249.467,31.7333 L 258.533,40.8 L 267.6,40.8 L 276.667,40.8 L 285.733,40.8 L 294.8,31.7333 L 303.867,22.6667 L 312.933,22.6667 L 322,22.6667 L 331.067,13.6 L 340.133,4.53333 L 349.2,4.53333 L 358.267,13.6 L 367.333,22.6667 L 376.4,22.6667 L 385.467,31.7333 L 385.467,40.8 L 385.467,49.8667 L 385.467,58.9333 L 385.467,68 L 385.467,77.0667 L 385.467,86.1333 L 394.533,95.2 L 403.6,104.267 L 412.667,113.333 L 421.733,122.4 L 430.8,131.467 L 439.867,131.467 L 448.933,131.467 L 458,131.467 L 458,122.4 L 458,113.333 L 458,104.267 L 467.067,95.2 L 467.067,86.1333 L 467.067,77.0667 L 476.133,68 L 485.2,58.9333 L 494.267,49.8667 L 503.333,40.8 L 512.4,31.7333 L 521.467,31.7333 L 530.533,22.6667 L 539.6,13.6 L 548.667,13.6 L 557.733,13.6 L 566.8,13.6 L 575.867,4.53333 L 584.933,4.53333 L 594,13.6 L 603.067,13.6 L 612.133,22.6667 L 621.2,31.7333 L 630.267,40.8 L 639.333,49.8667 L 648.4,58.9333 L 657.467,68 L 666.533,77.0667 L 666.533,86.1333 L 666.533,95.2 L 666.533,104.267 L 666.533,113.333 L 666.533,122.4 L 666.533,131.467 L 666.533,140.533 L 666.533,149.6 L 675.6,158.667 L 684.667,167.733 L 693.733,176.8 L 702.8,185.867 L 711.867,194.933 L 720.933,194.933 L 730,185.867 L 739.067,176.8 L 739.067,167.733 L 739.067,158.667 L 730,149.6 L 730,140.533 L 730,131.467 L 730,122.4 L 730,113.333 L 730,104.267 L 720.933,95.2 L 730,86.1333 L 730,77.0667 L 720.933,68 L 720.933,58.9333 L 730,49.8667 L 739.067,40.8 L 748.133,31.7333 L 757.2,22.6667 L 766.267,22.6667 L 775.333,22.6667 L 784.4,13.6 L 793.467,4.53333 L 802.533,4.53333 L 811.6,4.53333 L 820.667,4.53333 L 829.733,4.53333 L 838.8,4.53333 L 847.867,4.53333 L 856.933,4.53333 L 866,4.53333 L 875.067,4.53333 L 884.133,13.6 z " style="fill-opacity:0.5;fill:rgb(253,0,0);stroke:rgb(253,0,0);stroke-width:2"/></g>
<g fill-rule="evenodd"><path d="M -4.4,1228.53 L -4.4,4.53333 L 1183.33,4.53333 L 1183.33,1228.53 L -4.4,1228.53M 40.9333,1156 L 131.6,1201.33 L 186,1192.27 L 222.267,1156 L 222.267,1101.6 L 240.4,1065.33 L 258.533,1065.33 L 276.667,1083.47 L 222.267,1110.67 L 240.4,1137.87 L 231.333,1174.13 L 303.867,1228.53 L 385.467,1228.53 L 458,1174.13 L 439.867,1056.27 L 467.067,1038.13 L 512.4,1083.47 L 512.4,1156 L 594,1228.53 L 666.533,1201.33 L 711.867,1156 L 720.933,1101.6 L 748.133,1101.6 L 793.467,1146.93 L 793.467,1201.33 L 829.733,1228.53 L 893.2,1192.27 L 1002,1228.53 L 1110.8,1174.13 L 1165.2,1083.47 L 1147.07,1038.13 L 1110.8,1020 L 1110.8,1001.87 L 1128.93,983.733 L 1147.07,992.8 L 1183.33,947.467 L 1147.07,847.733 L 1147.07,802.4 L 1174.27,729.867 L 1110.8,666.4 L 1110.8,630.133 L 1165.2,593.867 L 1183.33,557.6 L 1183.33,512.267 L 1165.2,476 L 1092.67,421.6 L 1029.2,439.733 L 1011.07,466.933 L 983.867,466.933 L 974.8,430.667 L 1002,403.467 L 983.867,385.333 L 974.8,340 L 902.267,276.533 L 775.333,276.533 L 757.2,258.4 L 757.2,231.2 L 775.333,213.067 L 838.8,231.2 L 875.067,204 L 884.133,167.733 L 902.267,185.867 L 902.267,267.467 L 983.867,340 L 1056.4,340 L 1183.33,267.467 L 1183.33,131.467 L 1165.2,104.267 L 1110.8,58.9333 L 1020.13,31.7333 L 956.667,77.0667 L 956.667,131.467 L 938.533,167.733 L 920.4,167.733 L 902.267,149.6 L 956.667,122.4 L 938.533,95.2 L 947.6,58.9333 L 875.067,4.53333 L 793.467,4.53333 L 720.933,58.9333 L 739.067,176.8 L 711.867,194.933 L 666.533,149.6 L 666.533,77.0667 L 584.933,4.53333 L 512.4,31.7333 L 467.067,77.0667 L 458,131.467 L 430.8,131.467 L 385.467,86.1333 L 385.467,31.7333 L 349.2,4.53333 L 285.733,40.8 L 176.933,4.53333 L 68.1333,58.9333 L 13.7333,149.6 L 31.8667,194.933 L 68.1333,213.067 L 68.1333,231.2 L 50,249.333 L 31.8667,240.267 L -4.4,285.6 L 31.8667,385.333 L 31.8667,430.667 L 4.66667,503.2 L 68.1333,566.667 L 68.1333,602.933 L 13.7333,639.2 L -4.4,675.467 L -4.4,720.8 L 13.7333,757.067 L 86.2667,811.467 L 113.467,811.467 L 149.733,793.333 L 167.867,766.133 L 195.067,766.133 L 204.133,802.4 L 176.933,829.6 L 195.067,847.733 L 204.133,893.067 L 276.667,956.533 L 403.6,956.533 L 421.733,974.667 L 421.733,1001.87 L 403.6,1020 L 340.133,1001.87 L 303.867,1029.07 L 294.8,1065.33 L 276.667,1047.2 L 276.667,965.6 L 195.067,893.067 L 122.533,893.067 L -4.4,965.6 L -4.4,1101.6 L 40.9333,1156 z " style="fill-opacity:0.5;fill:rgb(0,253,0);stroke:rgb(0,0,0);stroke-width:5"/></g>
<g fill-rule="evenodd"><path d="M 331.067,140.533 L 322,140.533 L 312.933,140.533 L 312.933,149.6 L 312.933,158.667 L 312.933,167.733 L 312.933,176.8 L 303.867,185.867 L 294.8,194.933 L 285.733,194.933 L 276.667,194.933 L 267.6,204 L 258.533,213.067 L 249.467,213.067 L 240.4,213.067 L 231.333,222.133 L 222.267,231.2 L 213.2,240.267 L 204.133,249.333 L 204.133,258.4 L 204.133,267.467 L 195.067,276.533 L 186,285.6 L 176.933,294.667 L 167.867,303.733 L 158.8,303.733 L 149.733,294.667 L 140.667,285.6 L 131.6,285.6 L 122.533,285.6 L 113.467,294.667 L 104.4,303.733 L 104.4,312.8 L 113.467,312.8 L 122.533,312.8 L 131.6,312.8 L 140.667,321.867 L 149.733,321.867 L 158.8,321.867 L 167.867,321.867 L 176.933,312.8 L 186,312.8 L 195.067,312.8 L 204.133,303.733 L 204.133,294.667 L 213.2,285.6 L 213.2,276.533 L 222.267,267.467 L 222.267,258.4 L 222.267,249.333 L 231.333,240.267 L 240.4,231.2 L 249.467,231.2 L 258.533,231.2 L 267.6,222.133 L 276.667,222.133 L 285.733,213.067 L 294.8,213.067 L 303.867,213.067 L 312.933,204 L 322,194.933 L 331.067,185.867 L 340.133,185.867 L 349.2,185.867 L 358.267,185.867 L 358.267,176.8 L 358.267,167.733 L 349.2,158.667 L 340.133,149.6 L 331.067,140.533 z " style="fill-opacity:0.5;fill:rgb(253,0,0);stroke:rgb(253,0,0);stroke-width:2"/></g>
<g fill-rule="evenodd"><path d="M 104.4,312.8 L 122.533,285.6 L 167.867,303.733 L 240.4,213.067 L 312.933,176.8 L 312.933,140.533 L 331.067,140.533 L 358.267,167.733 L 358.267,185.867 L 331.067,185.867 L 303.867,213.067 L 240.4,231.2 L 195.067,312.8 L 104.4,312.8 z " style="fill-opacity:0.5;fill:rgb(0,253,0);stroke:rgb(0,0,0);stroke-width:5"/></g>
<g fill-rule="evenodd"><path d="M 548.667,231.2 L 539.6,231.2 L 530.533,231.2 L 521.467,231.2 L 512.4,231.2 L 503.333,231.2 L 494.267,231.2 L 485.2,231.2 L 476.133,231.2 L 467.067,231.2 L 458,231.2 L 448.933,231.2 L 439.867,231.2 L 430.8,240.267 L 421.733,240.267 L 421.733,249.333 L 412.667,258.4 L 412.667,267.467 L 412.667,276.533 L 412.667,285.6 L 412.667,294.667 L 412.667,303.733 L 412.667,312.8 L 421.733,321.867 L 430.8,330.933 L 430.8,340 L 430.8,349.067 L 439.867,358.133 L 448.933,367.2 L 448.933,376.267 L 448.933,385.333 L 458,394.4 L 458,403.467 L 458,412.533 L 467.067,421.6 L 476.133,430.667 L 485.2,430.667 L 494.267,421.6 L 503.333,412.533 L 503.333,403.467 L 503.333,394.4 L 494.267,394.4 L 485.2,394.4 L 476.133,394.4 L 467.067,394.4 L 458,385.333 L 448.933,376.267 L 448.933,367.2 L 448.933,358.133 L 439.867,349.067 L 430.8,340 L 430.8,330.933 L 439.867,321.867 L 448.933,312.8 L 458,303.733 L 467.067,303.733 L 476.133,294.667 L 476.133,285.6 L 485.2,276.533 L 494.267,276.533 L 503.333,276.533 L 512.4,276.533 L 521.467,276.533 L 530.533,276.533 L 539.6,267.467 L 548.667,258.4 L 548.667,249.333 L 548.667,240.267 L 548.667,231.2 z " style="fill-opacity:0.5;fill:rgb(253,0,0);stroke:rgb(253,0,0);stroke-width:2"/></g>
<g fill-rule="evenodd"><path d="M 476.133,430.667 L 412.667,312.8 L 412.667,258.4 L 439.867,231.2 L 548.667,231.2 L 548.667,258.4 L 530.533,276.533 L 485.2,276.533 L 430.8,330.933 L 467.067,394.4 L 503.333,394.4 L 503.333,412.533 L 476.133,430.667 z " style="fill-opacity:0.5;fill:rgb(0,253,0);stroke:rgb(0,0,0);stroke-width:5"/></g>
<g fill-rule="evenodd"><path d="M 675.6,303.733 L 666.533,303.733 L 657.467,303.733 L 648.4,303.733 L 639.333,303.733 L 630.267,303.733 L 621.2,303.733 L 612.133,312.8 L 603.067,312.8 L 594,321.867 L 584.933,330.933 L 584.933,340 L 584.933,349.067 L 594,349.067 L 603.067,349.067 L 612.133,358.133 L 621.2,367.2 L 630.267,376.267 L 639.333,385.333 L 648.4,385.333 L 657.467,385.333 L 666.533,385.333 L 675.6,376.267 L 684.667,367.2 L 693.733,367.2 L 702.8,367.2 L 711.867,358.133 L 720.933,349.067 L 720.933,340 L 720.933,330.933 L 711.867,321.867 L 702.8,312.8 L 693.733,312.8 L 684.667,312.8 L 675.6,303.733 z " style="fill-opacity:0.5;fill:rgb(253,0,0);stroke:rgb(253,0,0);stroke-width:2"/></g>
<g fill-rule="evenodd"><path d="M 584.933,349.067 L 584.933,330.933 L 621.2,303.733 L 675.6,303.733 L 720.933,330.933 L 720.933,349.067 L 666.533,385.333 L 639.333,385.333 L 603.067,349.067 L 584.933,349.067 z " style="fill-opacity:0.5;fill:rgb(0,253,0);stroke:rgb(0,0,0);stroke-width:5"/></g>
<g fill-rule="evenodd"><path d="M 367.333,385.333 L 358.267,385.333 L 349.2,385.333 L 340.133,385.333 L 340.133,394.4 L 340.133,403.467 L 340.133,412.533 L 349.2,412.533 L 358.267,412.533 L 367.333,412.533 L 367.333,403.467 L 367.333,394.4 L 367.333,385.333 z " style="fill-opacity:0.5;fill:rgb(253,0,0);stroke:rgb(253,0,0);stroke-width:2"/></g>
<g fill-rule="evenodd"><path d="M 340.133,412.533 L 340.133,385.333 L 367.333,385.333 L 367.333,412.533 L 340.133,412.533 z " style="fill-opacity:0.5;fill:rgb(0,253,0);stroke:rgb(0,0,0);stroke-width:5"/></g>
<g fill-rule="evenodd"><path d="M 231.333,403.467 L 222.267,403.467 L 213.2,403.467 L 204.133,403.467 L 195.067,403.467 L 186,403.467 L 176.933,403.467 L 167.867,403.467 L 158.8,403.467 L 149.733,403.467 L 140.667,412.533 L 131.6,421.6 L 131.6,430.667 L 131.6,439.733 L 122.533,448.8 L 122.533,457.867 L 113.467,466.933 L 113.467,476 L 104.4,485.067 L 104.4,494.133 L 113.467,503.2 L 122.533,512.267 L 131.6,512.267 L 140.667,521.333 L 149.733,530.4 L 158.8,539.467 L 167.867,539.467 L 176.933,539.467 L 186,539.467 L 195.067,530.4 L 195.067,521.333 L 204.133,512.267 L 204.133,503.2 L 204.133,494.133 L 204.133,485.067 L 213.2,476 L 222.267,476 L 231.333,476 L 240.4,466.933 L 249.467,457.867 L 258.533,457.867 L 267.6,448.8 L 276.667,439.733 L 276.667,430.667 L 276.667,421.6 L 276.667,412.533 L 267.6,412.533 L 258.533,412.533 L 249.467,412.533 L 240.4,412.533 L 231.333,403.467 z " style="fill-opacity:0.5;fill:rgb(253,0,0);stroke:rgb(253,0,0);stroke-width:2"/></g>
<g fill-rule="evenodd"><path d="M 104.4,494.133 L 149.733,403.467 L 276.667,412.533 L 276.667,439.733 L 204.133,485.067 L 186,539.467 L 158.8,539.467 L 104.4,494.133 z " style="fill-opacity:0.5;fill:rgb(0,253,0);stroke:rgb(0,0,0);stroke-width:5"/></g>
<g fill-rule="evenodd"><path d="M 793.467,430.667 L 784.4,430.667 L 775.333,430.667 L 766.267,430.667 L 757.2,430.667 L 748.133,430.667 L 739.067,439.733 L 730,448.8 L 730,457.867 L 730,466.933 L 739.067,476 L 748.133,485.067 L 757.2,485.067 L 766.267,485.067 L 775.333,485.067 L 784.4,485.067 L 793.467,485.067 L 802.533,494.133 L 811.6,503.2 L 820.667,512.267 L 829.733,521.333 L 838.8,530.4 L 847.867,539.467 L 856.933,548.533 L 866,557.6 L 856.933,566.667 L 856.933,575.733 L 856.933,584.8 L 847.867,593.867 L 847.867,602.933 L 847.867,612 L 838.8,621.067 L 838.8,630.133 L 838.8,639.2 L 829.733,648.267 L 829.733,657.333 L 820.667,666.4 L 820.667,675.467 L 820.667,684.533 L 820.667,693.6 L 820.667,702.667 L 820.667,711.733 L 829.733,720.8 L 838.8,711.733 L 847.867,702.667 L 847.867,693.6 L 856.933,684.533 L 866,675.467 L 875.067,666.4 L 884.133,657.333 L 884.133,648.267 L 893.2,639.2 L 902.267,639.2 L 911.333,639.2 L 920.4,639.2 L 929.467,630.133 L 938.533,621.067 L 947.6,612 L 956.667,612 L 956.667,602.933 L 956.667,593.867 L 956.667,584.8 L 956.667,575.733 L 947.6,566.667 L 938.533,557.6 L 938.533,548.533 L 938.533,539.467 L 929.467,539.467 L 920.4,539.467 L 911.333,539.467 L 902.267,539.467 L 893.2,539.467 L 884.133,530.4 L 884.133,521.333 L 875.067,512.267 L 866,503.2 L 856.933,494.133 L 847.867,485.067 L 838.8,476 L 829.733,466.933 L 820.667,466.933 L 811.6,457.867 L 811.6,448.8 L 802.533,439.733 L 793.467,430.667 z " style="fill-opacity:0.5;fill:rgb(253,0,0);stroke:rgb(253,0,0);stroke-width:2"/></g>
<g fill-rule="evenodd"><path d="M 829.733,720.8 L 820.667,666.4 L 866,557.6 L 793.467,485.067 L 748.133,485.067 L 730,466.933 L 748.133,430.667 L 793.467,430.667 L 893.2,539.467 L 938.533,539.467 L 956.667,575.733 L 956.667,612 L 920.4,639.2 L 893.2,639.2 L 829.733,720.8 z " style="fill-opacity:0.5;fill:rgb(0,253,0);stroke:rgb(0,0,0);stroke-width:5"/></g>
<g fill-rule="evenodd"><path d="M 566.8,448.8 L 557.733,448.8 L 548.667,448.8 L 539.6,448.8 L 530.533,457.867 L 530.533,466.933 L 530.533,476 L 530.533,485.067 L 539.6,494.133 L 548.667,494.133 L 557.733,503.2 L 566.8,503.2 L 575.867,512.267 L 584.933,521.333 L 594,530.4 L 594,539.467 L 594,548.533 L 603.067,557.6 L 603.067,566.667 L 612.133,575.733 L 621.2,575.733 L 630.267,575.733 L 639.333,575.733 L 648.4,575.733 L 657.467,575.733 L 666.533,566.667 L 675.6,557.6 L 684.667,548.533 L 693.733,539.467 L 684.667,530.4 L 675.6,521.333 L 666.533,521.333 L 657.467,512.267 L 648.4,512.267 L 639.333,512.267 L 630.267,512.267 L 621.2,512.267 L 612.133,503.2 L 603.067,494.133 L 594,485.067 L 584.933,485.067 L 575.867,476 L 575.867,466.933 L 575.867,457.867 L 566.8,448.8 z " style="fill-opacity:0.5;fill:rgb(253,0,0);stroke:rgb(253,0,0);stroke-width:2"/></g>
<g fill-rule="evenodd"><path d="M 693.733,539.467 L 657.467,575.733 L 612.133,575.733 L 594,530.4 L 530.533,485.067 L 530.533,457.867 L 566.8,448.8 L 575.867,476 L 621.2,512.267 L 657.467,512.267 L 693.733,539.467 z " style="fill-opacity:0.5;fill:rgb(0,253,0);stroke:rgb(0,0,0);stroke-width:5"/></g>
<g fill-rule="evenodd"><path d="M 349.2,512.267 L 340.133,521.333 L 331.067,530.4 L 331.067,539.467 L 322,548.533 L 312.933,557.6 L 303.867,566.667 L 294.8,575.733 L 294.8,584.8 L 285.733,593.867 L 276.667,593.867 L 267.6,593.867 L 258.533,593.867 L 249.467,602.933 L 240.4,612 L 231.333,621.067 L 222.267,621.067 L 222.267,630.133 L 222.267,639.2 L 222.267,648.267 L 222.267,657.333 L 231.333,666.4 L 240.4,675.467 L 240.4,684.533 L 240.4,693.6 L 249.467,693.6 L 258.533,693.6 L 267.6,693.6 L 276.667,693.6 L 285.733,693.6 L 294.8,702.667 L 294.8,711.733 L 303.867,720.8 L 312.933,729.867 L 322,738.933 L 331.067,748 L 340.133,757.067 L 349.2,766.133 L 358.267,766.133 L 367.333,775.2 L 367.333,784.267 L 376.4,793.333 L 385.467,802.4 L 394.533,802.4 L 403.6,802.4 L 412.667,802.4 L 421.733,802.4 L 430.8,802.4 L 439.867,793.333 L 448.933,784.267 L 448.933,775.2 L 448.933,766.133 L 439.867,757.067 L 430.8,748 L 421.733,748 L 412.667,748 L 403.6,748 L 394.533,748 L 385.467,748 L 376.4,738.933 L 367.333,729.867 L 358.267,720.8 L 349.2,711.733 L 340.133,702.667 L 331.067,693.6 L 322,684.533 L 312.933,675.467 L 322,666.4 L 322,657.333 L 322,648.267 L 331.067,639.2 L 331.067,630.133 L 331.067,621.067 L 340.133,612 L 340.133,602.933 L 340.133,593.867 L 349.2,584.8 L 349.2,575.733 L 358.267,566.667 L 358.267,557.6 L 358.267,548.533 L 358.267,539.467 L 358.267,530.4 L 358.267,521.333 L 349.2,512.267 z " style="fill-opacity:0.5;fill:rgb(253,0,0);stroke:rgb(253,0,0);stroke-width:2"/></g>
<g fill-rule="evenodd"><path d="M 430.8,802.4 L 385.467,802.4 L 285.733,693.6 L 240.4,693.6 L 222.267,657.333 L 222.267,621.067 L 258.533,593.867 L 285.733,593.867 L 349.2,512.267 L 358.267,566.667 L 312.933,675.467 L 385.467,748 L 430.8,748 L 448.933,766.133 L 430.8,802.4 z " style="fill-opacity:0.5;fill:rgb(0,253,0);stroke:rgb(0,0,0);stroke-width:5"/></g>
<g fill-rule="evenodd"><path d="M 494.267,584.8 L 485.2,584.8 L 476.133,584.8 L 467.067,584.8 L 458,593.867 L 448.933,602.933 L 448.933,612 L 448.933,621.067 L 448.933,630.133 L 458,630.133 L 467.067,630.133 L 476.133,630.133 L 485.2,621.067 L 494.267,612 L 494.267,602.933 L 494.267,593.867 L 494.267,584.8 z " style="fill-opacity:0.5;fill:rgb(253,0,0);stroke:rgb(253,0,0);stroke-width:2"/></g>
<g fill-rule="evenodd"><path d="M 448.933,630.133 L 448.933,602.933 L 467.067,584.8 L 494.267,584.8 L 494.267,612 L 476.133,630.133 L 448.933,630.133 z " style="fill-opacity:0.5;fill:rgb(0,253,0);stroke:rgb(0,0,0);stroke-width:5"/></g>
<g fill-rule="evenodd"><path d="M 730,602.933 L 720.933,602.933 L 711.867,602.933 L 702.8,602.933 L 693.733,612 L 684.667,621.067 L 684.667,630.133 L 684.667,639.2 L 684.667,648.267 L 693.733,648.267 L 702.8,648.267 L 711.867,648.267 L 720.933,639.2 L 730,630.133 L 730,621.067 L 730,612 L 730,602.933 z " style="fill-opacity:0.5;fill:rgb(253,0,0);stroke:rgb(253,0,0);stroke-width:2"/></g>
<g fill-rule="evenodd"><path d="M 684.667,648.267 L 684.667,621.067 L 702.8,602.933 L 730,602.933 L 730,630.133 L 711.867,648.267 L 684.667,648.267 z " style="fill-opacity:0.5;fill:rgb(0,253,0);stroke:rgb(0,0,0);stroke-width:5"/></g>
<g fill-rule="evenodd"><path d="M 566.8,657.333 L 557.733,657.333 L 548.667,657.333 L 539.6,657.333 L 530.533,657.333 L 521.467,657.333 L 512.4,666.4 L 503.333,675.467 L 494.267,684.533 L 485.2,693.6 L 494.267,702.667 L 503.333,711.733 L 512.4,711.733 L 521.467,720.8 L 530.533,720.8 L 539.6,720.8 L 548.667,720.8 L 557.733,720.8 L 566.8,729.867 L 575.867,738.933 L 584.933,748 L 594,748 L 603.067,757.067 L 603.067,766.133 L 603.067,775.2 L 612.133,784.267 L 621.2,784.267 L 630.267,784.267 L 639.333,784.267 L 648.4,775.2 L 648.4,766.133 L 648.4,757.067 L 648.4,748 L 639.333,738.933 L 630.267,738.933 L 621.2,729.867 L 612.133,729.867 L 603.067,720.8 L 594,711.733 L 584.933,702.667 L 584.933,693.6 L 584.933,684.533 L 575.867,675.467 L 575.867,666.4 L 566.8,657.333 z " style="fill-opacity:0.5;fill:rgb(253,0,0);stroke:rgb(253,0,0);stroke-width:2"/></g>
<g fill-rule="evenodd"><path d="M 639.333,784.267 L 612.133,784.267 L 603.067,757.067 L 557.733,720.8 L 521.467,720.8 L 485.2,693.6 L 521.467,657.333 L 566.8,657.333 L 584.933,702.667 L 648.4,748 L 639.333,784.267 z " style="fill-opacity:0.5;fill:rgb(0,253,0);stroke:rgb(0,0,0);stroke-width:5"/></g>
<g fill-rule="evenodd"><path d="M 1020.13,693.6 L 1011.07,693.6 L 1002,693.6 L 992.933,693.6 L 983.867,702.667 L 983.867,711.733 L 974.8,720.8 L 974.8,729.867 L 974.8,738.933 L 974.8,748 L 965.733,757.067 L 956.667,757.067 L 947.6,757.067 L 938.533,766.133 L 929.467,775.2 L 920.4,775.2 L 911.333,784.267 L 902.267,793.333 L 902.267,802.4 L 902.267,811.467 L 902.267,820.533 L 911.333,820.533 L 920.4,820.533 L 929.467,820.533 L 938.533,820.533 L 947.6,829.6 L 956.667,829.6 L 965.733,829.6 L 974.8,829.6 L 983.867,829.6 L 992.933,829.6 L 1002,829.6 L 1011.07,829.6 L 1020.13,829.6 L 1029.2,829.6 L 1038.27,820.533 L 1047.33,811.467 L 1047.33,802.4 L 1047.33,793.333 L 1056.4,784.267 L 1056.4,775.2 L 1065.47,766.133 L 1065.47,757.067 L 1074.53,748 L 1074.53,738.933 L 1065.47,729.867 L 1056.4,720.8 L 1047.33,720.8 L 1038.27,711.733 L 1029.2,702.667 L 1020.13,693.6 z " style="fill-opacity:0.5;fill:rgb(253,0,0);stroke:rgb(253,0,0);stroke-width:2"/></g>
<g fill-rule="evenodd"><path d="M 902.267,820.533 L 902.267,793.333 L 974.8,748 L 992.933,693.6 L 1020.13,693.6 L 1074.53,738.933 L 1029.2,829.6 L 902.267,820.533 z " style="fill-opacity:0.5;fill:rgb(0,253,0);stroke:rgb(0,0,0);stroke-width:5"/></g>
<g fill-rule="evenodd"><path d="M 702.8,802.4 L 693.733,802.4 L 684.667,811.467 L 675.6,820.533 L 675.6,829.6 L 675.6,838.667 L 684.667,838.667 L 693.733,838.667 L 702.8,838.667 L 711.867,838.667 L 720.933,847.733 L 730,856.8 L 730,865.867 L 730,874.933 L 739.067,884 L 748.133,893.067 L 748.133,902.133 L 739.067,911.2 L 730,920.267 L 720.933,929.333 L 711.867,929.333 L 702.8,938.4 L 702.8,947.467 L 693.733,956.533 L 684.667,956.533 L 675.6,956.533 L 666.533,956.533 L 657.467,956.533 L 648.4,956.533 L 639.333,965.6 L 630.267,974.667 L 630.267,983.733 L 630.267,992.8 L 630.267,1001.87 L 639.333,1001.87 L 648.4,1001.87 L 657.467,1001.87 L 666.533,1001.87 L 675.6,1001.87 L 684.667,1001.87 L 693.733,1001.87 L 702.8,1001.87 L 711.867,1001.87 L 720.933,1001.87 L 730,1001.87 L 739.067,1001.87 L 748.133,992.8 L 757.2,992.8 L 757.2,983.733 L 766.267,974.667 L 766.267,965.6 L 766.267,956.533 L 766.267,947.467 L 766.267,938.4 L 766.267,929.333 L 766.267,920.267 L 757.2,911.2 L 748.133,902.133 L 748.133,893.067 L 748.133,884 L 739.067,874.933 L 730,865.867 L 730,856.8 L 730,847.733 L 720.933,838.667 L 720.933,829.6 L 720.933,820.533 L 711.867,811.467 L 702.8,802.4 z " style="fill-opacity:0.5;fill:rgb(253,0,0);stroke:rgb(253,0,0);stroke-width:2"/></g>
<g fill-rule="evenodd"><path d="M 630.267,1001.87 L 630.267,974.667 L 648.4,956.533 L 693.733,956.533 L 748.133,902.133 L 711.867,838.667 L 675.6,838.667 L 675.6,820.533 L 702.8,802.4 L 766.267,920.267 L 766.267,974.667 L 739.067,1001.87 L 630.267,1001.87 z " style="fill-opacity:0.5;fill:rgb(0,253,0);stroke:rgb(0,0,0);stroke-width:5"/></g>
<g fill-rule="evenodd"><path d="M 838.8,820.533 L 829.733,820.533 L 820.667,820.533 L 811.6,820.533 L 811.6,829.6 L 811.6,838.667 L 811.6,847.733 L 820.667,847.733 L 829.733,847.733 L 838.8,847.733 L 838.8,838.667 L 838.8,829.6 L 838.8,820.533 z " style="fill-opacity:0.5;fill:rgb(253,0,0);stroke:rgb(253,0,0);stroke-width:2"/></g>
<g fill-rule="evenodd"><path d="M 811.6,847.733 L 811.6,820.533 L 838.8,820.533 L 838.8,847.733 L 811.6,847.733 z " style="fill-opacity:0.5;fill:rgb(0,253,0);stroke:rgb(0,0,0);stroke-width:5"/></g>
<g fill-rule="evenodd"><path d="M 539.6,847.733 L 530.533,847.733 L 521.467,847.733 L 512.4,847.733 L 503.333,856.8 L 494.267,865.867 L 485.2,865.867 L 476.133,865.867 L 467.067,874.933 L 458,884 L 458,893.067 L 458,902.133 L 467.067,911.2 L 476.133,920.267 L 485.2,920.267 L 494.267,920.267 L 503.333,929.333 L 512.4,929.333 L 521.467,929.333 L 530.533,929.333 L 539.6,929.333 L 548.667,929.333 L 557.733,929.333 L 566.8,920.267 L 575.867,920.267 L 584.933,911.2 L 594,902.133 L 594,893.067 L 594,884 L 584.933,884 L 575.867,884 L 566.8,874.933 L 557.733,865.867 L 548.667,856.8 L 539.6,847.733 z " style="fill-opacity:0.5;fill:rgb(253,0,0);stroke:rgb(253,0,0);stroke-width:2"/></g>
<g fill-rule="evenodd"><path d="M 458,902.133 L 458,884 L 512.4,847.733 L 539.6,847.733 L 575.867,884 L 594,884 L 594,902.133 L 557.733,929.333 L 503.333,929.333 L 458,902.133 z " style="fill-opacity:0.5;fill:rgb(0,253,0);stroke:rgb(0,0,0);stroke-width:5"/></g>
<g fill-rule="evenodd"><path d="M 1038.27,911.2 L 1029.2,911.2 L 1020.13,911.2 L 1011.07,911.2 L 1002,920.267 L 992.933,920.267 L 983.867,920.267 L 974.8,929.333 L 974.8,938.4 L 965.733,947.467 L 965.733,956.533 L 956.667,965.6 L 956.667,974.667 L 956.667,983.733 L 947.6,992.8 L 938.533,1001.87 L 929.467,1001.87 L 920.4,1001.87 L 911.333,1010.93 L 902.267,1010.93 L 893.2,1020 L 884.133,1020 L 875.067,1020 L 866,1029.07 L 856.933,1038.13 L 847.867,1047.2 L 838.8,1047.2 L 829.733,1047.2 L 820.667,1047.2 L 820.667,1056.27 L 820.667,1065.33 L 829.733,1074.4 L 838.8,1083.47 L 847.867,1092.53 L 856.933,1092.53 L 866,1092.53 L 866,1083.47 L 866,1074.4 L 866,1065.33 L 866,1056.27 L 875.067,1047.2 L 884.133,1038.13 L 893.2,1038.13 L 902.267,1038.13 L 911.333,1029.07 L 920.4,1020 L 929.467,1020 L 938.533,1020 L 947.6,1010.93 L 956.667,1001.87 L 965.733,992.8 L 974.8,983.733 L 974.8,974.667 L 974.8,965.6 L 983.867,956.533 L 992.933,947.467 L 1002,938.4 L 1011.07,929.333 L 1020.13,929.333 L 1029.2,938.4 L 1038.27,947.467 L 1047.33,947.467 L 1056.4,947.467 L 1065.47,938.4 L 1074.53,929.333 L 1074.53,920.267 L 1065.47,920.267 L 1056.4,920.267 L 1047.33,920.267 L 1038.27,911.2 z " style="fill-opacity:0.5;fill:rgb(253,0,0);stroke:rgb(253,0,0);stroke-width:2"/></g>
<g fill-rule="evenodd"><path d="M 820.667,1065.33 L 820.667,1047.2 L 847.867,1047.2 L 875.067,1020 L 938.533,1001.87 L 983.867,920.267 L 1074.53,920.267 L 1056.4,947.467 L 1011.07,929.333 L 938.533,1020 L 866,1056.27 L 866,1092.53 L 847.867,1092.53 L 820.667,1065.33 z " style="fill-opacity:0.5;fill:rgb(0,253,0);stroke:rgb(0,0,0);stroke-width:5"/></g>
</svg>
