<?xml version="1.0" standalone="no"?>
<!DOCTYPE svg PUBLIC "-//W3C//DTD SVG 1.1//EN"
"http://www.w3.org/Graphics/SVG/1.1/DTD/svg11.dtd">
<svg width="100%" height="100%" version="1.1"
xmlns="http://www.w3.org/2000/svg"
xmlns:xlink="http://www.w3.org/1999/xlink">
<g fill-rule="evenodd"><path d="M 287.244,5.03937 L 297.323,5.03937 L 307.402,5.03937 L 317.48,5.03937 L 327.559,5.03937 L 337.638,5.03937 L 347.717,5.03937 L 357.795,5.03937 L 367.874,5.03937 L 377.953,5.03937 L 388.031,5.03937 L 398.11,5.03937 L 408.189,5.03937 L 418.268,5.03937 L 408.189,5.03937 L 398.11,15.1181 L 398.11,25.1969 L 398.11,35.2756 L 398.11,45.3543 L 398.11,55.4331 L 388.031,55.4331 L 377.953,65.5118 L 377.953,75.5906 L 388.031,85.6693 L 398.11,85.6693 L 398.11,95.748 L 398.11,105.827 L 408.189,115.906 L 418.268,115.906 L 428.346,125.984 L 438.425,125.984 L 438.425,136.063 L 438.425,146.142 L 438.425,156.22 L 438.425,166.299 L 448.504,176.378 L 458.583,176.378 L 468.661,176.378 L 478.74,176.378 L 488.819,186.457 L 498.898,186.457 L 508.976,196.535 L 519.055,206.614 L 519.055,216.693 L 508.976,216.693 L 498.898,216.693 L 488.819,216.693 L 478.74,226.772 L 478.74,236.85 L 468.661,236.85 L 458.583,236.85 L 448.504,236.85 L 438.425,236.85 L 428.346,236.85 L 418.268,236.85 L 408.189,236.85 L 398.11,236.85 L 388.031,236.85 L 377.953,236.85 L 367.874,226.772 L 367.874,216.693 L 357.795,206.614 L 347.717,206.614 L 337.638,196.535 L 327.559,196.535 L 317.48,186.457 L 307.402,186.457 L 297.323,176.378 L 287.244,176.378 L 287.244,166.299 L 277.165,156.22 L 267.087,156.22 L 257.008,166.299 L 246.929,156.22 L 246.929,146.142 L 246.929,136.063 L 257.008,136.063 L 267.087,125.984 L 257.008,115.906 L 246.929,115.906 L 246.929,105.827 L 246.929,95.748 L 246.929,85.6693 L 257.008,85.6693 L 267.087,75.5906 L 267.087,65.5118 L 267.087,55.4331 L 267.087,45.3543 L 257.008,35.2756 L 246.929,35.2756 L 246.929,25.1969 L 257.008,25.1969 L 267.087,15.1181 L 277.165,15.1181 L 287.244,5.03937 z " style="fill-opacity:0.5;fill:rgb(253,0,0);stroke:rgb(253,0,0);stroke-width:2"/></g>
<g fill-rule="evenodd"><path d="M 519.055,216.693 L 488.819,216.693 L 478.74,236.85 L 377.953,236.85 L 357.795,206.614 L 287.244,176.378 L 277.165,156.22 L 257.008,166.299 L 246.929,136.063 L 267.087,125.984 L 246.929,115.906 L 246.929,85.6693 L 267.087,75.5906 L 267.087,45.3543 L 246.929,25.1969 L 287.244,5.03937 L 418.268,5.03937 L 398.11,15.1181 L 398.11,55.4331 L 377.953,75.5906 L 408.189,115.906 L 438.425,125.984 L 438.425,166.299 L 498.898,186.457 L 519.055,216.693 z " style="fill-opacity:0.5;fill:rgb(51,51,153);stroke:rgb(0,0,0);stroke-width:5"/></g>
<g fill-rule="evenodd"><path d="M 559.37,5.03937 L 569.449,5.03937 L 579.528,5.03937 L 579.528,15.1181 L 589.606,25.1969 L 599.685,25.1969 L 599.685,35.2756 L 609.764,45.3543 L 609.764,55.4331 L 599.685,65.5118 L 589.606,65.5118 L 579.528,55.4331 L 569.449,55.4331 L 569.449,45.3543 L 569.449,35.2756 L 559.37,25.1969 L 549.291,25.1969 L 549.291,15.1181 L 559.37,5.03937 z " style="fill-opacity:0.5;fill:rgb(253,0,0);stroke:rgb(253,0,0);stroke-width:2"/></g>
<g fill-rule="evenodd"><path d="M 599.685,65.5118 L 569.449,55.4331 L 569.449,35.2756 L 549.291,25.1969 L 559.37,5.03937 L 599.685,25.1969 L 599.685,65.5118 z " style="fill-opacity:0.5;fill:rgb(51,51,153);stroke:rgb(0,0,0);stroke-width:5"/></g>
<g fill-rule="evenodd"><path d="M 1012.91,5.03937 L 1022.99,5.03937 L 1033.07,5.03937 L 1043.15,5.03937 L 1053.23,5.03937 L 1063.31,5.03937 L 1053.23,5.03937 L 1043.15,15.1181 L 1043.15,25.1969 L 1043.15,35.2756 L 1053.23,45.3543 L 1063.31,55.4331 L 1063.31,65.5118 L 1063.31,75.5906 L 1063.31,85.6693 L 1063.31,95.748 L 1063.31,105.827 L 1063.31,115.906 L 1063.31,125.984 L 1053.23,125.984 L 1043.15,136.063 L 1043.15,146.142 L 1043.15,156.22 L 1053.23,166.299 L 1063.31,176.378 L 1063.31,186.457 L 1053.23,186.457 L 1043.15,196.535 L 1033.07,196.535 L 1022.99,206.614 L 1012.91,206.614 L 1002.83,216.693 L 1002.83,226.772 L 1002.83,236.85 L 992.756,236.85 L 982.677,246.929 L 992.756,257.008 L 1002.83,257.008 L 1012.91,257.008 L 1022.99,257.008 L 1033.07,257.008 L 1043.15,257.008 L 1053.23,267.087 L 1063.31,267.087 L 1073.39,267.087 L 1083.46,267.087 L 1093.54,257.008 L 1103.62,257.008 L 1113.7,257.008 L 1123.78,257.008 L 1133.86,246.929 L 1143.94,236.85 L 1154.02,236.85 L 1164.09,236.85 L 1174.17,236.85 L 1184.25,236.85 L 1194.33,226.772 L 1204.41,226.772 L 1214.49,226.772 L 1224.57,226.772 L 1234.65,226.772 L 1244.72,226.772 L 1254.8,226.772 L 1264.88,226.772 L 1274.96,236.85 L 1285.04,236.85 L 1285.04,246.929 L 1274.96,246.929 L 1264.88,236.85 L 1254.8,236.85 L 1244.72,236.85 L 1234.65,236.85 L 1224.57,236.85 L 1214.49,236.85 L 1204.41,236.85 L 1194.33,236.85 L 1184.25,246.929 L 1184.25,257.008 L 1184.25,267.087 L 1174.17,267.087 L 1164.09,277.165 L 1154.02,277.165 L 1143.94,277.165 L 1133.86,277.165 L 1123.78,267.087 L 1113.7,267.087 L 1103.62,267.087 L 1093.54,267.087 L 1083.46,277.165 L 1083.46,287.244 L 1083.46,297.323 L 1083.46,307.402 L 1083.46,317.48 L 1073.39,317.48 L 1063.31,327.559 L 1063.31,337.638 L 1063.31,347.717 L 1053.23,347.717 L 1043.15,357.795 L 1033.07,357.795 L 1022.99,357.795 L 1012.91,357.795 L 1002.83,357.795 L 992.756,357.795 L 982.677,367.874 L 982.677,377.953 L 982.677,388.031 L 982.677,398.11 L 982.677,408.189 L 982.677,418.268 L 982.677,428.346 L 972.598,428.346 L 962.52,438.425 L 962.52,448.504 L 962.52,458.583 L 962.52,468.661 L 962.52,478.74 L 962.52,488.819 L 972.598,498.898 L 982.677,498.898 L 982.677,508.976 L 982.677,519.055 L 992.756,529.134 L 1002.83,529.134 L 1012.91,539.213 L 1022.99,539.213 L 1022.99,549.291 L 1022.99,559.37 L 1033.07,569.449 L 1043.15,569.449 L 1053.23,569.449 L 1063.31,569.449 L 1073.39,569.449 L 1083.46,569.449 L 1093.54,569.449 L 1103.62,569.449 L 1113.7,569.449 L 1123.78,569.449 L 1133.86,579.528 L 1143.94,579.528 L 1154.02,579.528 L 1164.09,579.528 L 1174.17,579.528 L 1184.25,579.528 L 1194.33,579.528 L 1194.33,589.606 L 1184.25,599.685 L 1174.17,599.685 L 1164.09,599.685 L 1154.02,599.685 L 1143.94,599.685 L 1133.86,599.685 L 1123.78,589.606 L 1113.7,589.606 L 1103.62,589.606 L 1093.54,589.606 L 1083.46,589.606 L 1073.39,589.606 L 1063.31,589.606 L 1053.23,589.606 L 1043.15,589.606 L 1033.07,589.606 L 1022.99,579.528 L 1012.91,579.528 L 1002.83,569.449 L 992.756,569.449 L 992.756,559.37 L 992.756,549.291 L 982.677,539.213 L 972.598,539.213 L 962.52,529.134 L 952.441,529.134 L 952.441,519.055 L 952.441,508.976 L 942.362,498.898 L 932.283,498.898 L 932.283,488.819 L 932.283,478.74 L 932.283,468.661 L 932.283,458.583 L 932.283,448.504 L 942.362,438.425 L 952.441,428.346 L 952.441,418.268 L 952.441,408.189 L 952.441,398.11 L 952.441,388.031 L 952.441,377.953 L 962.52,367.874 L 972.598,357.795 L 982.677,357.795 L 992.756,347.717 L 1002.83,347.717 L 1012.91,347.717 L 1022.99,347.717 L 1033.07,337.638 L 1043.15,327.559 L 1053.23,317.48 L 1053.23,307.402 L 1053.23,297.323 L 1043.15,287.244 L 1033.07,287.244 L 1022.99,287.244 L 1012.91,287.244 L 1002.83,287.244 L 992.756,287.244 L 982.677,277.165 L 972.598,277.165 L 962.52,267.087 L 952.441,267.087 L 942.362,267.087 L 932.283,267.087 L 922.205,277.165 L 912.126,277.165 L 902.047,287.244 L 891.969,287.244 L 881.89,297.323 L 871.811,297.323 L 861.732,297.323 L 851.654,297.323 L 841.575,297.323 L 831.496,297.323 L 821.417,307.402 L 811.339,307.402 L 801.26,307.402 L 791.181,307.402 L 781.102,297.323 L 771.024,297.323 L 760.945,297.323 L 750.866,297.323 L 740.787,297.323 L 730.709,297.323 L 720.63,287.244 L 710.551,287.244 L 700.472,277.165 L 690.394,277.165 L 690.394,267.087 L 690.394,257.008 L 680.315,246.929 L 670.236,246.929 L 670.236,236.85 L 680.315,226.772 L 670.236,216.693 L 660.157,216.693 L 650.079,216.693 L 650.079,206.614 L 650.079,196.535 L 640,186.457 L 629.921,186.457 L 629.921,176.378 L 640,166.299 L 650.079,156.22 L 640,146.142 L 629.921,146.142 L 629.921,136.063 L 640,125.984 L 629.921,115.906 L 629.921,105.827 L 619.843,95.748 L 609.764,95.748 L 609.764,85.6693 L 619.843,75.5906 L 629.921,65.5118 L 640,65.5118 L 650.079,75.5906 L 660.157,75.5906 L 670.236,85.6693 L 680.315,85.6693 L 680.315,95.748 L 680.315,105.827 L 680.315,115.906 L 670.236,115.906 L 660.157,125.984 L 660.157,136.063 L 670.236,146.142 L 680.315,146.142 L 690.394,156.22 L 700.472,156.22 L 700.472,166.299 L 690.394,166.299 L 680.315,176.378 L 680.315,186.457 L 690.394,196.535 L 700.472,196.535 L 710.551,206.614 L 720.63,206.614 L 720.63,216.693 L 710.551,216.693 L 700.472,226.772 L 700.472,236.85 L 710.551,246.929 L 720.63,246.929 L 720.63,257.008 L 720.63,267.087 L 730.709,277.165 L 740.787,277.165 L 750.866,277.165 L 760.945,277.165 L 771.024,277.165 L 781.102,277.165 L 791.181,287.244 L 801.26,287.244 L 811.339,287.244 L 821.417,287.244 L 831.496,277.165 L 841.575,277.165 L 851.654,277.165 L 861.732,277.165 L 871.811,277.165 L 881.89,277.165 L 891.969,267.087 L 902.047,267.087 L 912.126,257.008 L 922.205,257.008 L 932.283,246.929 L 932.283,236.85 L 932.283,226.772 L 942.362,226.772 L 952.441,216.693 L 962.52,216.693 L 972.598,206.614 L 982.677,206.614 L 992.756,196.535 L 1002.83,196.535 L 1012.91,186.457 L 1022.99,186.457 L 1033.07,176.378 L 1033.07,166.299 L 1022.99,156.22 L 1012.91,156.22 L 1012.91,146.142 L 1012.91,136.063 L 1012.91,125.984 L 1022.99,125.984 L 1033.07,115.906 L 1033.07,105.827 L 1033.07,95.748 L 1033.07,85.6693 L 1033.07,75.5906 L 1033.07,65.5118 L 1033.07,55.4331 L 1033.07,45.3543 L 1022.99,35.2756 L 1012.91,35.2756 L 1012.91,25.1969 L 1012.91,15.1181 L 1012.91,5.03937M 277.165,125.984 L 267.087,136.063 L 277.165,146.142 L 287.244,136.063 L 277.165,125.984M 972.598,226.772 L 962.52,236.85 L 972.598,246.929 L 982.677,246.929 L 992.756,236.85 L 982.677,226.772 L 972.598,226.772 z " style="fill-opacity:0.5;fill:rgb(253,0,0);stroke:rgb(253,0,0);stroke-width:2"/></g>
<g fill-rule="evenodd"><path d="M 1184.25,599.685 L 1033.07,589.606 L 992.756,569.449 L 992.756,549.291 L 952.441,529.134 L 952.441,508.976 L 932.283,498.898 L 952.441,377.953 L 992.756,347.717 L 1022.99,347.717 L 1053.23,317.48 L 1043.15,287.244 L 932.283,267.087 L 881.89,297.323 L 821.417,307.402 L 730.709,297.323 L 690.394,277.165 L 690.394,257.008 L 670.236,246.929 L 680.315,226.772 L 650.079,216.693 L 650.079,196.535 L 629.921,186.457 L 650.079,156.22 L 629.921,146.142 L 640,125.984 L 609.764,85.6693 L 629.921,65.5118 L 680.315,85.6693 L 680.315,115.906 L 660.157,136.063 L 700.472,156.22 L 680.315,186.457 L 720.63,206.614 L 700.472,236.85 L 730.709,277.165 L 881.89,277.165 L 922.205,257.008 L 932.283,226.772 L 1033.07,176.378 L 1012.91,156.22 L 1012.91,125.984 L 1033.07,115.906 L 1033.07,45.3543 L 1012.91,35.2756 L 1012.91,5.03937 L 1063.31,5.03937 L 1043.15,15.1181 L 1063.31,55.4331 L 1063.31,125.984 L 1043.15,136.063 L 1043.15,156.22 L 1063.31,186.457 L 1012.91,206.614 L 982.677,246.929 L 1053.23,267.087 L 1194.33,226.772 L 1264.88,226.772 L 1285.04,246.929 L 1194.33,236.85 L 1164.09,277.165 L 1093.54,267.087 L 1063.31,347.717 L 982.677,367.874 L 962.52,488.819 L 992.756,529.134 L 1022.99,539.213 L 1033.07,569.449 L 1194.33,579.528 L 1184.25,599.685M 982.677,246.929 L 992.756,236.85 L 972.598,226.772 L 962.52,236.85 L 982.677,246.929 z " style="fill-opacity:0.5;fill:rgb(51,51,153);stroke:rgb(0,0,0);stroke-width:5"/></g>
<g fill-rule="evenodd"><path d="M 125.984,347.717 L 136.063,347.717 L 146.142,357.795 L 156.22,367.874 L 156.22,377.953 L 146.142,377.953 L 136.063,388.031 L 146.142,398.11 L 156.22,398.11 L 166.299,408.189 L 176.378,418.268 L 176.378,428.346 L 176.378,438.425 L 176.378,448.504 L 186.457,458.583 L 196.535,468.661 L 196.535,478.74 L 196.535,488.819 L 196.535,498.898 L 206.614,508.976 L 216.693,519.055 L 216.693,529.134 L 226.772,539.213 L 236.85,549.291 L 236.85,559.37 L 236.85,569.449 L 236.85,579.528 L 236.85,589.606 L 236.85,599.685 L 226.772,599.685 L 216.693,599.685 L 206.614,599.685 L 206.614,589.606 L 216.693,579.528 L 206.614,569.449 L 196.535,569.449 L 186.457,569.449 L 186.457,559.37 L 186.457,549.291 L 176.378,539.213 L 166.299,539.213 L 166.299,529.134 L 166.299,519.055 L 156.22,508.976 L 146.142,508.976 L 136.063,508.976 L 125.984,508.976 L 115.906,519.055 L 105.827,519.055 L 95.748,519.055 L 85.6693,519.055 L 75.5906,508.976 L 65.5118,508.976 L 55.4331,508.976 L 45.3543,508.976 L 35.2756,519.055 L 25.1969,519.055 L 15.1181,529.134 L 5.03937,529.134 L 5.03937,519.055 L 5.03937,508.976 L 5.03937,498.898 L 5.03937,488.819 L 5.03937,478.74 L 5.03937,468.661 L 5.03937,458.583 L 5.03937,448.504 L 5.03937,438.425 L 5.03937,428.346 L 5.03937,418.268 L 5.03937,408.189 L 5.03937,398.11 L 5.03937,388.031 L 5.03937,377.953 L 5.03937,367.874 L 5.03937,357.795 L 15.1181,357.795 L 15.1181,367.874 L 25.1969,377.953 L 35.2756,377.953 L 45.3543,377.953 L 55.4331,377.953 L 65.5118,377.953 L 75.5906,377.953 L 85.6693,377.953 L 95.748,377.953 L 105.827,367.874 L 105.827,357.795 L 115.906,357.795 L 125.984,347.717 z " style="fill-opacity:0.5;fill:rgb(253,0,0);stroke:rgb(253,0,0);stroke-width:2"/></g>
<g fill-rule="evenodd"><path d="M 236.85,599.685 L 206.614,599.685 L 216.693,579.528 L 186.457,569.449 L 156.22,508.976 L 45.3543,508.976 L 5.03937,529.134 L 5.03937,357.795 L 25.1969,377.953 L 95.748,377.953 L 125.984,347.717 L 156.22,367.874 L 136.063,388.031 L 176.378,418.268 L 196.535,498.898 L 236.85,549.291 L 236.85,599.685 z " style="fill-opacity:0.5;fill:rgb(51,51,153);stroke:rgb(0,0,0);stroke-width:5"/></g>
<g fill-rule="evenodd"><path d="M 670.236,388.031 L 680.315,388.031 L 680.315,398.11 L 680.315,408.189 L 670.236,408.189 L 670.236,398.11 L 670.236,388.031 z " style="fill-opacity:0.5;fill:rgb(253,0,0);stroke:rgb(253,0,0);stroke-width:2"/></g>
<g fill-rule="evenodd"><path d=" z " style="fill-opacity:0.5;fill:rgb(51,51,153);stroke:rgb(0,0,0);stroke-width:5"/></g>
<g fill-rule="evenodd"><path d="M 549.291,478.74 L 559.37,478.74 L 549.291,478.74 z " style="fill-opacity:0.5;fill:rgb(253,0,0);stroke:rgb(253,0,0);stroke-width:2"/></g>
<g fill-rule="evenodd"><path d="M 559.37,478.74 z " style="fill-opacity:0.5;fill:rgb(51,51,153);stroke:rgb(0,0,0);stroke-width:5"/></g>
<g fill-rule="evenodd"><path d="M 791.181,488.819 L 801.26,488.819 L 801.26,498.898 L 801.26,508.976 L 791.181,508.976 L 791.181,498.898 L 791.181,488.819 z " style="fill-opacity:0.5;fill:rgb(253,0,0);stroke:rgb(253,0,0);stroke-width:2"/></g>
<g fill-rule="evenodd"><path d=" z " style="fill-opacity:0.5;fill:rgb(51,51,153);stroke:rgb(0,0,0);stroke-width:5"/></g>
<g fill-rule="evenodd"><path d="M 1214.49,599.685 L 1224.57,599.685 L 1234.65,609.764 L 1244.72,609.764 L 1254.8,619.843 L 1264.88,619.843 L 1274.96,619.843 L 1285.04,619.843 L 1285.04,629.921 L 1285.04,640 L 1274.96,640 L 1264.88,640 L 1254.8,640 L 1244.72,629.921 L 1234.65,629.921 L 1224.57,629.921 L 1214.49,629.921 L 1204.41,629.921 L 1194.33,629.921 L 1194.33,619.843 L 1204.41,609.764 L 1214.49,599.685 z " style="fill-opacity:0.5;fill:rgb(253,0,0);stroke:rgb(253,0,0);stroke-width:2"/></g>
<g fill-rule="evenodd"><path d="M 1285.04,640 L 1194.33,619.843 L 1224.57,599.685 L 1285.04,619.843 L 1285.04,640 z " style="fill-opacity:0.5;fill:rgb(51,51,153);stroke:rgb(0,0,0);stroke-width:5"/></g>
<g fill-rule="evenodd"><path d="M 791.181,609.764 L 801.26,609.764 L 811.339,609.764 L 821.417,609.764 L 821.417,619.843 L 821.417,629.921 L 811.339,629.921 L 801.26,629.921 L 791.181,629.921 L 791.181,619.843 L 791.181,609.764 z " style="fill-opacity:0.5;fill:rgb(253,0,0);stroke:rgb(253,0,0);stroke-width:2"/></g>
<g fill-rule="evenodd"><path d="M 821.417,629.921 L 791.181,629.921 L 791.181,609.764 L 821.417,609.764 L 821.417,629.921 z " style="fill-opacity:0.5;fill:rgb(51,51,153);stroke:rgb(0,0,0);stroke-width:5"/></g>
<g fill-rule="evenodd"><path d="M 5.03937,660.157 L 15.1181,660.157 L 25.1969,660.157 L 35.2756,660.157 L 45.3543,670.236 L 55.4331,670.236 L 65.5118,670.236 L 75.5906,670.236 L 85.6693,660.157 L 85.6693,670.236 L 75.5906,680.315 L 65.5118,680.315 L 55.4331,680.315 L 45.3543,680.315 L 35.2756,670.236 L 25.1969,670.236 L 15.1181,670.236 L 5.03937,670.236 L 5.03937,660.157 z " style="fill-opacity:0.5;fill:rgb(253,0,0);stroke:rgb(253,0,0);stroke-width:2"/></g>
<g fill-rule="evenodd"><path d="M 85.6693,670.236 L 45.3543,680.315 L 5.03937,660.157 L 85.6693,670.236 z " style="fill-opacity:0.5;fill:rgb(51,51,153);stroke:rgb(0,0,0);stroke-width:5"/></g>
<g fill-rule="evenodd"><path d="M 367.874,660.157 L 377.953,660.157 L 367.874,660.157 z " style="fill-opacity:0.5;fill:rgb(253,0,0);stroke:rgb(253,0,0);stroke-width:2"/></g>
<g fill-rule="evenodd"><path d="M 377.953,660.157 z " style="fill-opacity:0.5;fill:rgb(51,51,153);stroke:rgb(0,0,0);stroke-width:5"/></g>
<g fill-rule="evenodd"><path d="M 468.661,670.236 L 478.74,670.236 L 488.819,670.236 L 498.898,670.236 L 498.898,680.315 L 498.898,690.394 L 488.819,690.394 L 478.74,690.394 L 468.661,680.315 L 468.661,670.236 z " style="fill-opacity:0.5;fill:rgb(253,0,0);stroke:rgb(253,0,0);stroke-width:2"/></g>
<g fill-rule="evenodd"><path d="M 498.898,690.394 L 478.74,690.394 L 468.661,670.236 L 498.898,670.236 L 498.898,690.394 z " style="fill-opacity:0.5;fill:rgb(51,51,153);stroke:rgb(0,0,0);stroke-width:5"/></g>
<g fill-rule="evenodd"><path d="M 105.827,680.315 L 115.906,680.315 L 125.984,680.315 L 115.906,690.394 L 125.984,700.472 L 136.063,700.472 L 146.142,700.472 L 156.22,700.472 L 166.299,710.551 L 176.378,710.551 L 186.457,710.551 L 196.535,710.551 L 206.614,710.551 L 216.693,710.551 L 226.772,710.551 L 236.85,710.551 L 246.929,710.551 L 257.008,710.551 L 267.087,720.63 L 277.165,720.63 L 287.244,730.709 L 297.323,740.787 L 297.323,750.866 L 307.402,760.945 L 317.48,760.945 L 327.559,771.024 L 337.638,781.102 L 337.638,791.181 L 347.717,801.26 L 357.795,811.339 L 357.795,821.417 L 357.795,831.496 L 357.795,841.575 L 357.795,851.654 L 357.795,861.732 L 347.717,861.732 L 337.638,871.811 L 337.638,881.89 L 337.638,891.969 L 337.638,902.047 L 337.638,912.126 L 337.638,922.205 L 337.638,932.283 L 327.559,932.283 L 317.48,942.362 L 307.402,942.362 L 297.323,952.441 L 287.244,952.441 L 277.165,952.441 L 267.087,952.441 L 257.008,962.52 L 257.008,972.598 L 257.008,982.677 L 257.008,992.756 L 246.929,992.756 L 236.85,1002.83 L 246.929,1012.91 L 257.008,1012.91 L 267.087,1012.91 L 277.165,1012.91 L 287.244,1012.91 L 297.323,1012.91 L 307.402,1022.99 L 317.48,1022.99 L 327.559,1033.07 L 337.638,1033.07 L 347.717,1033.07 L 357.795,1033.07 L 367.874,1022.99 L 377.953,1022.99 L 388.031,1012.91 L 398.11,1012.91 L 408.189,1002.83 L 418.268,1002.83 L 428.346,1002.83 L 438.425,1002.83 L 448.504,1002.83 L 458.583,1002.83 L 468.661,992.756 L 478.74,992.756 L 488.819,992.756 L 498.898,992.756 L 508.976,1002.83 L 519.055,1002.83 L 529.134,1002.83 L 539.213,1002.83 L 549.291,1002.83 L 559.37,1002.83 L 569.449,1012.91 L 579.528,1012.91 L 589.606,1022.99 L 599.685,1033.07 L 599.685,1043.15 L 609.764,1053.23 L 619.843,1063.31 L 619.843,1073.39 L 609.764,1073.39 L 599.685,1083.46 L 609.764,1093.54 L 619.843,1103.62 L 619.843,1113.7 L 619.843,1123.78 L 619.843,1133.86 L 629.921,1143.94 L 640,1143.94 L 650.079,1154.02 L 660.157,1164.09 L 660.157,1174.17 L 650.079,1174.17 L 640,1184.25 L 640,1194.33 L 650.079,1204.41 L 660.157,1204.41 L 670.236,1194.33 L 670.236,1204.41 L 660.157,1214.49 L 650.079,1214.49 L 640,1214.49 L 629.921,1214.49 L 619.843,1204.41 L 609.764,1204.41 L 609.764,1194.33 L 609.764,1184.25 L 609.764,1174.17 L 619.843,1174.17 L 629.921,1164.09 L 629.921,1154.02 L 619.843,1143.94 L 609.764,1143.94 L 599.685,1133.86 L 589.606,1133.86 L 589.606,1123.78 L 589.606,1113.7 L 589.606,1103.62 L 589.606,1093.54 L 579.528,1083.46 L 569.449,1083.46 L 569.449,1073.39 L 579.528,1073.39 L 589.606,1063.31 L 589.606,1053.23 L 579.528,1043.15 L 569.449,1043.15 L 569.449,1033.07 L 569.449,1022.99 L 559.37,1012.91 L 549.291,1012.91 L 539.213,1012.91 L 529.134,1012.91 L 519.055,1012.91 L 508.976,1012.91 L 498.898,1002.83 L 488.819,1002.83 L 478.74,1002.83 L 468.661,1002.83 L 458.583,1012.91 L 448.504,1012.91 L 438.425,1012.91 L 428.346,1012.91 L 418.268,1012.91 L 408.189,1012.91 L 398.11,1022.99 L 388.031,1022.99 L 377.953,1033.07 L 367.874,1033.07 L 357.795,1043.15 L 357.795,1053.23 L 357.795,1063.31 L 347.717,1063.31 L 337.638,1073.39 L 327.559,1073.39 L 317.48,1083.46 L 307.402,1083.46 L 297.323,1093.54 L 287.244,1093.54 L 277.165,1103.62 L 267.087,1103.62 L 257.008,1113.7 L 257.008,1123.78 L 267.087,1133.86 L 277.165,1133.86 L 277.165,1143.94 L 277.165,1154.02 L 277.165,1164.09 L 267.087,1164.09 L 257.008,1174.17 L 257.008,1184.25 L 257.008,1194.33 L 257.008,1204.41 L 257.008,1214.49 L 257.008,1224.57 L 257.008,1234.65 L 257.008,1244.72 L 267.087,1254.8 L 277.165,1254.8 L 277.165,1264.88 L 277.165,1274.96 L 287.244,1285.04 L 297.323,1285.04 L 307.402,1285.04 L 317.48,1285.04 L 327.559,1285.04 L 337.638,1285.04 L 347.717,1285.04 L 357.795,1285.04 L 367.874,1285.04 L 377.953,1285.04 L 388.031,1285.04 L 398.11,1285.04 L 408.189,1285.04 L 418.268,1285.04 L 428.346,1285.04 L 438.425,1285.04 L 448.504,1285.04 L 458.583,1285.04 L 468.661,1285.04 L 478.74,1285.04 L 488.819,1285.04 L 498.898,1285.04 L 508.976,1285.04 L 519.055,1285.04 L 529.134,1285.04 L 539.213,1285.04 L 549.291,1285.04 L 559.37,1285.04 L 569.449,1285.04 L 579.528,1285.04 L 589.606,1285.04 L 599.685,1285.04 L 609.764,1285.04 L 619.843,1285.04 L 629.921,1285.04 L 640,1285.04 L 650.079,1285.04 L 660.157,1285.04 L 670.236,1285.04 L 680.315,1285.04 L 690.394,1285.04 L 700.472,1285.04 L 710.551,1274.96 L 700.472,1264.88 L 690.394,1264.88 L 690.394,1254.8 L 690.394,1244.72 L 680.315,1234.65 L 680.315,1224.57 L 690.394,1214.49 L 700.472,1214.49 L 710.551,1214.49 L 700.472,1224.57 L 700.472,1234.65 L 710.551,1244.72 L 720.63,1254.8 L 720.63,1264.88 L 730.709,1274.96 L 740.787,1274.96 L 750.866,1285.04 L 760.945,1285.04 L 771.024,1285.04 L 781.102,1285.04 L 791.181,1285.04 L 801.26,1285.04 L 811.339,1285.04 L 821.417,1285.04 L 831.496,1285.04 L 841.575,1285.04 L 851.654,1274.96 L 851.654,1264.88 L 851.654,1254.8 L 861.732,1254.8 L 871.811,1244.72 L 871.811,1234.65 L 871.811,1224.57 L 871.811,1214.49 L 871.811,1204.41 L 871.811,1194.33 L 871.811,1184.25 L 871.811,1174.17 L 861.732,1164.09 L 851.654,1164.09 L 851.654,1154.02 L 851.654,1143.94 L 841.575,1133.86 L 831.496,1133.86 L 831.496,1123.78 L 831.496,1113.7 L 821.417,1103.62 L 811.339,1103.62 L 801.26,1093.54 L 791.181,1093.54 L 781.102,1093.54 L 771.024,1093.54 L 760.945,1093.54 L 750.866,1093.54 L 740.787,1083.46 L 730.709,1083.46 L 730.709,1073.39 L 740.787,1063.31 L 750.866,1063.31 L 760.945,1063.31 L 771.024,1063.31 L 781.102,1063.31 L 791.181,1053.23 L 801.26,1053.23 L 811.339,1053.23 L 821.417,1053.23 L 831.496,1053.23 L 841.575,1053.23 L 851.654,1053.23 L 861.732,1053.23 L 871.811,1053.23 L 881.89,1053.23 L 891.969,1053.23 L 902.047,1063.31 L 902.047,1073.39 L 902.047,1083.46 L 912.126,1093.54 L 922.205,1093.54 L 932.283,1103.62 L 942.362,1103.62 L 952.441,1113.7 L 962.52,1113.7 L 972.598,1123.78 L 982.677,1123.78 L 992.756,1133.86 L 1002.83,1133.86 L 1002.83,1143.94 L 1002.83,1154.02 L 1002.83,1164.09 L 1002.83,1174.17 L 1012.91,1184.25 L 1022.99,1184.25 L 1022.99,1194.33 L 1022.99,1204.41 L 1022.99,1214.49 L 1012.91,1214.49 L 1002.83,1224.57 L 1012.91,1234.65 L 1022.99,1234.65 L 1022.99,1244.72 L 1033.07,1254.8 L 1043.15,1254.8 L 1043.15,1264.88 L 1033.07,1264.88 L 1022.99,1274.96 L 1033.07,1285.04 L 1043.15,1285.04 L 1053.23,1285.04 L 1063.31,1285.04 L 1073.39,1274.96 L 1083.46,1274.96 L 1093.54,1264.88 L 1083.46,1274.96 L 1093.54,1285.04 L 1103.62,1285.04 L 1113.7,1285.04 L 1123.78,1285.04 L 1133.86,1285.04 L 1143.94,1285.04 L 1154.02,1285.04 L 1164.09,1285.04 L 1174.17,1285.04 L 1184.25,1285.04 L 1194.33,1285.04 L 1204.41,1285.04 L 1214.49,1285.04 L 1224.57,1285.04 L 1234.65,1285.04 L 1244.72,1274.96 L 1254.8,1274.96 L 1264.88,1274.96 L 1274.96,1274.96 L 1285.04,1274.96 L 1285.04,1285.04 L 1274.96,1285.04 L 1264.88,1285.04 L 1254.8,1285.04 L 1244.72,1285.04 L 1234.65,1285.04 L 1224.57,1285.04 L 1214.49,1285.04 L 1204.41,1285.04 L 1194.33,1285.04 L 1184.25,1285.04 L 1174.17,1285.04 L 1164.09,1285.04 L 1154.02,1285.04 L 1143.94,1285.04 L 1133.86,1285.04 L 1123.78,1285.04 L 1113.7,1285.04 L 1103.62,1285.04 L 1093.54,1285.04 L 1083.46,1285.04 L 1073.39,1285.04 L 1063.31,1285.04 L 1053.23,1285.04 L 1043.15,1285.04 L 1033.07,1285.04 L 1022.99,1285.04 L 1012.91,1285.04 L 1002.83,1285.04 L 992.756,1285.04 L 982.677,1285.04 L 972.598,1285.04 L 962.52,1285.04 L 952.441,1285.04 L 942.362,1285.04 L 932.283,1285.04 L 922.205,1285.04 L 912.126,1285.04 L 902.047,1285.04 L 891.969,1285.04 L 881.89,1285.04 L 871.811,1285.04 L 861.732,1285.04 L 851.654,1285.04 L 841.575,1285.04 L 831.496,1285.04 L 821.417,1285.04 L 811.339,1285.04 L 801.26,1285.04 L 791.181,1285.04 L 781.102,1285.04 L 771.024,1285.04 L 760.945,1285.04 L 750.866,1285.04 L 740.787,1285.04 L 730.709,1285.04 L 720.63,1285.04 L 710.551,1285.04 L 700.472,1285.04 L 690.394,1285.04 L 680.315,1285.04 L 670.236,1285.04 L 660.157,1285.04 L 650.079,1285.04 L 640,1285.04 L 629.921,1285.04 L 619.843,1285.04 L 609.764,1285.04 L 599.685,1285.04 L 589.606,1285.04 L 579.528,1285.04 L 569.449,1285.04 L 559.37,1285.04 L 549.291,1285.04 L 539.213,1285.04 L 529.134,1285.04 L 519.055,1285.04 L 508.976,1285.04 L 498.898,1285.04 L 488.819,1285.04 L 478.74,1285.04 L 468.661,1285.04 L 458.583,1285.04 L 448.504,1285.04 L 438.425,1285.04 L 428.346,1285.04 L 418.268,1285.04 L 408.189,1285.04 L 398.11,1285.04 L 388.031,1285.04 L 377.953,1285.04 L 367.874,1285.04 L 357.795,1285.04 L 347.717,1285.04 L 337.638,1285.04 L 327.559,1285.04 L 317.48,1285.04 L 307.402,1285.04 L 297.323,1285.04 L 287.244,1285.04 L 277.165,1285.04 L 267.087,1285.04 L 257.008,1285.04 L 246.929,1285.04 L 236.85,1285.04 L 226.772,1285.04 L 216.693,1285.04 L 206.614,1285.04 L 196.535,1285.04 L 186.457,1285.04 L 176.378,1285.04 L 166.299,1285.04 L 156.22,1285.04 L 146.142,1285.04 L 136.063,1285.04 L 125.984,1285.04 L 115.906,1285.04 L 105.827,1285.04 L 95.748,1285.04 L 85.6693,1285.04 L 75.5906,1285.04 L 65.5118,1285.04 L 55.4331,1285.04 L 45.3543,1285.04 L 35.2756,1285.04 L 25.1969,1285.04 L 15.1181,1285.04 L 5.03937,1285.04 L 5.03937,1274.96 L 15.1181,1274.96 L 25.1969,1274.96 L 35.2756,1274.96 L 45.3543,1274.96 L 55.4331,1285.04 L 65.5118,1285.04 L 75.5906,1285.04 L 85.6693,1285.04 L 95.748,1285.04 L 105.827,1285.04 L 115.906,1285.04 L 125.984,1285.04 L 136.063,1285.04 L 146.142,1285.04 L 156.22,1285.04 L 166.299,1285.04 L 176.378,1285.04 L 186.457,1285.04 L 196.535,1285.04 L 206.614,1285.04 L 216.693,1285.04 L 226.772,1274.96 L 226.772,1264.88 L 226.772,1254.8 L 226.772,1244.72 L 226.772,1234.65 L 226.772,1224.57 L 226.772,1214.49 L 226.772,1204.41 L 226.772,1194.33 L 226.772,1184.25 L 236.85,1174.17 L 246.929,1164.09 L 246.929,1154.02 L 246.929,1143.94 L 236.85,1133.86 L 226.772,1133.86 L 226.772,1123.78 L 236.85,1113.7 L 246.929,1103.62 L 257.008,1103.62 L 267.087,1093.54 L 277.165,1093.54 L 287.244,1083.46 L 297.323,1083.46 L 307.402,1073.39 L 297.323,1063.31 L 287.244,1063.31 L 287.244,1053.23 L 277.165,1043.15 L 267.087,1043.15 L 257.008,1043.15 L 246.929,1043.15 L 236.85,1033.07 L 226.772,1033.07 L 216.693,1033.07 L 206.614,1033.07 L 196.535,1043.15 L 186.457,1043.15 L 176.378,1043.15 L 166.299,1043.15 L 156.22,1053.23 L 156.22,1063.31 L 146.142,1063.31 L 136.063,1063.31 L 125.984,1063.31 L 115.906,1063.31 L 105.827,1063.31 L 95.748,1073.39 L 85.6693,1073.39 L 75.5906,1073.39 L 65.5118,1073.39 L 55.4331,1063.31 L 45.3543,1063.31 L 35.2756,1053.23 L 25.1969,1053.23 L 15.1181,1053.23 L 5.03937,1053.23 L 5.03937,1043.15 L 5.03937,1033.07 L 15.1181,1033.07 L 25.1969,1033.07 L 35.2756,1033.07 L 45.3543,1043.15 L 55.4331,1043.15 L 65.5118,1053.23 L 75.5906,1053.23 L 85.6693,1053.23 L 95.748,1053.23 L 105.827,1043.15 L 105.827,1033.07 L 105.827,1022.99 L 115.906,1022.99 L 125.984,1012.91 L 136.063,1012.91 L 146.142,1012.91 L 156.22,1012.91 L 166.299,1022.99 L 176.378,1022.99 L 186.457,1022.99 L 196.535,1022.99 L 206.614,1012.91 L 206.614,1002.83 L 206.614,992.756 L 206.614,982.677 L 206.614,972.598 L 216.693,972.598 L 226.772,962.52 L 226.772,952.441 L 226.772,942.362 L 236.85,942.362 L 246.929,932.283 L 257.008,932.283 L 267.087,932.283 L 277.165,932.283 L 287.244,932.283 L 297.323,932.283 L 307.402,922.205 L 307.402,912.126 L 307.402,902.047 L 307.402,891.969 L 307.402,881.89 L 307.402,871.811 L 307.402,861.732 L 317.48,861.732 L 327.559,851.654 L 327.559,841.575 L 327.559,831.496 L 327.559,821.417 L 327.559,811.339 L 327.559,801.26 L 317.48,791.181 L 307.402,791.181 L 307.402,781.102 L 307.402,771.024 L 297.323,760.945 L 287.244,760.945 L 277.165,750.866 L 267.087,750.866 L 267.087,740.787 L 267.087,730.709 L 257.008,720.63 L 246.929,720.63 L 236.85,720.63 L 226.772,720.63 L 216.693,720.63 L 206.614,720.63 L 196.535,720.63 L 186.457,720.63 L 176.378,720.63 L 166.299,720.63 L 156.22,710.551 L 146.142,710.551 L 136.063,710.551 L 125.984,710.551 L 115.906,710.551 L 105.827,710.551 L 95.748,700.472 L 95.748,690.394 L 105.827,680.315 z " style="fill-opacity:0.5;fill:rgb(253,0,0);stroke:rgb(253,0,0);stroke-width:2"/></g>
<g fill-rule="evenodd"><path d="M 1285.04,1285.04 L 5.03937,1285.04 L 216.693,1285.04 L 226.772,1184.25 L 246.929,1164.09 L 226.772,1123.78 L 307.402,1073.39 L 277.165,1043.15 L 236.85,1033.07 L 95.748,1073.39 L 5.03937,1053.23 L 5.03937,1033.07 L 95.748,1053.23 L 125.984,1012.91 L 196.535,1022.99 L 226.772,942.362 L 307.402,922.205 L 307.402,861.732 L 327.559,851.654 L 327.559,801.26 L 297.323,760.945 L 267.087,750.866 L 257.008,720.63 L 105.827,710.551 L 95.748,690.394 L 125.984,680.315 L 125.984,700.472 L 166.299,710.551 L 257.008,710.551 L 357.795,811.339 L 337.638,932.283 L 267.087,952.441 L 257.008,992.756 L 236.85,1002.83 L 246.929,1012.91 L 357.795,1033.07 L 408.189,1002.83 L 468.661,992.756 L 559.37,1002.83 L 619.843,1063.31 L 599.685,1083.46 L 619.843,1103.62 L 619.843,1133.86 L 660.157,1164.09 L 640,1194.33 L 670.236,1194.33 L 660.157,1214.49 L 609.764,1204.41 L 609.764,1174.17 L 629.921,1154.02 L 589.606,1133.86 L 589.606,1093.54 L 569.449,1083.46 L 589.606,1053.23 L 559.37,1012.91 L 408.189,1012.91 L 367.874,1033.07 L 357.795,1063.31 L 257.008,1113.7 L 277.165,1133.86 L 277.165,1164.09 L 257.008,1174.17 L 257.008,1244.72 L 287.244,1285.04 L 700.472,1285.04 L 710.551,1274.96 L 680.315,1234.65 L 690.394,1214.49 L 710.551,1214.49 L 700.472,1234.65 L 750.866,1285.04 L 841.575,1285.04 L 871.811,1244.72 L 871.811,1174.17 L 851.654,1164.09 L 821.417,1103.62 L 730.709,1083.46 L 740.787,1063.31 L 791.181,1053.23 L 891.969,1053.23 L 912.126,1093.54 L 1002.83,1133.86 L 1002.83,1174.17 L 1022.99,1184.25 L 1022.99,1214.49 L 1002.83,1224.57 L 1043.15,1254.8 L 1022.99,1274.96 L 1033.07,1285.04 L 1093.54,1264.88 L 1093.54,1285.04 L 1285.04,1285.04 z " style="fill-opacity:0.5;fill:rgb(51,51,153);stroke:rgb(0,0,0);stroke-width:5"/></g>
<g fill-rule="evenodd"><path d="M 831.496,690.394 L 841.575,690.394 L 831.496,690.394 z " style="fill-opacity:0.5;fill:rgb(253,0,0);stroke:rgb(253,0,0);stroke-width:2"/></g>
<g fill-rule="evenodd"><path d="M 841.575,690.394 z " style="fill-opacity:0.5;fill:rgb(51,51,153);stroke:rgb(0,0,0);stroke-width:5"/></g>
<g fill-rule="evenodd"><path d="M 1063.31,700.472 L 1073.39,700.472 L 1083.46,700.472 L 1093.54,710.551 L 1103.62,720.63 L 1103.62,730.709 L 1093.54,730.709 L 1083.46,740.787 L 1093.54,750.866 L 1103.62,750.866 L 1113.7,760.945 L 1123.78,771.024 L 1123.78,781.102 L 1133.86,791.181 L 1143.94,791.181 L 1154.02,781.102 L 1164.09,781.102 L 1174.17,781.102 L 1184.25,781.102 L 1194.33,781.102 L 1204.41,781.102 L 1214.49,781.102 L 1224.57,781.102 L 1234.65,781.102 L 1244.72,781.102 L 1254.8,771.024 L 1264.88,771.024 L 1274.96,771.024 L 1285.04,771.024 L 1285.04,781.102 L 1285.04,791.181 L 1285.04,801.26 L 1285.04,811.339 L 1285.04,821.417 L 1285.04,831.496 L 1285.04,841.575 L 1285.04,851.654 L 1285.04,861.732 L 1285.04,871.811 L 1285.04,881.89 L 1285.04,891.969 L 1285.04,902.047 L 1274.96,912.126 L 1285.04,922.205 L 1285.04,932.283 L 1274.96,932.283 L 1264.88,942.362 L 1254.8,932.283 L 1244.72,942.362 L 1234.65,942.362 L 1224.57,942.362 L 1214.49,942.362 L 1214.49,932.283 L 1214.49,922.205 L 1204.41,912.126 L 1194.33,912.126 L 1184.25,922.205 L 1184.25,932.283 L 1174.17,932.283 L 1164.09,942.362 L 1154.02,942.362 L 1143.94,942.362 L 1133.86,932.283 L 1133.86,922.205 L 1143.94,922.205 L 1154.02,912.126 L 1143.94,902.047 L 1133.86,902.047 L 1123.78,891.969 L 1113.7,891.969 L 1103.62,881.89 L 1093.54,881.89 L 1093.54,871.811 L 1103.62,861.732 L 1113.7,851.654 L 1113.7,841.575 L 1113.7,831.496 L 1103.62,821.417 L 1093.54,821.417 L 1093.54,811.339 L 1093.54,801.26 L 1083.46,791.181 L 1073.39,791.181 L 1073.39,781.102 L 1073.39,771.024 L 1063.31,760.945 L 1053.23,760.945 L 1053.23,750.866 L 1053.23,740.787 L 1053.23,730.709 L 1053.23,720.63 L 1053.23,710.551 L 1063.31,700.472 z " style="fill-opacity:0.5;fill:rgb(253,0,0);stroke:rgb(253,0,0);stroke-width:2"/></g>
<g fill-rule="evenodd"><path d="M 1285.04,932.283 L 1214.49,942.362 L 1214.49,922.205 L 1194.33,912.126 L 1184.25,932.283 L 1143.94,942.362 L 1133.86,922.205 L 1154.02,912.126 L 1093.54,881.89 L 1113.7,831.496 L 1053.23,760.945 L 1053.23,710.551 L 1083.46,700.472 L 1103.62,720.63 L 1083.46,740.787 L 1133.86,791.181 L 1285.04,771.024 L 1285.04,932.283 z " style="fill-opacity:0.5;fill:rgb(51,51,153);stroke:rgb(0,0,0);stroke-width:5"/></g>
<g fill-rule="evenodd"><path d="M 508.976,791.181 L 519.055,791.181 L 519.055,801.26 L 519.055,811.339 L 508.976,811.339 L 508.976,801.26 L 508.976,791.181 z " style="fill-opacity:0.5;fill:rgb(253,0,0);stroke:rgb(253,0,0);stroke-width:2"/></g>
<g fill-rule="evenodd"><path d=" z " style="fill-opacity:0.5;fill:rgb(51,51,153);stroke:rgb(0,0,0);stroke-width:5"/></g>
<g fill-rule="evenodd"><path d="M 730.709,811.339 L 740.787,811.339 L 730.709,811.339 z " style="fill-opacity:0.5;fill:rgb(253,0,0);stroke:rgb(253,0,0);stroke-width:2"/></g>
<g fill-rule="evenodd"><path d="M 740.787,811.339 z " style="fill-opacity:0.5;fill:rgb(51,51,153);stroke:rgb(0,0,0);stroke-width:5"/></g>
<g fill-rule="evenodd"><path d="M 448.504,821.417 L 458.583,821.417 L 448.504,821.417 z " style="fill-opacity:0.5;fill:rgb(253,0,0);stroke:rgb(253,0,0);stroke-width:2"/></g>
<g fill-rule="evenodd"><path d="M 458.583,821.417 z " style="fill-opacity:0.5;fill:rgb(51,51,153);stroke:rgb(0,0,0);stroke-width:5"/></g>
<g fill-rule="evenodd"><path d="M 569.449,891.969 L 579.528,891.969 L 579.528,902.047 L 579.528,912.126 L 569.449,912.126 L 569.449,902.047 L 569.449,891.969M 1234.65,902.047 L 1224.57,912.126 L 1234.65,922.205 L 1244.72,922.205 L 1254.8,912.126 L 1244.72,902.047 L 1234.65,902.047M 1234.65,922.205 L 1224.57,932.283 L 1234.65,942.362 L 1244.72,942.362 L 1254.8,932.283 L 1244.72,922.205 L 1234.65,922.205M 156.22,1033.07 L 146.142,1043.15 L 156.22,1053.23 L 166.299,1043.15 L 156.22,1033.07M 307.402,1053.23 L 297.323,1063.31 L 307.402,1073.39 L 317.48,1073.39 L 327.559,1063.31 L 317.48,1053.23 L 307.402,1053.23 z " style="fill-opacity:0.5;fill:rgb(253,0,0);stroke:rgb(253,0,0);stroke-width:2"/></g>
<g fill-rule="evenodd"><path d="M 1244.72,922.205 L 1254.8,912.126 L 1234.65,902.047 L 1224.57,912.126 L 1244.72,922.205M 1244.72,942.362 L 1254.8,932.283 L 1234.65,922.205 L 1224.57,932.283 L 1244.72,942.362M 317.48,1073.39 L 327.559,1063.31 L 307.402,1053.23 L 297.323,1063.31 L 317.48,1073.39 z " style="fill-opacity:0.5;fill:rgb(51,51,153);stroke:rgb(0,0,0);stroke-width:5"/></g>
</svg>
