<?xml version="1.0" standalone="no"?>
<!DOCTYPE svg PUBLIC "-//W3C//DTD SVG 1.1//EN"
"http://www.w3.org/Graphics/SVG/1.1/DTD/svg11.dtd">
<svg width="100%" height="100%" version="1.1"
xmlns="http://www.w3.org/2000/svg"
xmlns:xlink="http://www.w3.org/1999/xlink">
<g fill-rule="evenodd"><path d="M 258.52,4.53543 L 267.591,4.53543 L 276.661,4.53543 L 285.732,4.53543 L 294.803,4.53543 L 303.874,4.53543 L 312.945,4.53543 L 322.016,4.53543 L 331.087,4.53543 L 340.157,4.53543 L 349.228,4.53543 L 358.299,4.53543 L 367.37,4.53543 L 376.441,4.53543 L 367.37,4.53543 L 358.299,13.6063 L 358.299,22.6772 L 358.299,31.748 L 358.299,40.8189 L 358.299,49.8898 L 349.228,49.8898 L 340.157,58.9606 L 340.157,68.0315 L 349.228,77.1024 L 358.299,77.1024 L 358.299,86.1732 L 358.299,95.2441 L 367.37,104.315 L 376.441,104.315 L 385.512,113.386 L 394.583,113.386 L 394.583,122.457 L 394.583,131.528 L 394.583,140.598 L 394.583,149.669 L 403.654,158.74 L 412.724,158.74 L 421.795,158.74 L 430.866,158.74 L 439.937,167.811 L 449.008,167.811 L 458.079,176.882 L 467.15,185.953 L 467.15,195.024 L 458.079,195.024 L 449.008,195.024 L 439.937,195.024 L 430.866,204.094 L 430.866,213.165 L 421.795,213.165 L 412.724,213.165 L 403.654,213.165 L 394.583,213.165 L 385.512,213.165 L 376.441,213.165 L 367.37,213.165 L 358.299,213.165 L 349.228,213.165 L 340.157,213.165 L 331.087,204.094 L 331.087,195.024 L 322.016,185.953 L 312.945,185.953 L 303.874,176.882 L 294.803,176.882 L 285.732,167.811 L 276.661,167.811 L 267.591,158.74 L 258.52,158.74 L 258.52,149.669 L 249.449,140.598 L 240.378,140.598 L 231.307,149.669 L 222.236,140.598 L 222.236,131.528 L 222.236,122.457 L 231.307,122.457 L 240.378,113.386 L 231.307,104.315 L 222.236,104.315 L 222.236,95.2441 L 222.236,86.1732 L 222.236,77.1024 L 231.307,77.1024 L 240.378,68.0315 L 240.378,58.9606 L 240.378,49.8898 L 240.378,40.8189 L 231.307,31.748 L 222.236,31.748 L 222.236,22.6772 L 231.307,22.6772 L 240.378,13.6063 L 249.449,13.6063 L 258.52,4.53543 z " style="fill-opacity:0.5;fill:rgb(253,0,0);stroke:rgb(253,0,0);stroke-width:2"/></g>
<g fill-rule="evenodd"><path d="M 467.15,195.024 L 449.008,167.811 L 403.654,158.74 L 394.583,113.386 L 367.37,104.315 L 340.157,68.0315 L 358.299,49.8898 L 358.299,13.6063 L 376.441,4.53543 L 258.52,4.53543 L 222.236,22.6772 L 240.378,40.8189 L 240.378,68.0315 L 222.236,77.1024 L 222.236,104.315 L 240.378,113.386 L 222.236,122.457 L 231.307,149.669 L 249.449,140.598 L 258.52,158.74 L 322.016,185.953 L 340.157,213.165 L 430.866,213.165 L 439.937,195.024 L 467.15,195.024 z " style="fill-opacity:0.5;fill:rgb(0,253,0);stroke:rgb(0,0,0);stroke-width:5"/></g>
<g fill-rule="evenodd"><path d="M 503.433,4.53543 L 512.504,4.53543 L 521.575,4.53543 L 521.575,13.6063 L 530.646,22.6772 L 539.717,22.6772 L 539.717,31.748 L 548.787,40.8189 L 548.787,49.8898 L 539.717,58.9606 L 530.646,58.9606 L 521.575,49.8898 L 512.504,49.8898 L 512.504,40.8189 L 512.504,31.748 L 503.433,22.6772 L 494.362,22.6772 L 494.362,13.6063 L 503.433,4.53543 z " style="fill-opacity:0.5;fill:rgb(253,0,0);stroke:rgb(253,0,0);stroke-width:2"/></g>
<g fill-rule="evenodd"><path d="M 539.717,58.9606 L 539.717,22.6772 L 503.433,4.53543 L 494.362,22.6772 L 512.504,31.748 L 512.504,49.8898 L 539.717,58.9606 z " style="fill-opacity:0.5;fill:rgb(0,253,0);stroke:rgb(0,0,0);stroke-width:5"/></g>
<g fill-rule="evenodd"><path d="M 911.622,4.53543 L 920.693,4.53543 L 929.764,4.53543 L 938.835,4.53543 L 947.906,4.53543 L 956.976,4.53543 L 947.906,4.53543 L 938.835,13.6063 L 938.835,22.6772 L 938.835,31.748 L 947.906,40.8189 L 956.976,49.8898 L 956.976,58.9606 L 956.976,68.0315 L 956.976,77.1024 L 956.976,86.1732 L 956.976,95.2441 L 956.976,104.315 L 956.976,113.386 L 947.906,113.386 L 938.835,122.457 L 938.835,131.528 L 938.835,140.598 L 947.906,149.669 L 956.976,158.74 L 956.976,167.811 L 947.906,167.811 L 938.835,176.882 L 929.764,176.882 L 920.693,185.953 L 911.622,185.953 L 902.551,195.024 L 902.551,204.094 L 902.551,213.165 L 893.48,213.165 L 884.409,222.236 L 893.48,231.307 L 902.551,231.307 L 911.622,231.307 L 920.693,231.307 L 929.764,231.307 L 938.835,231.307 L 947.906,240.378 L 956.976,240.378 L 966.047,240.378 L 975.118,240.378 L 984.189,231.307 L 993.26,231.307 L 1002.33,231.307 L 1011.4,231.307 L 1020.47,222.236 L 1029.54,213.165 L 1038.61,213.165 L 1047.69,213.165 L 1056.76,213.165 L 1065.83,213.165 L 1074.9,204.094 L 1083.97,204.094 L 1093.04,204.094 L 1102.11,204.094 L 1111.18,204.094 L 1120.25,204.094 L 1129.32,204.094 L 1138.39,204.094 L 1147.46,213.165 L 1156.54,213.165 L 1156.54,222.236 L 1147.46,222.236 L 1138.39,213.165 L 1129.32,213.165 L 1120.25,213.165 L 1111.18,213.165 L 1102.11,213.165 L 1093.04,213.165 L 1083.97,213.165 L 1074.9,213.165 L 1065.83,222.236 L 1065.83,231.307 L 1065.83,240.378 L 1056.76,240.378 L 1047.69,249.449 L 1038.61,249.449 L 1029.54,249.449 L 1020.47,249.449 L 1011.4,240.378 L 1002.33,240.378 L 993.26,240.378 L 984.189,240.378 L 975.118,249.449 L 975.118,258.52 L 975.118,267.591 L 975.118,276.661 L 975.118,285.732 L 966.047,285.732 L 956.976,294.803 L 956.976,303.874 L 956.976,312.945 L 947.906,312.945 L 938.835,322.016 L 929.764,322.016 L 920.693,322.016 L 911.622,322.016 L 902.551,322.016 L 893.48,322.016 L 884.409,331.087 L 884.409,340.157 L 884.409,349.228 L 884.409,358.299 L 884.409,367.37 L 884.409,376.441 L 884.409,385.512 L 875.339,385.512 L 866.268,394.583 L 866.268,403.654 L 866.268,412.724 L 866.268,421.795 L 866.268,430.866 L 866.268,439.937 L 875.339,449.008 L 884.409,449.008 L 884.409,458.079 L 884.409,467.15 L 893.48,476.22 L 902.551,476.22 L 911.622,485.291 L 920.693,485.291 L 920.693,494.362 L 920.693,503.433 L 929.764,512.504 L 938.835,512.504 L 947.906,512.504 L 956.976,512.504 L 966.047,512.504 L 975.118,512.504 L 984.189,512.504 L 993.26,512.504 L 1002.33,512.504 L 1011.4,512.504 L 1020.47,521.575 L 1029.54,521.575 L 1038.61,521.575 L 1047.69,521.575 L 1056.76,521.575 L 1065.83,521.575 L 1074.9,521.575 L 1074.9,530.646 L 1065.83,539.717 L 1056.76,539.717 L 1047.69,539.717 L 1038.61,539.717 L 1029.54,539.717 L 1020.47,539.717 L 1011.4,530.646 L 1002.33,530.646 L 993.26,530.646 L 984.189,530.646 L 975.118,530.646 L 966.047,530.646 L 956.976,530.646 L 947.906,530.646 L 938.835,530.646 L 929.764,530.646 L 920.693,521.575 L 911.622,521.575 L 902.551,512.504 L 893.48,512.504 L 893.48,503.433 L 893.48,494.362 L 884.409,485.291 L 875.339,485.291 L 866.268,476.22 L 857.197,476.22 L 857.197,467.15 L 857.197,458.079 L 848.126,449.008 L 839.055,449.008 L 839.055,439.937 L 839.055,430.866 L 839.055,421.795 L 839.055,412.724 L 839.055,403.654 L 848.126,394.583 L 857.197,385.512 L 857.197,376.441 L 857.197,367.37 L 857.197,358.299 L 857.197,349.228 L 857.197,340.157 L 866.268,331.087 L 875.339,322.016 L 884.409,322.016 L 893.48,312.945 L 902.551,312.945 L 911.622,312.945 L 920.693,312.945 L 929.764,303.874 L 938.835,294.803 L 947.906,285.732 L 947.906,276.661 L 947.906,267.591 L 938.835,258.52 L 929.764,258.52 L 920.693,258.52 L 911.622,258.52 L 902.551,258.52 L 893.48,258.52 L 884.409,249.449 L 875.339,249.449 L 866.268,240.378 L 857.197,240.378 L 848.126,240.378 L 839.055,240.378 L 829.984,249.449 L 820.913,249.449 L 811.843,258.52 L 802.772,258.52 L 793.701,267.591 L 784.63,267.591 L 775.559,267.591 L 766.488,267.591 L 757.417,267.591 L 748.346,267.591 L 739.276,276.661 L 730.205,276.661 L 721.134,276.661 L 712.063,276.661 L 702.992,267.591 L 693.921,267.591 L 684.85,267.591 L 675.78,267.591 L 666.709,267.591 L 657.638,267.591 L 648.567,258.52 L 639.496,258.52 L 630.425,249.449 L 621.354,249.449 L 621.354,240.378 L 621.354,231.307 L 612.283,222.236 L 603.213,222.236 L 603.213,213.165 L 612.283,204.094 L 603.213,195.024 L 594.142,195.024 L 585.071,195.024 L 585.071,185.953 L 585.071,176.882 L 576,167.811 L 566.929,167.811 L 566.929,158.74 L 576,149.669 L 585.071,140.598 L 576,131.528 L 566.929,131.528 L 566.929,122.457 L 576,113.386 L 566.929,104.315 L 566.929,95.2441 L 557.858,86.1732 L 548.787,86.1732 L 548.787,77.1024 L 557.858,68.0315 L 566.929,58.9606 L 576,58.9606 L 585.071,68.0315 L 594.142,68.0315 L 603.213,77.1024 L 612.283,77.1024 L 612.283,86.1732 L 612.283,95.2441 L 612.283,104.315 L 603.213,104.315 L 594.142,113.386 L 594.142,122.457 L 603.213,131.528 L 612.283,131.528 L 621.354,140.598 L 630.425,140.598 L 630.425,149.669 L 621.354,149.669 L 612.283,158.74 L 612.283,167.811 L 621.354,176.882 L 630.425,176.882 L 639.496,185.953 L 648.567,185.953 L 648.567,195.024 L 639.496,195.024 L 630.425,204.094 L 630.425,213.165 L 639.496,222.236 L 648.567,222.236 L 648.567,231.307 L 648.567,240.378 L 657.638,249.449 L 666.709,249.449 L 675.78,249.449 L 684.85,249.449 L 693.921,249.449 L 702.992,249.449 L 712.063,258.52 L 721.134,258.52 L 730.205,258.52 L 739.276,258.52 L 748.346,249.449 L 757.417,249.449 L 766.488,249.449 L 775.559,249.449 L 784.63,249.449 L 793.701,249.449 L 802.772,240.378 L 811.843,240.378 L 820.913,231.307 L 829.984,231.307 L 839.055,222.236 L 839.055,213.165 L 839.055,204.094 L 848.126,204.094 L 857.197,195.024 L 866.268,195.024 L 875.339,185.953 L 884.409,185.953 L 893.48,176.882 L 902.551,176.882 L 911.622,167.811 L 920.693,167.811 L 929.764,158.74 L 929.764,149.669 L 920.693,140.598 L 911.622,140.598 L 911.622,131.528 L 911.622,122.457 L 911.622,113.386 L 920.693,113.386 L 929.764,104.315 L 929.764,95.2441 L 929.764,86.1732 L 929.764,77.1024 L 929.764,68.0315 L 929.764,58.9606 L 929.764,49.8898 L 929.764,40.8189 L 920.693,31.748 L 911.622,31.748 L 911.622,22.6772 L 911.622,13.6063 L 911.622,4.53543 z " style="fill-opacity:0.5;fill:rgb(253,0,0);stroke:rgb(253,0,0);stroke-width:2"/></g>
<g fill-rule="evenodd"><path d="M 1065.83,539.717 L 1074.9,521.575 L 929.764,512.504 L 920.693,485.291 L 893.48,476.22 L 866.268,439.937 L 884.409,331.087 L 956.976,312.945 L 984.189,240.378 L 1047.69,249.449 L 1074.9,213.165 L 1156.54,222.236 L 1138.39,204.094 L 1029.54,213.165 L 975.118,240.378 L 884.409,222.236 L 911.622,185.953 L 956.976,167.811 L 938.835,140.598 L 938.835,122.457 L 956.976,113.386 L 956.976,49.8898 L 938.835,13.6063 L 956.976,4.53543 L 911.622,4.53543 L 911.622,31.748 L 929.764,40.8189 L 929.764,104.315 L 911.622,113.386 L 911.622,140.598 L 929.764,158.74 L 839.055,204.094 L 839.055,222.236 L 793.701,249.449 L 657.638,249.449 L 630.425,213.165 L 648.567,185.953 L 612.283,167.811 L 630.425,140.598 L 594.142,122.457 L 612.283,104.315 L 612.283,77.1024 L 576,58.9606 L 548.787,77.1024 L 576,113.386 L 566.929,131.528 L 585.071,140.598 L 566.929,167.811 L 585.071,176.882 L 585.071,195.024 L 612.283,204.094 L 603.213,222.236 L 621.354,231.307 L 621.354,249.449 L 657.638,267.591 L 739.276,276.661 L 793.701,267.591 L 839.055,240.378 L 938.835,258.52 L 947.906,285.732 L 920.693,312.945 L 893.48,312.945 L 857.197,340.157 L 839.055,449.008 L 857.197,458.079 L 857.197,476.22 L 893.48,494.362 L 893.48,512.504 L 929.764,530.646 L 1065.83,539.717 z " style="fill-opacity:0.5;fill:rgb(0,253,0);stroke:rgb(0,0,0);stroke-width:5"/></g>
<g fill-rule="evenodd"><path d="M 249.449,131.528 L 258.52,131.528 L 267.591,131.528 L 276.661,131.528 L 285.732,131.528 L 294.803,131.528 L 303.874,131.528 L 312.945,131.528 L 322.016,131.528 L 331.087,131.528 L 340.157,131.528 L 349.228,131.528 L 358.299,131.528 L 367.37,131.528 L 376.441,131.528 L 385.512,131.528 L 394.583,122.457 L 385.512,113.386 L 376.441,113.386 L 367.37,113.386 L 358.299,113.386 L 349.228,113.386 L 340.157,113.386 L 331.087,113.386 L 322.016,113.386 L 312.945,113.386 L 303.874,113.386 L 294.803,113.386 L 285.732,113.386 L 276.661,113.386 L 267.591,113.386 L 258.52,113.386 L 249.449,113.386 L 240.378,122.457 L 249.449,131.528 z " style="fill-opacity:0.5;fill:rgb(253,0,0);stroke:rgb(253,0,0);stroke-width:2"/></g>
<g fill-rule="evenodd"><path d=" z " style="fill-opacity:0.5;fill:rgb(0,253,0);stroke:rgb(0,0,0);stroke-width:5"/></g>
<g fill-rule="evenodd"><path d="M 875.339,222.236 L 884.409,222.236 L 893.48,213.165 L 884.409,204.094 L 875.339,204.094 L 866.268,213.165 L 875.339,222.236 z " style="fill-opacity:0.5;fill:rgb(253,0,0);stroke:rgb(253,0,0);stroke-width:2"/></g>
<g fill-rule="evenodd"><path d="M 875.339,222.236 L 893.48,213.165 L 875.339,204.094 L 875.339,222.236 z " style="fill-opacity:0.5;fill:rgb(0,253,0);stroke:rgb(0,0,0);stroke-width:5"/></g>
<g fill-rule="evenodd"><path d="M 113.386,312.945 L 122.457,312.945 L 131.528,322.016 L 140.598,331.087 L 140.598,340.157 L 131.528,340.157 L 122.457,349.228 L 131.528,358.299 L 140.598,358.299 L 149.669,367.37 L 158.74,376.441 L 158.74,385.512 L 158.74,394.583 L 158.74,403.654 L 167.811,412.724 L 176.882,421.795 L 176.882,430.866 L 176.882,439.937 L 176.882,449.008 L 185.953,458.079 L 195.024,467.15 L 195.024,476.22 L 204.094,485.291 L 213.165,494.362 L 213.165,503.433 L 213.165,512.504 L 213.165,521.575 L 213.165,530.646 L 213.165,539.717 L 204.094,539.717 L 195.024,539.717 L 185.953,539.717 L 185.953,530.646 L 195.024,521.575 L 185.953,512.504 L 176.882,512.504 L 167.811,512.504 L 167.811,503.433 L 167.811,494.362 L 158.74,485.291 L 149.669,485.291 L 149.669,476.22 L 149.669,467.15 L 140.598,458.079 L 131.528,458.079 L 122.457,458.079 L 113.386,458.079 L 104.315,467.15 L 95.2441,467.15 L 86.1732,467.15 L 77.1024,467.15 L 68.0315,458.079 L 58.9606,458.079 L 49.8898,458.079 L 40.8189,458.079 L 31.748,467.15 L 22.6772,467.15 L 13.6063,476.22 L 4.53543,476.22 L 4.53543,467.15 L 4.53543,458.079 L 4.53543,449.008 L 4.53543,439.937 L 4.53543,430.866 L 4.53543,421.795 L 4.53543,412.724 L 4.53543,403.654 L 4.53543,394.583 L 4.53543,385.512 L 4.53543,376.441 L 4.53543,367.37 L 4.53543,358.299 L 4.53543,349.228 L 4.53543,340.157 L 4.53543,331.087 L 4.53543,322.016 L 13.6063,322.016 L 13.6063,331.087 L 22.6772,340.157 L 31.748,340.157 L 40.8189,340.157 L 49.8898,340.157 L 58.9606,340.157 L 68.0315,340.157 L 77.1024,340.157 L 86.1732,340.157 L 95.2441,331.087 L 95.2441,322.016 L 104.315,322.016 L 113.386,312.945 z " style="fill-opacity:0.5;fill:rgb(253,0,0);stroke:rgb(253,0,0);stroke-width:2"/></g>
<g fill-rule="evenodd"><path d="M 213.165,539.717 L 213.165,494.362 L 176.882,449.008 L 158.74,376.441 L 122.457,349.228 L 140.598,331.087 L 122.457,312.945 L 86.1732,340.157 L 22.6772,340.157 L 4.53543,322.016 L 4.53543,476.22 L 40.8189,458.079 L 140.598,458.079 L 167.811,512.504 L 195.024,521.575 L 185.953,539.717 L 213.165,539.717 z " style="fill-opacity:0.5;fill:rgb(0,253,0);stroke:rgb(0,0,0);stroke-width:5"/></g>
<g fill-rule="evenodd"><path d="M 603.213,349.228 L 612.283,349.228 L 612.283,358.299 L 612.283,367.37 L 603.213,367.37 L 603.213,358.299 L 603.213,349.228 z " style="fill-opacity:0.5;fill:rgb(253,0,0);stroke:rgb(253,0,0);stroke-width:2"/></g>
<g fill-rule="evenodd"><path d=" z " style="fill-opacity:0.5;fill:rgb(0,253,0);stroke:rgb(0,0,0);stroke-width:5"/></g>
<g fill-rule="evenodd"><path d="M 494.362,430.866 L 503.433,430.866 L 494.362,430.866 z " style="fill-opacity:0.5;fill:rgb(253,0,0);stroke:rgb(253,0,0);stroke-width:2"/></g>
<g fill-rule="evenodd"><path d="M 503.433,430.866 z " style="fill-opacity:0.5;fill:rgb(0,253,0);stroke:rgb(0,0,0);stroke-width:5"/></g>
<g fill-rule="evenodd"><path d="M 712.063,439.937 L 721.134,439.937 L 721.134,449.008 L 721.134,458.079 L 712.063,458.079 L 712.063,449.008 L 712.063,439.937 z " style="fill-opacity:0.5;fill:rgb(253,0,0);stroke:rgb(253,0,0);stroke-width:2"/></g>
<g fill-rule="evenodd"><path d=" z " style="fill-opacity:0.5;fill:rgb(0,253,0);stroke:rgb(0,0,0);stroke-width:5"/></g>
<g fill-rule="evenodd"><path d="M 1093.04,539.717 L 1102.11,539.717 L 1111.18,548.787 L 1120.25,548.787 L 1129.32,557.858 L 1138.39,557.858 L 1147.46,557.858 L 1156.54,557.858 L 1156.54,566.929 L 1156.54,576 L 1147.46,576 L 1138.39,576 L 1129.32,576 L 1120.25,566.929 L 1111.18,566.929 L 1102.11,566.929 L 1093.04,566.929 L 1083.97,566.929 L 1074.9,566.929 L 1074.9,557.858 L 1083.97,548.787 L 1093.04,539.717 z " style="fill-opacity:0.5;fill:rgb(253,0,0);stroke:rgb(253,0,0);stroke-width:2"/></g>
<g fill-rule="evenodd"><path d="M 1156.54,576 L 1156.54,557.858 L 1102.11,539.717 L 1074.9,557.858 L 1156.54,576 z " style="fill-opacity:0.5;fill:rgb(0,253,0);stroke:rgb(0,0,0);stroke-width:5"/></g>
<g fill-rule="evenodd"><path d="M 712.063,548.787 L 721.134,548.787 L 730.205,548.787 L 739.276,548.787 L 739.276,557.858 L 739.276,566.929 L 730.205,566.929 L 721.134,566.929 L 712.063,566.929 L 712.063,557.858 L 712.063,548.787 z " style="fill-opacity:0.5;fill:rgb(253,0,0);stroke:rgb(253,0,0);stroke-width:2"/></g>
<g fill-rule="evenodd"><path d="M 739.276,566.929 L 739.276,548.787 L 712.063,548.787 L 712.063,566.929 L 739.276,566.929 z " style="fill-opacity:0.5;fill:rgb(0,253,0);stroke:rgb(0,0,0);stroke-width:5"/></g>
<g fill-rule="evenodd"><path d="M 4.53543,594.142 L 13.6063,594.142 L 22.6772,594.142 L 31.748,594.142 L 40.8189,603.213 L 49.8898,603.213 L 58.9606,603.213 L 68.0315,603.213 L 77.1024,594.142 L 77.1024,603.213 L 68.0315,612.283 L 58.9606,612.283 L 49.8898,612.283 L 40.8189,612.283 L 31.748,603.213 L 22.6772,603.213 L 13.6063,603.213 L 4.53543,603.213 L 4.53543,594.142 z " style="fill-opacity:0.5;fill:rgb(253,0,0);stroke:rgb(253,0,0);stroke-width:2"/></g>
<g fill-rule="evenodd"><path d="M 77.1024,603.213 L 4.53543,594.142 L 40.8189,612.283 L 77.1024,603.213 z " style="fill-opacity:0.5;fill:rgb(0,253,0);stroke:rgb(0,0,0);stroke-width:5"/></g>
<g fill-rule="evenodd"><path d="M 331.087,594.142 L 340.157,594.142 L 331.087,594.142 z " style="fill-opacity:0.5;fill:rgb(253,0,0);stroke:rgb(253,0,0);stroke-width:2"/></g>
<g fill-rule="evenodd"><path d="M 340.157,594.142 z " style="fill-opacity:0.5;fill:rgb(0,253,0);stroke:rgb(0,0,0);stroke-width:5"/></g>
<g fill-rule="evenodd"><path d="M 421.795,603.213 L 430.866,603.213 L 439.937,603.213 L 449.008,603.213 L 449.008,612.283 L 449.008,621.354 L 439.937,621.354 L 430.866,621.354 L 421.795,612.283 L 421.795,603.213 z " style="fill-opacity:0.5;fill:rgb(253,0,0);stroke:rgb(253,0,0);stroke-width:2"/></g>
<g fill-rule="evenodd"><path d="M 449.008,621.354 L 449.008,603.213 L 421.795,603.213 L 430.866,621.354 L 449.008,621.354 z " style="fill-opacity:0.5;fill:rgb(0,253,0);stroke:rgb(0,0,0);stroke-width:5"/></g>
<g fill-rule="evenodd"><path d="M 95.2441,612.283 L 104.315,612.283 L 113.386,612.283 L 104.315,621.354 L 113.386,630.425 L 122.457,630.425 L 131.528,630.425 L 140.598,630.425 L 149.669,639.496 L 158.74,639.496 L 167.811,639.496 L 176.882,639.496 L 185.953,639.496 L 195.024,639.496 L 204.094,639.496 L 213.165,639.496 L 222.236,639.496 L 231.307,639.496 L 240.378,648.567 L 249.449,648.567 L 258.52,657.638 L 267.591,666.709 L 267.591,675.78 L 276.661,684.85 L 285.732,684.85 L 294.803,693.921 L 303.874,702.992 L 303.874,712.063 L 312.945,721.134 L 322.016,730.205 L 322.016,739.276 L 322.016,748.346 L 322.016,757.417 L 322.016,766.488 L 322.016,775.559 L 312.945,775.559 L 303.874,784.63 L 303.874,793.701 L 303.874,802.772 L 303.874,811.843 L 303.874,820.913 L 303.874,829.984 L 303.874,839.055 L 294.803,839.055 L 285.732,848.126 L 276.661,848.126 L 267.591,857.197 L 258.52,857.197 L 249.449,857.197 L 240.378,857.197 L 231.307,866.268 L 231.307,875.339 L 231.307,884.409 L 231.307,893.48 L 222.236,893.48 L 213.165,902.551 L 222.236,911.622 L 231.307,911.622 L 240.378,911.622 L 249.449,911.622 L 258.52,911.622 L 267.591,911.622 L 276.661,920.693 L 285.732,920.693 L 294.803,929.764 L 303.874,929.764 L 312.945,929.764 L 322.016,929.764 L 331.087,920.693 L 340.157,920.693 L 349.228,911.622 L 358.299,911.622 L 367.37,902.551 L 376.441,902.551 L 385.512,902.551 L 394.583,902.551 L 403.654,902.551 L 412.724,902.551 L 421.795,893.48 L 430.866,893.48 L 439.937,893.48 L 449.008,893.48 L 458.079,902.551 L 467.15,902.551 L 476.22,902.551 L 485.291,902.551 L 494.362,902.551 L 503.433,902.551 L 512.504,911.622 L 521.575,911.622 L 530.646,920.693 L 539.717,929.764 L 539.717,938.835 L 548.787,947.906 L 557.858,956.976 L 557.858,966.047 L 548.787,966.047 L 539.717,975.118 L 548.787,984.189 L 557.858,993.26 L 557.858,1002.33 L 557.858,1011.4 L 557.858,1020.47 L 566.929,1029.54 L 576,1029.54 L 585.071,1038.61 L 594.142,1047.69 L 594.142,1056.76 L 585.071,1056.76 L 576,1065.83 L 576,1074.9 L 585.071,1083.97 L 594.142,1083.97 L 603.213,1074.9 L 603.213,1083.97 L 594.142,1093.04 L 585.071,1093.04 L 576,1093.04 L 566.929,1093.04 L 557.858,1083.97 L 548.787,1083.97 L 548.787,1074.9 L 548.787,1065.83 L 548.787,1056.76 L 557.858,1056.76 L 566.929,1047.69 L 566.929,1038.61 L 557.858,1029.54 L 548.787,1029.54 L 539.717,1020.47 L 530.646,1020.47 L 530.646,1011.4 L 530.646,1002.33 L 530.646,993.26 L 530.646,984.189 L 521.575,975.118 L 512.504,975.118 L 512.504,966.047 L 521.575,966.047 L 530.646,956.976 L 530.646,947.906 L 521.575,938.835 L 512.504,938.835 L 512.504,929.764 L 512.504,920.693 L 503.433,911.622 L 494.362,911.622 L 485.291,911.622 L 476.22,911.622 L 467.15,911.622 L 458.079,911.622 L 449.008,902.551 L 439.937,902.551 L 430.866,902.551 L 421.795,902.551 L 412.724,911.622 L 403.654,911.622 L 394.583,911.622 L 385.512,911.622 L 376.441,911.622 L 367.37,911.622 L 358.299,920.693 L 349.228,920.693 L 340.157,929.764 L 331.087,929.764 L 322.016,938.835 L 322.016,947.906 L 322.016,956.976 L 312.945,956.976 L 303.874,966.047 L 294.803,966.047 L 285.732,975.118 L 276.661,975.118 L 267.591,984.189 L 258.52,984.189 L 249.449,993.26 L 240.378,993.26 L 231.307,1002.33 L 231.307,1011.4 L 240.378,1020.47 L 249.449,1020.47 L 249.449,1029.54 L 249.449,1038.61 L 249.449,1047.69 L 240.378,1047.69 L 231.307,1056.76 L 231.307,1065.83 L 231.307,1074.9 L 231.307,1083.97 L 231.307,1093.04 L 231.307,1102.11 L 231.307,1111.18 L 231.307,1120.25 L 240.378,1129.32 L 249.449,1129.32 L 249.449,1138.39 L 249.449,1147.46 L 258.52,1156.54 L 267.591,1156.54 L 276.661,1156.54 L 285.732,1156.54 L 294.803,1156.54 L 303.874,1156.54 L 312.945,1156.54 L 322.016,1156.54 L 331.087,1156.54 L 340.157,1156.54 L 349.228,1156.54 L 358.299,1156.54 L 367.37,1156.54 L 376.441,1156.54 L 385.512,1156.54 L 394.583,1156.54 L 403.654,1156.54 L 412.724,1156.54 L 421.795,1156.54 L 430.866,1156.54 L 439.937,1156.54 L 449.008,1156.54 L 458.079,1156.54 L 467.15,1156.54 L 476.22,1156.54 L 485.291,1156.54 L 494.362,1156.54 L 503.433,1156.54 L 512.504,1156.54 L 521.575,1156.54 L 530.646,1156.54 L 539.717,1156.54 L 548.787,1156.54 L 557.858,1156.54 L 566.929,1156.54 L 576,1156.54 L 585.071,1156.54 L 594.142,1156.54 L 603.213,1156.54 L 612.283,1156.54 L 621.354,1156.54 L 630.425,1156.54 L 639.496,1147.46 L 630.425,1138.39 L 621.354,1138.39 L 621.354,1129.32 L 621.354,1120.25 L 612.283,1111.18 L 612.283,1102.11 L 621.354,1093.04 L 630.425,1093.04 L 639.496,1093.04 L 630.425,1102.11 L 630.425,1111.18 L 639.496,1120.25 L 648.567,1129.32 L 648.567,1138.39 L 657.638,1147.46 L 666.709,1147.46 L 675.78,1156.54 L 684.85,1156.54 L 693.921,1156.54 L 702.992,1156.54 L 712.063,1156.54 L 721.134,1156.54 L 730.205,1156.54 L 739.276,1156.54 L 748.346,1156.54 L 757.417,1156.54 L 766.488,1147.46 L 766.488,1138.39 L 766.488,1129.32 L 775.559,1129.32 L 784.63,1120.25 L 784.63,1111.18 L 784.63,1102.11 L 784.63,1093.04 L 784.63,1083.97 L 784.63,1074.9 L 784.63,1065.83 L 784.63,1056.76 L 775.559,1047.69 L 766.488,1047.69 L 766.488,1038.61 L 766.488,1029.54 L 757.417,1020.47 L 748.346,1020.47 L 748.346,1011.4 L 748.346,1002.33 L 739.276,993.26 L 730.205,993.26 L 721.134,984.189 L 712.063,984.189 L 702.992,984.189 L 693.921,984.189 L 684.85,984.189 L 675.78,984.189 L 666.709,975.118 L 657.638,975.118 L 657.638,966.047 L 666.709,956.976 L 675.78,956.976 L 684.85,956.976 L 693.921,956.976 L 702.992,956.976 L 712.063,947.906 L 721.134,947.906 L 730.205,947.906 L 739.276,947.906 L 748.346,947.906 L 757.417,947.906 L 766.488,947.906 L 775.559,947.906 L 784.63,947.906 L 793.701,947.906 L 802.772,947.906 L 811.843,956.976 L 811.843,966.047 L 811.843,975.118 L 820.913,984.189 L 829.984,984.189 L 839.055,993.26 L 848.126,993.26 L 857.197,1002.33 L 866.268,1002.33 L 875.339,1011.4 L 884.409,1011.4 L 893.48,1020.47 L 902.551,1020.47 L 902.551,1029.54 L 902.551,1038.61 L 902.551,1047.69 L 902.551,1056.76 L 911.622,1065.83 L 920.693,1065.83 L 920.693,1074.9 L 920.693,1083.97 L 920.693,1093.04 L 911.622,1093.04 L 902.551,1102.11 L 911.622,1111.18 L 920.693,1111.18 L 920.693,1120.25 L 929.764,1129.32 L 938.835,1129.32 L 938.835,1138.39 L 929.764,1138.39 L 920.693,1147.46 L 929.764,1156.54 L 938.835,1156.54 L 947.906,1156.54 L 956.976,1156.54 L 966.047,1147.46 L 975.118,1147.46 L 984.189,1138.39 L 975.118,1147.46 L 984.189,1156.54 L 993.26,1156.54 L 1002.33,1156.54 L 1011.4,1156.54 L 1020.47,1156.54 L 1029.54,1156.54 L 1038.61,1156.54 L 1047.69,1156.54 L 1056.76,1156.54 L 1065.83,1156.54 L 1074.9,1156.54 L 1083.97,1156.54 L 1093.04,1156.54 L 1102.11,1156.54 L 1111.18,1156.54 L 1120.25,1147.46 L 1129.32,1147.46 L 1138.39,1147.46 L 1147.46,1147.46 L 1156.54,1147.46 L 1156.54,1156.54 L 1147.46,1156.54 L 1138.39,1156.54 L 1129.32,1156.54 L 1120.25,1156.54 L 1111.18,1156.54 L 1102.11,1156.54 L 1093.04,1156.54 L 1083.97,1156.54 L 1074.9,1156.54 L 1065.83,1156.54 L 1056.76,1156.54 L 1047.69,1156.54 L 1038.61,1156.54 L 1029.54,1156.54 L 1020.47,1156.54 L 1011.4,1156.54 L 1002.33,1156.54 L 993.26,1156.54 L 984.189,1156.54 L 975.118,1156.54 L 966.047,1156.54 L 956.976,1156.54 L 947.906,1156.54 L 938.835,1156.54 L 929.764,1156.54 L 920.693,1156.54 L 911.622,1156.54 L 902.551,1156.54 L 893.48,1156.54 L 884.409,1156.54 L 875.339,1156.54 L 866.268,1156.54 L 857.197,1156.54 L 848.126,1156.54 L 839.055,1156.54 L 829.984,1156.54 L 820.913,1156.54 L 811.843,1156.54 L 802.772,1156.54 L 793.701,1156.54 L 784.63,1156.54 L 775.559,1156.54 L 766.488,1156.54 L 757.417,1156.54 L 748.346,1156.54 L 739.276,1156.54 L 730.205,1156.54 L 721.134,1156.54 L 712.063,1156.54 L 702.992,1156.54 L 693.921,1156.54 L 684.85,1156.54 L 675.78,1156.54 L 666.709,1156.54 L 657.638,1156.54 L 648.567,1156.54 L 639.496,1156.54 L 630.425,1156.54 L 621.354,1156.54 L 612.283,1156.54 L 603.213,1156.54 L 594.142,1156.54 L 585.071,1156.54 L 576,1156.54 L 566.929,1156.54 L 557.858,1156.54 L 548.787,1156.54 L 539.717,1156.54 L 530.646,1156.54 L 521.575,1156.54 L 512.504,1156.54 L 503.433,1156.54 L 494.362,1156.54 L 485.291,1156.54 L 476.22,1156.54 L 467.15,1156.54 L 458.079,1156.54 L 449.008,1156.54 L 439.937,1156.54 L 430.866,1156.54 L 421.795,1156.54 L 412.724,1156.54 L 403.654,1156.54 L 394.583,1156.54 L 385.512,1156.54 L 376.441,1156.54 L 367.37,1156.54 L 358.299,1156.54 L 349.228,1156.54 L 340.157,1156.54 L 331.087,1156.54 L 322.016,1156.54 L 312.945,1156.54 L 303.874,1156.54 L 294.803,1156.54 L 285.732,1156.54 L 276.661,1156.54 L 267.591,1156.54 L 258.52,1156.54 L 249.449,1156.54 L 240.378,1156.54 L 231.307,1156.54 L 222.236,1156.54 L 213.165,1156.54 L 204.094,1156.54 L 195.024,1156.54 L 185.953,1156.54 L 176.882,1156.54 L 167.811,1156.54 L 158.74,1156.54 L 149.669,1156.54 L 140.598,1156.54 L 131.528,1156.54 L 122.457,1156.54 L 113.386,1156.54 L 104.315,1156.54 L 95.2441,1156.54 L 86.1732,1156.54 L 77.1024,1156.54 L 68.0315,1156.54 L 58.9606,1156.54 L 49.8898,1156.54 L 40.8189,1156.54 L 31.748,1156.54 L 22.6772,1156.54 L 13.6063,1156.54 L 4.53543,1156.54 L 4.53543,1147.46 L 13.6063,1147.46 L 22.6772,1147.46 L 31.748,1147.46 L 40.8189,1147.46 L 49.8898,1156.54 L 58.9606,1156.54 L 68.0315,1156.54 L 77.1024,1156.54 L 86.1732,1156.54 L 95.2441,1156.54 L 104.315,1156.54 L 113.386,1156.54 L 122.457,1156.54 L 131.528,1156.54 L 140.598,1156.54 L 149.669,1156.54 L 158.74,1156.54 L 167.811,1156.54 L 176.882,1156.54 L 185.953,1156.54 L 195.024,1156.54 L 204.094,1147.46 L 204.094,1138.39 L 204.094,1129.32 L 204.094,1120.25 L 204.094,1111.18 L 204.094,1102.11 L 204.094,1093.04 L 204.094,1083.97 L 204.094,1074.9 L 204.094,1065.83 L 213.165,1056.76 L 222.236,1047.69 L 222.236,1038.61 L 222.236,1029.54 L 213.165,1020.47 L 204.094,1020.47 L 204.094,1011.4 L 213.165,1002.33 L 222.236,993.26 L 231.307,993.26 L 240.378,984.189 L 249.449,984.189 L 258.52,975.118 L 267.591,975.118 L 276.661,966.047 L 267.591,956.976 L 258.52,956.976 L 258.52,947.906 L 249.449,938.835 L 240.378,938.835 L 231.307,938.835 L 222.236,938.835 L 213.165,929.764 L 204.094,929.764 L 195.024,929.764 L 185.953,929.764 L 176.882,938.835 L 167.811,938.835 L 158.74,938.835 L 149.669,938.835 L 140.598,947.906 L 140.598,956.976 L 131.528,956.976 L 122.457,956.976 L 113.386,956.976 L 104.315,956.976 L 95.2441,956.976 L 86.1732,966.047 L 77.1024,966.047 L 68.0315,966.047 L 58.9606,966.047 L 49.8898,956.976 L 40.8189,956.976 L 31.748,947.906 L 22.6772,947.906 L 13.6063,947.906 L 4.53543,947.906 L 4.53543,938.835 L 4.53543,929.764 L 13.6063,929.764 L 22.6772,929.764 L 31.748,929.764 L 40.8189,938.835 L 49.8898,938.835 L 58.9606,947.906 L 68.0315,947.906 L 77.1024,947.906 L 86.1732,947.906 L 95.2441,938.835 L 95.2441,929.764 L 95.2441,920.693 L 104.315,920.693 L 113.386,911.622 L 122.457,911.622 L 131.528,911.622 L 140.598,911.622 L 149.669,920.693 L 158.74,920.693 L 167.811,920.693 L 176.882,920.693 L 185.953,911.622 L 185.953,902.551 L 185.953,893.48 L 185.953,884.409 L 185.953,875.339 L 195.024,875.339 L 204.094,866.268 L 204.094,857.197 L 204.094,848.126 L 213.165,848.126 L 222.236,839.055 L 231.307,839.055 L 240.378,839.055 L 249.449,839.055 L 258.52,839.055 L 267.591,839.055 L 276.661,829.984 L 276.661,820.913 L 276.661,811.843 L 276.661,802.772 L 276.661,793.701 L 276.661,784.63 L 276.661,775.559 L 285.732,775.559 L 294.803,766.488 L 294.803,757.417 L 294.803,748.346 L 294.803,739.276 L 294.803,730.205 L 294.803,721.134 L 285.732,712.063 L 276.661,712.063 L 276.661,702.992 L 276.661,693.921 L 267.591,684.85 L 258.52,684.85 L 249.449,675.78 L 240.378,675.78 L 240.378,666.709 L 240.378,657.638 L 231.307,648.567 L 222.236,648.567 L 213.165,648.567 L 204.094,648.567 L 195.024,648.567 L 185.953,648.567 L 176.882,648.567 L 167.811,648.567 L 158.74,648.567 L 149.669,648.567 L 140.598,639.496 L 131.528,639.496 L 122.457,639.496 L 113.386,639.496 L 104.315,639.496 L 95.2441,639.496 L 86.1732,630.425 L 86.1732,621.354 L 95.2441,612.283 z " style="fill-opacity:0.5;fill:rgb(253,0,0);stroke:rgb(253,0,0);stroke-width:2"/></g>
<g fill-rule="evenodd"><path d="M 1156.54,1156.54 L 984.189,1156.54 L 984.189,1138.39 L 929.764,1156.54 L 920.693,1147.46 L 938.835,1129.32 L 902.551,1102.11 L 920.693,1093.04 L 902.551,1020.47 L 820.913,984.189 L 802.772,947.906 L 712.063,947.906 L 657.638,966.047 L 675.78,984.189 L 739.276,993.26 L 766.488,1047.69 L 784.63,1056.76 L 784.63,1120.25 L 757.417,1156.54 L 657.638,1147.46 L 630.425,1111.18 L 639.496,1093.04 L 612.283,1102.11 L 621.354,1138.39 L 639.496,1147.46 L 630.425,1156.54 L 258.52,1156.54 L 231.307,1120.25 L 231.307,1056.76 L 249.449,1047.69 L 249.449,1020.47 L 231.307,1002.33 L 322.016,956.976 L 322.016,938.835 L 367.37,911.622 L 503.433,911.622 L 530.646,947.906 L 512.504,966.047 L 530.646,984.189 L 530.646,1020.47 L 566.929,1038.61 L 548.787,1056.76 L 548.787,1083.97 L 594.142,1093.04 L 603.213,1074.9 L 576,1074.9 L 594.142,1047.69 L 557.858,1020.47 L 557.858,993.26 L 539.717,975.118 L 557.858,956.976 L 503.433,902.551 L 421.795,893.48 L 367.37,902.551 L 322.016,929.764 L 222.236,911.622 L 213.165,902.551 L 231.307,893.48 L 240.378,857.197 L 303.874,839.055 L 322.016,730.205 L 231.307,639.496 L 149.669,639.496 L 113.386,630.425 L 113.386,612.283 L 86.1732,621.354 L 95.2441,639.496 L 231.307,648.567 L 240.378,675.78 L 267.591,684.85 L 294.803,721.134 L 294.803,766.488 L 276.661,775.559 L 276.661,829.984 L 204.094,848.126 L 176.882,920.693 L 113.386,911.622 L 86.1732,947.906 L 31.748,929.764 L 4.53543,929.764 L 4.53543,947.906 L 86.1732,966.047 L 213.165,929.764 L 249.449,938.835 L 276.661,966.047 L 204.094,1011.4 L 222.236,1047.69 L 204.094,1065.83 L 195.024,1156.54 L 4.53543,1156.54 L 1156.54,1156.54 z " style="fill-opacity:0.5;fill:rgb(0,253,0);stroke:rgb(0,0,0);stroke-width:5"/></g>
<g fill-rule="evenodd"><path d="M 748.346,621.354 L 757.417,621.354 L 748.346,621.354 z " style="fill-opacity:0.5;fill:rgb(253,0,0);stroke:rgb(253,0,0);stroke-width:2"/></g>
<g fill-rule="evenodd"><path d="M 757.417,621.354 z " style="fill-opacity:0.5;fill:rgb(0,253,0);stroke:rgb(0,0,0);stroke-width:5"/></g>
<g fill-rule="evenodd"><path d="M 956.976,630.425 L 966.047,630.425 L 975.118,630.425 L 984.189,639.496 L 993.26,648.567 L 993.26,657.638 L 984.189,657.638 L 975.118,666.709 L 984.189,675.78 L 993.26,675.78 L 1002.33,684.85 L 1011.4,693.921 L 1011.4,702.992 L 1020.47,712.063 L 1029.54,712.063 L 1038.61,702.992 L 1047.69,702.992 L 1056.76,702.992 L 1065.83,702.992 L 1074.9,702.992 L 1083.97,702.992 L 1093.04,702.992 L 1102.11,702.992 L 1111.18,702.992 L 1120.25,702.992 L 1129.32,693.921 L 1138.39,693.921 L 1147.46,693.921 L 1156.54,693.921 L 1156.54,702.992 L 1156.54,712.063 L 1156.54,721.134 L 1156.54,730.205 L 1156.54,739.276 L 1156.54,748.346 L 1156.54,757.417 L 1156.54,766.488 L 1156.54,775.559 L 1156.54,784.63 L 1156.54,793.701 L 1156.54,802.772 L 1156.54,811.843 L 1147.46,820.913 L 1156.54,829.984 L 1156.54,839.055 L 1147.46,839.055 L 1138.39,848.126 L 1129.32,839.055 L 1120.25,848.126 L 1111.18,848.126 L 1102.11,848.126 L 1093.04,848.126 L 1093.04,839.055 L 1093.04,829.984 L 1083.97,820.913 L 1074.9,820.913 L 1065.83,829.984 L 1065.83,839.055 L 1056.76,839.055 L 1047.69,848.126 L 1038.61,848.126 L 1029.54,848.126 L 1020.47,839.055 L 1020.47,829.984 L 1029.54,829.984 L 1038.61,820.913 L 1029.54,811.843 L 1020.47,811.843 L 1011.4,802.772 L 1002.33,802.772 L 993.26,793.701 L 984.189,793.701 L 984.189,784.63 L 993.26,775.559 L 1002.33,766.488 L 1002.33,757.417 L 1002.33,748.346 L 993.26,739.276 L 984.189,739.276 L 984.189,730.205 L 984.189,721.134 L 975.118,712.063 L 966.047,712.063 L 966.047,702.992 L 966.047,693.921 L 956.976,684.85 L 947.906,684.85 L 947.906,675.78 L 947.906,666.709 L 947.906,657.638 L 947.906,648.567 L 947.906,639.496 L 956.976,630.425 z " style="fill-opacity:0.5;fill:rgb(253,0,0);stroke:rgb(253,0,0);stroke-width:2"/></g>
<g fill-rule="evenodd"><path d="M 1156.54,839.055 L 1156.54,693.921 L 1020.47,712.063 L 975.118,666.709 L 993.26,648.567 L 956.976,630.425 L 947.906,684.85 L 1002.33,748.346 L 984.189,793.701 L 1038.61,820.913 L 1020.47,839.055 L 1047.69,848.126 L 1074.9,820.913 L 1093.04,829.984 L 1093.04,848.126 L 1156.54,839.055 z " style="fill-opacity:0.5;fill:rgb(0,253,0);stroke:rgb(0,0,0);stroke-width:5"/></g>
<g fill-rule="evenodd"><path d="M 458.079,712.063 L 467.15,712.063 L 467.15,721.134 L 467.15,730.205 L 458.079,730.205 L 458.079,721.134 L 458.079,712.063 z " style="fill-opacity:0.5;fill:rgb(253,0,0);stroke:rgb(253,0,0);stroke-width:2"/></g>
<g fill-rule="evenodd"><path d=" z " style="fill-opacity:0.5;fill:rgb(0,253,0);stroke:rgb(0,0,0);stroke-width:5"/></g>
<g fill-rule="evenodd"><path d="M 657.638,730.205 L 666.709,730.205 L 657.638,730.205 z " style="fill-opacity:0.5;fill:rgb(253,0,0);stroke:rgb(253,0,0);stroke-width:2"/></g>
<g fill-rule="evenodd"><path d="M 666.709,730.205 z " style="fill-opacity:0.5;fill:rgb(0,253,0);stroke:rgb(0,0,0);stroke-width:5"/></g>
<g fill-rule="evenodd"><path d="M 403.654,739.276 L 412.724,739.276 L 403.654,739.276 z " style="fill-opacity:0.5;fill:rgb(253,0,0);stroke:rgb(253,0,0);stroke-width:2"/></g>
<g fill-rule="evenodd"><path d="M 412.724,739.276 z " style="fill-opacity:0.5;fill:rgb(0,253,0);stroke:rgb(0,0,0);stroke-width:5"/></g>
<g fill-rule="evenodd"><path d="M 512.504,802.772 L 521.575,802.772 L 521.575,811.843 L 521.575,820.913 L 512.504,820.913 L 512.504,811.843 L 512.504,802.772M 1111.18,811.843 L 1102.11,820.913 L 1111.18,829.984 L 1120.25,829.984 L 1129.32,820.913 L 1120.25,811.843 L 1111.18,811.843 z " style="fill-opacity:0.5;fill:rgb(253,0,0);stroke:rgb(253,0,0);stroke-width:2"/></g>
<g fill-rule="evenodd"><path d="M 1111.18,811.843 L 1129.32,820.913 L 1111.18,829.984 L 1111.18,811.843 z " style="fill-opacity:0.5;fill:rgb(0,253,0);stroke:rgb(0,0,0);stroke-width:5"/></g>
<g fill-rule="evenodd"><path d="M 285.732,966.047 L 294.803,966.047 L 303.874,966.047 L 312.945,956.976 L 303.874,947.906 L 294.803,947.906 L 285.732,947.906 L 276.661,947.906 L 267.591,956.976 L 276.661,966.047 L 285.732,966.047 z " style="fill-opacity:0.5;fill:rgb(253,0,0);stroke:rgb(253,0,0);stroke-width:2"/></g>
<g fill-rule="evenodd"><path d=" z " style="fill-opacity:0.5;fill:rgb(0,253,0);stroke:rgb(0,0,0);stroke-width:5"/></g>
</svg>
