<?xml version="1.0" standalone="no"?>
<!DOCTYPE svg PUBLIC "-//W3C//DTD SVG 1.1//EN"
"http://www.w3.org/Graphics/SVG/1.1/DTD/svg11.dtd">
<svg width="100%" height="100%" version="1.1"
xmlns="http://www.w3.org/2000/svg"
xmlns:xlink="http://www.w3.org/1999/xlink">
<g fill-rule="evenodd"><path d="M 385.512,23.811 L 394.583,23.811 L 403.654,23.811 L 412.724,23.811 L 421.795,32.8819 L 430.866,32.8819 L 439.937,41.9528 L 449.008,41.9528 L 458.079,41.9528 L 467.15,41.9528 L 476.22,41.9528 L 485.291,41.9528 L 485.291,51.0236 L 485.291,60.0945 L 494.362,69.1654 L 503.433,69.1654 L 503.433,78.2362 L 503.433,87.3071 L 512.504,96.378 L 521.575,96.378 L 521.575,105.449 L 530.646,114.52 L 539.717,114.52 L 548.787,114.52 L 557.858,114.52 L 566.929,123.591 L 576,123.591 L 585.071,123.591 L 594.142,123.591 L 603.213,114.52 L 612.283,114.52 L 621.354,114.52 L 630.425,114.52 L 639.496,105.449 L 639.496,96.378 L 648.567,96.378 L 657.638,87.3071 L 657.638,78.2362 L 657.638,69.1654 L 666.709,69.1654 L 675.78,60.0945 L 675.78,51.0236 L 675.78,41.9528 L 684.85,41.9528 L 693.921,41.9528 L 702.992,41.9528 L 712.063,41.9528 L 721.134,41.9528 L 730.205,32.8819 L 739.276,32.8819 L 748.346,23.811 L 757.417,23.811 L 766.488,23.811 L 775.559,23.811 L 784.63,32.8819 L 793.701,32.8819 L 802.772,32.8819 L 811.843,32.8819 L 820.913,32.8819 L 829.984,32.8819 L 829.984,41.9528 L 839.055,51.0236 L 848.126,51.0236 L 857.197,41.9528 L 866.268,41.9528 L 875.339,41.9528 L 884.409,41.9528 L 884.409,51.0236 L 893.48,60.0945 L 902.551,60.0945 L 911.622,60.0945 L 920.693,60.0945 L 920.693,69.1654 L 929.764,78.2362 L 938.835,78.2362 L 947.906,69.1654 L 956.976,69.1654 L 966.047,69.1654 L 975.118,69.1654 L 975.118,78.2362 L 975.118,87.3071 L 966.047,87.3071 L 956.976,96.378 L 966.047,105.449 L 975.118,105.449 L 975.118,114.52 L 984.189,123.591 L 993.26,123.591 L 1002.33,123.591 L 1011.4,123.591 L 1011.4,132.661 L 1020.47,141.732 L 1029.54,141.732 L 1038.61,132.661 L 1047.69,132.661 L 1056.76,123.591 L 1065.83,123.591 L 1074.9,123.591 L 1083.97,123.591 L 1083.97,132.661 L 1083.97,141.732 L 1083.97,150.803 L 1083.97,159.874 L 1083.97,168.945 L 1083.97,178.016 L 1074.9,178.016 L 1065.83,187.087 L 1056.76,187.087 L 1047.69,187.087 L 1038.61,187.087 L 1029.54,178.016 L 1020.47,178.016 L 1011.4,168.945 L 1002.33,168.945 L 993.26,159.874 L 984.189,159.874 L 975.118,159.874 L 966.047,159.874 L 956.976,168.945 L 947.906,168.945 L 938.835,178.016 L 929.764,178.016 L 920.693,187.087 L 920.693,196.157 L 920.693,205.228 L 911.622,205.228 L 902.551,214.299 L 902.551,223.37 L 902.551,232.441 L 902.551,241.512 L 902.551,250.583 L 902.551,259.654 L 902.551,268.724 L 902.551,277.795 L 902.551,286.866 L 893.48,286.866 L 884.409,295.937 L 893.48,305.008 L 902.551,314.079 L 893.48,314.079 L 884.409,305.008 L 875.339,295.937 L 866.268,286.866 L 875.339,277.795 L 875.339,268.724 L 875.339,259.654 L 875.339,250.583 L 875.339,241.512 L 875.339,232.441 L 875.339,223.37 L 875.339,214.299 L 875.339,205.228 L 884.409,205.228 L 893.48,196.157 L 893.48,187.087 L 893.48,178.016 L 902.551,178.016 L 911.622,168.945 L 920.693,168.945 L 929.764,159.874 L 938.835,159.874 L 947.906,150.803 L 956.976,150.803 L 966.047,141.732 L 966.047,132.661 L 956.976,123.591 L 947.906,123.591 L 938.835,114.52 L 929.764,114.52 L 929.764,105.449 L 929.764,96.378 L 920.693,87.3071 L 911.622,87.3071 L 902.551,78.2362 L 893.48,78.2362 L 884.409,69.1654 L 875.339,69.1654 L 866.268,60.0945 L 857.197,60.0945 L 848.126,60.0945 L 839.055,60.0945 L 829.984,60.0945 L 820.913,60.0945 L 811.843,51.0236 L 802.772,51.0236 L 793.701,41.9528 L 784.63,41.9528 L 775.559,32.8819 L 766.488,32.8819 L 757.417,32.8819 L 748.346,32.8819 L 739.276,41.9528 L 730.205,41.9528 L 721.134,51.0236 L 712.063,51.0236 L 702.992,60.0945 L 693.921,60.0945 L 684.85,69.1654 L 684.85,78.2362 L 684.85,87.3071 L 675.78,87.3071 L 666.709,96.378 L 666.709,105.449 L 666.709,114.52 L 657.638,114.52 L 648.567,123.591 L 639.496,123.591 L 630.425,123.591 L 621.354,123.591 L 612.283,123.591 L 603.213,123.591 L 594.142,132.661 L 585.071,132.661 L 576,132.661 L 566.929,132.661 L 557.858,123.591 L 548.787,123.591 L 539.717,123.591 L 530.646,123.591 L 521.575,123.591 L 512.504,123.591 L 503.433,114.52 L 494.362,114.52 L 494.362,105.449 L 494.362,96.378 L 485.291,87.3071 L 476.22,87.3071 L 476.22,78.2362 L 476.22,69.1654 L 467.15,60.0945 L 458.079,60.0945 L 449.008,51.0236 L 439.937,51.0236 L 430.866,41.9528 L 421.795,41.9528 L 412.724,41.9528 L 403.654,51.0236 L 394.583,51.0236 L 385.512,51.0236 L 376.441,41.9528 L 367.37,41.9528 L 358.299,51.0236 L 349.228,51.0236 L 340.157,60.0945 L 331.087,60.0945 L 322.016,60.0945 L 312.945,60.0945 L 303.874,60.0945 L 294.803,60.0945 L 285.732,69.1654 L 276.661,69.1654 L 267.591,78.2362 L 258.52,78.2362 L 249.449,87.3071 L 240.378,87.3071 L 231.307,96.378 L 231.307,105.449 L 231.307,114.52 L 222.236,114.52 L 213.165,123.591 L 204.094,123.591 L 195.024,132.661 L 195.024,141.732 L 204.094,150.803 L 213.165,150.803 L 222.236,159.874 L 231.307,159.874 L 240.378,168.945 L 249.449,168.945 L 258.52,178.016 L 267.591,178.016 L 267.591,187.087 L 267.591,196.157 L 276.661,205.228 L 285.732,205.228 L 285.732,214.299 L 285.732,223.37 L 285.732,232.441 L 285.732,241.512 L 285.732,250.583 L 285.732,259.654 L 285.732,268.724 L 285.732,277.795 L 294.803,286.866 L 285.732,295.937 L 276.661,305.008 L 267.591,314.079 L 258.52,314.079 L 267.591,305.008 L 276.661,295.937 L 267.591,286.866 L 258.52,286.866 L 258.52,277.795 L 258.52,268.724 L 258.52,259.654 L 258.52,250.583 L 258.52,241.512 L 258.52,232.441 L 258.52,223.37 L 258.52,214.299 L 249.449,205.228 L 240.378,205.228 L 240.378,196.157 L 240.378,187.087 L 231.307,178.016 L 222.236,178.016 L 213.165,168.945 L 204.094,168.945 L 195.024,159.874 L 185.953,159.874 L 176.882,159.874 L 167.811,159.874 L 158.74,168.945 L 149.669,168.945 L 140.598,178.016 L 131.528,178.016 L 122.457,187.087 L 113.386,187.087 L 104.315,187.087 L 95.2441,187.087 L 86.1732,178.016 L 77.1024,178.016 L 77.1024,168.945 L 77.1024,159.874 L 77.1024,150.803 L 77.1024,141.732 L 77.1024,132.661 L 77.1024,123.591 L 86.1732,123.591 L 95.2441,123.591 L 104.315,123.591 L 113.386,132.661 L 122.457,132.661 L 131.528,141.732 L 140.598,141.732 L 149.669,132.661 L 149.669,123.591 L 158.74,123.591 L 167.811,123.591 L 176.882,123.591 L 185.953,114.52 L 185.953,105.449 L 195.024,105.449 L 204.094,96.378 L 195.024,87.3071 L 185.953,87.3071 L 185.953,78.2362 L 185.953,69.1654 L 195.024,69.1654 L 204.094,69.1654 L 213.165,69.1654 L 222.236,78.2362 L 231.307,78.2362 L 240.378,69.1654 L 240.378,60.0945 L 249.449,60.0945 L 258.52,60.0945 L 267.591,60.0945 L 276.661,51.0236 L 276.661,41.9528 L 285.732,41.9528 L 294.803,41.9528 L 303.874,41.9528 L 312.945,51.0236 L 322.016,51.0236 L 331.087,41.9528 L 331.087,32.8819 L 340.157,32.8819 L 349.228,32.8819 L 358.299,32.8819 L 367.37,32.8819 L 376.441,32.8819 L 385.512,23.811 z " style="fill-opacity:0.5;fill:rgb(253,0,0);stroke:rgb(253,0,0);stroke-width:2"/></g>
<g fill-rule="evenodd"><path d="M 1083.97,178.016 L 1083.97,123.591 L 1020.47,141.732 L 1011.4,123.591 L 984.189,123.591 L 956.976,96.378 L 975.118,87.3071 L 975.118,69.1654 L 929.764,78.2362 L 884.409,41.9528 L 839.055,51.0236 L 829.984,32.8819 L 775.559,23.811 L 675.78,41.9528 L 657.638,87.3071 L 630.425,114.52 L 594.142,123.591 L 530.646,114.52 L 485.291,60.0945 L 485.291,41.9528 L 439.937,41.9528 L 412.724,23.811 L 331.087,32.8819 L 322.016,51.0236 L 276.661,41.9528 L 231.307,78.2362 L 185.953,69.1654 L 185.953,87.3071 L 204.094,96.378 L 176.882,123.591 L 149.669,123.591 L 140.598,141.732 L 77.1024,123.591 L 77.1024,178.016 L 95.2441,187.087 L 122.457,187.087 L 167.811,159.874 L 195.024,159.874 L 240.378,187.087 L 240.378,205.228 L 258.52,214.299 L 258.52,286.866 L 276.661,295.937 L 258.52,314.079 L 294.803,286.866 L 285.732,205.228 L 267.591,196.157 L 267.591,178.016 L 204.094,150.803 L 195.024,132.661 L 231.307,114.52 L 240.378,87.3071 L 367.37,41.9528 L 430.866,41.9528 L 476.22,69.1654 L 494.362,114.52 L 566.929,132.661 L 666.709,114.52 L 684.85,69.1654 L 748.346,32.8819 L 775.559,32.8819 L 820.913,60.0945 L 866.268,60.0945 L 920.693,87.3071 L 929.764,114.52 L 966.047,141.732 L 893.48,178.016 L 893.48,196.157 L 875.339,205.228 L 866.268,286.866 L 893.48,314.079 L 884.409,295.937 L 902.551,286.866 L 902.551,214.299 L 929.764,178.016 L 966.047,159.874 L 993.26,159.874 L 1038.61,187.087 L 1083.97,178.016 z " style="fill-opacity:0.5;fill:rgb(0,253,0);stroke:rgb(0,0,0);stroke-width:5"/></g>
<g fill-rule="evenodd"><path d="M 4.53543,114.52 L 13.6063,114.52 L 22.6772,123.591 L 31.748,123.591 L 31.748,132.661 L 31.748,141.732 L 31.748,150.803 L 31.748,159.874 L 31.748,168.945 L 31.748,178.016 L 22.6772,178.016 L 13.6063,187.087 L 4.53543,187.087 L 4.53543,178.016 L 4.53543,168.945 L 4.53543,159.874 L 4.53543,150.803 L 4.53543,141.732 L 4.53543,132.661 L 4.53543,123.591 L 4.53543,114.52 z " style="fill-opacity:0.5;fill:rgb(253,0,0);stroke:rgb(253,0,0);stroke-width:2"/></g>
<g fill-rule="evenodd"><path d="M 13.6063,187.087 L 31.748,178.016 L 31.748,123.591 L 4.53543,114.52 L 13.6063,187.087 z " style="fill-opacity:0.5;fill:rgb(0,253,0);stroke:rgb(0,0,0);stroke-width:5"/></g>
<g fill-rule="evenodd"><path d="M 1147.46,114.52 L 1156.54,114.52 L 1156.54,123.591 L 1156.54,132.661 L 1156.54,141.732 L 1156.54,150.803 L 1156.54,159.874 L 1156.54,168.945 L 1156.54,178.016 L 1156.54,187.087 L 1147.46,187.087 L 1138.39,178.016 L 1129.32,178.016 L 1129.32,168.945 L 1129.32,159.874 L 1129.32,150.803 L 1129.32,141.732 L 1129.32,132.661 L 1129.32,123.591 L 1138.39,123.591 L 1147.46,114.52 z " style="fill-opacity:0.5;fill:rgb(253,0,0);stroke:rgb(253,0,0);stroke-width:2"/></g>
<g fill-rule="evenodd"><path d="M 1156.54,187.087 L 1147.46,114.52 L 1129.32,123.591 L 1129.32,178.016 L 1156.54,187.087 z " style="fill-opacity:0.5;fill:rgb(0,253,0);stroke:rgb(0,0,0);stroke-width:5"/></g>
<g fill-rule="evenodd"><path d="M 421.795,205.228 L 430.866,205.228 L 430.866,214.299 L 421.795,214.299 L 421.795,205.228 z " style="fill-opacity:0.5;fill:rgb(253,0,0);stroke:rgb(253,0,0);stroke-width:2"/></g>
<g fill-rule="evenodd"><path d=" z " style="fill-opacity:0.5;fill:rgb(0,253,0);stroke:rgb(0,0,0);stroke-width:5"/></g>
<g fill-rule="evenodd"><path d="M 730.205,205.228 L 739.276,205.228 L 739.276,214.299 L 730.205,214.299 L 730.205,205.228 z " style="fill-opacity:0.5;fill:rgb(253,0,0);stroke:rgb(253,0,0);stroke-width:2"/></g>
<g fill-rule="evenodd"><path d=" z " style="fill-opacity:0.5;fill:rgb(0,253,0);stroke:rgb(0,0,0);stroke-width:5"/></g>
<g fill-rule="evenodd"><path d="M 4.53543,214.299 L 13.6063,214.299 L 22.6772,214.299 L 31.748,214.299 L 31.748,223.37 L 31.748,232.441 L 31.748,241.512 L 22.6772,241.512 L 13.6063,241.512 L 4.53543,241.512 L 4.53543,232.441 L 4.53543,223.37 L 4.53543,214.299 z " style="fill-opacity:0.5;fill:rgb(253,0,0);stroke:rgb(253,0,0);stroke-width:2"/></g>
<g fill-rule="evenodd"><path d="M 31.748,241.512 L 31.748,214.299 L 4.53543,214.299 L 4.53543,241.512 L 31.748,241.512 z " style="fill-opacity:0.5;fill:rgb(0,253,0);stroke:rgb(0,0,0);stroke-width:5"/></g>
<g fill-rule="evenodd"><path d="M 1129.32,214.299 L 1138.39,214.299 L 1147.46,214.299 L 1156.54,214.299 L 1156.54,223.37 L 1156.54,232.441 L 1156.54,241.512 L 1147.46,241.512 L 1138.39,241.512 L 1129.32,241.512 L 1129.32,232.441 L 1129.32,223.37 L 1129.32,214.299 z " style="fill-opacity:0.5;fill:rgb(253,0,0);stroke:rgb(253,0,0);stroke-width:2"/></g>
<g fill-rule="evenodd"><path d="M 1156.54,241.512 L 1156.54,214.299 L 1129.32,214.299 L 1129.32,241.512 L 1156.54,241.512 z " style="fill-opacity:0.5;fill:rgb(0,253,0);stroke:rgb(0,0,0);stroke-width:5"/></g>
<g fill-rule="evenodd"><path d="M 113.386,277.795 L 122.457,277.795 L 131.528,277.795 L 140.598,277.795 L 149.669,286.866 L 158.74,286.866 L 167.811,295.937 L 176.882,295.937 L 176.882,305.008 L 176.882,314.079 L 176.882,323.15 L 167.811,323.15 L 158.74,332.22 L 158.74,341.291 L 167.811,350.362 L 158.74,350.362 L 149.669,359.433 L 140.598,350.362 L 131.528,350.362 L 131.528,341.291 L 131.528,332.22 L 140.598,332.22 L 149.669,323.15 L 140.598,314.079 L 131.528,314.079 L 131.528,305.008 L 122.457,295.937 L 113.386,286.866 L 104.315,286.866 L 113.386,277.795 z " style="fill-opacity:0.5;fill:rgb(253,0,0);stroke:rgb(253,0,0);stroke-width:2"/></g>
<g fill-rule="evenodd"><path d="M 167.811,350.362 L 158.74,332.22 L 176.882,323.15 L 176.882,295.937 L 113.386,277.795 L 104.315,286.866 L 149.669,323.15 L 131.528,332.22 L 131.528,350.362 L 167.811,350.362 z " style="fill-opacity:0.5;fill:rgb(0,253,0);stroke:rgb(0,0,0);stroke-width:5"/></g>
<g fill-rule="evenodd"><path d="M 1020.47,277.795 L 1029.54,277.795 L 1038.61,277.795 L 1047.69,277.795 L 1056.76,286.866 L 1047.69,286.866 L 1038.61,295.937 L 1029.54,305.008 L 1029.54,314.079 L 1020.47,314.079 L 1011.4,323.15 L 1020.47,332.22 L 1029.54,332.22 L 1029.54,341.291 L 1029.54,350.362 L 1020.47,350.362 L 1011.4,359.433 L 1002.33,350.362 L 993.26,350.362 L 1002.33,341.291 L 1002.33,332.22 L 993.26,323.15 L 984.189,323.15 L 984.189,314.079 L 984.189,305.008 L 984.189,295.937 L 993.26,295.937 L 1002.33,286.866 L 1011.4,286.866 L 1020.47,277.795 z " style="fill-opacity:0.5;fill:rgb(253,0,0);stroke:rgb(253,0,0);stroke-width:2"/></g>
<g fill-rule="evenodd"><path d="M 1011.4,359.433 L 1029.54,350.362 L 1029.54,332.22 L 1011.4,323.15 L 1056.76,286.866 L 1047.69,277.795 L 984.189,295.937 L 984.189,323.15 L 1002.33,332.22 L 993.26,350.362 L 1011.4,359.433 z " style="fill-opacity:0.5;fill:rgb(0,253,0);stroke:rgb(0,0,0);stroke-width:5"/></g>
<g fill-rule="evenodd"><path d="M 566.929,286.866 L 576,286.866 L 585.071,286.866 L 594.142,286.866 L 603.213,295.937 L 612.283,295.937 L 621.354,305.008 L 612.283,314.079 L 603.213,323.15 L 594.142,332.22 L 585.071,332.22 L 576,332.22 L 566.929,332.22 L 557.858,323.15 L 548.787,314.079 L 539.717,305.008 L 548.787,295.937 L 557.858,295.937 L 566.929,286.866M 576,305.008 L 566.929,305.008 L 557.858,314.079 L 566.929,323.15 L 576,332.22 L 585.071,332.22 L 594.142,323.15 L 603.213,314.079 L 594.142,305.008 L 585.071,305.008 L 576,305.008 z " style="fill-opacity:0.5;fill:rgb(253,0,0);stroke:rgb(253,0,0);stroke-width:2"/></g>
<g fill-rule="evenodd"><path d="M 621.354,305.008 L 594.142,286.866 L 539.717,305.008 L 566.929,332.22 L 594.142,332.22 L 621.354,305.008M 603.213,314.079 L 585.071,332.22 L 557.858,314.079 L 603.213,314.079 z " style="fill-opacity:0.5;fill:rgb(0,253,0);stroke:rgb(0,0,0);stroke-width:5"/></g>
<g fill-rule="evenodd"><path d="M 4.53543,332.22 L 13.6063,341.291 L 22.6772,341.291 L 31.748,350.362 L 22.6772,350.362 L 13.6063,350.362 L 4.53543,350.362 L 4.53543,341.291 L 4.53543,332.22 z " style="fill-opacity:0.5;fill:rgb(253,0,0);stroke:rgb(253,0,0);stroke-width:2"/></g>
<g fill-rule="evenodd"><path d="M 31.748,350.362 L 4.53543,332.22 L 4.53543,350.362 L 31.748,350.362 z " style="fill-opacity:0.5;fill:rgb(0,253,0);stroke:rgb(0,0,0);stroke-width:5"/></g>
<g fill-rule="evenodd"><path d="M 1147.46,332.22 L 1156.54,332.22 L 1156.54,341.291 L 1156.54,350.362 L 1147.46,350.362 L 1138.39,350.362 L 1129.32,350.362 L 1138.39,341.291 L 1147.46,332.22 z " style="fill-opacity:0.5;fill:rgb(253,0,0);stroke:rgb(253,0,0);stroke-width:2"/></g>
<g fill-rule="evenodd"><path d="M 1129.32,350.362 L 1156.54,350.362 L 1156.54,332.22 L 1129.32,350.362 z " style="fill-opacity:0.5;fill:rgb(0,253,0);stroke:rgb(0,0,0);stroke-width:5"/></g>
<g fill-rule="evenodd"><path d="M 222.236,450.142 L 231.307,450.142 L 240.378,450.142 L 249.449,450.142 L 258.52,459.213 L 267.591,459.213 L 276.661,468.283 L 285.732,468.283 L 294.803,477.354 L 303.874,486.425 L 303.874,495.496 L 294.803,495.496 L 285.732,504.567 L 285.732,513.638 L 285.732,522.709 L 276.661,522.709 L 267.591,522.709 L 258.52,522.709 L 249.449,513.638 L 240.378,513.638 L 231.307,504.567 L 222.236,504.567 L 222.236,495.496 L 222.236,486.425 L 222.236,477.354 L 222.236,468.283 L 222.236,459.213 L 222.236,450.142 z " style="fill-opacity:0.5;fill:rgb(253,0,0);stroke:rgb(253,0,0);stroke-width:2"/></g>
<g fill-rule="evenodd"><path d="M 285.732,522.709 L 303.874,486.425 L 249.449,450.142 L 222.236,450.142 L 222.236,504.567 L 285.732,522.709 z " style="fill-opacity:0.5;fill:rgb(0,253,0);stroke:rgb(0,0,0);stroke-width:5"/></g>
<g fill-rule="evenodd"><path d="M 911.622,450.142 L 920.693,450.142 L 929.764,450.142 L 938.835,450.142 L 938.835,459.213 L 938.835,468.283 L 938.835,477.354 L 938.835,486.425 L 938.835,495.496 L 938.835,504.567 L 929.764,504.567 L 920.693,513.638 L 911.622,513.638 L 902.551,522.709 L 893.48,522.709 L 884.409,522.709 L 875.339,522.709 L 875.339,513.638 L 875.339,504.567 L 866.268,495.496 L 857.197,495.496 L 857.197,486.425 L 857.197,477.354 L 866.268,477.354 L 875.339,468.283 L 884.409,468.283 L 893.48,459.213 L 902.551,459.213 L 911.622,450.142 z " style="fill-opacity:0.5;fill:rgb(253,0,0);stroke:rgb(253,0,0);stroke-width:2"/></g>
<g fill-rule="evenodd"><path d="M 875.339,522.709 L 938.835,504.567 L 938.835,450.142 L 857.197,477.354 L 875.339,522.709 z " style="fill-opacity:0.5;fill:rgb(0,253,0);stroke:rgb(0,0,0);stroke-width:5"/></g>
<g fill-rule="evenodd"><path d="M 421.795,477.354 L 430.866,477.354 L 439.937,477.354 L 449.008,477.354 L 458.079,486.425 L 467.15,495.496 L 458.079,495.496 L 449.008,495.496 L 439.937,495.496 L 430.866,495.496 L 421.795,495.496 L 412.724,495.496 L 403.654,495.496 L 412.724,486.425 L 421.795,477.354 z " style="fill-opacity:0.5;fill:rgb(253,0,0);stroke:rgb(253,0,0);stroke-width:2"/></g>
<g fill-rule="evenodd"><path d="M 467.15,495.496 L 449.008,477.354 L 421.795,477.354 L 403.654,495.496 L 467.15,495.496 z " style="fill-opacity:0.5;fill:rgb(0,253,0);stroke:rgb(0,0,0);stroke-width:5"/></g>
<g fill-rule="evenodd"><path d="M 566.929,477.354 L 576,477.354 L 585.071,477.354 L 594.142,477.354 L 603.213,486.425 L 612.283,486.425 L 621.354,495.496 L 630.425,495.496 L 639.496,504.567 L 648.567,504.567 L 657.638,513.638 L 666.709,513.638 L 675.78,522.709 L 684.85,522.709 L 693.921,531.78 L 702.992,531.78 L 712.063,540.85 L 721.134,540.85 L 730.205,549.921 L 739.276,549.921 L 748.346,558.992 L 757.417,558.992 L 766.488,568.063 L 775.559,568.063 L 784.63,577.134 L 793.701,577.134 L 802.772,586.205 L 811.843,586.205 L 811.843,595.276 L 811.843,604.346 L 811.843,613.417 L 811.843,622.488 L 820.913,631.559 L 829.984,640.63 L 829.984,649.701 L 839.055,658.772 L 848.126,658.772 L 857.197,667.843 L 866.268,676.913 L 875.339,685.984 L 884.409,685.984 L 893.48,676.913 L 902.551,676.913 L 911.622,676.913 L 920.693,676.913 L 929.764,676.913 L 938.835,676.913 L 947.906,667.843 L 956.976,667.843 L 966.047,658.772 L 975.118,658.772 L 984.189,649.701 L 984.189,640.63 L 984.189,631.559 L 993.26,631.559 L 1002.33,622.488 L 1011.4,622.488 L 1020.47,613.417 L 1029.54,613.417 L 1038.61,604.346 L 1038.61,595.276 L 1029.54,586.205 L 1020.47,586.205 L 1029.54,577.134 L 1038.61,568.063 L 1047.69,568.063 L 1056.76,577.134 L 1065.83,577.134 L 1074.9,586.205 L 1083.97,586.205 L 1083.97,595.276 L 1074.9,595.276 L 1065.83,604.346 L 1056.76,604.346 L 1047.69,613.417 L 1038.61,613.417 L 1029.54,622.488 L 1020.47,622.488 L 1011.4,631.559 L 1011.4,640.63 L 1011.4,649.701 L 1002.33,649.701 L 993.26,658.772 L 984.189,658.772 L 975.118,667.843 L 966.047,667.843 L 956.976,676.913 L 947.906,676.913 L 938.835,685.984 L 929.764,685.984 L 920.693,685.984 L 911.622,685.984 L 902.551,685.984 L 893.48,685.984 L 884.409,695.055 L 884.409,704.126 L 884.409,713.197 L 875.339,713.197 L 866.268,722.268 L 866.268,731.339 L 866.268,740.409 L 866.268,749.48 L 866.268,758.551 L 857.197,758.551 L 848.126,767.622 L 848.126,776.693 L 857.197,785.764 L 866.268,785.764 L 866.268,794.835 L 866.268,803.906 L 875.339,812.976 L 884.409,812.976 L 884.409,822.047 L 875.339,822.047 L 866.268,831.118 L 857.197,831.118 L 848.126,840.189 L 857.197,849.26 L 866.268,849.26 L 875.339,849.26 L 884.409,849.26 L 893.48,849.26 L 902.551,849.26 L 911.622,849.26 L 920.693,849.26 L 929.764,849.26 L 938.835,849.26 L 947.906,849.26 L 956.976,849.26 L 966.047,849.26 L 975.118,849.26 L 984.189,849.26 L 993.26,849.26 L 1002.33,849.26 L 1011.4,849.26 L 1020.47,849.26 L 1029.54,849.26 L 1038.61,849.26 L 1047.69,849.26 L 1056.76,849.26 L 1065.83,849.26 L 1074.9,849.26 L 1083.97,849.26 L 1093.04,849.26 L 1102.11,849.26 L 1111.18,849.26 L 1120.25,840.189 L 1129.32,840.189 L 1138.39,840.189 L 1147.46,840.189 L 1156.54,840.189 L 1156.54,849.26 L 1147.46,849.26 L 1138.39,849.26 L 1129.32,849.26 L 1120.25,849.26 L 1111.18,849.26 L 1102.11,849.26 L 1093.04,849.26 L 1083.97,849.26 L 1074.9,849.26 L 1065.83,849.26 L 1056.76,849.26 L 1047.69,849.26 L 1038.61,849.26 L 1029.54,849.26 L 1020.47,849.26 L 1011.4,849.26 L 1002.33,849.26 L 993.26,849.26 L 984.189,849.26 L 975.118,849.26 L 966.047,849.26 L 956.976,849.26 L 947.906,849.26 L 938.835,849.26 L 929.764,849.26 L 920.693,849.26 L 911.622,849.26 L 902.551,849.26 L 893.48,849.26 L 884.409,849.26 L 875.339,849.26 L 866.268,849.26 L 857.197,849.26 L 848.126,849.26 L 839.055,849.26 L 829.984,849.26 L 820.913,849.26 L 811.843,849.26 L 802.772,849.26 L 793.701,849.26 L 784.63,849.26 L 775.559,849.26 L 766.488,849.26 L 757.417,849.26 L 748.346,849.26 L 739.276,849.26 L 730.205,849.26 L 721.134,849.26 L 712.063,849.26 L 702.992,849.26 L 693.921,849.26 L 684.85,849.26 L 675.78,849.26 L 666.709,849.26 L 657.638,849.26 L 648.567,849.26 L 639.496,849.26 L 630.425,849.26 L 621.354,849.26 L 612.283,849.26 L 603.213,849.26 L 594.142,849.26 L 585.071,849.26 L 576,849.26 L 566.929,849.26 L 557.858,849.26 L 548.787,849.26 L 539.717,849.26 L 530.646,849.26 L 521.575,849.26 L 512.504,849.26 L 503.433,849.26 L 494.362,849.26 L 485.291,849.26 L 476.22,849.26 L 467.15,849.26 L 458.079,849.26 L 449.008,849.26 L 439.937,849.26 L 430.866,849.26 L 421.795,849.26 L 412.724,849.26 L 403.654,849.26 L 394.583,849.26 L 385.512,849.26 L 376.441,849.26 L 367.37,849.26 L 358.299,849.26 L 349.228,849.26 L 340.157,849.26 L 331.087,849.26 L 322.016,849.26 L 312.945,849.26 L 303.874,849.26 L 294.803,849.26 L 285.732,849.26 L 276.661,849.26 L 267.591,849.26 L 258.52,849.26 L 249.449,849.26 L 240.378,849.26 L 231.307,849.26 L 222.236,849.26 L 213.165,849.26 L 204.094,849.26 L 195.024,849.26 L 185.953,849.26 L 176.882,849.26 L 167.811,849.26 L 158.74,849.26 L 149.669,849.26 L 140.598,849.26 L 131.528,849.26 L 122.457,849.26 L 113.386,849.26 L 104.315,849.26 L 95.2441,849.26 L 86.1732,849.26 L 77.1024,849.26 L 68.0315,849.26 L 58.9606,849.26 L 49.8898,849.26 L 40.8189,849.26 L 31.748,849.26 L 22.6772,849.26 L 13.6063,849.26 L 4.53543,849.26 L 4.53543,840.189 L 13.6063,840.189 L 22.6772,840.189 L 31.748,840.189 L 40.8189,840.189 L 49.8898,849.26 L 58.9606,849.26 L 68.0315,849.26 L 77.1024,849.26 L 86.1732,849.26 L 95.2441,849.26 L 104.315,849.26 L 113.386,849.26 L 122.457,849.26 L 131.528,849.26 L 140.598,849.26 L 149.669,849.26 L 158.74,849.26 L 167.811,849.26 L 176.882,849.26 L 185.953,849.26 L 195.024,849.26 L 204.094,849.26 L 213.165,849.26 L 222.236,849.26 L 231.307,849.26 L 240.378,849.26 L 249.449,849.26 L 258.52,849.26 L 267.591,849.26 L 276.661,849.26 L 285.732,849.26 L 294.803,840.189 L 294.803,831.118 L 285.732,822.047 L 276.661,822.047 L 276.661,812.976 L 285.732,812.976 L 294.803,803.906 L 294.803,794.835 L 294.803,785.764 L 303.874,785.764 L 312.945,776.693 L 312.945,767.622 L 303.874,758.551 L 294.803,758.551 L 294.803,749.48 L 294.803,740.409 L 294.803,731.339 L 294.803,722.268 L 285.732,713.197 L 276.661,713.197 L 276.661,704.126 L 276.661,695.055 L 267.591,685.984 L 258.52,685.984 L 249.449,685.984 L 240.378,685.984 L 231.307,685.984 L 222.236,685.984 L 213.165,676.913 L 204.094,676.913 L 195.024,667.843 L 185.953,667.843 L 176.882,658.772 L 167.811,658.772 L 158.74,649.701 L 149.669,649.701 L 149.669,640.63 L 149.669,631.559 L 140.598,622.488 L 131.528,622.488 L 122.457,613.417 L 113.386,613.417 L 104.315,604.346 L 95.2441,604.346 L 86.1732,595.276 L 77.1024,595.276 L 77.1024,586.205 L 86.1732,586.205 L 95.2441,577.134 L 104.315,577.134 L 113.386,568.063 L 122.457,568.063 L 131.528,577.134 L 140.598,586.205 L 131.528,586.205 L 122.457,595.276 L 122.457,604.346 L 131.528,613.417 L 140.598,613.417 L 149.669,622.488 L 158.74,622.488 L 167.811,631.559 L 176.882,631.559 L 176.882,640.63 L 176.882,649.701 L 185.953,658.772 L 195.024,658.772 L 204.094,667.843 L 213.165,667.843 L 222.236,676.913 L 231.307,676.913 L 240.378,676.913 L 249.449,676.913 L 258.52,676.913 L 267.591,676.913 L 276.661,685.984 L 285.732,685.984 L 294.803,676.913 L 294.803,667.843 L 303.874,667.843 L 312.945,658.772 L 322.016,658.772 L 331.087,649.701 L 331.087,640.63 L 331.087,631.559 L 340.157,631.559 L 349.228,622.488 L 349.228,613.417 L 349.228,604.346 L 349.228,595.276 L 349.228,586.205 L 358.299,586.205 L 367.37,577.134 L 376.441,577.134 L 385.512,568.063 L 394.583,568.063 L 403.654,558.992 L 412.724,558.992 L 421.795,549.921 L 430.866,549.921 L 439.937,540.85 L 449.008,540.85 L 458.079,531.78 L 467.15,531.78 L 476.22,522.709 L 485.291,522.709 L 494.362,513.638 L 503.433,513.638 L 512.504,504.567 L 521.575,504.567 L 530.646,495.496 L 539.717,495.496 L 548.787,486.425 L 557.858,486.425 L 566.929,477.354 z " style="fill-opacity:0.5;fill:rgb(253,0,0);stroke:rgb(253,0,0);stroke-width:2"/></g>
<g fill-rule="evenodd"><path d="M 1156.54,849.26 L 848.126,840.189 L 884.409,822.047 L 848.126,776.693 L 866.268,758.551 L 866.268,722.268 L 884.409,713.197 L 884.409,695.055 L 938.835,685.984 L 1011.4,649.701 L 1020.47,622.488 L 1083.97,586.205 L 1038.61,568.063 L 1020.47,586.205 L 1038.61,604.346 L 984.189,631.559 L 975.118,658.772 L 875.339,685.984 L 811.843,622.488 L 811.843,586.205 L 594.142,477.354 L 566.929,477.354 L 349.228,586.205 L 349.228,622.488 L 285.732,685.984 L 185.953,658.772 L 176.882,631.559 L 122.457,604.346 L 140.598,586.205 L 122.457,568.063 L 77.1024,586.205 L 140.598,622.488 L 149.669,649.701 L 222.236,685.984 L 267.591,685.984 L 312.945,776.693 L 276.661,812.976 L 294.803,831.118 L 285.732,849.26 L 4.53543,840.189 L 1156.54,849.26 z " style="fill-opacity:0.5;fill:rgb(0,253,0);stroke:rgb(0,0,0);stroke-width:5"/></g>
<g fill-rule="evenodd"><path d="M 712.063,477.354 L 721.134,477.354 L 730.205,477.354 L 739.276,477.354 L 748.346,486.425 L 757.417,495.496 L 748.346,495.496 L 739.276,495.496 L 730.205,495.496 L 721.134,495.496 L 712.063,495.496 L 702.992,495.496 L 693.921,495.496 L 702.992,486.425 L 712.063,477.354 z " style="fill-opacity:0.5;fill:rgb(253,0,0);stroke:rgb(253,0,0);stroke-width:2"/></g>
<g fill-rule="evenodd"><path d="M 757.417,495.496 L 739.276,477.354 L 712.063,477.354 L 693.921,495.496 L 757.417,495.496 z " style="fill-opacity:0.5;fill:rgb(0,253,0);stroke:rgb(0,0,0);stroke-width:5"/></g>
<g fill-rule="evenodd"><path d="M 77.1024,504.567 L 86.1732,504.567 L 95.2441,504.567 L 104.315,504.567 L 113.386,513.638 L 122.457,513.638 L 131.528,513.638 L 140.598,513.638 L 149.669,513.638 L 158.74,513.638 L 167.811,522.709 L 176.882,522.709 L 176.882,531.78 L 176.882,540.85 L 176.882,549.921 L 176.882,558.992 L 167.811,558.992 L 158.74,568.063 L 149.669,558.992 L 140.598,558.992 L 149.669,549.921 L 149.669,540.85 L 149.669,531.78 L 140.598,522.709 L 131.528,522.709 L 122.457,522.709 L 113.386,522.709 L 104.315,513.638 L 95.2441,513.638 L 86.1732,513.638 L 77.1024,513.638 L 68.0315,522.709 L 58.9606,522.709 L 49.8898,522.709 L 40.8189,522.709 L 31.748,522.709 L 22.6772,522.709 L 13.6063,531.78 L 4.53543,531.78 L 4.53543,522.709 L 13.6063,522.709 L 22.6772,513.638 L 31.748,513.638 L 40.8189,513.638 L 49.8898,513.638 L 58.9606,513.638 L 68.0315,513.638 L 77.1024,504.567 z " style="fill-opacity:0.5;fill:rgb(253,0,0);stroke:rgb(253,0,0);stroke-width:2"/></g>
<g fill-rule="evenodd"><path d="M 176.882,558.992 L 176.882,522.709 L 158.74,513.638 L 77.1024,504.567 L 4.53543,522.709 L 13.6063,531.78 L 104.315,513.638 L 149.669,531.78 L 140.598,558.992 L 176.882,558.992 z " style="fill-opacity:0.5;fill:rgb(0,253,0);stroke:rgb(0,0,0);stroke-width:5"/></g>
<g fill-rule="evenodd"><path d="M 1056.76,504.567 L 1065.83,504.567 L 1074.9,504.567 L 1083.97,504.567 L 1093.04,513.638 L 1102.11,513.638 L 1111.18,513.638 L 1120.25,513.638 L 1129.32,513.638 L 1138.39,513.638 L 1147.46,522.709 L 1156.54,522.709 L 1156.54,531.78 L 1147.46,531.78 L 1138.39,522.709 L 1129.32,522.709 L 1120.25,522.709 L 1111.18,522.709 L 1102.11,522.709 L 1093.04,522.709 L 1083.97,513.638 L 1074.9,513.638 L 1065.83,513.638 L 1056.76,513.638 L 1047.69,522.709 L 1038.61,522.709 L 1029.54,522.709 L 1020.47,522.709 L 1011.4,531.78 L 1011.4,540.85 L 1011.4,549.921 L 1020.47,558.992 L 1011.4,558.992 L 1002.33,568.063 L 993.26,558.992 L 984.189,558.992 L 984.189,549.921 L 984.189,540.85 L 984.189,531.78 L 984.189,522.709 L 993.26,522.709 L 1002.33,513.638 L 1011.4,513.638 L 1020.47,513.638 L 1029.54,513.638 L 1038.61,513.638 L 1047.69,513.638 L 1056.76,504.567M 603.213,595.276 L 594.142,604.346 L 603.213,613.417 L 612.283,604.346 L 603.213,595.276M 684.85,622.488 L 675.78,631.559 L 684.85,640.63 L 693.921,631.559 L 684.85,622.488M 566.929,631.559 L 557.858,640.63 L 548.787,640.63 L 539.717,640.63 L 530.646,640.63 L 521.575,640.63 L 512.504,640.63 L 503.433,649.701 L 503.433,658.772 L 503.433,667.843 L 503.433,676.913 L 503.433,685.984 L 503.433,695.055 L 503.433,704.126 L 512.504,713.197 L 521.575,713.197 L 521.575,722.268 L 521.575,731.339 L 521.575,740.409 L 530.646,749.48 L 539.717,749.48 L 548.787,749.48 L 557.858,749.48 L 566.929,749.48 L 576,749.48 L 585.071,749.48 L 594.142,749.48 L 603.213,749.48 L 612.283,749.48 L 621.354,749.48 L 630.425,749.48 L 639.496,740.409 L 639.496,731.339 L 639.496,722.268 L 639.496,713.197 L 648.567,713.197 L 657.638,704.126 L 657.638,695.055 L 657.638,685.984 L 657.638,676.913 L 657.638,667.843 L 657.638,658.772 L 657.638,649.701 L 648.567,640.63 L 639.496,640.63 L 630.425,640.63 L 621.354,640.63 L 612.283,640.63 L 603.213,640.63 L 594.142,631.559 L 585.071,631.559 L 576,631.559 L 566.929,631.559M 449.008,667.843 L 439.937,676.913 L 449.008,685.984 L 458.079,676.913 L 449.008,667.843M 349.228,758.551 L 340.157,767.622 L 349.228,776.693 L 358.299,767.622 L 349.228,758.551 z " style="fill-opacity:0.5;fill:rgb(253,0,0);stroke:rgb(253,0,0);stroke-width:2"/></g>
<g fill-rule="evenodd"><path d="M 1156.54,531.78 L 1138.39,513.638 L 1056.76,504.567 L 984.189,522.709 L 984.189,558.992 L 1020.47,558.992 L 1011.4,531.78 L 1056.76,513.638 L 1156.54,531.78M 630.425,749.48 L 530.646,749.48 L 521.575,713.197 L 503.433,704.126 L 503.433,649.701 L 566.929,631.559 L 648.567,640.63 L 657.638,704.126 L 639.496,713.197 L 630.425,749.48 z " style="fill-opacity:0.5;fill:rgb(0,253,0);stroke:rgb(0,0,0);stroke-width:5"/></g>
</svg>
