<?xml version="1.0" standalone="no"?>
<!DOCTYPE svg PUBLIC "-//W3C//DTD SVG 1.1//EN"
"http://www.w3.org/Graphics/SVG/1.1/DTD/svg11.dtd">
<svg width="100%" height="100%" version="1.1"
xmlns="http://www.w3.org/2000/svg"
xmlns:xlink="http://www.w3.org/1999/xlink">
<g fill-rule="evenodd"><path d="M 428.346,26.4567 L 438.425,26.4567 L 448.504,26.4567 L 458.583,26.4567 L 468.661,36.5354 L 478.74,36.5354 L 488.819,46.6142 L 498.898,46.6142 L 508.976,46.6142 L 519.055,46.6142 L 529.134,46.6142 L 539.213,46.6142 L 539.213,56.6929 L 539.213,66.7717 L 549.291,76.8504 L 559.37,76.8504 L 559.37,86.9291 L 559.37,97.0079 L 569.449,107.087 L 579.528,107.087 L 579.528,117.165 L 589.606,127.244 L 599.685,127.244 L 609.764,127.244 L 619.843,127.244 L 629.921,137.323 L 640,137.323 L 650.079,137.323 L 660.157,137.323 L 670.236,127.244 L 680.315,127.244 L 690.394,127.244 L 700.472,127.244 L 710.551,117.165 L 710.551,107.087 L 720.63,107.087 L 730.709,97.0079 L 730.709,86.9291 L 730.709,76.8504 L 740.787,76.8504 L 750.866,66.7717 L 750.866,56.6929 L 750.866,46.6142 L 760.945,46.6142 L 771.024,46.6142 L 781.102,46.6142 L 791.181,46.6142 L 801.26,46.6142 L 811.339,36.5354 L 821.417,36.5354 L 831.496,26.4567 L 841.575,26.4567 L 851.654,26.4567 L 861.732,26.4567 L 871.811,36.5354 L 881.89,36.5354 L 891.969,36.5354 L 902.047,36.5354 L 912.126,36.5354 L 922.205,36.5354 L 922.205,46.6142 L 932.283,56.6929 L 942.362,56.6929 L 952.441,46.6142 L 962.52,46.6142 L 972.598,46.6142 L 982.677,46.6142 L 982.677,56.6929 L 992.756,66.7717 L 1002.83,66.7717 L 1012.91,66.7717 L 1022.99,66.7717 L 1022.99,76.8504 L 1033.07,86.9291 L 1043.15,86.9291 L 1053.23,76.8504 L 1063.31,76.8504 L 1073.39,76.8504 L 1083.46,76.8504 L 1083.46,86.9291 L 1083.46,97.0079 L 1073.39,97.0079 L 1063.31,107.087 L 1073.39,117.165 L 1083.46,117.165 L 1083.46,127.244 L 1093.54,137.323 L 1103.62,137.323 L 1113.7,137.323 L 1123.78,137.323 L 1123.78,147.402 L 1133.86,157.48 L 1143.94,157.48 L 1154.02,147.402 L 1164.09,147.402 L 1174.17,137.323 L 1184.25,137.323 L 1194.33,137.323 L 1204.41,137.323 L 1204.41,147.402 L 1204.41,157.48 L 1204.41,167.559 L 1204.41,177.638 L 1204.41,187.717 L 1204.41,197.795 L 1194.33,197.795 L 1184.25,207.874 L 1174.17,207.874 L 1164.09,207.874 L 1154.02,207.874 L 1143.94,197.795 L 1133.86,197.795 L 1123.78,187.717 L 1113.7,187.717 L 1103.62,177.638 L 1093.54,177.638 L 1083.46,177.638 L 1073.39,177.638 L 1063.31,187.717 L 1053.23,187.717 L 1043.15,197.795 L 1033.07,197.795 L 1022.99,207.874 L 1022.99,217.953 L 1022.99,228.031 L 1012.91,228.031 L 1002.83,238.11 L 1002.83,248.189 L 1002.83,258.268 L 1002.83,268.346 L 1002.83,278.425 L 1002.83,288.504 L 1002.83,298.583 L 1002.83,308.661 L 1002.83,318.74 L 992.756,318.74 L 982.677,328.819 L 992.756,338.898 L 1002.83,348.976 L 992.756,348.976 L 982.677,338.898 L 972.598,328.819 L 962.52,318.74 L 972.598,308.661 L 972.598,298.583 L 972.598,288.504 L 972.598,278.425 L 972.598,268.346 L 972.598,258.268 L 972.598,248.189 L 972.598,238.11 L 972.598,228.031 L 982.677,228.031 L 992.756,217.953 L 992.756,207.874 L 992.756,197.795 L 1002.83,197.795 L 1012.91,187.717 L 1022.99,187.717 L 1033.07,177.638 L 1043.15,177.638 L 1053.23,167.559 L 1063.31,167.559 L 1073.39,157.48 L 1073.39,147.402 L 1063.31,137.323 L 1053.23,137.323 L 1043.15,127.244 L 1033.07,127.244 L 1033.07,117.165 L 1033.07,107.087 L 1022.99,97.0079 L 1012.91,97.0079 L 1002.83,86.9291 L 992.756,86.9291 L 982.677,76.8504 L 972.598,76.8504 L 962.52,66.7717 L 952.441,66.7717 L 942.362,66.7717 L 932.283,66.7717 L 922.205,66.7717 L 912.126,66.7717 L 902.047,56.6929 L 891.969,56.6929 L 881.89,46.6142 L 871.811,46.6142 L 861.732,36.5354 L 851.654,36.5354 L 841.575,36.5354 L 831.496,36.5354 L 821.417,46.6142 L 811.339,46.6142 L 801.26,56.6929 L 791.181,56.6929 L 781.102,66.7717 L 771.024,66.7717 L 760.945,76.8504 L 760.945,86.9291 L 760.945,97.0079 L 750.866,97.0079 L 740.787,107.087 L 740.787,117.165 L 740.787,127.244 L 730.709,127.244 L 720.63,137.323 L 710.551,137.323 L 700.472,137.323 L 690.394,137.323 L 680.315,137.323 L 670.236,137.323 L 660.157,147.402 L 650.079,147.402 L 640,147.402 L 629.921,147.402 L 619.843,137.323 L 609.764,137.323 L 599.685,137.323 L 589.606,137.323 L 579.528,137.323 L 569.449,137.323 L 559.37,127.244 L 549.291,127.244 L 549.291,117.165 L 549.291,107.087 L 539.213,97.0079 L 529.134,97.0079 L 529.134,86.9291 L 529.134,76.8504 L 519.055,66.7717 L 508.976,66.7717 L 498.898,56.6929 L 488.819,56.6929 L 478.74,46.6142 L 468.661,46.6142 L 458.583,46.6142 L 448.504,56.6929 L 438.425,56.6929 L 428.346,56.6929 L 418.268,46.6142 L 408.189,46.6142 L 398.11,56.6929 L 388.031,56.6929 L 377.953,66.7717 L 367.874,66.7717 L 357.795,66.7717 L 347.717,66.7717 L 337.638,66.7717 L 327.559,66.7717 L 317.48,76.8504 L 307.402,76.8504 L 297.323,86.9291 L 287.244,86.9291 L 277.165,97.0079 L 267.087,97.0079 L 257.008,107.087 L 257.008,117.165 L 257.008,127.244 L 246.929,127.244 L 236.85,137.323 L 226.772,137.323 L 216.693,147.402 L 216.693,157.48 L 226.772,167.559 L 236.85,167.559 L 246.929,177.638 L 257.008,177.638 L 267.087,187.717 L 277.165,187.717 L 287.244,197.795 L 297.323,197.795 L 297.323,207.874 L 297.323,217.953 L 307.402,228.031 L 317.48,228.031 L 317.48,238.11 L 317.48,248.189 L 317.48,258.268 L 317.48,268.346 L 317.48,278.425 L 317.48,288.504 L 317.48,298.583 L 317.48,308.661 L 327.559,318.74 L 317.48,328.819 L 307.402,338.898 L 297.323,348.976 L 287.244,348.976 L 297.323,338.898 L 307.402,328.819 L 297.323,318.74 L 287.244,318.74 L 287.244,308.661 L 287.244,298.583 L 287.244,288.504 L 287.244,278.425 L 287.244,268.346 L 287.244,258.268 L 287.244,248.189 L 287.244,238.11 L 277.165,228.031 L 267.087,228.031 L 267.087,217.953 L 267.087,207.874 L 257.008,197.795 L 246.929,197.795 L 236.85,187.717 L 226.772,187.717 L 216.693,177.638 L 206.614,177.638 L 196.535,177.638 L 186.457,177.638 L 176.378,187.717 L 166.299,187.717 L 156.22,197.795 L 146.142,197.795 L 136.063,207.874 L 125.984,207.874 L 115.906,207.874 L 105.827,207.874 L 95.748,197.795 L 85.6693,197.795 L 85.6693,187.717 L 85.6693,177.638 L 85.6693,167.559 L 85.6693,157.48 L 85.6693,147.402 L 85.6693,137.323 L 95.748,137.323 L 105.827,137.323 L 115.906,137.323 L 125.984,147.402 L 136.063,147.402 L 146.142,157.48 L 156.22,157.48 L 166.299,147.402 L 166.299,137.323 L 176.378,137.323 L 186.457,137.323 L 196.535,137.323 L 206.614,127.244 L 206.614,117.165 L 216.693,117.165 L 226.772,107.087 L 216.693,97.0079 L 206.614,97.0079 L 206.614,86.9291 L 206.614,76.8504 L 216.693,76.8504 L 226.772,76.8504 L 236.85,76.8504 L 246.929,86.9291 L 257.008,86.9291 L 267.087,76.8504 L 267.087,66.7717 L 277.165,66.7717 L 287.244,66.7717 L 297.323,66.7717 L 307.402,56.6929 L 307.402,46.6142 L 317.48,46.6142 L 327.559,46.6142 L 337.638,46.6142 L 347.717,56.6929 L 357.795,56.6929 L 367.874,46.6142 L 367.874,36.5354 L 377.953,36.5354 L 388.031,36.5354 L 398.11,36.5354 L 408.189,36.5354 L 418.268,36.5354 L 428.346,26.4567 z " style="fill-opacity:0.5;fill:rgb(253,0,0);stroke:rgb(253,0,0);stroke-width:2"/></g>
<g fill-rule="evenodd"><path d="M 1204.41,197.795 L 1154.02,207.874 L 1103.62,177.638 L 1033.07,197.795 L 1002.83,238.11 L 1002.83,318.74 L 982.677,328.819 L 992.756,348.976 L 962.52,318.74 L 972.598,228.031 L 992.756,217.953 L 992.756,197.795 L 1073.39,157.48 L 1033.07,127.244 L 1022.99,97.0079 L 962.52,66.7717 L 912.126,66.7717 L 861.732,36.5354 L 831.496,36.5354 L 771.024,66.7717 L 740.787,127.244 L 629.921,147.402 L 549.291,127.244 L 529.134,76.8504 L 478.74,46.6142 L 408.189,46.6142 L 267.087,97.0079 L 257.008,127.244 L 216.693,147.402 L 226.772,167.559 L 297.323,197.795 L 297.323,217.953 L 317.48,228.031 L 327.559,318.74 L 287.244,348.976 L 307.402,328.819 L 287.244,318.74 L 287.244,238.11 L 267.087,228.031 L 267.087,207.874 L 216.693,177.638 L 105.827,207.874 L 85.6693,197.795 L 85.6693,137.323 L 156.22,157.48 L 166.299,137.323 L 196.535,137.323 L 226.772,107.087 L 206.614,97.0079 L 206.614,76.8504 L 257.008,86.9291 L 307.402,46.6142 L 357.795,56.6929 L 367.874,36.5354 L 428.346,26.4567 L 539.213,46.6142 L 539.213,66.7717 L 589.606,127.244 L 660.157,137.323 L 700.472,127.244 L 750.866,66.7717 L 750.866,46.6142 L 861.732,26.4567 L 922.205,36.5354 L 932.283,56.6929 L 982.677,46.6142 L 1033.07,86.9291 L 1083.46,76.8504 L 1083.46,97.0079 L 1063.31,107.087 L 1093.54,137.323 L 1123.78,137.323 L 1133.86,157.48 L 1204.41,137.323 L 1204.41,197.795 z " style="fill-opacity:0.5;fill:rgb(51,51,153);stroke:rgb(0,0,0);stroke-width:5"/></g>
<g fill-rule="evenodd"><path d="M 5.03937,127.244 L 15.1181,127.244 L 25.1969,137.323 L 35.2756,137.323 L 35.2756,147.402 L 35.2756,157.48 L 35.2756,167.559 L 35.2756,177.638 L 35.2756,187.717 L 35.2756,197.795 L 25.1969,197.795 L 15.1181,207.874 L 5.03937,207.874 L 5.03937,197.795 L 5.03937,187.717 L 5.03937,177.638 L 5.03937,167.559 L 5.03937,157.48 L 5.03937,147.402 L 5.03937,137.323 L 5.03937,127.244 z " style="fill-opacity:0.5;fill:rgb(253,0,0);stroke:rgb(253,0,0);stroke-width:2"/></g>
<g fill-rule="evenodd"><path d="M 15.1181,207.874 L 5.03937,127.244 L 35.2756,137.323 L 35.2756,197.795 L 15.1181,207.874 z " style="fill-opacity:0.5;fill:rgb(51,51,153);stroke:rgb(0,0,0);stroke-width:5"/></g>
<g fill-rule="evenodd"><path d="M 1274.96,127.244 L 1285.04,127.244 L 1285.04,137.323 L 1285.04,147.402 L 1285.04,157.48 L 1285.04,167.559 L 1285.04,177.638 L 1285.04,187.717 L 1285.04,197.795 L 1285.04,207.874 L 1274.96,207.874 L 1264.88,197.795 L 1254.8,197.795 L 1254.8,187.717 L 1254.8,177.638 L 1254.8,167.559 L 1254.8,157.48 L 1254.8,147.402 L 1254.8,137.323 L 1264.88,137.323 L 1274.96,127.244 z " style="fill-opacity:0.5;fill:rgb(253,0,0);stroke:rgb(253,0,0);stroke-width:2"/></g>
<g fill-rule="evenodd"><path d="M 1285.04,207.874 L 1254.8,197.795 L 1254.8,137.323 L 1274.96,127.244 L 1285.04,207.874 z " style="fill-opacity:0.5;fill:rgb(51,51,153);stroke:rgb(0,0,0);stroke-width:5"/></g>
<g fill-rule="evenodd"><path d="M 468.661,228.031 L 478.74,228.031 L 478.74,238.11 L 468.661,238.11 L 468.661,228.031 z " style="fill-opacity:0.5;fill:rgb(253,0,0);stroke:rgb(253,0,0);stroke-width:2"/></g>
<g fill-rule="evenodd"><path d=" z " style="fill-opacity:0.5;fill:rgb(51,51,153);stroke:rgb(0,0,0);stroke-width:5"/></g>
<g fill-rule="evenodd"><path d="M 811.339,228.031 L 821.417,228.031 L 821.417,238.11 L 811.339,238.11 L 811.339,228.031 z " style="fill-opacity:0.5;fill:rgb(253,0,0);stroke:rgb(253,0,0);stroke-width:2"/></g>
<g fill-rule="evenodd"><path d=" z " style="fill-opacity:0.5;fill:rgb(51,51,153);stroke:rgb(0,0,0);stroke-width:5"/></g>
<g fill-rule="evenodd"><path d="M 5.03937,238.11 L 15.1181,238.11 L 25.1969,238.11 L 35.2756,238.11 L 35.2756,248.189 L 35.2756,258.268 L 35.2756,268.346 L 25.1969,268.346 L 15.1181,268.346 L 5.03937,268.346 L 5.03937,258.268 L 5.03937,248.189 L 5.03937,238.11 z " style="fill-opacity:0.5;fill:rgb(253,0,0);stroke:rgb(253,0,0);stroke-width:2"/></g>
<g fill-rule="evenodd"><path d="M 35.2756,268.346 L 5.03937,268.346 L 5.03937,238.11 L 35.2756,238.11 L 35.2756,268.346 z " style="fill-opacity:0.5;fill:rgb(51,51,153);stroke:rgb(0,0,0);stroke-width:5"/></g>
<g fill-rule="evenodd"><path d="M 1254.8,238.11 L 1264.88,238.11 L 1274.96,238.11 L 1285.04,238.11 L 1285.04,248.189 L 1285.04,258.268 L 1285.04,268.346 L 1274.96,268.346 L 1264.88,268.346 L 1254.8,268.346 L 1254.8,258.268 L 1254.8,248.189 L 1254.8,238.11 z " style="fill-opacity:0.5;fill:rgb(253,0,0);stroke:rgb(253,0,0);stroke-width:2"/></g>
<g fill-rule="evenodd"><path d="M 1285.04,268.346 L 1254.8,268.346 L 1254.8,238.11 L 1285.04,238.11 L 1285.04,268.346 z " style="fill-opacity:0.5;fill:rgb(51,51,153);stroke:rgb(0,0,0);stroke-width:5"/></g>
<g fill-rule="evenodd"><path d="M 125.984,308.661 L 136.063,308.661 L 146.142,308.661 L 156.22,308.661 L 166.299,318.74 L 176.378,318.74 L 186.457,328.819 L 196.535,328.819 L 196.535,338.898 L 196.535,348.976 L 196.535,359.055 L 186.457,359.055 L 176.378,369.134 L 176.378,379.213 L 186.457,389.291 L 176.378,389.291 L 166.299,399.37 L 156.22,389.291 L 146.142,389.291 L 146.142,379.213 L 146.142,369.134 L 156.22,369.134 L 166.299,359.055 L 156.22,348.976 L 146.142,348.976 L 146.142,338.898 L 136.063,328.819 L 125.984,318.74 L 115.906,318.74 L 125.984,308.661 z " style="fill-opacity:0.5;fill:rgb(253,0,0);stroke:rgb(253,0,0);stroke-width:2"/></g>
<g fill-rule="evenodd"><path d="M 186.457,389.291 L 146.142,389.291 L 146.142,369.134 L 166.299,359.055 L 115.906,318.74 L 125.984,308.661 L 196.535,328.819 L 196.535,359.055 L 176.378,369.134 L 186.457,389.291 z " style="fill-opacity:0.5;fill:rgb(51,51,153);stroke:rgb(0,0,0);stroke-width:5"/></g>
<g fill-rule="evenodd"><path d="M 1133.86,308.661 L 1143.94,308.661 L 1154.02,308.661 L 1164.09,308.661 L 1174.17,318.74 L 1164.09,318.74 L 1154.02,328.819 L 1143.94,338.898 L 1143.94,348.976 L 1133.86,348.976 L 1123.78,359.055 L 1133.86,369.134 L 1143.94,369.134 L 1143.94,379.213 L 1143.94,389.291 L 1133.86,389.291 L 1123.78,399.37 L 1113.7,389.291 L 1103.62,389.291 L 1113.7,379.213 L 1113.7,369.134 L 1103.62,359.055 L 1093.54,359.055 L 1093.54,348.976 L 1093.54,338.898 L 1093.54,328.819 L 1103.62,328.819 L 1113.7,318.74 L 1123.78,318.74 L 1133.86,308.661 z " style="fill-opacity:0.5;fill:rgb(253,0,0);stroke:rgb(253,0,0);stroke-width:2"/></g>
<g fill-rule="evenodd"><path d="M 1123.78,399.37 L 1103.62,389.291 L 1113.7,369.134 L 1093.54,359.055 L 1093.54,328.819 L 1164.09,308.661 L 1174.17,318.74 L 1123.78,359.055 L 1143.94,369.134 L 1143.94,389.291 L 1123.78,399.37 z " style="fill-opacity:0.5;fill:rgb(51,51,153);stroke:rgb(0,0,0);stroke-width:5"/></g>
<g fill-rule="evenodd"><path d="M 629.921,318.74 L 640,318.74 L 650.079,318.74 L 660.157,318.74 L 670.236,328.819 L 680.315,328.819 L 690.394,338.898 L 680.315,348.976 L 670.236,359.055 L 660.157,369.134 L 650.079,369.134 L 640,369.134 L 629.921,369.134 L 619.843,359.055 L 609.764,348.976 L 599.685,338.898 L 609.764,328.819 L 619.843,328.819 L 629.921,318.74M 629.921,338.898 L 619.843,348.976 L 629.921,359.055 L 640,369.134 L 650.079,369.134 L 660.157,359.055 L 670.236,348.976 L 660.157,338.898 L 650.079,338.898 L 640,338.898 L 629.921,338.898 z " style="fill-opacity:0.5;fill:rgb(253,0,0);stroke:rgb(253,0,0);stroke-width:2"/></g>
<g fill-rule="evenodd"><path d="M 690.394,338.898 L 660.157,369.134 L 629.921,369.134 L 599.685,338.898 L 629.921,318.74 L 690.394,338.898M 670.236,348.976 L 619.843,348.976 L 640,369.134 L 670.236,348.976 z " style="fill-opacity:0.5;fill:rgb(51,51,153);stroke:rgb(0,0,0);stroke-width:5"/></g>
<g fill-rule="evenodd"><path d="M 5.03937,369.134 L 15.1181,379.213 L 25.1969,379.213 L 35.2756,389.291 L 25.1969,389.291 L 15.1181,389.291 L 5.03937,389.291 L 5.03937,379.213 L 5.03937,369.134 z " style="fill-opacity:0.5;fill:rgb(253,0,0);stroke:rgb(253,0,0);stroke-width:2"/></g>
<g fill-rule="evenodd"><path d="M 35.2756,389.291 L 5.03937,389.291 L 5.03937,369.134 L 35.2756,389.291 z " style="fill-opacity:0.5;fill:rgb(51,51,153);stroke:rgb(0,0,0);stroke-width:5"/></g>
<g fill-rule="evenodd"><path d="M 1274.96,369.134 L 1285.04,369.134 L 1285.04,379.213 L 1285.04,389.291 L 1274.96,389.291 L 1264.88,389.291 L 1254.8,389.291 L 1264.88,379.213 L 1274.96,369.134 z " style="fill-opacity:0.5;fill:rgb(253,0,0);stroke:rgb(253,0,0);stroke-width:2"/></g>
<g fill-rule="evenodd"><path d="M 1254.8,389.291 L 1285.04,369.134 L 1285.04,389.291 L 1254.8,389.291 z " style="fill-opacity:0.5;fill:rgb(51,51,153);stroke:rgb(0,0,0);stroke-width:5"/></g>
<g fill-rule="evenodd"><path d="M 246.929,500.157 L 257.008,500.157 L 267.087,500.157 L 277.165,500.157 L 287.244,510.236 L 297.323,510.236 L 307.402,520.315 L 317.48,520.315 L 327.559,530.394 L 337.638,540.472 L 337.638,550.551 L 327.559,550.551 L 317.48,560.63 L 317.48,570.709 L 317.48,580.787 L 307.402,580.787 L 297.323,580.787 L 287.244,580.787 L 277.165,570.709 L 267.087,570.709 L 257.008,560.63 L 246.929,560.63 L 246.929,550.551 L 246.929,540.472 L 246.929,530.394 L 246.929,520.315 L 246.929,510.236 L 246.929,500.157 z " style="fill-opacity:0.5;fill:rgb(253,0,0);stroke:rgb(253,0,0);stroke-width:2"/></g>
<g fill-rule="evenodd"><path d="M 317.48,580.787 L 246.929,560.63 L 246.929,500.157 L 277.165,500.157 L 337.638,540.472 L 317.48,580.787 z " style="fill-opacity:0.5;fill:rgb(51,51,153);stroke:rgb(0,0,0);stroke-width:5"/></g>
<g fill-rule="evenodd"><path d="M 1012.91,500.157 L 1022.99,500.157 L 1033.07,500.157 L 1043.15,500.157 L 1043.15,510.236 L 1043.15,520.315 L 1043.15,530.394 L 1043.15,540.472 L 1043.15,550.551 L 1043.15,560.63 L 1033.07,560.63 L 1022.99,570.709 L 1012.91,570.709 L 1002.83,580.787 L 992.756,580.787 L 982.677,580.787 L 972.598,580.787 L 972.598,570.709 L 972.598,560.63 L 962.52,550.551 L 952.441,550.551 L 952.441,540.472 L 952.441,530.394 L 962.52,530.394 L 972.598,520.315 L 982.677,520.315 L 992.756,510.236 L 1002.83,510.236 L 1012.91,500.157 z " style="fill-opacity:0.5;fill:rgb(253,0,0);stroke:rgb(253,0,0);stroke-width:2"/></g>
<g fill-rule="evenodd"><path d="M 972.598,580.787 L 952.441,530.394 L 1043.15,500.157 L 1043.15,560.63 L 972.598,580.787 z " style="fill-opacity:0.5;fill:rgb(51,51,153);stroke:rgb(0,0,0);stroke-width:5"/></g>
<g fill-rule="evenodd"><path d="M 468.661,530.394 L 478.74,530.394 L 488.819,530.394 L 498.898,530.394 L 508.976,540.472 L 519.055,550.551 L 508.976,550.551 L 498.898,550.551 L 488.819,550.551 L 478.74,550.551 L 468.661,550.551 L 458.583,550.551 L 448.504,550.551 L 458.583,540.472 L 468.661,530.394 z " style="fill-opacity:0.5;fill:rgb(253,0,0);stroke:rgb(253,0,0);stroke-width:2"/></g>
<g fill-rule="evenodd"><path d="M 519.055,550.551 L 448.504,550.551 L 468.661,530.394 L 498.898,530.394 L 519.055,550.551 z " style="fill-opacity:0.5;fill:rgb(51,51,153);stroke:rgb(0,0,0);stroke-width:5"/></g>
<g fill-rule="evenodd"><path d="M 629.921,530.394 L 640,530.394 L 650.079,530.394 L 660.157,530.394 L 670.236,540.472 L 680.315,540.472 L 690.394,550.551 L 700.472,550.551 L 710.551,560.63 L 720.63,560.63 L 730.709,570.709 L 740.787,570.709 L 750.866,580.787 L 760.945,580.787 L 771.024,590.866 L 781.102,590.866 L 791.181,600.945 L 801.26,600.945 L 811.339,611.024 L 821.417,611.024 L 831.496,621.102 L 841.575,621.102 L 851.654,631.181 L 861.732,631.181 L 871.811,641.26 L 881.89,641.26 L 891.969,651.339 L 902.047,651.339 L 902.047,661.417 L 902.047,671.496 L 902.047,681.575 L 902.047,691.654 L 912.126,701.732 L 922.205,711.811 L 922.205,721.89 L 932.283,731.969 L 942.362,731.969 L 952.441,742.047 L 962.52,752.126 L 972.598,762.205 L 982.677,762.205 L 992.756,752.126 L 1002.83,752.126 L 1012.91,752.126 L 1022.99,752.126 L 1033.07,752.126 L 1043.15,752.126 L 1053.23,742.047 L 1063.31,742.047 L 1073.39,731.969 L 1083.46,731.969 L 1093.54,721.89 L 1093.54,711.811 L 1093.54,701.732 L 1103.62,701.732 L 1113.7,691.654 L 1123.78,691.654 L 1133.86,681.575 L 1143.94,681.575 L 1154.02,671.496 L 1154.02,661.417 L 1143.94,651.339 L 1133.86,651.339 L 1143.94,641.26 L 1154.02,631.181 L 1164.09,631.181 L 1174.17,641.26 L 1184.25,641.26 L 1194.33,651.339 L 1204.41,651.339 L 1204.41,661.417 L 1194.33,661.417 L 1184.25,671.496 L 1174.17,671.496 L 1164.09,681.575 L 1154.02,681.575 L 1143.94,691.654 L 1133.86,691.654 L 1123.78,701.732 L 1123.78,711.811 L 1123.78,721.89 L 1113.7,721.89 L 1103.62,731.969 L 1093.54,731.969 L 1083.46,742.047 L 1073.39,742.047 L 1063.31,752.126 L 1053.23,752.126 L 1043.15,762.205 L 1033.07,762.205 L 1022.99,762.205 L 1012.91,762.205 L 1002.83,762.205 L 992.756,762.205 L 982.677,772.283 L 982.677,782.362 L 982.677,792.441 L 972.598,792.441 L 962.52,802.52 L 962.52,812.598 L 962.52,822.677 L 962.52,832.756 L 962.52,842.835 L 952.441,842.835 L 942.362,852.913 L 942.362,862.992 L 952.441,873.071 L 962.52,873.071 L 962.52,883.15 L 962.52,893.228 L 972.598,903.307 L 982.677,903.307 L 982.677,913.386 L 972.598,913.386 L 962.52,923.465 L 952.441,923.465 L 942.362,933.543 L 952.441,943.622 L 962.52,943.622 L 972.598,943.622 L 982.677,943.622 L 992.756,943.622 L 1002.83,943.622 L 1012.91,943.622 L 1022.99,943.622 L 1033.07,943.622 L 1043.15,943.622 L 1053.23,943.622 L 1063.31,943.622 L 1073.39,943.622 L 1083.46,943.622 L 1093.54,943.622 L 1103.62,943.622 L 1113.7,943.622 L 1123.78,943.622 L 1133.86,943.622 L 1143.94,943.622 L 1154.02,943.622 L 1164.09,943.622 L 1174.17,943.622 L 1184.25,943.622 L 1194.33,943.622 L 1204.41,943.622 L 1214.49,943.622 L 1224.57,943.622 L 1234.65,943.622 L 1244.72,933.543 L 1254.8,933.543 L 1264.88,933.543 L 1274.96,933.543 L 1285.04,933.543 L 1285.04,943.622 L 1274.96,943.622 L 1264.88,943.622 L 1254.8,943.622 L 1244.72,943.622 L 1234.65,943.622 L 1224.57,943.622 L 1214.49,943.622 L 1204.41,943.622 L 1194.33,943.622 L 1184.25,943.622 L 1174.17,943.622 L 1164.09,943.622 L 1154.02,943.622 L 1143.94,943.622 L 1133.86,943.622 L 1123.78,943.622 L 1113.7,943.622 L 1103.62,943.622 L 1093.54,943.622 L 1083.46,943.622 L 1073.39,943.622 L 1063.31,943.622 L 1053.23,943.622 L 1043.15,943.622 L 1033.07,943.622 L 1022.99,943.622 L 1012.91,943.622 L 1002.83,943.622 L 992.756,943.622 L 982.677,943.622 L 972.598,943.622 L 962.52,943.622 L 952.441,943.622 L 942.362,943.622 L 932.283,943.622 L 922.205,943.622 L 912.126,943.622 L 902.047,943.622 L 891.969,943.622 L 881.89,943.622 L 871.811,943.622 L 861.732,943.622 L 851.654,943.622 L 841.575,943.622 L 831.496,943.622 L 821.417,943.622 L 811.339,943.622 L 801.26,943.622 L 791.181,943.622 L 781.102,943.622 L 771.024,943.622 L 760.945,943.622 L 750.866,943.622 L 740.787,943.622 L 730.709,943.622 L 720.63,943.622 L 710.551,943.622 L 700.472,943.622 L 690.394,943.622 L 680.315,943.622 L 670.236,943.622 L 660.157,943.622 L 650.079,943.622 L 640,943.622 L 629.921,943.622 L 619.843,943.622 L 609.764,943.622 L 599.685,943.622 L 589.606,943.622 L 579.528,943.622 L 569.449,943.622 L 559.37,943.622 L 549.291,943.622 L 539.213,943.622 L 529.134,943.622 L 519.055,943.622 L 508.976,943.622 L 498.898,943.622 L 488.819,943.622 L 478.74,943.622 L 468.661,943.622 L 458.583,943.622 L 448.504,943.622 L 438.425,943.622 L 428.346,943.622 L 418.268,943.622 L 408.189,943.622 L 398.11,943.622 L 388.031,943.622 L 377.953,943.622 L 367.874,943.622 L 357.795,943.622 L 347.717,943.622 L 337.638,943.622 L 327.559,943.622 L 317.48,943.622 L 307.402,943.622 L 297.323,943.622 L 287.244,943.622 L 277.165,943.622 L 267.087,943.622 L 257.008,943.622 L 246.929,943.622 L 236.85,943.622 L 226.772,943.622 L 216.693,943.622 L 206.614,943.622 L 196.535,943.622 L 186.457,943.622 L 176.378,943.622 L 166.299,943.622 L 156.22,943.622 L 146.142,943.622 L 136.063,943.622 L 125.984,943.622 L 115.906,943.622 L 105.827,943.622 L 95.748,943.622 L 85.6693,943.622 L 75.5906,943.622 L 65.5118,943.622 L 55.4331,943.622 L 45.3543,943.622 L 35.2756,943.622 L 25.1969,943.622 L 15.1181,943.622 L 5.03937,943.622 L 5.03937,933.543 L 15.1181,933.543 L 25.1969,933.543 L 35.2756,933.543 L 45.3543,933.543 L 55.4331,943.622 L 65.5118,943.622 L 75.5906,943.622 L 85.6693,943.622 L 95.748,943.622 L 105.827,943.622 L 115.906,943.622 L 125.984,943.622 L 136.063,943.622 L 146.142,943.622 L 156.22,943.622 L 166.299,943.622 L 176.378,943.622 L 186.457,943.622 L 196.535,943.622 L 206.614,943.622 L 216.693,943.622 L 226.772,943.622 L 236.85,943.622 L 246.929,943.622 L 257.008,943.622 L 267.087,943.622 L 277.165,943.622 L 287.244,943.622 L 297.323,943.622 L 307.402,943.622 L 317.48,943.622 L 327.559,933.543 L 327.559,923.465 L 317.48,913.386 L 307.402,913.386 L 307.402,903.307 L 317.48,903.307 L 327.559,893.228 L 327.559,883.15 L 327.559,873.071 L 337.638,873.071 L 347.717,862.992 L 347.717,852.913 L 337.638,842.835 L 327.559,842.835 L 327.559,832.756 L 327.559,822.677 L 327.559,812.598 L 327.559,802.52 L 317.48,792.441 L 307.402,792.441 L 307.402,782.362 L 307.402,772.283 L 297.323,762.205 L 287.244,762.205 L 277.165,762.205 L 267.087,762.205 L 257.008,762.205 L 246.929,762.205 L 236.85,752.126 L 226.772,752.126 L 216.693,742.047 L 206.614,742.047 L 196.535,731.969 L 186.457,731.969 L 176.378,721.89 L 166.299,721.89 L 166.299,711.811 L 166.299,701.732 L 156.22,691.654 L 146.142,691.654 L 136.063,681.575 L 125.984,681.575 L 115.906,671.496 L 105.827,671.496 L 95.748,661.417 L 85.6693,661.417 L 85.6693,651.339 L 95.748,651.339 L 105.827,641.26 L 115.906,641.26 L 125.984,631.181 L 136.063,631.181 L 146.142,641.26 L 156.22,651.339 L 146.142,651.339 L 136.063,661.417 L 136.063,671.496 L 146.142,681.575 L 156.22,681.575 L 166.299,691.654 L 176.378,691.654 L 186.457,701.732 L 196.535,701.732 L 196.535,711.811 L 196.535,721.89 L 206.614,731.969 L 216.693,731.969 L 226.772,742.047 L 236.85,742.047 L 246.929,752.126 L 257.008,752.126 L 267.087,752.126 L 277.165,752.126 L 287.244,752.126 L 297.323,752.126 L 307.402,762.205 L 317.48,762.205 L 327.559,752.126 L 327.559,742.047 L 337.638,742.047 L 347.717,731.969 L 357.795,731.969 L 367.874,721.89 L 367.874,711.811 L 367.874,701.732 L 377.953,701.732 L 388.031,691.654 L 388.031,681.575 L 388.031,671.496 L 388.031,661.417 L 388.031,651.339 L 398.11,651.339 L 408.189,641.26 L 418.268,641.26 L 428.346,631.181 L 438.425,631.181 L 448.504,621.102 L 458.583,621.102 L 468.661,611.024 L 478.74,611.024 L 488.819,600.945 L 498.898,600.945 L 508.976,590.866 L 519.055,590.866 L 529.134,580.787 L 539.213,580.787 L 549.291,570.709 L 559.37,570.709 L 569.449,560.63 L 579.528,560.63 L 589.606,550.551 L 599.685,550.551 L 609.764,540.472 L 619.843,540.472 L 629.921,530.394 z " style="fill-opacity:0.5;fill:rgb(253,0,0);stroke:rgb(253,0,0);stroke-width:2"/></g>
<g fill-rule="evenodd"><path d="M 1285.04,943.622 L 5.03937,933.543 L 327.559,933.543 L 307.402,903.307 L 347.717,852.913 L 327.559,842.835 L 327.559,802.52 L 307.402,792.441 L 307.402,772.283 L 246.929,762.205 L 166.299,721.89 L 156.22,691.654 L 85.6693,651.339 L 136.063,631.181 L 156.22,651.339 L 136.063,671.496 L 196.535,701.732 L 206.614,731.969 L 317.48,762.205 L 388.031,691.654 L 388.031,651.339 L 629.921,530.394 L 660.157,530.394 L 902.047,651.339 L 902.047,691.654 L 972.598,762.205 L 1083.46,731.969 L 1093.54,701.732 L 1154.02,671.496 L 1133.86,651.339 L 1154.02,631.181 L 1204.41,651.339 L 1133.86,691.654 L 1123.78,721.89 L 1043.15,762.205 L 982.677,772.283 L 982.677,792.441 L 962.52,802.52 L 962.52,842.835 L 942.362,852.913 L 982.677,913.386 L 942.362,933.543 L 1285.04,943.622 z " style="fill-opacity:0.5;fill:rgb(51,51,153);stroke:rgb(0,0,0);stroke-width:5"/></g>
<g fill-rule="evenodd"><path d="M 791.181,530.394 L 801.26,530.394 L 811.339,530.394 L 821.417,530.394 L 831.496,540.472 L 841.575,550.551 L 831.496,550.551 L 821.417,550.551 L 811.339,550.551 L 801.26,550.551 L 791.181,550.551 L 781.102,550.551 L 771.024,550.551 L 781.102,540.472 L 791.181,530.394 z " style="fill-opacity:0.5;fill:rgb(253,0,0);stroke:rgb(253,0,0);stroke-width:2"/></g>
<g fill-rule="evenodd"><path d="M 841.575,550.551 L 771.024,550.551 L 791.181,530.394 L 821.417,530.394 L 841.575,550.551 z " style="fill-opacity:0.5;fill:rgb(51,51,153);stroke:rgb(0,0,0);stroke-width:5"/></g>
<g fill-rule="evenodd"><path d="M 85.6693,560.63 L 95.748,560.63 L 105.827,560.63 L 115.906,560.63 L 125.984,570.709 L 136.063,570.709 L 146.142,570.709 L 156.22,570.709 L 166.299,570.709 L 176.378,570.709 L 186.457,580.787 L 196.535,580.787 L 196.535,590.866 L 196.535,600.945 L 196.535,611.024 L 196.535,621.102 L 186.457,621.102 L 176.378,631.181 L 166.299,621.102 L 156.22,621.102 L 166.299,611.024 L 166.299,600.945 L 166.299,590.866 L 156.22,580.787 L 146.142,580.787 L 136.063,580.787 L 125.984,580.787 L 115.906,570.709 L 105.827,570.709 L 95.748,570.709 L 85.6693,570.709 L 75.5906,580.787 L 65.5118,580.787 L 55.4331,580.787 L 45.3543,580.787 L 35.2756,580.787 L 25.1969,580.787 L 15.1181,590.866 L 5.03937,590.866 L 5.03937,580.787 L 15.1181,580.787 L 25.1969,570.709 L 35.2756,570.709 L 45.3543,570.709 L 55.4331,570.709 L 65.5118,570.709 L 75.5906,570.709 L 85.6693,560.63 z " style="fill-opacity:0.5;fill:rgb(253,0,0);stroke:rgb(253,0,0);stroke-width:2"/></g>
<g fill-rule="evenodd"><path d="M 196.535,621.102 L 156.22,621.102 L 166.299,590.866 L 115.906,570.709 L 15.1181,590.866 L 5.03937,580.787 L 85.6693,560.63 L 176.378,570.709 L 196.535,580.787 L 196.535,621.102 z " style="fill-opacity:0.5;fill:rgb(51,51,153);stroke:rgb(0,0,0);stroke-width:5"/></g>
<g fill-rule="evenodd"><path d="M 1174.17,560.63 L 1184.25,560.63 L 1194.33,560.63 L 1204.41,560.63 L 1214.49,570.709 L 1224.57,570.709 L 1234.65,570.709 L 1244.72,570.709 L 1254.8,570.709 L 1264.88,570.709 L 1274.96,580.787 L 1285.04,580.787 L 1285.04,590.866 L 1274.96,590.866 L 1264.88,580.787 L 1254.8,580.787 L 1244.72,580.787 L 1234.65,580.787 L 1224.57,580.787 L 1214.49,580.787 L 1204.41,570.709 L 1194.33,570.709 L 1184.25,570.709 L 1174.17,570.709 L 1164.09,580.787 L 1154.02,580.787 L 1143.94,580.787 L 1133.86,580.787 L 1123.78,590.866 L 1123.78,600.945 L 1123.78,611.024 L 1133.86,621.102 L 1123.78,621.102 L 1113.7,631.181 L 1103.62,621.102 L 1093.54,621.102 L 1093.54,611.024 L 1093.54,600.945 L 1093.54,590.866 L 1093.54,580.787 L 1103.62,580.787 L 1113.7,570.709 L 1123.78,570.709 L 1133.86,570.709 L 1143.94,570.709 L 1154.02,570.709 L 1164.09,570.709 L 1174.17,560.63M 670.236,661.417 L 660.157,671.496 L 670.236,681.575 L 680.315,671.496 L 670.236,661.417M 760.945,691.654 L 750.866,701.732 L 760.945,711.811 L 771.024,701.732 L 760.945,691.654M 629.921,701.732 L 619.843,711.811 L 609.764,711.811 L 599.685,711.811 L 589.606,711.811 L 579.528,711.811 L 569.449,711.811 L 559.37,721.89 L 559.37,731.969 L 559.37,742.047 L 559.37,752.126 L 559.37,762.205 L 559.37,772.283 L 559.37,782.362 L 569.449,792.441 L 579.528,792.441 L 579.528,802.52 L 579.528,812.598 L 579.528,822.677 L 589.606,832.756 L 599.685,832.756 L 609.764,832.756 L 619.843,832.756 L 629.921,832.756 L 640,832.756 L 650.079,832.756 L 660.157,832.756 L 670.236,832.756 L 680.315,832.756 L 690.394,832.756 L 700.472,832.756 L 710.551,822.677 L 710.551,812.598 L 710.551,802.52 L 710.551,792.441 L 720.63,792.441 L 730.709,782.362 L 730.709,772.283 L 730.709,762.205 L 730.709,752.126 L 730.709,742.047 L 730.709,731.969 L 730.709,721.89 L 720.63,711.811 L 710.551,711.811 L 700.472,711.811 L 690.394,711.811 L 680.315,711.811 L 670.236,711.811 L 660.157,701.732 L 650.079,701.732 L 640,701.732 L 629.921,701.732M 498.898,742.047 L 488.819,752.126 L 498.898,762.205 L 508.976,752.126 L 498.898,742.047M 388.031,842.835 L 377.953,852.913 L 388.031,862.992 L 398.11,852.913 L 388.031,842.835 z " style="fill-opacity:0.5;fill:rgb(253,0,0);stroke:rgb(253,0,0);stroke-width:2"/></g>
<g fill-rule="evenodd"><path d="M 1285.04,590.866 L 1174.17,570.709 L 1123.78,590.866 L 1133.86,621.102 L 1093.54,621.102 L 1093.54,580.787 L 1174.17,560.63 L 1264.88,570.709 L 1285.04,590.866M 700.472,832.756 L 710.551,792.441 L 730.709,782.362 L 720.63,711.811 L 629.921,701.732 L 559.37,721.89 L 559.37,782.362 L 579.528,792.441 L 589.606,832.756 L 700.472,832.756 z " style="fill-opacity:0.5;fill:rgb(51,51,153);stroke:rgb(0,0,0);stroke-width:5"/></g>
</svg>
