<?xml version="1.0" standalone="no"?>
<!DOCTYPE svg PUBLIC "-//W3C//DTD SVG 1.1//EN"
"http://www.w3.org/Graphics/SVG/1.1/DTD/svg11.dtd">
<svg width="100%" height="100%" version="1.1"
xmlns="http://www.w3.org/2000/svg"
xmlns:xlink="http://www.w3.org/1999/xlink">
<g fill-rule="evenodd"><path d="M 1327.47,5.14286 L 1318.41,5.14286 L 1309.35,5.14286 L 1300.29,5.14286 L 1291.22,5.14286 L 1282.16,5.14286 L 1273.1,5.14286 L 1264.04,5.14286 L 1254.98,5.14286 L 1245.92,5.14286 L 1236.86,5.14286 L 1227.8,5.14286 L 1218.73,5.14286 L 1209.67,5.14286 L 1200.61,5.14286 L 1191.55,5.14286 L 1182.49,5.14286 L 1173.43,5.14286 L 1164.37,5.14286 L 1155.31,5.14286 L 1146.24,5.14286 L 1137.18,5.14286 L 1128.12,5.14286 L 1119.06,5.14286 L 1110,5.14286 L 1100.94,5.14286 L 1091.88,5.14286 L 1082.82,5.14286 L 1073.76,5.14286 L 1064.69,5.14286 L 1055.63,5.14286 L 1046.57,5.14286 L 1037.51,5.14286 L 1028.45,5.14286 L 1019.39,5.14286 L 1010.33,5.14286 L 1001.27,5.14286 L 992.204,5.14286 L 983.143,5.14286 L 974.082,5.14286 L 965.02,5.14286 L 955.959,5.14286 L 946.898,5.14286 L 937.837,5.14286 L 928.776,5.14286 L 919.714,5.14286 L 910.653,5.14286 L 901.592,5.14286 L 892.531,5.14286 L 883.469,5.14286 L 874.408,5.14286 L 865.347,5.14286 L 856.286,5.14286 L 847.224,5.14286 L 838.163,5.14286 L 829.102,5.14286 L 820.041,5.14286 L 810.98,5.14286 L 801.918,5.14286 L 792.857,5.14286 L 783.796,5.14286 L 774.735,5.14286 L 765.673,5.14286 L 756.612,5.14286 L 747.551,5.14286 L 738.49,5.14286 L 729.429,5.14286 L 720.367,5.14286 L 711.306,5.14286 L 702.245,5.14286 L 693.184,5.14286 L 684.122,5.14286 L 675.061,5.14286 L 666,5.14286 L 656.939,5.14286 L 647.878,5.14286 L 638.816,5.14286 L 629.755,5.14286 L 620.694,5.14286 L 611.633,5.14286 L 602.571,5.14286 L 593.51,5.14286 L 584.449,5.14286 L 575.388,5.14286 L 566.327,5.14286 L 557.265,5.14286 L 548.204,5.14286 L 539.143,5.14286 L 530.082,5.14286 L 521.02,5.14286 L 511.959,5.14286 L 502.898,5.14286 L 493.837,5.14286 L 484.776,5.14286 L 475.714,5.14286 L 466.653,5.14286 L 457.592,5.14286 L 448.531,5.14286 L 439.469,5.14286 L 430.408,5.14286 L 421.347,5.14286 L 412.286,5.14286 L 403.224,5.14286 L 394.163,5.14286 L 385.102,5.14286 L 376.041,5.14286 L 366.98,5.14286 L 357.918,5.14286 L 348.857,5.14286 L 339.796,5.14286 L 330.735,5.14286 L 321.673,5.14286 L 312.612,5.14286 L 303.551,5.14286 L 294.49,5.14286 L 285.429,5.14286 L 276.367,5.14286 L 267.306,5.14286 L 258.245,5.14286 L 249.184,5.14286 L 240.122,5.14286 L 231.061,5.14286 L 222,5.14286 L 212.939,5.14286 L 203.878,5.14286 L 194.816,5.14286 L 185.755,5.14286 L 176.694,5.14286 L 167.633,5.14286 L 158.571,5.14286 L 149.51,5.14286 L 140.449,5.14286 L 131.388,5.14286 L 122.327,5.14286 L 113.265,5.14286 L 104.204,5.14286 L 95.1429,5.14286 L 86.0816,5.14286 L 77.0204,5.14286 L 67.9592,5.14286 L 58.898,5.14286 L 49.8367,5.14286 L 40.7755,5.14286 L 31.7143,5.14286 L 22.6531,5.14286 L 13.5918,5.14286 L 4.53061,5.14286 L -4.53061,5.14286 L -4.53061,14.2041 L -4.53061,23.2653 L -4.53061,32.3265 L -4.53061,41.3878 L -4.53061,50.449 L -4.53061,59.5102 L -4.53061,68.5714 L -4.53061,77.6327 L -4.53061,86.6939 L -4.53061,95.7551 L -4.53061,104.816 L -4.53061,113.878 L -4.53061,122.939 L -4.53061,132 L -4.53061,141.061 L -4.53061,150.122 L -4.53061,159.184 L -4.53061,168.245 L -4.53061,177.306 L -4.53061,186.367 L -4.53061,195.429 L -4.53061,204.49 L -4.53061,213.551 L -4.53061,222.612 L -4.53061,231.673 L -4.53061,240.735 L -4.53061,249.796 L -4.53061,258.857 L -4.53061,267.918 L -4.53061,276.98 L -4.53061,286.041 L -4.53061,295.102 L -4.53061,304.163 L -4.53061,313.224 L -4.53061,322.286 L -4.53061,331.347 L -4.53061,340.408 L -4.53061,349.469 L -4.53061,358.531 L -4.53061,367.592 L -4.53061,376.653 L -4.53061,385.714 L -4.53061,394.776 L -4.53061,403.837 L -4.53061,412.898 L -4.53061,421.959 L -4.53061,431.02 L -4.53061,440.082 L -4.53061,449.143 L -4.53061,458.204 L -4.53061,467.265 L -4.53061,476.327 L -4.53061,485.388 L -4.53061,494.449 L -4.53061,503.51 L -4.53061,512.571 L -4.53061,521.633 L -4.53061,530.694 L -4.53061,539.755 L -4.53061,548.816 L -4.53061,557.878 L -4.53061,566.939 L -4.53061,576 L -4.53061,585.061 L -4.53061,594.122 L -4.53061,603.184 L -4.53061,612.245 L -4.53061,621.306 L -4.53061,630.367 L -4.53061,639.429 L -4.53061,648.49 L -4.53061,657.551 L -4.53061,666.612 L -4.53061,675.673 L -4.53061,684.735 L -4.53061,693.796 L -4.53061,702.857 L -4.53061,711.918 L -4.53061,720.98 L -4.53061,730.041 L -4.53061,739.102 L -4.53061,748.163 L -4.53061,757.224 L -4.53061,766.286 L -4.53061,775.347 L -4.53061,784.408 L -4.53061,793.469 L -4.53061,802.531 L -4.53061,811.592 L -4.53061,820.653 L -4.53061,829.714 L -4.53061,838.776 L -4.53061,847.837 L -4.53061,856.898 L -4.53061,865.959 L -4.53061,875.02 L -4.53061,884.082 L -4.53061,893.143 L -4.53061,902.204 L -4.53061,911.265 L -4.53061,920.327 L -4.53061,929.388 L -4.53061,938.449 L -4.53061,947.51 L -4.53061,956.571 L -4.53061,965.633 L -4.53061,974.694 L -4.53061,983.755 L -4.53061,992.816 L -4.53061,1001.88 L -4.53061,1010.94 L -4.53061,1020 L -4.53061,1029.06 L -4.53061,1038.12 L -4.53061,1047.18 L -4.53061,1056.24 L -4.53061,1065.31 L -4.53061,1074.37 L -4.53061,1083.43 L -4.53061,1092.49 L -4.53061,1101.55 L -4.53061,1110.61 L -4.53061,1119.67 L -4.53061,1128.73 L -4.53061,1137.8 L -4.53061,1146.86 L -4.53061,1155.92 L 4.53061,1155.92 L 13.5918,1155.92 L 22.6531,1155.92 L 31.7143,1155.92 L 40.7755,1155.92 L 49.8367,1155.92 L 58.898,1155.92 L 67.9592,1155.92 L 77.0204,1155.92 L 86.0816,1155.92 L 95.1429,1155.92 L 104.204,1155.92 L 113.265,1155.92 L 122.327,1155.92 L 131.388,1155.92 L 140.449,1155.92 L 149.51,1155.92 L 158.571,1155.92 L 167.633,1155.92 L 176.694,1155.92 L 185.755,1155.92 L 194.816,1155.92 L 203.878,1155.92 L 212.939,1155.92 L 222,1155.92 L 231.061,1155.92 L 240.122,1155.92 L 249.184,1155.92 L 258.245,1155.92 L 267.306,1155.92 L 276.367,1155.92 L 285.429,1155.92 L 294.49,1155.92 L 303.551,1155.92 L 312.612,1155.92 L 321.673,1155.92 L 330.735,1155.92 L 339.796,1155.92 L 348.857,1155.92 L 357.918,1155.92 L 366.98,1155.92 L 376.041,1155.92 L 385.102,1155.92 L 394.163,1155.92 L 403.224,1155.92 L 412.286,1155.92 L 421.347,1155.92 L 430.408,1155.92 L 439.469,1155.92 L 448.531,1155.92 L 457.592,1155.92 L 466.653,1155.92 L 475.714,1155.92 L 484.776,1155.92 L 493.837,1155.92 L 502.898,1155.92 L 511.959,1155.92 L 521.02,1155.92 L 530.082,1155.92 L 539.143,1155.92 L 548.204,1155.92 L 557.265,1155.92 L 566.327,1155.92 L 575.388,1155.92 L 584.449,1155.92 L 593.51,1155.92 L 602.571,1155.92 L 611.633,1155.92 L 620.694,1155.92 L 629.755,1155.92 L 638.816,1155.92 L 647.878,1155.92 L 656.939,1155.92 L 666,1155.92 L 675.061,1155.92 L 684.122,1155.92 L 693.184,1155.92 L 702.245,1155.92 L 711.306,1155.92 L 720.367,1155.92 L 729.429,1155.92 L 738.49,1155.92 L 747.551,1155.92 L 756.612,1155.92 L 765.673,1155.92 L 774.735,1155.92 L 783.796,1155.92 L 792.857,1155.92 L 801.918,1155.92 L 810.98,1155.92 L 820.041,1155.92 L 829.102,1155.92 L 838.163,1155.92 L 847.224,1155.92 L 856.286,1155.92 L 865.347,1155.92 L 874.408,1155.92 L 883.469,1155.92 L 892.531,1155.92 L 901.592,1155.92 L 910.653,1155.92 L 919.714,1155.92 L 928.776,1155.92 L 937.837,1155.92 L 946.898,1155.92 L 955.959,1155.92 L 965.02,1155.92 L 974.082,1155.92 L 983.143,1155.92 L 992.204,1155.92 L 1001.27,1155.92 L 1010.33,1155.92 L 1019.39,1155.92 L 1028.45,1155.92 L 1037.51,1155.92 L 1046.57,1155.92 L 1055.63,1155.92 L 1064.69,1155.92 L 1073.76,1155.92 L 1082.82,1155.92 L 1091.88,1155.92 L 1100.94,1155.92 L 1110,1155.92 L 1119.06,1155.92 L 1128.12,1155.92 L 1137.18,1155.92 L 1146.24,1155.92 L 1155.31,1155.92 L 1164.37,1155.92 L 1173.43,1155.92 L 1182.49,1155.92 L 1191.55,1155.92 L 1200.61,1155.92 L 1209.67,1155.92 L 1218.73,1155.92 L 1227.8,1155.92 L 1236.86,1155.92 L 1245.92,1155.92 L 1254.98,1155.92 L 1264.04,1155.92 L 1273.1,1155.92 L 1282.16,1155.92 L 1291.22,1155.92 L 1300.29,1155.92 L 1309.35,1155.92 L 1318.41,1155.92 L 1327.47,1155.92 L 1327.47,1146.86 L 1327.47,1137.8 L 1327.47,1128.73 L 1327.47,1119.67 L 1327.47,1110.61 L 1327.47,1101.55 L 1327.47,1092.49 L 1327.47,1083.43 L 1327.47,1074.37 L 1327.47,1065.31 L 1327.47,1056.24 L 1327.47,1047.18 L 1327.47,1038.12 L 1327.47,1029.06 L 1327.47,1020 L 1327.47,1010.94 L 1327.47,1001.88 L 1327.47,992.816 L 1327.47,983.755 L 1327.47,974.694 L 1327.47,965.633 L 1327.47,956.571 L 1327.47,947.51 L 1327.47,938.449 L 1327.47,929.388 L 1327.47,920.327 L 1327.47,911.265 L 1327.47,902.204 L 1327.47,893.143 L 1327.47,884.082 L 1327.47,875.02 L 1327.47,865.959 L 1327.47,856.898 L 1327.47,847.837 L 1327.47,838.776 L 1327.47,829.714 L 1327.47,820.653 L 1327.47,811.592 L 1327.47,802.531 L 1327.47,793.469 L 1327.47,784.408 L 1327.47,775.347 L 1327.47,766.286 L 1327.47,757.224 L 1327.47,748.163 L 1327.47,739.102 L 1327.47,730.041 L 1327.47,720.98 L 1327.47,711.918 L 1327.47,702.857 L 1327.47,693.796 L 1327.47,684.735 L 1327.47,675.673 L 1327.47,666.612 L 1327.47,657.551 L 1327.47,648.49 L 1327.47,639.429 L 1327.47,630.367 L 1327.47,621.306 L 1327.47,612.245 L 1327.47,603.184 L 1327.47,594.122 L 1327.47,585.061 L 1327.47,576 L 1327.47,566.939 L 1327.47,557.878 L 1327.47,548.816 L 1327.47,539.755 L 1327.47,530.694 L 1327.47,521.633 L 1327.47,512.571 L 1327.47,503.51 L 1327.47,494.449 L 1327.47,485.388 L 1327.47,476.327 L 1327.47,467.265 L 1327.47,458.204 L 1327.47,449.143 L 1327.47,440.082 L 1327.47,431.02 L 1327.47,421.959 L 1327.47,412.898 L 1327.47,403.837 L 1327.47,394.776 L 1327.47,385.714 L 1327.47,376.653 L 1327.47,367.592 L 1327.47,358.531 L 1327.47,349.469 L 1327.47,340.408 L 1327.47,331.347 L 1327.47,322.286 L 1327.47,313.224 L 1327.47,304.163 L 1327.47,295.102 L 1327.47,286.041 L 1327.47,276.98 L 1327.47,267.918 L 1327.47,258.857 L 1327.47,249.796 L 1327.47,240.735 L 1327.47,231.673 L 1327.47,222.612 L 1327.47,213.551 L 1327.47,204.49 L 1327.47,195.429 L 1327.47,186.367 L 1327.47,177.306 L 1327.47,168.245 L 1327.47,159.184 L 1327.47,150.122 L 1327.47,141.061 L 1327.47,132 L 1327.47,122.939 L 1327.47,113.878 L 1327.47,104.816 L 1327.47,95.7551 L 1327.47,86.6939 L 1327.47,77.6327 L 1327.47,68.5714 L 1327.47,59.5102 L 1327.47,50.449 L 1327.47,41.3878 L 1327.47,32.3265 L 1327.47,23.2653 L 1327.47,14.2041 L 1327.47,5.14286M 1155.31,14.2041 L 1164.37,23.2653 L 1173.43,32.3265 L 1182.49,32.3265 L 1191.55,32.3265 L 1200.61,32.3265 L 1209.67,32.3265 L 1218.73,41.3878 L 1218.73,50.449 L 1218.73,59.5102 L 1227.8,68.5714 L 1236.86,77.6327 L 1236.86,86.6939 L 1236.86,95.7551 L 1236.86,104.816 L 1236.86,113.878 L 1236.86,122.939 L 1236.86,132 L 1236.86,141.061 L 1245.92,150.122 L 1254.98,159.184 L 1264.04,168.245 L 1273.1,168.245 L 1282.16,168.245 L 1291.22,168.245 L 1300.29,177.306 L 1309.35,186.367 L 1318.41,195.429 L 1327.47,204.49 L 1327.47,213.551 L 1327.47,222.612 L 1327.47,231.673 L 1327.47,240.735 L 1327.47,249.796 L 1327.47,258.857 L 1327.47,267.918 L 1318.41,276.98 L 1309.35,286.041 L 1309.35,295.102 L 1309.35,304.163 L 1309.35,313.224 L 1309.35,322.286 L 1309.35,331.347 L 1318.41,340.408 L 1327.47,349.469 L 1327.47,358.531 L 1327.47,367.592 L 1327.47,376.653 L 1327.47,385.714 L 1327.47,394.776 L 1327.47,403.837 L 1327.47,412.898 L 1327.47,421.959 L 1327.47,431.02 L 1318.41,440.082 L 1309.35,449.143 L 1309.35,458.204 L 1309.35,467.265 L 1300.29,476.327 L 1291.22,485.388 L 1282.16,494.449 L 1273.1,503.51 L 1264.04,503.51 L 1254.98,503.51 L 1245.92,512.571 L 1236.86,521.633 L 1227.8,521.633 L 1218.73,521.633 L 1209.67,521.633 L 1200.61,512.571 L 1191.55,503.51 L 1182.49,503.51 L 1173.43,503.51 L 1164.37,494.449 L 1155.31,485.388 L 1146.24,485.388 L 1137.18,485.388 L 1128.12,494.449 L 1119.06,503.51 L 1110,512.571 L 1100.94,521.633 L 1100.94,530.694 L 1100.94,539.755 L 1100.94,548.816 L 1091.88,557.878 L 1091.88,566.939 L 1091.88,576 L 1091.88,585.061 L 1091.88,594.122 L 1082.82,603.184 L 1082.82,612.245 L 1082.82,621.306 L 1073.76,630.367 L 1064.69,639.429 L 1055.63,648.49 L 1046.57,648.49 L 1037.51,657.551 L 1028.45,657.551 L 1019.39,657.551 L 1010.33,666.612 L 1001.27,666.612 L 992.204,666.612 L 983.143,675.673 L 974.082,675.673 L 974.082,684.735 L 974.082,693.796 L 974.082,702.857 L 974.082,711.918 L 983.143,720.98 L 992.204,730.041 L 1001.27,730.041 L 1010.33,739.102 L 1019.39,739.102 L 1028.45,739.102 L 1037.51,739.102 L 1037.51,730.041 L 1037.51,720.98 L 1037.51,711.918 L 1028.45,702.857 L 1028.45,693.796 L 1037.51,684.735 L 1046.57,675.673 L 1055.63,675.673 L 1064.69,675.673 L 1073.76,666.612 L 1082.82,657.551 L 1091.88,648.49 L 1100.94,639.429 L 1100.94,630.367 L 1100.94,621.306 L 1110,612.245 L 1119.06,603.184 L 1128.12,603.184 L 1137.18,603.184 L 1146.24,594.122 L 1155.31,585.061 L 1164.37,585.061 L 1173.43,594.122 L 1182.49,603.184 L 1191.55,603.184 L 1200.61,603.184 L 1209.67,612.245 L 1218.73,621.306 L 1227.8,630.367 L 1236.86,639.429 L 1245.92,648.49 L 1254.98,657.551 L 1254.98,666.612 L 1254.98,675.673 L 1264.04,684.735 L 1273.1,693.796 L 1273.1,702.857 L 1273.1,711.918 L 1273.1,720.98 L 1273.1,730.041 L 1273.1,739.102 L 1273.1,748.163 L 1273.1,757.224 L 1264.04,766.286 L 1254.98,775.347 L 1254.98,784.408 L 1254.98,793.469 L 1245.92,802.531 L 1236.86,802.531 L 1227.8,811.592 L 1218.73,820.653 L 1209.67,820.653 L 1200.61,820.653 L 1191.55,820.653 L 1182.49,820.653 L 1173.43,820.653 L 1164.37,820.653 L 1155.31,820.653 L 1146.24,820.653 L 1137.18,820.653 L 1146.24,829.714 L 1155.31,838.776 L 1164.37,838.776 L 1173.43,838.776 L 1182.49,829.714 L 1191.55,820.653 L 1200.61,820.653 L 1209.67,820.653 L 1218.73,820.653 L 1227.8,820.653 L 1236.86,811.592 L 1245.92,802.531 L 1254.98,802.531 L 1264.04,811.592 L 1273.1,820.653 L 1282.16,829.714 L 1291.22,838.776 L 1300.29,847.837 L 1309.35,856.898 L 1309.35,865.959 L 1309.35,875.02 L 1309.35,884.082 L 1309.35,893.143 L 1309.35,902.204 L 1300.29,911.265 L 1291.22,920.327 L 1291.22,929.388 L 1300.29,938.449 L 1309.35,947.51 L 1309.35,956.571 L 1309.35,965.633 L 1318.41,974.694 L 1327.47,983.755 L 1327.47,992.816 L 1327.47,1001.88 L 1327.47,1010.94 L 1318.41,1020 L 1309.35,1029.06 L 1309.35,1038.12 L 1309.35,1047.18 L 1309.35,1056.24 L 1309.35,1065.31 L 1300.29,1074.37 L 1291.22,1083.43 L 1282.16,1092.49 L 1273.1,1101.55 L 1264.04,1110.61 L 1254.98,1119.67 L 1245.92,1128.73 L 1236.86,1137.8 L 1227.8,1137.8 L 1218.73,1137.8 L 1209.67,1137.8 L 1200.61,1137.8 L 1191.55,1146.86 L 1182.49,1155.92 L 1173.43,1155.92 L 1164.37,1155.92 L 1155.31,1155.92 L 1146.24,1155.92 L 1137.18,1155.92 L 1128.12,1146.86 L 1119.06,1137.8 L 1110,1137.8 L 1100.94,1137.8 L 1091.88,1128.73 L 1082.82,1119.67 L 1073.76,1119.67 L 1064.69,1119.67 L 1055.63,1119.67 L 1046.57,1128.73 L 1037.51,1128.73 L 1028.45,1119.67 L 1019.39,1119.67 L 1010.33,1119.67 L 1001.27,1110.61 L 992.204,1101.55 L 983.143,1092.49 L 974.082,1083.43 L 965.02,1074.37 L 955.959,1065.31 L 955.959,1056.24 L 965.02,1047.18 L 974.082,1038.12 L 983.143,1029.06 L 992.204,1020 L 1001.27,1010.94 L 1010.33,1001.88 L 1019.39,992.816 L 1028.45,983.755 L 1028.45,974.694 L 1028.45,965.633 L 1028.45,956.571 L 1028.45,947.51 L 1037.51,938.449 L 1046.57,929.388 L 1055.63,920.327 L 1064.69,911.265 L 1073.76,902.204 L 1082.82,893.143 L 1091.88,893.143 L 1100.94,893.143 L 1110,893.143 L 1119.06,893.143 L 1128.12,884.082 L 1137.18,875.02 L 1137.18,865.959 L 1137.18,856.898 L 1128.12,847.837 L 1119.06,838.776 L 1110,847.837 L 1100.94,847.837 L 1091.88,847.837 L 1082.82,838.776 L 1082.82,829.714 L 1073.76,829.714 L 1064.69,838.776 L 1055.63,847.837 L 1055.63,856.898 L 1055.63,865.959 L 1055.63,875.02 L 1064.69,884.082 L 1064.69,893.143 L 1064.69,902.204 L 1055.63,911.265 L 1046.57,920.327 L 1037.51,929.388 L 1028.45,938.449 L 1028.45,947.51 L 1028.45,956.571 L 1019.39,965.633 L 1019.39,974.694 L 1019.39,983.755 L 1010.33,992.816 L 1001.27,1001.88 L 992.204,1010.94 L 983.143,1010.94 L 974.082,1020 L 965.02,1020 L 955.959,1029.06 L 955.959,1038.12 L 946.898,1047.18 L 937.837,1047.18 L 928.776,1047.18 L 919.714,1047.18 L 910.653,1047.18 L 901.592,1047.18 L 892.531,1038.12 L 883.469,1029.06 L 874.408,1029.06 L 865.347,1029.06 L 856.286,1029.06 L 856.286,1038.12 L 856.286,1047.18 L 847.224,1056.24 L 838.163,1065.31 L 829.102,1065.31 L 820.041,1065.31 L 810.98,1074.37 L 801.918,1083.43 L 792.857,1083.43 L 783.796,1083.43 L 774.735,1083.43 L 765.673,1074.37 L 756.612,1065.31 L 756.612,1056.24 L 756.612,1047.18 L 747.551,1047.18 L 738.49,1047.18 L 747.551,1056.24 L 756.612,1065.31 L 756.612,1074.37 L 747.551,1083.43 L 747.551,1092.49 L 747.551,1101.55 L 747.551,1110.61 L 738.49,1119.67 L 729.429,1119.67 L 720.367,1128.73 L 711.306,1137.8 L 702.245,1137.8 L 693.184,1137.8 L 684.122,1137.8 L 675.061,1137.8 L 666,1146.86 L 656.939,1155.92 L 647.878,1155.92 L 638.816,1155.92 L 629.755,1155.92 L 620.694,1146.86 L 611.633,1137.8 L 602.571,1128.73 L 593.51,1119.67 L 584.449,1119.67 L 575.388,1119.67 L 566.327,1110.61 L 557.265,1101.55 L 557.265,1092.49 L 566.327,1083.43 L 566.327,1074.37 L 566.327,1065.31 L 566.327,1056.24 L 566.327,1047.18 L 557.265,1038.12 L 548.204,1038.12 L 539.143,1038.12 L 530.082,1038.12 L 521.02,1038.12 L 511.959,1047.18 L 502.898,1047.18 L 493.837,1056.24 L 493.837,1065.31 L 484.776,1074.37 L 475.714,1083.43 L 466.653,1092.49 L 457.592,1101.55 L 448.531,1101.55 L 439.469,1101.55 L 430.408,1101.55 L 421.347,1101.55 L 412.286,1101.55 L 403.224,1092.49 L 394.163,1083.43 L 385.102,1083.43 L 376.041,1074.37 L 366.98,1065.31 L 357.918,1056.24 L 348.857,1056.24 L 339.796,1047.18 L 339.796,1038.12 L 339.796,1029.06 L 348.857,1020 L 348.857,1010.94 L 339.796,1020 L 330.735,1029.06 L 321.673,1038.12 L 312.612,1047.18 L 303.551,1056.24 L 303.551,1065.31 L 303.551,1074.37 L 303.551,1083.43 L 294.49,1092.49 L 294.49,1101.55 L 285.429,1110.61 L 276.367,1119.67 L 267.306,1128.73 L 258.245,1137.8 L 249.184,1137.8 L 240.122,1137.8 L 231.061,1146.86 L 222,1155.92 L 212.939,1155.92 L 203.878,1155.92 L 194.816,1155.92 L 185.755,1155.92 L 176.694,1155.92 L 167.633,1146.86 L 158.571,1137.8 L 149.51,1128.73 L 140.449,1128.73 L 131.388,1128.73 L 122.327,1128.73 L 113.265,1128.73 L 104.204,1119.67 L 104.204,1110.61 L 104.204,1101.55 L 95.1429,1092.49 L 86.0816,1083.43 L 86.0816,1074.37 L 86.0816,1065.31 L 86.0816,1056.24 L 86.0816,1047.18 L 86.0816,1038.12 L 86.0816,1029.06 L 86.0816,1020 L 77.0204,1010.94 L 67.9592,1001.88 L 58.898,992.816 L 49.8367,992.816 L 40.7755,992.816 L 31.7143,992.816 L 22.6531,983.755 L 13.5918,974.694 L 4.53061,965.633 L -4.53061,956.571 L -4.53061,947.51 L -4.53061,938.449 L -4.53061,929.388 L -4.53061,920.327 L -4.53061,911.265 L -4.53061,902.204 L -4.53061,893.143 L 4.53061,884.082 L 13.5918,875.02 L 13.5918,865.959 L 13.5918,856.898 L 13.5918,847.837 L 13.5918,838.776 L 13.5918,829.714 L 4.53061,820.653 L -4.53061,811.592 L -4.53061,802.531 L -4.53061,793.469 L -4.53061,784.408 L -4.53061,775.347 L -4.53061,766.286 L -4.53061,757.224 L -4.53061,748.163 L -4.53061,739.102 L -4.53061,730.041 L 4.53061,720.98 L 13.5918,711.918 L 13.5918,702.857 L 13.5918,693.796 L 22.6531,684.735 L 31.7143,675.673 L 40.7755,666.612 L 49.8367,657.551 L 58.898,657.551 L 67.9592,657.551 L 77.0204,648.49 L 86.0816,639.429 L 95.1429,639.429 L 104.204,639.429 L 113.265,639.429 L 122.327,648.49 L 131.388,657.551 L 140.449,657.551 L 149.51,657.551 L 158.571,666.612 L 167.633,675.673 L 167.633,684.735 L 176.694,684.735 L 185.755,675.673 L 194.816,666.612 L 203.878,657.551 L 212.939,648.49 L 222,639.429 L 222,630.367 L 222,621.306 L 222,612.245 L 231.061,603.184 L 231.061,594.122 L 231.061,585.061 L 231.061,576 L 231.061,566.939 L 240.122,557.878 L 240.122,548.816 L 240.122,539.755 L 249.184,530.694 L 258.245,521.633 L 267.306,512.571 L 276.367,512.571 L 285.429,512.571 L 294.49,503.51 L 303.551,503.51 L 312.612,494.449 L 321.673,494.449 L 330.735,494.449 L 339.796,485.388 L 348.857,485.388 L 348.857,476.327 L 348.857,467.265 L 348.857,458.204 L 348.857,449.143 L 339.796,440.082 L 330.735,431.02 L 321.673,431.02 L 312.612,421.959 L 303.551,421.959 L 294.49,421.959 L 285.429,421.959 L 285.429,431.02 L 285.429,440.082 L 285.429,449.143 L 294.49,458.204 L 294.49,467.265 L 285.429,476.327 L 276.367,485.388 L 267.306,485.388 L 258.245,485.388 L 249.184,494.449 L 240.122,503.51 L 231.061,512.571 L 222,521.633 L 222,530.694 L 222,539.755 L 212.939,548.816 L 203.878,557.878 L 194.816,557.878 L 185.755,557.878 L 176.694,566.939 L 167.633,576 L 158.571,576 L 149.51,566.939 L 140.449,557.878 L 131.388,557.878 L 122.327,557.878 L 113.265,548.816 L 104.204,539.755 L 95.1429,530.694 L 86.0816,521.633 L 77.0204,512.571 L 67.9592,503.51 L 67.9592,494.449 L 67.9592,485.388 L 58.898,476.327 L 49.8367,467.265 L 49.8367,458.204 L 49.8367,449.143 L 49.8367,440.082 L 49.8367,431.02 L 49.8367,421.959 L 49.8367,412.898 L 49.8367,403.837 L 58.898,394.776 L 67.9592,385.714 L 67.9592,376.653 L 67.9592,367.592 L 77.0204,358.531 L 86.0816,358.531 L 95.1429,349.469 L 104.204,340.408 L 113.265,340.408 L 122.327,340.408 L 131.388,340.408 L 140.449,340.408 L 149.51,340.408 L 158.571,340.408 L 167.633,340.408 L 176.694,340.408 L 185.755,340.408 L 176.694,331.347 L 167.633,322.286 L 158.571,322.286 L 149.51,322.286 L 140.449,331.347 L 131.388,340.408 L 122.327,340.408 L 113.265,340.408 L 104.204,340.408 L 95.1429,340.408 L 86.0816,349.469 L 77.0204,358.531 L 67.9592,358.531 L 58.898,349.469 L 49.8367,340.408 L 40.7755,331.347 L 31.7143,322.286 L 22.6531,313.224 L 13.5918,304.163 L 13.5918,295.102 L 13.5918,286.041 L 13.5918,276.98 L 13.5918,267.918 L 13.5918,258.857 L 22.6531,249.796 L 31.7143,240.735 L 31.7143,231.673 L 22.6531,222.612 L 13.5918,213.551 L 13.5918,204.49 L 13.5918,195.429 L 4.53061,186.367 L -4.53061,177.306 L -4.53061,168.245 L -4.53061,159.184 L -4.53061,150.122 L 4.53061,141.061 L 13.5918,132 L 13.5918,122.939 L 13.5918,113.878 L 13.5918,104.816 L 13.5918,95.7551 L 22.6531,86.6939 L 31.7143,77.6327 L 40.7755,68.5714 L 49.8367,59.5102 L 58.898,50.449 L 67.9592,41.3878 L 77.0204,32.3265 L 86.0816,23.2653 L 95.1429,23.2653 L 104.204,23.2653 L 113.265,23.2653 L 122.327,23.2653 L 131.388,14.2041 L 140.449,5.14286 L 149.51,5.14286 L 158.571,5.14286 L 167.633,5.14286 L 176.694,5.14286 L 185.755,5.14286 L 194.816,14.2041 L 203.878,23.2653 L 212.939,23.2653 L 222,23.2653 L 231.061,32.3265 L 240.122,41.3878 L 249.184,41.3878 L 258.245,41.3878 L 267.306,41.3878 L 276.367,32.3265 L 285.429,32.3265 L 294.49,41.3878 L 303.551,41.3878 L 312.612,41.3878 L 321.673,50.449 L 330.735,59.5102 L 339.796,68.5714 L 348.857,77.6327 L 357.918,86.6939 L 366.98,95.7551 L 366.98,104.816 L 357.918,113.878 L 348.857,122.939 L 339.796,132 L 330.735,141.061 L 321.673,150.122 L 312.612,159.184 L 303.551,168.245 L 294.49,177.306 L 294.49,186.367 L 294.49,195.429 L 294.49,204.49 L 294.49,213.551 L 285.429,222.612 L 276.367,231.673 L 267.306,240.735 L 258.245,249.796 L 249.184,258.857 L 240.122,267.918 L 231.061,267.918 L 222,267.918 L 212.939,267.918 L 203.878,267.918 L 194.816,276.98 L 185.755,286.041 L 185.755,295.102 L 185.755,304.163 L 194.816,313.224 L 203.878,322.286 L 212.939,313.224 L 222,313.224 L 231.061,313.224 L 240.122,322.286 L 240.122,331.347 L 249.184,331.347 L 258.245,322.286 L 267.306,313.224 L 267.306,304.163 L 267.306,295.102 L 267.306,286.041 L 258.245,276.98 L 258.245,267.918 L 258.245,258.857 L 267.306,249.796 L 276.367,240.735 L 285.429,231.673 L 294.49,222.612 L 294.49,213.551 L 294.49,204.49 L 303.551,195.429 L 303.551,186.367 L 303.551,177.306 L 312.612,168.245 L 321.673,159.184 L 330.735,150.122 L 339.796,150.122 L 348.857,141.061 L 357.918,141.061 L 366.98,132 L 366.98,122.939 L 376.041,113.878 L 385.102,113.878 L 394.163,113.878 L 403.224,113.878 L 412.286,113.878 L 421.347,113.878 L 430.408,122.939 L 439.469,132 L 448.531,132 L 457.592,132 L 466.653,132 L 466.653,122.939 L 466.653,113.878 L 475.714,104.816 L 484.776,95.7551 L 493.837,95.7551 L 502.898,95.7551 L 511.959,86.6939 L 521.02,77.6327 L 530.082,77.6327 L 539.143,77.6327 L 548.204,77.6327 L 557.265,86.6939 L 566.327,95.7551 L 566.327,104.816 L 566.327,113.878 L 575.388,113.878 L 584.449,113.878 L 575.388,104.816 L 566.327,95.7551 L 566.327,86.6939 L 575.388,77.6327 L 575.388,68.5714 L 575.388,59.5102 L 575.388,50.449 L 584.449,41.3878 L 593.51,41.3878 L 602.571,32.3265 L 611.633,23.2653 L 620.694,23.2653 L 629.755,23.2653 L 638.816,23.2653 L 647.878,23.2653 L 656.939,14.2041 L 666,5.14286 L 675.061,5.14286 L 684.122,5.14286 L 693.184,5.14286 L 702.245,14.2041 L 711.306,23.2653 L 720.367,32.3265 L 729.429,41.3878 L 738.49,41.3878 L 747.551,41.3878 L 756.612,50.449 L 765.673,59.5102 L 765.673,68.5714 L 756.612,77.6327 L 756.612,86.6939 L 756.612,95.7551 L 756.612,104.816 L 756.612,113.878 L 765.673,122.939 L 774.735,122.939 L 783.796,122.939 L 792.857,122.939 L 801.918,122.939 L 810.98,113.878 L 820.041,113.878 L 829.102,104.816 L 829.102,95.7551 L 838.163,86.6939 L 847.224,77.6327 L 856.286,68.5714 L 865.347,59.5102 L 874.408,59.5102 L 883.469,59.5102 L 892.531,59.5102 L 901.592,59.5102 L 910.653,59.5102 L 919.714,68.5714 L 928.776,77.6327 L 937.837,77.6327 L 946.898,86.6939 L 955.959,95.7551 L 965.02,104.816 L 974.082,104.816 L 983.143,113.878 L 983.143,122.939 L 983.143,132 L 974.082,141.061 L 974.082,150.122 L 983.143,141.061 L 992.204,132 L 1001.27,122.939 L 1010.33,113.878 L 1019.39,104.816 L 1019.39,95.7551 L 1019.39,86.6939 L 1019.39,77.6327 L 1028.45,68.5714 L 1028.45,59.5102 L 1037.51,50.449 L 1046.57,41.3878 L 1055.63,32.3265 L 1064.69,23.2653 L 1073.76,23.2653 L 1082.82,23.2653 L 1091.88,14.2041 L 1100.94,5.14286 L 1110,5.14286 L 1119.06,5.14286 L 1128.12,5.14286 L 1137.18,5.14286 L 1146.24,5.14286 L 1155.31,14.2041 z " style="fill-opacity:0.5;fill:rgb(253,0,0);stroke:rgb(253,0,0);stroke-width:2"/></g>
<g fill-rule="evenodd"><path d="M -4.53061,1155.92 L -4.53061,5.14286 L 1327.47,5.14286 L 1327.47,1155.92 L -4.53061,1155.92M 113.265,1128.73 L 149.51,1128.73 L 176.694,1155.92 L 222,1155.92 L 294.49,1101.55 L 303.551,1056.24 L 348.857,1010.94 L 339.796,1047.18 L 412.286,1101.55 L 457.592,1101.55 L 502.898,1047.18 L 557.265,1038.12 L 557.265,1101.55 L 629.755,1155.92 L 656.939,1155.92 L 747.551,1110.61 L 756.612,1065.31 L 738.49,1047.18 L 756.612,1047.18 L 774.735,1083.43 L 838.163,1065.31 L 856.286,1029.06 L 946.898,1047.18 L 1019.39,983.755 L 1028.45,938.449 L 1064.69,902.204 L 1055.63,847.837 L 1082.82,829.714 L 1091.88,847.837 L 1119.06,838.776 L 1137.18,875.02 L 1119.06,893.143 L 1082.82,893.143 L 1028.45,947.51 L 1028.45,983.755 L 955.959,1065.31 L 1010.33,1119.67 L 1082.82,1119.67 L 1137.18,1155.92 L 1236.86,1137.8 L 1309.35,1065.31 L 1309.35,1029.06 L 1327.47,1010.94 L 1327.47,983.755 L 1291.22,929.388 L 1309.35,902.204 L 1309.35,856.898 L 1254.98,802.531 L 1227.8,820.653 L 1191.55,820.653 L 1173.43,838.776 L 1137.18,820.653 L 1218.73,820.653 L 1254.98,793.469 L 1273.1,757.224 L 1273.1,693.796 L 1254.98,657.551 L 1200.61,603.184 L 1155.31,585.061 L 1119.06,603.184 L 1100.94,639.429 L 1028.45,693.796 L 1037.51,739.102 L 1010.33,739.102 L 974.082,711.918 L 974.082,675.673 L 1037.51,657.551 L 1082.82,621.306 L 1100.94,521.633 L 1137.18,485.388 L 1209.67,521.633 L 1236.86,521.633 L 1273.1,503.51 L 1327.47,431.02 L 1327.47,349.469 L 1309.35,331.347 L 1327.47,204.49 L 1236.86,141.061 L 1236.86,77.6327 L 1218.73,41.3878 L 1173.43,32.3265 L 1146.24,5.14286 L 1100.94,5.14286 L 1028.45,59.5102 L 1019.39,104.816 L 974.082,150.122 L 983.143,113.878 L 910.653,59.5102 L 865.347,59.5102 L 820.041,113.878 L 765.673,122.939 L 765.673,59.5102 L 693.184,5.14286 L 666,5.14286 L 575.388,50.449 L 566.327,95.7551 L 584.449,113.878 L 566.327,113.878 L 548.204,77.6327 L 484.776,95.7551 L 466.653,132 L 376.041,113.878 L 303.551,177.306 L 294.49,222.612 L 258.245,258.857 L 267.306,313.224 L 240.122,331.347 L 231.061,313.224 L 203.878,322.286 L 185.755,286.041 L 203.878,267.918 L 240.122,267.918 L 294.49,213.551 L 294.49,177.306 L 366.98,95.7551 L 312.612,41.3878 L 240.122,41.3878 L 185.755,5.14286 L 86.0816,23.2653 L 13.5918,95.7551 L 13.5918,132 L -4.53061,150.122 L -4.53061,177.306 L 31.7143,231.673 L 13.5918,258.857 L 13.5918,304.163 L 67.9592,358.531 L 95.1429,340.408 L 131.388,340.408 L 149.51,322.286 L 185.755,340.408 L 104.204,340.408 L 67.9592,367.592 L 49.8367,403.837 L 49.8367,467.265 L 67.9592,503.51 L 122.327,557.878 L 167.633,576 L 203.878,557.878 L 258.245,485.388 L 294.49,467.265 L 285.429,421.959 L 312.612,421.959 L 348.857,449.143 L 348.857,485.388 L 267.306,512.571 L 240.122,539.755 L 222,639.429 L 176.694,684.735 L 149.51,657.551 L 86.0816,639.429 L 49.8367,657.551 L -4.53061,730.041 L -4.53061,811.592 L 13.5918,829.714 L -4.53061,956.571 L 86.0816,1020 L 86.0816,1083.43 L 113.265,1128.73 z " style="fill-opacity:0.5;fill:rgb(0,253,0);stroke:rgb(0,0,0);stroke-width:5"/></g>
<g fill-rule="evenodd"><path d="M 1073.76,150.122 L 1064.69,150.122 L 1055.63,159.184 L 1046.57,168.245 L 1037.51,177.306 L 1028.45,186.367 L 1019.39,195.429 L 1019.39,204.49 L 1028.45,213.551 L 1037.51,222.612 L 1046.57,222.612 L 1055.63,213.551 L 1064.69,204.49 L 1073.76,195.429 L 1082.82,186.367 L 1091.88,177.306 L 1091.88,168.245 L 1082.82,159.184 L 1073.76,150.122 z " style="fill-opacity:0.5;fill:rgb(253,0,0);stroke:rgb(253,0,0);stroke-width:2"/></g>
<g fill-rule="evenodd"><path d="M 1037.51,222.612 L 1019.39,195.429 L 1073.76,150.122 L 1091.88,177.306 L 1037.51,222.612 z " style="fill-opacity:0.5;fill:rgb(0,253,0);stroke:rgb(0,0,0);stroke-width:5"/></g>
<g fill-rule="evenodd"><path d="M 711.306,186.367 L 702.245,186.367 L 693.184,195.429 L 684.122,195.429 L 675.061,195.429 L 666,195.429 L 656.939,195.429 L 647.878,195.429 L 638.816,195.429 L 629.755,195.429 L 620.694,195.429 L 611.633,195.429 L 602.571,195.429 L 593.51,195.429 L 584.449,195.429 L 575.388,195.429 L 566.327,195.429 L 566.327,204.49 L 566.327,213.551 L 557.265,222.612 L 548.204,231.673 L 539.143,231.673 L 530.082,222.612 L 521.02,222.612 L 511.959,222.612 L 502.898,231.673 L 502.898,240.735 L 511.959,249.796 L 521.02,249.796 L 530.082,258.857 L 530.082,267.918 L 530.082,276.98 L 539.143,276.98 L 548.204,276.98 L 557.265,276.98 L 566.327,267.918 L 575.388,258.857 L 584.449,249.796 L 593.51,240.735 L 602.571,231.673 L 611.633,222.612 L 620.694,222.612 L 629.755,222.612 L 638.816,222.612 L 647.878,222.612 L 656.939,222.612 L 666,222.612 L 675.061,222.612 L 684.122,222.612 L 693.184,222.612 L 702.245,231.673 L 711.306,240.735 L 720.367,249.796 L 729.429,240.735 L 738.49,231.673 L 747.551,222.612 L 738.49,213.551 L 738.49,204.49 L 729.429,195.429 L 720.367,195.429 L 711.306,186.367 z " style="fill-opacity:0.5;fill:rgb(253,0,0);stroke:rgb(253,0,0);stroke-width:2"/></g>
<g fill-rule="evenodd"><path d="M 502.898,240.735 L 511.959,222.612 L 548.204,231.673 L 566.327,195.429 L 711.306,186.367 L 747.551,222.612 L 720.367,249.796 L 693.184,222.612 L 611.633,222.612 L 557.265,276.98 L 530.082,276.98 L 530.082,258.857 L 502.898,240.735 z " style="fill-opacity:0.5;fill:rgb(0,253,0);stroke:rgb(0,0,0);stroke-width:5"/></g>
<g fill-rule="evenodd"><path d="M 910.653,195.429 L 901.592,195.429 L 892.531,204.49 L 892.531,213.551 L 892.531,222.612 L 892.531,231.673 L 892.531,240.735 L 892.531,249.796 L 901.592,258.857 L 910.653,258.857 L 919.714,258.857 L 928.776,258.857 L 928.776,249.796 L 937.837,240.735 L 946.898,231.673 L 946.898,222.612 L 946.898,213.551 L 937.837,213.551 L 928.776,213.551 L 919.714,204.49 L 910.653,195.429 z " style="fill-opacity:0.5;fill:rgb(253,0,0);stroke:rgb(253,0,0);stroke-width:2"/></g>
<g fill-rule="evenodd"><path d="M 928.776,258.857 L 892.531,249.796 L 901.592,195.429 L 946.898,213.551 L 928.776,258.857 z " style="fill-opacity:0.5;fill:rgb(0,253,0);stroke:rgb(0,0,0);stroke-width:5"/></g>
<g fill-rule="evenodd"><path d="M 1173.43,222.612 L 1164.37,222.612 L 1155.31,222.612 L 1146.24,222.612 L 1137.18,222.612 L 1128.12,231.673 L 1119.06,240.735 L 1110,249.796 L 1100.94,258.857 L 1091.88,267.918 L 1100.94,267.918 L 1110,276.98 L 1100.94,286.041 L 1100.94,295.102 L 1110,304.163 L 1119.06,313.224 L 1128.12,313.224 L 1137.18,313.224 L 1146.24,313.224 L 1155.31,313.224 L 1164.37,304.163 L 1173.43,295.102 L 1182.49,286.041 L 1191.55,286.041 L 1200.61,276.98 L 1200.61,267.918 L 1200.61,258.857 L 1191.55,249.796 L 1191.55,240.735 L 1182.49,231.673 L 1173.43,222.612 z " style="fill-opacity:0.5;fill:rgb(253,0,0);stroke:rgb(253,0,0);stroke-width:2"/></g>
<g fill-rule="evenodd"><path d="M 1119.06,313.224 L 1100.94,295.102 L 1110,276.98 L 1091.88,267.918 L 1137.18,222.612 L 1173.43,222.612 L 1200.61,276.98 L 1155.31,313.224 L 1119.06,313.224 z " style="fill-opacity:0.5;fill:rgb(0,253,0);stroke:rgb(0,0,0);stroke-width:5"/></g>
<g fill-rule="evenodd"><path d="M 801.918,276.98 L 792.857,286.041 L 783.796,295.102 L 783.796,304.163 L 783.796,313.224 L 783.796,322.286 L 783.796,331.347 L 783.796,340.408 L 783.796,349.469 L 783.796,358.531 L 774.735,367.592 L 765.673,376.653 L 765.673,385.714 L 756.612,394.776 L 747.551,394.776 L 747.551,403.837 L 747.551,412.898 L 747.551,421.959 L 738.49,431.02 L 729.429,440.082 L 720.367,449.143 L 711.306,449.143 L 702.245,449.143 L 693.184,449.143 L 684.122,458.204 L 675.061,467.265 L 666,467.265 L 656.939,458.204 L 647.878,458.204 L 638.816,458.204 L 629.755,467.265 L 629.755,476.327 L 620.694,485.388 L 611.633,485.388 L 602.571,476.327 L 593.51,467.265 L 584.449,467.265 L 575.388,467.265 L 566.327,476.327 L 557.265,485.388 L 566.327,494.449 L 575.388,503.51 L 584.449,503.51 L 593.51,503.51 L 602.571,512.571 L 611.633,521.633 L 620.694,521.633 L 629.755,521.633 L 638.816,521.633 L 647.878,521.633 L 656.939,521.633 L 666,521.633 L 675.061,521.633 L 684.122,521.633 L 693.184,512.571 L 702.245,503.51 L 711.306,494.449 L 711.306,485.388 L 720.367,476.327 L 729.429,467.265 L 720.367,458.204 L 729.429,449.143 L 738.49,440.082 L 747.551,431.02 L 756.612,421.959 L 765.673,421.959 L 774.735,421.959 L 783.796,412.898 L 792.857,412.898 L 801.918,403.837 L 810.98,394.776 L 820.041,385.714 L 829.102,385.714 L 829.102,376.653 L 829.102,367.592 L 829.102,358.531 L 829.102,349.469 L 829.102,340.408 L 820.041,331.347 L 820.041,322.286 L 810.98,313.224 L 810.98,304.163 L 810.98,295.102 L 801.918,286.041 L 801.918,276.98 z " style="fill-opacity:0.5;fill:rgb(253,0,0);stroke:rgb(253,0,0);stroke-width:2"/></g>
<g fill-rule="evenodd"><path d="M 557.265,485.388 L 575.388,467.265 L 620.694,485.388 L 638.816,458.204 L 675.061,467.265 L 693.184,449.143 L 720.367,449.143 L 783.796,358.531 L 783.796,295.102 L 801.918,276.98 L 829.102,340.408 L 829.102,385.714 L 756.612,421.959 L 684.122,521.633 L 611.633,521.633 L 557.265,485.388 z " style="fill-opacity:0.5;fill:rgb(0,253,0);stroke:rgb(0,0,0);stroke-width:5"/></g>
<g fill-rule="evenodd"><path d="M 928.776,331.347 L 919.714,331.347 L 910.653,331.347 L 901.592,340.408 L 892.531,340.408 L 892.531,349.469 L 892.531,358.531 L 892.531,367.592 L 892.531,376.653 L 892.531,385.714 L 901.592,394.776 L 910.653,394.776 L 919.714,394.776 L 928.776,385.714 L 937.837,385.714 L 937.837,376.653 L 937.837,367.592 L 937.837,358.531 L 937.837,349.469 L 937.837,340.408 L 928.776,331.347 z " style="fill-opacity:0.5;fill:rgb(253,0,0);stroke:rgb(253,0,0);stroke-width:2"/></g>
<g fill-rule="evenodd"><path d="M 901.592,394.776 L 892.531,340.408 L 928.776,331.347 L 937.837,385.714 L 901.592,394.776 z " style="fill-opacity:0.5;fill:rgb(0,253,0);stroke:rgb(0,0,0);stroke-width:5"/></g>
<g fill-rule="evenodd"><path d="M 1028.45,340.408 L 1019.39,340.408 L 1010.33,340.408 L 1001.27,340.408 L 1001.27,349.469 L 1001.27,358.531 L 1001.27,367.592 L 1001.27,376.653 L 1001.27,385.714 L 1010.33,385.714 L 1019.39,385.714 L 1028.45,394.776 L 1028.45,403.837 L 1028.45,412.898 L 1028.45,421.959 L 1037.51,431.02 L 1046.57,440.082 L 1046.57,449.143 L 1055.63,449.143 L 1064.69,449.143 L 1073.76,440.082 L 1082.82,431.02 L 1082.82,421.959 L 1082.82,412.898 L 1073.76,403.837 L 1064.69,394.776 L 1064.69,385.714 L 1064.69,376.653 L 1064.69,367.592 L 1055.63,358.531 L 1046.57,349.469 L 1037.51,349.469 L 1028.45,340.408 z " style="fill-opacity:0.5;fill:rgb(253,0,0);stroke:rgb(253,0,0);stroke-width:2"/></g>
<g fill-rule="evenodd"><path d="M 1064.69,449.143 L 1046.57,449.143 L 1028.45,394.776 L 1001.27,385.714 L 1001.27,340.408 L 1028.45,340.408 L 1064.69,367.592 L 1064.69,394.776 L 1082.82,412.898 L 1064.69,449.143 z " style="fill-opacity:0.5;fill:rgb(0,253,0);stroke:rgb(0,0,0);stroke-width:5"/></g>
<g fill-rule="evenodd"><path d="M 466.653,340.408 L 457.592,340.408 L 448.531,340.408 L 439.469,340.408 L 430.408,349.469 L 421.347,358.531 L 412.286,358.531 L 403.224,358.531 L 394.163,358.531 L 385.102,358.531 L 385.102,367.592 L 385.102,376.653 L 394.163,385.714 L 403.224,394.776 L 412.286,394.776 L 421.347,394.776 L 430.408,403.837 L 439.469,403.837 L 448.531,403.837 L 457.592,412.898 L 466.653,421.959 L 475.714,421.959 L 484.776,421.959 L 493.837,431.02 L 502.898,431.02 L 511.959,421.959 L 521.02,412.898 L 521.02,403.837 L 521.02,394.776 L 511.959,394.776 L 502.898,394.776 L 493.837,385.714 L 484.776,376.653 L 475.714,367.592 L 466.653,358.531 L 466.653,349.469 L 466.653,340.408 z " style="fill-opacity:0.5;fill:rgb(253,0,0);stroke:rgb(253,0,0);stroke-width:2"/></g>
<g fill-rule="evenodd"><path d="M 502.898,431.02 L 403.224,394.776 L 385.102,358.531 L 466.653,340.408 L 466.653,358.531 L 502.898,394.776 L 521.02,394.776 L 502.898,431.02 z " style="fill-opacity:0.5;fill:rgb(0,253,0);stroke:rgb(0,0,0);stroke-width:5"/></g>
<g fill-rule="evenodd"><path d="M 937.837,458.204 L 928.776,458.204 L 919.714,458.204 L 910.653,458.204 L 901.592,458.204 L 901.592,467.265 L 901.592,476.327 L 901.592,485.388 L 901.592,494.449 L 910.653,503.51 L 919.714,503.51 L 928.776,503.51 L 937.837,503.51 L 946.898,503.51 L 946.898,494.449 L 955.959,485.388 L 955.959,476.327 L 946.898,467.265 L 937.837,458.204 z " style="fill-opacity:0.5;fill:rgb(253,0,0);stroke:rgb(253,0,0);stroke-width:2"/></g>
<g fill-rule="evenodd"><path d="M 910.653,503.51 L 901.592,458.204 L 937.837,458.204 L 955.959,476.327 L 946.898,503.51 L 910.653,503.51 z " style="fill-opacity:0.5;fill:rgb(0,253,0);stroke:rgb(0,0,0);stroke-width:5"/></g>
<g fill-rule="evenodd"><path d="M 502.898,557.878 L 493.837,557.878 L 484.776,557.878 L 475.714,557.878 L 466.653,557.878 L 466.653,566.939 L 466.653,576 L 466.653,585.061 L 475.714,594.122 L 484.776,594.122 L 493.837,594.122 L 502.898,594.122 L 511.959,594.122 L 521.02,594.122 L 530.082,585.061 L 530.082,576 L 521.02,566.939 L 511.959,566.939 L 502.898,557.878 z " style="fill-opacity:0.5;fill:rgb(253,0,0);stroke:rgb(253,0,0);stroke-width:2"/></g>
<g fill-rule="evenodd"><path d="M 475.714,594.122 L 466.653,557.878 L 502.898,557.878 L 530.082,576 L 521.02,594.122 L 475.714,594.122 z " style="fill-opacity:0.5;fill:rgb(0,253,0);stroke:rgb(0,0,0);stroke-width:5"/></g>
<g fill-rule="evenodd"><path d="M 847.224,566.939 L 838.163,566.939 L 829.102,566.939 L 820.041,566.939 L 810.98,566.939 L 801.918,566.939 L 792.857,576 L 792.857,585.061 L 801.918,594.122 L 810.98,594.122 L 820.041,603.184 L 829.102,603.184 L 838.163,603.184 L 847.224,603.184 L 856.286,603.184 L 856.286,594.122 L 856.286,585.061 L 856.286,576 L 847.224,566.939 z " style="fill-opacity:0.5;fill:rgb(253,0,0);stroke:rgb(253,0,0);stroke-width:2"/></g>
<g fill-rule="evenodd"><path d="M 792.857,585.061 L 801.918,566.939 L 847.224,566.939 L 856.286,603.184 L 820.041,603.184 L 792.857,585.061 z " style="fill-opacity:0.5;fill:rgb(0,253,0);stroke:rgb(0,0,0);stroke-width:5"/></g>
<g fill-rule="evenodd"><path d="M 711.306,639.429 L 702.245,639.429 L 693.184,639.429 L 684.122,639.429 L 675.061,639.429 L 666,639.429 L 656.939,639.429 L 647.878,639.429 L 638.816,639.429 L 629.755,648.49 L 620.694,657.551 L 611.633,666.612 L 611.633,675.673 L 602.571,684.735 L 593.51,693.796 L 602.571,702.857 L 593.51,711.918 L 584.449,720.98 L 575.388,730.041 L 566.327,739.102 L 557.265,739.102 L 548.204,739.102 L 539.143,748.163 L 530.082,748.163 L 521.02,757.224 L 511.959,766.286 L 502.898,775.347 L 493.837,775.347 L 493.837,784.408 L 493.837,793.469 L 493.837,802.531 L 493.837,811.592 L 493.837,820.653 L 502.898,829.714 L 502.898,838.776 L 511.959,847.837 L 511.959,856.898 L 511.959,865.959 L 521.02,875.02 L 521.02,884.082 L 530.082,875.02 L 539.143,865.959 L 539.143,856.898 L 539.143,847.837 L 539.143,838.776 L 539.143,829.714 L 539.143,820.653 L 539.143,811.592 L 539.143,802.531 L 548.204,793.469 L 557.265,784.408 L 557.265,775.347 L 566.327,766.286 L 575.388,766.286 L 575.388,757.224 L 575.388,748.163 L 575.388,739.102 L 584.449,730.041 L 593.51,720.98 L 602.571,711.918 L 611.633,711.918 L 620.694,711.918 L 629.755,711.918 L 638.816,702.857 L 647.878,693.796 L 656.939,693.796 L 666,702.857 L 675.061,702.857 L 684.122,702.857 L 693.184,693.796 L 693.184,684.735 L 702.245,675.673 L 711.306,675.673 L 720.367,684.735 L 729.429,693.796 L 738.49,693.796 L 747.551,693.796 L 756.612,684.735 L 765.673,675.673 L 756.612,666.612 L 747.551,657.551 L 738.49,657.551 L 729.429,657.551 L 720.367,648.49 L 711.306,639.429 z " style="fill-opacity:0.5;fill:rgb(253,0,0);stroke:rgb(253,0,0);stroke-width:2"/></g>
<g fill-rule="evenodd"><path d="M 521.02,884.082 L 493.837,820.653 L 493.837,775.347 L 566.327,739.102 L 638.816,639.429 L 711.306,639.429 L 765.673,675.673 L 747.551,693.796 L 702.245,675.673 L 684.122,702.857 L 647.878,693.796 L 629.755,711.918 L 602.571,711.918 L 539.143,802.531 L 539.143,865.959 L 521.02,884.082 z " style="fill-opacity:0.5;fill:rgb(0,253,0);stroke:rgb(0,0,0);stroke-width:5"/></g>
<g fill-rule="evenodd"><path d="M 412.286,657.551 L 403.224,657.551 L 394.163,657.551 L 385.102,657.551 L 376.041,657.551 L 376.041,666.612 L 366.98,675.673 L 366.98,684.735 L 376.041,693.796 L 385.102,702.857 L 394.163,702.857 L 403.224,702.857 L 412.286,702.857 L 421.347,702.857 L 421.347,693.796 L 421.347,684.735 L 421.347,675.673 L 421.347,666.612 L 412.286,657.551 z " style="fill-opacity:0.5;fill:rgb(253,0,0);stroke:rgb(253,0,0);stroke-width:2"/></g>
<g fill-rule="evenodd"><path d="M 385.102,702.857 L 366.98,684.735 L 376.041,657.551 L 412.286,657.551 L 421.347,702.857 L 385.102,702.857 z " style="fill-opacity:0.5;fill:rgb(0,253,0);stroke:rgb(0,0,0);stroke-width:5"/></g>
<g fill-rule="evenodd"><path d="M 276.367,711.918 L 267.306,711.918 L 258.245,711.918 L 249.184,720.98 L 240.122,730.041 L 240.122,739.102 L 240.122,748.163 L 249.184,757.224 L 258.245,766.286 L 258.245,775.347 L 258.245,784.408 L 258.245,793.469 L 267.306,802.531 L 276.367,811.592 L 285.429,811.592 L 294.49,820.653 L 303.551,820.653 L 312.612,820.653 L 321.673,820.653 L 321.673,811.592 L 321.673,802.531 L 321.673,793.469 L 321.673,784.408 L 321.673,775.347 L 312.612,775.347 L 303.551,775.347 L 294.49,766.286 L 294.49,757.224 L 294.49,748.163 L 294.49,739.102 L 285.429,730.041 L 276.367,720.98 L 276.367,711.918 z " style="fill-opacity:0.5;fill:rgb(253,0,0);stroke:rgb(253,0,0);stroke-width:2"/></g>
<g fill-rule="evenodd"><path d="M 321.673,820.653 L 294.49,820.653 L 258.245,793.469 L 258.245,766.286 L 240.122,748.163 L 258.245,711.918 L 276.367,711.918 L 294.49,766.286 L 321.673,775.347 L 321.673,820.653 z " style="fill-opacity:0.5;fill:rgb(0,253,0);stroke:rgb(0,0,0);stroke-width:5"/></g>
<g fill-rule="evenodd"><path d="M 829.102,730.041 L 820.041,730.041 L 810.98,739.102 L 801.918,748.163 L 801.918,757.224 L 801.918,766.286 L 810.98,766.286 L 820.041,766.286 L 829.102,775.347 L 838.163,784.408 L 847.224,793.469 L 856.286,802.531 L 856.286,811.592 L 856.286,820.653 L 865.347,820.653 L 874.408,820.653 L 883.469,820.653 L 892.531,811.592 L 901.592,802.531 L 910.653,802.531 L 919.714,802.531 L 928.776,802.531 L 937.837,802.531 L 937.837,793.469 L 937.837,784.408 L 928.776,775.347 L 919.714,766.286 L 910.653,766.286 L 901.592,766.286 L 892.531,757.224 L 883.469,757.224 L 874.408,757.224 L 865.347,748.163 L 856.286,739.102 L 847.224,739.102 L 838.163,739.102 L 829.102,730.041 z " style="fill-opacity:0.5;fill:rgb(253,0,0);stroke:rgb(253,0,0);stroke-width:2"/></g>
<g fill-rule="evenodd"><path d="M 937.837,802.531 L 856.286,820.653 L 856.286,802.531 L 820.041,766.286 L 801.918,766.286 L 801.918,748.163 L 820.041,730.041 L 856.286,739.102 L 874.408,757.224 L 919.714,766.286 L 937.837,802.531 z " style="fill-opacity:0.5;fill:rgb(0,253,0);stroke:rgb(0,0,0);stroke-width:5"/></g>
<g fill-rule="evenodd"><path d="M 421.347,766.286 L 412.286,766.286 L 403.224,766.286 L 394.163,775.347 L 385.102,775.347 L 385.102,784.408 L 385.102,793.469 L 385.102,802.531 L 385.102,811.592 L 385.102,820.653 L 394.163,829.714 L 403.224,829.714 L 412.286,829.714 L 421.347,820.653 L 430.408,820.653 L 430.408,811.592 L 430.408,802.531 L 430.408,793.469 L 430.408,784.408 L 430.408,775.347 L 421.347,766.286 z " style="fill-opacity:0.5;fill:rgb(253,0,0);stroke:rgb(253,0,0);stroke-width:2"/></g>
<g fill-rule="evenodd"><path d="M 394.163,829.714 L 385.102,775.347 L 421.347,766.286 L 430.408,820.653 L 394.163,829.714 z " style="fill-opacity:0.5;fill:rgb(0,253,0);stroke:rgb(0,0,0);stroke-width:5"/></g>
<g fill-rule="evenodd"><path d="M 203.878,847.837 L 194.816,847.837 L 185.755,847.837 L 176.694,847.837 L 167.633,847.837 L 158.571,856.898 L 149.51,865.959 L 140.449,875.02 L 131.388,875.02 L 122.327,884.082 L 122.327,893.143 L 122.327,902.204 L 131.388,911.265 L 131.388,920.327 L 140.449,929.388 L 149.51,938.449 L 158.571,938.449 L 167.633,938.449 L 176.694,938.449 L 185.755,938.449 L 194.816,929.388 L 203.878,920.327 L 212.939,911.265 L 222,902.204 L 231.061,893.143 L 222,893.143 L 212.939,884.082 L 222,875.02 L 222,865.959 L 212.939,856.898 L 203.878,847.837 z " style="fill-opacity:0.5;fill:rgb(253,0,0);stroke:rgb(253,0,0);stroke-width:2"/></g>
<g fill-rule="evenodd"><path d="M 149.51,938.449 L 122.327,884.082 L 167.633,847.837 L 203.878,847.837 L 222,865.959 L 212.939,884.082 L 231.061,893.143 L 185.755,938.449 L 149.51,938.449 z " style="fill-opacity:0.5;fill:rgb(0,253,0);stroke:rgb(0,0,0);stroke-width:5"/></g>
<g fill-rule="evenodd"><path d="M 792.857,884.082 L 783.796,884.082 L 774.735,884.082 L 765.673,884.082 L 756.612,893.143 L 747.551,902.204 L 738.49,911.265 L 729.429,920.327 L 720.367,929.388 L 711.306,938.449 L 702.245,938.449 L 693.184,938.449 L 684.122,938.449 L 675.061,938.449 L 666,938.449 L 656.939,938.449 L 647.878,938.449 L 638.816,938.449 L 629.755,938.449 L 620.694,929.388 L 611.633,920.327 L 602.571,911.265 L 593.51,920.327 L 584.449,929.388 L 575.388,938.449 L 584.449,947.51 L 584.449,956.571 L 593.51,965.633 L 602.571,965.633 L 611.633,974.694 L 620.694,974.694 L 629.755,965.633 L 638.816,965.633 L 647.878,965.633 L 656.939,965.633 L 666,965.633 L 675.061,965.633 L 684.122,965.633 L 693.184,965.633 L 702.245,965.633 L 711.306,965.633 L 720.367,965.633 L 729.429,965.633 L 738.49,965.633 L 747.551,965.633 L 756.612,965.633 L 756.612,956.571 L 756.612,947.51 L 765.673,938.449 L 774.735,929.388 L 783.796,929.388 L 792.857,938.449 L 801.918,938.449 L 810.98,938.449 L 820.041,929.388 L 820.041,920.327 L 810.98,911.265 L 801.918,911.265 L 792.857,902.204 L 792.857,893.143 L 792.857,884.082 z " style="fill-opacity:0.5;fill:rgb(253,0,0);stroke:rgb(253,0,0);stroke-width:2"/></g>
<g fill-rule="evenodd"><path d="M 575.388,938.449 L 602.571,911.265 L 629.755,938.449 L 711.306,938.449 L 765.673,884.082 L 792.857,884.082 L 792.857,902.204 L 820.041,920.327 L 810.98,938.449 L 774.735,929.388 L 756.612,965.633 L 611.633,974.694 L 575.388,938.449 z " style="fill-opacity:0.5;fill:rgb(0,253,0);stroke:rgb(0,0,0);stroke-width:5"/></g>
<g fill-rule="evenodd"><path d="M 421.347,902.204 L 412.286,902.204 L 403.224,902.204 L 394.163,902.204 L 394.163,911.265 L 385.102,920.327 L 376.041,929.388 L 376.041,938.449 L 376.041,947.51 L 385.102,947.51 L 394.163,947.51 L 403.224,956.571 L 412.286,965.633 L 421.347,965.633 L 430.408,956.571 L 430.408,947.51 L 430.408,938.449 L 430.408,929.388 L 430.408,920.327 L 430.408,911.265 L 421.347,902.204 z " style="fill-opacity:0.5;fill:rgb(253,0,0);stroke:rgb(253,0,0);stroke-width:2"/></g>
<g fill-rule="evenodd"><path d="M 412.286,965.633 L 376.041,947.51 L 394.163,902.204 L 430.408,911.265 L 430.408,956.571 L 412.286,965.633 z " style="fill-opacity:0.5;fill:rgb(0,253,0);stroke:rgb(0,0,0);stroke-width:5"/></g>
<g fill-rule="evenodd"><path d="M 285.429,938.449 L 276.367,938.449 L 267.306,947.51 L 258.245,956.571 L 249.184,965.633 L 240.122,974.694 L 231.061,983.755 L 231.061,992.816 L 240.122,1001.88 L 249.184,1010.94 L 258.245,1010.94 L 267.306,1001.88 L 276.367,992.816 L 285.429,983.755 L 294.49,974.694 L 303.551,965.633 L 303.551,956.571 L 294.49,947.51 L 285.429,938.449 z " style="fill-opacity:0.5;fill:rgb(253,0,0);stroke:rgb(253,0,0);stroke-width:2"/></g>
<g fill-rule="evenodd"><path d="M 249.184,1010.94 L 231.061,983.755 L 285.429,938.449 L 303.551,965.633 L 249.184,1010.94 z " style="fill-opacity:0.5;fill:rgb(0,253,0);stroke:rgb(0,0,0);stroke-width:5"/></g>
</svg>
