<?xml version="1.0" standalone="no"?>
<!DOCTYPE svg PUBLIC "-//W3C//DTD SVG 1.1//EN"
"http://www.w3.org/Graphics/SVG/1.1/DTD/svg11.dtd">
<svg width="100%" height="100%" version="1.1"
xmlns="http://www.w3.org/2000/svg"
xmlns:xlink="http://www.w3.org/1999/xlink">
<g fill-rule="evenodd"><path d="M 1183.47,4.94656 L 1174.4,4.94656 L 1165.33,4.94656 L 1156.26,4.94656 L 1147.19,4.94656 L 1138.12,4.94656 L 1129.05,4.94656 L 1119.98,4.94656 L 1110.92,4.94656 L 1101.85,4.94656 L 1092.78,4.94656 L 1083.71,4.94656 L 1074.64,4.94656 L 1065.57,4.94656 L 1056.5,4.94656 L 1047.44,4.94656 L 1038.37,4.94656 L 1029.3,4.94656 L 1020.23,4.94656 L 1011.16,4.94656 L 1002.09,4.94656 L 993.023,4.94656 L 983.954,4.94656 L 974.885,4.94656 L 965.817,4.94656 L 956.748,4.94656 L 947.679,4.94656 L 938.611,4.94656 L 929.542,4.94656 L 920.473,4.94656 L 911.405,4.94656 L 902.336,4.94656 L 893.267,4.94656 L 884.198,4.94656 L 875.13,4.94656 L 866.061,4.94656 L 856.992,4.94656 L 847.924,4.94656 L 838.855,4.94656 L 829.786,4.94656 L 820.718,4.94656 L 811.649,4.94656 L 802.58,4.94656 L 793.511,4.94656 L 784.443,4.94656 L 775.374,4.94656 L 766.305,4.94656 L 757.237,4.94656 L 748.168,4.94656 L 739.099,4.94656 L 730.031,4.94656 L 720.962,4.94656 L 711.893,4.94656 L 702.824,4.94656 L 693.756,4.94656 L 684.687,4.94656 L 675.618,4.94656 L 666.55,4.94656 L 657.481,4.94656 L 648.412,4.94656 L 639.344,4.94656 L 630.275,4.94656 L 621.206,4.94656 L 612.137,4.94656 L 603.069,4.94656 L 594,4.94656 L 584.931,4.94656 L 575.863,4.94656 L 566.794,4.94656 L 557.725,4.94656 L 548.656,4.94656 L 539.588,4.94656 L 530.519,4.94656 L 521.45,4.94656 L 512.382,4.94656 L 503.313,4.94656 L 494.244,4.94656 L 485.176,4.94656 L 476.107,4.94656 L 467.038,4.94656 L 457.969,4.94656 L 448.901,4.94656 L 439.832,4.94656 L 430.763,4.94656 L 421.695,4.94656 L 412.626,4.94656 L 403.557,4.94656 L 394.489,4.94656 L 385.42,4.94656 L 376.351,4.94656 L 367.282,4.94656 L 358.214,4.94656 L 349.145,4.94656 L 340.076,4.94656 L 331.008,4.94656 L 321.939,4.94656 L 312.87,4.94656 L 303.802,4.94656 L 294.733,4.94656 L 285.664,4.94656 L 276.595,4.94656 L 267.527,4.94656 L 258.458,4.94656 L 249.389,4.94656 L 240.321,4.94656 L 231.252,4.94656 L 222.183,4.94656 L 213.115,4.94656 L 204.046,4.94656 L 194.977,4.94656 L 185.908,4.94656 L 176.84,4.94656 L 167.771,4.94656 L 158.702,4.94656 L 149.634,4.94656 L 140.565,4.94656 L 131.496,4.94656 L 122.427,4.94656 L 113.359,4.94656 L 104.29,4.94656 L 95.2214,4.94656 L 86.1527,4.94656 L 77.084,4.94656 L 68.0153,4.94656 L 58.9466,4.94656 L 49.8779,4.94656 L 40.8092,4.94656 L 31.7405,4.94656 L 22.6718,4.94656 L 13.6031,4.94656 L 4.53435,4.94656 L -4.53435,4.94656 L -4.53435,14.0153 L -4.53435,23.084 L -4.53435,32.1527 L -4.53435,41.2214 L -4.53435,50.2901 L -4.53435,59.3588 L -4.53435,68.4275 L -4.53435,77.4962 L -4.53435,86.5649 L -4.53435,95.6336 L -4.53435,104.702 L -4.53435,113.771 L -4.53435,122.84 L -4.53435,131.908 L -4.53435,140.977 L -4.53435,150.046 L -4.53435,159.115 L -4.53435,168.183 L -4.53435,177.252 L -4.53435,186.321 L -4.53435,195.389 L -4.53435,204.458 L -4.53435,213.527 L -4.53435,222.595 L -4.53435,231.664 L -4.53435,240.733 L -4.53435,249.802 L -4.53435,258.87 L -4.53435,267.939 L -4.53435,277.008 L -4.53435,286.076 L -4.53435,295.145 L -4.53435,304.214 L -4.53435,313.282 L -4.53435,322.351 L -4.53435,331.42 L -4.53435,340.489 L -4.53435,349.557 L -4.53435,358.626 L -4.53435,367.695 L -4.53435,376.763 L -4.53435,385.832 L -4.53435,394.901 L -4.53435,403.969 L -4.53435,413.038 L -4.53435,422.107 L -4.53435,431.176 L -4.53435,440.244 L -4.53435,449.313 L -4.53435,458.382 L -4.53435,467.45 L -4.53435,476.519 L -4.53435,485.588 L -4.53435,494.656 L -4.53435,503.725 L -4.53435,512.794 L -4.53435,521.863 L -4.53435,530.931 L -4.53435,540 L -4.53435,549.069 L -4.53435,558.137 L -4.53435,567.206 L -4.53435,576.275 L -4.53435,585.344 L -4.53435,594.412 L -4.53435,603.481 L -4.53435,612.55 L -4.53435,621.618 L -4.53435,630.687 L -4.53435,639.756 L -4.53435,648.824 L -4.53435,657.893 L -4.53435,666.962 L -4.53435,676.031 L -4.53435,685.099 L -4.53435,694.168 L -4.53435,703.237 L -4.53435,712.305 L -4.53435,721.374 L -4.53435,730.443 L -4.53435,739.511 L -4.53435,748.58 L -4.53435,757.649 L -4.53435,766.718 L -4.53435,775.786 L -4.53435,784.855 L -4.53435,793.924 L -4.53435,802.992 L -4.53435,812.061 L -4.53435,821.13 L -4.53435,830.198 L -4.53435,839.267 L -4.53435,848.336 L -4.53435,857.405 L -4.53435,866.473 L -4.53435,875.542 L -4.53435,884.611 L -4.53435,893.679 L -4.53435,902.748 L -4.53435,911.817 L -4.53435,920.885 L -4.53435,929.954 L -4.53435,939.023 L -4.53435,948.092 L -4.53435,957.16 L -4.53435,966.229 L -4.53435,975.298 L -4.53435,984.366 L -4.53435,993.435 L -4.53435,1002.5 L -4.53435,1011.57 L -4.53435,1020.64 L -4.53435,1029.71 L -4.53435,1038.78 L -4.53435,1047.85 L -4.53435,1056.92 L -4.53435,1065.98 L -4.53435,1075.05 L -4.53435,1084.12 L 4.53435,1084.12 L 13.6031,1084.12 L 22.6718,1084.12 L 31.7405,1084.12 L 40.8092,1084.12 L 49.8779,1084.12 L 58.9466,1084.12 L 68.0153,1084.12 L 77.084,1084.12 L 86.1527,1084.12 L 95.2214,1084.12 L 104.29,1084.12 L 113.359,1084.12 L 122.427,1084.12 L 131.496,1084.12 L 140.565,1084.12 L 149.634,1084.12 L 158.702,1084.12 L 167.771,1084.12 L 176.84,1084.12 L 185.908,1084.12 L 194.977,1084.12 L 204.046,1084.12 L 213.115,1084.12 L 222.183,1084.12 L 231.252,1084.12 L 240.321,1084.12 L 249.389,1084.12 L 258.458,1084.12 L 267.527,1084.12 L 276.595,1084.12 L 285.664,1084.12 L 294.733,1084.12 L 303.802,1084.12 L 312.87,1084.12 L 321.939,1084.12 L 331.008,1084.12 L 340.076,1084.12 L 349.145,1084.12 L 358.214,1084.12 L 367.282,1084.12 L 376.351,1084.12 L 385.42,1084.12 L 394.489,1084.12 L 403.557,1084.12 L 412.626,1084.12 L 421.695,1084.12 L 430.763,1084.12 L 439.832,1084.12 L 448.901,1084.12 L 457.969,1084.12 L 467.038,1084.12 L 476.107,1084.12 L 485.176,1084.12 L 494.244,1084.12 L 503.313,1084.12 L 512.382,1084.12 L 521.45,1084.12 L 530.519,1084.12 L 539.588,1084.12 L 548.656,1084.12 L 557.725,1084.12 L 566.794,1084.12 L 575.863,1084.12 L 584.931,1084.12 L 594,1084.12 L 603.069,1084.12 L 612.137,1084.12 L 621.206,1084.12 L 630.275,1084.12 L 639.344,1084.12 L 648.412,1084.12 L 657.481,1084.12 L 666.55,1084.12 L 675.618,1084.12 L 684.687,1084.12 L 693.756,1084.12 L 702.824,1084.12 L 711.893,1084.12 L 720.962,1084.12 L 730.031,1084.12 L 739.099,1084.12 L 748.168,1084.12 L 757.237,1084.12 L 766.305,1084.12 L 775.374,1084.12 L 784.443,1084.12 L 793.511,1084.12 L 802.58,1084.12 L 811.649,1084.12 L 820.718,1084.12 L 829.786,1084.12 L 838.855,1084.12 L 847.924,1084.12 L 856.992,1084.12 L 866.061,1084.12 L 875.13,1084.12 L 884.198,1084.12 L 893.267,1084.12 L 902.336,1084.12 L 911.405,1084.12 L 920.473,1084.12 L 929.542,1084.12 L 938.611,1084.12 L 947.679,1084.12 L 956.748,1084.12 L 965.817,1084.12 L 974.885,1084.12 L 983.954,1084.12 L 993.023,1084.12 L 1002.09,1084.12 L 1011.16,1084.12 L 1020.23,1084.12 L 1029.3,1084.12 L 1038.37,1084.12 L 1047.44,1084.12 L 1056.5,1084.12 L 1065.57,1084.12 L 1074.64,1084.12 L 1083.71,1084.12 L 1092.78,1084.12 L 1101.85,1084.12 L 1110.92,1084.12 L 1119.98,1084.12 L 1129.05,1084.12 L 1138.12,1084.12 L 1147.19,1084.12 L 1156.26,1084.12 L 1165.33,1084.12 L 1174.4,1084.12 L 1183.47,1084.12 L 1183.47,1075.05 L 1183.47,1065.98 L 1183.47,1056.92 L 1183.47,1047.85 L 1183.47,1038.78 L 1183.47,1029.71 L 1183.47,1020.64 L 1183.47,1011.57 L 1183.47,1002.5 L 1183.47,993.435 L 1183.47,984.366 L 1183.47,975.298 L 1183.47,966.229 L 1183.47,957.16 L 1183.47,948.092 L 1183.47,939.023 L 1183.47,929.954 L 1183.47,920.885 L 1183.47,911.817 L 1183.47,902.748 L 1183.47,893.679 L 1183.47,884.611 L 1183.47,875.542 L 1183.47,866.473 L 1183.47,857.405 L 1183.47,848.336 L 1183.47,839.267 L 1183.47,830.198 L 1183.47,821.13 L 1183.47,812.061 L 1183.47,802.992 L 1183.47,793.924 L 1183.47,784.855 L 1183.47,775.786 L 1183.47,766.718 L 1183.47,757.649 L 1183.47,748.58 L 1183.47,739.511 L 1183.47,730.443 L 1183.47,721.374 L 1183.47,712.305 L 1183.47,703.237 L 1183.47,694.168 L 1183.47,685.099 L 1183.47,676.031 L 1183.47,666.962 L 1183.47,657.893 L 1183.47,648.824 L 1183.47,639.756 L 1183.47,630.687 L 1183.47,621.618 L 1183.47,612.55 L 1183.47,603.481 L 1183.47,594.412 L 1183.47,585.344 L 1183.47,576.275 L 1183.47,567.206 L 1183.47,558.137 L 1183.47,549.069 L 1183.47,540 L 1183.47,530.931 L 1183.47,521.863 L 1183.47,512.794 L 1183.47,503.725 L 1183.47,494.656 L 1183.47,485.588 L 1183.47,476.519 L 1183.47,467.45 L 1183.47,458.382 L 1183.47,449.313 L 1183.47,440.244 L 1183.47,431.176 L 1183.47,422.107 L 1183.47,413.038 L 1183.47,403.969 L 1183.47,394.901 L 1183.47,385.832 L 1183.47,376.763 L 1183.47,367.695 L 1183.47,358.626 L 1183.47,349.557 L 1183.47,340.489 L 1183.47,331.42 L 1183.47,322.351 L 1183.47,313.282 L 1183.47,304.214 L 1183.47,295.145 L 1183.47,286.076 L 1183.47,277.008 L 1183.47,267.939 L 1183.47,258.87 L 1183.47,249.802 L 1183.47,240.733 L 1183.47,231.664 L 1183.47,222.595 L 1183.47,213.527 L 1183.47,204.458 L 1183.47,195.389 L 1183.47,186.321 L 1183.47,177.252 L 1183.47,168.183 L 1183.47,159.115 L 1183.47,150.046 L 1183.47,140.977 L 1183.47,131.908 L 1183.47,122.84 L 1183.47,113.771 L 1183.47,104.702 L 1183.47,95.6336 L 1183.47,86.5649 L 1183.47,77.4962 L 1183.47,68.4275 L 1183.47,59.3588 L 1183.47,50.2901 L 1183.47,41.2214 L 1183.47,32.1527 L 1183.47,23.084 L 1183.47,14.0153 L 1183.47,4.94656M 775.374,14.0153 L 784.443,23.084 L 793.511,23.084 L 802.58,23.084 L 811.649,32.1527 L 820.718,41.2214 L 820.718,50.2901 L 820.718,59.3588 L 829.786,59.3588 L 838.855,68.4275 L 838.855,77.4962 L 838.855,86.5649 L 838.855,95.6336 L 847.924,95.6336 L 856.992,95.6336 L 847.924,95.6336 L 838.855,86.5649 L 838.855,77.4962 L 838.855,68.4275 L 838.855,59.3588 L 847.924,50.2901 L 856.992,41.2214 L 866.061,41.2214 L 875.13,41.2214 L 884.198,41.2214 L 893.267,41.2214 L 902.336,41.2214 L 911.405,41.2214 L 920.473,50.2901 L 929.542,50.2901 L 938.611,59.3588 L 947.679,59.3588 L 956.748,59.3588 L 965.817,59.3588 L 974.885,68.4275 L 983.954,77.4962 L 974.885,86.5649 L 974.885,95.6336 L 983.954,104.702 L 993.023,113.771 L 983.954,122.84 L 974.885,122.84 L 965.817,122.84 L 965.817,131.908 L 974.885,140.977 L 983.954,150.046 L 983.954,159.115 L 983.954,168.183 L 993.023,168.183 L 1002.09,159.115 L 1011.16,150.046 L 1020.23,150.046 L 1029.3,150.046 L 1038.37,140.977 L 1047.44,131.908 L 1056.5,122.84 L 1065.57,113.771 L 1074.64,113.771 L 1083.71,122.84 L 1092.78,131.908 L 1101.85,140.977 L 1110.92,150.046 L 1119.98,159.115 L 1129.05,168.183 L 1138.12,177.252 L 1147.19,186.321 L 1156.26,195.389 L 1147.19,204.458 L 1147.19,213.527 L 1147.19,222.595 L 1156.26,231.664 L 1156.26,240.733 L 1156.26,249.802 L 1156.26,258.87 L 1156.26,267.939 L 1156.26,277.008 L 1147.19,286.076 L 1147.19,295.145 L 1147.19,304.214 L 1147.19,313.282 L 1147.19,322.351 L 1138.12,331.42 L 1129.05,340.489 L 1119.98,340.489 L 1110.92,340.489 L 1101.85,349.557 L 1092.78,358.626 L 1083.71,358.626 L 1074.64,358.626 L 1074.64,367.695 L 1083.71,376.763 L 1092.78,385.832 L 1092.78,394.901 L 1083.71,403.969 L 1074.64,413.038 L 1074.64,422.107 L 1083.71,431.176 L 1092.78,440.244 L 1101.85,449.313 L 1110.92,458.382 L 1119.98,467.45 L 1119.98,476.519 L 1119.98,485.588 L 1119.98,494.656 L 1119.98,503.725 L 1129.05,512.794 L 1129.05,521.863 L 1129.05,530.931 L 1129.05,540 L 1119.98,549.069 L 1110.92,558.137 L 1101.85,567.206 L 1092.78,567.206 L 1083.71,567.206 L 1074.64,567.206 L 1074.64,576.275 L 1065.57,585.344 L 1056.5,585.344 L 1056.5,594.412 L 1047.44,603.481 L 1038.37,594.412 L 1029.3,594.412 L 1020.23,585.344 L 1011.16,585.344 L 1011.16,594.412 L 1002.09,603.481 L 993.023,603.481 L 983.954,603.481 L 974.885,603.481 L 965.817,603.481 L 956.748,603.481 L 947.679,603.481 L 938.611,603.481 L 929.542,603.481 L 920.473,612.55 L 911.405,621.618 L 911.405,630.687 L 911.405,639.756 L 902.336,648.824 L 911.405,657.893 L 911.405,666.962 L 920.473,676.031 L 929.542,685.099 L 929.542,694.168 L 938.611,694.168 L 947.679,694.168 L 956.748,694.168 L 956.748,685.099 L 965.817,676.031 L 965.817,666.962 L 965.817,657.893 L 965.817,648.824 L 974.885,639.756 L 983.954,630.687 L 993.023,621.618 L 1002.09,621.618 L 1011.16,621.618 L 1020.23,612.55 L 1029.3,603.481 L 1038.37,603.481 L 1047.44,603.481 L 1056.5,603.481 L 1065.57,612.55 L 1074.64,621.618 L 1083.71,630.687 L 1092.78,621.618 L 1101.85,630.687 L 1110.92,630.687 L 1119.98,630.687 L 1129.05,630.687 L 1138.12,639.756 L 1138.12,648.824 L 1147.19,657.893 L 1156.26,666.962 L 1156.26,676.031 L 1156.26,685.099 L 1156.26,694.168 L 1165.33,703.237 L 1165.33,712.305 L 1174.4,721.374 L 1183.47,730.443 L 1183.47,739.511 L 1183.47,748.58 L 1174.4,757.649 L 1174.4,766.718 L 1174.4,775.786 L 1174.4,784.855 L 1165.33,793.924 L 1165.33,802.992 L 1165.33,812.061 L 1165.33,821.13 L 1165.33,830.198 L 1156.26,839.267 L 1147.19,848.336 L 1138.12,839.267 L 1129.05,839.267 L 1119.98,839.267 L 1110.92,839.267 L 1101.85,848.336 L 1092.78,857.405 L 1083.71,857.405 L 1074.64,857.405 L 1065.57,857.405 L 1056.5,857.405 L 1047.44,857.405 L 1038.37,857.405 L 1029.3,857.405 L 1020.23,848.336 L 1020.23,839.267 L 1020.23,830.198 L 1020.23,821.13 L 1011.16,830.198 L 1002.09,839.267 L 1002.09,848.336 L 1002.09,857.405 L 1011.16,857.405 L 1020.23,857.405 L 1029.3,857.405 L 1038.37,857.405 L 1047.44,857.405 L 1056.5,857.405 L 1065.57,857.405 L 1074.64,857.405 L 1083.71,857.405 L 1092.78,857.405 L 1101.85,857.405 L 1110.92,848.336 L 1119.98,839.267 L 1129.05,839.267 L 1138.12,848.336 L 1147.19,857.405 L 1156.26,866.473 L 1165.33,875.542 L 1174.4,884.611 L 1183.47,893.679 L 1183.47,902.748 L 1183.47,911.817 L 1183.47,920.885 L 1174.4,929.954 L 1165.33,939.023 L 1165.33,948.092 L 1165.33,957.16 L 1165.33,966.229 L 1174.4,975.298 L 1183.47,984.366 L 1183.47,993.435 L 1183.47,1002.5 L 1183.47,1011.57 L 1183.47,1020.64 L 1183.47,1029.71 L 1174.4,1038.78 L 1165.33,1047.85 L 1156.26,1056.92 L 1147.19,1065.98 L 1138.12,1075.05 L 1129.05,1084.12 L 1119.98,1084.12 L 1110.92,1075.05 L 1101.85,1065.98 L 1092.78,1065.98 L 1083.71,1065.98 L 1074.64,1065.98 L 1065.57,1075.05 L 1056.5,1084.12 L 1047.44,1084.12 L 1038.37,1084.12 L 1029.3,1084.12 L 1020.23,1075.05 L 1011.16,1065.98 L 1002.09,1065.98 L 993.023,1065.98 L 983.954,1065.98 L 974.885,1075.05 L 965.817,1084.12 L 956.748,1084.12 L 947.679,1075.05 L 938.611,1065.98 L 929.542,1065.98 L 920.473,1065.98 L 911.405,1056.92 L 902.336,1047.85 L 902.336,1038.78 L 902.336,1029.71 L 893.267,1020.64 L 884.198,1011.57 L 875.13,1002.5 L 866.061,993.435 L 866.061,984.366 L 866.061,975.298 L 866.061,966.229 L 875.13,957.16 L 884.198,948.092 L 884.198,939.023 L 884.198,929.954 L 893.267,920.885 L 902.336,911.817 L 902.336,902.748 L 902.336,893.679 L 902.336,884.611 L 893.267,875.542 L 884.198,866.473 L 884.198,857.405 L 893.267,848.336 L 902.336,839.267 L 911.405,830.198 L 920.473,821.13 L 929.542,812.061 L 938.611,802.992 L 947.679,802.992 L 956.748,812.061 L 965.817,821.13 L 974.885,821.13 L 983.954,821.13 L 993.023,812.061 L 1002.09,802.992 L 993.023,802.992 L 983.954,802.992 L 974.885,802.992 L 965.817,802.992 L 956.748,793.924 L 947.679,793.924 L 938.611,793.924 L 929.542,793.924 L 920.473,802.992 L 911.405,802.992 L 902.336,812.061 L 893.267,812.061 L 884.198,812.061 L 875.13,812.061 L 866.061,812.061 L 856.992,821.13 L 847.924,830.198 L 856.992,839.267 L 856.992,848.336 L 866.061,857.405 L 875.13,866.473 L 875.13,875.542 L 866.061,884.611 L 866.061,893.679 L 866.061,902.748 L 856.992,911.817 L 866.061,920.885 L 856.992,929.954 L 856.992,939.023 L 856.992,948.092 L 847.924,957.16 L 838.855,966.229 L 829.786,966.229 L 838.855,975.298 L 838.855,984.366 L 838.855,993.435 L 838.855,1002.5 L 829.786,1011.57 L 820.718,1020.64 L 811.649,1029.71 L 802.58,1029.71 L 793.511,1029.71 L 784.443,1029.71 L 775.374,1029.71 L 766.305,1029.71 L 757.237,1029.71 L 748.168,1029.71 L 739.099,1029.71 L 730.031,1020.64 L 720.962,1020.64 L 711.893,1020.64 L 702.824,1011.57 L 693.756,1011.57 L 684.687,1011.57 L 675.618,1002.5 L 666.55,993.435 L 666.55,984.366 L 666.55,975.298 L 657.481,966.229 L 657.481,957.16 L 648.412,948.092 L 657.481,939.023 L 666.55,929.954 L 666.55,920.885 L 657.481,911.817 L 666.55,902.748 L 675.618,893.679 L 675.618,884.611 L 666.55,875.542 L 657.481,866.473 L 648.412,857.405 L 639.344,857.405 L 630.275,866.473 L 621.206,875.542 L 612.137,875.542 L 603.069,875.542 L 594,875.542 L 584.931,875.542 L 575.863,884.611 L 566.794,893.679 L 566.794,902.748 L 566.794,911.817 L 575.863,920.885 L 584.931,929.954 L 594,939.023 L 603.069,948.092 L 603.069,957.16 L 594,966.229 L 584.931,975.298 L 584.931,984.366 L 594,993.435 L 603.069,1002.5 L 603.069,1011.57 L 594,1020.64 L 584.931,1029.71 L 575.863,1029.71 L 566.794,1029.71 L 566.794,1038.78 L 566.794,1047.85 L 557.725,1056.92 L 548.656,1065.98 L 539.588,1065.98 L 530.519,1065.98 L 521.45,1075.05 L 512.382,1084.12 L 503.313,1084.12 L 494.244,1075.05 L 485.176,1065.98 L 476.107,1065.98 L 467.038,1065.98 L 457.969,1065.98 L 448.901,1075.05 L 439.832,1084.12 L 430.763,1084.12 L 421.695,1084.12 L 412.626,1084.12 L 403.557,1075.05 L 394.489,1065.98 L 385.42,1065.98 L 376.351,1065.98 L 367.282,1056.92 L 358.214,1047.85 L 358.214,1038.78 L 358.214,1029.71 L 349.145,1020.64 L 340.076,1011.57 L 340.076,1002.5 L 340.076,993.435 L 331.008,993.435 L 321.939,993.435 L 331.008,993.435 L 340.076,1002.5 L 340.076,1011.57 L 340.076,1020.64 L 340.076,1029.71 L 331.008,1038.78 L 321.939,1047.85 L 312.87,1047.85 L 303.802,1047.85 L 294.733,1047.85 L 285.664,1047.85 L 276.595,1047.85 L 267.527,1047.85 L 258.458,1038.78 L 249.389,1038.78 L 240.321,1029.71 L 231.252,1029.71 L 222.183,1029.71 L 213.115,1029.71 L 204.046,1020.64 L 194.977,1011.57 L 204.046,1002.5 L 204.046,993.435 L 194.977,984.366 L 185.908,975.298 L 194.977,966.229 L 204.046,966.229 L 213.115,966.229 L 213.115,957.16 L 204.046,948.092 L 194.977,939.023 L 194.977,929.954 L 194.977,920.885 L 185.908,920.885 L 176.84,929.954 L 167.771,939.023 L 158.702,939.023 L 149.634,939.023 L 140.565,948.092 L 131.496,957.16 L 122.427,966.229 L 113.359,975.298 L 104.29,975.298 L 95.2214,966.229 L 86.1527,957.16 L 77.084,948.092 L 68.0153,939.023 L 58.9466,929.954 L 49.8779,920.885 L 40.8092,911.817 L 31.7405,902.748 L 22.6718,893.679 L 31.7405,884.611 L 31.7405,875.542 L 31.7405,866.473 L 22.6718,857.405 L 22.6718,848.336 L 22.6718,839.267 L 22.6718,830.198 L 22.6718,821.13 L 22.6718,812.061 L 31.7405,802.992 L 31.7405,793.924 L 31.7405,784.855 L 31.7405,775.786 L 31.7405,766.718 L 40.8092,757.649 L 49.8779,748.58 L 58.9466,748.58 L 68.0153,748.58 L 77.084,739.511 L 86.1527,730.443 L 95.2214,730.443 L 104.29,730.443 L 104.29,721.374 L 95.2214,712.305 L 86.1527,703.237 L 86.1527,694.168 L 95.2214,685.099 L 104.29,676.031 L 104.29,666.962 L 95.2214,657.893 L 86.1527,648.824 L 77.084,639.756 L 68.0153,630.687 L 58.9466,621.618 L 58.9466,612.55 L 58.9466,603.481 L 58.9466,594.412 L 58.9466,585.344 L 49.8779,576.275 L 49.8779,567.206 L 49.8779,558.137 L 49.8779,549.069 L 58.9466,540 L 68.0153,530.931 L 77.084,521.863 L 86.1527,521.863 L 95.2214,521.863 L 104.29,521.863 L 104.29,512.794 L 113.359,503.725 L 122.427,503.725 L 122.427,494.656 L 131.496,485.588 L 140.565,494.656 L 149.634,494.656 L 158.702,503.725 L 167.771,503.725 L 167.771,494.656 L 176.84,485.588 L 185.908,485.588 L 194.977,485.588 L 204.046,485.588 L 213.115,485.588 L 222.183,485.588 L 231.252,485.588 L 240.321,485.588 L 249.389,485.588 L 258.458,476.519 L 267.527,467.45 L 267.527,458.382 L 267.527,449.313 L 276.595,440.244 L 267.527,431.176 L 267.527,422.107 L 258.458,413.038 L 249.389,403.969 L 249.389,394.901 L 240.321,394.901 L 231.252,394.901 L 222.183,394.901 L 222.183,403.969 L 213.115,413.038 L 213.115,422.107 L 213.115,431.176 L 213.115,440.244 L 204.046,449.313 L 194.977,458.382 L 185.908,467.45 L 176.84,467.45 L 167.771,467.45 L 158.702,476.519 L 149.634,485.588 L 140.565,485.588 L 131.496,485.588 L 122.427,485.588 L 113.359,476.519 L 104.29,467.45 L 95.2214,458.382 L 86.1527,467.45 L 77.084,458.382 L 68.0153,458.382 L 58.9466,458.382 L 49.8779,458.382 L 40.8092,449.313 L 40.8092,440.244 L 31.7405,431.176 L 22.6718,422.107 L 22.6718,413.038 L 22.6718,403.969 L 22.6718,394.901 L 13.6031,385.832 L 13.6031,376.763 L 4.53435,367.695 L -4.53435,358.626 L -4.53435,349.557 L -4.53435,340.489 L 4.53435,331.42 L 4.53435,322.351 L 4.53435,313.282 L 4.53435,304.214 L 13.6031,295.145 L 13.6031,286.076 L 13.6031,277.008 L 13.6031,267.939 L 13.6031,258.87 L 22.6718,249.802 L 31.7405,240.733 L 40.8092,249.802 L 49.8779,249.802 L 58.9466,249.802 L 68.0153,249.802 L 77.084,240.733 L 86.1527,231.664 L 95.2214,231.664 L 104.29,231.664 L 113.359,231.664 L 122.427,231.664 L 131.496,231.664 L 140.565,231.664 L 149.634,231.664 L 158.702,240.733 L 158.702,249.802 L 158.702,258.87 L 158.702,267.939 L 167.771,258.87 L 176.84,249.802 L 176.84,240.733 L 176.84,231.664 L 167.771,231.664 L 158.702,231.664 L 149.634,231.664 L 140.565,231.664 L 131.496,231.664 L 122.427,231.664 L 113.359,231.664 L 104.29,231.664 L 95.2214,231.664 L 86.1527,231.664 L 77.084,231.664 L 68.0153,240.733 L 58.9466,249.802 L 49.8779,249.802 L 40.8092,240.733 L 31.7405,231.664 L 22.6718,222.595 L 13.6031,213.527 L 4.53435,204.458 L -4.53435,195.389 L -4.53435,186.321 L -4.53435,177.252 L -4.53435,168.183 L 4.53435,159.115 L 13.6031,150.046 L 13.6031,140.977 L 13.6031,131.908 L 13.6031,122.84 L 4.53435,113.771 L -4.53435,104.702 L -4.53435,95.6336 L -4.53435,86.5649 L -4.53435,77.4962 L -4.53435,68.4275 L -4.53435,59.3588 L 4.53435,50.2901 L 13.6031,41.2214 L 22.6718,32.1527 L 31.7405,23.084 L 40.8092,14.0153 L 49.8779,4.94656 L 58.9466,4.94656 L 68.0153,14.0153 L 77.084,23.084 L 86.1527,23.084 L 95.2214,23.084 L 104.29,23.084 L 113.359,14.0153 L 122.427,4.94656 L 131.496,4.94656 L 140.565,4.94656 L 149.634,4.94656 L 158.702,14.0153 L 167.771,23.084 L 176.84,23.084 L 185.908,23.084 L 194.977,23.084 L 204.046,14.0153 L 213.115,4.94656 L 222.183,4.94656 L 231.252,14.0153 L 240.321,23.084 L 249.389,23.084 L 258.458,23.084 L 267.527,32.1527 L 276.595,41.2214 L 276.595,50.2901 L 276.595,59.3588 L 285.664,68.4275 L 294.733,77.4962 L 303.802,86.5649 L 312.87,95.6336 L 312.87,104.702 L 312.87,113.771 L 312.87,122.84 L 303.802,131.908 L 294.733,140.977 L 294.733,150.046 L 294.733,159.115 L 285.664,168.183 L 276.595,177.252 L 276.595,186.321 L 276.595,195.389 L 276.595,204.458 L 285.664,213.527 L 294.733,222.595 L 294.733,231.664 L 285.664,240.733 L 276.595,249.802 L 267.527,258.87 L 258.458,267.939 L 249.389,277.008 L 240.321,286.076 L 231.252,286.076 L 222.183,277.008 L 213.115,267.939 L 204.046,267.939 L 194.977,267.939 L 185.908,277.008 L 176.84,286.076 L 185.908,286.076 L 194.977,286.076 L 204.046,286.076 L 213.115,286.076 L 222.183,295.145 L 231.252,295.145 L 240.321,295.145 L 249.389,295.145 L 258.458,286.076 L 267.527,286.076 L 276.595,277.008 L 285.664,277.008 L 294.733,277.008 L 303.802,277.008 L 312.87,277.008 L 321.939,267.939 L 331.008,258.87 L 321.939,249.802 L 321.939,240.733 L 312.87,231.664 L 303.802,222.595 L 303.802,213.527 L 312.87,204.458 L 312.87,195.389 L 312.87,186.321 L 321.939,177.252 L 312.87,168.183 L 321.939,159.115 L 321.939,150.046 L 321.939,140.977 L 331.008,131.908 L 340.076,122.84 L 349.145,122.84 L 340.076,113.771 L 340.076,104.702 L 340.076,95.6336 L 340.076,86.5649 L 349.145,77.4962 L 358.214,68.4275 L 367.282,59.3588 L 376.351,59.3588 L 385.42,59.3588 L 394.489,59.3588 L 403.557,59.3588 L 412.626,59.3588 L 421.695,59.3588 L 430.763,59.3588 L 439.832,59.3588 L 448.901,68.4275 L 457.969,68.4275 L 467.038,68.4275 L 476.107,77.4962 L 485.176,77.4962 L 494.244,77.4962 L 503.313,86.5649 L 512.382,95.6336 L 512.382,104.702 L 512.382,113.771 L 521.45,122.84 L 521.45,131.908 L 530.519,140.977 L 521.45,150.046 L 512.382,159.115 L 512.382,168.183 L 521.45,177.252 L 512.382,186.321 L 503.313,195.389 L 503.313,204.458 L 512.382,213.527 L 521.45,222.595 L 530.519,231.664 L 539.588,231.664 L 548.656,222.595 L 557.725,213.527 L 566.794,213.527 L 575.863,213.527 L 584.931,213.527 L 594,213.527 L 603.069,204.458 L 612.137,195.389 L 612.137,186.321 L 612.137,177.252 L 603.069,168.183 L 594,159.115 L 584.931,150.046 L 575.863,140.977 L 575.863,131.908 L 584.931,122.84 L 594,113.771 L 594,104.702 L 584.931,95.6336 L 575.863,86.5649 L 575.863,77.4962 L 584.931,68.4275 L 594,59.3588 L 603.069,59.3588 L 612.137,59.3588 L 612.137,50.2901 L 612.137,41.2214 L 621.206,32.1527 L 630.275,23.084 L 639.344,23.084 L 648.412,23.084 L 657.481,14.0153 L 666.55,4.94656 L 675.618,4.94656 L 684.687,14.0153 L 693.756,23.084 L 702.824,23.084 L 711.893,23.084 L 720.962,23.084 L 730.031,14.0153 L 739.099,4.94656 L 748.168,4.94656 L 757.237,4.94656 L 766.305,4.94656 L 775.374,14.0153 z " style="fill-opacity:0.5;fill:rgb(253,0,0);stroke:rgb(253,0,0);stroke-width:2"/></g>
<g fill-rule="evenodd"><path d="M -4.53435,1084.12 L -4.53435,4.94656 L 1183.47,4.94656 L 1183.47,1084.12 L -4.53435,1084.12M 104.29,975.298 L 194.977,920.885 L 213.115,966.229 L 185.908,975.298 L 213.115,1029.71 L 321.939,1047.85 L 340.076,1029.71 L 340.076,1002.5 L 321.939,993.435 L 340.076,993.435 L 376.351,1065.98 L 412.626,1084.12 L 485.176,1065.98 L 512.382,1084.12 L 603.069,1011.57 L 584.931,984.366 L 603.069,948.092 L 566.794,911.817 L 566.794,893.679 L 584.931,875.542 L 621.206,875.542 L 648.412,857.405 L 675.618,884.611 L 657.481,911.817 L 666.55,929.954 L 648.412,948.092 L 666.55,993.435 L 739.099,1029.71 L 811.649,1029.71 L 838.855,1002.5 L 829.786,966.229 L 856.992,948.092 L 875.13,875.542 L 847.924,830.198 L 866.061,812.061 L 956.748,793.924 L 1002.09,802.992 L 983.954,821.13 L 938.611,802.992 L 884.198,857.405 L 902.336,911.817 L 866.061,966.229 L 866.061,993.435 L 902.336,1029.71 L 902.336,1047.85 L 956.748,1084.12 L 983.954,1065.98 L 1011.16,1065.98 L 1029.3,1084.12 L 1101.85,1065.98 L 1129.05,1084.12 L 1183.47,1029.71 L 1183.47,984.366 L 1165.33,966.229 L 1183.47,893.679 L 1129.05,839.267 L 1101.85,857.405 L 1002.09,857.405 L 1002.09,839.267 L 1020.23,821.13 L 1029.3,857.405 L 1092.78,857.405 L 1110.92,839.267 L 1147.19,848.336 L 1165.33,830.198 L 1183.47,730.443 L 1156.26,694.168 L 1156.26,666.962 L 1129.05,630.687 L 1083.71,630.687 L 1056.5,603.481 L 993.023,621.618 L 965.817,648.824 L 956.748,694.168 L 929.542,694.168 L 902.336,648.824 L 929.542,603.481 L 1002.09,603.481 L 1011.16,585.344 L 1047.44,603.481 L 1074.64,567.206 L 1101.85,567.206 L 1129.05,540 L 1119.98,467.45 L 1074.64,422.107 L 1092.78,394.901 L 1074.64,358.626 L 1147.19,322.351 L 1156.26,195.389 L 1074.64,113.771 L 983.954,168.183 L 965.817,122.84 L 993.023,113.771 L 965.817,59.3588 L 856.992,41.2214 L 838.855,59.3588 L 838.855,86.5649 L 856.992,95.6336 L 838.855,95.6336 L 838.855,68.4275 L 802.58,23.084 L 766.305,4.94656 L 693.756,23.084 L 666.55,4.94656 L 575.863,77.4962 L 594,104.702 L 575.863,140.977 L 612.137,177.252 L 594,213.527 L 557.725,213.527 L 530.519,231.664 L 503.313,204.458 L 521.45,177.252 L 512.382,159.115 L 530.519,140.977 L 494.244,77.4962 L 439.832,59.3588 L 367.282,59.3588 L 340.076,86.5649 L 349.145,122.84 L 321.939,140.977 L 303.802,213.527 L 331.008,258.87 L 312.87,277.008 L 222.183,295.145 L 176.84,286.076 L 194.977,267.939 L 240.321,286.076 L 294.733,231.664 L 276.595,177.252 L 312.87,122.84 L 312.87,95.6336 L 276.595,59.3588 L 276.595,41.2214 L 222.183,4.94656 L 194.977,23.084 L 167.771,23.084 L 149.634,4.94656 L 77.084,23.084 L 49.8779,4.94656 L -4.53435,59.3588 L -4.53435,104.702 L 13.6031,122.84 L -4.53435,195.389 L 49.8779,249.802 L 77.084,231.664 L 176.84,231.664 L 176.84,249.802 L 158.702,267.939 L 149.634,231.664 L 86.1527,231.664 L 68.0153,249.802 L 31.7405,240.733 L 13.6031,258.87 L -4.53435,358.626 L 22.6718,394.901 L 22.6718,422.107 L 49.8779,458.382 L 95.2214,458.382 L 122.427,485.588 L 185.908,467.45 L 213.115,440.244 L 222.183,394.901 L 249.389,394.901 L 276.595,440.244 L 249.389,485.588 L 176.84,485.588 L 167.771,503.725 L 131.496,485.588 L 104.29,521.863 L 77.084,521.863 L 49.8779,549.069 L 58.9466,621.618 L 104.29,666.962 L 86.1527,694.168 L 104.29,730.443 L 31.7405,766.718 L 22.6718,893.679 L 104.29,975.298 z " style="fill-opacity:0.5;fill:rgb(0,253,0);stroke:rgb(0,0,0);stroke-width:5"/></g>
<g fill-rule="evenodd"><path d="M 884.198,177.252 L 875.13,177.252 L 866.061,177.252 L 856.992,177.252 L 847.924,177.252 L 838.855,177.252 L 829.786,186.321 L 829.786,195.389 L 820.718,204.458 L 811.649,213.527 L 811.649,222.595 L 820.718,231.664 L 829.786,240.733 L 838.855,240.733 L 847.924,249.802 L 847.924,258.87 L 856.992,258.87 L 866.061,258.87 L 875.13,258.87 L 884.198,249.802 L 893.267,240.733 L 884.198,231.664 L 893.267,222.595 L 893.267,213.527 L 902.336,204.458 L 902.336,195.389 L 893.267,186.321 L 884.198,177.252 z " style="fill-opacity:0.5;fill:rgb(253,0,0);stroke:rgb(253,0,0);stroke-width:2"/></g>
<g fill-rule="evenodd"><path d="M 847.924,258.87 L 811.649,213.527 L 838.855,177.252 L 884.198,177.252 L 902.336,195.389 L 884.198,231.664 L 893.267,240.733 L 875.13,258.87 L 847.924,258.87 z " style="fill-opacity:0.5;fill:rgb(0,253,0);stroke:rgb(0,0,0);stroke-width:5"/></g>
<g fill-rule="evenodd"><path d="M 303.802,204.458 L 294.733,204.458 L 285.664,204.458 L 276.595,195.389 L 276.595,186.321 L 285.664,177.252 L 294.733,186.321 L 303.802,186.321 L 312.87,195.389 L 303.802,204.458 z " style="fill-opacity:0.5;fill:rgb(253,0,0);stroke:rgb(253,0,0);stroke-width:2"/></g>
<g fill-rule="evenodd"><path d="M 276.595,186.321 L 285.664,177.252 L 312.87,195.389 L 285.664,204.458 L 276.595,186.321 z " style="fill-opacity:0.5;fill:rgb(0,253,0);stroke:rgb(0,0,0);stroke-width:5"/></g>
<g fill-rule="evenodd"><path d="M 720.962,240.733 L 711.893,240.733 L 702.824,240.733 L 693.756,240.733 L 684.687,249.802 L 675.618,249.802 L 666.55,249.802 L 657.481,258.87 L 648.412,267.939 L 648.412,277.008 L 648.412,286.076 L 657.481,295.145 L 657.481,304.214 L 657.481,313.282 L 648.412,322.351 L 648.412,331.42 L 639.344,340.489 L 630.275,349.557 L 639.344,358.626 L 648.412,367.695 L 657.481,367.695 L 666.55,376.763 L 675.618,385.832 L 684.687,394.901 L 693.756,394.901 L 702.824,394.901 L 711.893,385.832 L 711.893,376.763 L 702.824,367.695 L 693.756,367.695 L 684.687,358.626 L 675.618,349.557 L 675.618,340.489 L 684.687,331.42 L 684.687,322.351 L 684.687,313.282 L 693.756,304.214 L 702.824,295.145 L 711.893,295.145 L 720.962,286.076 L 730.031,277.008 L 730.031,267.939 L 730.031,258.87 L 730.031,249.802 L 720.962,240.733 z " style="fill-opacity:0.5;fill:rgb(253,0,0);stroke:rgb(253,0,0);stroke-width:2"/></g>
<g fill-rule="evenodd"><path d="M 684.687,394.901 L 630.275,349.557 L 657.481,313.282 L 648.412,267.939 L 666.55,249.802 L 720.962,240.733 L 730.031,277.008 L 684.687,313.282 L 675.618,340.489 L 711.893,385.832 L 684.687,394.901 z " style="fill-opacity:0.5;fill:rgb(0,253,0);stroke:rgb(0,0,0);stroke-width:5"/></g>
<g fill-rule="evenodd"><path d="M 448.901,267.939 L 439.832,267.939 L 430.763,277.008 L 421.695,286.076 L 412.626,295.145 L 403.557,304.214 L 394.489,304.214 L 385.42,304.214 L 376.351,304.214 L 367.282,295.145 L 358.214,304.214 L 349.145,313.282 L 349.145,322.351 L 349.145,331.42 L 358.214,340.489 L 358.214,349.557 L 358.214,358.626 L 358.214,367.695 L 367.282,376.763 L 376.351,376.763 L 385.42,376.763 L 394.489,376.763 L 403.557,367.695 L 403.557,358.626 L 412.626,349.557 L 421.695,349.557 L 430.763,358.626 L 439.832,367.695 L 448.901,367.695 L 457.969,367.695 L 467.038,358.626 L 476.107,349.557 L 467.038,340.489 L 467.038,331.42 L 467.038,322.351 L 467.038,313.282 L 467.038,304.214 L 467.038,295.145 L 467.038,286.076 L 457.969,277.008 L 448.901,267.939 z " style="fill-opacity:0.5;fill:rgb(253,0,0);stroke:rgb(253,0,0);stroke-width:2"/></g>
<g fill-rule="evenodd"><path d="M 367.282,376.763 L 349.145,313.282 L 367.282,295.145 L 403.557,304.214 L 448.901,267.939 L 467.038,286.076 L 476.107,349.557 L 457.969,367.695 L 412.626,349.557 L 394.489,376.763 L 367.282,376.763 z " style="fill-opacity:0.5;fill:rgb(0,253,0);stroke:rgb(0,0,0);stroke-width:5"/></g>
<g fill-rule="evenodd"><path d="M 947.679,295.145 L 938.611,304.214 L 929.542,313.282 L 929.542,322.351 L 929.542,331.42 L 929.542,340.489 L 929.542,349.557 L 938.611,358.626 L 938.611,367.695 L 929.542,376.763 L 920.473,385.832 L 911.405,394.901 L 902.336,394.901 L 893.267,394.901 L 893.267,403.969 L 893.267,413.038 L 902.336,422.107 L 911.405,431.176 L 920.473,422.107 L 929.542,422.107 L 938.611,422.107 L 947.679,431.176 L 956.748,431.176 L 965.817,422.107 L 965.817,413.038 L 965.817,403.969 L 974.885,394.901 L 974.885,385.832 L 983.954,376.763 L 974.885,367.695 L 974.885,358.626 L 965.817,349.557 L 965.817,340.489 L 956.748,331.42 L 947.679,322.351 L 947.679,313.282 L 947.679,304.214 L 947.679,295.145 z " style="fill-opacity:0.5;fill:rgb(253,0,0);stroke:rgb(253,0,0);stroke-width:2"/></g>
<g fill-rule="evenodd"><path d="M 911.405,431.176 L 893.267,394.901 L 911.405,394.901 L 938.611,367.695 L 929.542,313.282 L 947.679,295.145 L 947.679,322.351 L 983.954,376.763 L 956.748,431.176 L 911.405,431.176 z " style="fill-opacity:0.5;fill:rgb(0,253,0);stroke:rgb(0,0,0);stroke-width:5"/></g>
<g fill-rule="evenodd"><path d="M 575.863,403.969 L 566.794,413.038 L 557.725,422.107 L 548.656,422.107 L 539.588,413.038 L 530.519,403.969 L 521.45,413.038 L 512.382,422.107 L 512.382,431.176 L 512.382,440.244 L 512.382,449.313 L 512.382,458.382 L 521.45,467.45 L 530.519,476.519 L 530.519,485.588 L 521.45,494.656 L 512.382,503.725 L 512.382,512.794 L 512.382,521.863 L 512.382,530.931 L 521.45,530.931 L 530.519,530.931 L 539.588,530.931 L 548.656,540 L 557.725,540 L 566.794,540 L 575.863,540 L 584.931,530.931 L 584.931,521.863 L 584.931,512.794 L 584.931,503.725 L 575.863,494.656 L 575.863,485.588 L 575.863,476.519 L 575.863,467.45 L 575.863,458.382 L 584.931,449.313 L 594,440.244 L 594,431.176 L 594,422.107 L 584.931,413.038 L 575.863,403.969 z " style="fill-opacity:0.5;fill:rgb(253,0,0);stroke:rgb(253,0,0);stroke-width:2"/></g>
<g fill-rule="evenodd"><path d="M 512.382,530.931 L 512.382,503.725 L 530.519,485.588 L 512.382,458.382 L 512.382,422.107 L 530.519,403.969 L 548.656,422.107 L 575.863,403.969 L 594,422.107 L 575.863,458.382 L 584.931,530.931 L 512.382,530.931 z " style="fill-opacity:0.5;fill:rgb(0,253,0);stroke:rgb(0,0,0);stroke-width:5"/></g>
<g fill-rule="evenodd"><path d="M 884.198,440.244 L 875.13,440.244 L 866.061,440.244 L 856.992,440.244 L 847.924,449.313 L 847.924,458.382 L 838.855,467.45 L 829.786,467.45 L 820.718,467.45 L 811.649,476.519 L 802.58,485.588 L 793.511,485.588 L 784.443,476.519 L 775.374,467.45 L 766.305,467.45 L 757.237,467.45 L 748.168,467.45 L 748.168,476.519 L 757.237,485.588 L 766.305,494.656 L 775.374,503.725 L 766.305,512.794 L 757.237,521.863 L 757.237,530.931 L 757.237,540 L 757.237,549.069 L 766.305,558.137 L 775.374,558.137 L 784.443,558.137 L 793.511,558.137 L 802.58,558.137 L 811.649,549.069 L 820.718,549.069 L 829.786,558.137 L 838.855,567.206 L 847.924,567.206 L 856.992,567.206 L 866.061,558.137 L 875.13,549.069 L 866.061,540 L 856.992,540 L 847.924,530.931 L 847.924,521.863 L 838.855,512.794 L 838.855,503.725 L 847.924,494.656 L 856.992,485.588 L 866.061,485.588 L 875.13,476.519 L 884.198,467.45 L 893.267,458.382 L 893.267,449.313 L 884.198,440.244 z " style="fill-opacity:0.5;fill:rgb(253,0,0);stroke:rgb(253,0,0);stroke-width:2"/></g>
<g fill-rule="evenodd"><path d="M 757.237,549.069 L 757.237,521.863 L 775.374,503.725 L 748.168,467.45 L 802.58,485.588 L 838.855,467.45 L 856.992,440.244 L 893.267,449.313 L 838.855,503.725 L 847.924,530.931 L 875.13,549.069 L 856.992,567.206 L 820.718,549.069 L 757.237,549.069 z " style="fill-opacity:0.5;fill:rgb(0,253,0);stroke:rgb(0,0,0);stroke-width:5"/></g>
<g fill-rule="evenodd"><path d="M 340.076,521.863 L 331.008,521.863 L 321.939,521.863 L 312.87,530.931 L 303.802,540 L 312.87,549.069 L 321.939,549.069 L 331.008,558.137 L 331.008,567.206 L 340.076,576.275 L 340.076,585.344 L 331.008,594.412 L 321.939,603.481 L 312.87,603.481 L 303.802,612.55 L 294.733,621.618 L 285.664,630.687 L 285.664,639.756 L 294.733,648.824 L 303.802,648.824 L 312.87,648.824 L 321.939,648.824 L 331.008,639.756 L 331.008,630.687 L 340.076,621.618 L 349.145,621.618 L 358.214,621.618 L 367.282,612.55 L 376.351,603.481 L 385.42,603.481 L 394.489,612.55 L 403.557,621.618 L 412.626,621.618 L 421.695,621.618 L 430.763,621.618 L 430.763,612.55 L 421.695,603.481 L 412.626,594.412 L 403.557,585.344 L 412.626,576.275 L 421.695,567.206 L 421.695,558.137 L 421.695,549.069 L 421.695,540 L 412.626,530.931 L 403.557,530.931 L 394.489,530.931 L 385.42,530.931 L 376.351,530.931 L 367.282,540 L 358.214,540 L 349.145,530.931 L 340.076,521.863 z " style="fill-opacity:0.5;fill:rgb(253,0,0);stroke:rgb(253,0,0);stroke-width:2"/></g>
<g fill-rule="evenodd"><path d="M 430.763,621.618 L 376.351,603.481 L 340.076,621.618 L 321.939,648.824 L 294.733,648.824 L 285.664,630.687 L 340.076,585.344 L 331.008,558.137 L 303.802,540 L 321.939,521.863 L 358.214,540 L 412.626,530.931 L 421.695,567.206 L 403.557,585.344 L 430.763,621.618 z " style="fill-opacity:0.5;fill:rgb(0,253,0);stroke:rgb(0,0,0);stroke-width:5"/></g>
<g fill-rule="evenodd"><path d="M 630.275,549.069 L 621.206,549.069 L 612.137,549.069 L 603.069,549.069 L 594,558.137 L 594,567.206 L 594,576.275 L 594,585.344 L 603.069,594.412 L 603.069,603.481 L 603.069,612.55 L 603.069,621.618 L 603.069,630.687 L 594,639.756 L 584.931,648.824 L 584.931,657.893 L 584.931,666.962 L 594,676.031 L 603.069,685.099 L 612.137,676.031 L 621.206,666.962 L 630.275,666.962 L 639.344,676.031 L 648.412,685.099 L 657.481,676.031 L 666.55,666.962 L 666.55,657.893 L 666.55,648.824 L 666.55,639.756 L 666.55,630.687 L 657.481,621.618 L 648.412,612.55 L 648.412,603.481 L 657.481,594.412 L 666.55,585.344 L 666.55,576.275 L 666.55,567.206 L 666.55,558.137 L 657.481,558.137 L 648.412,558.137 L 639.344,558.137 L 630.275,549.069 z " style="fill-opacity:0.5;fill:rgb(253,0,0);stroke:rgb(253,0,0);stroke-width:2"/></g>
<g fill-rule="evenodd"><path d="M 603.069,685.099 L 584.931,666.962 L 603.069,630.687 L 594,558.137 L 666.55,558.137 L 666.55,585.344 L 648.412,603.481 L 666.55,630.687 L 666.55,666.962 L 648.412,685.099 L 630.275,666.962 L 603.069,685.099 z " style="fill-opacity:0.5;fill:rgb(0,253,0);stroke:rgb(0,0,0);stroke-width:5"/></g>
<g fill-rule="evenodd"><path d="M 267.527,657.893 L 258.458,666.962 L 249.389,666.962 L 240.321,666.962 L 231.252,657.893 L 222.183,657.893 L 213.115,666.962 L 213.115,676.031 L 213.115,685.099 L 204.046,694.168 L 204.046,703.237 L 194.977,712.305 L 204.046,721.374 L 204.046,730.443 L 213.115,739.511 L 213.115,748.58 L 222.183,757.649 L 231.252,766.718 L 231.252,775.786 L 231.252,784.855 L 231.252,793.924 L 240.321,784.855 L 249.389,775.786 L 249.389,766.718 L 249.389,757.649 L 249.389,748.58 L 249.389,739.511 L 240.321,730.443 L 240.321,721.374 L 249.389,712.305 L 258.458,703.237 L 267.527,694.168 L 276.595,694.168 L 285.664,694.168 L 285.664,685.099 L 285.664,676.031 L 276.595,666.962 L 267.527,657.893 z " style="fill-opacity:0.5;fill:rgb(253,0,0);stroke:rgb(253,0,0);stroke-width:2"/></g>
<g fill-rule="evenodd"><path d="M 231.252,793.924 L 231.252,766.718 L 194.977,712.305 L 222.183,657.893 L 267.527,657.893 L 285.664,694.168 L 267.527,694.168 L 240.321,721.374 L 249.389,775.786 L 231.252,793.924 z " style="fill-opacity:0.5;fill:rgb(0,253,0);stroke:rgb(0,0,0);stroke-width:5"/></g>
<g fill-rule="evenodd"><path d="M 494.244,694.168 L 485.176,694.168 L 476.107,694.168 L 467.038,703.237 L 467.038,712.305 L 476.107,721.374 L 485.176,721.374 L 494.244,730.443 L 503.313,739.511 L 503.313,748.58 L 494.244,757.649 L 494.244,766.718 L 494.244,775.786 L 485.176,784.855 L 476.107,793.924 L 467.038,793.924 L 457.969,802.992 L 448.901,812.061 L 448.901,821.13 L 448.901,830.198 L 448.901,839.267 L 457.969,848.336 L 467.038,848.336 L 476.107,848.336 L 485.176,848.336 L 494.244,839.267 L 503.313,839.267 L 512.382,839.267 L 521.45,830.198 L 530.519,821.13 L 530.519,812.061 L 530.519,802.992 L 521.45,793.924 L 521.45,784.855 L 521.45,775.786 L 530.519,766.718 L 530.519,757.649 L 539.588,748.58 L 548.656,739.511 L 539.588,730.443 L 530.519,721.374 L 521.45,721.374 L 512.382,712.305 L 503.313,703.237 L 494.244,694.168 z " style="fill-opacity:0.5;fill:rgb(253,0,0);stroke:rgb(253,0,0);stroke-width:2"/></g>
<g fill-rule="evenodd"><path d="M 457.969,848.336 L 448.901,812.061 L 494.244,775.786 L 503.313,748.58 L 467.038,703.237 L 494.244,694.168 L 548.656,739.511 L 521.45,775.786 L 530.519,821.13 L 512.382,839.267 L 457.969,848.336 z " style="fill-opacity:0.5;fill:rgb(0,253,0);stroke:rgb(0,0,0);stroke-width:5"/></g>
<g fill-rule="evenodd"><path d="M 811.649,712.305 L 802.58,712.305 L 793.511,712.305 L 784.443,712.305 L 775.374,721.374 L 775.374,730.443 L 766.305,739.511 L 757.237,739.511 L 748.168,730.443 L 739.099,721.374 L 730.031,721.374 L 720.962,721.374 L 711.893,730.443 L 702.824,739.511 L 711.893,748.58 L 711.893,757.649 L 711.893,766.718 L 711.893,775.786 L 711.893,784.855 L 711.893,793.924 L 711.893,802.992 L 720.962,812.061 L 730.031,821.13 L 739.099,821.13 L 748.168,812.061 L 757.237,802.992 L 766.305,793.924 L 775.374,784.855 L 784.443,784.855 L 793.511,784.855 L 802.58,784.855 L 811.649,793.924 L 820.718,784.855 L 829.786,775.786 L 829.786,766.718 L 829.786,757.649 L 820.718,748.58 L 820.718,739.511 L 820.718,730.443 L 820.718,721.374 L 811.649,712.305 z " style="fill-opacity:0.5;fill:rgb(253,0,0);stroke:rgb(253,0,0);stroke-width:2"/></g>
<g fill-rule="evenodd"><path d="M 730.031,821.13 L 711.893,802.992 L 702.824,739.511 L 720.962,721.374 L 766.305,739.511 L 784.443,712.305 L 811.649,712.305 L 829.786,775.786 L 811.649,793.924 L 775.374,784.855 L 730.031,821.13 z " style="fill-opacity:0.5;fill:rgb(0,253,0);stroke:rgb(0,0,0);stroke-width:5"/></g>
<g fill-rule="evenodd"><path d="M 331.008,830.198 L 321.939,830.198 L 312.87,830.198 L 303.802,830.198 L 294.733,839.267 L 285.664,848.336 L 294.733,857.405 L 285.664,866.473 L 285.664,875.542 L 276.595,884.611 L 276.595,893.679 L 285.664,902.748 L 294.733,911.817 L 303.802,911.817 L 312.87,911.817 L 321.939,911.817 L 331.008,911.817 L 340.076,911.817 L 349.145,902.748 L 349.145,893.679 L 358.214,884.611 L 367.282,875.542 L 367.282,866.473 L 358.214,857.405 L 349.145,848.336 L 340.076,848.336 L 331.008,839.267 L 331.008,830.198 z " style="fill-opacity:0.5;fill:rgb(253,0,0);stroke:rgb(253,0,0);stroke-width:2"/></g>
<g fill-rule="evenodd"><path d="M 294.733,911.817 L 276.595,893.679 L 294.733,857.405 L 285.664,848.336 L 303.802,830.198 L 331.008,830.198 L 367.282,875.542 L 340.076,911.817 L 294.733,911.817 z " style="fill-opacity:0.5;fill:rgb(0,253,0);stroke:rgb(0,0,0);stroke-width:5"/></g>
<g fill-rule="evenodd"><path d="M 884.198,902.748 L 875.13,902.748 L 866.061,893.679 L 875.13,884.611 L 884.198,884.611 L 893.267,884.611 L 902.336,893.679 L 902.336,902.748 L 893.267,911.817 L 884.198,902.748 z " style="fill-opacity:0.5;fill:rgb(253,0,0);stroke:rgb(253,0,0);stroke-width:2"/></g>
<g fill-rule="evenodd"><path d="M 866.061,893.679 L 893.267,884.611 L 902.336,902.748 L 893.267,911.817 L 866.061,893.679 z " style="fill-opacity:0.5;fill:rgb(0,253,0);stroke:rgb(0,0,0);stroke-width:5"/></g>
</svg>
