<?xml version="1.0" standalone="no"?>
<!DOCTYPE svg PUBLIC "-//W3C//DTD SVG 1.1//EN"
"http://www.w3.org/Graphics/SVG/1.1/DTD/svg11.dtd">
<svg width="100%" height="100%" version="1.1"
xmlns="http://www.w3.org/2000/svg"
xmlns:xlink="http://www.w3.org/1999/xlink">
<g fill-rule="evenodd"><path d="M 5.03937,5.03937 L 15.1181,5.03937 L 25.1969,5.03937 L 35.2756,5.03937 L 45.3543,5.03937 L 55.4331,5.03937 L 65.5118,5.03937 L 75.5906,5.03937 L 85.6693,5.03937 L 95.748,5.03937 L 105.827,5.03937 L 115.906,5.03937 L 125.984,5.03937 L 136.063,5.03937 L 146.142,5.03937 L 156.22,5.03937 L 166.299,5.03937 L 176.378,5.03937 L 186.457,5.03937 L 196.535,5.03937 L 206.614,5.03937 L 216.693,5.03937 L 226.772,5.03937 L 236.85,5.03937 L 246.929,5.03937 L 246.929,15.1181 L 246.929,25.1969 L 257.008,35.2756 L 257.008,45.3543 L 246.929,45.3543 L 236.85,55.4331 L 246.929,65.5118 L 257.008,65.5118 L 267.087,65.5118 L 277.165,65.5118 L 287.244,55.4331 L 297.323,45.3543 L 297.323,35.2756 L 307.402,35.2756 L 317.48,35.2756 L 327.559,45.3543 L 337.638,45.3543 L 347.717,45.3543 L 357.795,45.3543 L 367.874,45.3543 L 367.874,55.4331 L 377.953,65.5118 L 367.874,75.5906 L 367.874,85.6693 L 357.795,95.748 L 367.874,105.827 L 367.874,115.906 L 367.874,125.984 L 357.795,136.063 L 347.717,146.142 L 357.795,156.22 L 347.717,166.299 L 347.717,176.378 L 337.638,176.378 L 327.559,176.378 L 317.48,166.299 L 317.48,156.22 L 307.402,146.142 L 297.323,136.063 L 287.244,136.063 L 277.165,125.984 L 267.087,125.984 L 257.008,115.906 L 246.929,115.906 L 236.85,105.827 L 236.85,95.748 L 226.772,85.6693 L 216.693,75.5906 L 206.614,75.5906 L 196.535,65.5118 L 186.457,65.5118 L 176.378,65.5118 L 166.299,65.5118 L 156.22,75.5906 L 146.142,75.5906 L 136.063,75.5906 L 125.984,75.5906 L 115.906,75.5906 L 105.827,75.5906 L 95.748,85.6693 L 85.6693,85.6693 L 75.5906,95.748 L 65.5118,95.748 L 55.4331,105.827 L 65.5118,115.906 L 65.5118,125.984 L 65.5118,136.063 L 55.4331,146.142 L 45.3543,156.22 L 55.4331,166.299 L 65.5118,176.378 L 75.5906,176.378 L 85.6693,186.457 L 85.6693,196.535 L 85.6693,206.614 L 95.748,216.693 L 105.827,216.693 L 115.906,216.693 L 125.984,226.772 L 125.984,236.85 L 125.984,246.929 L 115.906,246.929 L 105.827,246.929 L 95.748,246.929 L 85.6693,246.929 L 75.5906,257.008 L 65.5118,257.008 L 55.4331,267.087 L 45.3543,267.087 L 35.2756,267.087 L 25.1969,267.087 L 15.1181,267.087 L 5.03937,277.165 L 5.03937,287.244 L 5.03937,277.165 L 5.03937,267.087 L 5.03937,257.008 L 5.03937,246.929 L 5.03937,236.85 L 5.03937,226.772 L 5.03937,216.693 L 5.03937,206.614 L 5.03937,196.535 L 5.03937,186.457 L 5.03937,176.378 L 15.1181,166.299 L 5.03937,156.22 L 5.03937,146.142 L 5.03937,136.063 L 5.03937,125.984 L 5.03937,115.906 L 5.03937,105.827 L 5.03937,95.748 L 5.03937,85.6693 L 5.03937,75.5906 L 5.03937,65.5118 L 5.03937,55.4331 L 5.03937,45.3543 L 5.03937,35.2756 L 5.03937,25.1969 L 5.03937,15.1181 L 5.03937,5.03937M 105.827,5.03937 L 95.748,15.1181 L 95.748,25.1969 L 85.6693,25.1969 L 75.5906,35.2756 L 75.5906,45.3543 L 85.6693,55.4331 L 95.748,55.4331 L 105.827,55.4331 L 115.906,55.4331 L 125.984,55.4331 L 136.063,55.4331 L 146.142,55.4331 L 156.22,55.4331 L 166.299,45.3543 L 176.378,45.3543 L 186.457,45.3543 L 196.535,45.3543 L 206.614,35.2756 L 196.535,25.1969 L 186.457,25.1969 L 176.378,15.1181 L 166.299,15.1181 L 156.22,5.03937 L 146.142,5.03937 L 136.063,5.03937 L 125.984,5.03937 L 115.906,5.03937 L 105.827,5.03937 z " style="fill-opacity:0.5;fill:rgb(253,0,0);stroke:rgb(253,0,0);stroke-width:2"/></g>
<g fill-rule="evenodd"><path d="M 357.795,156.22 L 347.717,176.378 L 327.559,176.378 L 297.323,136.063 L 246.929,115.906 L 196.535,65.5118 L 105.827,75.5906 L 55.4331,105.827 L 65.5118,136.063 L 45.3543,156.22 L 85.6693,186.457 L 95.748,216.693 L 125.984,226.772 L 125.984,246.929 L 15.1181,267.087 L 5.03937,287.244 L 5.03937,5.03937 L 246.929,5.03937 L 246.929,65.5118 L 277.165,65.5118 L 297.323,35.2756 L 367.874,45.3543 L 377.953,65.5118 L 357.795,95.748 L 357.795,156.22M 206.614,35.2756 L 156.22,5.03937 L 105.827,5.03937 L 75.5906,45.3543 L 156.22,55.4331 L 206.614,35.2756 z " style="fill-opacity:0.5;fill:rgb(51,51,153);stroke:rgb(0,0,0);stroke-width:5"/></g>
<g fill-rule="evenodd"><path d="M 629.921,5.03937 L 640,5.03937 L 650.079,5.03937 L 660.157,5.03937 L 670.236,5.03937 L 680.315,5.03937 L 690.394,5.03937 L 700.472,5.03937 L 690.394,5.03937 L 680.315,15.1181 L 680.315,25.1969 L 680.315,35.2756 L 680.315,45.3543 L 680.315,55.4331 L 670.236,55.4331 L 660.157,65.5118 L 660.157,75.5906 L 650.079,75.5906 L 640,85.6693 L 640,95.748 L 629.921,95.748 L 619.843,95.748 L 609.764,95.748 L 609.764,85.6693 L 609.764,75.5906 L 609.764,65.5118 L 609.764,55.4331 L 619.843,55.4331 L 629.921,45.3543 L 619.843,35.2756 L 609.764,35.2756 L 609.764,25.1969 L 609.764,15.1181 L 619.843,15.1181 L 629.921,5.03937 z " style="fill-opacity:0.5;fill:rgb(253,0,0);stroke:rgb(253,0,0);stroke-width:2"/></g>
<g fill-rule="evenodd"><path d="M 609.764,95.748 L 609.764,55.4331 L 629.921,45.3543 L 609.764,35.2756 L 609.764,15.1181 L 700.472,5.03937 L 680.315,15.1181 L 680.315,55.4331 L 640,95.748 L 609.764,95.748 z " style="fill-opacity:0.5;fill:rgb(51,51,153);stroke:rgb(0,0,0);stroke-width:5"/></g>
<g fill-rule="evenodd"><path d="M 750.866,5.03937 L 760.945,5.03937 L 771.024,5.03937 L 781.102,5.03937 L 791.181,5.03937 L 801.26,5.03937 L 791.181,5.03937 L 781.102,15.1181 L 781.102,25.1969 L 791.181,35.2756 L 801.26,35.2756 L 801.26,45.3543 L 791.181,45.3543 L 781.102,55.4331 L 771.024,55.4331 L 760.945,65.5118 L 760.945,75.5906 L 760.945,85.6693 L 750.866,85.6693 L 740.787,95.748 L 730.709,95.748 L 720.63,105.827 L 720.63,115.906 L 720.63,125.984 L 720.63,136.063 L 720.63,146.142 L 720.63,156.22 L 730.709,166.299 L 740.787,166.299 L 740.787,176.378 L 730.709,176.378 L 720.63,186.457 L 710.551,186.457 L 700.472,186.457 L 690.394,176.378 L 680.315,176.378 L 670.236,166.299 L 660.157,166.299 L 650.079,156.22 L 660.157,156.22 L 670.236,146.142 L 670.236,136.063 L 660.157,125.984 L 650.079,125.984 L 650.079,115.906 L 660.157,115.906 L 670.236,105.827 L 680.315,105.827 L 690.394,95.748 L 700.472,95.748 L 710.551,85.6693 L 710.551,75.5906 L 710.551,65.5118 L 720.63,65.5118 L 730.709,55.4331 L 740.787,55.4331 L 750.866,45.3543 L 750.866,35.2756 L 740.787,25.1969 L 730.709,25.1969 L 730.709,15.1181 L 740.787,15.1181 L 750.866,5.03937 z " style="fill-opacity:0.5;fill:rgb(253,0,0);stroke:rgb(253,0,0);stroke-width:2"/></g>
<g fill-rule="evenodd"><path d="M 700.472,186.457 L 650.079,156.22 L 670.236,146.142 L 650.079,115.906 L 700.472,95.748 L 710.551,65.5118 L 750.866,45.3543 L 730.709,15.1181 L 801.26,5.03937 L 781.102,15.1181 L 801.26,45.3543 L 720.63,105.827 L 720.63,156.22 L 740.787,176.378 L 700.472,186.457 z " style="fill-opacity:0.5;fill:rgb(51,51,153);stroke:rgb(0,0,0);stroke-width:5"/></g>
<g fill-rule="evenodd"><path d="M 952.441,5.03937 L 962.52,5.03937 L 972.598,5.03937 L 982.677,5.03937 L 992.756,5.03937 L 1002.83,5.03937 L 1012.91,5.03937 L 1012.91,15.1181 L 1022.99,25.1969 L 1012.91,35.2756 L 1012.91,45.3543 L 1002.83,55.4331 L 992.756,55.4331 L 982.677,65.5118 L 992.756,75.5906 L 992.756,85.6693 L 1002.83,95.748 L 1012.91,105.827 L 1012.91,115.906 L 1012.91,125.984 L 1002.83,136.063 L 1012.91,146.142 L 1012.91,156.22 L 1012.91,166.299 L 1002.83,176.378 L 992.756,186.457 L 992.756,196.535 L 982.677,206.614 L 972.598,206.614 L 962.52,216.693 L 952.441,226.772 L 962.52,236.85 L 972.598,246.929 L 982.677,246.929 L 992.756,246.929 L 1002.83,246.929 L 1012.91,236.85 L 1012.91,226.772 L 1022.99,226.772 L 1022.99,236.85 L 1033.07,246.929 L 1043.15,236.85 L 1043.15,226.772 L 1053.23,226.772 L 1063.31,226.772 L 1073.39,236.85 L 1073.39,246.929 L 1083.46,257.008 L 1093.54,257.008 L 1103.62,257.008 L 1113.7,257.008 L 1113.7,267.087 L 1123.78,277.165 L 1133.86,287.244 L 1143.94,287.244 L 1154.02,297.323 L 1154.02,307.402 L 1164.09,317.48 L 1174.17,327.559 L 1174.17,337.638 L 1174.17,347.717 L 1164.09,347.717 L 1154.02,347.717 L 1143.94,337.638 L 1133.86,337.638 L 1123.78,327.559 L 1123.78,317.48 L 1113.7,307.402 L 1103.62,297.323 L 1093.54,297.323 L 1083.46,297.323 L 1073.39,297.323 L 1063.31,307.402 L 1053.23,307.402 L 1043.15,307.402 L 1033.07,307.402 L 1022.99,307.402 L 1012.91,307.402 L 1002.83,307.402 L 992.756,307.402 L 982.677,307.402 L 972.598,307.402 L 962.52,317.48 L 952.441,327.559 L 962.52,337.638 L 952.441,347.717 L 952.441,357.795 L 942.362,367.874 L 932.283,377.953 L 932.283,388.031 L 922.205,398.11 L 932.283,408.189 L 932.283,418.268 L 942.362,428.346 L 952.441,438.425 L 962.52,438.425 L 972.598,438.425 L 982.677,438.425 L 992.756,438.425 L 1002.83,438.425 L 1012.91,448.504 L 1022.99,448.504 L 1033.07,458.583 L 1043.15,458.583 L 1053.23,468.661 L 1053.23,478.74 L 1053.23,488.819 L 1043.15,488.819 L 1033.07,488.819 L 1022.99,488.819 L 1012.91,498.898 L 1012.91,508.976 L 1002.83,508.976 L 992.756,508.976 L 982.677,508.976 L 972.598,508.976 L 962.52,519.055 L 952.441,519.055 L 942.362,519.055 L 932.283,519.055 L 922.205,519.055 L 912.126,519.055 L 902.047,519.055 L 902.047,508.976 L 891.969,498.898 L 902.047,488.819 L 891.969,478.74 L 881.89,478.74 L 871.811,478.74 L 861.732,478.74 L 851.654,478.74 L 841.575,468.661 L 831.496,468.661 L 821.417,458.583 L 821.417,448.504 L 821.417,438.425 L 831.496,428.346 L 841.575,418.268 L 831.496,408.189 L 821.417,398.11 L 821.417,388.031 L 811.339,377.953 L 821.417,367.874 L 811.339,357.795 L 821.417,347.717 L 821.417,337.638 L 831.496,327.559 L 841.575,317.48 L 841.575,307.402 L 831.496,297.323 L 841.575,287.244 L 841.575,277.165 L 841.575,267.087 L 851.654,257.008 L 861.732,257.008 L 871.811,246.929 L 881.89,236.85 L 881.89,226.772 L 891.969,226.772 L 902.047,226.772 L 912.126,226.772 L 922.205,216.693 L 922.205,206.614 L 932.283,196.535 L 942.362,196.535 L 952.441,186.457 L 962.52,176.378 L 962.52,166.299 L 972.598,156.22 L 962.52,146.142 L 962.52,136.063 L 962.52,125.984 L 972.598,115.906 L 962.52,105.827 L 962.52,95.748 L 952.441,85.6693 L 942.362,75.5906 L 942.362,65.5118 L 942.362,55.4331 L 952.441,45.3543 L 962.52,45.3543 L 972.598,35.2756 L 982.677,25.1969 L 972.598,15.1181 L 962.52,5.03937 L 952.441,5.03937 z " style="fill-opacity:0.5;fill:rgb(253,0,0);stroke:rgb(253,0,0);stroke-width:2"/></g>
<g fill-rule="evenodd"><path d="M 902.047,519.055 L 891.969,478.74 L 851.654,478.74 L 821.417,458.583 L 841.575,418.268 L 811.339,357.795 L 841.575,317.48 L 841.575,267.087 L 881.89,226.772 L 912.126,226.772 L 972.598,156.22 L 972.598,115.906 L 942.362,55.4331 L 982.677,25.1969 L 952.441,5.03937 L 1012.91,5.03937 L 1022.99,25.1969 L 982.677,65.5118 L 1012.91,105.827 L 1012.91,166.299 L 952.441,226.772 L 972.598,246.929 L 1002.83,246.929 L 1012.91,226.772 L 1033.07,246.929 L 1043.15,226.772 L 1063.31,226.772 L 1083.46,257.008 L 1113.7,257.008 L 1154.02,297.323 L 1174.17,347.717 L 1133.86,337.638 L 1103.62,297.323 L 972.598,307.402 L 922.205,398.11 L 952.441,438.425 L 1002.83,438.425 L 1043.15,458.583 L 1053.23,488.819 L 1022.99,488.819 L 1012.91,508.976 L 902.047,519.055 z " style="fill-opacity:0.5;fill:rgb(51,51,153);stroke:rgb(0,0,0);stroke-width:5"/></g>
<g fill-rule="evenodd"><path d="M 428.346,15.1181 L 438.425,15.1181 L 428.346,15.1181M 236.85,35.2756 L 226.772,45.3543 L 236.85,55.4331 L 246.929,45.3543 L 236.85,35.2756 z " style="fill-opacity:0.5;fill:rgb(253,0,0);stroke:rgb(253,0,0);stroke-width:2"/></g>
<g fill-rule="evenodd"><path d="M 438.425,15.1181 z " style="fill-opacity:0.5;fill:rgb(51,51,153);stroke:rgb(0,0,0);stroke-width:5"/></g>
<g fill-rule="evenodd"><path d="M 569.449,196.535 L 579.528,196.535 L 589.606,196.535 L 599.685,206.614 L 609.764,206.614 L 619.843,216.693 L 629.921,216.693 L 629.921,226.772 L 619.843,236.85 L 619.843,246.929 L 629.921,257.008 L 640,257.008 L 650.079,267.087 L 660.157,267.087 L 670.236,277.165 L 680.315,277.165 L 680.315,287.244 L 670.236,287.244 L 660.157,297.323 L 660.157,307.402 L 670.236,317.48 L 680.315,317.48 L 680.315,327.559 L 670.236,327.559 L 660.157,337.638 L 660.157,347.717 L 660.157,357.795 L 650.079,357.795 L 640,367.874 L 640,377.953 L 640,388.031 L 629.921,388.031 L 619.843,398.11 L 609.764,398.11 L 599.685,408.189 L 599.685,418.268 L 599.685,428.346 L 589.606,428.346 L 579.528,438.425 L 579.528,448.504 L 589.606,458.583 L 599.685,458.583 L 609.764,468.661 L 619.843,468.661 L 619.843,478.74 L 619.843,488.819 L 629.921,498.898 L 640,498.898 L 640,508.976 L 629.921,508.976 L 619.843,519.055 L 619.843,529.134 L 619.843,539.213 L 609.764,539.213 L 599.685,549.291 L 589.606,549.291 L 579.528,559.37 L 579.528,569.449 L 589.606,579.528 L 599.685,579.528 L 589.606,589.606 L 579.528,589.606 L 569.449,599.685 L 559.37,599.685 L 549.291,609.764 L 539.213,609.764 L 529.134,619.843 L 519.055,619.843 L 508.976,619.843 L 498.898,609.764 L 488.819,609.764 L 488.819,599.685 L 498.898,599.685 L 508.976,589.606 L 519.055,589.606 L 529.134,579.528 L 529.134,569.449 L 529.134,559.37 L 539.213,559.37 L 549.291,549.291 L 549.291,539.213 L 549.291,529.134 L 559.37,529.134 L 569.449,519.055 L 579.528,519.055 L 589.606,508.976 L 589.606,498.898 L 579.528,488.819 L 569.449,488.819 L 569.449,478.74 L 569.449,468.661 L 559.37,458.583 L 549.291,458.583 L 539.213,448.504 L 529.134,448.504 L 529.134,438.425 L 539.213,438.425 L 549.291,428.346 L 549.291,418.268 L 549.291,408.189 L 559.37,408.189 L 569.449,398.11 L 569.449,388.031 L 579.528,388.031 L 589.606,377.953 L 589.606,367.874 L 599.685,367.874 L 609.764,357.795 L 609.764,347.717 L 609.764,337.638 L 619.843,337.638 L 629.921,327.559 L 629.921,317.48 L 619.843,307.402 L 609.764,307.402 L 609.764,297.323 L 619.843,297.323 L 629.921,287.244 L 629.921,277.165 L 619.843,267.087 L 609.764,267.087 L 599.685,257.008 L 589.606,257.008 L 579.528,246.929 L 569.449,246.929 L 559.37,236.85 L 549.291,236.85 L 539.213,226.772 L 529.134,226.772 L 529.134,216.693 L 539.213,216.693 L 549.291,206.614 L 559.37,206.614 L 569.449,196.535 z " style="fill-opacity:0.5;fill:rgb(253,0,0);stroke:rgb(253,0,0);stroke-width:2"/></g>
<g fill-rule="evenodd"><path d="M 508.976,619.843 L 488.819,599.685 L 519.055,589.606 L 549.291,529.134 L 589.606,508.976 L 569.449,468.661 L 529.134,438.425 L 629.921,327.559 L 609.764,307.402 L 629.921,277.165 L 529.134,226.772 L 589.606,196.535 L 629.921,216.693 L 629.921,257.008 L 680.315,277.165 L 660.157,297.323 L 680.315,327.559 L 660.157,337.638 L 640,388.031 L 609.764,398.11 L 579.528,438.425 L 640,498.898 L 619.843,539.213 L 579.528,559.37 L 599.685,579.528 L 508.976,619.843 z " style="fill-opacity:0.5;fill:rgb(51,51,153);stroke:rgb(0,0,0);stroke-width:5"/></g>
<g fill-rule="evenodd"><path d="M 236.85,206.614 L 246.929,206.614 L 257.008,206.614 L 267.087,216.693 L 267.087,226.772 L 277.165,236.85 L 267.087,246.929 L 277.165,257.008 L 287.244,267.087 L 287.244,277.165 L 287.244,287.244 L 277.165,297.323 L 287.244,307.402 L 287.244,317.48 L 297.323,327.559 L 307.402,337.638 L 317.48,337.638 L 317.48,347.717 L 307.402,357.795 L 307.402,367.874 L 317.48,377.953 L 327.559,388.031 L 337.638,388.031 L 347.717,398.11 L 347.717,408.189 L 347.717,418.268 L 337.638,428.346 L 327.559,438.425 L 337.638,448.504 L 347.717,458.583 L 347.717,468.661 L 347.717,478.74 L 337.638,488.819 L 327.559,498.898 L 327.559,508.976 L 317.48,519.055 L 327.559,529.134 L 327.559,539.213 L 327.559,549.291 L 317.48,559.37 L 307.402,569.449 L 307.402,579.528 L 297.323,589.606 L 287.244,599.685 L 287.244,609.764 L 277.165,619.843 L 277.165,629.921 L 267.087,629.921 L 257.008,629.921 L 246.929,640 L 246.929,650.079 L 257.008,660.157 L 257.008,670.236 L 246.929,670.236 L 236.85,660.157 L 226.772,670.236 L 226.772,680.315 L 216.693,690.394 L 206.614,690.394 L 196.535,700.472 L 186.457,700.472 L 176.378,710.551 L 166.299,710.551 L 156.22,710.551 L 146.142,710.551 L 136.063,710.551 L 125.984,710.551 L 115.906,710.551 L 105.827,710.551 L 95.748,710.551 L 85.6693,710.551 L 75.5906,720.63 L 65.5118,720.63 L 55.4331,720.63 L 45.3543,720.63 L 35.2756,720.63 L 25.1969,720.63 L 15.1181,730.709 L 5.03937,730.709 L 5.03937,720.63 L 5.03937,710.551 L 5.03937,700.472 L 15.1181,700.472 L 25.1969,690.394 L 35.2756,690.394 L 45.3543,690.394 L 55.4331,690.394 L 65.5118,690.394 L 75.5906,690.394 L 85.6693,680.315 L 95.748,680.315 L 105.827,680.315 L 115.906,680.315 L 125.984,680.315 L 136.063,680.315 L 146.142,680.315 L 156.22,680.315 L 166.299,680.315 L 176.378,680.315 L 186.457,670.236 L 196.535,660.157 L 196.535,650.079 L 206.614,640 L 216.693,629.921 L 216.693,619.843 L 226.772,609.764 L 236.85,609.764 L 246.929,599.685 L 257.008,589.606 L 257.008,579.528 L 267.087,569.449 L 277.165,559.37 L 277.165,549.291 L 287.244,539.213 L 277.165,529.134 L 277.165,519.055 L 277.165,508.976 L 287.244,498.898 L 297.323,488.819 L 297.323,478.74 L 307.402,468.661 L 297.323,458.583 L 297.323,448.504 L 287.244,438.425 L 297.323,428.346 L 297.323,418.268 L 307.402,408.189 L 297.323,398.11 L 287.244,398.11 L 277.165,388.031 L 277.165,377.953 L 267.087,367.874 L 257.008,357.795 L 257.008,347.717 L 246.929,337.638 L 257.008,327.559 L 246.929,317.48 L 236.85,317.48 L 226.772,317.48 L 216.693,317.48 L 206.614,317.48 L 196.535,307.402 L 186.457,307.402 L 176.378,307.402 L 166.299,307.402 L 156.22,307.402 L 146.142,307.402 L 136.063,297.323 L 136.063,287.244 L 136.063,277.165 L 146.142,277.165 L 156.22,277.165 L 166.299,277.165 L 176.378,277.165 L 186.457,277.165 L 196.535,277.165 L 206.614,287.244 L 216.693,287.244 L 226.772,287.244 L 236.85,287.244 L 246.929,277.165 L 236.85,267.087 L 236.85,257.008 L 226.772,246.929 L 236.85,236.85 L 226.772,226.772 L 236.85,216.693 L 236.85,206.614 z " style="fill-opacity:0.5;fill:rgb(253,0,0);stroke:rgb(253,0,0);stroke-width:2"/></g>
<g fill-rule="evenodd"><path d="M 5.03937,730.709 L 5.03937,700.472 L 25.1969,690.394 L 176.378,680.315 L 287.244,539.213 L 277.165,508.976 L 307.402,468.661 L 287.244,438.425 L 307.402,408.189 L 257.008,357.795 L 246.929,317.48 L 136.063,297.323 L 136.063,277.165 L 236.85,287.244 L 246.929,277.165 L 226.772,226.772 L 236.85,206.614 L 257.008,206.614 L 287.244,267.087 L 277.165,297.323 L 317.48,337.638 L 307.402,367.874 L 347.717,398.11 L 327.559,438.425 L 347.717,458.583 L 317.48,519.055 L 327.559,549.291 L 277.165,629.921 L 246.929,640 L 257.008,670.236 L 236.85,660.157 L 216.693,690.394 L 176.378,710.551 L 85.6693,710.551 L 5.03937,730.709 z " style="fill-opacity:0.5;fill:rgb(51,51,153);stroke:rgb(0,0,0);stroke-width:5"/></g>
<g fill-rule="evenodd"><path d="M 488.819,267.087 L 498.898,267.087 L 488.819,267.087 z " style="fill-opacity:0.5;fill:rgb(253,0,0);stroke:rgb(253,0,0);stroke-width:2"/></g>
<g fill-rule="evenodd"><path d="M 498.898,267.087 z " style="fill-opacity:0.5;fill:rgb(51,51,153);stroke:rgb(0,0,0);stroke-width:5"/></g>
<g fill-rule="evenodd"><path d="M 529.134,287.244 L 539.213,287.244 L 529.134,287.244M 891.969,297.323 L 881.89,307.402 L 871.811,307.402 L 861.732,317.48 L 861.732,327.559 L 851.654,327.559 L 841.575,337.638 L 841.575,347.717 L 841.575,357.795 L 841.575,367.874 L 841.575,377.953 L 851.654,388.031 L 861.732,388.031 L 871.811,398.11 L 881.89,398.11 L 891.969,388.031 L 902.047,388.031 L 912.126,377.953 L 912.126,367.874 L 912.126,357.795 L 922.205,357.795 L 932.283,347.717 L 932.283,337.638 L 932.283,327.559 L 932.283,317.48 L 922.205,307.402 L 912.126,307.402 L 902.047,297.323 L 891.969,297.323 z " style="fill-opacity:0.5;fill:rgb(253,0,0);stroke:rgb(253,0,0);stroke-width:2"/></g>
<g fill-rule="evenodd"><path d="M 539.213,287.244M 871.811,398.11 L 902.047,388.031 L 932.283,347.717 L 932.283,317.48 L 902.047,297.323 L 841.575,337.638 L 841.575,377.953 L 871.811,398.11 z " style="fill-opacity:0.5;fill:rgb(51,51,153);stroke:rgb(0,0,0);stroke-width:5"/></g>
<g fill-rule="evenodd"><path d="M 388.031,317.48 L 398.11,317.48 L 398.11,327.559 L 388.031,327.559 L 388.031,317.48M 297.323,327.559 L 287.244,337.638 L 297.323,347.717 L 307.402,337.638 L 297.323,327.559 z " style="fill-opacity:0.5;fill:rgb(253,0,0);stroke:rgb(253,0,0);stroke-width:2"/></g>
<g fill-rule="evenodd"><path d=" z " style="fill-opacity:0.5;fill:rgb(51,51,153);stroke:rgb(0,0,0);stroke-width:5"/></g>
<g fill-rule="evenodd"><path d="M 1184.25,377.953 L 1194.33,377.953 L 1204.41,377.953 L 1214.49,388.031 L 1224.57,388.031 L 1234.65,388.031 L 1244.72,388.031 L 1254.8,388.031 L 1264.88,388.031 L 1274.96,388.031 L 1285.04,388.031 L 1285.04,398.11 L 1285.04,408.189 L 1285.04,418.268 L 1285.04,428.346 L 1285.04,438.425 L 1274.96,438.425 L 1274.96,428.346 L 1264.88,418.268 L 1254.8,418.268 L 1244.72,418.268 L 1234.65,418.268 L 1224.57,418.268 L 1214.49,428.346 L 1214.49,438.425 L 1214.49,448.504 L 1204.41,448.504 L 1194.33,448.504 L 1184.25,438.425 L 1174.17,438.425 L 1164.09,438.425 L 1154.02,438.425 L 1143.94,438.425 L 1133.86,438.425 L 1123.78,428.346 L 1123.78,418.268 L 1123.78,408.189 L 1133.86,408.189 L 1143.94,408.189 L 1154.02,408.189 L 1164.09,408.189 L 1174.17,398.11 L 1184.25,388.031 L 1184.25,377.953 z " style="fill-opacity:0.5;fill:rgb(253,0,0);stroke:rgb(253,0,0);stroke-width:2"/></g>
<g fill-rule="evenodd"><path d="M 1285.04,438.425 L 1264.88,418.268 L 1224.57,418.268 L 1214.49,448.504 L 1133.86,438.425 L 1123.78,408.189 L 1164.09,408.189 L 1184.25,377.953 L 1285.04,388.031 L 1285.04,438.425 z " style="fill-opacity:0.5;fill:rgb(51,51,153);stroke:rgb(0,0,0);stroke-width:5"/></g>
<g fill-rule="evenodd"><path d="M 710.551,468.661 L 720.63,468.661 L 710.551,468.661 z " style="fill-opacity:0.5;fill:rgb(253,0,0);stroke:rgb(253,0,0);stroke-width:2"/></g>
<g fill-rule="evenodd"><path d="M 720.63,468.661 z " style="fill-opacity:0.5;fill:rgb(51,51,153);stroke:rgb(0,0,0);stroke-width:5"/></g>
<g fill-rule="evenodd"><path d="M 408.189,619.843 L 418.268,619.843 L 408.189,619.843 z " style="fill-opacity:0.5;fill:rgb(253,0,0);stroke:rgb(253,0,0);stroke-width:2"/></g>
<g fill-rule="evenodd"><path d="M 418.268,619.843 z " style="fill-opacity:0.5;fill:rgb(51,51,153);stroke:rgb(0,0,0);stroke-width:5"/></g>
<g fill-rule="evenodd"><path d="M 660.157,619.843 L 670.236,619.843 L 680.315,619.843 L 690.394,629.921 L 700.472,629.921 L 700.472,640 L 700.472,650.079 L 710.551,660.157 L 720.63,660.157 L 730.709,670.236 L 740.787,670.236 L 740.787,680.315 L 740.787,690.394 L 750.866,700.472 L 760.945,700.472 L 750.866,710.551 L 740.787,710.551 L 730.709,720.63 L 720.63,720.63 L 710.551,730.709 L 700.472,730.709 L 690.394,740.787 L 680.315,740.787 L 670.236,740.787 L 660.157,740.787 L 650.079,740.787 L 640,740.787 L 629.921,730.709 L 619.843,730.709 L 609.764,720.63 L 599.685,720.63 L 589.606,710.551 L 579.528,710.551 L 569.449,700.472 L 579.528,700.472 L 589.606,690.394 L 599.685,690.394 L 609.764,680.315 L 609.764,670.236 L 599.685,660.157 L 599.685,650.079 L 609.764,650.079 L 619.843,640 L 629.921,640 L 640,629.921 L 650.079,629.921 L 660.157,619.843 z " style="fill-opacity:0.5;fill:rgb(253,0,0);stroke:rgb(253,0,0);stroke-width:2"/></g>
<g fill-rule="evenodd"><path d="M 760.945,700.472 L 690.394,740.787 L 640,740.787 L 569.449,700.472 L 609.764,680.315 L 599.685,650.079 L 660.157,619.843 L 700.472,629.921 L 700.472,650.079 L 740.787,670.236 L 740.787,690.394 L 760.945,700.472 z " style="fill-opacity:0.5;fill:rgb(51,51,153);stroke:rgb(0,0,0);stroke-width:5"/></g>
<g fill-rule="evenodd"><path d="M 831.496,619.843 L 841.575,619.843 L 841.575,629.921 L 831.496,629.921 L 831.496,619.843 z " style="fill-opacity:0.5;fill:rgb(253,0,0);stroke:rgb(253,0,0);stroke-width:2"/></g>
<g fill-rule="evenodd"><path d=" z " style="fill-opacity:0.5;fill:rgb(51,51,153);stroke:rgb(0,0,0);stroke-width:5"/></g>
<g fill-rule="evenodd"><path d="M 1093.54,619.843 L 1103.62,619.843 L 1093.54,619.843 z " style="fill-opacity:0.5;fill:rgb(253,0,0);stroke:rgb(253,0,0);stroke-width:2"/></g>
<g fill-rule="evenodd"><path d="M 1103.62,619.843 z " style="fill-opacity:0.5;fill:rgb(51,51,153);stroke:rgb(0,0,0);stroke-width:5"/></g>
<g fill-rule="evenodd"><path d="M 932.283,640 L 942.362,640 L 942.362,650.079 L 932.283,650.079 L 932.283,640 z " style="fill-opacity:0.5;fill:rgb(253,0,0);stroke:rgb(253,0,0);stroke-width:2"/></g>
<g fill-rule="evenodd"><path d=" z " style="fill-opacity:0.5;fill:rgb(51,51,153);stroke:rgb(0,0,0);stroke-width:5"/></g>
<g fill-rule="evenodd"><path d="M 1274.96,690.394 L 1285.04,690.394 L 1285.04,700.472 L 1285.04,710.551 L 1285.04,720.63 L 1285.04,730.709 L 1285.04,740.787 L 1285.04,750.866 L 1285.04,760.945 L 1285.04,771.024 L 1285.04,781.102 L 1274.96,781.102 L 1264.88,791.181 L 1254.8,791.181 L 1244.72,791.181 L 1234.65,791.181 L 1224.57,781.102 L 1214.49,781.102 L 1214.49,771.024 L 1214.49,760.945 L 1224.57,760.945 L 1234.65,760.945 L 1244.72,760.945 L 1254.8,750.866 L 1254.8,740.787 L 1264.88,740.787 L 1274.96,730.709 L 1274.96,720.63 L 1274.96,710.551 L 1274.96,700.472 L 1274.96,690.394 z " style="fill-opacity:0.5;fill:rgb(253,0,0);stroke:rgb(253,0,0);stroke-width:2"/></g>
<g fill-rule="evenodd"><path d="M 1214.49,781.102 L 1214.49,760.945 L 1244.72,760.945 L 1274.96,730.709 L 1285.04,690.394 L 1285.04,781.102 L 1214.49,781.102 z " style="fill-opacity:0.5;fill:rgb(51,51,153);stroke:rgb(0,0,0);stroke-width:5"/></g>
<g fill-rule="evenodd"><path d="M 821.417,740.787 L 831.496,740.787 L 841.575,740.787 L 851.654,750.866 L 861.732,750.866 L 871.811,760.945 L 881.89,760.945 L 891.969,760.945 L 902.047,760.945 L 912.126,760.945 L 922.205,760.945 L 932.283,771.024 L 942.362,771.024 L 952.441,771.024 L 962.52,771.024 L 972.598,771.024 L 982.677,771.024 L 992.756,781.102 L 1002.83,781.102 L 1012.91,781.102 L 1022.99,781.102 L 1033.07,771.024 L 1043.15,771.024 L 1053.23,760.945 L 1063.31,760.945 L 1073.39,760.945 L 1083.46,760.945 L 1093.54,771.024 L 1083.46,781.102 L 1073.39,781.102 L 1063.31,791.181 L 1053.23,791.181 L 1043.15,801.26 L 1033.07,801.26 L 1022.99,801.26 L 1012.91,801.26 L 1002.83,811.339 L 1002.83,821.417 L 992.756,821.417 L 992.756,811.339 L 992.756,801.26 L 982.677,791.181 L 972.598,791.181 L 962.52,791.181 L 952.441,791.181 L 942.362,791.181 L 932.283,791.181 L 922.205,781.102 L 912.126,781.102 L 902.047,781.102 L 891.969,781.102 L 881.89,781.102 L 871.811,781.102 L 861.732,791.181 L 851.654,791.181 L 841.575,791.181 L 831.496,791.181 L 821.417,801.26 L 811.339,801.26 L 801.26,801.26 L 791.181,801.26 L 781.102,791.181 L 771.024,781.102 L 760.945,781.102 L 760.945,771.024 L 771.024,771.024 L 781.102,760.945 L 791.181,760.945 L 801.26,750.866 L 811.339,750.866 L 821.417,740.787 z " style="fill-opacity:0.5;fill:rgb(253,0,0);stroke:rgb(253,0,0);stroke-width:2"/></g>
<g fill-rule="evenodd"><path d="M 1093.54,771.024 L 1043.15,801.26 L 1012.91,801.26 L 1002.83,821.417 L 982.677,791.181 L 871.811,781.102 L 791.181,801.26 L 760.945,781.102 L 821.417,740.787 L 992.756,781.102 L 1053.23,760.945 L 1093.54,771.024 z " style="fill-opacity:0.5;fill:rgb(51,51,153);stroke:rgb(0,0,0);stroke-width:5"/></g>
<g fill-rule="evenodd"><path d="M 428.346,771.024 L 438.425,771.024 L 448.504,771.024 L 458.583,781.102 L 468.661,781.102 L 478.74,791.181 L 488.819,791.181 L 498.898,801.26 L 508.976,801.26 L 508.976,811.339 L 498.898,821.417 L 488.819,821.417 L 478.74,831.496 L 468.661,831.496 L 458.583,831.496 L 448.504,831.496 L 438.425,831.496 L 428.346,831.496 L 418.268,841.575 L 408.189,841.575 L 398.11,841.575 L 388.031,841.575 L 377.953,841.575 L 367.874,841.575 L 357.795,851.654 L 347.717,851.654 L 337.638,861.732 L 327.559,861.732 L 317.48,871.811 L 307.402,871.811 L 297.323,881.89 L 287.244,881.89 L 277.165,891.969 L 267.087,891.969 L 257.008,881.89 L 246.929,881.89 L 236.85,871.811 L 226.772,871.811 L 216.693,861.732 L 226.772,851.654 L 236.85,851.654 L 246.929,841.575 L 257.008,841.575 L 267.087,841.575 L 277.165,841.575 L 287.244,851.654 L 297.323,851.654 L 307.402,851.654 L 317.48,851.654 L 327.559,841.575 L 337.638,841.575 L 347.717,831.496 L 347.717,821.417 L 357.795,821.417 L 367.874,811.339 L 367.874,801.26 L 377.953,801.26 L 388.031,791.181 L 398.11,791.181 L 408.189,781.102 L 418.268,781.102 L 428.346,771.024 z " style="fill-opacity:0.5;fill:rgb(253,0,0);stroke:rgb(253,0,0);stroke-width:2"/></g>
<g fill-rule="evenodd"><path d="M 216.693,861.732 L 246.929,841.575 L 317.48,851.654 L 367.874,801.26 L 428.346,771.024 L 508.976,801.26 L 478.74,831.496 L 367.874,841.575 L 277.165,891.969 L 216.693,861.732 z " style="fill-opacity:0.5;fill:rgb(51,51,153);stroke:rgb(0,0,0);stroke-width:5"/></g>
<g fill-rule="evenodd"><path d="M 1154.02,811.339 L 1164.09,811.339 L 1174.17,811.339 L 1184.25,811.339 L 1194.33,821.417 L 1204.41,821.417 L 1214.49,821.417 L 1224.57,821.417 L 1234.65,821.417 L 1244.72,821.417 L 1254.8,821.417 L 1264.88,821.417 L 1274.96,811.339 L 1285.04,811.339 L 1285.04,821.417 L 1285.04,831.496 L 1285.04,841.575 L 1285.04,851.654 L 1285.04,861.732 L 1285.04,871.811 L 1285.04,881.89 L 1285.04,891.969 L 1285.04,902.047 L 1285.04,912.126 L 1285.04,922.205 L 1285.04,932.283 L 1285.04,942.362 L 1285.04,952.441 L 1285.04,962.52 L 1285.04,972.598 L 1285.04,982.677 L 1285.04,992.756 L 1285.04,1002.83 L 1285.04,1012.91 L 1285.04,1022.99 L 1285.04,1033.07 L 1285.04,1043.15 L 1274.96,1043.15 L 1264.88,1033.07 L 1254.8,1033.07 L 1244.72,1022.99 L 1234.65,1022.99 L 1234.65,1012.91 L 1234.65,1002.83 L 1234.65,992.756 L 1244.72,992.756 L 1254.8,982.677 L 1254.8,972.598 L 1254.8,962.52 L 1254.8,952.441 L 1244.72,942.362 L 1234.65,942.362 L 1224.57,932.283 L 1214.49,932.283 L 1214.49,922.205 L 1214.49,912.126 L 1204.41,902.047 L 1194.33,902.047 L 1184.25,891.969 L 1174.17,891.969 L 1174.17,881.89 L 1174.17,871.811 L 1164.09,861.732 L 1154.02,861.732 L 1143.94,851.654 L 1133.86,851.654 L 1123.78,851.654 L 1113.7,841.575 L 1113.7,831.496 L 1123.78,831.496 L 1133.86,821.417 L 1143.94,821.417 L 1154.02,811.339 z " style="fill-opacity:0.5;fill:rgb(253,0,0);stroke:rgb(253,0,0);stroke-width:2"/></g>
<g fill-rule="evenodd"><path d="M 1285.04,1043.15 L 1234.65,1022.99 L 1254.8,952.441 L 1214.49,932.283 L 1214.49,912.126 L 1113.7,831.496 L 1154.02,811.339 L 1285.04,811.339 L 1285.04,1043.15 z " style="fill-opacity:0.5;fill:rgb(51,51,153);stroke:rgb(0,0,0);stroke-width:5"/></g>
<g fill-rule="evenodd"><path d="M 5.03937,881.89 L 15.1181,881.89 L 25.1969,881.89 L 35.2756,881.89 L 45.3543,891.969 L 55.4331,891.969 L 65.5118,891.969 L 75.5906,891.969 L 85.6693,891.969 L 95.748,891.969 L 105.827,902.047 L 115.906,902.047 L 125.984,902.047 L 136.063,902.047 L 146.142,902.047 L 156.22,902.047 L 166.299,912.126 L 176.378,912.126 L 186.457,922.205 L 196.535,922.205 L 196.535,932.283 L 186.457,942.362 L 176.378,942.362 L 166.299,942.362 L 156.22,952.441 L 146.142,952.441 L 136.063,952.441 L 125.984,952.441 L 115.906,952.441 L 105.827,952.441 L 95.748,962.52 L 85.6693,962.52 L 75.5906,972.598 L 75.5906,982.677 L 75.5906,992.756 L 65.5118,992.756 L 55.4331,1002.83 L 45.3543,1002.83 L 35.2756,1012.91 L 35.2756,1022.99 L 35.2756,1033.07 L 25.1969,1033.07 L 15.1181,1043.15 L 5.03937,1043.15 L 5.03937,1033.07 L 5.03937,1022.99 L 5.03937,1012.91 L 5.03937,1002.83 L 5.03937,992.756 L 5.03937,982.677 L 5.03937,972.598 L 5.03937,962.52 L 5.03937,952.441 L 5.03937,942.362 L 5.03937,932.283 L 5.03937,922.205 L 5.03937,912.126 L 5.03937,902.047 L 5.03937,891.969 L 5.03937,881.89 z " style="fill-opacity:0.5;fill:rgb(253,0,0);stroke:rgb(253,0,0);stroke-width:2"/></g>
<g fill-rule="evenodd"><path d="M 196.535,932.283 L 85.6693,962.52 L 75.5906,992.756 L 5.03937,1043.15 L 5.03937,881.89 L 156.22,902.047 L 196.535,932.283 z " style="fill-opacity:0.5;fill:rgb(51,51,153);stroke:rgb(0,0,0);stroke-width:5"/></g>
<g fill-rule="evenodd"><path d="M 609.764,902.047 L 619.843,902.047 L 609.764,902.047 z " style="fill-opacity:0.5;fill:rgb(253,0,0);stroke:rgb(253,0,0);stroke-width:2"/></g>
<g fill-rule="evenodd"><path d="M 619.843,902.047 z " style="fill-opacity:0.5;fill:rgb(51,51,153);stroke:rgb(0,0,0);stroke-width:5"/></g>
<g fill-rule="evenodd"><path d="M 448.504,912.126 L 458.583,912.126 L 468.661,922.205 L 478.74,922.205 L 468.661,922.205 L 458.583,912.126 L 448.504,912.126 z " style="fill-opacity:0.5;fill:rgb(253,0,0);stroke:rgb(253,0,0);stroke-width:2"/></g>
<g fill-rule="evenodd"><path d="M 478.74,922.205 L 448.504,912.126 L 478.74,922.205 z " style="fill-opacity:0.5;fill:rgb(51,51,153);stroke:rgb(0,0,0);stroke-width:5"/></g>
<g fill-rule="evenodd"><path d="M 629.921,972.598 L 640,972.598 L 640,982.677 L 629.921,982.677 L 629.921,972.598 z " style="fill-opacity:0.5;fill:rgb(253,0,0);stroke:rgb(253,0,0);stroke-width:2"/></g>
<g fill-rule="evenodd"><path d=" z " style="fill-opacity:0.5;fill:rgb(51,51,153);stroke:rgb(0,0,0);stroke-width:5"/></g>
<g fill-rule="evenodd"><path d="M 871.811,972.598 L 881.89,972.598 L 891.969,972.598 L 902.047,972.598 L 912.126,982.677 L 922.205,982.677 L 932.283,982.677 L 942.362,982.677 L 952.441,982.677 L 962.52,982.677 L 972.598,992.756 L 982.677,992.756 L 992.756,992.756 L 1002.83,992.756 L 1012.91,982.677 L 1012.91,972.598 L 1022.99,972.598 L 1022.99,982.677 L 1022.99,992.756 L 1033.07,1002.83 L 1043.15,1002.83 L 1053.23,1012.91 L 1063.31,1012.91 L 1073.39,1012.91 L 1083.46,1012.91 L 1093.54,1012.91 L 1103.62,1012.91 L 1113.7,1022.99 L 1123.78,1022.99 L 1133.86,1033.07 L 1143.94,1033.07 L 1154.02,1043.15 L 1164.09,1043.15 L 1174.17,1053.23 L 1174.17,1063.31 L 1184.25,1073.39 L 1194.33,1083.46 L 1204.41,1083.46 L 1214.49,1093.54 L 1214.49,1103.62 L 1224.57,1113.7 L 1234.65,1123.78 L 1234.65,1133.86 L 1244.72,1143.94 L 1254.8,1133.86 L 1254.8,1123.78 L 1264.88,1123.78 L 1264.88,1133.86 L 1264.88,1143.94 L 1264.88,1154.02 L 1274.96,1164.09 L 1285.04,1164.09 L 1285.04,1174.17 L 1285.04,1184.25 L 1285.04,1194.33 L 1285.04,1204.41 L 1285.04,1214.49 L 1274.96,1214.49 L 1264.88,1204.41 L 1264.88,1194.33 L 1254.8,1184.25 L 1244.72,1174.17 L 1234.65,1174.17 L 1224.57,1164.09 L 1214.49,1164.09 L 1204.41,1154.02 L 1204.41,1143.94 L 1194.33,1133.86 L 1184.25,1123.78 L 1184.25,1113.7 L 1174.17,1103.62 L 1164.09,1093.54 L 1154.02,1093.54 L 1143.94,1083.46 L 1143.94,1073.39 L 1133.86,1063.31 L 1123.78,1053.23 L 1113.7,1053.23 L 1103.62,1043.15 L 1093.54,1043.15 L 1083.46,1043.15 L 1073.39,1043.15 L 1063.31,1043.15 L 1053.23,1043.15 L 1043.15,1033.07 L 1033.07,1033.07 L 1022.99,1022.99 L 1012.91,1022.99 L 1002.83,1022.99 L 992.756,1022.99 L 982.677,1022.99 L 972.598,1022.99 L 962.52,1012.91 L 952.441,1012.91 L 942.362,1012.91 L 932.283,1012.91 L 922.205,1012.91 L 912.126,1012.91 L 902.047,1002.83 L 891.969,1002.83 L 881.89,1002.83 L 871.811,1002.83 L 861.732,1012.91 L 851.654,1012.91 L 841.575,1012.91 L 831.496,1012.91 L 821.417,1012.91 L 811.339,1012.91 L 801.26,1022.99 L 791.181,1033.07 L 791.181,1043.15 L 781.102,1053.23 L 771.024,1053.23 L 760.945,1063.31 L 750.866,1063.31 L 740.787,1073.39 L 730.709,1073.39 L 720.63,1083.46 L 710.551,1093.54 L 710.551,1103.62 L 700.472,1113.7 L 690.394,1113.7 L 680.315,1123.78 L 670.236,1133.86 L 670.236,1143.94 L 660.157,1143.94 L 650.079,1143.94 L 640,1133.86 L 640,1123.78 L 629.921,1113.7 L 619.843,1103.62 L 619.843,1093.54 L 619.843,1083.46 L 629.921,1073.39 L 619.843,1063.31 L 609.764,1063.31 L 599.685,1063.31 L 589.606,1063.31 L 579.528,1063.31 L 569.449,1063.31 L 559.37,1053.23 L 559.37,1043.15 L 559.37,1033.07 L 569.449,1033.07 L 579.528,1033.07 L 589.606,1033.07 L 599.685,1033.07 L 609.764,1033.07 L 619.843,1033.07 L 629.921,1043.15 L 640,1043.15 L 650.079,1053.23 L 660.157,1053.23 L 670.236,1063.31 L 680.315,1063.31 L 690.394,1063.31 L 700.472,1063.31 L 710.551,1053.23 L 720.63,1053.23 L 730.709,1043.15 L 740.787,1043.15 L 750.866,1033.07 L 760.945,1022.99 L 760.945,1012.91 L 771.024,1002.83 L 781.102,1002.83 L 791.181,992.756 L 801.26,992.756 L 811.339,982.677 L 821.417,982.677 L 831.496,982.677 L 841.575,982.677 L 851.654,982.677 L 861.732,982.677 L 871.811,972.598 z " style="fill-opacity:0.5;fill:rgb(253,0,0);stroke:rgb(253,0,0);stroke-width:2"/></g>
<g fill-rule="evenodd"><path d="M 1285.04,1214.49 L 1214.49,1164.09 L 1184.25,1113.7 L 1103.62,1043.15 L 902.047,1002.83 L 811.339,1012.91 L 781.102,1053.23 L 730.709,1073.39 L 670.236,1143.94 L 650.079,1143.94 L 619.843,1103.62 L 629.921,1073.39 L 569.449,1063.31 L 559.37,1033.07 L 619.843,1033.07 L 670.236,1063.31 L 700.472,1063.31 L 811.339,982.677 L 902.047,972.598 L 1002.83,992.756 L 1022.99,972.598 L 1033.07,1002.83 L 1103.62,1012.91 L 1164.09,1043.15 L 1244.72,1143.94 L 1264.88,1123.78 L 1264.88,1154.02 L 1285.04,1164.09 L 1285.04,1214.49 z " style="fill-opacity:0.5;fill:rgb(51,51,153);stroke:rgb(0,0,0);stroke-width:5"/></g>
<g fill-rule="evenodd"><path d="M 125.984,992.756 L 136.063,992.756 L 146.142,992.756 L 156.22,992.756 L 166.299,992.756 L 176.378,992.756 L 176.378,1002.83 L 176.378,1012.91 L 166.299,1012.91 L 156.22,1022.99 L 156.22,1033.07 L 156.22,1043.15 L 166.299,1053.23 L 176.378,1053.23 L 176.378,1063.31 L 176.378,1073.39 L 176.378,1083.46 L 186.457,1093.54 L 196.535,1093.54 L 196.535,1103.62 L 206.614,1113.7 L 216.693,1113.7 L 226.772,1103.62 L 236.85,1103.62 L 246.929,1113.7 L 257.008,1113.7 L 257.008,1123.78 L 257.008,1133.86 L 257.008,1143.94 L 246.929,1143.94 L 236.85,1154.02 L 236.85,1164.09 L 236.85,1174.17 L 236.85,1184.25 L 226.772,1184.25 L 216.693,1194.33 L 216.693,1204.41 L 216.693,1214.49 L 206.614,1214.49 L 196.535,1224.57 L 186.457,1224.57 L 176.378,1234.65 L 186.457,1244.72 L 196.535,1244.72 L 186.457,1244.72 L 176.378,1234.65 L 166.299,1234.65 L 156.22,1244.72 L 156.22,1254.8 L 166.299,1264.88 L 176.378,1264.88 L 176.378,1274.96 L 186.457,1285.04 L 196.535,1285.04 L 206.614,1285.04 L 216.693,1285.04 L 226.772,1285.04 L 236.85,1285.04 L 246.929,1285.04 L 257.008,1274.96 L 257.008,1264.88 L 267.087,1254.8 L 277.165,1254.8 L 287.244,1254.8 L 297.323,1244.72 L 297.323,1234.65 L 297.323,1224.57 L 307.402,1224.57 L 317.48,1224.57 L 327.559,1224.57 L 337.638,1224.57 L 347.717,1214.49 L 357.795,1204.41 L 347.717,1194.33 L 337.638,1184.25 L 337.638,1174.17 L 327.559,1164.09 L 337.638,1154.02 L 337.638,1143.94 L 347.717,1133.86 L 357.795,1133.86 L 367.874,1123.78 L 377.953,1113.7 L 367.874,1103.62 L 357.795,1093.54 L 357.795,1083.46 L 347.717,1073.39 L 357.795,1063.31 L 357.795,1053.23 L 367.874,1053.23 L 377.953,1053.23 L 388.031,1053.23 L 398.11,1053.23 L 408.189,1053.23 L 418.268,1053.23 L 428.346,1063.31 L 438.425,1063.31 L 448.504,1073.39 L 458.583,1073.39 L 468.661,1083.46 L 478.74,1083.46 L 488.819,1093.54 L 488.819,1103.62 L 488.819,1113.7 L 478.74,1123.78 L 468.661,1123.78 L 458.583,1133.86 L 448.504,1143.94 L 448.504,1154.02 L 438.425,1164.09 L 428.346,1174.17 L 438.425,1184.25 L 448.504,1194.33 L 458.583,1194.33 L 468.661,1204.41 L 478.74,1204.41 L 488.819,1214.49 L 488.819,1224.57 L 498.898,1234.65 L 508.976,1234.65 L 519.055,1234.65 L 529.134,1224.57 L 539.213,1224.57 L 549.291,1224.57 L 559.37,1224.57 L 569.449,1234.65 L 579.528,1234.65 L 589.606,1234.65 L 599.685,1234.65 L 609.764,1234.65 L 619.843,1234.65 L 629.921,1234.65 L 640,1234.65 L 650.079,1224.57 L 660.157,1224.57 L 670.236,1224.57 L 680.315,1214.49 L 680.315,1204.41 L 670.236,1194.33 L 680.315,1184.25 L 680.315,1174.17 L 690.394,1174.17 L 700.472,1174.17 L 710.551,1184.25 L 710.551,1194.33 L 720.63,1204.41 L 730.709,1214.49 L 730.709,1224.57 L 730.709,1234.65 L 720.63,1244.72 L 710.551,1254.8 L 720.63,1264.88 L 730.709,1274.96 L 740.787,1274.96 L 750.866,1285.04 L 760.945,1285.04 L 771.024,1285.04 L 781.102,1285.04 L 791.181,1285.04 L 801.26,1285.04 L 811.339,1285.04 L 821.417,1285.04 L 831.496,1285.04 L 841.575,1285.04 L 851.654,1285.04 L 861.732,1285.04 L 871.811,1285.04 L 881.89,1285.04 L 891.969,1285.04 L 902.047,1285.04 L 912.126,1285.04 L 922.205,1285.04 L 932.283,1285.04 L 942.362,1285.04 L 952.441,1285.04 L 962.52,1285.04 L 972.598,1285.04 L 982.677,1285.04 L 992.756,1285.04 L 1002.83,1285.04 L 1012.91,1285.04 L 1022.99,1285.04 L 1033.07,1285.04 L 1043.15,1285.04 L 1053.23,1285.04 L 1063.31,1285.04 L 1073.39,1285.04 L 1083.46,1285.04 L 1093.54,1285.04 L 1103.62,1285.04 L 1113.7,1285.04 L 1123.78,1285.04 L 1133.86,1285.04 L 1143.94,1285.04 L 1154.02,1285.04 L 1164.09,1285.04 L 1174.17,1285.04 L 1184.25,1285.04 L 1194.33,1285.04 L 1204.41,1285.04 L 1214.49,1285.04 L 1224.57,1285.04 L 1234.65,1285.04 L 1244.72,1274.96 L 1254.8,1274.96 L 1264.88,1274.96 L 1274.96,1274.96 L 1285.04,1274.96 L 1285.04,1285.04 L 1274.96,1285.04 L 1264.88,1285.04 L 1254.8,1285.04 L 1244.72,1285.04 L 1234.65,1285.04 L 1224.57,1285.04 L 1214.49,1285.04 L 1204.41,1285.04 L 1194.33,1285.04 L 1184.25,1285.04 L 1174.17,1285.04 L 1164.09,1285.04 L 1154.02,1285.04 L 1143.94,1285.04 L 1133.86,1285.04 L 1123.78,1285.04 L 1113.7,1285.04 L 1103.62,1285.04 L 1093.54,1285.04 L 1083.46,1285.04 L 1073.39,1285.04 L 1063.31,1285.04 L 1053.23,1285.04 L 1043.15,1285.04 L 1033.07,1285.04 L 1022.99,1285.04 L 1012.91,1285.04 L 1002.83,1285.04 L 992.756,1285.04 L 982.677,1285.04 L 972.598,1285.04 L 962.52,1285.04 L 952.441,1285.04 L 942.362,1285.04 L 932.283,1285.04 L 922.205,1285.04 L 912.126,1285.04 L 902.047,1285.04 L 891.969,1285.04 L 881.89,1285.04 L 871.811,1285.04 L 861.732,1285.04 L 851.654,1285.04 L 841.575,1285.04 L 831.496,1285.04 L 821.417,1285.04 L 811.339,1285.04 L 801.26,1285.04 L 791.181,1285.04 L 781.102,1285.04 L 771.024,1285.04 L 760.945,1285.04 L 750.866,1285.04 L 740.787,1285.04 L 730.709,1285.04 L 720.63,1285.04 L 710.551,1285.04 L 700.472,1285.04 L 690.394,1285.04 L 680.315,1285.04 L 670.236,1285.04 L 660.157,1285.04 L 650.079,1285.04 L 640,1285.04 L 629.921,1285.04 L 619.843,1285.04 L 609.764,1285.04 L 599.685,1285.04 L 589.606,1285.04 L 579.528,1285.04 L 569.449,1285.04 L 559.37,1285.04 L 549.291,1285.04 L 539.213,1285.04 L 529.134,1285.04 L 519.055,1285.04 L 508.976,1285.04 L 498.898,1285.04 L 488.819,1285.04 L 478.74,1285.04 L 468.661,1285.04 L 458.583,1285.04 L 448.504,1285.04 L 438.425,1285.04 L 428.346,1285.04 L 418.268,1285.04 L 408.189,1285.04 L 398.11,1285.04 L 388.031,1285.04 L 377.953,1285.04 L 367.874,1285.04 L 357.795,1285.04 L 347.717,1285.04 L 337.638,1285.04 L 327.559,1285.04 L 317.48,1285.04 L 307.402,1285.04 L 297.323,1285.04 L 287.244,1285.04 L 277.165,1285.04 L 267.087,1285.04 L 257.008,1285.04 L 246.929,1285.04 L 236.85,1285.04 L 226.772,1285.04 L 216.693,1285.04 L 206.614,1285.04 L 196.535,1285.04 L 186.457,1285.04 L 176.378,1285.04 L 166.299,1285.04 L 156.22,1285.04 L 146.142,1285.04 L 136.063,1285.04 L 125.984,1285.04 L 115.906,1285.04 L 105.827,1285.04 L 95.748,1285.04 L 85.6693,1285.04 L 75.5906,1285.04 L 65.5118,1285.04 L 55.4331,1285.04 L 45.3543,1285.04 L 35.2756,1285.04 L 25.1969,1285.04 L 15.1181,1285.04 L 5.03937,1285.04 L 5.03937,1274.96 L 5.03937,1264.88 L 5.03937,1254.8 L 5.03937,1244.72 L 5.03937,1234.65 L 5.03937,1224.57 L 5.03937,1214.49 L 5.03937,1204.41 L 5.03937,1194.33 L 5.03937,1184.25 L 5.03937,1174.17 L 5.03937,1164.09 L 5.03937,1154.02 L 5.03937,1143.94 L 5.03937,1133.86 L 15.1181,1133.86 L 25.1969,1123.78 L 35.2756,1123.78 L 45.3543,1113.7 L 55.4331,1113.7 L 65.5118,1103.62 L 65.5118,1093.54 L 65.5118,1083.46 L 55.4331,1073.39 L 45.3543,1073.39 L 45.3543,1063.31 L 45.3543,1053.23 L 55.4331,1053.23 L 65.5118,1043.15 L 75.5906,1043.15 L 85.6693,1033.07 L 95.748,1033.07 L 105.827,1022.99 L 105.827,1012.91 L 105.827,1002.83 L 115.906,1002.83 L 125.984,992.756 z " style="fill-opacity:0.5;fill:rgb(253,0,0);stroke:rgb(253,0,0);stroke-width:2"/></g>
<g fill-rule="evenodd"><path d="M 1285.04,1285.04 L 5.03937,1285.04 L 5.03937,1133.86 L 65.5118,1103.62 L 45.3543,1053.23 L 95.748,1033.07 L 105.827,1002.83 L 176.378,992.756 L 176.378,1012.91 L 156.22,1022.99 L 176.378,1083.46 L 206.614,1113.7 L 257.008,1113.7 L 236.85,1184.25 L 216.693,1194.33 L 216.693,1214.49 L 176.378,1234.65 L 196.535,1244.72 L 156.22,1244.72 L 186.457,1285.04 L 246.929,1285.04 L 267.087,1254.8 L 297.323,1244.72 L 297.323,1224.57 L 337.638,1224.57 L 357.795,1204.41 L 327.559,1164.09 L 377.953,1113.7 L 347.717,1073.39 L 357.795,1053.23 L 418.268,1053.23 L 488.819,1093.54 L 488.819,1113.7 L 428.346,1174.17 L 498.898,1234.65 L 640,1234.65 L 670.236,1224.57 L 680.315,1174.17 L 700.472,1174.17 L 730.709,1214.49 L 710.551,1254.8 L 750.866,1285.04 L 1285.04,1285.04 z " style="fill-opacity:0.5;fill:rgb(51,51,153);stroke:rgb(0,0,0);stroke-width:5"/></g>
<g fill-rule="evenodd"><path d="M 5.03937,1093.54 L 15.1181,1093.54 L 15.1181,1103.62 L 5.03937,1103.62 L 5.03937,1093.54M 55.4331,1113.7 L 45.3543,1123.78 L 55.4331,1133.86 L 65.5118,1123.78 L 55.4331,1113.7M 367.874,1133.86 L 357.795,1143.94 L 357.795,1154.02 L 357.795,1164.09 L 357.795,1174.17 L 367.874,1184.25 L 377.953,1184.25 L 377.953,1194.33 L 388.031,1204.41 L 398.11,1204.41 L 408.189,1194.33 L 408.189,1184.25 L 408.189,1174.17 L 408.189,1164.09 L 408.189,1154.02 L 418.268,1154.02 L 428.346,1143.94 L 418.268,1133.86 L 408.189,1133.86 L 398.11,1133.86 L 388.031,1133.86 L 377.953,1133.86 L 367.874,1133.86M 35.2756,1154.02 L 25.1969,1164.09 L 35.2756,1174.17 L 45.3543,1164.09 L 35.2756,1154.02M 105.827,1224.57 L 95.748,1234.65 L 105.827,1244.72 L 115.906,1244.72 L 125.984,1234.65 L 115.906,1224.57 L 105.827,1224.57M 45.3543,1244.72 L 35.2756,1254.8 L 45.3543,1264.88 L 55.4331,1254.8 L 45.3543,1244.72 z " style="fill-opacity:0.5;fill:rgb(253,0,0);stroke:rgb(253,0,0);stroke-width:2"/></g>
<g fill-rule="evenodd"><path d="M 398.11,1204.41 L 408.189,1154.02 L 428.346,1143.94 L 367.874,1133.86 L 357.795,1174.17 L 398.11,1204.41M 115.906,1244.72 L 125.984,1234.65 L 105.827,1224.57 L 95.748,1234.65 L 115.906,1244.72 z " style="fill-opacity:0.5;fill:rgb(51,51,153);stroke:rgb(0,0,0);stroke-width:5"/></g>
</svg>
