<?xml version="1.0" standalone="no"?>
<!DOCTYPE svg PUBLIC "-//W3C//DTD SVG 1.1//EN"
"http://www.w3.org/Graphics/SVG/1.1/DTD/svg11.dtd">
<svg width="100%" height="100%" version="1.1"
xmlns="http://www.w3.org/2000/svg"
xmlns:xlink="http://www.w3.org/1999/xlink">
<g fill-rule="evenodd"><path d="M 4.53543,4.53543 L 13.6063,4.53543 L 22.6772,4.53543 L 31.748,4.53543 L 40.8189,4.53543 L 49.8898,4.53543 L 58.9606,4.53543 L 68.0315,4.53543 L 77.1024,4.53543 L 86.1732,4.53543 L 95.2441,4.53543 L 104.315,4.53543 L 113.386,4.53543 L 122.457,4.53543 L 131.528,4.53543 L 140.598,4.53543 L 149.669,4.53543 L 158.74,4.53543 L 167.811,4.53543 L 176.882,4.53543 L 185.953,4.53543 L 195.024,4.53543 L 204.094,4.53543 L 213.165,4.53543 L 222.236,4.53543 L 222.236,13.6063 L 222.236,22.6772 L 231.307,31.748 L 231.307,40.8189 L 222.236,40.8189 L 213.165,49.8898 L 222.236,58.9606 L 231.307,58.9606 L 240.378,58.9606 L 249.449,58.9606 L 258.52,49.8898 L 267.591,40.8189 L 267.591,31.748 L 276.661,31.748 L 285.732,31.748 L 294.803,40.8189 L 303.874,40.8189 L 312.945,40.8189 L 322.016,40.8189 L 331.087,40.8189 L 331.087,49.8898 L 340.157,58.9606 L 331.087,68.0315 L 331.087,77.1024 L 322.016,86.1732 L 331.087,95.2441 L 331.087,104.315 L 331.087,113.386 L 322.016,122.457 L 312.945,131.528 L 322.016,140.598 L 312.945,149.669 L 312.945,158.74 L 303.874,158.74 L 294.803,158.74 L 285.732,149.669 L 285.732,140.598 L 276.661,131.528 L 267.591,122.457 L 258.52,122.457 L 249.449,113.386 L 240.378,113.386 L 231.307,104.315 L 222.236,104.315 L 213.165,95.2441 L 213.165,86.1732 L 204.094,77.1024 L 195.024,68.0315 L 185.953,68.0315 L 176.882,58.9606 L 167.811,58.9606 L 158.74,58.9606 L 149.669,58.9606 L 140.598,68.0315 L 131.528,68.0315 L 122.457,68.0315 L 113.386,68.0315 L 104.315,68.0315 L 95.2441,68.0315 L 86.1732,77.1024 L 77.1024,77.1024 L 68.0315,86.1732 L 58.9606,86.1732 L 49.8898,95.2441 L 58.9606,104.315 L 58.9606,113.386 L 58.9606,122.457 L 49.8898,131.528 L 40.8189,140.598 L 49.8898,149.669 L 58.9606,158.74 L 68.0315,158.74 L 77.1024,167.811 L 77.1024,176.882 L 77.1024,185.953 L 86.1732,195.024 L 95.2441,195.024 L 104.315,195.024 L 113.386,204.094 L 113.386,213.165 L 113.386,222.236 L 104.315,222.236 L 95.2441,222.236 L 86.1732,222.236 L 77.1024,222.236 L 68.0315,231.307 L 58.9606,231.307 L 49.8898,240.378 L 40.8189,240.378 L 31.748,240.378 L 22.6772,240.378 L 13.6063,240.378 L 4.53543,249.449 L 4.53543,258.52 L 4.53543,249.449 L 4.53543,240.378 L 4.53543,231.307 L 4.53543,222.236 L 4.53543,213.165 L 4.53543,204.094 L 4.53543,195.024 L 4.53543,185.953 L 4.53543,176.882 L 4.53543,167.811 L 4.53543,158.74 L 13.6063,149.669 L 4.53543,140.598 L 4.53543,131.528 L 4.53543,122.457 L 4.53543,113.386 L 4.53543,104.315 L 4.53543,95.2441 L 4.53543,86.1732 L 4.53543,77.1024 L 4.53543,68.0315 L 4.53543,58.9606 L 4.53543,49.8898 L 4.53543,40.8189 L 4.53543,31.748 L 4.53543,22.6772 L 4.53543,13.6063 L 4.53543,4.53543 z " style="fill-opacity:0.5;fill:rgb(253,0,0);stroke:rgb(253,0,0);stroke-width:2"/></g>
<g fill-rule="evenodd"><path d="M 322.016,140.598 L 322.016,86.1732 L 340.157,58.9606 L 331.087,40.8189 L 267.591,31.748 L 249.449,58.9606 L 222.236,58.9606 L 222.236,4.53543 L 4.53543,4.53543 L 4.53543,258.52 L 13.6063,240.378 L 113.386,222.236 L 113.386,204.094 L 86.1732,195.024 L 77.1024,167.811 L 40.8189,140.598 L 58.9606,122.457 L 49.8898,95.2441 L 95.2441,68.0315 L 176.882,58.9606 L 222.236,104.315 L 267.591,122.457 L 294.803,158.74 L 312.945,158.74 L 322.016,140.598 z " style="fill-opacity:0.5;fill:rgb(0,253,0);stroke:rgb(0,0,0);stroke-width:5"/></g>
<g fill-rule="evenodd"><path d="M 566.929,4.53543 L 576,4.53543 L 585.071,4.53543 L 594.142,4.53543 L 603.213,4.53543 L 612.283,4.53543 L 621.354,4.53543 L 630.425,4.53543 L 621.354,4.53543 L 612.283,13.6063 L 612.283,22.6772 L 612.283,31.748 L 612.283,40.8189 L 612.283,49.8898 L 603.213,49.8898 L 594.142,58.9606 L 594.142,68.0315 L 585.071,68.0315 L 576,77.1024 L 576,86.1732 L 566.929,86.1732 L 557.858,86.1732 L 548.787,86.1732 L 548.787,77.1024 L 548.787,68.0315 L 548.787,58.9606 L 548.787,49.8898 L 557.858,49.8898 L 566.929,40.8189 L 557.858,31.748 L 548.787,31.748 L 548.787,22.6772 L 548.787,13.6063 L 557.858,13.6063 L 566.929,4.53543 z " style="fill-opacity:0.5;fill:rgb(253,0,0);stroke:rgb(253,0,0);stroke-width:2"/></g>
<g fill-rule="evenodd"><path d="M 548.787,86.1732 L 576,86.1732 L 612.283,49.8898 L 612.283,13.6063 L 630.425,4.53543 L 548.787,13.6063 L 548.787,31.748 L 566.929,40.8189 L 548.787,49.8898 L 548.787,86.1732 z " style="fill-opacity:0.5;fill:rgb(0,253,0);stroke:rgb(0,0,0);stroke-width:5"/></g>
<g fill-rule="evenodd"><path d="M 675.78,4.53543 L 684.85,4.53543 L 693.921,4.53543 L 702.992,4.53543 L 712.063,4.53543 L 721.134,4.53543 L 712.063,4.53543 L 702.992,13.6063 L 702.992,22.6772 L 712.063,31.748 L 721.134,31.748 L 721.134,40.8189 L 712.063,40.8189 L 702.992,49.8898 L 693.921,49.8898 L 684.85,58.9606 L 684.85,68.0315 L 684.85,77.1024 L 675.78,77.1024 L 666.709,86.1732 L 657.638,86.1732 L 648.567,95.2441 L 648.567,104.315 L 648.567,113.386 L 648.567,122.457 L 648.567,131.528 L 648.567,140.598 L 657.638,149.669 L 666.709,149.669 L 666.709,158.74 L 657.638,158.74 L 648.567,167.811 L 639.496,167.811 L 630.425,167.811 L 621.354,158.74 L 612.283,158.74 L 603.213,149.669 L 594.142,149.669 L 585.071,140.598 L 594.142,140.598 L 603.213,131.528 L 603.213,122.457 L 594.142,113.386 L 585.071,113.386 L 585.071,104.315 L 594.142,104.315 L 603.213,95.2441 L 612.283,95.2441 L 621.354,86.1732 L 630.425,86.1732 L 639.496,77.1024 L 639.496,68.0315 L 639.496,58.9606 L 648.567,58.9606 L 657.638,49.8898 L 666.709,49.8898 L 675.78,40.8189 L 675.78,31.748 L 666.709,22.6772 L 657.638,22.6772 L 657.638,13.6063 L 666.709,13.6063 L 675.78,4.53543 z " style="fill-opacity:0.5;fill:rgb(253,0,0);stroke:rgb(253,0,0);stroke-width:2"/></g>
<g fill-rule="evenodd"><path d="M 630.425,167.811 L 666.709,158.74 L 648.567,140.598 L 648.567,95.2441 L 721.134,40.8189 L 702.992,22.6772 L 721.134,4.53543 L 657.638,13.6063 L 675.78,40.8189 L 639.496,58.9606 L 630.425,86.1732 L 585.071,104.315 L 603.213,122.457 L 585.071,140.598 L 630.425,167.811 z " style="fill-opacity:0.5;fill:rgb(0,253,0);stroke:rgb(0,0,0);stroke-width:5"/></g>
<g fill-rule="evenodd"><path d="M 857.197,4.53543 L 866.268,4.53543 L 875.339,4.53543 L 884.409,4.53543 L 893.48,4.53543 L 902.551,4.53543 L 911.622,4.53543 L 911.622,13.6063 L 920.693,22.6772 L 911.622,31.748 L 911.622,40.8189 L 902.551,49.8898 L 893.48,49.8898 L 884.409,58.9606 L 893.48,68.0315 L 893.48,77.1024 L 902.551,86.1732 L 911.622,95.2441 L 911.622,104.315 L 911.622,113.386 L 902.551,122.457 L 911.622,131.528 L 911.622,140.598 L 911.622,149.669 L 902.551,158.74 L 893.48,167.811 L 893.48,176.882 L 884.409,185.953 L 875.339,185.953 L 866.268,195.024 L 857.197,204.094 L 866.268,213.165 L 875.339,222.236 L 884.409,222.236 L 893.48,222.236 L 902.551,222.236 L 911.622,213.165 L 911.622,204.094 L 920.693,204.094 L 920.693,213.165 L 929.764,222.236 L 938.835,213.165 L 938.835,204.094 L 947.906,204.094 L 956.976,204.094 L 966.047,213.165 L 966.047,222.236 L 975.118,231.307 L 984.189,231.307 L 993.26,231.307 L 1002.33,231.307 L 1002.33,240.378 L 1011.4,249.449 L 1020.47,258.52 L 1029.54,258.52 L 1038.61,267.591 L 1038.61,276.661 L 1047.69,285.732 L 1056.76,294.803 L 1056.76,303.874 L 1056.76,312.945 L 1047.69,312.945 L 1038.61,312.945 L 1029.54,303.874 L 1020.47,303.874 L 1011.4,294.803 L 1011.4,285.732 L 1002.33,276.661 L 993.26,267.591 L 984.189,267.591 L 975.118,267.591 L 966.047,267.591 L 956.976,276.661 L 947.906,276.661 L 938.835,276.661 L 929.764,276.661 L 920.693,276.661 L 911.622,276.661 L 902.551,276.661 L 893.48,276.661 L 884.409,276.661 L 875.339,276.661 L 866.268,285.732 L 857.197,294.803 L 866.268,303.874 L 857.197,312.945 L 857.197,322.016 L 848.126,331.087 L 839.055,340.157 L 839.055,349.228 L 829.984,358.299 L 839.055,367.37 L 839.055,376.441 L 848.126,385.512 L 857.197,394.583 L 866.268,394.583 L 875.339,394.583 L 884.409,394.583 L 893.48,394.583 L 902.551,394.583 L 911.622,403.654 L 920.693,403.654 L 929.764,412.724 L 938.835,412.724 L 947.906,421.795 L 947.906,430.866 L 947.906,439.937 L 938.835,439.937 L 929.764,439.937 L 920.693,439.937 L 911.622,449.008 L 911.622,458.079 L 902.551,458.079 L 893.48,458.079 L 884.409,458.079 L 875.339,458.079 L 866.268,467.15 L 857.197,467.15 L 848.126,467.15 L 839.055,467.15 L 829.984,467.15 L 820.913,467.15 L 811.843,467.15 L 811.843,458.079 L 802.772,449.008 L 811.843,439.937 L 802.772,430.866 L 793.701,430.866 L 784.63,430.866 L 775.559,430.866 L 766.488,430.866 L 757.417,421.795 L 748.346,421.795 L 739.276,412.724 L 739.276,403.654 L 739.276,394.583 L 748.346,385.512 L 757.417,376.441 L 748.346,367.37 L 739.276,358.299 L 739.276,349.228 L 730.205,340.157 L 739.276,331.087 L 730.205,322.016 L 739.276,312.945 L 739.276,303.874 L 748.346,294.803 L 757.417,285.732 L 757.417,276.661 L 748.346,267.591 L 757.417,258.52 L 757.417,249.449 L 757.417,240.378 L 766.488,231.307 L 775.559,231.307 L 784.63,222.236 L 793.701,213.165 L 793.701,204.094 L 802.772,204.094 L 811.843,204.094 L 820.913,204.094 L 829.984,195.024 L 829.984,185.953 L 839.055,176.882 L 848.126,176.882 L 857.197,167.811 L 866.268,158.74 L 866.268,149.669 L 875.339,140.598 L 866.268,131.528 L 866.268,122.457 L 866.268,113.386 L 875.339,104.315 L 866.268,95.2441 L 866.268,86.1732 L 857.197,77.1024 L 848.126,68.0315 L 848.126,58.9606 L 848.126,49.8898 L 857.197,40.8189 L 866.268,40.8189 L 875.339,31.748 L 884.409,22.6772 L 875.339,13.6063 L 866.268,4.53543 L 857.197,4.53543M 149.669,13.6063 L 140.598,4.53543 L 131.528,4.53543 L 122.457,4.53543 L 113.386,4.53543 L 104.315,4.53543 L 95.2441,4.53543 L 86.1732,13.6063 L 86.1732,22.6772 L 77.1024,22.6772 L 68.0315,31.748 L 68.0315,40.8189 L 77.1024,49.8898 L 86.1732,49.8898 L 95.2441,49.8898 L 104.315,49.8898 L 113.386,49.8898 L 122.457,49.8898 L 131.528,49.8898 L 140.598,49.8898 L 149.669,40.8189 L 158.74,40.8189 L 167.811,40.8189 L 176.882,40.8189 L 185.953,31.748 L 176.882,22.6772 L 167.811,22.6772 L 158.74,13.6063 L 149.669,13.6063 z " style="fill-opacity:0.5;fill:rgb(253,0,0);stroke:rgb(253,0,0);stroke-width:2"/></g>
<g fill-rule="evenodd"><path d="M 811.843,467.15 L 866.268,467.15 L 947.906,439.937 L 938.835,412.724 L 902.551,394.583 L 857.197,394.583 L 829.984,358.299 L 875.339,276.661 L 993.26,267.591 L 1020.47,303.874 L 1056.76,312.945 L 1038.61,267.591 L 1002.33,231.307 L 975.118,231.307 L 956.976,204.094 L 938.835,204.094 L 929.764,222.236 L 920.693,204.094 L 902.551,222.236 L 875.339,222.236 L 857.197,204.094 L 911.622,149.669 L 911.622,95.2441 L 884.409,58.9606 L 920.693,22.6772 L 911.622,4.53543 L 857.197,4.53543 L 884.409,22.6772 L 848.126,49.8898 L 875.339,104.315 L 875.339,140.598 L 820.913,204.094 L 793.701,204.094 L 757.417,240.378 L 757.417,285.732 L 730.205,322.016 L 757.417,376.441 L 739.276,412.724 L 766.488,430.866 L 802.772,430.866 L 811.843,467.15M 68.0315,40.8189 L 95.2441,4.53543 L 140.598,4.53543 L 185.953,31.748 L 140.598,49.8898 L 68.0315,40.8189 z " style="fill-opacity:0.5;fill:rgb(0,253,0);stroke:rgb(0,0,0);stroke-width:5"/></g>
<g fill-rule="evenodd"><path d="M 385.512,13.6063 L 394.583,13.6063 L 385.512,13.6063 z " style="fill-opacity:0.5;fill:rgb(253,0,0);stroke:rgb(253,0,0);stroke-width:2"/></g>
<g fill-rule="evenodd"><path d="M 394.583,13.6063 z " style="fill-opacity:0.5;fill:rgb(0,253,0);stroke:rgb(0,0,0);stroke-width:5"/></g>
<g fill-rule="evenodd"><path d="M 512.504,176.882 L 521.575,176.882 L 530.646,176.882 L 539.717,185.953 L 548.787,185.953 L 557.858,195.024 L 566.929,195.024 L 566.929,204.094 L 557.858,213.165 L 557.858,222.236 L 566.929,231.307 L 576,231.307 L 585.071,240.378 L 594.142,240.378 L 603.213,249.449 L 612.283,249.449 L 612.283,258.52 L 603.213,258.52 L 594.142,267.591 L 594.142,276.661 L 603.213,285.732 L 612.283,285.732 L 612.283,294.803 L 603.213,294.803 L 594.142,303.874 L 594.142,312.945 L 594.142,322.016 L 585.071,322.016 L 576,331.087 L 576,340.157 L 576,349.228 L 566.929,349.228 L 557.858,358.299 L 548.787,358.299 L 539.717,367.37 L 539.717,376.441 L 539.717,385.512 L 530.646,385.512 L 521.575,394.583 L 521.575,403.654 L 530.646,412.724 L 539.717,412.724 L 548.787,421.795 L 557.858,421.795 L 557.858,430.866 L 557.858,439.937 L 566.929,449.008 L 576,449.008 L 576,458.079 L 566.929,458.079 L 557.858,467.15 L 557.858,476.22 L 557.858,485.291 L 548.787,485.291 L 539.717,494.362 L 530.646,494.362 L 521.575,503.433 L 521.575,512.504 L 530.646,521.575 L 539.717,521.575 L 530.646,530.646 L 521.575,530.646 L 512.504,539.717 L 503.433,539.717 L 494.362,548.787 L 485.291,548.787 L 476.22,557.858 L 467.15,557.858 L 458.079,557.858 L 449.008,548.787 L 439.937,548.787 L 439.937,539.717 L 449.008,539.717 L 458.079,530.646 L 467.15,530.646 L 476.22,521.575 L 476.22,512.504 L 476.22,503.433 L 485.291,503.433 L 494.362,494.362 L 494.362,485.291 L 494.362,476.22 L 503.433,476.22 L 512.504,467.15 L 521.575,467.15 L 530.646,458.079 L 530.646,449.008 L 521.575,439.937 L 512.504,439.937 L 512.504,430.866 L 512.504,421.795 L 503.433,412.724 L 494.362,412.724 L 485.291,403.654 L 476.22,403.654 L 476.22,394.583 L 485.291,394.583 L 494.362,385.512 L 494.362,376.441 L 494.362,367.37 L 503.433,367.37 L 512.504,358.299 L 512.504,349.228 L 521.575,349.228 L 530.646,340.157 L 530.646,331.087 L 539.717,331.087 L 548.787,322.016 L 548.787,312.945 L 548.787,303.874 L 557.858,303.874 L 566.929,294.803 L 566.929,285.732 L 557.858,276.661 L 548.787,276.661 L 548.787,267.591 L 557.858,267.591 L 566.929,258.52 L 566.929,249.449 L 557.858,240.378 L 548.787,240.378 L 539.717,231.307 L 530.646,231.307 L 521.575,222.236 L 512.504,222.236 L 503.433,213.165 L 494.362,213.165 L 485.291,204.094 L 476.22,204.094 L 476.22,195.024 L 485.291,195.024 L 494.362,185.953 L 503.433,185.953 L 512.504,176.882 z " style="fill-opacity:0.5;fill:rgb(253,0,0);stroke:rgb(253,0,0);stroke-width:2"/></g>
<g fill-rule="evenodd"><path d="M 458.079,557.858 L 539.717,521.575 L 521.575,503.433 L 557.858,485.291 L 576,449.008 L 521.575,394.583 L 548.787,358.299 L 576,349.228 L 576,331.087 L 612.283,294.803 L 594.142,276.661 L 612.283,249.449 L 566.929,231.307 L 566.929,195.024 L 530.646,176.882 L 476.22,204.094 L 557.858,240.378 L 566.929,258.52 L 548.787,276.661 L 566.929,294.803 L 476.22,394.583 L 512.504,421.795 L 530.646,458.079 L 494.362,476.22 L 467.15,530.646 L 439.937,539.717 L 458.079,557.858 z " style="fill-opacity:0.5;fill:rgb(0,253,0);stroke:rgb(0,0,0);stroke-width:5"/></g>
<g fill-rule="evenodd"><path d="M 213.165,185.953 L 222.236,185.953 L 231.307,185.953 L 240.378,195.024 L 240.378,204.094 L 249.449,213.165 L 240.378,222.236 L 249.449,231.307 L 258.52,240.378 L 258.52,249.449 L 258.52,258.52 L 249.449,267.591 L 258.52,276.661 L 258.52,285.732 L 267.591,294.803 L 276.661,303.874 L 285.732,303.874 L 285.732,312.945 L 276.661,322.016 L 276.661,331.087 L 285.732,340.157 L 294.803,349.228 L 303.874,349.228 L 312.945,358.299 L 312.945,367.37 L 312.945,376.441 L 303.874,385.512 L 294.803,394.583 L 303.874,403.654 L 312.945,412.724 L 312.945,421.795 L 312.945,430.866 L 303.874,439.937 L 294.803,449.008 L 294.803,458.079 L 285.732,467.15 L 294.803,476.22 L 294.803,485.291 L 294.803,494.362 L 285.732,503.433 L 276.661,512.504 L 276.661,521.575 L 267.591,530.646 L 258.52,539.717 L 258.52,548.787 L 249.449,557.858 L 249.449,566.929 L 240.378,566.929 L 231.307,566.929 L 222.236,576 L 222.236,585.071 L 231.307,594.142 L 231.307,603.213 L 222.236,603.213 L 213.165,594.142 L 204.094,603.213 L 204.094,612.283 L 195.024,621.354 L 185.953,621.354 L 176.882,630.425 L 167.811,630.425 L 158.74,639.496 L 149.669,639.496 L 140.598,639.496 L 131.528,639.496 L 122.457,639.496 L 113.386,639.496 L 104.315,639.496 L 95.2441,639.496 L 86.1732,639.496 L 77.1024,639.496 L 68.0315,648.567 L 58.9606,648.567 L 49.8898,648.567 L 40.8189,648.567 L 31.748,648.567 L 22.6772,648.567 L 13.6063,657.638 L 4.53543,657.638 L 4.53543,648.567 L 4.53543,639.496 L 4.53543,630.425 L 13.6063,630.425 L 22.6772,621.354 L 31.748,621.354 L 40.8189,621.354 L 49.8898,621.354 L 58.9606,621.354 L 68.0315,621.354 L 77.1024,612.283 L 86.1732,612.283 L 95.2441,612.283 L 104.315,612.283 L 113.386,612.283 L 122.457,612.283 L 131.528,612.283 L 140.598,612.283 L 149.669,612.283 L 158.74,612.283 L 167.811,603.213 L 176.882,594.142 L 176.882,585.071 L 185.953,576 L 195.024,566.929 L 195.024,557.858 L 204.094,548.787 L 213.165,548.787 L 222.236,539.717 L 231.307,530.646 L 231.307,521.575 L 240.378,512.504 L 249.449,503.433 L 249.449,494.362 L 258.52,485.291 L 249.449,476.22 L 249.449,467.15 L 249.449,458.079 L 258.52,449.008 L 267.591,439.937 L 267.591,430.866 L 276.661,421.795 L 267.591,412.724 L 267.591,403.654 L 258.52,394.583 L 267.591,385.512 L 267.591,376.441 L 276.661,367.37 L 267.591,358.299 L 258.52,358.299 L 249.449,349.228 L 249.449,340.157 L 240.378,331.087 L 231.307,322.016 L 231.307,312.945 L 222.236,303.874 L 231.307,294.803 L 222.236,285.732 L 213.165,285.732 L 204.094,285.732 L 195.024,285.732 L 185.953,285.732 L 176.882,276.661 L 167.811,276.661 L 158.74,276.661 L 149.669,276.661 L 140.598,276.661 L 131.528,276.661 L 122.457,267.591 L 122.457,258.52 L 122.457,249.449 L 131.528,249.449 L 140.598,249.449 L 149.669,249.449 L 158.74,249.449 L 167.811,249.449 L 176.882,249.449 L 185.953,258.52 L 195.024,258.52 L 204.094,258.52 L 213.165,258.52 L 222.236,249.449 L 213.165,240.378 L 213.165,231.307 L 204.094,222.236 L 213.165,213.165 L 204.094,204.094 L 213.165,195.024 L 213.165,185.953 z " style="fill-opacity:0.5;fill:rgb(253,0,0);stroke:rgb(253,0,0);stroke-width:2"/></g>
<g fill-rule="evenodd"><path d="M 4.53543,657.638 L 77.1024,639.496 L 158.74,639.496 L 195.024,621.354 L 213.165,594.142 L 231.307,603.213 L 222.236,576 L 249.449,566.929 L 294.803,494.362 L 285.732,467.15 L 312.945,430.866 L 294.803,394.583 L 312.945,358.299 L 276.661,331.087 L 285.732,303.874 L 249.449,267.591 L 258.52,240.378 L 231.307,185.953 L 213.165,185.953 L 204.094,204.094 L 222.236,249.449 L 213.165,258.52 L 122.457,249.449 L 122.457,267.591 L 231.307,294.803 L 231.307,322.016 L 276.661,367.37 L 258.52,394.583 L 276.661,421.795 L 249.449,458.079 L 258.52,485.291 L 158.74,612.283 L 22.6772,621.354 L 4.53543,630.425 L 4.53543,657.638 z " style="fill-opacity:0.5;fill:rgb(0,253,0);stroke:rgb(0,0,0);stroke-width:5"/></g>
<g fill-rule="evenodd"><path d="M 439.937,240.378 L 449.008,240.378 L 439.937,240.378 z " style="fill-opacity:0.5;fill:rgb(253,0,0);stroke:rgb(253,0,0);stroke-width:2"/></g>
<g fill-rule="evenodd"><path d="M 449.008,240.378 z " style="fill-opacity:0.5;fill:rgb(0,253,0);stroke:rgb(0,0,0);stroke-width:5"/></g>
<g fill-rule="evenodd"><path d="M 476.22,258.52 L 485.291,258.52 L 476.22,258.52M 802.772,267.591 L 793.701,276.661 L 784.63,276.661 L 775.559,285.732 L 775.559,294.803 L 766.488,294.803 L 757.417,303.874 L 757.417,312.945 L 757.417,322.016 L 757.417,331.087 L 757.417,340.157 L 766.488,349.228 L 775.559,349.228 L 784.63,358.299 L 793.701,358.299 L 802.772,349.228 L 811.843,349.228 L 820.913,340.157 L 820.913,331.087 L 820.913,322.016 L 829.984,322.016 L 839.055,312.945 L 839.055,303.874 L 839.055,294.803 L 839.055,285.732 L 829.984,276.661 L 820.913,276.661 L 811.843,267.591 L 802.772,267.591 z " style="fill-opacity:0.5;fill:rgb(253,0,0);stroke:rgb(253,0,0);stroke-width:2"/></g>
<g fill-rule="evenodd"><path d="M 485.291,258.52M 784.63,358.299 L 757.417,340.157 L 757.417,303.874 L 811.843,267.591 L 839.055,285.732 L 839.055,312.945 L 811.843,349.228 L 784.63,358.299 z " style="fill-opacity:0.5;fill:rgb(0,253,0);stroke:rgb(0,0,0);stroke-width:5"/></g>
<g fill-rule="evenodd"><path d="M 349.228,285.732 L 358.299,285.732 L 358.299,294.803 L 349.228,294.803 L 349.228,285.732 z " style="fill-opacity:0.5;fill:rgb(253,0,0);stroke:rgb(253,0,0);stroke-width:2"/></g>
<g fill-rule="evenodd"><path d=" z " style="fill-opacity:0.5;fill:rgb(0,253,0);stroke:rgb(0,0,0);stroke-width:5"/></g>
<g fill-rule="evenodd"><path d="M 267.591,312.945 L 276.661,303.874 L 267.591,294.803 L 258.52,303.874 L 267.591,312.945 z " style="fill-opacity:0.5;fill:rgb(253,0,0);stroke:rgb(253,0,0);stroke-width:2"/></g>
<g fill-rule="evenodd"><path d=" z " style="fill-opacity:0.5;fill:rgb(0,253,0);stroke:rgb(0,0,0);stroke-width:5"/></g>
<g fill-rule="evenodd"><path d="M 1065.83,340.157 L 1074.9,340.157 L 1083.97,340.157 L 1093.04,349.228 L 1102.11,349.228 L 1111.18,349.228 L 1120.25,349.228 L 1129.32,349.228 L 1138.39,349.228 L 1147.46,349.228 L 1156.54,349.228 L 1156.54,358.299 L 1156.54,367.37 L 1156.54,376.441 L 1156.54,385.512 L 1156.54,394.583 L 1147.46,394.583 L 1147.46,385.512 L 1138.39,376.441 L 1129.32,376.441 L 1120.25,376.441 L 1111.18,376.441 L 1102.11,376.441 L 1093.04,385.512 L 1093.04,394.583 L 1093.04,403.654 L 1083.97,403.654 L 1074.9,403.654 L 1065.83,394.583 L 1056.76,394.583 L 1047.69,394.583 L 1038.61,394.583 L 1029.54,394.583 L 1020.47,394.583 L 1011.4,385.512 L 1011.4,376.441 L 1011.4,367.37 L 1020.47,367.37 L 1029.54,367.37 L 1038.61,367.37 L 1047.69,367.37 L 1056.76,358.299 L 1065.83,349.228 L 1065.83,340.157 z " style="fill-opacity:0.5;fill:rgb(253,0,0);stroke:rgb(253,0,0);stroke-width:2"/></g>
<g fill-rule="evenodd"><path d="M 1156.54,394.583 L 1156.54,349.228 L 1065.83,340.157 L 1047.69,367.37 L 1011.4,367.37 L 1020.47,394.583 L 1093.04,403.654 L 1102.11,376.441 L 1138.39,376.441 L 1156.54,394.583 z " style="fill-opacity:0.5;fill:rgb(0,253,0);stroke:rgb(0,0,0);stroke-width:5"/></g>
<g fill-rule="evenodd"><path d="M 639.496,421.795 L 648.567,421.795 L 639.496,421.795 z " style="fill-opacity:0.5;fill:rgb(253,0,0);stroke:rgb(253,0,0);stroke-width:2"/></g>
<g fill-rule="evenodd"><path d="M 648.567,421.795 z " style="fill-opacity:0.5;fill:rgb(0,253,0);stroke:rgb(0,0,0);stroke-width:5"/></g>
<g fill-rule="evenodd"><path d="M 367.37,557.858 L 376.441,557.858 L 367.37,557.858 z " style="fill-opacity:0.5;fill:rgb(253,0,0);stroke:rgb(253,0,0);stroke-width:2"/></g>
<g fill-rule="evenodd"><path d="M 376.441,557.858 z " style="fill-opacity:0.5;fill:rgb(0,253,0);stroke:rgb(0,0,0);stroke-width:5"/></g>
<g fill-rule="evenodd"><path d="M 594.142,557.858 L 603.213,557.858 L 612.283,557.858 L 621.354,566.929 L 630.425,566.929 L 630.425,576 L 630.425,585.071 L 639.496,594.142 L 648.567,594.142 L 657.638,603.213 L 666.709,603.213 L 666.709,612.283 L 666.709,621.354 L 675.78,630.425 L 684.85,630.425 L 675.78,639.496 L 666.709,639.496 L 657.638,648.567 L 648.567,648.567 L 639.496,657.638 L 630.425,657.638 L 621.354,666.709 L 612.283,666.709 L 603.213,666.709 L 594.142,666.709 L 585.071,666.709 L 576,666.709 L 566.929,657.638 L 557.858,657.638 L 548.787,648.567 L 539.717,648.567 L 530.646,639.496 L 521.575,639.496 L 512.504,630.425 L 521.575,630.425 L 530.646,621.354 L 539.717,621.354 L 548.787,612.283 L 548.787,603.213 L 539.717,594.142 L 539.717,585.071 L 548.787,585.071 L 557.858,576 L 566.929,576 L 576,566.929 L 585.071,566.929 L 594.142,557.858 z " style="fill-opacity:0.5;fill:rgb(253,0,0);stroke:rgb(253,0,0);stroke-width:2"/></g>
<g fill-rule="evenodd"><path d="M 684.85,630.425 L 612.283,557.858 L 539.717,585.071 L 548.787,612.283 L 512.504,630.425 L 576,666.709 L 621.354,666.709 L 684.85,630.425 z " style="fill-opacity:0.5;fill:rgb(0,253,0);stroke:rgb(0,0,0);stroke-width:5"/></g>
<g fill-rule="evenodd"><path d="M 748.346,557.858 L 757.417,557.858 L 757.417,566.929 L 748.346,566.929 L 748.346,557.858 z " style="fill-opacity:0.5;fill:rgb(253,0,0);stroke:rgb(253,0,0);stroke-width:2"/></g>
<g fill-rule="evenodd"><path d=" z " style="fill-opacity:0.5;fill:rgb(0,253,0);stroke:rgb(0,0,0);stroke-width:5"/></g>
<g fill-rule="evenodd"><path d="M 984.189,557.858 L 993.26,557.858 L 984.189,557.858 z " style="fill-opacity:0.5;fill:rgb(253,0,0);stroke:rgb(253,0,0);stroke-width:2"/></g>
<g fill-rule="evenodd"><path d="M 993.26,557.858 z " style="fill-opacity:0.5;fill:rgb(0,253,0);stroke:rgb(0,0,0);stroke-width:5"/></g>
<g fill-rule="evenodd"><path d="M 839.055,576 L 848.126,576 L 848.126,585.071 L 839.055,585.071 L 839.055,576 z " style="fill-opacity:0.5;fill:rgb(253,0,0);stroke:rgb(253,0,0);stroke-width:2"/></g>
<g fill-rule="evenodd"><path d=" z " style="fill-opacity:0.5;fill:rgb(0,253,0);stroke:rgb(0,0,0);stroke-width:5"/></g>
<g fill-rule="evenodd"><path d="M 1147.46,621.354 L 1156.54,621.354 L 1156.54,630.425 L 1156.54,639.496 L 1156.54,648.567 L 1156.54,657.638 L 1156.54,666.709 L 1156.54,675.78 L 1156.54,684.85 L 1156.54,693.921 L 1156.54,702.992 L 1147.46,702.992 L 1138.39,712.063 L 1129.32,712.063 L 1120.25,712.063 L 1111.18,712.063 L 1102.11,702.992 L 1093.04,702.992 L 1093.04,693.921 L 1093.04,684.85 L 1102.11,684.85 L 1111.18,684.85 L 1120.25,684.85 L 1129.32,675.78 L 1129.32,666.709 L 1138.39,666.709 L 1147.46,657.638 L 1147.46,648.567 L 1147.46,639.496 L 1147.46,630.425 L 1147.46,621.354 z " style="fill-opacity:0.5;fill:rgb(253,0,0);stroke:rgb(253,0,0);stroke-width:2"/></g>
<g fill-rule="evenodd"><path d="M 1093.04,702.992 L 1156.54,702.992 L 1156.54,621.354 L 1147.46,657.638 L 1120.25,684.85 L 1093.04,684.85 L 1093.04,702.992 z " style="fill-opacity:0.5;fill:rgb(0,253,0);stroke:rgb(0,0,0);stroke-width:5"/></g>
<g fill-rule="evenodd"><path d="M 739.276,666.709 L 748.346,666.709 L 757.417,666.709 L 766.488,675.78 L 775.559,675.78 L 784.63,684.85 L 793.701,684.85 L 802.772,684.85 L 811.843,684.85 L 820.913,684.85 L 829.984,684.85 L 839.055,693.921 L 848.126,693.921 L 857.197,693.921 L 866.268,693.921 L 875.339,693.921 L 884.409,693.921 L 893.48,702.992 L 902.551,702.992 L 911.622,702.992 L 920.693,702.992 L 929.764,693.921 L 938.835,693.921 L 947.906,684.85 L 956.976,684.85 L 966.047,684.85 L 975.118,684.85 L 984.189,693.921 L 975.118,702.992 L 966.047,702.992 L 956.976,712.063 L 947.906,712.063 L 938.835,721.134 L 929.764,721.134 L 920.693,721.134 L 911.622,721.134 L 902.551,730.205 L 902.551,739.276 L 893.48,739.276 L 893.48,730.205 L 893.48,721.134 L 884.409,712.063 L 875.339,712.063 L 866.268,712.063 L 857.197,712.063 L 848.126,712.063 L 839.055,712.063 L 829.984,702.992 L 820.913,702.992 L 811.843,702.992 L 802.772,702.992 L 793.701,702.992 L 784.63,702.992 L 775.559,712.063 L 766.488,712.063 L 757.417,712.063 L 748.346,712.063 L 739.276,721.134 L 730.205,721.134 L 721.134,721.134 L 712.063,721.134 L 702.992,712.063 L 693.921,702.992 L 684.85,702.992 L 684.85,693.921 L 693.921,693.921 L 702.992,684.85 L 712.063,684.85 L 721.134,675.78 L 730.205,675.78 L 739.276,666.709 z " style="fill-opacity:0.5;fill:rgb(253,0,0);stroke:rgb(253,0,0);stroke-width:2"/></g>
<g fill-rule="evenodd"><path d="M 984.189,693.921 L 947.906,684.85 L 893.48,702.992 L 739.276,666.709 L 684.85,702.992 L 712.063,721.134 L 829.984,702.992 L 884.409,712.063 L 902.551,739.276 L 911.622,721.134 L 938.835,721.134 L 984.189,693.921 z " style="fill-opacity:0.5;fill:rgb(0,253,0);stroke:rgb(0,0,0);stroke-width:5"/></g>
<g fill-rule="evenodd"><path d="M 385.512,693.921 L 394.583,693.921 L 403.654,693.921 L 412.724,702.992 L 421.795,702.992 L 430.866,712.063 L 439.937,712.063 L 449.008,721.134 L 458.079,721.134 L 458.079,730.205 L 449.008,739.276 L 439.937,739.276 L 430.866,748.346 L 421.795,748.346 L 412.724,748.346 L 403.654,748.346 L 394.583,748.346 L 385.512,748.346 L 376.441,757.417 L 367.37,757.417 L 358.299,757.417 L 349.228,757.417 L 340.157,757.417 L 331.087,757.417 L 322.016,766.488 L 312.945,766.488 L 303.874,775.559 L 294.803,775.559 L 285.732,784.63 L 276.661,784.63 L 267.591,793.701 L 258.52,793.701 L 249.449,802.772 L 240.378,802.772 L 231.307,793.701 L 222.236,793.701 L 213.165,784.63 L 204.094,784.63 L 195.024,775.559 L 204.094,766.488 L 213.165,766.488 L 222.236,757.417 L 231.307,757.417 L 240.378,757.417 L 249.449,757.417 L 258.52,766.488 L 267.591,766.488 L 276.661,766.488 L 285.732,766.488 L 294.803,757.417 L 303.874,757.417 L 312.945,748.346 L 312.945,739.276 L 322.016,739.276 L 331.087,730.205 L 331.087,721.134 L 340.157,721.134 L 349.228,712.063 L 358.299,712.063 L 367.37,702.992 L 376.441,702.992 L 385.512,693.921 z " style="fill-opacity:0.5;fill:rgb(253,0,0);stroke:rgb(253,0,0);stroke-width:2"/></g>
<g fill-rule="evenodd"><path d="M 195.024,775.559 L 249.449,802.772 L 331.087,757.417 L 430.866,748.346 L 458.079,721.134 L 385.512,693.921 L 331.087,721.134 L 285.732,766.488 L 222.236,757.417 L 195.024,775.559 z " style="fill-opacity:0.5;fill:rgb(0,253,0);stroke:rgb(0,0,0);stroke-width:5"/></g>
<g fill-rule="evenodd"><path d="M 1038.61,730.205 L 1047.69,730.205 L 1056.76,730.205 L 1065.83,730.205 L 1074.9,739.276 L 1083.97,739.276 L 1093.04,739.276 L 1102.11,739.276 L 1111.18,739.276 L 1120.25,739.276 L 1129.32,739.276 L 1138.39,739.276 L 1147.46,730.205 L 1156.54,730.205 L 1156.54,739.276 L 1156.54,748.346 L 1156.54,757.417 L 1156.54,766.488 L 1156.54,775.559 L 1156.54,784.63 L 1156.54,793.701 L 1156.54,802.772 L 1156.54,811.843 L 1156.54,820.913 L 1156.54,829.984 L 1156.54,839.055 L 1156.54,848.126 L 1156.54,857.197 L 1156.54,866.268 L 1156.54,875.339 L 1156.54,884.409 L 1156.54,893.48 L 1156.54,902.551 L 1156.54,911.622 L 1156.54,920.693 L 1156.54,929.764 L 1156.54,938.835 L 1147.46,938.835 L 1138.39,929.764 L 1129.32,929.764 L 1120.25,920.693 L 1111.18,920.693 L 1111.18,911.622 L 1111.18,902.551 L 1111.18,893.48 L 1120.25,893.48 L 1129.32,884.409 L 1129.32,875.339 L 1129.32,866.268 L 1129.32,857.197 L 1120.25,848.126 L 1111.18,848.126 L 1102.11,839.055 L 1093.04,839.055 L 1093.04,829.984 L 1093.04,820.913 L 1083.97,811.843 L 1074.9,811.843 L 1065.83,802.772 L 1056.76,802.772 L 1056.76,793.701 L 1056.76,784.63 L 1047.69,775.559 L 1038.61,775.559 L 1029.54,766.488 L 1020.47,766.488 L 1011.4,766.488 L 1002.33,757.417 L 1002.33,748.346 L 1011.4,748.346 L 1020.47,739.276 L 1029.54,739.276 L 1038.61,730.205 z " style="fill-opacity:0.5;fill:rgb(253,0,0);stroke:rgb(253,0,0);stroke-width:2"/></g>
<g fill-rule="evenodd"><path d="M 1156.54,938.835 L 1156.54,730.205 L 1038.61,730.205 L 1002.33,748.346 L 1011.4,766.488 L 1047.69,775.559 L 1056.76,802.772 L 1093.04,820.913 L 1093.04,839.055 L 1129.32,857.197 L 1111.18,920.693 L 1156.54,938.835 z " style="fill-opacity:0.5;fill:rgb(0,253,0);stroke:rgb(0,0,0);stroke-width:5"/></g>
<g fill-rule="evenodd"><path d="M 4.53543,793.701 L 13.6063,793.701 L 22.6772,793.701 L 31.748,793.701 L 40.8189,802.772 L 49.8898,802.772 L 58.9606,802.772 L 68.0315,802.772 L 77.1024,802.772 L 86.1732,802.772 L 95.2441,811.843 L 104.315,811.843 L 113.386,811.843 L 122.457,811.843 L 131.528,811.843 L 140.598,811.843 L 149.669,820.913 L 158.74,820.913 L 167.811,829.984 L 176.882,829.984 L 176.882,839.055 L 167.811,848.126 L 158.74,848.126 L 149.669,848.126 L 140.598,857.197 L 131.528,857.197 L 122.457,857.197 L 113.386,857.197 L 104.315,857.197 L 95.2441,857.197 L 86.1732,866.268 L 77.1024,866.268 L 68.0315,875.339 L 68.0315,884.409 L 68.0315,893.48 L 58.9606,893.48 L 49.8898,902.551 L 40.8189,902.551 L 31.748,911.622 L 31.748,920.693 L 31.748,929.764 L 22.6772,929.764 L 13.6063,938.835 L 4.53543,938.835 L 4.53543,929.764 L 4.53543,920.693 L 4.53543,911.622 L 4.53543,902.551 L 4.53543,893.48 L 4.53543,884.409 L 4.53543,875.339 L 4.53543,866.268 L 4.53543,857.197 L 4.53543,848.126 L 4.53543,839.055 L 4.53543,829.984 L 4.53543,820.913 L 4.53543,811.843 L 4.53543,802.772 L 4.53543,793.701 z " style="fill-opacity:0.5;fill:rgb(253,0,0);stroke:rgb(253,0,0);stroke-width:2"/></g>
<g fill-rule="evenodd"><path d="M 176.882,839.055 L 140.598,811.843 L 4.53543,793.701 L 4.53543,938.835 L 31.748,929.764 L 31.748,911.622 L 68.0315,893.48 L 77.1024,866.268 L 176.882,839.055 z " style="fill-opacity:0.5;fill:rgb(0,253,0);stroke:rgb(0,0,0);stroke-width:5"/></g>
<g fill-rule="evenodd"><path d="M 548.787,811.843 L 557.858,811.843 L 548.787,811.843 z " style="fill-opacity:0.5;fill:rgb(253,0,0);stroke:rgb(253,0,0);stroke-width:2"/></g>
<g fill-rule="evenodd"><path d="M 557.858,811.843 z " style="fill-opacity:0.5;fill:rgb(0,253,0);stroke:rgb(0,0,0);stroke-width:5"/></g>
<g fill-rule="evenodd"><path d="M 403.654,820.913 L 412.724,820.913 L 421.795,829.984 L 430.866,829.984 L 421.795,829.984 L 412.724,820.913 L 403.654,820.913 z " style="fill-opacity:0.5;fill:rgb(253,0,0);stroke:rgb(253,0,0);stroke-width:2"/></g>
<g fill-rule="evenodd"><path d="M 430.866,829.984 L 403.654,820.913 L 430.866,829.984 z " style="fill-opacity:0.5;fill:rgb(0,253,0);stroke:rgb(0,0,0);stroke-width:5"/></g>
<g fill-rule="evenodd"><path d="M 566.929,875.339 L 576,875.339 L 576,884.409 L 566.929,884.409 L 566.929,875.339 z " style="fill-opacity:0.5;fill:rgb(253,0,0);stroke:rgb(253,0,0);stroke-width:2"/></g>
<g fill-rule="evenodd"><path d=" z " style="fill-opacity:0.5;fill:rgb(0,253,0);stroke:rgb(0,0,0);stroke-width:5"/></g>
<g fill-rule="evenodd"><path d="M 784.63,875.339 L 793.701,875.339 L 802.772,875.339 L 811.843,875.339 L 820.913,884.409 L 829.984,884.409 L 839.055,884.409 L 848.126,884.409 L 857.197,884.409 L 866.268,884.409 L 875.339,893.48 L 884.409,893.48 L 893.48,893.48 L 902.551,893.48 L 911.622,884.409 L 911.622,875.339 L 920.693,875.339 L 920.693,884.409 L 920.693,893.48 L 929.764,902.551 L 938.835,902.551 L 947.906,911.622 L 956.976,911.622 L 966.047,911.622 L 975.118,911.622 L 984.189,911.622 L 993.26,911.622 L 1002.33,920.693 L 1011.4,920.693 L 1020.47,929.764 L 1029.54,929.764 L 1038.61,938.835 L 1047.69,938.835 L 1056.76,947.906 L 1056.76,956.976 L 1065.83,966.047 L 1074.9,975.118 L 1083.97,975.118 L 1093.04,984.189 L 1093.04,993.26 L 1102.11,1002.33 L 1111.18,1011.4 L 1111.18,1020.47 L 1120.25,1029.54 L 1129.32,1020.47 L 1129.32,1011.4 L 1138.39,1011.4 L 1138.39,1020.47 L 1138.39,1029.54 L 1138.39,1038.61 L 1147.46,1047.69 L 1156.54,1047.69 L 1156.54,1056.76 L 1156.54,1065.83 L 1156.54,1074.9 L 1156.54,1083.97 L 1156.54,1093.04 L 1147.46,1093.04 L 1138.39,1083.97 L 1138.39,1074.9 L 1129.32,1065.83 L 1120.25,1056.76 L 1111.18,1056.76 L 1102.11,1047.69 L 1093.04,1047.69 L 1083.97,1038.61 L 1083.97,1029.54 L 1074.9,1020.47 L 1065.83,1011.4 L 1065.83,1002.33 L 1056.76,993.26 L 1047.69,984.189 L 1038.61,984.189 L 1029.54,975.118 L 1029.54,966.047 L 1020.47,956.976 L 1011.4,947.906 L 1002.33,947.906 L 993.26,938.835 L 984.189,938.835 L 975.118,938.835 L 966.047,938.835 L 956.976,938.835 L 947.906,938.835 L 938.835,929.764 L 929.764,929.764 L 920.693,920.693 L 911.622,920.693 L 902.551,920.693 L 893.48,920.693 L 884.409,920.693 L 875.339,920.693 L 866.268,911.622 L 857.197,911.622 L 848.126,911.622 L 839.055,911.622 L 829.984,911.622 L 820.913,911.622 L 811.843,902.551 L 802.772,902.551 L 793.701,902.551 L 784.63,902.551 L 775.559,911.622 L 766.488,911.622 L 757.417,911.622 L 748.346,911.622 L 739.276,911.622 L 730.205,911.622 L 721.134,920.693 L 712.063,929.764 L 712.063,938.835 L 702.992,947.906 L 693.921,947.906 L 684.85,956.976 L 675.78,956.976 L 666.709,966.047 L 657.638,966.047 L 648.567,975.118 L 639.496,984.189 L 639.496,993.26 L 630.425,1002.33 L 621.354,1002.33 L 612.283,1011.4 L 603.213,1020.47 L 603.213,1029.54 L 594.142,1029.54 L 585.071,1029.54 L 576,1020.47 L 576,1011.4 L 566.929,1002.33 L 557.858,993.26 L 557.858,984.189 L 557.858,975.118 L 566.929,966.047 L 557.858,956.976 L 548.787,956.976 L 539.717,956.976 L 530.646,956.976 L 521.575,956.976 L 512.504,956.976 L 503.433,947.906 L 503.433,938.835 L 503.433,929.764 L 512.504,929.764 L 521.575,929.764 L 530.646,929.764 L 539.717,929.764 L 548.787,929.764 L 557.858,929.764 L 566.929,938.835 L 576,938.835 L 585.071,947.906 L 594.142,947.906 L 603.213,956.976 L 612.283,956.976 L 621.354,956.976 L 630.425,956.976 L 639.496,947.906 L 648.567,947.906 L 657.638,938.835 L 666.709,938.835 L 675.78,929.764 L 684.85,920.693 L 684.85,911.622 L 693.921,902.551 L 702.992,902.551 L 712.063,893.48 L 721.134,893.48 L 730.205,884.409 L 739.276,884.409 L 748.346,884.409 L 757.417,884.409 L 766.488,884.409 L 775.559,884.409 L 784.63,875.339 z " style="fill-opacity:0.5;fill:rgb(253,0,0);stroke:rgb(253,0,0);stroke-width:2"/></g>
<g fill-rule="evenodd"><path d="M 1156.54,1093.04 L 1156.54,1047.69 L 1138.39,1038.61 L 1138.39,1011.4 L 1120.25,1029.54 L 1047.69,938.835 L 993.26,911.622 L 947.906,911.622 L 920.693,893.48 L 920.693,875.339 L 902.551,893.48 L 811.843,875.339 L 730.205,884.409 L 630.425,956.976 L 603.213,956.976 L 557.858,929.764 L 503.433,929.764 L 512.504,956.976 L 557.858,956.976 L 557.858,993.26 L 585.071,1029.54 L 603.213,1029.54 L 657.638,966.047 L 702.992,947.906 L 730.205,911.622 L 811.843,902.551 L 920.693,920.693 L 947.906,938.835 L 1011.4,947.906 L 1083.97,1038.61 L 1156.54,1093.04 z " style="fill-opacity:0.5;fill:rgb(0,253,0);stroke:rgb(0,0,0);stroke-width:5"/></g>
<g fill-rule="evenodd"><path d="M 113.386,893.48 L 122.457,893.48 L 131.528,893.48 L 140.598,893.48 L 149.669,893.48 L 158.74,893.48 L 158.74,902.551 L 158.74,911.622 L 149.669,911.622 L 140.598,920.693 L 140.598,929.764 L 140.598,938.835 L 149.669,947.906 L 158.74,947.906 L 158.74,956.976 L 158.74,966.047 L 158.74,975.118 L 167.811,984.189 L 176.882,984.189 L 176.882,993.26 L 185.953,1002.33 L 195.024,1002.33 L 204.094,993.26 L 213.165,993.26 L 222.236,1002.33 L 231.307,1002.33 L 231.307,1011.4 L 231.307,1020.47 L 231.307,1029.54 L 222.236,1029.54 L 213.165,1038.61 L 213.165,1047.69 L 213.165,1056.76 L 213.165,1065.83 L 204.094,1065.83 L 195.024,1074.9 L 195.024,1083.97 L 195.024,1093.04 L 185.953,1093.04 L 176.882,1102.11 L 167.811,1102.11 L 158.74,1111.18 L 167.811,1120.25 L 176.882,1120.25 L 167.811,1120.25 L 158.74,1111.18 L 149.669,1111.18 L 140.598,1120.25 L 140.598,1129.32 L 149.669,1138.39 L 158.74,1138.39 L 158.74,1147.46 L 167.811,1156.54 L 176.882,1156.54 L 185.953,1156.54 L 195.024,1156.54 L 204.094,1156.54 L 213.165,1156.54 L 222.236,1156.54 L 231.307,1147.46 L 231.307,1138.39 L 240.378,1129.32 L 249.449,1129.32 L 258.52,1129.32 L 267.591,1120.25 L 267.591,1111.18 L 267.591,1102.11 L 276.661,1102.11 L 285.732,1102.11 L 294.803,1102.11 L 303.874,1102.11 L 312.945,1093.04 L 322.016,1083.97 L 312.945,1074.9 L 303.874,1065.83 L 303.874,1056.76 L 294.803,1047.69 L 303.874,1038.61 L 303.874,1029.54 L 312.945,1020.47 L 322.016,1020.47 L 331.087,1011.4 L 340.157,1002.33 L 331.087,993.26 L 322.016,984.189 L 322.016,975.118 L 312.945,966.047 L 322.016,956.976 L 322.016,947.906 L 331.087,947.906 L 340.157,947.906 L 349.228,947.906 L 358.299,947.906 L 367.37,947.906 L 376.441,947.906 L 385.512,956.976 L 394.583,956.976 L 403.654,966.047 L 412.724,966.047 L 421.795,975.118 L 430.866,975.118 L 439.937,984.189 L 439.937,993.26 L 439.937,1002.33 L 430.866,1011.4 L 421.795,1011.4 L 412.724,1020.47 L 403.654,1029.54 L 403.654,1038.61 L 394.583,1047.69 L 385.512,1056.76 L 394.583,1065.83 L 403.654,1074.9 L 412.724,1074.9 L 421.795,1083.97 L 430.866,1083.97 L 439.937,1093.04 L 439.937,1102.11 L 449.008,1111.18 L 458.079,1111.18 L 467.15,1111.18 L 476.22,1102.11 L 485.291,1102.11 L 494.362,1102.11 L 503.433,1102.11 L 512.504,1111.18 L 521.575,1111.18 L 530.646,1111.18 L 539.717,1111.18 L 548.787,1111.18 L 557.858,1111.18 L 566.929,1111.18 L 576,1111.18 L 585.071,1102.11 L 594.142,1102.11 L 603.213,1102.11 L 612.283,1093.04 L 612.283,1083.97 L 603.213,1074.9 L 612.283,1065.83 L 612.283,1056.76 L 621.354,1056.76 L 630.425,1056.76 L 639.496,1065.83 L 639.496,1074.9 L 648.567,1083.97 L 657.638,1093.04 L 657.638,1102.11 L 657.638,1111.18 L 648.567,1120.25 L 639.496,1129.32 L 648.567,1138.39 L 657.638,1147.46 L 666.709,1147.46 L 675.78,1156.54 L 684.85,1156.54 L 693.921,1156.54 L 702.992,1156.54 L 712.063,1156.54 L 721.134,1156.54 L 730.205,1156.54 L 739.276,1156.54 L 748.346,1156.54 L 757.417,1156.54 L 766.488,1156.54 L 775.559,1156.54 L 784.63,1156.54 L 793.701,1156.54 L 802.772,1156.54 L 811.843,1156.54 L 820.913,1156.54 L 829.984,1156.54 L 839.055,1156.54 L 848.126,1156.54 L 857.197,1156.54 L 866.268,1156.54 L 875.339,1156.54 L 884.409,1156.54 L 893.48,1156.54 L 902.551,1156.54 L 911.622,1156.54 L 920.693,1156.54 L 929.764,1156.54 L 938.835,1156.54 L 947.906,1156.54 L 956.976,1156.54 L 966.047,1156.54 L 975.118,1156.54 L 984.189,1156.54 L 993.26,1156.54 L 1002.33,1156.54 L 1011.4,1156.54 L 1020.47,1156.54 L 1029.54,1156.54 L 1038.61,1156.54 L 1047.69,1156.54 L 1056.76,1156.54 L 1065.83,1156.54 L 1074.9,1156.54 L 1083.97,1156.54 L 1093.04,1156.54 L 1102.11,1156.54 L 1111.18,1156.54 L 1120.25,1147.46 L 1129.32,1147.46 L 1138.39,1147.46 L 1147.46,1147.46 L 1156.54,1147.46 L 1156.54,1156.54 L 1147.46,1156.54 L 1138.39,1156.54 L 1129.32,1156.54 L 1120.25,1156.54 L 1111.18,1156.54 L 1102.11,1156.54 L 1093.04,1156.54 L 1083.97,1156.54 L 1074.9,1156.54 L 1065.83,1156.54 L 1056.76,1156.54 L 1047.69,1156.54 L 1038.61,1156.54 L 1029.54,1156.54 L 1020.47,1156.54 L 1011.4,1156.54 L 1002.33,1156.54 L 993.26,1156.54 L 984.189,1156.54 L 975.118,1156.54 L 966.047,1156.54 L 956.976,1156.54 L 947.906,1156.54 L 938.835,1156.54 L 929.764,1156.54 L 920.693,1156.54 L 911.622,1156.54 L 902.551,1156.54 L 893.48,1156.54 L 884.409,1156.54 L 875.339,1156.54 L 866.268,1156.54 L 857.197,1156.54 L 848.126,1156.54 L 839.055,1156.54 L 829.984,1156.54 L 820.913,1156.54 L 811.843,1156.54 L 802.772,1156.54 L 793.701,1156.54 L 784.63,1156.54 L 775.559,1156.54 L 766.488,1156.54 L 757.417,1156.54 L 748.346,1156.54 L 739.276,1156.54 L 730.205,1156.54 L 721.134,1156.54 L 712.063,1156.54 L 702.992,1156.54 L 693.921,1156.54 L 684.85,1156.54 L 675.78,1156.54 L 666.709,1156.54 L 657.638,1156.54 L 648.567,1156.54 L 639.496,1156.54 L 630.425,1156.54 L 621.354,1156.54 L 612.283,1156.54 L 603.213,1156.54 L 594.142,1156.54 L 585.071,1156.54 L 576,1156.54 L 566.929,1156.54 L 557.858,1156.54 L 548.787,1156.54 L 539.717,1156.54 L 530.646,1156.54 L 521.575,1156.54 L 512.504,1156.54 L 503.433,1156.54 L 494.362,1156.54 L 485.291,1156.54 L 476.22,1156.54 L 467.15,1156.54 L 458.079,1156.54 L 449.008,1156.54 L 439.937,1156.54 L 430.866,1156.54 L 421.795,1156.54 L 412.724,1156.54 L 403.654,1156.54 L 394.583,1156.54 L 385.512,1156.54 L 376.441,1156.54 L 367.37,1156.54 L 358.299,1156.54 L 349.228,1156.54 L 340.157,1156.54 L 331.087,1156.54 L 322.016,1156.54 L 312.945,1156.54 L 303.874,1156.54 L 294.803,1156.54 L 285.732,1156.54 L 276.661,1156.54 L 267.591,1156.54 L 258.52,1156.54 L 249.449,1156.54 L 240.378,1156.54 L 231.307,1156.54 L 222.236,1156.54 L 213.165,1156.54 L 204.094,1156.54 L 195.024,1156.54 L 185.953,1156.54 L 176.882,1156.54 L 167.811,1156.54 L 158.74,1156.54 L 149.669,1156.54 L 140.598,1156.54 L 131.528,1156.54 L 122.457,1156.54 L 113.386,1156.54 L 104.315,1156.54 L 95.2441,1156.54 L 86.1732,1156.54 L 77.1024,1156.54 L 68.0315,1156.54 L 58.9606,1156.54 L 49.8898,1156.54 L 40.8189,1156.54 L 31.748,1156.54 L 22.6772,1156.54 L 13.6063,1156.54 L 4.53543,1156.54 L 4.53543,1147.46 L 4.53543,1138.39 L 4.53543,1129.32 L 4.53543,1120.25 L 4.53543,1111.18 L 4.53543,1102.11 L 4.53543,1093.04 L 4.53543,1083.97 L 4.53543,1074.9 L 4.53543,1065.83 L 4.53543,1056.76 L 4.53543,1047.69 L 4.53543,1038.61 L 4.53543,1029.54 L 4.53543,1020.47 L 13.6063,1020.47 L 22.6772,1011.4 L 31.748,1011.4 L 40.8189,1002.33 L 49.8898,1002.33 L 58.9606,993.26 L 58.9606,984.189 L 58.9606,975.118 L 49.8898,966.047 L 40.8189,966.047 L 40.8189,956.976 L 40.8189,947.906 L 49.8898,947.906 L 58.9606,938.835 L 68.0315,938.835 L 77.1024,929.764 L 86.1732,929.764 L 95.2441,920.693 L 95.2441,911.622 L 95.2441,902.551 L 104.315,902.551 L 113.386,893.48 z " style="fill-opacity:0.5;fill:rgb(253,0,0);stroke:rgb(253,0,0);stroke-width:2"/></g>
<g fill-rule="evenodd"><path d="M 1156.54,1156.54 L 675.78,1156.54 L 639.496,1129.32 L 657.638,1093.04 L 630.425,1056.76 L 612.283,1056.76 L 612.283,1093.04 L 576,1111.18 L 449.008,1111.18 L 385.512,1056.76 L 439.937,1002.33 L 439.937,984.189 L 376.441,947.906 L 322.016,947.906 L 312.945,966.047 L 340.157,1002.33 L 294.803,1047.69 L 322.016,1083.97 L 303.874,1102.11 L 267.591,1102.11 L 267.591,1120.25 L 240.378,1129.32 L 222.236,1156.54 L 167.811,1156.54 L 140.598,1120.25 L 176.882,1120.25 L 158.74,1111.18 L 195.024,1093.04 L 213.165,1038.61 L 231.307,1029.54 L 231.307,1002.33 L 185.953,1002.33 L 158.74,975.118 L 158.74,947.906 L 140.598,938.835 L 158.74,893.48 L 95.2441,902.551 L 86.1732,929.764 L 40.8189,947.906 L 58.9606,993.26 L 4.53543,1020.47 L 4.53543,1156.54 L 1156.54,1156.54 z " style="fill-opacity:0.5;fill:rgb(0,253,0);stroke:rgb(0,0,0);stroke-width:5"/></g>
<g fill-rule="evenodd"><path d="M 4.53543,984.189 L 13.6063,984.189 L 13.6063,993.26 L 4.53543,993.26 L 4.53543,984.189 z " style="fill-opacity:0.5;fill:rgb(253,0,0);stroke:rgb(253,0,0);stroke-width:2"/></g>
<g fill-rule="evenodd"><path d=" z " style="fill-opacity:0.5;fill:rgb(0,253,0);stroke:rgb(0,0,0);stroke-width:5"/></g>
<g fill-rule="evenodd"><path d="M 49.8898,1020.47 L 58.9606,1020.47 L 68.0315,1020.47 L 77.1024,1020.47 L 86.1732,1020.47 L 95.2441,1020.47 L 104.315,1020.47 L 113.386,1020.47 L 122.457,1020.47 L 131.528,1020.47 L 140.598,1020.47 L 149.669,1020.47 L 158.74,1020.47 L 167.811,1020.47 L 176.882,1020.47 L 185.953,1020.47 L 195.024,1020.47 L 204.094,1020.47 L 213.165,1020.47 L 222.236,1020.47 L 231.307,1011.4 L 222.236,1002.33 L 213.165,1002.33 L 204.094,1002.33 L 195.024,1002.33 L 185.953,1002.33 L 176.882,1002.33 L 167.811,1002.33 L 158.74,1002.33 L 149.669,1002.33 L 140.598,1002.33 L 131.528,1002.33 L 122.457,1002.33 L 113.386,1002.33 L 104.315,1002.33 L 95.2441,1002.33 L 86.1732,1002.33 L 77.1024,1002.33 L 68.0315,1002.33 L 58.9606,1002.33 L 49.8898,1002.33 L 40.8189,1011.4 L 49.8898,1020.47M 340.157,1020.47 L 331.087,1020.47 L 322.016,1029.54 L 322.016,1038.61 L 322.016,1047.69 L 322.016,1056.76 L 331.087,1065.83 L 340.157,1065.83 L 340.157,1074.9 L 349.228,1083.97 L 358.299,1083.97 L 367.37,1074.9 L 367.37,1065.83 L 367.37,1056.76 L 367.37,1047.69 L 367.37,1038.61 L 376.441,1038.61 L 385.512,1029.54 L 376.441,1020.47 L 367.37,1020.47 L 358.299,1020.47 L 349.228,1020.47 L 340.157,1020.47M 31.748,1038.61 L 22.6772,1047.69 L 31.748,1056.76 L 40.8189,1047.69 L 31.748,1038.61M 95.2441,1102.11 L 86.1732,1111.18 L 95.2441,1120.25 L 104.315,1120.25 L 113.386,1111.18 L 104.315,1102.11 L 95.2441,1102.11M 40.8189,1120.25 L 31.748,1129.32 L 40.8189,1138.39 L 49.8898,1129.32 L 40.8189,1120.25 z " style="fill-opacity:0.5;fill:rgb(253,0,0);stroke:rgb(253,0,0);stroke-width:2"/></g>
<g fill-rule="evenodd"><path d="M 358.299,1083.97 L 322.016,1056.76 L 331.087,1020.47 L 385.512,1029.54 L 367.37,1038.61 L 358.299,1083.97M 95.2441,1102.11 L 113.386,1111.18 L 95.2441,1120.25 L 95.2441,1102.11 z " style="fill-opacity:0.5;fill:rgb(0,253,0);stroke:rgb(0,0,0);stroke-width:5"/></g>
</svg>
